<svg width="417" height="289" fill="none" xmlns="http://www.w3.org/2000/svg"><path d="M21.074 125.5s1.617 86 115.01 142c78.306 38.7 164.306-22.6 176.876-31.8 12.57-9.1-108.85-73.8-108.85-73.8L58.615 111.8l-37.54 13.7zm40.147-74.2l-7.815-13.2s69.64-67.9 170.274-20.4c125.44 59.3 111.49 171 111.49 171l-38.45-8L61.221 51.3z" fill="#225B7E"/><path d="M370.26 284.7c1.36-15.9 8.64-46.3 18.24-53.9 9.59-7.6 36.93-54.4 24.28-51.4-12.66 3-52.36 18.799-67.98 13.699-4.02-1.4-7.88-3.299-11.53-5.399-4.18-2-5.32-13.7-5.7-18.8-3.27-46-43.42-96.5-104.84-125.5-49.39-23.3-96.639-23.8-138.66-13.9-15.476 3.6-76.624 18.3-82.148 30-5.713 12.1 15.81 62.3 25.992 78.7 21.473 34.4 53.885 73.099 104.341 96.899 58.375 27.6 119.585 28 157.745 5 4.43-2.6 17.49-6.899 22-4.799 6.2 2.9 12.32 6.1 17.15 9.6 17.19 12.6 39.76 55.6 41.11 39.8z" fill="#255776"/><path d="M389.88 229.5l-2.69-.8c-3.39-1-6.7-2.3-9.98-3.3-3.24-1.2-6.38-2.2-9.28-3.1-2.91-.9-5.56-1.8-7.88-2.3-4.59-1.2-7.9-1.2-8.87.5-.97 1.8 1.08 4.4 4.98 7.4 2.31 1.7 4.72 3.2 7.21 4.6 2.81 1.5 5.95 3.1 9.27 4.5 2.92 1.2 5.91 2.5 8.99 3.5 2.09-4.3 4.4-7.8 6.86-9.7.48-.4.95-.8 1.39-1.3zm-38.55-18.1c6.18 2.9 15.35 5.4 25.52 6.1 7.72.5 15.48.1 23.11-1.1 3.15-4.8 6.34-10.2 9.06-15.3-1.39.3-2.81.7-4.27 1-8.95 2.1-18.12 3-27.3 2.9-9.01 0-17.33-1.2-23.54-2-1.54-.3-2.97-.4-4.24-.5-1.12-.2-2.24-.2-3.36-.2-1.93 0-3.21.4-3.61 1.4-.39.9.22 2 1.71 3.4.89.8 1.85 1.5 2.86 2.1 1.14.8 2.52 1.5 4.06 2.2zm23.88 47l-2.93-3.4-1.95-2.201c-.66-.7-1.37-1.399-2.05-2.099-1.38-1.4-2.76-2.801-4.13-4.101-1.36-1.3-2.84-2.499-4.19-3.599-1.35-1.2-2.7-2.301-4.08-3.201a60.16 60.16 0 00-7.56-4.799c-4.65-2.3-7.99-3.001-9.17-1.401-1.18 1.6.41 4.601 3.62 8.301 1.57 1.8 3.45 3.999 5.66 6.199 1.11 1.1 2.16 2.401 3.32 3.601 1.17 1.2 2.38 2.5 3.57 3.8l3.6 4c.61.6 1.24 1.3 1.84 2l1.76 2.099 3.54 4.101 3.28 4.099c.8 1 1.55 2 2.29 3 .82-5.2 2.05-10.899 3.58-16.399z" fill="#225B7E" stroke="#5B7BBB" stroke-miterlimit="10"/></svg>