<svg width="219" height="136" fill="none" xmlns="http://www.w3.org/2000/svg"><path d="M69.1 8.2c7.02.9 14.16 1.8 20.67 4.7 8.52 3.8 15.16 10.7 21.6 17.4L135.81 56c7.72 8.1 15.97 16.5 26.67 19.9 8.34 2.7 17.25 2 25.91 2.9 10.2 1.2 20.07 4.7 28.79 10.2-15.13 10.4-25.55 26-29.22 43.8-.16.8-.35 1.601-.93 2.101-1.33 1.2-3.48-.101-4.79-1.301-9.86-9.8-15.3-24.599-28.19-29.699-6.95-2.8-14.67-2.001-21.95-.901-12.14 1.8-24.19 4.501-36.55 4.401-8.83-.1-17.63-1.601-26.37-3.201-7-1.2-14.12-2.5-20.44-5.7-6.78-3.6-12.21-9.2-17.38-14.8-12.02-13-23.77-27.2-28.21-44C.55 29.8.64 19.6.73 9.5.85-3.6 18.66 2 27.44 3.1L69.1 8.2z" fill="#255776" stroke="#5B7BBB" stroke-miterlimit="10"/></svg>