<svg width="757" height="557" viewBox="0 0 757 557" fill="none" xmlns="http://www.w3.org/2000/svg">
<path d="M365.716 171.506H361.194V180.27H360.032V170.47H366.878V180.27H365.716V171.506ZM369.316 176.77C369.316 175.584 369.578 174.679 370.1 174.054C370.632 173.419 371.393 173.102 372.382 173.102C372.905 173.102 373.358 173.19 373.74 173.368C374.132 173.536 374.454 173.783 374.706 174.11C374.958 174.427 375.145 174.814 375.266 175.272C375.388 175.72 375.448 176.219 375.448 176.77C375.448 177.955 375.182 178.865 374.65 179.5C374.128 180.125 373.372 180.438 372.382 180.438C371.86 180.438 371.402 180.354 371.01 180.186C370.628 180.008 370.31 179.761 370.058 179.444C369.806 179.117 369.62 178.73 369.498 178.282C369.377 177.824 369.316 177.32 369.316 176.77ZM370.478 176.77C370.478 177.124 370.511 177.465 370.576 177.792C370.651 178.118 370.763 178.403 370.912 178.646C371.062 178.888 371.258 179.084 371.5 179.234C371.743 179.383 372.037 179.458 372.382 179.458C373.652 179.467 374.286 178.571 374.286 176.77C374.286 176.406 374.249 176.06 374.174 175.734C374.109 175.407 374.002 175.122 373.852 174.88C373.703 174.637 373.507 174.446 373.264 174.306C373.022 174.156 372.728 174.082 372.382 174.082C371.113 174.072 370.478 174.968 370.478 176.77ZM383.88 182.048H383.124L382.914 180.27H377.65L377.44 182.048H376.684V179.29H377.51C377.585 179.187 377.683 179.005 377.804 178.744C377.925 178.473 378.042 178.1 378.154 177.624C378.275 177.138 378.378 176.541 378.462 175.832C378.555 175.113 378.611 174.259 378.63 173.27H382.858V179.29H383.88V182.048ZM381.738 179.29V174.25H379.638C379.619 174.642 379.587 175.071 379.54 175.538C379.493 175.995 379.428 176.457 379.344 176.924C379.269 177.381 379.171 177.815 379.05 178.226C378.929 178.636 378.789 178.991 378.63 179.29H381.738ZM385.826 173.27H386.596L386.806 174.11H386.862C387.077 173.783 387.352 173.536 387.688 173.368C388.034 173.19 388.426 173.102 388.864 173.102C389.798 173.102 390.493 173.377 390.95 173.928C391.408 174.478 391.636 175.379 391.636 176.63C391.636 177.218 391.557 177.75 391.398 178.226C391.249 178.692 391.034 179.089 390.754 179.416C390.474 179.742 390.134 179.994 389.732 180.172C389.34 180.349 388.902 180.438 388.416 180.438C388.071 180.438 387.796 180.414 387.59 180.368C387.394 180.33 387.18 180.26 386.946 180.158V183.07H385.826V173.27ZM388.654 174.082C388.178 174.082 387.8 174.208 387.52 174.46C387.25 174.702 387.058 175.076 386.946 175.58V179.052C387.114 179.182 387.306 179.285 387.52 179.36C387.735 179.425 388.02 179.458 388.374 179.458C389.018 179.458 389.527 179.22 389.9 178.744C390.283 178.258 390.474 177.549 390.474 176.616C390.474 176.233 390.442 175.888 390.376 175.58C390.311 175.262 390.204 174.996 390.054 174.782C389.914 174.558 389.728 174.385 389.494 174.264C389.27 174.142 388.99 174.082 388.654 174.082ZM393.569 176.77C393.569 175.584 393.83 174.679 394.353 174.054C394.885 173.419 395.645 173.102 396.635 173.102C397.157 173.102 397.61 173.19 397.993 173.368C398.385 173.536 398.707 173.783 398.959 174.11C399.211 174.427 399.397 174.814 399.519 175.272C399.64 175.72 399.701 176.219 399.701 176.77C399.701 177.955 399.435 178.865 398.903 179.5C398.38 180.125 397.624 180.438 396.635 180.438C396.112 180.438 395.655 180.354 395.263 180.186C394.88 180.008 394.563 179.761 394.311 179.444C394.059 179.117 393.872 178.73 393.751 178.282C393.629 177.824 393.569 177.32 393.569 176.77ZM394.731 176.77C394.731 177.124 394.763 177.465 394.829 177.792C394.903 178.118 395.015 178.403 395.165 178.646C395.314 178.888 395.51 179.084 395.753 179.234C395.995 179.383 396.289 179.458 396.635 179.458C397.904 179.467 398.539 178.571 398.539 176.77C398.539 176.406 398.501 176.06 398.427 175.734C398.361 175.407 398.254 175.122 398.105 174.88C397.955 174.637 397.759 174.446 397.517 174.306C397.274 174.156 396.98 174.082 396.635 174.082C395.365 174.072 394.731 174.968 394.731 176.77ZM402.67 174.516C402.978 174.068 403.319 173.755 403.692 173.578C404.066 173.391 404.532 173.298 405.092 173.298C405.951 173.298 406.609 173.578 407.066 174.138C407.533 174.698 407.766 175.524 407.766 176.616C407.766 177.876 407.496 178.828 406.954 179.472C406.422 180.116 405.676 180.438 404.714 180.438C403.688 180.438 402.918 180.083 402.404 179.374C401.891 178.664 401.634 177.549 401.634 176.028C401.634 175.225 401.672 174.539 401.746 173.97C401.83 173.4 401.947 172.92 402.096 172.528C402.255 172.136 402.442 171.823 402.656 171.59C402.88 171.356 403.128 171.174 403.398 171.044C403.678 170.904 403.982 170.806 404.308 170.75C404.635 170.694 404.985 170.647 405.358 170.61C405.844 170.563 406.222 170.512 406.492 170.456C406.772 170.39 406.996 170.278 407.164 170.12L407.29 171.128C407.197 171.212 407.094 171.282 406.982 171.338C406.87 171.394 406.735 171.44 406.576 171.478C406.418 171.515 406.226 171.548 406.002 171.576C405.788 171.604 405.536 171.627 405.246 171.646C404.845 171.674 404.49 171.725 404.182 171.8C403.884 171.865 403.622 172 403.398 172.206C403.184 172.402 403.011 172.686 402.88 173.06C402.759 173.424 402.675 173.909 402.628 174.516H402.67ZM402.796 176.784C402.796 177.138 402.834 177.479 402.908 177.806C402.983 178.132 403.095 178.422 403.244 178.674C403.403 178.916 403.604 179.108 403.846 179.248C404.089 179.388 404.374 179.458 404.7 179.458C405.344 179.458 405.82 179.229 406.128 178.772C406.446 178.305 406.604 177.619 406.604 176.714C406.604 176.359 406.572 176.032 406.506 175.734C406.441 175.435 406.338 175.178 406.198 174.964C406.058 174.74 405.881 174.572 405.666 174.46C405.452 174.338 405.195 174.278 404.896 174.278C404.168 174.268 403.636 174.483 403.3 174.922C402.964 175.351 402.796 175.972 402.796 176.784ZM414.376 177.176H411.212V180.27H410.092V173.27H411.212V176.196H414.376V173.27H415.496V180.27H414.376V177.176ZM423.323 179.71C423.043 179.934 422.688 180.111 422.259 180.242C421.839 180.372 421.391 180.438 420.915 180.438C420.383 180.438 419.921 180.354 419.529 180.186C419.137 180.008 418.815 179.761 418.563 179.444C418.311 179.117 418.124 178.73 418.003 178.282C417.882 177.834 417.821 177.33 417.821 176.77C417.821 175.575 418.087 174.665 418.619 174.04C419.151 173.414 419.912 173.102 420.901 173.102C421.218 173.102 421.536 173.139 421.853 173.214C422.17 173.279 422.455 173.41 422.707 173.606C422.959 173.802 423.164 174.082 423.323 174.446C423.482 174.8 423.561 175.272 423.561 175.86C423.561 176.168 423.533 176.508 423.477 176.882H418.983C418.983 177.292 419.025 177.656 419.109 177.974C419.193 178.291 419.324 178.562 419.501 178.786C419.678 179 419.907 179.168 420.187 179.29C420.476 179.402 420.826 179.458 421.237 179.458C421.554 179.458 421.872 179.402 422.189 179.29C422.506 179.178 422.744 179.047 422.903 178.898L423.323 179.71ZM420.915 174.082C420.364 174.082 419.921 174.226 419.585 174.516C419.258 174.805 419.062 175.3 418.997 176H422.469C422.469 175.29 422.334 174.796 422.063 174.516C421.792 174.226 421.41 174.082 420.915 174.082ZM430.842 179.71C430.562 179.934 430.207 180.111 429.778 180.242C429.358 180.372 428.91 180.438 428.434 180.438C427.902 180.438 427.44 180.354 427.048 180.186C426.656 180.008 426.334 179.761 426.082 179.444C425.83 179.117 425.643 178.73 425.522 178.282C425.4 177.834 425.34 177.33 425.34 176.77C425.34 175.575 425.606 174.665 426.138 174.04C426.67 173.414 427.43 173.102 428.42 173.102C428.737 173.102 429.054 173.139 429.372 173.214C429.689 173.279 429.974 173.41 430.226 173.606C430.478 173.802 430.683 174.082 430.842 174.446C431 174.8 431.08 175.272 431.08 175.86C431.08 176.168 431.052 176.508 430.996 176.882H426.502C426.502 177.292 426.544 177.656 426.628 177.974C426.712 178.291 426.842 178.562 427.02 178.786C427.197 179 427.426 179.168 427.706 179.29C427.995 179.402 428.345 179.458 428.756 179.458C429.073 179.458 429.39 179.402 429.708 179.29C430.025 179.178 430.263 179.047 430.422 178.898L430.842 179.71ZM428.434 174.082C427.883 174.082 427.44 174.226 427.104 174.516C426.777 174.805 426.581 175.3 426.516 176H429.988C429.988 175.29 429.852 174.796 429.582 174.516C429.311 174.226 428.928 174.082 428.434 174.082Z" fill="#456994"/>
<path d="M464.315 169.064L470.377 172.365L464.315 175.665" stroke="#456994" stroke-width="2" stroke-linecap="round"/>
<path d="M445.288 460.732C444.94 461.962 444.578 463.193 444.215 464.424L472.507 464.496C476.58 460.79 480.421 456.823 483.986 452.639C491.972 443.301 498.668 432.848 503.886 421.714C511.466 405.528 515.93 387.88 516.67 370.029C498.987 351.005 470 338.076 444.215 341.305C450.636 367.568 453.796 394.988 451.883 421.903C450.955 435.034 448.824 448.049 445.288 460.732Z" fill="#7D8680"/>
<path d="M615.095 389.601C615.138 396.435 615.66 403.21 616.66 409.899C619.211 427.185 624.921 443.82 633.821 458.993C634.879 460.803 635.98 462.598 637.14 464.364C646.068 464.133 653.894 461.613 661.996 457.864C661.605 455.909 661.228 453.969 660.88 452C656.518 427.837 655.358 403.109 657.416 378.642C658.301 368.131 659.764 357.663 661.837 347.326C642.778 356.52 625.806 371.403 615.095 389.601Z" fill="#7D8680"/>
<path d="M451.883 421.903C469.145 423.915 486.639 423.857 503.886 421.714C511.466 405.528 515.93 387.88 516.67 370.029C498.987 351.005 470 338.076 444.215 341.305C450.622 367.553 453.781 394.988 451.883 421.903Z" fill="#73786E"/>
<path d="M615.095 389.601C615.138 396.435 615.66 403.21 616.66 409.899C632.676 403.341 646.879 392.381 657.402 378.642C658.286 368.131 659.75 357.663 661.823 347.326C642.778 356.52 625.806 371.403 615.095 389.601Z" fill="#73786E"/>
<path d="M633.806 458.995C634.864 460.804 635.966 462.6 637.125 464.366C646.054 464.134 653.88 461.615 661.982 457.865C661.591 455.911 661.214 453.971 660.866 452.002C659.417 452.176 657.982 452.378 656.547 452.581C648.662 453.725 640.966 455.853 633.806 458.995Z" fill="#73786E"/>
<path d="M658.895 455.664C664.446 455.751 670.2 455.881 675.186 457.836C680.171 459.79 684.186 464.09 683.172 468.448L641.125 468.376C637.4 465.625 635.821 462.541 634.023 458.748C642.009 456.518 650.445 455.519 658.895 455.664Z" fill="#7D8680"/>
<path d="M393.938 366.754C402.225 394.5 408.229 392.775 419.817 403.983C431.986 406.291 444.275 408.05 456.667 409.291C463.325 409.954 470.017 410.474 476.709 410.82C493.791 411.729 510.958 411.628 528.022 410.503C529.802 410.387 531.582 410.257 533.362 410.127C537.761 409.781 542.194 409.349 546.61 408.829C560.303 407.228 574.012 404.718 587.037 400.997C592.908 399.309 598.625 397.391 604.17 395.184C618.205 389.588 631.008 382.202 641.619 372.509C660.241 355.504 670.031 333.363 676.638 310.645C677.271 308.452 677.887 306.26 678.452 304.067C679.462 300.288 680.386 296.495 681.259 292.73C683.929 281.292 678.692 267.416 667.823 260.218C662.107 256.439 655.415 254.088 648.414 252.343C644.786 251.434 641.089 250.698 637.375 249.991C634.602 249.458 631.829 248.967 629.073 248.434C625.222 251.636 621.474 254.881 617.846 258.199C617.555 258.458 617.264 258.732 616.99 258.992C613.601 262.108 610.315 265.295 607.131 268.555C606.07 269.651 605.009 270.748 603.965 271.858C600.165 275.897 596.536 280.066 593.062 284.364C593.028 284.422 592.976 284.479 592.925 284.537C592.72 284.494 592.514 284.451 592.309 284.393C589.16 283.686 586.045 283.224 582.981 283.008C569.579 282.071 556.914 285.677 545.634 292.99C541.612 292.917 537.658 293.047 533.79 292.701C509.572 290.581 499.884 288.994 483.881 287.018C464.198 284.58 440.167 286.571 423.257 295.701C421.956 296.408 420.707 297.144 419.492 297.923C413.861 301.615 385.65 339.008 393.938 366.754Z" fill="#EEF5F7"/>
<path d="M551.728 410.827C553.236 410.711 554.743 410.581 556.25 410.451C559.975 410.103 563.729 409.669 567.468 409.148L562.41 380.525C562.41 380.54 555.642 390.501 551.728 410.827Z" fill="#7D8680"/>
<path d="M447.94 409.599C453.578 410.265 459.245 410.786 464.912 411.134C467.507 392.356 464.84 373.043 457.477 355.293C458.115 373.796 454.825 392.414 447.94 409.599Z" fill="#7D8680"/>
<path d="M601.717 401.285C606.689 399.591 611.53 397.665 616.225 395.45C616.863 388.11 618.53 379.307 620.559 365.959C613.515 376.368 606.254 386.648 601.717 401.285Z" fill="#7D8680"/>
<path d="M565.875 459.365C565.904 459.524 565.947 459.683 565.976 459.857C566.339 461.522 566.701 463.187 567.107 464.837C576.441 465.344 584.76 464.085 593.674 461.29C593.688 461.03 593.717 460.784 593.732 460.523C593.964 457.526 594.254 454.529 594.601 451.532C598.022 421.766 606.849 392.608 620.545 365.954C603.298 355.806 579.832 356.211 564.121 368.604C559.063 398.471 559.556 429.7 565.875 459.365Z" fill="#EEF5F7"/>
<path d="M444.215 464.428L472.507 464.5C476.58 460.794 480.421 456.827 483.986 452.643C483.334 452.455 482.682 452.31 482.015 452.209C476.725 451.354 471.072 452.411 465.623 453.483C457.608 455.046 452.259 457.131 445.288 460.736C444.94 461.981 444.578 463.212 444.215 464.428Z" fill="#73786E"/>
<path d="M468.303 455.664C473.854 455.751 479.608 455.881 484.594 457.836C489.58 459.79 493.594 464.09 492.58 468.448L442.939 468.376L446.084 458.748C454.084 456.518 459.838 455.519 468.303 455.664Z" fill="#7D8680"/>
<path d="M462.319 370.029C460.826 405.673 444.55 440.478 418.142 464.511L389.851 464.438C400.127 430.459 400.025 394.033 393.633 358.982C391.865 349.253 398.213 339.915 407.939 338.091C432.955 333.4 462.319 330.085 462.319 370.029Z" fill="#EEF5F7"/>
<path d="M461.243 352.355C468.823 357.292 478.461 357.219 487.505 357.523C502.405 358.03 517.275 359.985 531.798 363.358C544.176 366.239 556.684 370.162 569.337 368.903C583.178 367.513 596.194 360.477 606.223 350.849C639.124 319.331 621.804 295.342 598.643 289.015C587.729 286.032 575.497 286.973 566.641 292.909C563.235 292.837 559.872 293.069 556.611 292.62C521.913 287.886 498.361 289.826 482.432 294.589C456.793 302.233 450.88 317.217 449.981 323.544C448.445 334.33 452.112 346.405 461.243 352.355Z" fill="#FCFAFA"/>
<path d="M660.011 252.845C660.736 248.227 663.171 244.217 666.302 242.465C668.041 241.495 670.041 241.22 671.751 242.248C673.23 243.116 674.375 244.883 675.143 246.866C676.636 250.732 676.723 255.596 675.389 259.577C674.056 263.559 671.316 266.541 668.258 267.366C665.2 263.428 662.127 257.869 660.011 252.845Z" fill="#7D8680"/>
<path d="M630.632 293.831C634.11 298.927 639.603 302.286 645.256 304.747C655.387 309.177 666.547 311.132 677.577 310.611C679.041 304.631 680.331 298.609 681.505 292.629C683.766 281.149 679.331 267.221 670.127 259.997C665.286 256.203 659.619 253.844 653.691 252.092C648.314 252.352 643.125 252.743 639.227 253.018C636.038 256.406 633.154 260.127 630.936 264.195C630.922 264.195 630.936 264.195 630.936 264.195C629.559 266.714 628.458 269.364 627.69 272.143C625.704 279.411 626.385 287.606 630.632 293.831Z" fill="#7D8680"/>
<path d="M627.501 287.588C630.762 292.366 635.806 295.623 641.096 298.041C641.444 298.2 641.792 298.36 642.14 298.504C653.691 303.557 666.591 305.396 679.128 303.991C685.462 303.282 699.1 301.849 708.376 291.642C708.594 291.396 708.869 291.222 709.101 291.005C710.014 290.194 710.869 289.326 711.695 288.413C712.652 287.342 713.536 286.198 714.333 284.997C716.275 282.072 717.681 278.786 718.319 275.369C718.899 272.271 717.014 269.259 713.985 268.362C713.71 268.275 713.434 268.202 713.159 268.116C703.419 265.162 698.767 262.455 691.665 259.226C690.911 258.893 689.418 256.099 688.172 253.566C686.809 250.786 684.244 248.788 681.215 248.136C678.244 247.485 674.316 246.703 670.562 246.196C663.62 245.241 652.517 245.704 643.589 246.254C640.821 246.428 638.27 246.616 636.11 246.761C632.922 250.149 630.038 253.87 627.82 257.938C627.806 257.938 627.82 257.938 627.82 257.938C626.443 260.457 625.342 263.106 624.573 265.886C622.588 273.168 623.254 281.377 627.501 287.588Z" fill="#EEF5F7"/>
<path d="M565.729 459.445C565.816 459.59 565.889 459.735 565.99 459.879C566.961 461.544 567.99 463.195 569.048 464.831C575.773 464.657 585.76 462.978 593.746 460.545C593.978 457.548 594.267 454.552 594.615 451.555C584.673 452.901 571.788 456.81 565.874 459.387C565.831 459.402 565.787 459.416 565.729 459.445Z" fill="#7D8680"/>
<path d="M616.052 271.678C616.067 271.721 616.081 271.765 616.081 271.808C617.849 277.585 621.763 282.695 626.734 286.358C631.401 289.818 637.01 292.004 642.648 292.308C648.098 292.598 654.084 291.063 657.287 286.633C660.678 281.942 659.925 275.138 656.649 270.36C653.374 265.597 648.054 262.586 642.605 260.617C638.807 259.256 632.807 258.286 627.401 258.72C627.285 258.735 627.183 258.735 627.082 258.749C623.241 262.933 619.56 267.233 616.052 271.678Z" fill="#FCFAFA"/>
<path d="M565.8 458.747C567.104 464.843 568.003 468.375 568.003 468.375L586.12 468.404H588.497H590.758H591.657H595.135H597.86H599.773H601.02H603.397H606.542H608.02H609.701H611.817C612.832 464.046 608.817 459.746 603.831 457.792C598.831 455.852 593.091 455.722 587.54 455.62C579.105 455.519 573.786 456.518 565.8 458.747Z" fill="#EEF5F7"/>
<path d="M620.211 259.563C621.82 263.544 625.095 266.527 628.777 267.352C629.806 266.237 630.835 265.007 631.85 263.704C633.56 261.488 635.183 259.056 636.618 256.624C637.357 255.35 638.053 254.09 638.676 252.845C637.792 248.227 634.879 244.202 631.125 242.465C629.038 241.495 626.646 241.22 624.574 242.248C622.805 243.131 621.414 244.883 620.501 246.866C618.718 250.717 618.602 255.596 620.211 259.563Z" fill="#C6DCEB"/>
<path d="M684.447 278.977C681.649 283.552 679.968 288.402 682.563 290.936C685.418 293.744 698.259 294.034 708.376 291.645C709.506 290.675 710.593 289.633 711.594 288.518C711.622 288.489 711.651 288.446 711.68 288.417C712.637 287.345 713.521 286.201 714.318 285C716.26 282.075 717.666 278.789 718.304 275.372C718.884 272.274 717 269.263 713.97 268.365C713.695 268.278 713.42 268.206 713.144 268.119C701.477 264.586 697.346 262.226 688.998 257.984C677.838 252.135 671.055 257.926 666.924 261.387C677.156 267.076 682.577 269.422 690.215 271.318C688.404 273.345 686.2 276.111 684.447 278.977Z" fill="#C6DCEB"/>
<path d="M624.994 254.625C625.545 258.548 628.269 262.052 631.835 263.717C633.545 261.502 635.168 259.07 636.603 256.637C636.139 254.77 635.371 252.989 634.328 251.382C632.994 249.326 630.704 247.386 628.313 247.965C626.979 248.284 625.921 249.355 625.385 250.615C624.863 251.845 624.805 253.264 624.994 254.625Z" fill="#7D8680"/>
<path d="M703.753 273.708C705.13 277.415 710.217 284.103 712.116 284.031C713.493 283.973 717.667 278.79 718.305 275.373C718.884 272.275 717 269.264 713.971 268.366C713.696 268.279 713.42 268.207 713.145 268.12C711.058 268.062 708.985 268.062 706.898 268.134C705.999 268.163 705.057 268.221 704.333 268.742C702.883 269.814 703.13 272.029 703.753 273.708Z" fill="#240B00"/>
<path d="M602.604 462.99C602.865 464.8 603.125 466.624 603.401 468.434H606.546H608.024C608.039 466.016 607.068 463.613 605.372 461.876C605.024 461.528 604.647 461.21 604.183 461.05C603.72 460.906 603.169 460.978 602.836 461.34C602.473 461.774 602.531 462.426 602.604 462.99Z" fill="#240B00"/>
<path d="M594.339 462.99C594.599 464.8 594.86 466.61 595.121 468.419H597.846H599.759C599.759 466.002 598.803 463.598 597.107 461.876C596.773 461.528 596.382 461.21 595.918 461.05C595.455 460.906 594.889 460.978 594.57 461.34C594.208 461.774 594.266 462.426 594.339 462.99Z" fill="#240B00"/>
<path d="M585.325 462.987C585.585 464.797 585.846 466.592 586.122 468.387H588.499H590.76C590.76 465.984 589.789 463.581 588.107 461.858C587.774 461.511 587.383 461.192 586.919 461.033C586.455 460.888 585.904 460.96 585.571 461.322C585.194 461.771 585.252 462.423 585.325 462.987Z" fill="#240B00"/>
<path d="M389.865 464.428L418.157 464.5C422.23 460.794 426.071 456.827 429.636 452.643C428.984 452.455 428.332 452.31 427.665 452.209C422.375 451.354 416.722 452.411 411.272 453.483C403.257 455.046 397.909 457.131 390.938 460.736C390.59 461.981 390.228 463.212 389.865 464.428Z" fill="#7D8680"/>
<path d="M673.954 462.99C674.215 464.8 674.475 466.624 674.751 468.434H677.896H679.374C679.389 466.016 678.418 463.613 676.722 461.876C676.374 461.528 675.997 461.21 675.533 461.05C675.07 460.906 674.519 460.978 674.186 461.34C673.809 461.774 673.867 462.426 673.954 462.99Z" fill="#240B00"/>
<path d="M665.693 462.99C665.954 464.8 666.214 466.61 666.475 468.419H669.2H671.113C671.113 466.002 670.157 463.598 668.461 461.876C668.128 461.528 667.736 461.21 667.272 461.05C666.809 460.906 666.243 460.978 665.925 461.34C665.548 461.774 665.606 462.426 665.693 462.99Z" fill="#240B00"/>
<path d="M656.664 462.987C656.925 464.797 657.186 466.592 657.461 468.387H659.838H662.099C662.099 465.984 661.128 463.581 659.447 461.858C659.114 461.511 658.722 461.192 658.258 461.033C657.795 460.888 657.244 460.96 656.911 461.322C656.534 461.771 656.592 462.423 656.664 462.987Z" fill="#240B00"/>
<path d="M482.405 462.99C482.666 464.8 482.927 466.624 483.203 468.434H486.348H487.826C487.841 466.016 486.869 463.613 485.174 461.876C484.826 461.528 484.449 461.21 483.985 461.05C483.521 460.906 482.971 460.978 482.637 461.34C482.275 461.774 482.333 462.426 482.405 462.99Z" fill="#240B00"/>
<path d="M474.144 462.99C474.405 464.8 474.666 466.61 474.927 468.419H477.652H479.565C479.565 466.002 478.608 463.598 476.913 461.876C476.579 461.528 476.188 461.21 475.724 461.05C475.26 460.906 474.695 460.978 474.376 461.34C473.999 461.774 474.057 462.426 474.144 462.99Z" fill="#240B00"/>
<path d="M465.13 462.987C465.391 464.797 465.652 466.592 465.927 468.387H468.304H470.565C470.565 465.984 469.594 463.581 467.913 461.858C467.58 461.511 467.188 461.192 466.725 461.033C466.261 460.888 465.71 460.96 465.377 461.322C464.985 461.771 465.043 462.423 465.13 462.987Z" fill="#240B00"/>
<path d="M413.996 455.664C419.547 455.751 425.301 455.881 430.287 457.836C435.273 459.776 439.288 464.09 438.273 468.448L388.646 468.361L391.792 458.733C399.778 456.518 405.546 455.519 413.996 455.664Z" fill="#EEF5F7"/>
<path d="M428.317 462.99C428.578 464.8 428.839 466.624 429.115 468.434H432.26H433.738C433.753 466.016 432.781 463.613 431.086 461.876C430.738 461.528 430.361 461.21 429.897 461.05C429.433 460.906 428.883 460.978 428.549 461.34C428.172 461.774 428.23 462.426 428.317 462.99Z" fill="#240B00"/>
<path d="M420.053 462.99C420.314 464.8 420.575 466.61 420.836 468.419H423.561H425.474C425.474 466.002 424.517 463.598 422.822 461.876C422.488 461.528 422.097 461.21 421.633 461.05C421.169 460.906 420.604 460.978 420.285 461.34C419.908 461.774 419.966 462.426 420.053 462.99Z" fill="#240B00"/>
<path d="M411.025 462.987C411.286 464.797 411.547 466.592 411.822 468.387H414.199H416.46C416.46 465.984 415.489 463.581 413.808 461.858C413.474 461.511 413.083 461.192 412.619 461.033C412.155 460.888 411.605 460.96 411.271 461.322C410.895 461.771 410.952 462.423 411.025 462.987Z" fill="#240B00"/>
<path d="M656.475 255.189C656.997 255.145 657.49 254.899 657.794 254.508C659.026 252.901 661.751 251.454 665.737 252.192C666.65 252.366 667.577 251.888 667.824 251.149C668.07 250.397 667.534 249.658 666.621 249.499C661.867 248.616 657.272 250.035 654.91 253.118C654.402 253.784 654.634 254.624 655.431 255.015C655.765 255.16 656.127 255.218 656.475 255.189Z" fill="#C6DCEB"/>
<path d="M682.564 290.943C685.42 293.752 698.261 294.041 708.378 291.652C709.508 290.682 710.595 289.64 711.595 288.525C713.117 286.701 712.436 283.603 712.117 284.037C708.349 288.988 697.826 290.089 691.695 290.465C690.145 290.552 688.536 290.624 687.115 289.987C684.84 288.974 683.637 286.354 683.579 283.863C683.55 282.198 683.927 280.577 684.434 278.984C681.666 283.559 679.97 288.409 682.564 290.943Z" fill="#7D8680"/>
<path d="M669.228 263.342C667.575 264.124 665.343 264.587 662.372 264.37C661.155 264.283 659.981 264.037 658.807 263.689C656.56 263.023 654.372 262.01 652.227 261.054C654.038 259.361 656.096 257.913 658.27 256.74C659.705 255.973 661.198 255.307 662.735 254.771C664.155 254.264 665.387 254.018 666.445 253.96C671.01 253.671 672.547 256.783 673.098 258C673.503 258.883 672.59 261.764 669.228 263.342Z" fill="#C6DCEB"/>
<path d="M668.04 262.493C666.895 263.043 665.33 263.361 663.257 263.217C662.417 263.159 661.591 262.985 660.779 262.739C659.214 262.276 657.692 261.566 656.184 260.9C657.445 259.713 658.88 258.714 660.402 257.889C661.402 257.353 662.446 256.89 663.518 256.513C664.504 256.166 665.359 255.992 666.113 255.949C669.301 255.746 670.374 257.918 670.751 258.772C671.026 259.366 670.388 261.378 668.04 262.493Z" fill="#EEF5F7"/>
<path d="M668.793 260.009C668.793 260.921 668.518 261.775 668.054 262.47C666.909 263.02 665.344 263.338 663.271 263.194C662.43 263.136 661.604 262.962 660.793 262.716C660.213 261.963 659.865 261.022 659.865 260.009C659.865 259.227 660.068 258.503 660.416 257.866C661.416 257.33 662.459 256.867 663.532 256.49C664.517 256.143 665.373 255.969 666.126 255.926C667.692 256.606 668.793 258.184 668.793 260.009Z" fill="#240B00"/>
<path d="M656.213 260.883C657.474 259.695 658.908 258.696 660.43 257.871C661.43 257.336 662.474 256.872 663.546 256.496C664.532 256.148 665.387 255.975 666.141 255.931C669.329 255.729 670.402 257.9 670.779 258.754L656.213 260.883Z" fill="#240B00"/>
<path d="M588.996 390.636C586.764 394.502 583.3 398.889 578.923 398.02C574.647 397.18 573.038 391.997 572.401 387.683C570.647 375.811 570.009 363.418 573.908 352.082C577.807 340.732 587.039 330.597 598.866 328.541C602.779 327.861 613.012 327.89 614.911 332.653C616.519 336.678 610.244 346.986 608.664 350.794C602.968 364.475 596.388 377.795 588.996 390.636Z" fill="#FCFAFA"/>
<path d="M440.215 397.52C437.143 402.848 432.041 408.349 425.954 407.379C419.939 406.409 416.823 399.793 414.982 393.987C409.228 375.934 405.793 357.055 405.894 338.089C405.938 330.604 406.923 322.265 412.619 317.386C420.04 311.059 432.244 314.172 438.65 321.497C455.173 340.376 451.738 377.555 440.215 397.52Z" fill="#FCFAFA"/>
<path d="M603.471 302.792C605.645 303.487 608.037 303.024 610.153 302.17C614.965 300.244 618.834 296.451 621.719 292.151C624.241 288.401 628.908 281.93 629.212 277.311C629.574 272.099 624.748 267.423 619.574 268.19C619.284 268.234 618.994 268.292 618.718 268.364C617.82 269.464 616.921 270.565 616.037 271.679C612.82 275.733 609.747 279.917 606.805 284.232C606.776 284.29 606.732 284.348 606.689 284.405C606.515 284.362 606.341 284.319 606.167 284.261C604.341 287.837 602.514 291.413 600.703 294.989C600.268 295.843 599.819 296.726 599.717 297.682C599.471 299.955 601.297 302.083 603.471 302.792Z" fill="#FCFAFA"/>
<path opacity="0.5" d="M744.837 290.025C692.727 185.764 595.508 171.759 594.471 178.502C563.101 366.535 729.541 426.446 732.912 419.703C737.319 409.847 771.022 342.674 744.837 290.025Z" fill="#B3E7F5"/>
<path d="M509.177 12.5136C509.177 14.5884 509.177 16.4039 509.177 18.4787C510.992 18.4787 512.807 18.4787 514.622 18.4787C516.177 18.4787 517.992 17.96 519.547 17.96C519.807 15.6258 520.066 13.2916 520.066 11.2168C516.696 12.2542 512.807 12.5136 509.177 12.5136Z" fill="#F9D949"/>
<path d="M519.805 6.8085C519.805 6.28978 519.805 6.03043 519.805 5.51172H513.842C512.027 5.77107 510.472 6.03043 508.657 6.28978C508.657 7.06785 508.657 7.58656 508.916 8.36463C512.805 8.10527 516.175 7.32721 519.805 6.8085Z" fill="#F9D949"/>
<path d="M509.177 22.6281C509.177 24.7029 509.177 26.5184 509.177 28.5933C510.474 28.5933 511.511 28.8526 512.548 28.8526C514.622 28.8526 516.436 28.5933 518.51 28.8526C518.51 28.8526 518.51 28.8526 518.77 28.8526C518.77 27.0371 519.029 24.9623 519.029 23.1468C519.029 22.8874 519.029 22.3687 519.029 22.1094C516.177 23.1468 512.548 23.1468 509.177 22.6281Z" fill="#F9D949"/>
<path d="M518.251 37.4134C518.251 36.1166 518.251 34.5604 518.511 33.2637C516.696 33.7824 514.622 33.7824 512.807 33.7824C511.511 33.7824 508.918 33.523 508.918 33.2637C508.918 35.3385 508.918 37.4134 508.918 39.2289C508.918 38.9695 512.807 38.7101 514.622 38.1914C515.659 38.1914 517.214 37.6727 518.251 37.4134Z" fill="#F9D949"/>
<path d="M512.805 49.3389C514.361 49.5983 515.916 49.3389 517.472 49.3389C517.472 47.0047 517.731 44.9299 517.731 42.5957C514.879 43.3738 511.25 43.3738 508.657 43.3738V43.6331C508.916 47.7828 507.62 49.0796 512.805 49.3389Z" fill="#F9D949"/>
<path d="M625.581 344.488C593.693 295.21 579.693 233.743 592.656 177.204C578.656 174.091 564.138 171.757 549.879 169.942C548.064 169.682 546.249 169.423 544.175 169.423C532.509 168.126 521.102 167.348 509.695 166.57C475.474 165.533 441.252 163.717 407.031 164.236C361.403 165.014 315.515 169.164 271.702 181.613C269.887 182.131 268.331 182.65 266.517 183.169C256.406 186.281 246.295 189.653 236.184 193.543C209.222 204.177 183.815 218.96 161.26 237.115C138.446 255.788 120.817 278.871 100.595 299.879C96.4473 304.288 92.2992 309.994 86.8549 312.587C81.9292 314.921 75.9664 314.143 70.7813 314.403C66.1148 314.403 61.7075 314.662 57.041 314.662C57.041 315.181 57.041 315.699 56.7817 315.959C56.004 326.333 55.7447 338.004 58.078 348.119C59.3742 353.565 60.9297 359.012 62.4853 364.458C72.5961 365.236 82.4477 370.423 90.2252 377.167C99.8175 385.466 108.114 395.581 116.41 405.436C144.927 433.187 173.964 459.642 206.629 482.465C225.036 495.173 243.702 504.769 265.739 509.438C298.664 516.7 332.885 515.403 366.329 516.959C382.402 517.737 398.476 518.515 414.549 519.034C446.697 520.071 478.844 520.59 510.732 520.331C540.805 520.331 571.397 520.849 601.211 517.218C652.543 511.513 698.949 465.347 726.43 424.11C680.024 401.546 654.098 388.578 625.581 344.488Z" fill="#0E7AC9"/>
<path opacity="0.68" d="M62.4858 365.755C60.4117 357.456 55.2267 338.523 55.7452 323.48C69.4856 326.333 75.4484 325.815 87.1147 333.595C110.707 349.675 120.299 368.868 138.706 391.691C169.816 429.557 209.741 462.236 256.666 478.056C325.627 501.398 559.731 505.548 605.619 498.545C631.544 494.655 658.765 487.134 683.135 481.169C681.839 495.174 671.728 505.807 660.839 513.588C623.766 540.302 576.582 548.342 532.25 552.491C466.66 558.716 400.55 556.382 334.7 550.935C274.813 546.007 197.038 536.671 147.002 499.583C108.633 471.313 98.5218 432.928 77.2631 393.766C72.3373 383.91 65.0783 375.092 62.4858 365.755Z" fill="#405159"/>
<path d="M484.806 111.328C484.029 94.4697 485.584 77.0929 486.621 60.4942C487.399 50.6387 490.51 34.0399 503.991 38.7083C503.732 31.7058 503.473 24.4438 503.732 17.1819C503.473 17.1819 503.473 17.1819 503.213 17.1819C477.807 9.14184 467.177 40.5238 466.4 59.4568C465.881 76.5742 467.437 93.6917 467.437 110.809C473.399 110.809 479.103 111.068 484.806 111.328Z" fill="#405159"/>
<path d="M351.551 72.1619C352.847 72.4212 358.551 72.4212 365.291 72.1619C366.587 72.1619 367.884 72.1619 368.921 71.9025C371.772 71.9025 374.624 71.6432 377.217 71.6432C378.772 71.6432 380.328 71.3838 381.624 71.3838C385.254 71.1245 388.105 70.8651 389.92 70.3464C391.994 69.8277 399.253 68.2716 400.29 66.7154C401.327 61.0096 381.883 61.7877 379.031 61.7877C372.55 62.047 348.44 61.269 347.143 66.7154C345.847 68.5309 347.662 72.1619 351.551 72.1619Z" fill="#405159"/>
<path d="M373.59 113.916C395.626 111.842 417.663 110.804 439.699 110.545C432.44 85.3874 389.923 87.7216 369.182 89.7964C368.923 89.7964 368.664 89.7964 368.664 89.7964C367.627 89.7964 366.59 90.0558 365.294 90.0558C352.85 91.0932 338.331 92.6493 328.739 100.949C321.999 106.655 318.628 113.916 317.073 121.956C321.48 120.919 325.887 120.141 330.295 119.622C344.813 117.029 359.072 115.213 373.59 113.916Z" fill="#405159"/>
<path d="M369.181 84.0943C370.477 84.0943 371.514 83.8349 372.811 83.8349C374.107 83.8349 375.403 83.5756 376.699 83.5756C376.699 80.982 376.699 78.3885 376.699 75.7949C374.366 75.7949 371.774 75.7949 368.922 75.7949C369.181 78.6478 369.181 81.2414 369.181 84.0943Z" fill="#405159"/>
<path d="M5.19237 342.678C6.48863 346.309 18.155 350.459 21.266 351.496C23.34 352.274 25.6733 353.053 28.0065 353.571C28.2658 353.053 28.2658 352.534 28.5251 352.015C28.5251 351.756 28.5251 351.756 28.7843 351.496C30.0806 343.716 29.0436 336.713 26.7103 329.451C17.6365 332.304 3.11836 336.972 5.19237 342.678Z" fill="#405159"/>
<path d="M506.844 118.076C501.141 117.298 495.178 116.519 489.215 116.26C487.66 116.26 486.363 116.001 484.808 116.001C479.104 115.741 473.141 115.482 467.179 115.223C465.623 115.223 463.808 115.223 462.253 115.223C456.549 115.223 450.846 115.223 445.142 115.223C443.587 115.223 442.031 115.223 440.216 115.223C430.106 115.482 420.254 115.741 410.402 116.26C379.551 117.816 347.663 119.891 317.59 126.634C317.072 126.634 316.294 126.894 315.775 127.153C314.22 127.412 312.664 127.931 311.109 128.45C298.665 132.081 287.517 138.565 280.517 150.495C275.591 159.054 273.517 168.65 271.443 178.246C348.7 156.979 433.735 159.313 512.548 163.981C513.066 163.981 513.585 164.241 513.844 164.76C523.436 164.76 533.029 165.278 542.621 166.056C541.325 142.974 533.547 121.707 506.844 118.076Z" fill="#0E7AC9"/>
<path d="M60.1523 368.351C59.893 367.314 59.893 366.276 59.6338 365.239C59.6338 365.239 59.6338 365.239 59.6338 364.98C58.5968 358.236 55.745 349.418 54.9672 342.675C53.9302 333.598 53.1525 324.261 53.671 315.183C53.671 314.405 53.671 313.627 53.9302 312.849C54.1895 309.218 54.708 305.587 55.2265 301.956C57.5598 290.285 63.5226 274.465 47.9674 269.018C41.2269 266.684 29.5605 267.981 22.82 270.315C-1.0312 279.133 19.9682 307.921 26.7088 321.667C27.4865 322.964 28.005 324.52 28.7828 326.076C29.042 326.854 29.5605 327.892 29.8198 328.67C32.6716 336.969 34.2271 346.306 31.3753 354.346C31.1161 355.383 30.5975 356.162 30.079 357.199C30.079 357.458 30.079 357.458 29.8198 357.718C26.968 367.314 18.672 375.613 16.3387 385.728C14.7832 391.434 13.2277 400.511 16.3387 405.958C20.4867 413.22 37.3381 412.442 44.3379 412.182C51.0785 411.923 59.6338 410.626 62.7448 403.624C65.5966 397.14 63.7818 388.062 62.7448 381.319C61.7078 375.873 60.93 372.76 60.1523 368.351Z" fill="#5A6F77"/>
<path d="M280.001 146.857C322.259 142.966 365.035 145.041 407.812 146.857C445.922 148.413 492.846 150.488 527.327 164.752C440.478 159.046 356.998 165.271 270.667 178.239C270.927 167.864 271.445 155.675 280.001 146.857Z" fill="#5A6F77"/>
<path opacity="0.68" d="M312.922 122.222C317.589 114.442 317.848 109.255 327.181 105.624C337.551 101.733 352.588 105.105 363.477 105.624C389.661 107.18 417.919 107.18 443.845 111.07C417.66 110.811 390.698 112.108 364.773 114.442C353.884 115.479 342.736 116.517 332.107 118.073C325.626 119.11 312.922 123.778 312.922 122.222Z" fill="#405159"/>
<path opacity="0.68" d="M30.5983 332.296C28.0058 314.4 18.4134 348.376 17.1172 350.451C23.08 355.378 27.7465 357.453 31.376 351.229C33.9686 346.301 32.1538 336.705 30.5983 332.296Z" fill="#405159"/>
<path d="M733.689 422.296C718.911 415.552 699.467 406.475 682.616 393.767C672.246 385.986 669.394 384.17 661.876 378.205C648.913 367.831 636.469 355.641 632.321 343.97C631.284 340.599 635.691 338.524 637.506 341.636C648.395 361.607 687.542 368.09 705.949 370.165C721.244 371.981 736.8 364.719 751.577 367.572C747.688 388.061 741.207 405.178 733.689 422.296Z" fill="#B3E7F5"/>
<path d="M721.312 261.245C711.201 242.831 692.535 226.232 676.461 215.08C662.202 204.965 641.981 192.775 624.87 196.147C622.537 196.666 621.5 200.297 623.833 201.593C631.611 205.743 640.425 206.78 648.203 210.152C657.795 214.302 666.869 219.748 675.165 226.232C690.461 237.903 701.609 253.983 715.608 266.951C718.978 269.804 723.127 264.876 721.312 261.245Z" fill="#DCF2F7"/>
<path d="M756.244 327.893C748.985 260.98 695.061 209.627 634.914 186.026C607.693 175.392 578.656 168.908 549.361 166.055C548.065 150.753 544.694 134.673 533.547 124.04C525.769 116.519 515.658 113.925 505.288 112.628C500.103 112.11 494.918 111.591 489.474 111.331C489.733 101.735 489.474 92.3985 489.992 82.8024C490.251 76.3185 488.696 38.4526 502.436 43.6397C502.955 43.8991 503.733 43.8991 504.251 43.6397C504.251 44.6771 504.251 45.7145 504.251 46.4926C504.51 55.8294 512.029 53.4952 519.806 53.4952C521.102 53.4952 522.139 52.9765 522.399 51.4204C522.658 47.53 522.917 43.8991 522.917 40.0087C523.436 39.49 523.436 38.712 522.917 37.9339C523.176 34.8216 523.436 31.45 523.436 28.3377C523.695 21.3351 525.769 12.5171 524.732 5.51446C523.695 -2.2662 513.843 0.0680007 507.362 1.36478C506.325 0.846067 505.029 1.10542 504.51 2.14284C503.733 2.92091 503.733 3.95833 504.251 4.7364C503.992 7.0706 503.733 9.66415 503.733 11.9983C484.029 6.29253 467.437 22.8913 463.289 41.3055C460.437 53.4952 461.215 66.2036 461.474 78.3933C461.734 89.0269 461.474 99.6605 461.993 110.035C461.474 110.035 460.956 110.035 460.438 110.035C455.252 110.035 449.808 110.035 444.623 110.035C439.179 84.8772 404.439 82.2837 380.588 83.0617C380.847 80.4682 381.106 77.8746 381.106 75.2811C383.699 75.0217 386.291 74.7623 388.884 74.2436C393.55 73.4656 400.55 73.4656 403.143 68.5378C409.365 56.6075 388.106 56.3481 382.403 56.3481C372.551 56.3481 362.699 57.1262 353.107 58.9417C348.959 59.7197 342.478 59.9791 341.182 65.1662C338.589 76.0591 355.7 76.0591 364.514 75.2811C364.514 78.134 364.514 80.9869 364.514 83.8398C350.255 84.8772 334.7 87.2114 324.071 96.8076C317.071 103.291 311.886 112.888 311.108 122.484C305.923 123.781 300.998 125.596 296.331 128.19C277.146 138.304 269.11 158.534 265.998 178.764C231.777 188.879 199.111 203.403 169.038 224.929C148.039 239.972 128.336 258.127 113.818 279.653C113.558 279.653 113.558 279.912 113.299 279.912C104.744 288.731 96.7069 299.623 87.1146 307.145C80.1148 312.591 66.893 311.813 56.2636 311.813C57.8191 301.958 61.4487 292.102 60.9302 282.247C60.1524 264.351 43.301 262.795 29.0422 264.351C13.487 265.907 4.41322 276.281 8.302 292.102C10.6353 301.439 16.0796 309.479 20.4868 317.778C21.7831 320.631 23.0794 323.225 24.1164 325.818C19.4498 326.856 15.0426 328.931 11.1538 331.005C8.04275 332.562 -0.253311 336.452 0.00594078 340.861C0.265193 345.529 9.07976 349.42 12.1908 350.976C16.3388 353.051 20.7461 354.866 25.4126 355.904C22.3016 362.647 17.8943 368.353 14.7833 375.096C11.6723 382.098 10.1168 389.879 10.376 397.4C10.8945 412.184 23.5979 413.48 35.7827 413.999C46.1528 414.259 62.2264 413.74 65.5967 401.291C67.4115 394.288 66.1152 385.211 64.8189 378.208C64.0412 374.577 63.2634 370.946 62.2264 367.315C74.4113 368.353 84.5221 376.393 93.3367 386.248C127.817 424.633 165.927 459.127 208.704 488.175C228.407 501.661 250.962 509.961 274.554 514.37C305.405 520.076 338.33 518.519 369.699 520.076C386.81 520.854 404.18 521.632 421.29 522.15C454.993 523.188 488.955 523.447 522.658 523.188C561.805 522.928 602.767 526.041 640.099 511.776C673.283 499.068 701.283 468.723 721.504 438.897C724.097 435.007 726.43 431.376 728.763 427.486C748.726 398.438 760.133 363.684 756.244 327.893ZM519.028 23.41C519.028 25.2255 518.769 27.3003 518.769 29.1158C518.769 29.1158 518.769 29.1158 518.51 29.1158C516.695 28.5971 514.621 29.1158 512.547 29.1158C511.251 29.1158 510.214 28.8564 509.177 28.8564C509.177 26.7816 509.177 24.9661 509.177 22.8913C512.288 23.41 515.917 23.41 519.028 22.3726C519.028 22.6319 519.028 23.1506 519.028 23.41ZM519.547 17.7042C517.991 17.7042 516.177 18.2229 514.621 18.2229C512.806 18.2229 510.992 18.2229 509.177 18.2229C509.177 16.148 509.177 14.3325 509.177 12.2577C512.806 12.2577 516.436 11.9983 520.065 10.9609C520.065 13.0358 519.806 15.37 519.547 17.7042ZM514.103 5.51446H520.065C520.065 6.03317 520.065 6.29253 520.065 6.81124C516.436 7.32995 512.806 8.10802 509.177 8.36737C509.177 7.58931 509.177 7.0706 508.918 6.29253C510.732 6.03317 512.288 5.77382 514.103 5.51446ZM508.918 33.2655C508.918 33.5248 511.51 33.7842 512.806 33.7842C514.621 33.7842 516.954 34.0436 518.51 33.2655C518.51 34.5623 518.51 36.1184 518.251 37.4152C516.954 37.6745 515.658 38.1932 514.362 38.4526C512.547 38.9713 508.658 39.2307 508.658 39.49C508.918 37.4152 508.918 35.3403 508.918 33.2655ZM508.918 43.8991V43.6397C511.51 43.6397 515.14 43.3803 517.991 42.8616C517.991 44.9365 517.732 47.2707 517.732 49.6049C516.177 49.6049 514.621 49.8642 513.066 49.6049C507.621 49.0862 508.918 47.7894 508.918 43.8991ZM466.66 59.4604C467.178 40.2681 477.807 9.14544 503.473 17.1855C503.733 17.1855 503.733 17.1855 503.992 17.1855C503.733 24.4474 503.992 31.7094 504.251 38.712C490.77 34.0436 487.4 50.6423 486.881 60.4978C485.844 77.0965 484.289 94.4734 485.066 111.331C479.363 111.072 473.659 110.813 467.697 110.813C467.697 93.6953 466.141 76.5778 466.66 59.4604ZM351.552 72.1688C347.663 71.9094 345.848 68.5378 346.885 66.7223C348.181 61.2759 372.292 62.0539 378.773 61.7946C381.625 61.7946 401.328 61.0165 400.032 66.7223C398.995 68.5378 391.736 70.094 389.662 70.3533C388.106 70.872 384.995 71.1314 381.366 71.3907C380.069 71.3907 378.514 71.6501 376.958 71.6501C374.366 71.9094 371.514 71.9094 368.662 71.9094C367.366 71.9094 366.07 71.9094 365.033 72.1688C358.551 72.4282 352.848 72.4282 351.552 72.1688ZM368.922 75.7998C371.773 76.0591 374.366 76.0591 376.699 75.7998C376.699 78.3933 376.699 80.9869 376.699 83.5804C375.403 83.5804 374.107 83.8398 372.81 83.8398C371.514 83.8398 370.477 84.0991 369.181 84.0991C369.181 81.2462 369.181 78.6527 368.922 75.7998ZM328.737 100.957C338.589 92.6579 352.848 91.1017 365.292 90.0643C366.329 90.0643 367.625 89.805 368.662 89.805C368.922 89.805 369.181 89.805 369.181 89.805C389.921 87.9895 432.438 85.3959 439.697 110.553C417.661 110.813 395.625 111.85 373.588 113.925C359.07 115.222 344.552 117.037 330.034 119.371C325.626 120.15 321.219 120.928 316.812 121.706C318.627 113.925 321.997 106.663 328.737 100.957ZM281.294 150.235C288.035 138.304 299.183 132.08 311.886 128.19C313.442 127.671 314.997 127.411 316.553 126.893C317.071 126.633 317.849 126.633 318.367 126.374C348.441 119.631 380.329 117.556 411.18 116C421.031 115.481 430.883 115.222 440.994 114.962C442.549 114.962 444.105 114.962 445.919 114.962C451.623 114.962 457.326 114.962 463.03 114.962C464.586 114.962 466.4 114.962 467.956 114.962C473.919 114.962 479.622 115.481 485.585 115.741C487.14 115.741 488.437 116 489.992 116C495.955 116.519 501.659 117.037 507.621 117.815C534.324 121.446 541.843 142.713 544.435 165.537C534.843 164.759 525.25 164.24 515.658 164.24C515.399 163.981 514.88 163.721 514.362 163.462C435.549 158.794 350.515 156.459 273.258 177.726C274.295 168.39 276.369 158.793 281.294 150.235ZM21.2646 351.495C18.1536 350.457 6.48724 346.048 5.19098 342.676C3.11696 336.971 17.6351 332.302 26.4496 329.709C29.0422 336.971 29.8199 343.973 28.5237 351.754C28.5237 352.013 28.2644 352.013 28.2644 352.273C28.0052 352.791 28.0052 353.31 27.7459 353.829C25.6719 353.051 23.5979 352.273 21.2646 351.495ZM62.7449 403.366C59.6339 410.368 50.8193 411.406 44.338 411.924C37.3382 412.443 20.7461 413.221 16.3388 405.7C13.2278 400.253 14.7833 391.435 16.3388 385.47C18.6721 375.615 26.9681 367.056 29.8199 357.46C29.8199 357.2 29.8199 357.2 30.0792 356.941C30.5977 355.904 30.8569 355.126 31.3754 354.088C34.2272 345.789 32.6717 336.711 29.8199 328.412C29.5607 327.634 29.3014 326.596 28.7829 325.818C28.2644 324.262 27.4867 322.706 26.7089 321.409C20.2276 307.663 -1.03107 278.616 22.8201 270.057C29.3014 267.723 41.227 266.426 47.9676 268.76C63.5227 274.207 57.5599 290.027 55.2266 301.698C54.4489 305.329 53.9304 308.96 53.9304 312.591C53.9304 313.369 53.6711 314.147 53.6711 314.925C53.1526 324.003 53.9304 333.34 54.9674 342.417C55.7451 349.16 58.5969 358.238 59.6339 364.722C59.6339 364.722 59.6339 364.722 59.6339 364.981C59.8932 366.018 59.8932 367.056 60.1524 368.093C60.9302 372.502 61.7079 375.874 62.7449 381.061C64.0412 387.804 65.5967 396.882 62.7449 403.366ZM601.211 518.001C571.397 521.372 540.806 520.854 510.732 521.113C478.585 521.113 446.438 520.854 414.55 519.816C398.476 519.297 382.403 518.519 366.329 517.741C332.886 516.185 298.664 517.482 265.739 510.22C243.703 505.552 224.777 495.955 206.63 483.247C173.964 460.424 144.928 433.97 116.41 406.219C108.114 396.363 99.818 386.248 90.2256 377.949C82.1888 370.946 72.5965 365.759 62.4857 365.24C60.9302 359.794 59.3746 354.347 58.0784 348.901C55.7451 338.786 56.0044 327.115 56.7821 316.741C56.7821 316.222 56.7821 315.704 57.0414 315.444C61.7079 315.444 66.1152 315.185 70.7817 315.185C75.9668 315.185 81.9296 315.703 86.8554 313.369C92.5589 310.776 96.4477 304.811 100.596 300.661C120.817 279.394 138.447 256.311 161.261 237.897C183.816 219.483 209.222 204.959 236.185 194.325C246.036 190.435 256.147 186.804 266.517 183.951C268.332 183.432 269.887 182.914 271.702 182.395C315.516 169.946 361.403 165.796 407.032 165.018C441.253 164.499 475.474 166.315 509.695 167.352C521.102 168.13 532.769 168.908 544.176 170.205C545.991 170.464 548.065 170.724 549.879 170.724C564.398 172.539 578.656 174.614 592.656 177.986C579.434 234.266 590.841 282.765 617.803 334.896C640.099 377.949 690.394 412.702 726.689 425.67C698.949 465.87 652.543 512.036 601.211 518.001ZM736.541 409.59C731.874 418.927 734.726 413.48 729.023 422.299C700.505 411.924 648.654 380.802 622.729 336.711C593.175 286.137 583.323 234.266 595.508 177.986C635.692 187.323 673.283 203.662 703.875 233.747C726.43 256.052 744.059 284.321 750.54 315.703C757.281 347.864 751.059 380.542 736.541 409.59Z" fill="#1B3F4C"/>
<path d="M373.345 198.026C373.546 198.156 373.692 198.29 373.781 198.429C373.899 198.501 373.952 198.577 373.942 198.658C373.946 198.722 373.999 198.79 374.1 198.864C374.186 198.938 374.249 199.038 374.289 199.163C374.345 199.272 374.392 199.365 374.429 199.442C374.468 199.536 374.506 199.621 374.543 199.699C374.579 199.761 374.608 199.831 374.63 199.909C374.945 200.529 375.189 201.146 375.359 201.759C375.546 202.372 375.657 202.926 375.691 203.42C375.711 203.708 375.693 203.917 375.638 204.05C375.612 204.132 375.545 204.2 375.436 204.256C375.314 204.345 375.149 204.396 374.942 204.411C374.862 204.416 374.781 204.406 374.699 204.379C374.634 204.368 374.522 204.368 374.362 204.379C374.234 204.387 374.12 204.363 374.02 204.306C373.837 204.206 373.714 204.055 373.652 203.85C373.475 203.382 373.292 202.817 373.101 202.156C372.926 201.479 372.689 200.838 372.391 200.233C372.353 200.155 372.323 200.069 372.301 199.975C372.277 199.864 372.24 199.794 372.19 199.766C372.124 199.738 372.064 199.686 372.011 199.61C371.956 199.517 371.911 199.44 371.875 199.379C371.748 199.179 371.642 199.034 371.556 198.944C371.469 198.853 371.333 198.742 371.148 198.611C370.928 198.45 370.687 198.33 370.425 198.252C370.178 198.157 369.902 198.112 369.598 198.117L369.117 198.126C369.13 198.542 369.14 198.918 369.147 199.255C369.17 199.574 369.187 199.829 369.201 200.021C369.218 200.276 369.22 200.533 369.206 200.79C369.207 201.047 369.219 201.327 369.24 201.63C369.249 201.998 369.263 202.422 369.28 202.902C369.313 203.381 369.326 203.805 369.32 204.175C369.318 204.383 369.308 204.584 369.289 204.778C369.272 204.988 369.202 205.137 369.08 205.226C369.003 205.279 368.91 205.318 368.799 205.341C368.689 205.365 368.577 205.381 368.466 205.389C368.402 205.393 368.321 205.39 368.225 205.381C368.128 205.372 368.022 205.355 367.908 205.331C367.633 205.286 367.458 205.194 367.384 205.054C367.311 204.931 367.262 204.686 367.237 204.319C367.211 203.952 367.198 203.528 367.197 203.047C367.196 202.566 367.198 202.14 367.205 201.771C367.216 201.466 367.204 201.186 367.171 200.931C367.153 200.676 367.151 200.419 367.165 200.162C367.16 200.082 367.154 200.002 367.149 199.922C367.158 199.826 367.159 199.721 367.151 199.61L367.13 198.264L367.01 198.272C366.978 198.274 366.931 198.286 366.868 198.306C366.805 198.31 366.733 198.315 366.653 198.321C366.368 198.373 366.079 198.489 365.787 198.67C365.511 198.849 365.269 199.058 365.061 199.297C364.674 199.741 364.349 200.253 364.084 200.832C363.836 201.411 363.636 201.994 363.484 202.582C363.46 202.696 363.426 202.787 363.382 202.854C363.355 202.92 363.328 202.994 363.302 203.076C363.236 203.289 363.167 203.558 363.093 203.884C363.034 204.193 362.97 204.43 362.902 204.595C362.834 204.776 362.762 204.894 362.685 204.947C362.61 205.016 362.534 205.078 362.458 205.131C362.335 205.22 362.21 205.269 362.083 205.277C361.956 205.302 361.813 205.32 361.653 205.331C361.526 205.34 361.397 205.333 361.267 205.31C361.153 205.286 361.061 205.228 360.99 205.137C360.919 205.029 360.875 204.864 360.86 204.64C360.856 204.592 360.86 204.528 360.87 204.447C360.881 204.366 360.884 204.294 360.879 204.23C360.898 203.571 361.06 202.79 361.367 201.887C361.673 200.983 362.086 200.121 362.607 199.299C362.678 199.166 362.773 199.039 362.893 198.918C363.028 198.781 363.131 198.653 363.204 198.536C363.278 198.45 363.321 198.383 363.334 198.334C363.361 198.268 363.412 198.193 363.487 198.107C363.68 197.885 363.868 197.704 364.05 197.563C363.183 197.078 362.492 196.372 361.979 195.445C361.481 194.501 361.188 193.407 361.102 192.162C361.091 192.002 361.08 191.843 361.069 191.683C361.074 191.522 361.078 191.354 361.082 191.177L361.052 190.746C361.06 190.633 361.085 190.527 361.126 190.428C361.166 190.313 361.225 190.229 361.301 190.175C361.394 190.121 361.512 190.089 361.655 190.079C361.735 190.073 361.831 190.074 361.944 190.083C362.056 190.075 362.176 190.067 362.303 190.058C362.399 190.051 362.497 190.076 362.597 190.134C362.714 190.19 362.814 190.247 362.898 190.305C363.082 190.421 363.187 190.654 363.211 191.005C363.22 191.133 363.22 191.253 363.212 191.366C363.203 191.463 363.196 191.592 363.191 191.752C363.184 191.881 363.184 192.002 363.192 192.113C363.199 192.225 363.208 192.345 363.217 192.472C363.244 192.871 363.299 193.204 363.382 193.471C363.403 193.55 363.424 193.621 363.445 193.684C363.481 193.745 363.518 193.815 363.555 193.892C363.592 193.954 363.612 194.017 363.617 194.081C363.62 194.128 363.64 194.183 363.676 194.245C363.711 194.291 363.756 194.352 363.809 194.428C363.861 194.489 363.905 194.534 363.939 194.563C364.12 194.872 364.299 195.132 364.474 195.344C364.649 195.557 364.829 195.729 365.015 195.86C365.2 195.992 365.408 196.09 365.637 196.154C365.881 196.201 366.162 196.214 366.481 196.192L367.056 196.152C367.025 195.24 366.999 194.408 366.979 193.655C366.958 192.887 366.935 192.319 366.909 191.952C366.906 191.904 366.899 191.808 366.889 191.665C366.895 191.52 366.897 191.424 366.894 191.376C366.89 191.087 366.899 190.758 366.921 190.387C366.943 190.001 367.042 189.705 367.221 189.501C367.25 189.466 367.289 189.448 367.337 189.444C367.385 189.441 367.432 189.422 367.477 189.387C367.571 189.348 367.65 189.327 367.714 189.322C367.779 189.334 367.82 189.347 367.837 189.362C367.869 189.359 367.908 189.357 367.956 189.353C367.988 189.351 368.051 189.331 368.145 189.292C368.224 189.287 368.305 189.289 368.386 189.3C368.482 189.309 368.556 189.328 368.606 189.356C368.776 189.489 368.877 189.675 368.909 189.913C368.957 190.134 368.989 190.372 369.007 190.628C369.015 190.74 369.014 190.852 369.006 190.965C369.013 191.06 369.019 191.148 369.024 191.228C369.028 191.276 369.027 191.38 369.022 191.541C369.033 191.701 369.04 191.804 369.044 191.852C369.037 192.222 369.036 192.791 369.042 193.56C369.046 194.314 369.055 195.147 369.07 196.06L369.645 196.021C370.252 195.979 370.753 195.808 371.149 195.507C371.56 195.19 371.886 194.799 372.126 194.333C372.197 194.2 372.268 194.067 372.339 193.933C372.41 193.8 372.473 193.66 372.527 193.511C372.566 193.38 372.589 193.251 372.596 193.122C372.618 192.976 372.64 192.83 372.662 192.684C372.707 192.408 372.728 192.142 372.727 191.886C372.74 191.612 372.738 191.348 372.72 191.092C372.703 190.853 372.694 190.605 372.692 190.348C372.706 190.075 372.77 189.846 372.885 189.661C372.944 189.577 373.034 189.499 373.158 189.426C373.264 189.339 373.381 189.29 373.509 189.281C373.636 189.273 373.757 189.272 373.869 189.281C373.998 189.288 374.103 189.296 374.184 189.307C374.313 189.314 374.402 189.324 374.451 189.337C374.516 189.348 374.574 189.384 374.627 189.445C374.696 189.52 374.735 189.622 374.744 189.749C374.769 189.876 374.788 190.035 374.801 190.226C374.859 191.056 374.824 191.837 374.699 192.567C374.573 193.298 374.371 193.977 374.094 194.606C374.025 194.771 373.947 194.913 373.859 195.031C373.786 195.132 373.698 195.259 373.596 195.41C373.523 195.511 373.443 195.629 373.356 195.764C373.285 195.897 373.213 196.006 373.138 196.091C372.99 196.262 372.833 196.425 372.667 196.581C372.516 196.72 372.35 196.86 372.167 197.001C372.589 197.308 372.982 197.65 373.345 198.026ZM384.545 203.649C384.034 203.685 383.597 203.627 383.233 203.475C382.886 203.323 382.591 203.119 382.349 202.863C382.106 202.591 381.924 202.291 381.805 201.962C381.685 201.618 381.613 201.27 381.589 200.919C381.577 200.743 381.572 200.559 381.575 200.367C381.577 200.174 381.595 199.972 381.629 199.761C381.405 199.777 381.191 199.8 380.984 199.83C380.81 199.858 380.619 199.887 380.413 199.918C380.222 199.947 380.064 199.982 379.939 200.023C379.94 200.263 379.949 200.511 379.966 200.767C379.984 201.022 380.002 201.285 380.021 201.557C380.037 201.78 380.051 201.988 380.064 202.179C380.093 202.37 380.114 202.553 380.126 202.728C380.137 202.888 380.131 203.025 380.107 203.139C380.098 203.251 380.058 203.359 379.985 203.46C379.94 203.511 379.896 203.57 379.853 203.637C379.81 203.721 379.75 203.781 379.673 203.818C379.533 203.892 379.328 203.938 379.057 203.957C378.849 203.972 378.694 203.934 378.592 203.845C378.432 203.856 378.324 203.791 378.266 203.651C378.208 203.511 378.172 203.337 378.157 203.129C378.13 202.73 378.133 202.321 378.169 201.902C378.204 201.482 378.222 200.936 378.223 200.262C378.128 200.269 378.054 200.25 378.003 200.205C377.969 200.175 377.943 200.145 377.924 200.114C377.906 200.083 377.88 200.053 377.846 200.023C377.779 199.98 377.734 199.919 377.713 199.84C377.707 199.76 377.702 199.681 377.696 199.601C377.693 199.553 377.682 199.514 377.664 199.483C377.662 199.451 377.659 199.411 377.656 199.363C377.654 199.331 377.659 199.291 377.672 199.242C377.683 199.177 377.696 199.128 377.709 199.095C377.739 199.06 377.761 199.027 377.775 198.994C377.787 198.945 377.8 198.904 377.814 198.871C377.953 198.797 378.094 198.747 378.237 198.721L378.268 198.479L378.231 198.289L378.288 198.068C378.286 198.036 378.274 197.989 378.254 197.926C378.248 197.846 378.245 197.791 378.242 197.759C378.257 197.501 378.254 197.237 378.236 196.965C378.217 196.694 378.21 196.478 378.215 196.317C378.199 195.853 378.207 195.516 378.241 195.305C378.274 195.094 378.366 194.919 378.517 194.78C378.578 194.728 378.637 194.66 378.696 194.576C378.753 194.475 378.837 194.414 378.947 194.39C379.01 194.369 379.073 194.349 379.135 194.329C379.214 194.307 379.293 194.294 379.373 194.288C379.581 194.274 379.76 194.317 379.912 194.419C380.078 194.504 380.173 194.714 380.196 195.049C380.216 195.336 380.189 195.755 380.114 196.306C380.04 196.856 379.992 197.549 379.97 198.385L382.041 198.073C382.187 197.63 382.374 197.2 382.601 196.783C382.828 196.35 383.082 195.964 383.363 195.624C383.659 195.266 383.983 194.971 384.336 194.738C384.705 194.504 385.103 194.348 385.531 194.271C385.548 194.285 385.564 194.292 385.58 194.291C385.612 194.289 385.645 194.295 385.678 194.309C385.711 194.322 385.735 194.329 385.751 194.327C385.783 194.325 385.808 194.332 385.825 194.346C385.891 194.374 385.94 194.387 385.972 194.384C385.976 194.448 386.004 194.502 386.055 194.547C386.202 194.585 386.359 194.646 386.525 194.731C386.69 194.8 386.857 194.892 387.025 195.009C387.111 195.083 387.188 195.158 387.257 195.234C387.327 195.309 387.405 195.392 387.491 195.482C387.561 195.557 387.628 195.609 387.694 195.636C387.76 195.664 387.82 195.716 387.874 195.792C387.909 195.838 387.954 195.907 388.008 195.999C388.063 196.092 388.108 196.161 388.143 196.207C388.356 196.513 388.532 196.853 388.671 197.229C388.809 197.604 388.892 197.991 388.92 198.39C388.969 199.109 388.88 199.78 388.65 200.406C388.421 201.031 388.098 201.575 387.681 202.037C387.264 202.498 386.776 202.869 386.218 203.148C385.677 203.442 385.119 203.609 384.545 203.649ZM385.581 201.244C385.848 201.161 386.026 201.077 386.117 200.99C386.222 200.887 386.335 200.783 386.456 200.678C386.591 200.54 386.688 200.445 386.749 200.393C386.825 200.34 386.876 200.256 386.9 200.142C386.99 200.056 387.049 199.987 387.078 199.937C387.106 199.871 387.117 199.798 387.111 199.718C387.109 199.686 387.115 199.662 387.13 199.645C387.144 199.612 387.15 199.579 387.147 199.547L387.225 199.277C387.258 199.067 387.267 198.842 387.25 198.602C387.213 198.059 387.043 197.582 386.742 197.17C386.441 196.758 386.035 196.569 385.524 196.605C385.205 196.627 384.918 196.767 384.663 197.025C384.407 197.267 384.188 197.571 384.004 197.937C383.82 198.286 383.679 198.673 383.58 199.097C383.497 199.52 383.468 199.915 383.493 200.282C383.52 200.665 383.645 200.961 383.868 201.17C384.089 201.363 384.384 201.447 384.751 201.422C385.022 201.403 385.299 201.343 385.581 201.244ZM393.518 209.571C393.39 209.58 393.29 209.531 393.219 209.423C393.163 209.315 393.122 209.19 393.097 209.047C393.072 208.92 393.055 208.793 393.046 208.666C393.004 208.059 392.939 207.462 392.85 206.875C392.777 206.287 392.697 205.715 392.611 205.159C392.541 204.619 392.466 204.111 392.385 203.635C392.32 203.159 392.274 202.729 392.247 202.346C392.228 202.058 392.229 201.842 392.251 201.696C392.287 201.533 392.335 201.409 392.393 201.325C392.45 201.225 392.517 201.148 392.594 201.095C392.67 201.041 392.754 200.971 392.844 200.885C392.878 200.225 392.912 199.669 392.945 199.218C392.978 198.767 393.01 198.42 393.041 198.177C393.327 196.056 393.803 194.467 394.467 193.411C395.148 192.353 396.007 191.789 397.044 191.717C397.539 191.682 397.978 191.772 398.362 191.986C398.762 192.199 399.103 192.496 399.386 192.878C399.422 192.939 399.468 193.024 399.524 193.133C399.579 193.225 399.608 193.295 399.611 193.343C399.663 193.404 399.717 193.488 399.773 193.597C399.844 193.704 399.902 193.844 399.946 194.018C399.988 194.159 400.023 194.309 400.05 194.468C400.077 194.626 400.096 194.785 400.107 194.945C400.156 195.663 400.011 196.339 399.67 196.972C399.344 197.588 398.909 198.147 398.367 198.65C397.824 199.153 397.213 199.596 396.534 199.98C395.87 200.347 395.233 200.639 394.622 200.858C394.678 201.897 394.738 202.871 394.801 203.781C394.864 204.69 394.897 205.514 394.9 206.252C394.92 207.004 394.892 207.648 394.817 208.182C394.758 208.715 394.641 209.116 394.467 209.385C394.395 209.502 394.281 209.59 394.125 209.649C394.094 209.668 394.055 209.686 394.008 209.706C393.961 209.725 393.922 209.736 393.89 209.738C393.81 209.743 393.737 209.724 393.67 209.681C393.619 209.636 393.568 209.6 393.518 209.571ZM397.768 193.832C397.58 193.668 397.351 193.596 397.08 193.615C396.808 193.634 396.554 193.78 396.316 194.053C396.078 194.326 395.856 194.702 395.648 195.182C395.456 195.644 395.285 196.193 395.137 196.829C394.989 197.465 394.876 198.154 394.799 198.897C394.8 198.913 394.793 198.93 394.779 198.947C394.779 198.947 394.779 198.955 394.78 198.971C395.934 198.49 396.807 197.892 397.399 197.177C397.991 196.463 398.256 195.666 398.195 194.789C398.189 194.693 398.166 194.598 398.128 194.505C398.089 194.411 398.05 194.317 398.012 194.224C397.977 194.178 397.949 194.132 397.93 194.085C397.926 194.021 397.906 193.975 397.872 193.945L397.768 193.832ZM409.973 201.671C409.638 201.694 409.353 201.626 409.117 201.466C408.883 201.322 408.685 201.135 408.525 200.905C408.381 200.675 408.268 200.434 408.186 200.183C408.104 199.916 408.048 199.687 408.018 199.497C407.983 199.451 407.95 199.43 407.918 199.432C407.854 199.436 407.778 199.498 407.69 199.616C407.603 199.75 407.502 199.918 407.388 200.118C407.272 200.302 407.112 200.538 406.908 200.825C406.63 201.213 406.285 201.558 405.873 201.859C405.461 202.176 405.072 202.347 404.705 202.373C404.242 202.405 403.828 202.217 403.463 201.809C403.098 201.402 402.889 200.815 402.836 200.048C402.81 199.665 402.808 199.297 402.832 198.942C402.854 198.572 402.886 198.225 402.928 197.901C402.97 197.577 402.986 197.239 402.978 196.887C402.97 196.535 402.959 196.151 402.946 195.734C402.937 195.607 402.929 195.487 402.921 195.375C402.93 195.263 402.931 195.166 402.925 195.086C402.923 195.054 402.914 195.031 402.897 195.016C402.879 195.001 402.862 194.979 402.844 194.948C402.825 194.917 402.815 194.878 402.811 194.83C402.808 194.782 402.796 194.726 402.776 194.664C402.773 194.616 402.77 194.576 402.768 194.544C402.78 194.495 402.785 194.447 402.782 194.399C402.798 194.173 402.881 193.983 403.031 193.828C403.179 193.657 403.349 193.565 403.541 193.552C403.764 193.537 403.977 193.594 404.178 193.725C404.396 193.854 404.576 194.026 404.719 194.24C404.843 194.408 404.928 194.587 404.973 194.776C405.033 194.948 405.069 195.122 405.081 195.298C405.092 195.458 405.093 195.578 405.082 195.659L405.1 195.922C405.109 196.05 405.111 196.194 405.106 196.355C405.117 196.514 405.121 196.682 405.117 196.859C405.112 197.02 405.107 197.181 405.102 197.341C405.096 197.486 405.088 197.599 405.078 197.68C405.055 197.81 405.026 197.972 404.991 198.167C404.973 198.361 404.946 198.555 404.911 198.75C404.892 198.928 404.871 199.09 404.849 199.235C404.827 199.381 404.817 199.478 404.821 199.526C404.83 199.654 404.86 199.74 404.911 199.784C404.978 199.828 405.052 199.855 405.133 199.865C405.277 199.855 405.485 199.737 405.758 199.509C406.046 199.265 406.329 198.956 406.608 198.584C406.903 198.211 407.163 197.792 407.387 197.327C407.626 196.846 407.786 196.37 407.865 195.899C407.958 195.379 408.062 195.027 408.177 194.843C408.292 194.642 408.413 194.538 408.54 194.529C408.86 194.507 409.172 194.622 409.478 194.873C409.8 195.123 409.98 195.512 410.016 196.039C410.035 196.31 410.022 196.592 409.978 196.883C409.95 197.174 409.928 197.424 409.91 197.634C409.89 197.812 409.879 197.997 409.876 198.189C409.874 198.382 409.88 198.59 409.896 198.814C409.905 198.941 409.914 199.077 409.924 199.221C409.95 199.363 409.989 199.465 410.041 199.525C410.073 199.523 410.136 199.503 410.229 199.464C410.369 199.39 410.542 199.346 410.75 199.332C410.861 199.324 411.009 199.37 411.192 199.47L411.32 199.581C411.354 199.611 411.389 199.656 411.426 199.718L411.452 200.101C411.447 200.262 411.419 200.432 411.367 200.612C411.315 200.776 411.229 200.934 411.112 201.087C411.01 201.238 410.859 201.369 410.658 201.479C410.473 201.588 410.245 201.652 409.973 201.671Z" fill="white"/>
<path d="M329.028 400.289H328.572C327.202 400.289 326.288 400.745 325.832 401.656C324.918 402.568 324.461 404.391 325.375 405.759C325.831 407.126 327.202 408.493 328.572 408.949C328.572 408.949 328.572 408.949 329.028 408.949C329.942 409.405 331.768 408.949 332.682 408.038C333.595 407.582 334.052 406.67 334.052 405.759V405.303C333.595 402.568 331.768 400.289 329.028 400.289Z" fill="#1B3F4C"/>
<path d="M301.623 420.345C301.166 420.345 301.166 420.345 301.623 420.345C298.883 422.169 298.426 426.727 301.623 428.55C301.623 428.55 301.623 428.55 302.079 428.55C304.819 430.373 308.473 429.006 308.473 424.903C308.016 422.169 304.363 418.067 301.623 420.345Z" fill="#1B3F4C"/>
<path d="M274.679 430.827C269.656 429.459 265.546 437.208 271.482 439.487C271.939 439.487 272.396 439.487 272.852 439.942C274.223 439.942 276.049 439.031 276.963 437.663C276.963 437.663 276.963 437.663 276.963 437.208C277.419 436.752 277.419 436.296 277.419 435.84C277.876 434.929 277.876 433.561 277.419 432.65C276.963 431.282 276.049 430.827 274.679 430.827Z" fill="#1B3F4C"/>
<circle cx="261.316" cy="339.314" r="91.3452" fill="#939393"/>
<path fill-rule="evenodd" clip-rule="evenodd" d="M267.058 297.421L243.309 293L233.367 298.25L222.045 308.751L208.237 326.161L198.572 345.505L189.183 361.256L177.032 366.507L168.713 368.399L242.302 447.86L243.585 444.435H248.28L252.146 437.803L255.184 427.855L257.669 417.907L261.259 418.459L260.43 411.551L259.602 404.919L262.64 405.748L265.125 406.3L267.334 398.839L264.849 392.207L267.887 393.036L267.058 388.338L271.753 389.996L270.096 387.509L269.267 381.706L272.857 380.324L272.029 368.718L276.447 357.94L285.56 356.282L294.121 357.664L301.025 358.217L314.557 349.926L317.042 346.334L315.661 341.636L291.912 325.056L289.427 318.147L284.732 309.028L267.058 297.421Z" fill="#D1D0C7"/>
<path d="M251.593 309.398L258.497 303.318L263.192 301.107L261.535 285.08L258.497 279L253.803 280.382L246.07 293.646L242.48 307.187L251.593 309.398Z" fill="#E8E7E2"/>
<path d="M263.192 301.108L261.535 285.08L259.878 281.764L257.117 282.869L255.46 288.12L252.422 299.726L251.593 309.398L258.497 303.318L263.192 301.108Z" fill="#C1BFB6"/>
<path d="M259.878 293.095C259.878 292.542 259.326 287.015 259.326 287.015L258.221 282.594L257.393 282.87L255.736 288.121L252.698 299.727L251.87 309.123L258.774 303.043L260.431 302.214C260.155 298.898 259.878 293.371 259.878 293.095Z" fill="#A09F95"/>
<path d="M258.221 343.664L252.974 349.744L255.184 351.125L260.154 346.704L258.221 343.664Z" fill="#C1BFB6"/>
<path d="M256.288 338.965L251.593 345.873L247.727 343.11L252.422 336.754L256.288 338.965Z" fill="#C1BFB6"/>
<path d="M256.012 329.294V332.886L252.422 332.057L252.974 327.912L256.012 329.294Z" fill="#C1BFB6"/>
<path d="M249.937 332.059L250.765 335.098L246.071 340.625L244.69 337.033L249.937 332.059Z" fill="#C1BFB6"/>
<path d="M245.518 327.912L246.07 330.952L240.823 333.715L238.89 329.846L245.518 327.912Z" fill="#C1BFB6"/>
<path d="M240.823 339.795L243.033 342.006L239.995 348.362L236.405 345.874L240.823 339.795Z" fill="#C1BFB6"/>
<path d="M244.966 346.152L243.032 350.574L244.966 352.232L247.727 349.192L244.966 346.152Z" fill="#C1BFB6"/>
<path d="M244.69 364.113L240.271 371.022L243.033 372.127L246.07 366.6L244.69 364.113Z" fill="#C1BFB6"/>
<path d="M230.882 346.98L225.635 353.613L228.12 354.165L232.539 349.191L230.882 346.98Z" fill="#C1BFB6"/>
<path d="M232.539 354.441L225.911 359.692V362.732L233.919 356.652L232.539 354.441Z" fill="#C1BFB6"/>
<path d="M283 353.627L278.916 346.158L274.112 342.672L267.626 333.212L266.184 324H262.341L262.101 335.95L267.385 346.656L266.905 355.12L263.782 363.087L257.777 364.581V372.299L250.33 394.705L246.966 399.685L249.128 409.394L248.408 423.585L245.045 425.577L241.922 425.826L242.402 438.523L240 444H240.24L247.207 436.531L248.888 432.548H252.972L256.335 426.822L258.978 417.61L261.38 408.647L264.263 409.145L263.542 402.921L262.821 396.946L265.464 397.693L267.626 398.191L269.547 391.469L267.385 385.743L270.028 386.49L269.067 382.257L273.391 383.751L271.709 381.261L270.989 375.784L274.112 374.788L273.391 364.581L276.994 354.871L283 353.627Z" fill="#C1BFB6"/>
<path d="M287.217 321.004L285.008 324.596L288.046 326.531L280.314 325.702L277.828 323.491L287.217 321.004Z" fill="#231F20"/>
<path d="M317.042 346.15L316.214 341.452L296.883 328.188L296.054 330.951L302.682 334.543V342.281L294.95 345.321L292.74 351.953C292.74 351.953 289.15 354.993 287.217 356.651L294.121 357.756L301.025 358.309L314.557 350.019L317.042 346.15Z" fill="#A8A79D"/>
<path d="M314.557 349.742L317.042 346.15L316.214 341.452L314.28 340.07L313.176 343.663L314.557 346.979L313.452 350.295L314.557 349.742Z" fill="#231F20"/>
<path d="M293.845 352.231L288.322 349.191L285.837 350.849L288.875 351.955L295.502 354.442L303.235 356.653L304.892 355.547L300.749 354.718L293.845 352.231Z" fill="#231F20"/>
<path d="M284.732 315.753L285.561 319.069L280.59 319.622L276.447 321.28L275.343 318.793L278.381 315.477L284.732 315.753Z" fill="#C1BFB6"/>
<path d="M355.058 335.564C353.688 336.02 352.775 336.931 352.318 338.755V339.21C352.318 341.033 353.688 342.401 355.058 342.857C355.515 342.857 355.972 343.312 356.429 343.312C358.255 343.768 360.995 342.857 361.452 341.033C361.452 340.578 361.909 340.122 361.909 339.666C361.909 336.476 358.712 335.108 355.515 335.564C355.515 335.564 355.515 335.564 355.058 335.564Z" fill="#1B3F4C"/>
<path d="M351.404 305.941C353.23 305.486 354.6 304.574 355.514 302.751C356.427 300.472 355.971 297.737 353.23 297.281C351.404 296.826 350.034 297.737 348.664 298.649C346.837 299.56 345.923 302.295 346.837 304.118C347.294 305.941 349.12 306.853 351.404 305.941Z" fill="#1B3F4C"/>
<path d="M347.294 377.043C342.727 377.043 341.813 383.424 346.837 383.424C351.404 383.424 352.317 377.043 347.294 377.043Z" fill="#1B3F4C"/>
<path d="M264.178 234.841C209.376 237.576 161.881 281.332 159.141 336.482C158.684 349.244 160.054 361.551 163.708 372.49C176.952 412.599 215.77 439.491 260.068 443.593C260.982 443.593 261.438 443.593 262.352 443.593C290.209 445.416 316.24 430.831 334.508 409.409C350.949 390.266 361.909 365.653 363.279 341.952C363.279 341.04 363.279 340.129 363.279 339.217C364.649 283.61 323.091 231.65 264.178 234.841ZM302.54 248.515C304.823 248.515 306.65 251.249 306.65 253.528C306.65 254.44 306.65 254.896 306.193 255.807C305.737 257.63 304.367 258.998 302.083 258.998C300.257 258.998 298.886 257.175 297.973 255.351C297.973 254.44 297.516 253.984 297.516 253.073C298.43 250.338 300.257 248.059 302.54 248.515ZM261.895 239.855C263.722 239.855 266.005 240.766 266.005 242.589C266.005 242.589 266.005 242.589 266.005 243.045C266.462 247.147 261.895 249.882 258.698 247.603C255.045 244.868 257.785 239.855 261.895 239.855ZM223.99 250.338C223.99 250.338 224.447 250.338 224.904 250.338C228.557 250.794 231.754 255.351 228.557 258.086C225.36 260.821 220.337 258.086 220.337 254.44C220.337 254.44 220.337 253.984 220.337 253.528C219.88 251.705 222.163 250.338 223.99 250.338ZM197.959 267.202C203.439 267.202 201.156 275.862 196.132 275.862C190.195 275.862 192.936 267.202 197.959 267.202ZM178.778 289.992C183.802 289.992 184.715 298.652 179.235 298.652C173.755 299.107 173.298 289.992 178.778 289.992ZM160.511 333.292C160.511 332.38 160.968 331.469 161.424 331.013C162.338 328.278 165.991 327.822 167.818 329.645C170.558 331.924 168.275 336.938 164.621 336.938C162.338 336.482 160.511 335.115 160.511 333.292ZM172.385 376.136C170.101 377.959 167.361 376.136 165.991 373.857C165.534 373.401 165.078 372.945 165.078 372.034C164.621 369.299 167.818 367.476 170.101 368.843C171.471 369.299 172.841 370.211 173.298 371.578C174.212 373.401 173.755 375.224 172.385 376.136ZM194.762 409.409C192.022 411.688 186.999 410.32 187.455 406.674C186.999 403.939 189.739 401.205 192.479 402.116C194.306 402.116 196.132 403.483 196.589 405.307C196.589 407.13 196.132 408.497 194.762 409.409ZM229.47 432.654C229.014 432.654 229.014 432.654 228.557 432.654C225.817 433.566 223.533 430.831 223.99 428.096C224.447 425.361 227.187 423.538 229.927 423.994C230.384 423.994 230.384 423.994 230.84 423.994C232.667 424.45 233.581 426.273 233.124 428.096C232.667 430.831 231.297 432.198 229.47 432.654ZM277.879 435.845C277.879 436.3 277.422 436.756 277.422 437.212C277.422 437.212 277.422 437.212 277.422 437.668C276.509 439.035 274.682 439.947 273.312 439.947C272.855 439.947 272.399 439.947 271.942 439.491C265.548 437.212 270.115 429.008 274.682 430.831C276.052 430.831 276.966 431.743 277.879 432.654C278.336 433.566 278.336 434.477 277.879 435.845ZM301.627 428.552C301.627 428.552 301.17 428.552 301.627 428.552C298.43 426.729 298.43 422.171 301.17 420.804C301.17 420.804 301.17 420.804 301.627 420.348C304.823 418.525 308.477 422.171 308.477 424.906C308.02 428.552 304.367 430.375 301.627 428.552ZM328.571 408.497C326.744 408.041 325.374 407.13 324.917 405.307C324.917 403.939 324.917 402.572 325.831 401.205C326.288 400.293 327.658 400.293 328.571 399.837H329.028C331.768 399.837 333.594 402.116 333.594 404.851V405.307C333.594 406.218 333.138 407.13 332.224 407.586C331.311 408.497 329.941 408.953 328.571 408.497ZM346.838 383.429C341.815 383.429 342.728 377.048 347.295 377.048C352.319 377.048 351.405 383.429 346.838 383.429ZM346.382 365.197C340.901 378.871 333.594 390.721 324.461 400.293C307.563 418.069 285.186 428.096 258.242 426.729C223.533 424.906 187.455 404.395 175.125 371.578C175.125 371.122 174.668 370.667 174.668 369.755C147.724 294.549 245.911 226.637 310.304 267.658C334.965 283.155 350.949 310.958 350.949 339.217C350.949 347.877 349.578 356.537 346.382 365.197ZM362.366 339.217C362.366 339.673 362.366 340.129 361.909 340.584C361.452 342.408 358.712 343.319 356.885 342.863C356.429 342.863 355.972 342.863 355.515 342.408C354.145 341.496 352.775 340.129 352.775 338.761V338.305C352.775 336.938 354.145 336.026 355.515 335.115L355.972 334.659C358.712 334.659 362.366 336.482 362.366 339.217ZM348.208 298.196C349.578 297.284 351.405 296.373 352.775 296.828C355.515 297.74 356.429 300.019 355.059 302.298C354.145 304.121 352.775 305.033 350.949 305.488C349.122 306.4 346.838 305.488 345.925 303.209C345.468 301.842 346.382 299.563 348.208 298.196ZM334.508 272.672C334.508 273.583 334.051 274.039 333.594 274.495C332.224 276.774 329.028 278.141 326.744 276.318C324.461 274.495 324.917 271.304 327.201 269.937C327.658 269.481 328.571 269.025 329.028 269.025C331.768 268.114 335.421 269.481 334.508 272.672Z" fill="#F9D949"/>
<path d="M208.918 244.408C169.186 267.653 147.722 312.776 154.115 358.355C158.226 387.982 174.666 416.696 200.697 431.738C274.224 473.67 335.419 443.132 360.994 380.233C377.891 338.756 368.757 287.708 336.789 255.802C302.995 221.162 249.563 220.706 208.918 244.408ZM363.277 342.403C362.364 366.104 351.403 390.716 334.506 409.86C315.782 431.282 290.208 445.867 262.35 444.044C261.436 444.044 260.98 444.044 260.066 444.044C215.768 439.486 176.95 413.05 163.706 372.941C160.052 362.002 158.226 349.695 159.139 336.933C162.336 281.327 209.374 238.027 264.177 235.292C323.089 232.557 364.647 284.061 363.277 340.124C363.277 340.579 363.277 341.491 363.277 342.403Z" fill="#1B3F4C"/>
<path d="M310.304 267.652C245.911 226.631 147.724 294.544 174.212 369.75C174.668 370.205 174.668 371.117 174.668 371.573C187.456 404.846 223.534 424.9 257.785 426.723C284.729 428.091 307.107 418.063 324.004 400.288C333.138 390.716 340.445 378.865 345.925 365.192C349.122 356.987 350.492 347.872 350.492 339.212C350.949 311.408 334.965 283.605 310.304 267.652ZM343.642 324.626C347.752 347.872 339.988 370.205 325.831 388.437C311.217 408.492 283.816 418.519 260.982 418.975C225.36 419.887 188.826 398.92 178.779 361.09C166.905 315.511 200.243 279.047 241.801 265.374C284.273 251.244 335.878 279.503 343.642 324.626Z" fill="#1B3F4C"/>
<path d="M302.539 258.541C304.366 258.541 306.193 257.174 306.649 255.351C306.649 254.895 306.649 253.983 306.649 253.527C306.649 251.248 304.822 248.514 302.539 248.514C300.256 248.514 297.972 250.793 298.429 253.072C298.429 253.983 298.429 254.439 298.886 255.351C299.342 256.718 300.712 258.541 302.539 258.541Z" fill="#1B3F4C"/>
<path opacity="0.2" d="M240.453 264.658C198.894 278.332 165.556 314.795 177.43 360.374C187.477 398.205 224.012 419.171 259.633 418.259C282.468 417.804 309.869 407.776 324.939 388.177C338.64 369.49 346.86 347.156 342.75 324.367C334.986 278.787 283.381 250.528 240.453 264.658Z" fill="#B3E7F5"/>
<path d="M215.41 409.114C233.678 429.169 275.236 402.277 289.85 389.971C314.054 370.372 336.432 340.745 336.888 308.84C356.069 328.439 333.692 378.12 319.078 394.528C306.29 409.114 289.393 414.127 271.126 418.685C257.882 421.876 230.481 424.155 215.41 409.114Z" fill="#B3E7F5" fill-opacity="0.5"/>
<path d="M256.539 270.463C221.437 271.264 190.385 301.696 182.735 330.127C180.935 336.534 190.835 336.534 193.086 331.729C199.386 319.716 208.386 308.504 219.637 300.095C231.337 291.285 243.938 288.482 257.439 283.277C264.189 281.275 264.639 270.463 256.539 270.463Z" fill="#DCF2F7" fill-opacity="0.8"/>
<path d="M329.024 269.025C328.111 269.025 327.654 269.481 326.741 269.937C324.457 271.304 324.001 274.951 326.284 276.318C328.567 278.141 331.764 276.774 333.134 274.495C333.591 274.039 333.591 273.127 334.048 272.672C335.418 269.481 331.764 268.114 329.024 269.025Z" fill="#1B3F4C"/>
<path d="M258.697 247.147C261.894 249.426 266.917 246.691 266.004 242.589C266.004 242.589 266.004 242.589 266.004 242.133C265.547 240.31 263.721 239.398 262.351 239.398H261.894C257.784 239.854 255.044 244.868 258.697 247.147Z" fill="#1B3F4C"/>
<path d="M230.837 424.899C230.837 424.899 230.38 424.899 229.924 424.899C227.184 423.988 224.443 425.811 223.987 428.546C223.53 431.28 225.813 433.559 228.554 433.103C229.01 433.103 229.01 433.103 229.467 433.103C231.294 432.648 232.664 431.28 233.12 429.457C233.12 427.178 232.207 425.355 230.837 424.899Z" fill="#1B3F4C"/>
<path d="M228.556 258.538C231.753 255.803 228.556 250.789 224.902 250.789C224.446 250.789 224.446 250.789 223.989 250.789C222.162 250.789 219.879 252.156 220.335 254.435C220.335 254.891 220.335 254.891 220.335 255.347C220.335 258.538 225.359 261.272 228.556 258.538Z" fill="#1B3F4C"/>
<path d="M196.131 275.857C201.155 275.857 203.895 267.197 197.958 267.197C192.934 267.197 190.194 275.857 196.131 275.857Z" fill="#1B3F4C"/>
<path d="M192.476 402.112C189.736 400.745 186.996 403.935 187.453 406.67C186.996 410.772 192.019 411.684 194.759 409.405C196.13 408.493 196.586 407.126 196.586 405.303C196.13 403.935 194.303 402.112 192.476 402.112Z" fill="#1B3F4C"/>
<path d="M178.777 299.098C184.257 299.098 183.344 290.438 178.32 290.438C173.296 289.983 173.753 299.098 178.777 299.098Z" fill="#1B3F4C"/>
<path d="M170.558 368.842C167.818 367.475 165.078 369.754 165.535 372.033C165.535 372.489 165.991 372.945 166.448 373.856C167.361 376.135 170.558 377.958 172.841 376.135C174.212 375.224 174.668 373.4 173.755 372.033C172.841 370.21 171.928 369.298 170.558 368.842Z" fill="#1B3F4C"/>
<path d="M167.818 329.182C165.991 327.359 162.337 327.814 161.424 330.549C160.967 331.461 160.511 332.372 160.511 333.284C160.511 335.107 162.337 336.474 164.621 336.474C168.274 336.474 170.558 331.461 167.818 329.182Z" fill="#1B3F4C"/>
<circle cx="494.306" cy="370.3" r="91.3452" fill="#C4C4C4"/>
<path d="M450.878 332.928C446.235 330.499 441.336 328.303 436.133 327.883C430.907 327.486 425.261 329.167 422.065 333.301C419.382 336.758 418.752 341.476 419.382 345.797C420.315 352.196 423.861 358.175 429.017 362.052C436.063 352.827 443.832 342.153 450.878 332.928Z" fill="#F7F3D6"/>
<path d="M434.617 357.334C431.747 354.578 428.807 351.682 427.407 347.945C426.031 344.208 426.731 339.396 430.067 337.224C432.26 335.8 435.106 335.8 437.673 336.337C441.336 337.108 444.765 338.836 447.542 341.312C442.572 346.894 439.049 351.331 434.617 357.334Z" fill="#B0C9CC"/>
<path d="M525.558 332.928C530.201 330.499 535.101 328.303 540.327 327.883C545.553 327.486 551.199 329.167 554.395 333.301C557.078 336.758 557.708 341.476 557.078 345.797C556.145 352.196 552.598 358.175 547.442 362.052C540.373 352.827 532.627 342.153 525.558 332.928Z" fill="#F7F3D6"/>
<path d="M541.843 357.334C544.713 354.578 547.653 351.682 549.053 347.945C550.429 344.208 549.729 339.396 546.393 337.224C544.2 335.8 541.354 335.8 538.787 336.337C535.124 337.108 531.695 338.836 528.918 341.312C533.888 346.894 537.411 351.331 541.843 357.334Z" fill="#B0C9CC"/>
<path d="M557.288 414.602C542.543 434.127 523.809 467.993 490.54 467.993C456.874 467.993 439.563 431.278 424.328 411.262C427.361 399.374 424.445 402.317 420.759 390.709H560.298C556.518 402.714 553.999 402.34 557.288 414.602Z" fill="#B0C9CC"/>
<path d="M572.033 397.785C558.175 419.833 533.771 454.563 490.563 454.563C447.355 454.563 425.121 419.389 409 396.968C416.792 372.304 430.511 349.532 448.755 331.174C449.222 331.081 449.712 330.987 450.178 330.894C477.848 325.242 500.549 325.919 528.638 331.782C529.012 331.852 529.408 331.945 529.805 332.015C542.87 345.305 560.718 365.998 567.414 383.421C569.21 388.116 570.75 392.927 572.033 397.785Z" fill="#FFFBF2"/>
<path d="M527.891 409.579C527.705 410.046 527.471 410.513 527.238 410.957C523.599 417.94 515.946 423.055 507.454 425.507C498.962 427.96 489.723 427.936 480.904 426.628C473.345 425.507 465.739 423.382 459.953 419.084C456.197 416.282 453.327 412.381 452.277 408.271C451.718 406.052 451.671 403.786 452.277 401.568C453.421 397.34 456.687 393.767 460.21 390.637C463.733 387.507 467.606 384.611 470.452 381.014C473.298 377.418 475.025 372.863 473.625 368.706C483.424 364.735 500.431 365.319 505.634 367.842C504.094 373.868 506.194 380.501 511.14 385.032C514.523 388.138 518.979 390.17 522.665 392.996C525.348 395.051 527.658 397.597 528.615 400.563C529.571 403.506 529.128 406.683 527.891 409.579Z" fill="#F7F3D6"/>
<path d="M472.855 394.865C473.298 392.693 476.798 392.086 479.504 391.899C486.363 391.432 493.293 391.385 500.175 391.736C502.578 391.853 506.008 392.156 506.288 394.141C507.851 404.768 489.793 414.601 489.793 414.601C489.77 414.648 470.895 404.184 472.855 394.865Z" fill="#240B00"/>
<path d="M455.124 365.274C447.542 367.96 440.473 372.118 434.593 377.606C440.986 380.432 447.448 383.585 454.424 384.099C472.015 385.43 476.541 374.196 475.375 371.58C474.045 368.661 469.799 360.089 455.124 365.274Z" fill="#F7F3D6"/>
<path d="M523.482 365.274C531.065 367.96 538.134 372.118 544.013 377.606C537.62 380.432 531.158 383.585 524.182 384.099C506.591 385.43 502.065 374.196 503.231 371.58C504.538 368.661 508.784 360.089 523.482 365.274Z" fill="#F7F3D6"/>
<path d="M463.593 380.992C461.727 381.879 459.184 382.416 455.847 382.16C454.471 382.066 453.141 381.786 451.811 381.389C449.268 380.641 446.795 379.474 444.369 378.399C446.422 376.484 448.732 374.849 451.205 373.495C452.815 372.607 454.518 371.86 456.244 371.252C457.854 370.692 459.23 370.388 460.444 370.318C465.623 369.991 467.349 373.518 467.956 374.896C468.423 375.924 467.396 379.17 463.593 380.992Z" fill="#FFFBF2"/>
<path d="M522.339 371.254C526.725 372.795 530.831 375.201 534.214 378.4C530.528 380.035 526.772 381.857 522.736 382.161C512.54 382.931 509.927 376.439 510.604 374.92C511.374 373.215 513.824 368.241 522.339 371.254Z" fill="#FFFBF2"/>
<path d="M527.892 409.581C527.705 410.048 527.472 410.516 527.239 410.959C523.599 417.943 515.947 423.058 507.454 425.51C498.962 427.962 489.723 427.939 480.904 426.631C473.345 425.51 465.74 423.385 459.954 419.087C456.198 416.284 453.328 412.384 452.278 408.273C455.078 412.524 459.814 415.56 464.55 417.662C472.552 421.213 480.158 422.591 489.793 414.603C498.356 423.735 512.261 418.877 517.137 416.425C520.963 414.509 524.556 412.221 527.892 409.581Z" fill="#B0C9CC"/>
<path d="M446.865 362.075C447.892 362.075 448.895 361.725 449.548 361.094C452.255 358.455 457.854 356.33 465.53 358.315C467.28 358.759 469.193 358.081 469.823 356.797C470.429 355.512 469.519 354.111 467.769 353.644C458.624 351.285 449.385 353.036 444.182 358.128C443.063 359.226 443.366 360.767 444.859 361.585C445.466 361.912 446.166 362.075 446.865 362.075Z" fill="#F7F3D6"/>
<path d="M532.278 362.075C531.251 362.075 530.248 361.725 529.595 361.094C526.888 358.455 521.289 356.33 513.613 358.315C511.863 358.759 509.95 358.081 509.32 356.797C508.714 355.512 509.624 354.111 511.373 353.644C520.519 351.285 529.758 353.036 534.961 358.128C536.08 359.226 535.777 360.767 534.284 361.585C533.677 361.912 532.977 362.075 532.278 362.075Z" fill="#F7F3D6"/>
<path d="M464.783 376.973C464.783 378.444 464.34 379.822 463.57 380.99C461.703 381.878 459.16 382.415 455.824 382.158C454.448 382.064 453.118 381.784 451.788 381.387C450.855 380.173 450.295 378.631 450.295 376.973C450.295 375.712 450.622 374.52 451.181 373.493C452.791 372.605 454.494 371.858 456.221 371.251C457.831 370.69 459.207 370.386 460.42 370.316C463.01 371.437 464.783 374.007 464.783 376.973Z" fill="#240B00"/>
<path d="M444.416 378.376C446.469 376.461 448.778 374.826 451.251 373.471C452.861 372.584 454.564 371.836 456.291 371.229C457.9 370.668 459.277 370.365 460.49 370.295C465.67 369.968 467.396 373.494 468.003 374.872L444.416 378.376Z" fill="#240B00"/>
<path d="M513.8 376.973C513.8 378.444 514.244 379.822 515.013 380.99C516.88 381.878 519.423 382.415 522.759 382.158C524.136 382.064 525.466 381.784 526.795 381.387C527.729 380.173 528.288 378.631 528.288 376.973C528.288 375.712 527.962 374.52 527.402 373.493C525.792 372.605 524.089 371.858 522.363 371.251C520.753 370.69 519.376 370.386 518.163 370.316C515.573 371.437 513.8 374.007 513.8 376.973Z" fill="#240B00"/>
<path d="M534.168 378.376C532.115 376.461 529.805 374.826 527.332 373.471C525.722 372.584 524.019 371.836 522.292 371.229C520.683 370.668 519.306 370.365 518.093 370.295C512.914 369.968 511.187 373.494 510.581 374.872L534.168 378.376Z" fill="#240B00"/>
<path d="M496.159 259.08C439.394 261.913 390.198 307.236 387.36 364.361C386.887 377.58 388.306 390.327 392.091 401.658C405.809 443.204 446.017 471.058 491.901 475.307C492.848 475.307 493.321 475.307 494.267 475.307C523.122 477.196 550.085 462.088 569.006 439.899C586.036 420.07 597.389 394.576 598.808 370.026C598.808 369.082 598.808 368.138 598.808 367.194C600.227 309.596 557.181 255.775 496.159 259.08ZM535.894 273.244C538.259 273.244 540.151 276.076 540.151 278.437C540.151 279.381 540.151 279.853 539.678 280.797C539.205 282.686 537.786 284.102 535.421 284.102C533.529 284.102 532.11 282.214 531.163 280.325C531.163 279.381 530.69 278.909 530.69 277.965C531.637 275.132 533.529 272.771 535.894 273.244ZM493.794 264.273C495.686 264.273 498.051 265.218 498.051 267.106C498.051 267.106 498.051 267.106 498.051 267.578C498.524 271.827 493.794 274.66 490.482 272.299C486.698 269.467 489.536 264.273 493.794 264.273ZM454.532 275.132C454.532 275.132 455.005 275.132 455.478 275.132C459.262 275.604 462.573 280.325 459.262 283.158C455.951 285.991 450.747 283.158 450.747 279.381C450.747 279.381 450.747 278.909 450.747 278.437C450.274 276.548 452.639 275.132 454.532 275.132ZM427.568 292.6C433.245 292.6 430.88 301.57 425.676 301.57C419.527 301.57 422.365 292.6 427.568 292.6ZM407.701 316.206C412.904 316.206 413.85 325.176 408.174 325.176C402.497 325.648 402.024 316.206 407.701 316.206ZM388.779 361.056C388.779 360.112 389.252 359.168 389.725 358.696C390.672 355.863 394.456 355.391 396.348 357.279C399.186 359.64 396.821 364.833 393.037 364.833C390.672 364.361 388.779 362.945 388.779 361.056ZM401.078 405.435C398.713 407.323 395.875 405.435 394.456 403.074C393.983 402.602 393.51 402.13 393.51 401.186C393.037 398.353 396.348 396.465 398.713 397.881C400.132 398.353 401.551 399.297 402.024 400.714C402.97 402.602 402.497 404.49 401.078 405.435ZM424.257 439.899C421.419 442.259 416.216 440.843 416.689 437.066C416.216 434.233 419.054 431.401 421.892 432.345C423.784 432.345 425.676 433.761 426.149 435.65C426.149 437.538 425.676 438.955 424.257 439.899ZM460.208 463.976C459.735 463.976 459.735 463.976 459.262 463.976C456.424 464.921 454.058 462.088 454.532 459.255C455.005 456.423 457.843 454.534 460.681 455.006C461.154 455.006 461.154 455.006 461.627 455.006C463.519 455.478 464.465 457.367 463.992 459.255C463.519 462.088 462.1 463.504 460.208 463.976ZM510.35 467.281C510.35 467.753 509.877 468.225 509.877 468.698C509.877 468.698 509.877 468.698 509.877 469.17C508.931 470.586 507.039 471.53 505.62 471.53C505.146 471.53 504.673 471.53 504.2 471.058C497.578 468.698 502.308 460.2 507.039 462.088C508.458 462.088 509.404 463.032 510.35 463.976C510.823 464.921 510.823 465.865 510.35 467.281ZM534.948 459.727C534.948 459.727 534.475 459.727 534.948 459.727C531.637 457.839 531.637 453.118 534.475 451.702C534.475 451.702 534.475 451.702 534.948 451.229C538.259 449.341 542.043 453.118 542.043 455.951C541.57 459.727 537.786 461.616 534.948 459.727ZM562.857 438.955C560.965 438.482 559.546 437.538 559.073 435.65C559.073 434.233 559.073 432.817 560.019 431.401C560.492 430.457 561.911 430.457 562.857 429.984H563.33C566.168 429.984 568.06 432.345 568.06 435.178V435.65C568.06 436.594 567.587 437.538 566.641 438.01C565.695 438.955 564.276 439.427 562.857 438.955ZM581.778 412.988C576.575 412.988 577.521 406.379 582.251 406.379C587.455 406.379 586.509 412.988 581.778 412.988ZM581.305 394.104C575.629 408.267 568.06 420.542 558.6 430.457C541.097 448.869 517.918 459.255 490.009 457.839C454.058 455.951 416.689 434.706 403.917 400.714C403.917 400.241 403.444 399.769 403.444 398.825C375.534 320.927 477.237 250.582 543.935 293.072C569.479 309.124 586.036 337.923 586.036 367.194C586.036 376.164 584.617 385.134 581.305 394.104ZM597.862 367.194C597.862 367.666 597.862 368.138 597.389 368.61C596.916 370.498 594.077 371.443 592.185 370.971C591.712 370.971 591.239 370.971 590.766 370.498C589.347 369.554 587.928 368.138 587.928 366.722V366.249C587.928 364.833 589.347 363.889 590.766 362.945L591.239 362.473C594.077 362.473 597.862 364.361 597.862 367.194ZM583.198 324.704C584.617 323.759 586.509 322.815 587.928 323.287C590.766 324.232 591.712 326.592 590.293 328.953C589.347 330.841 587.928 331.785 586.036 332.257C584.144 333.202 581.778 332.257 580.832 329.897C580.359 328.481 581.305 326.12 583.198 324.704ZM569.006 298.265C569.006 299.21 568.533 299.682 568.06 300.154C566.641 302.514 563.33 303.931 560.965 302.042C558.6 300.154 559.073 296.849 561.438 295.433C561.911 294.961 562.857 294.489 563.33 294.489C566.168 293.544 569.953 294.961 569.006 298.265Z" fill="#F9D949"/>
<path d="M438.92 268.995C397.766 293.073 375.533 339.812 382.155 387.023C386.413 417.71 403.442 447.453 430.405 463.033C506.564 506.467 569.951 474.835 596.441 409.684C613.944 366.722 604.483 313.846 571.37 280.798C536.365 244.917 481.02 244.445 438.92 268.995ZM598.806 370.499C597.86 395.049 586.507 420.543 569.005 440.371C549.61 462.561 523.12 477.668 494.265 475.78C493.319 475.78 492.846 475.78 491.9 475.78C446.015 471.059 405.807 443.676 392.089 402.13C388.305 390.8 386.413 378.053 387.359 364.834C390.67 307.236 439.393 262.386 496.157 259.553C557.179 256.72 600.225 310.069 598.806 368.138C598.806 368.61 598.806 369.555 598.806 370.499Z" fill="#1B3F4C"/>
<path d="M543.934 293.074C477.236 250.584 375.533 320.929 402.969 398.827C403.442 399.299 403.442 400.243 403.442 400.715C416.687 435.179 454.057 455.952 489.535 457.841C517.444 459.257 540.623 448.871 558.125 430.458C567.586 420.544 575.154 408.269 580.831 394.106C584.142 385.608 585.561 376.166 585.561 367.195C586.034 338.397 569.478 309.598 543.934 293.074ZM578.466 352.088C582.723 376.166 574.681 399.299 560.017 418.183C544.88 438.956 516.498 449.343 492.846 449.815C455.949 450.759 418.106 429.042 407.699 389.857C395.4 342.646 429.932 304.877 472.978 290.713C516.971 276.078 570.424 305.349 578.466 352.088Z" fill="#1B3F4C"/>
<path d="M535.891 283.633C537.783 283.633 539.676 282.216 540.149 280.328C540.149 279.856 540.149 278.911 540.149 278.439C540.149 276.079 538.256 273.246 535.891 273.246C533.526 273.246 531.161 275.607 531.634 277.967C531.634 278.911 531.634 279.384 532.107 280.328C532.58 281.744 533.999 283.633 535.891 283.633Z" fill="#1B3F4C"/>
<path opacity="0.2" d="M474.796 289.789C431.75 303.952 397.218 341.721 409.517 388.932C419.924 428.117 457.767 449.835 494.664 448.89C518.316 448.418 546.698 438.032 562.308 417.731C576.499 398.374 585.014 375.241 580.756 351.635C572.715 304.424 519.262 275.154 474.796 289.789Z" fill="#B3E7F5"/>
<path d="M445.646 439.595C464.567 460.368 507.614 432.513 522.751 419.766C547.822 399.465 571.001 368.778 571.474 335.73C591.341 356.031 568.163 407.491 553.025 424.487C539.78 439.595 522.278 444.788 503.357 449.509C489.638 452.814 461.256 455.175 445.646 439.595Z" fill="#B3E7F5" fill-opacity="0.5"/>
<path d="M488.245 295.986C451.887 296.816 419.723 328.338 411.799 357.787C409.934 364.423 420.189 364.423 422.52 359.446C429.046 347.003 438.369 335.389 450.022 326.679C462.142 317.554 475.194 314.651 489.178 309.259C496.17 307.185 496.636 295.986 488.245 295.986Z" fill="#DCF2F7" fill-opacity="0.8"/>
<path d="M590.292 363.419C588.873 363.891 587.927 364.835 587.454 366.723V367.195C587.454 369.084 588.873 370.5 590.292 370.972C590.765 370.972 591.238 371.444 591.711 371.444C593.604 371.917 596.442 370.972 596.915 369.084C596.915 368.612 597.388 368.14 597.388 367.668C597.388 364.363 594.077 362.946 590.765 363.419C590.765 363.419 590.765 363.419 590.292 363.419Z" fill="#1B3F4C"/>
<path d="M586.508 332.732C588.4 332.26 589.819 331.316 590.765 329.428C591.711 327.067 591.238 324.234 588.4 323.762C586.508 323.29 585.088 324.234 583.669 325.179C581.777 326.123 580.831 328.956 581.777 330.844C582.25 332.732 584.142 333.677 586.508 332.732Z" fill="#1B3F4C"/>
<path d="M582.251 406.385C577.521 406.385 576.575 412.994 581.778 412.994C586.508 412.994 587.455 406.385 582.251 406.385Z" fill="#1B3F4C"/>
<path d="M563.327 294.488C562.38 294.488 561.907 294.96 560.961 295.433C558.596 296.849 558.123 300.626 560.488 302.042C562.854 303.931 566.165 302.514 567.584 300.154C568.057 299.682 568.057 298.737 568.53 298.265C569.949 294.96 566.165 293.544 563.327 294.488Z" fill="#1B3F4C"/>
<path d="M563.33 430.457H562.857C561.438 430.457 560.492 430.929 560.019 431.873C559.072 432.818 558.599 434.706 559.545 436.122C560.019 437.539 561.438 438.955 562.857 439.427C562.857 439.427 562.857 439.427 563.33 439.427C564.276 439.899 566.168 439.427 567.114 438.483C568.06 438.011 568.533 437.067 568.533 436.122V435.65C568.06 432.818 566.168 430.457 563.33 430.457Z" fill="#1B3F4C"/>
<path d="M534.944 451.233C534.471 451.233 534.471 451.233 534.944 451.233C532.106 453.121 531.632 457.842 534.944 459.731C534.944 459.731 534.944 459.731 535.417 459.731C538.255 461.619 542.039 460.203 542.039 455.954C541.566 453.121 537.782 448.872 534.944 451.233Z" fill="#1B3F4C"/>
<path d="M507.037 462.092C501.834 460.676 497.576 468.702 503.726 471.062C504.199 471.062 504.672 471.062 505.145 471.534C506.564 471.534 508.456 470.59 509.402 469.174C509.402 469.174 509.402 469.174 509.402 468.702C509.875 468.23 509.875 467.757 509.875 467.285C510.348 466.341 510.348 464.925 509.875 463.981C509.402 462.564 508.456 462.092 507.037 462.092Z" fill="#1B3F4C"/>
<path d="M490.48 271.833C493.792 274.193 498.995 271.36 498.049 267.111C498.049 267.111 498.049 267.111 498.049 266.639C497.576 264.751 495.684 263.807 494.265 263.807H493.792C489.534 264.279 486.696 269.472 490.48 271.833Z" fill="#1B3F4C"/>
<path d="M461.625 455.953C461.625 455.953 461.152 455.953 460.679 455.953C457.841 455.008 455.003 456.897 454.53 459.73C454.057 462.562 456.422 464.923 459.26 464.451C459.733 464.451 459.733 464.451 460.206 464.451C462.098 463.979 463.517 462.562 463.99 460.674C463.99 458.313 463.044 456.425 461.625 455.953Z" fill="#1B3F4C"/>
<path d="M459.259 283.631C462.57 280.799 459.259 275.605 455.475 275.605C455.002 275.605 455.002 275.605 454.529 275.605C452.636 275.605 450.271 277.022 450.744 279.382C450.744 279.854 450.744 279.854 450.744 280.327C450.744 283.631 455.948 286.464 459.259 283.631Z" fill="#1B3F4C"/>
<path d="M425.677 301.574C430.88 301.574 433.718 292.604 427.569 292.604C422.365 292.604 419.527 301.574 425.677 301.574Z" fill="#1B3F4C"/>
<path d="M421.89 432.347C419.051 430.93 416.213 434.235 416.686 437.068C416.213 441.317 421.417 442.261 424.255 439.9C425.674 438.956 426.147 437.54 426.147 435.651C425.674 434.235 423.782 432.347 421.89 432.347Z" fill="#1B3F4C"/>
<path d="M407.701 325.651C413.377 325.651 412.431 316.681 407.228 316.681C402.024 316.209 402.497 325.651 407.701 325.651Z" fill="#1B3F4C"/>
<path d="M399.186 397.889C396.347 396.472 393.509 398.833 393.982 401.193C393.982 401.665 394.455 402.138 394.928 403.082C395.874 405.442 399.186 407.331 401.551 405.442C402.97 404.498 403.443 402.61 402.497 401.193C401.551 399.305 400.605 398.361 399.186 397.889Z" fill="#1B3F4C"/>
<path d="M396.347 356.811C394.455 354.922 390.671 355.394 389.725 358.227C389.252 359.171 388.779 360.116 388.779 361.06C388.779 362.948 390.671 364.365 393.036 364.365C396.82 364.365 399.186 359.171 396.347 356.811Z" fill="#1B3F4C"/>
</svg>
