<?xml version="1.0" encoding="utf-8"?>
<!-- Generator: Adobe Illustrator 25.0.0, SVG Export Plug-In . SVG Version: 6.00 Build 0)  -->
<svg version="1.1" id="Layer_1" xmlns="http://www.w3.org/2000/svg" xmlns:xlink="http://www.w3.org/1999/xlink" x="0px" y="0px"
	 viewBox="0 0 757 557" style="enable-background:new 0 0 757 557;" xml:space="preserve">
<style type="text/css">
	.st0{fill:#94ADAF;}
	.st1{fill:#FFFBF2;}
	.st2{fill:#F6F3D6;}
	.st3{fill:#B0C9CC;}
	.st4{fill:#240B00;}
	.st5{opacity:0.5;fill:#B3E7F5;enable-background:new    ;}
	.st6{fill:#F9D949;}
	.st7{fill:#FF9D00;}
	.st8{opacity:0.68;fill:#405159;enable-background:new    ;}
	.st9{fill:#405159;}
	.st10{fill:#5A6F77;}
	.st11{fill:#B3E7F5;}
	.st12{fill:#DCF2F7;}
	.st13{fill:#1B3F4C;}
	.st14{fill:#939393;}
	.st15{clip-path:url(#SVGID_2_);}
	.st16{fill:#FFFFFF;}
	.st17{fill:#090909;}
	.st18{fill:#9EB4D3;}
	.st19{opacity:0.32;fill:#B3E7F5;enable-background:new    ;}
	.st20{fill:#B3E7F5;fill-opacity:0.5;}
	.st21{fill:#DCF2F7;fill-opacity:0.8;}
	.st22{fill:#C4C4C4;}
	.st23{fill:#CFDCE4;}
	.st24{opacity:0.13;fill:#5B798E;enable-background:new    ;}
	.st25{fill:#005F79;}
	.st26{opacity:0.2;fill:#B3E7F5;enable-background:new    ;}
</style>
<path class="st0" d="M682.7,451.4c-1.5-2.3-3.5-4.3-6-5.5c-1.1-0.5-2.2-0.9-3.3-1.3c-0.4-0.1-0.8-0.3-1.2-0.4
	c-0.1,0-0.3-0.1-0.4-0.1c-0.3-0.2-0.6-0.3-0.9-0.5c0,0-0.1-0.1-0.1-0.1c-0.1-0.1-0.1-0.1-0.2-0.2c0,0,0,0.1,0,0.1c0,0,0-0.1,0-0.1
	c0,0-0.1-0.1-0.2-0.1c-0.4-0.5-0.3-0.6,0-0.3c-0.2-0.3-0.4-0.8-0.5-0.9c0,0,0-0.1-0.1-0.1c-0.1-0.3-0.2-0.6-0.3-0.9
	c-0.2-0.7-0.5-1.4-0.7-2.2c-0.5-1.6-1-3.2-1.4-4.9c-1.6-6-2.9-12-4.4-18c-1.5-6.3-2.9-12.7-4.3-19c-0.8-3.5-1.6-7-2.4-10.5
	c-0.4-1.6-0.8-3.3-1.2-4.9c-0.4-1.8-1.1-3.5-1.8-5.2c-0.6-1.5-1.3-2.8-2.8-3.6c-1.3-0.8-3.2-1.1-4.7-0.6c-3.4,1.1-4.8,4.1-4.2,7.4
	c0.5,2.9,1.1,5.7,1.9,8.5c0-0.1-0.1-0.2-0.2-0.3c-0.8-1.6-3-2.5-4.7-1.9c-1.9,0.6-2.8,2.1-3.1,4c-0.4,3.3,0.5,6.7,1.4,9.9
	c0.9,3.1,1.9,6.1,3,9.1c2.1,5.9,4.5,11.7,6.6,17.6c1,2.8,1.9,5.6,2.6,8.6c0.7,2.8,1.2,5.6,1.9,8.4c1.4,5.7,3.5,12.4,9,15.4
	c5.4,3,11.7,1.9,17.6,1.7C681.9,460.1,685.2,455.3,682.7,451.4z M665.6,448.4C665.6,448.4,665.5,448.4,665.6,448.4
	c-0.1-0.1-0.2-0.1-0.2-0.1c0,0,0,0,0,0c-0.1-0.1-0.1-0.1-0.2-0.2C665.2,448.1,665.3,448.2,665.6,448.4z"/>
<path class="st0" d="M670.4,443.2c0-0.2-0.1-0.3-0.2-0.4C670.3,443,670.4,443.1,670.4,443.2C670.4,443.2,670.4,443.2,670.4,443.2z"
	/>
<path class="st0" d="M493.4,393.7c-2.2-1.1-5.1-1-6.9,0.9c-0.3,0.3-0.5,0.6-0.7,0.9c-0.7-1-1.6-2-2.5-2.8c-1.2-1.1-2.4-2.2-3.8-3.1
	c0-0.2-0.1-0.3-0.1-0.5c-1.2-4.4-6.6-6.1-10.7-6.5c-3.1-0.3-5.9,0.8-8.3,2.7c-1.7,0.6-3.2,1.6-4.5,3.1c-1.5,1.7-2.7,4.5-1.8,6.8
	c0.6,1.6,1.4,3,2.5,4.2c-0.9,0.8-1.7,1.7-2.4,2.8c-0.6,0.9-1,2.2-1,3.5c-0.1,0.1-0.1,0.2-0.1,0.3c-1.7,0-3.3,1-3.9,3
	c-0.3,0.9-0.5,1.9-0.6,2.8c-1.6-3.2-5.8-4.4-8.7-2.1c-3.8,2.9-2.2,7.4-1.2,11.3c0.6,2.5,1.2,5,1.9,7.5c1.3,5,2.5,10,3.6,15
	c0.9,4,1.4,7.9,2.2,11.9c0.3,1.7,0.9,3.4,1.8,4.8c1.6,2.3,3.7,3.7,6.3,4.6c5.5,2,11.4,1.6,17,0.6c4.4-0.8,4.3-7.9,0-8.8
	c-2.2-0.4-4.5-0.7-6.8-0.9c-0.2,0-0.4-0.1-0.6-0.1h0c0-0.1,0-0.2,0-0.4c0-2.2-0.6-4.4-1-6.6c-0.4-1.9-0.9-3.8-1.2-5.6
	c-0.8-3.9-1.3-7.9-1.9-11.8c0-0.2-0.1-0.5-0.1-0.7c0.2-0.3,0.5-0.7,0.7-1.1c0.1-0.2,0.2-0.4,0.4-0.6c0,0,0,0,0-0.1
	c0.2-0.1,0.5-0.5,0.6-0.6c0.3-0.3,0.6-0.5,0.8-0.8c0,0,0.1-0.1,0.2-0.1c0,0,0.1-0.1,0.2-0.1c0.7-0.4,1.3-0.8,2.1-1.2
	c0.3-0.2,0.6-0.3,0.9-0.5c0.1,0,0.5-0.2,0.8-0.4c0.2-0.1,0.5-0.2,0.5-0.2c0.4-0.1,0.7-0.3,1.1-0.4c0.8-0.3,1.6-0.5,2.5-0.7
	c3.2-0.9,6.3-2.5,9.1-4.4c1.4-1,2.8-2,4.1-3.1c0.1,0,0.2-0.1,0.3-0.1c0.7-0.4,1.3-1,1.8-1.6c1-0.9,1.9-1.8,2.8-2.7
	c1.6-1.7,3.1-3.5,4.5-5.4c1.3-1.8,2.4-3.6,2.9-5.8C496.5,397.7,495.8,395,493.4,393.7z"/>
<path class="st0" d="M656.2,255.2c0.1,0,0.1,0,0.2,0c-0.1-0.1-0.2-0.1-0.3-0.2C656.1,255.1,656.1,255.1,656.2,255.2
	C656.2,255.2,656.2,255.2,656.2,255.2z"/>
<path class="st0" d="M609.6,282.5c-0.8,0.4-0.7,0.5-0.4,0.3C609.3,282.7,609.4,282.6,609.6,282.5
	C609.5,282.5,609.5,282.5,609.6,282.5z"/>
<path class="st0" d="M551.8,402.4c-0.2,0-0.3,0-0.5,0.1c-0.5,0.1-1.1,0.1-1.7,0.2C550.4,402.6,551.1,402.5,551.8,402.4z"/>
<path class="st0" d="M656.1,255.1C656.1,255.1,656.1,255.1,656.1,255.1c0.1,0.1,0.1,0.1,0.1,0.1
	C656.1,255.2,656.1,255.1,656.1,255.1C656.1,255.1,656.1,255.1,656.1,255.1z"/>
<path class="st0" d="M708.3,295.5c-0.3-7.1-0.9-14.3-1.6-21.4c-0.7-7.5-1.5-15.2-3.9-22.3c-0.7-2.1-1.5-4.2-2.4-6.2
	c-1-2.3-4.5-4.3-6.9-4c-2.6,0.3-5.1,0.8-7.3,2.4c-1.8,1.2-3.3,2.6-4.7,4.2c-1.8,2.1-3.4,4.5-5.5,6.4c-0.1,0.1-0.1,0.1-0.2,0.1
	c-0.5,0.2-0.9,0.2-1.4,0.3c-3,0.3-6,0.1-9,0.1c-2.8,0-5.7,0.4-8.6,0.2c-0.1,0-0.2-0.1-0.4-0.1c0,0,0.1,0.1,0.1,0.1c0,0,0,0-0.1,0
	c0,0-0.1-0.1-0.1-0.1c0,0,0,0,0,0c0,0,0,0-0.1,0c0,0,0,0,0,0c0,0,0,0,0,0l0,0h0c0,0,0,0,0-0.1c-0.1,0-0.1-0.1-0.2-0.1
	c0,0,0.1,0,0.1,0c-0.2-0.3-0.3-0.5,0,0c0,0,0,0,0,0c-0.5-0.9-1.1-1.8-1.6-2.7c-1.9-3.4-4.1-7.7-8.2-8.8c-7.2-1.9-11.4,5.9-14.5,11
	c-2.5,4.1-4.5,8.5-7.4,12.3c0,0-0.1,0.1-0.1,0.1c-0.3,0.4-0.7,0.9-1,1.3c-0.7,0.9-1.4,1.8-2.2,2.6c-1.5,1.8-3.1,3.5-4.7,5.2
	c-1.5,1.6-3.1,3.1-4.8,4.6c-0.7,0.6-1.4,1.2-2.1,1.8c0,0,0,0,0.1,0c0,0-0.1,0-0.1,0c-0.1,0-0.1,0.1-0.2,0.2c0,0-0.1,0.1-0.2,0.1
	c0,0,0,0-0.1,0c-0.3,0.2-0.6,0.4-0.9,0.6c-0.4,0.2-0.7,0.4-1.1,0.6c-0.1,0.1-0.2,0.1-0.4,0.2c-0.8,0.3-1.5,0.6-2.3,0.9
	c-0.9,0.3-1.8,0.6-2.6,0.8c-6.2,0.4-12,2.7-17.8,4.9c-2.8,1-5.6,2-8.6,2.5c-4.4,0.5-8.7,0.8-13.1,1.1c-5.2,0.4-10.4,0.8-15.6,1.1
	c-10.4,0.7-20.8,1.2-31.2,1.1c-8.9-0.1-17.8-0.3-26.7,0.2c-0.2,0-0.5-0.1-0.7-0.1c-7.2-1-14.7-1.8-21.8,0.4
	c-2.7,0.2-5.5,1.5-7.7,2.8c-1.9,1.1-3.8,2.6-5.3,4.2c-1.4,1.5-2.6,3.1-3.7,4.8c-1.2,1.6-2.3,3.2-3.2,5c-1.7,3.3-3.1,6.8-3.6,10.5
	c-0.3,2.3-0.7,4.6-0.6,7c0,0.1,0,0.1,0,0.2c-0.4,2.5-0.8,5.1-1.2,7.6c-0.6,3.7-1.2,7.4-2.5,10.8c-0.8,1.7-1.7,3.2-2.8,4.7
	c-2.5,3.1-5.5,5.7-8.6,8.1c-7.6,5.8-15.6,11.4-23.3,17.1c-9.3,6.9-19,14.3-25.5,24c-3,4.4-5.1,9.3-8.3,13.6c-2.8,3.4-6.5,5.9-9.6,9
	c-4.5,4.3-8.4,9.8-8.3,16.3c0,2.6,1.5,6,4.1,7.1c2.5,1.1,4.7,1.8,7.5,1.9c1.9,0.1,4-0.3,5.8-0.9c2.8-0.9,5.4-2.3,8.1-3.5
	c2.3-0.9,4.7-1.5,7.1-1.9c5-0.5,10-0.5,15-0.9c5.6-0.4,11.3-1.1,16.8-2.4c9.9-2.3,19.6-6.7,27.8-12.9c7.9-6,14.6-13.5,18.6-22.7
	c1.9-4.5,3.6-8.9,4.6-13.6c0.6-2.8,1.1-5.6,1.6-8.4c0,0.1,0.1,0.1,0.1,0.2c0.3,0.4,0.6,0.9,0.8,1.3c0.5,0.9,1,1.8,1.5,2.7
	c0.9,1.9,1.8,3.8,2.7,5.7c3.3,7,7.8,13.5,12.9,19.3c0.2,0.2,0.4,0.4,0.6,0.6c-0.8,0.6-1.5,1.2-2.3,1.8c-2,1.7-3.9,3.7-5.2,6
	c-0.8,1.3-1.4,2.8-1.8,4.3c-0.6,2.5-0.4,4.2,0,6.7v0c0.3,3.1,2,6,4.1,8.2c2,2.2,4.4,3.8,6.7,5.5c0.7,0.6,1.4,1.2,2,1.8
	c1.6,1.5,3.1,3.2,4.5,4.9c2.8,3.3,5.4,6.7,8.6,9.6c2.4,2.2,5,3.3,8.1,4.3c3.1,1,6.4,1.5,9.6,1.9c2.9,0.3,6.1,0.3,8.8-0.7
	c2.5-1,4.7-2.4,6-4.8c1.9-3.4,1.4-7.8-1.4-10.5c-3.1-3-7.4-3.2-11.4-3.6c-0.1,0-0.2-0.1-0.3-0.1c-0.2-0.1-0.3-0.2-0.5-0.3
	c-0.2-0.1-0.3-0.2-0.5-0.3c-1-0.9-2-1.8-2.9-2.9c-0.9-1-1.7-2.1-2.6-3.1c-0.1-0.2-0.2-0.3-0.4-0.5c-0.7-0.9-1.4-1.8-2.1-2.7
	c-1.4-1.8-2.9-3.4-4.3-5.2c-0.1-0.1-0.2-0.3-0.3-0.4c-0.2-0.2-0.4-0.6-0.6-0.8c0.3,0,0.7,0.1,1.1,0.1c1.9,0.2,3.9,0.4,5.8,0.3
	c5.4-0.2,10.3-1.8,14.4-5.4c7.6-6.8,8.1-17.5,10-27c0.1,0,0.2,0,0.3,0c1.3,0.9,2.8,1.4,4.4,1.3c2-0.1,3.9-0.3,5.8-0.5
	c8.1-1.2,16-3.2,24-4.4c6.4-0.8,12.9-0.9,19.3-0.4c1.7,0.6,3.3,1.2,5,1.6c0.5,0.1,1.1,0.2,1.6,0.3c0.9,1.7,1.8,3.5,2.6,5.3
	c0.2,0.4,0.3,0.7,0.5,1.1c0,0.1,0.1,0.3,0.2,0.4c0,0.1,0.1,0.2,0.1,0.2c0.2,0.4,0.3,0.9,0.5,1.3c0.5,1.4,1.1,2.7,1.6,4.1
	c1.7,4.3,3.2,8.6,4.1,13.1c1.2,5.8,2.3,11.8,4.4,17.4c0.1,0.4,0.3,0.8,0.5,1.2c0.2,2,0.6,3.9,1.1,5.8c1.8,6.3,5.7,12.9,12.7,14.3
	c4.7,0.9,9.5-0.3,13.4-2.9c2.5-1.7,3.9-4.3,3.5-7.4c-0.3-2.7-2.4-5.6-5.3-6.1c-0.2,0-0.5-0.1-0.7-0.1c0.6,0.2,0.1,0.2-0.3,0
	c-0.1-0.1-0.2-0.1-0.2-0.1c0,0,0,0,0,0c-0.2,0-0.3-0.1-0.5-0.2c0.1,0,0.3,0.1,0.4,0.1c-0.2-0.1-0.4-0.2-0.7-0.4
	c-0.3-0.3-0.7-0.7-1-1c0.4,0.4-0.2-0.2-0.5-0.6c-0.1-0.1-0.2-0.2-0.2-0.3c0.1,0.1,0.2,0.2,0.2,0.2l0,0c-0.3-0.5-0.6-1-0.9-1.5
	c-0.3-0.4-0.5-0.9-0.7-1.4c-0.1-0.1-0.1-0.3-0.2-0.4c-0.4-0.9-0.7-1.9-1-2.9c-0.7-2.2-1.3-4.5-1.8-6.7c-0.9-4.1-1.6-8.3-2.5-12.4
	c-0.5-2.3-1.2-4.4-1.7-6.7c-0.9-3.5-1.6-7-2-10.5c0-0.2-0.1-0.6-0.1-0.7c0-0.3-0.1-0.6-0.1-0.9c4.7-0.4,9.3-1.2,13.9-2.3
	c7.1-1.7,14.1-4.2,20.2-8.4c6.1-4.1,11.4-9.2,16.6-14.4c4.7-4.7,9.6-9.4,13.9-14.5c5.2-6.1,9.4-12.7,12.2-20.2
	c2.7-7.4,3.9-15.4,4.7-23.1C708.6,310.6,708.6,303,708.3,295.5z M440.1,417.8c0.2-0.3,0.4-0.5,0.6-0.8c0.2-0.3,0.5-0.6,0.7-0.9
	C441,416.6,440.5,417.2,440.1,417.8z M489.2,447.4C489.3,447.4,489.3,447.4,489.2,447.4C490,447.9,490.7,448.5,489.2,447.4z
	 M499.6,406c-0.4-0.4-0.7-0.8-1.1-1.2c0,0,0,0,0,0c0.4,0,0.7,0,1.1,0.1c0.4,0,0.9,0.1,1.3,0.1C500.5,405.3,500.1,405.6,499.6,406z
	 M607.4,341.8c0,0.1-0.1,0.1-0.2,0.2c0.1-0.6,0.1-1.2,0.2-1.9C607.4,340.7,607.4,341.3,607.4,341.8z M647.3,256.1
	c0.1-0.1,0.2-0.2,0.3-0.3c0.1-0.1,0.3-0.2,0.4-0.4C647.7,255.7,647.4,255.9,647.3,256.1z"/>
<path class="st1" d="M653.5,255.2c0.1,0,0.1,0,0.2,0c-0.1-0.1-0.2-0.1-0.3-0.2C653.4,255.1,653.4,255.1,653.5,255.2
	C653.5,255.2,653.5,255.2,653.5,255.2z"/>
<path class="st1" d="M606.9,282.5c-0.8,0.4-0.7,0.5-0.4,0.3C606.6,282.7,606.7,282.6,606.9,282.5
	C606.8,282.5,606.8,282.5,606.9,282.5z"/>
<path class="st1" d="M549.2,402.4c-0.2,0-0.3,0-0.5,0.1c-0.5,0.1-1.1,0.1-1.7,0.2C547.7,402.6,548.4,402.5,549.2,402.4z"/>
<path class="st1" d="M653.4,255.1C653.4,255.1,653.4,255.1,653.4,255.1c0.1,0.1,0.1,0.1,0.1,0.1
	C653.4,255.2,653.4,255.1,653.4,255.1C653.4,255.1,653.4,255.1,653.4,255.1z"/>
<path class="st1" d="M705.6,295.5c-0.3-7.1-0.9-14.3-1.6-21.4c-0.7-7.5-1.5-15.2-3.9-22.3c-0.7-2.1-1.5-4.2-2.4-6.2
	c-1-2.3-4.5-4.3-6.9-4c-2.6,0.3-5.1,0.8-7.3,2.4c-1.8,1.2-3.3,2.6-4.7,4.2c-1.8,2.1-3.4,4.5-5.5,6.4c-0.1,0.1-0.1,0.1-0.2,0.1
	c-0.5,0.2-0.9,0.2-1.4,0.3c-3,0.3-6,0.1-9,0.1c-2.8,0-5.7,0.4-8.6,0.2c-0.1,0-0.2-0.1-0.4-0.1c0,0,0.1,0.1,0.1,0.1c0,0-0.1,0-0.1,0
	c-0.1,0-0.1-0.1-0.1-0.1c0,0,0,0,0,0c0,0,0,0,0,0c0,0,0,0,0,0c0,0,0,0,0,0l0,0h0c0,0,0,0,0-0.1c-0.1,0-0.1-0.1-0.2-0.1
	c0.1,0,0.1,0,0.2,0c-0.2-0.3-0.3-0.5,0,0c0,0,0,0,0,0c-0.5-0.9-1.1-1.8-1.6-2.7c-1.9-3.4-4.1-7.7-8.2-8.8c-7.2-1.9-11.4,5.9-14.5,11
	c-2.5,4.1-4.5,8.5-7.4,12.3c0,0-0.1,0.1-0.1,0.1c-0.3,0.4-0.7,0.9-1,1.3c-0.7,0.9-1.4,1.8-2.2,2.6c-1.5,1.8-3.1,3.5-4.7,5.2
	c-1.5,1.6-3.1,3.1-4.8,4.6c-0.7,0.6-1.4,1.2-2.1,1.8c0,0,0,0,0,0c0,0,0,0-0.1,0c-0.1,0-0.1,0.1-0.2,0.2c-0.1,0-0.1,0.1-0.2,0.1
	c0,0,0,0-0.1,0c-0.3,0.2-0.6,0.4-0.9,0.6c-0.4,0.2-0.7,0.4-1.1,0.6c-0.1,0.1-0.2,0.1-0.4,0.2c-0.8,0.3-1.5,0.6-2.3,0.9
	c-0.9,0.3-1.8,0.6-2.6,0.8c-6.2,0.4-12,2.7-17.8,4.9c-2.8,1-5.6,2-8.6,2.5c-4.4,0.5-8.7,0.8-13.1,1.1c-5.2,0.4-10.4,0.8-15.6,1.1
	c-10.4,0.7-20.8,1.2-31.2,1.1c-8.9-0.1-17.8-0.3-26.7,0.2c-0.2,0-0.5-0.1-0.7-0.1c-7.2-1-14.7-1.8-21.8,0.4
	c-2.7,0.2-5.5,1.5-7.7,2.8c-1.9,1.1-3.8,2.6-5.3,4.2c-1.4,1.5-2.6,3.1-3.7,4.8c-1.2,1.6-2.3,3.2-3.2,5c-1.7,3.3-3.1,6.8-3.6,10.5
	c-0.3,2.3-0.7,4.6-0.6,7c0,0.1,0,0.1,0,0.2c-0.4,2.5-0.8,5.1-1.2,7.6c-0.6,3.7-1.2,7.4-2.5,10.8c-0.8,1.7-1.7,3.2-2.8,4.7
	c-2.5,3.1-5.5,5.7-8.6,8.1c-7.6,5.8-15.6,11.4-23.3,17.1c-9.3,6.9-19,14.3-25.5,24c-3,4.4-5.1,9.3-8.3,13.6c-2.8,3.4-6.5,5.9-9.6,9
	c-4.5,4.3-8.4,9.8-8.3,16.3c0,2.6,1.5,6,4.1,7.1c2.5,1.1,4.7,1.8,7.5,1.9c1.9,0.1,4-0.3,5.8-0.9c2.8-0.9,5.4-2.3,8.1-3.5
	c2.3-0.9,4.7-1.5,7.1-1.9c5-0.5,10-0.5,15-0.9c5.6-0.4,11.3-1.1,16.8-2.4c9.9-2.3,19.6-6.7,27.8-12.9c7.9-6,14.6-13.5,18.6-22.7
	c1.9-4.5,3.6-8.9,4.6-13.6c0.6-2.8,1.1-5.6,1.6-8.4c0,0.1,0.1,0.1,0.1,0.2c0.3,0.4,0.6,0.9,0.8,1.3c0.5,0.9,1,1.8,1.5,2.7
	c0.9,1.9,1.8,3.8,2.7,5.7c3.3,7,7.8,13.5,12.9,19.3c0.2,0.2,0.4,0.4,0.6,0.6c-0.8,0.6-1.5,1.2-2.3,1.8c-2,1.7-3.9,3.7-5.2,6
	c-0.8,1.3-1.4,2.8-1.8,4.3c-0.6,2.5-0.4,4.2-0.1,6.7v0c0.3,3.1,2,6,4.1,8.2c2,2.2,4.4,3.8,6.7,5.5c0.7,0.6,1.4,1.2,2,1.8
	c1.6,1.5,3.1,3.2,4.5,4.9c2.8,3.3,5.4,6.7,8.6,9.6c2.4,2.2,5,3.3,8.1,4.3c3.1,1,6.4,1.5,9.6,1.9c2.9,0.3,6.1,0.3,8.8-0.7
	c2.5-1,4.7-2.4,6-4.8c1.9-3.4,1.4-7.8-1.4-10.5c-3.1-3-7.4-3.2-11.4-3.6c-0.1,0-0.2-0.1-0.3-0.1c-0.2-0.1-0.3-0.2-0.5-0.3
	c-0.2-0.1-0.3-0.2-0.5-0.3c-1-0.9-2-1.8-2.9-2.9c-0.9-1-1.7-2.1-2.6-3.1c-0.1-0.2-0.2-0.3-0.4-0.5c-0.7-0.9-1.4-1.8-2.1-2.7
	c-1.4-1.8-2.9-3.4-4.3-5.2c-0.1-0.1-0.2-0.3-0.3-0.4c-0.1-0.2-0.4-0.6-0.6-0.8c0.3,0,0.7,0.1,1.1,0.1c1.9,0.2,3.9,0.4,5.8,0.3
	c5.4-0.2,10.3-1.8,14.4-5.4c7.6-6.8,8.1-17.5,10-27c0.1,0,0.2,0,0.3,0c1.3,0.9,2.8,1.4,4.4,1.3c2-0.1,3.9-0.3,5.8-0.5
	c8.1-1.2,16-3.2,24-4.4c6.4-0.8,12.9-0.9,19.3-0.4c1.7,0.6,3.3,1.2,5,1.6c0.5,0.1,1.1,0.2,1.6,0.3c0.9,1.7,1.8,3.5,2.6,5.3
	c0.2,0.4,0.3,0.7,0.5,1.1c0,0.1,0.1,0.3,0.2,0.4c0,0.1,0.1,0.2,0.1,0.2c0.2,0.4,0.3,0.9,0.5,1.3c0.5,1.4,1.1,2.7,1.6,4.1
	c1.7,4.3,3.2,8.6,4.1,13.1c1.2,5.8,2.3,11.8,4.4,17.4c0.1,0.4,0.3,0.8,0.5,1.2c0.2,2,0.6,3.9,1.1,5.8c1.8,6.3,5.7,12.9,12.7,14.3
	c4.6,0.9,9.5-0.3,13.4-2.9c2.5-1.7,3.9-4.3,3.5-7.4c-0.3-2.7-2.4-5.6-5.3-6.1c-0.2,0-0.5-0.1-0.7-0.1c0.6,0.2,0.1,0.2-0.3,0
	c-0.1-0.1-0.2-0.1-0.2-0.1c0,0,0,0,0,0c-0.2,0-0.3-0.1-0.5-0.2c0.1,0,0.3,0.1,0.4,0.1c-0.2-0.1-0.4-0.2-0.7-0.4
	c-0.3-0.3-0.7-0.7-1-1c0.4,0.4-0.2-0.2-0.5-0.6c-0.1-0.1-0.2-0.2-0.2-0.3c0.1,0.1,0.2,0.2,0.2,0.2l0,0c-0.3-0.5-0.6-1-0.9-1.5
	c-0.3-0.4-0.5-0.9-0.7-1.4c-0.1-0.1-0.1-0.3-0.2-0.4c-0.4-0.9-0.7-1.9-1-2.9c-0.7-2.2-1.3-4.5-1.8-6.7c-0.9-4.1-1.6-8.3-2.5-12.4
	c-0.5-2.3-1.2-4.4-1.7-6.7c-0.9-3.5-1.6-7-2-10.5c0-0.2-0.1-0.6-0.1-0.7c0-0.3-0.1-0.6-0.1-0.9c4.7-0.4,9.4-1.2,13.9-2.3
	c7.1-1.7,14.1-4.2,20.2-8.4c6.1-4.1,11.4-9.2,16.6-14.4c4.7-4.7,9.6-9.4,13.9-14.5c5.2-6.1,9.4-12.7,12.2-20.2
	c2.7-7.4,3.9-15.4,4.7-23.1C705.9,310.6,706,303,705.6,295.5z M437.4,417.8c0.2-0.3,0.4-0.5,0.6-0.8c0.2-0.3,0.5-0.6,0.7-0.9
	C438.3,416.6,437.9,417.2,437.4,417.8z M486.5,447.4C486.6,447.4,486.6,447.4,486.5,447.4C487.3,447.9,488,448.5,486.5,447.4z
	 M496.9,406c-0.4-0.4-0.7-0.8-1.1-1.2c0,0,0,0-0.1,0c0.4,0,0.7,0,1.1,0.1c0.4,0,0.9,0.1,1.3,0.1C497.8,405.3,497.4,405.6,496.9,406z
	 M604.7,341.8c-0.1,0.1-0.1,0.1-0.2,0.2c0.1-0.6,0.1-1.2,0.2-1.9C604.7,340.7,604.7,341.3,604.7,341.8z M644.6,256.1
	c0.1-0.1,0.2-0.2,0.3-0.3c0.1-0.1,0.3-0.2,0.4-0.4C645,255.7,644.7,255.9,644.6,256.1z"/>
<path class="st2" d="M689.8,297.8c-5.3-4.3-24.9,0.9-34,4c-3.3,12.7-2,24.8,16,26.1c18,1.3,20-3.3,22.7-7.4
	C697.2,316.5,696.5,303.1,689.8,297.8z"/>
<path class="st1" d="M635.5,445.6c-0.1-0.1-0.3-0.3-0.6-0.6c0,0,0,0,0,0C635.1,445.2,635.3,445.4,635.5,445.6z"/>
<path class="st1" d="M637.9,447.4c-0.1-0.1-0.4-0.1-0.7-0.2c0,0,0.1,0,0.1,0.1C637.5,447.3,637.7,447.3,637.9,447.4z"/>
<path class="st3" d="M648.6,262.5c-0.4-1.6-1-3.1-1.6-4.7c-1.2-3-2.5-5.9-3.9-8.9c-0.2-0.5-1-0.8-1.5-0.6c-0.6,0.1-1.2,0.4-1.8,0.7
	c-1.2,0.5-1.2,2.7,0.3,2.5c0.3,0,0.7-0.1,1-0.2c0.6,1.5,1.2,3,1.9,4.5c-0.1,0-0.1,0.1-0.2,0.1c-0.5,0.5-0.2,0.3-0.8,0.1
	c-0.5-0.1-1.1-0.2-1.7-0.1c-1.3,0.1-2.5,1.2-3.4,2.1c-0.7,0.8-0.9,1.7-0.5,2.6c0,0.1,0.2,0.5,0.2,0.4c0,0.3,0,0.7,0,1
	c-0.4,3.5,0.1,9.5,5.1,8.7c0.5-0.1,1-0.6,1.1-1.1c0,0,0-0.1,0-0.1c0.5,0.1,1-0.1,1.3-0.5c0.1-0.1,0.2-0.2,0.3-0.4
	c0.5,0.1,0.9,0,1.3-0.3c0.7-0.1,1.4-0.4,1.7-1.2c0,0,0-0.1,0-0.1c0.4,0.1,0.9,0,1.1-0.4C649.5,265.5,649,263.8,648.6,262.5z"/>
<path class="st3" d="M690.7,247.5c0-0.1-0.1-0.1-0.2-0.2c0.1-0.1,0.2-0.2,0.2-0.3c0.3-0.5-0.2-1.3-0.8-1c-0.4,0.1-0.7,0.4-1.1,0.6
	c-0.6,0-1.1,0.3-1.4,0.9c-0.1,0.3-0.3,0.6-0.4,0.9c-0.1,0.1-0.2,0.2-0.2,0.3c-0.6,0.7-1.1,1.4-1.5,2.2c-0.5,0.1-0.9,0.5-0.9,1
	c0,3.1,2.9,4.9,5.7,5.1c0.9,0,1.5-0.8,1.6-1.6C691.8,252.9,692.3,249.7,690.7,247.5z"/>
<path class="st4" d="M664.9,286.6c-2.6-5.1-9-6.7-14.3-5.6c-1.3,0.3-1.2,1.9-0.2,2.4c0.1,0.3,0.2,0.5,0.4,0.8
	c3.1,3.5,7.9,5.6,12.6,5.1C664.7,289.1,665.5,287.9,664.9,286.6z"/>
<path class="st4" d="M690.7,281.1c-0.1-1.4-1.6-2-2.6-1.5c-0.2,0-0.3,0.1-0.5,0.2c-3,2-5.9,5.4-5.1,9.3c0.2,1,1.6,1.6,2.5,1
	C687.9,288.2,690.8,284.7,690.7,281.1z"/>
<path class="st2" d="M679.3,293.4c-0.2-0.5-0.4-1-0.6-1.6c-0.3-1.1-0.6-2.1-0.9-3.2c-0.2-0.8-1.2-0.7-1.5,0
	c-0.5,1.4-0.6,2.7-0.1,4.1c0.2,0.6,0.5,1.2,0.9,1.8c0.4,0.6,0.8,0.7,1.5,1c0.4,0.1,0.9-0.2,0.8-0.6
	C679.4,294.2,679.5,293.9,679.3,293.4z"/>
<path class="st4" d="M691.2,317.3c-0.8,0.3-1.3,0.9-1.9,1.4c-0.8,0.7-1.6,1.3-2.4,1.9c-0.1,0.1-0.3,0.2-0.4,0.3c0-0.2,0-0.5,0.1-0.7
	c0.1-1.4,0.1-2.8-0.1-4.3c0.1,0,0.3-0.1,0.5-0.1c0.2-0.1,0.4-0.2,0.6-0.3c0.1-0.1,0.3-0.1,0.4-0.2c0.3-0.2,0.5-0.4,0.8-0.6
	c0,0,0,0,0,0c0-0.1,0.1-0.1,0.2-0.2c0.1-0.1,0.2-0.2,0.2-0.4c0,0,0-0.1,0-0.1c0.3-0.4,0.5-0.8,0.7-1.2c0.1-0.2,0.2-0.4,0.2-0.7
	c0.1-0.3,0.1-0.7,0.2-1.1c0-0.2,0-0.4,0-0.6c0-0.3-0.1-0.6-0.2-0.9c-0.2-0.4-0.3-0.8-0.6-1.1c-0.2-0.1-0.3-0.3-0.5-0.4
	c-0.2-0.1-0.4-0.2-0.6-0.3c-0.1-0.1-0.2-0.1-0.3-0.1c-0.2-0.1-0.5-0.1-0.7-0.1c-0.4,0-0.8,0-1.3,0.1c-0.3,0.1-0.6,0.1-0.9,0.3
	c-0.1,0-0.1-0.1-0.2-0.1c-0.2-0.1-0.5-0.2-0.7-0.2c-0.5,0-1,0.2-1.4,0.6c-0.3,0.4-0.6,0.9-0.6,1.4c0,0.1,0,0.3,0,0.4
	c0,0.2,0,0.4,0,0.6c0,0.1,0,0.2,0,0.3c0.1,0.5,0.1,1.1,0.2,1.6c0.1,0.4,0.3,0.9,0.5,1.3c0.1,0.2,0.2,0.4,0.3,0.6
	c0.1,0.2,0.3,0.4,0.5,0.6c0.2,0.2,0.4,0.3,0.6,0.5c0,0,0,0,0.1,0.1c-0.1,0.1-0.2,0.3-0.2,0.6c0,1.3,0,2.6-0.1,3.9
	c-0.1,0.7-0.3,1.5-0.3,2.3c-4,0.9-7.9-0.2-11.6-1.7c-2-0.8-3.8-1.7-5.7-2.7c-0.9-0.4-1.8-0.9-2.7-1.3c-0.8-0.4-1.6-0.9-2.5-0.7
	c-0.5,0.1-0.8,0.7-0.6,1.1c0.3,0.9,1.2,1.4,2,1.9c0.9,0.6,1.8,1.2,2.8,1.8c2.1,1.1,4.2,2.1,6.4,3c4,1.5,8.8,2.7,12.9,0.9
	c0.3-0.1,0.5-0.4,0.6-0.8c0.2-0.2,0.3-0.3,0.4-0.5c0.8-0.5,1.6-1,2.3-1.6c1.2-0.9,3.3-2.1,3.7-3.6
	C691.9,317.6,691.6,317.2,691.2,317.3z M686.8,310.5c0.1,0,0.2,0,0.3,0c0,0.1,0,0.2-0.1,0.3c-0.1,0.2-0.2,0.4-0.3,0.5
	c0.1-0.1,0.2-0.2,0.3-0.3c-0.2,0.2-0.3,0.4-0.4,0.6c0,0,0,0,0,0.1c0,0,0,0,0,0c0,0,0,0-0.1,0c-0.1-0.3-0.1-0.6-0.2-0.9
	c0-0.1,0-0.1,0-0.1C686.4,310.6,686.6,310.5,686.8,310.5z"/>
<path class="st3" d="M649,347.9c-4.3-3-9-5.4-13.2-8.5c-4.2-3.1-8.1-6.7-11.3-10.8c-2.1-2.7-4.1-5.5-6-8.4c-2.2-3.2-4.3-6.4-6.1-9.8
	c-0.9-1.7-1.7-3.4-2.2-5.2c-0.3-1.2-0.6-2.6-0.1-3.8c0.3-0.8-0.9-1.2-1.3-0.5c-1.6,2.4-0.4,5.8,0.6,8.2c1.6,3.7,3.8,7.2,6,10.6
	c1.9,2.8,3.8,5.5,5.7,8.2c3.2,4.4,7,8.3,11.3,11.7c2.4,1.9,4.8,3.6,7.4,5.3c2.7,1.7,5.4,3.5,8.3,4.7C649.2,350,650,348.7,649,347.9z
	"/>
<path class="st3" d="M672.2,361c-0.5-0.7-1.3-0.8-2.1-1c-1-0.2-2-0.7-2.9-1.2c-1.8-0.9-3.4-1.9-5.5-1.8c-0.6,0-1,0.9-0.3,1.2
	c1.9,0.9,3.7,2.1,5.6,3.1c1.3,0.6,4.4,2,5.2,0.2C672.3,361.3,672.3,361.1,672.2,361z"/>
<path class="st3" d="M622.8,387.8c-0.3-1.3-0.7-2.5-1.1-3.8c-0.7-2.5-1.6-4.9-2-7.5c-0.1-0.9-1.6-0.7-1.6,0.2
	c0.1,2.6,0.4,5.3,1.1,7.8c0.3,1.2,0.7,2.4,1.1,3.6c0.4,1.1,0.8,2.6,1.6,3.4c0.4,0.4,1.1,0.2,1.2-0.3
	C623.4,390.1,623,388.8,622.8,387.8z"/>
<path class="st3" d="M463.3,375.9c-0.5-1.6-1.6-3.2-2.4-4.7c-1-1.9-2-3.8-2.9-5.7c-1.6-3.5-3-7.5-2.7-11.4c0.1-1.1-1.7-1.3-1.9-0.2
	c-0.6,4.2,0.6,8.2,2.2,12c0.9,2,1.8,4,3,5.9c1,1.6,2.1,3.6,3.6,4.8C462.6,377,463.5,376.6,463.3,375.9z"/>
<path class="st3" d="M374.1,425.3c0,0,0,0.1,0,0.1C374.2,425.4,374.2,425.3,374.1,425.3z"/>
<path class="st3" d="M498.9,424.7c-0.2,0-0.2,0.3,0,0.3C499,424.9,499,424.7,498.9,424.7z"/>
<path class="st3" d="M538,388.9c-0.3-2.6-0.9-5.1-1.6-7.7c-1.5-5-3.9-9.5-7.4-13.3c-0.5-0.5-1.4,0.2-1,0.7c2.8,4,5.1,8.6,6.4,13.3
	c0.7,2.4,1.2,4.8,1.5,7.3c0.3,2.5,0.3,5.1,0.5,7.7c0.1,1.3,1.9,1.3,2,0C538.7,394.2,538.4,391.5,538,388.9z"/>
<path class="st3" d="M593.5,394c-0.5-0.6-0.9-1.3-1.2-2c-0.8-1.5-1.4-3.2-2-4.8c-1.1-3.2-2.1-6.4-3.4-9.5c-0.3-0.9-1.8-0.5-1.5,0.4
	c1.2,3.3,1.7,6.9,2.8,10.2c0.5,1.7,1.2,3.4,2,4.9c0.5,1.1,1.6,3.6,3.1,3.4c0.4,0,0.9-0.3,0.9-0.7C594.4,395.1,594,394.7,593.5,394z"
	/>
<path class="st3" d="M623.2,302.4c-0.9-1.6-1.8-3.2-2.6-4.8c-1.6-3.1-3-6.5-2.6-10c0.1-0.9-1.5-1.2-1.7-0.2
	c-0.5,3.6,0.4,7.2,1.9,10.5c0.8,1.7,1.7,3.4,2.6,5c0.4,0.8,0.9,1.6,1.5,2.3c0.5,0.7,0.9,1.6,1.6,2c0.5,0.2,1-0.1,1-0.6
	C625,305.3,623.7,303.5,623.2,302.4z"/>
<path class="st3" d="M626.1,297.4c-0.6-1.5-1.2-3-1.7-4.5c-0.5-1.5-1-3-1.4-4.5c-0.4-1.6-1-3.3-1.2-4.9c-0.1-0.6-0.9-0.6-1,0
	c-0.1,1.6-0.2,3.2,0,4.8c0.3,1.6,0.8,3.3,1.3,4.8c0.5,1.5,1.1,3,1.7,4.5c0.6,1.5,1.1,3.3,2.1,4.7c0.4,0.6,1.6,0.5,1.5-0.4
	C627.3,300.3,626.7,298.8,626.1,297.4z"/>
<path class="st2" d="M660.1,266.3c-0.1-2.8-1.1-5.3-1.6-8c-0.1-0.5-0.8-0.3-0.8,0.1c-0.1,2.3,0.6,4.4,0.8,6.7
	c0.1,1.1,0.1,2.3-0.3,3.4c-0.5,1.1-1.5,1.7-2.2,2.6c-0.3,0.3-0.1,0.9,0.4,0.9C659.1,272.1,660.2,268.7,660.1,266.3z"/>
<path class="st3" d="M464.6,308.3c-4.2-1.3-8.4,2.2-10.4,5.7c-1,1.8-1.7,3.9-2.2,5.9c-0.3,1.1-0.5,2.2-0.7,3.3
	c-0.2,1-0.6,2.3-0.1,3.2c0.3,0.6,1.1,0.6,1.6,0.2c0.7-0.6,0.7-1.8,0.9-2.6c0.2-0.9,0.4-1.9,0.6-2.9c0.4-1.9,1-3.7,1.9-5.4
	c0.8-1.5,1.8-2.9,3.3-3.9c0.7-0.5,1.6-0.9,2.4-1.1c1-0.3,2-0.6,3-1C465.4,309.3,465.1,308.4,464.6,308.3z"/>
<path class="st3" d="M656.5,383.2c0-0.6-0.7-1-1.2-0.7c-0.9,0.6-1.5,1.8-2.1,2.7c-0.7,1.1-1.7,2-2.7,2.9c-0.5,0.4,0.2,1.4,0.8,1
	c1.1-0.8,2.3-1.7,3.3-2.6C655.5,385.8,656.6,384.5,656.5,383.2z"/>
<path class="st4" d="M522.8,463.3c-0.1-0.4-0.3-0.8-0.7-1.2c-0.2-0.1-0.3-0.3-0.5-0.4c-0.4-0.2-0.8-0.3-1.3-0.4
	c-0.4,0-0.7,0.1-1,0.2c-0.3,0.1-0.6,0.3-0.8,0.5c-0.2,0.2-0.4,0.5-0.5,0.8c-0.2,0.3-0.2,0.6-0.2,1c0,0.2,0.1,0.5,0.1,0.7
	c0.1,0.4,0.3,0.8,0.7,1.2c0.2,0.1,0.3,0.3,0.5,0.4c0.4,0.2,0.8,0.3,1.3,0.4c0.4,0,0.7-0.1,1-0.2c0.3-0.1,0.6-0.3,0.8-0.5
	c0.2-0.2,0.4-0.5,0.5-0.8c0.2-0.3,0.2-0.6,0.2-1C522.8,463.7,522.8,463.5,522.8,463.3z"/>
<path class="st4" d="M526.8,459.9c-3,0-3,4.6,0,4.6S529.7,459.9,526.8,459.9z"/>
<path class="st4" d="M532.9,455.3c-0.9-1.2-2.7-1.3-3.8-0.2c-0.5,0.5-0.7,1.1-0.7,1.8c0,0.4,0.1,0.9,0.3,1.3
	c0.1,0.2,0.3,0.4,0.5,0.6c0.1,0.2,0.3,0.4,0.5,0.5c0.5,0.3,1,0.3,1.5,0.1c0.3,0,0.6-0.1,0.9-0.3c0.5-0.3,1-0.9,1.2-1.5
	C533.6,456.7,533.4,455.9,532.9,455.3z"/>
<path class="st4" d="M628.3,456.7c-3.2,0-3.2,5,0,5C631.5,461.7,631.6,456.7,628.3,456.7z"/>
<path class="st4" d="M633.7,456.2c-3.2,0-3.2,4.9,0,4.9C636.9,461.1,636.9,456.2,633.7,456.2z"/>
<path class="st4" d="M638.4,453.8c-3.1,0-3.1,4.9,0,4.9S641.6,453.8,638.4,453.8z"/>
<path class="st3" d="M633.1,446.7c-1.9,0-4,0.6-5.9,1c-2,0.4-3.9,1.1-5.7,2.1c-0.6,0.3-0.2,1.4,0.5,1.2c2-0.7,4.1-1,6.2-1.3
	c1.9-0.3,3.9-0.5,5.4-1.8C634,447.4,633.6,446.7,633.1,446.7z"/>
<path class="st3" d="M520.3,453.1c-0.1-0.3-0.5-0.6-0.8-0.5c-0.7,0.2-0.9,0.7-1.5,1.1c-0.6,0.4-1.2,0.7-1.8,1
	c-1.4,0.7-2.7,1.4-3.8,2.5c-0.8,0.8,0.3,2.4,1.3,1.7c1.4-1,3-1.6,4.4-2.5C519.1,455.9,520.7,454.4,520.3,453.1z"/>
<path class="st3" d="M696.3,257.5c-0.1-1-0.1-2-0.1-3c-0.1-2-0.1-4.2-1.1-5.9c-0.4-0.7-1.7-0.4-1.6,0.4c0.2,2.2,0.2,4.4,0.4,6.6
	c0.1,1.5,0.3,4.5,1.9,5.3c0.4,0.2,0.8,0,1-0.4C697,259.4,696.4,258.5,696.3,257.5z"/>
<path class="st5" d="M744.8,290c-52.1-104.3-149.3-118.3-150.4-111.5c-31.4,188,135.1,247.9,138.4,241.2
	C737.3,409.9,771,342.7,744.8,290z"/>
<path class="st6" d="M509.2,12.5c0,2.1,0,3.9,0,6c1.8,0,3.6,0,5.4,0c1.6,0,3.4-0.5,4.9-0.5c0.3-2.3,0.5-4.7,0.5-6.7
	C516.7,12.3,512.8,12.5,509.2,12.5z"/>
<path class="st6" d="M519.8,6.8c0-0.5,0-0.8,0-1.3h-6c-1.8,0.3-3.4,0.5-5.2,0.8c0,0.8,0,1.3,0.3,2.1C512.8,8.1,516.2,7.3,519.8,6.8z
	"/>
<path class="st6" d="M509.2,22.6c0,2.1,0,3.9,0,6c1.3,0,2.3,0.3,3.4,0.3c2.1,0,3.9-0.3,6,0c0,0,0,0,0.3,0c0-1.8,0.3-3.9,0.3-5.7
	c0-0.3,0-0.8,0-1C516.2,23.1,512.5,23.1,509.2,22.6z"/>
<path class="st6" d="M518.3,37.4c0-1.3,0-2.9,0.3-4.1c-1.8,0.5-3.9,0.5-5.7,0.5c-1.3,0-3.9-0.3-3.9-0.5c0,2.1,0,4.1,0,6
	c0-0.3,3.9-0.5,5.7-1C515.7,38.2,517.2,37.7,518.3,37.4z"/>
<path class="st6" d="M512.8,49.3c1.6,0.3,3.1,0,4.7,0c0-2.3,0.3-4.4,0.3-6.7c-2.9,0.8-6.5,0.8-9.1,0.8v0.3
	C508.9,47.8,507.6,49.1,512.8,49.3z"/>
<path class="st7" d="M625.6,344.5c-31.9-49.3-45.9-110.7-32.9-167.3c-14-3.1-28.5-5.4-42.8-7.3c-1.8-0.3-3.6-0.5-5.7-0.5
	c-11.7-1.3-23.1-2.1-34.5-2.9c-34.2-1-68.4-2.9-102.7-2.3c-45.6,0.8-91.5,4.9-135.3,17.4c-1.8,0.5-3.4,1-5.2,1.6
	c-10.1,3.1-20.2,6.5-30.3,10.4c-27,10.6-52.4,25.4-74.9,43.6c-22.8,18.7-40.4,41.8-60.7,62.8c-4.1,4.4-8.3,10.1-13.7,12.7
	c-4.9,2.3-10.9,1.6-16.1,1.8c-4.7,0-9.1,0.3-13.7,0.3c0,0.5,0,1-0.3,1.3c-0.8,10.4-1,22,1.3,32.2c1.3,5.4,2.9,10.9,4.4,16.3
	c10.1,0.8,20,6,27.7,12.7c9.6,8.3,17.9,18.4,26.2,28.3c28.5,27.8,57.6,54.2,90.2,77c18.4,12.7,37.1,22.3,59.1,27
	c32.9,7.3,67.1,6,100.6,7.5c16.1,0.8,32.1,1.6,48.2,2.1c32.1,1,64.3,1.6,96.2,1.3c30.1,0,60.7,0.5,90.5-3.1
	c51.3-5.7,97.7-51.9,125.2-93.1C680,401.6,654.1,388.6,625.6,344.5z"/>
<path class="st8" d="M62.5,365.8c-2.1-8.3-7.3-27.2-6.7-42.3c13.7,2.9,19.7,2.3,31.4,10.1c23.6,16.1,33.2,35.3,51.6,58.1
	c31.1,37.9,71,70.5,118,86.4c69,23.3,303.1,27.5,349,20.5c25.9-3.9,53.1-11.4,77.5-17.4c-1.3,14-11.4,24.6-22.3,32.4
	c-37.1,26.7-84.3,34.8-128.6,38.9c-65.6,6.2-131.7,3.9-197.5-1.6C274.8,546,197,536.7,147,499.6c-38.4-28.3-48.5-66.7-69.7-105.8
	C72.3,383.9,65.1,375.1,62.5,365.8z"/>
<path class="st9" d="M484.8,111.3c-0.8-16.9,0.8-34.2,1.8-50.8c0.8-9.9,3.9-26.5,17.4-21.8c-0.3-7-0.5-14.3-0.3-21.5
	c-0.3,0-0.3,0-0.5,0c-25.4-8-36,23.3-36.8,42.3c-0.5,17.1,1,34.2,1,51.4C473.4,110.8,479.1,111.1,484.8,111.3z"/>
<path class="st9" d="M351.6,72.2c1.3,0.3,7,0.3,13.7,0c1.3,0,2.6,0,3.6-0.3c2.9,0,5.7-0.3,8.3-0.3c1.6,0,3.1-0.3,4.4-0.3
	c3.6-0.3,6.5-0.5,8.3-1c2.1-0.5,9.3-2.1,10.4-3.6c1-5.7-18.4-4.9-21.3-4.9c-6.5,0.3-30.6-0.5-31.9,4.9
	C345.8,68.5,347.7,72.2,351.6,72.2z"/>
<path class="st9" d="M373.6,113.9c22-2.1,44.1-3.1,66.1-3.4c-7.3-25.2-49.8-22.8-70.5-20.7c-0.3,0-0.5,0-0.5,0c-1,0-2.1,0.3-3.4,0.3
	c-12.4,1-27,2.6-36.6,10.9c-6.7,5.7-10.1,13-11.7,21c4.4-1,8.8-1.8,13.2-2.3C344.8,117,359.1,115.2,373.6,113.9z"/>
<path class="st9" d="M369.2,84.1c1.3,0,2.3-0.3,3.6-0.3c1.3,0,2.6-0.3,3.9-0.3c0-2.6,0-5.2,0-7.8c-2.3,0-4.9,0-7.8,0
	C369.2,78.6,369.2,81.2,369.2,84.1z"/>
<path class="st9" d="M5.2,342.7c1.3,3.6,13,7.8,16.1,8.8c2.1,0.8,4.4,1.6,6.7,2.1c0.3-0.5,0.3-1,0.5-1.6c0-0.3,0-0.3,0.3-0.5
	c1.3-7.8,0.3-14.8-2.1-22C17.6,332.3,3.1,337,5.2,342.7z"/>
<path class="st7" d="M506.8,118.1c-5.7-0.8-11.7-1.6-17.6-1.8c-1.6,0-2.9-0.3-4.4-0.3c-5.7-0.3-11.7-0.5-17.6-0.8
	c-1.6,0-3.4,0-4.9,0c-5.7,0-11.4,0-17.1,0c-1.6,0-3.1,0-4.9,0c-10.1,0.3-20,0.5-29.8,1c-30.9,1.6-62.7,3.6-92.8,10.4
	c-0.5,0-1.3,0.3-1.8,0.5c-1.6,0.3-3.1,0.8-4.7,1.3c-12.4,3.6-23.6,10.1-30.6,22c-4.9,8.6-7,18.2-9.1,27.8
	c77.3-21.3,162.3-18.9,241.1-14.3c0.5,0,1,0.3,1.3,0.8c9.6,0,19.2,0.5,28.8,1.3C541.3,143,533.5,121.7,506.8,118.1z"/>
<path class="st10" d="M60.2,368.4c-0.3-1-0.3-2.1-0.5-3.1c0,0,0,0,0-0.3c-1-6.7-3.9-15.6-4.7-22.3c-1-9.1-1.8-18.4-1.3-27.5
	c0-0.8,0-1.6,0.3-2.3c0.3-3.6,0.8-7.3,1.3-10.9c2.3-11.7,8.3-27.5-7.3-32.9c-6.7-2.3-18.4-1-25.1,1.3c-23.9,8.8-2.9,37.6,3.9,51.4
	c0.8,1.3,1.3,2.9,2.1,4.4c0.3,0.8,0.8,1.8,1,2.6c2.9,8.3,4.4,17.6,1.6,25.7c-0.3,1-0.8,1.8-1.3,2.9c0,0.3,0,0.3-0.3,0.5
	c-2.9,9.6-11.1,17.9-13.5,28c-1.6,5.7-3.1,14.8,0,20.2c4.1,7.3,21,6.5,28,6.2c6.7-0.3,15.3-1.6,18.4-8.6c2.9-6.5,1-15.6,0-22.3
	C61.7,375.9,60.9,372.8,60.2,368.4z"/>
<path class="st10" d="M280,146.9c42.3-3.9,85-1.8,127.8,0c38.1,1.6,85,3.6,119.5,17.9c-86.8-5.7-170.3,0.5-256.7,13.5
	C270.9,167.9,271.4,155.7,280,146.9z"/>
<path class="st8" d="M312.9,122.2c4.7-7.8,4.9-13,14.3-16.6c10.4-3.9,25.4-0.5,36.3,0c26.2,1.6,54.4,1.6,80.4,5.4
	c-26.2-0.3-53.1,1-79.1,3.4c-10.9,1-22,2.1-32.7,3.6C325.6,119.1,312.9,123.8,312.9,122.2z"/>
<path class="st8" d="M30.6,332.3c-2.6-17.9-12.2,16.1-13.5,18.2c6,4.9,10.6,7,14.3,0.8C34,346.3,32.2,336.7,30.6,332.3z"/>
<path class="st11" d="M733.7,422.3c-14.8-6.7-34.2-15.8-51.1-28.5c-10.4-7.8-13.2-9.6-20.7-15.6c-13-10.4-25.4-22.6-29.6-34.2
	c-1-3.4,3.4-5.4,5.2-2.3c10.9,20,50,26.5,68.4,28.5c15.3,1.8,30.9-5.4,45.6-2.6C747.7,388.1,741.2,405.2,733.7,422.3z"/>
<path class="st12" d="M721.3,261.2c-10.1-18.4-28.8-35-44.9-46.2c-14.3-10.1-34.5-22.3-51.6-18.9c-2.3,0.5-3.4,4.1-1,5.4
	c7.8,4.1,16.6,5.2,24.4,8.6c9.6,4.2,18.7,9.6,27,16.1c15.3,11.7,26.4,27.8,40.4,40.7C719,269.8,723.1,264.9,721.3,261.2z"/>
<path class="st13" d="M756.2,327.9C749,261,695.1,209.6,634.9,186c-27.2-10.6-56.3-17.1-85.6-20c-1.3-15.3-4.7-31.4-15.8-42
	c-7.8-7.5-17.9-10.1-28.3-11.4c-5.2-0.5-10.4-1-15.8-1.3c0.3-9.6,0-18.9,0.5-28.5c0.3-6.5-1.3-44.3,12.4-39.2c0.5,0.3,1.3,0.3,1.8,0
	c0,1,0,2.1,0,2.9c0.3,9.3,7.8,7,15.6,7c1.3,0,2.3-0.5,2.6-2.1c0.3-3.9,0.5-7.5,0.5-11.4c0.5-0.5,0.5-1.3,0-2.1
	c0.3-3.1,0.5-6.5,0.5-9.6c0.3-7,2.3-15.8,1.3-22.8c-1-7.8-10.9-5.4-17.4-4.1c-1-0.5-2.3-0.3-2.9,0.8c-0.8,0.8-0.8,1.8-0.3,2.6
	c-0.3,2.3-0.5,4.9-0.5,7.3c-19.7-5.7-36.3,10.9-40.4,29.3c-2.9,12.2-2.1,24.9-1.8,37.1c0.3,10.6,0,21.3,0.5,31.6c-0.5,0-1,0-1.6,0
	c-5.2,0-10.6,0-15.8,0c-5.4-25.2-40.2-27.8-64-27c0.3-2.6,0.5-5.2,0.5-7.8c2.6-0.3,5.2-0.5,7.8-1c4.7-0.8,11.7-0.8,14.3-5.7
	c6.2-11.9-15-12.2-20.7-12.2c-9.9,0-19.7,0.8-29.3,2.6c-4.1,0.8-10.6,1-11.9,6.2c-2.6,10.9,14.5,10.9,23.3,10.1c0,2.9,0,5.7,0,8.6
	c-14.3,1-29.8,3.4-40.4,13c-7,6.5-12.2,16.1-13,25.7c-5.2,1.3-10.1,3.1-14.8,5.7c-19.2,10.1-27.2,30.3-30.3,50.6
	c-34.2,10.1-66.9,24.6-97,46.2c-21,15-40.7,33.2-55.2,54.7c-0.3,0-0.3,0.3-0.5,0.3c-8.6,8.8-16.6,19.7-26.2,27.2
	c-7,5.4-20.2,4.7-30.9,4.7c1.6-9.9,5.2-19.7,4.7-29.6c-0.8-17.9-17.6-19.5-31.9-17.9c-15.6,1.6-24.6,11.9-20.7,27.8
	c2.3,9.3,7.8,17.4,12.2,25.7c1.3,2.9,2.6,5.4,3.6,8c-4.7,1-9.1,3.1-13,5.2C8,332.6-0.3,336.5,0,340.9c0.3,4.7,9.1,8.6,12.2,10.1
	c4.1,2.1,8.6,3.9,13.2,4.9c-3.1,6.7-7.5,12.4-10.6,19.2c-3.1,7-4.7,14.8-4.4,22.3c0.5,14.8,13.2,16.1,25.4,16.6
	c10.4,0.3,26.4-0.3,29.8-12.7c1.8-7,0.5-16.1-0.8-23.1c-0.8-3.6-1.6-7.3-2.6-10.9c12.2,1,22.3,9.1,31.1,18.9
	c34.5,38.4,72.6,72.9,115.4,101.9c19.7,13.5,42.3,21.8,65.8,26.2c30.9,5.7,63.8,4.1,95.1,5.7c17.1,0.8,34.5,1.6,51.6,2.1
	c33.7,1,67.7,1.3,101.4,1c39.1-0.3,80.1,2.9,117.4-11.4c33.2-12.7,61.2-43.1,81.4-72.9c2.6-3.9,4.9-7.5,7.3-11.4
	C748.7,398.4,760.1,363.7,756.2,327.9z M519,23.4c0,1.8-0.3,3.9-0.3,5.7c0,0,0,0-0.3,0c-1.8-0.5-3.9,0-6,0c-1.3,0-2.3-0.3-3.4-0.3
	c0-2.1,0-3.9,0-6c3.1,0.5,6.7,0.5,9.9-0.5C519,22.6,519,23.2,519,23.4z M519.5,17.7c-1.6,0-3.4,0.5-4.9,0.5c-1.8,0-3.6,0-5.4,0
	c0-2.1,0-3.9,0-6c3.6,0,7.3-0.3,10.9-1.3C520.1,13,519.8,15.4,519.5,17.7z M514.1,5.5h6c0,0.5,0,0.8,0,1.3
	c-3.6,0.5-7.3,1.3-10.9,1.6c0-0.8,0-1.3-0.3-2.1C510.7,6,512.3,5.8,514.1,5.5z M508.9,33.3c0,0.3,2.6,0.5,3.9,0.5
	c1.8,0,4.1,0.3,5.7-0.5c0,1.3,0,2.9-0.3,4.1c-1.3,0.3-2.6,0.8-3.9,1c-1.8,0.5-5.7,0.8-5.7,1C508.9,37.4,508.9,35.3,508.9,33.3z
	 M508.9,43.9v-0.3c2.6,0,6.2-0.3,9.1-0.8c0,2.1-0.3,4.4-0.3,6.7c-1.6,0-3.1,0.3-4.7,0C507.6,49.1,508.9,47.8,508.9,43.9z
	 M466.7,59.5c0.5-19.2,11.1-50.3,36.8-42.3c0.3,0,0.3,0,0.5,0c-0.3,7.3,0,14.5,0.3,21.5c-13.5-4.7-16.9,11.9-17.4,21.8
	c-1,16.6-2.6,34-1.8,50.8c-5.7-0.3-11.4-0.5-17.4-0.5C467.7,93.7,466.1,76.6,466.7,59.5z M351.6,72.2c-3.9-0.3-5.7-3.6-4.7-5.4
	c1.3-5.4,25.4-4.7,31.9-4.9c2.9,0,22.6-0.8,21.3,4.9c-1,1.8-8.3,3.4-10.4,3.6c-1.6,0.5-4.7,0.8-8.3,1c-1.3,0-2.9,0.3-4.4,0.3
	c-2.6,0.3-5.4,0.3-8.3,0.3c-1.3,0-2.6,0-3.6,0.3C358.6,72.4,352.8,72.4,351.6,72.2z M368.9,75.8c2.9,0.3,5.4,0.3,7.8,0
	c0,2.6,0,5.2,0,7.8c-1.3,0-2.6,0.3-3.9,0.3c-1.3,0-2.3,0.3-3.6,0.3C369.2,81.2,369.2,78.7,368.9,75.8z M328.7,101
	c9.9-8.3,24.1-9.9,36.6-10.9c1,0,2.3-0.3,3.4-0.3c0.3,0,0.5,0,0.5,0c20.7-1.8,63.3-4.4,70.5,20.7c-22,0.3-44.1,1.3-66.1,3.4
	c-14.5,1.3-29,3.1-43.6,5.4c-4.4,0.8-8.8,1.6-13.2,2.3C318.6,113.9,322,106.7,328.7,101z M281.3,150.2c6.7-11.9,17.9-18.2,30.6-22
	c1.6-0.5,3.1-0.8,4.7-1.3c0.5-0.3,1.3-0.3,1.8-0.5c30.1-6.7,62-8.8,92.8-10.4c9.9-0.5,19.7-0.8,29.8-1c1.6,0,3.1,0,4.9,0
	c5.7,0,11.4,0,17.1,0c1.6,0,3.4,0,4.9,0c6,0,11.7,0.5,17.6,0.8c1.6,0,2.9,0.3,4.4,0.3c6,0.5,11.7,1,17.6,1.8
	c26.7,3.6,34.2,24.9,36.8,47.7c-9.6-0.8-19.2-1.3-28.8-1.3c-0.3-0.3-0.8-0.5-1.3-0.8c-78.8-4.7-163.8-7-241.1,14.3
	C274.3,168.4,276.4,158.8,281.3,150.2z M21.3,351.5c-3.1-1-14.8-5.4-16.1-8.8c-2.1-5.7,12.4-10.4,21.3-13c2.6,7.3,3.4,14.3,2.1,22
	c0,0.3-0.3,0.3-0.3,0.5c-0.3,0.5-0.3,1-0.5,1.6C25.7,353.1,23.6,352.3,21.3,351.5z M62.7,403.4c-3.1,7-11.9,8-18.4,8.6
	c-7,0.5-23.6,1.3-28-6.2c-3.1-5.4-1.6-14.3,0-20.2c2.3-9.9,10.6-18.4,13.5-28c0-0.3,0-0.3,0.3-0.5c0.5-1,0.8-1.8,1.3-2.9
	c2.9-8.3,1.3-17.4-1.6-25.7c-0.3-0.8-0.5-1.8-1-2.6c-0.5-1.6-1.3-3.1-2.1-4.4c-6.5-13.7-27.7-42.8-3.9-51.4
	c6.5-2.3,18.4-3.6,25.1-1.3c15.6,5.4,9.6,21.3,7.3,32.9c-0.8,3.6-1.3,7.3-1.3,10.9c0,0.8-0.3,1.6-0.3,2.3
	c-0.5,9.1,0.3,18.4,1.3,27.5c0.8,6.7,3.6,15.8,4.7,22.3c0,0,0,0,0,0.3c0.3,1,0.3,2.1,0.5,3.1c0.8,4.4,1.6,7.8,2.6,13
	C64,387.8,65.6,396.9,62.7,403.4z M601.2,518c-29.8,3.4-60.4,2.9-90.5,3.1c-32.1,0-64.3-0.3-96.2-1.3c-16.1-0.5-32.1-1.3-48.2-2.1
	c-33.4-1.6-67.7-0.3-100.6-7.5c-22-4.7-41-14.3-59.1-27c-32.7-22.8-61.7-49.3-90.2-77c-8.3-9.9-16.6-20-26.2-28.3
	c-8-7-17.6-12.2-27.7-12.7c-1.6-5.4-3.1-10.9-4.4-16.3c-2.3-10.1-2.1-21.8-1.3-32.2c0-0.5,0-1,0.3-1.3c4.7,0,9.1-0.3,13.7-0.3
	c5.2,0,11.1,0.5,16.1-1.8c5.7-2.6,9.6-8.6,13.7-12.7c20.2-21.3,37.9-44.4,60.7-62.8c22.6-18.4,48-32.9,74.9-43.6
	c9.9-3.9,20-7.5,30.3-10.4c1.8-0.5,3.4-1,5.2-1.6c43.8-12.4,89.7-16.6,135.3-17.4c34.2-0.5,68.4,1.3,102.7,2.3
	c11.4,0.8,23.1,1.6,34.5,2.9c1.8,0.3,3.9,0.5,5.7,0.5c14.5,1.8,28.8,3.9,42.8,7.3c-13.2,56.3-1.8,104.8,25.1,156.9
	c22.3,43.1,72.6,77.8,108.9,90.8C698.9,465.9,652.5,512,601.2,518z M736.5,409.6c-4.7,9.3-1.8,3.9-7.5,12.7
	c-28.5-10.4-80.4-41.5-106.3-85.6c-29.6-50.6-39.4-102.4-27.2-158.7c40.2,9.3,77.8,25.7,108.4,55.8c22.6,22.3,40.2,50.6,46.7,82
	C757.3,347.9,751.1,380.5,736.5,409.6z"/>
<path class="st13" d="M353.8,342.2c-1.4,0.5-2.3,1.4-2.7,3.2v0.5c0,1.8,1.4,3.2,2.7,3.6c0.5,0,0.9,0.5,1.4,0.5
	c1.8,0.5,4.6-0.5,5-2.3c0-0.5,0.5-0.9,0.5-1.4c0-3.2-3.2-4.6-6.4-4.1C354.3,342.2,354.3,342.2,353.8,342.2z"/>
<path class="st13" d="M350.1,312.5c1.8-0.5,3.2-1.4,4.1-3.2c0.9-2.3,0.5-5-2.3-5.5c-1.8-0.5-3.2,0.5-4.6,1.4
	c-1.8,0.9-2.7,3.6-1.8,5.5C346,312.5,347.9,313.5,350.1,312.5z"/>
<path class="st13" d="M346,383.6c-4.6,0-5.5,6.4-0.5,6.4C350.1,390,351.1,383.6,346,383.6z"/>
<circle class="st14" cx="260.1" cy="345.9" r="91.3"/>
<g>
	<defs>
		<circle id="SVGID_1_" cx="250.9" cy="349.6" r="80.6"/>
	</defs>
	<clipPath id="SVGID_2_">
		<use xlink:href="#SVGID_1_"  style="overflow:visible;"/>
	</clipPath>
	<g class="st15">
		<path class="st16" d="M69.2,421.4c0.3-0.1,0.4-0.3,0.4-0.6c3.4-6.2,2.1-13.9,0.1-20.1c0.1-0.5-0.2-1.3,0.7-1.3
			c14.9,29.8-8.2,26.4,18.6,35.6c49.9,14.2,17.4,1.1,47.1-13.3c0.5,0,0.6,0.4,0.7,0.8c-16.4,9.6-10.5,23.9-5.3,38.4
			c3.2,8.1,7.9,15.5,13.2,22.4c0.6,0.8,0.6,1.4-0.2,1.9c-6.9,6.4-18.6,9.7-19.6,20.2c-0.3,0.3-0.3,0.6,0.1,0.8
			c0.3,1,0.1,2.1,1.1,2.7c6.1,8.7,12.3-4.3,17.6-7.6c19.1-10.8,19.8-11.1,14.7-33.1c-2.6-23.1-6.7-17.8,14.6-25.9
			c22.1-11.8,44.3-24.6,62.6-41.8c16.4-17.3,38.4-26.9,59.7-36.2c0.5-0.1,1-0.2,1.2-0.7c6.6-2.8,13.3-5.5,18.4-10.8
			c0.9-0.7,0.7-1.4-0.1-2c-1.3-1.2-3-2.3-3.5-4.1c-0.2-1.3-1.2-1.8-2.3-2.2c-8.6-2.6-18.1-4.2-24.3-11.3
			c-14.5-19.8-35.4-26.7-59.2-25.4c-3.4,1.1-24.3,1.3-21.7,5.7c3.3,6.8,11.4,11,18.5,13.2c0.4,0.1,0.9,0.2,0.9,0.8
			c-0.1,0.5-0.5,0.5-0.9,0.5c-6.3,1.1-12.4-2-17.4-5.6c-0.6-0.5-1.1-0.4-1.6,0.1c-8.2,6.4-18.5,9.6-28.4,12
			c-31.5,6.3-63-2.9-94.4-5.4c-5.4-1-10.9-0.2-16.2-1.4c-1.8-0.6-3.6,0.5-5.5-0.6c-1.5-0.8-3.7-0.6-5.5-0.8
			c-3.5,0.2-6.8-0.5-10.1-0.1c-2,0.6-3.8-0.9-5.8-0.3c-11-0.4-22.2,2.7-33.3,2.8c-15.1,3.1-30.5,5.1-45.5,6.7
			c-1.5,0.7-2.8-0.8-4.4-0.3c-2.2,0-4.6,1.3-6.7,0.3c-0.7-0.5-1.5-0.2-2.2-0.1c-14.8,0.9-30.1-2-45.2-0.9
			c-29.1,2.4-62.8,8.9-79.5,35.5c-6,6.8-10,15.4-9.9,24.5c0,0.3-0.1,0.6-0.1,0.9c-0.3,0.3-0.3,0.6-0.1,0.9c-1.2,4,0.1,8.1,0.1,12.1
			c-1,4.1,3.2,8.3,5,11.9c2.6,4.4,16,3.6,20.9,3.2c15.2-2.2,25.9-14.5,39.1-21.4c17-8.7,42.2-6.3,60.9-4.3
			c19.7,2.7,42.1,2.1,59.5-7.4c2.1-2.9,2.1-6.2,2.3-9.5c-0.3-1.9,3.4-17,5.3-13c-0.6,2.4-0.7,4.8-0.3,7.4c-0.2,0.3-0.3,0.6-0.1,0.9
			c0,0.3-0.1,0.6-0.1,0.9c-0.3,0.3-0.3,0.6,0,0.9c0.3,12.8,6.7,24.6,15.2,34c1.2,1.3,1.1,1.5,0.2,3.1c-2.5,4.5-8.3,6.7-8.1,12.5
			c1.1,6.4,10.9,12.6,16.3,16.1c0,0.3,0.2,0.4,0.5,0.3c6.8,6.1,14.9,10.6,21.4,17c-3.2,47.1,32.3,16,13-9.6
			c-7.6-7.4-15.4-16.1-25.9-19c-3-1.2-6.9-1.6-9.1-3.9c13.6,0.3,31.8,4.3,42.2-6.9l0,0C69.1,421.9,69.2,421.7,69.2,421.4L69.2,421.4
			z"/>
		<g>
			<path class="st17" d="M148.7,522.8c-5-0.5-18.3,5.4-20.1-0.3c-1.4-3.1-5.4-3.8-7.2-6.7c-8.8-14.5,3.3-19.1,0.8-24.2
				c-2.7-5.2-6.2-10-9.7-14.8c-3.2-2.9-40.1-26.8-40.1-21c1.5,6,2.9,11.8,0.9,17.9c-2.3,7-5.2,15.4-13.2,17.2
				c-5.1,0.7-12.2,0.4-15.1-4.5c-8.2-26.1,8.9-15.6-18.4-34.9c-10.3-8.7-31.8-18.7-17.5-33.9c1.5-2,1.5-2-0.2-3.7
				c-2.7-5-8.1-8.5-9-14.5c-0.3-2.2-2.4-0.2-3.4,0.2c-12,3.1-24.2,8.3-36.8,7.4c-11.8-0.2-23.6-3-35.4-3.3
				c-12.6-1.2-25.4,1.1-37.9,2.8c-2.2,0.2-3.6,2.6-5.8,2.7c-6.1,1.3-10.6,6.1-15.7,9.4c-13.4,8.5-28.1,14.3-44.1,13.9
				c-8.2-0.3-15.6-7.8-17.1-15.6c-0.3-4.2-3.5-7.6-2.7-12c1-11.3,2.3-23,9-32.5c25.4-45.4,83-46.7,128.6-45.3
				c30.8,2.5,60.8-6.1,91.5-6.7c29.2,0.6,58.2,5.1,87.2,8.9c27.3,5,55.8,2.4,80.7-10.4c2.2-1.4-1.3-3.5-0.9-5.4
				c0.1-1.5-2.3-2.4-0.5-3.7c5.8-4.1,13.2-3.4,19.4-6.2c11.2-2.3,22.5-0.2,33.7,1.1c34.7,4.5,31.5,35.3,71.5,36.5
				c18.2,6.9-18.7,27.3-27.3,29.6c-13.4,6-26.4,12.9-39,20.8c-15.8,12.9-30.5,27.4-47.8,38.5c-6.4,4.7-13,9.2-19.9,13.2
				c-2.2,1.3-4.8,2.2-5.9,5c-5.2,4.9-10.2,10.2-13.9,16.3c-4.1,11.5,6.6,19.8-5,34.3c-0.5,0.8-1.3,0.5-1.8,1.1
				c-1.1,1.7-6.4,1.7-2.3,4c5.2,2.7,8.5,7,9.6,12.8C170,522.8,152.6,521.3,148.7,522.8C148.7,522.8,148.7,522.8,148.7,522.8z
				 M69.2,421.4c0.3-0.1,0.4-0.3,0.4-0.6c3.4-6.2,2.1-13.9,0.1-20.1c0.1-0.5-0.2-1.3,0.7-1.3c14.9,29.8-8.2,26.4,18.6,35.6
				c49.9,14.2,17.4,1.1,47.1-13.3c0.5,0,0.6,0.4,0.7,0.8c-16.4,9.6-10.5,23.9-5.3,38.4c3.2,8.1,7.9,15.5,13.2,22.4
				c0.6,0.8,0.6,1.4-0.2,1.9c-6.9,6.4-18.6,9.7-19.6,20.2c-0.3,0.3-0.3,0.6,0.1,0.8c0.3,1,0.1,2.1,1.1,2.7
				c6.1,8.7,12.3-4.3,17.6-7.6c19.1-10.8,19.8-11.1,14.7-33.1c-2.6-23.1-6.7-17.8,14.6-25.9c22.1-11.8,44.3-24.6,62.6-41.8
				c16.4-17.3,38.4-26.9,59.7-36.2c0.5-0.1,1-0.2,1.2-0.7c6.6-2.8,13.3-5.5,18.4-10.8c0.9-0.7,0.7-1.4-0.1-2c-1.3-1.2-3-2.3-3.5-4.1
				c-0.2-1.3-1.2-1.8-2.3-2.2c-8.6-2.6-18.1-4.2-24.3-11.3c-14.5-19.8-35.4-26.7-59.2-25.4c-3.4,1.1-24.3,1.3-21.7,5.7
				c3.3,6.8,11.4,11,18.5,13.2c0.4,0.1,0.9,0.2,0.9,0.8c-0.1,0.5-0.5,0.5-0.9,0.5c-6.3,1.1-12.4-2-17.4-5.6
				c-0.6-0.5-1.1-0.4-1.6,0.1c-8.2,6.4-18.5,9.6-28.4,12c-31.5,6.3-63-2.9-94.4-5.4c-5.4-1-10.9-0.2-16.2-1.4
				c-1.8-0.6-3.6,0.5-5.5-0.6c-1.5-0.8-3.7-0.6-5.5-0.8c-3.5,0.2-6.8-0.5-10.1-0.1c-2,0.6-3.8-0.9-5.8-0.3
				c-11-0.4-22.2,2.7-33.3,2.8c-15.1,3.1-30.5,5.1-45.5,6.7c-1.5,0.7-2.8-0.8-4.4-0.3c-2.2,0-4.6,1.3-6.7,0.3
				c-0.7-0.5-1.5-0.2-2.2-0.1c-14.8,0.9-30.1-2-45.2-0.9c-29.1,2.4-62.8,8.9-79.5,35.5c-6,6.8-10,15.4-9.9,24.5
				c0,0.3-0.1,0.6-0.1,0.9c-0.3,0.3-0.3,0.6-0.1,0.9c-1.2,4,0.1,8.1,0.1,12.1c-1,4.1,3.2,8.3,5,11.9c2.6,4.4,16,3.6,20.9,3.2
				c15.2-2.2,25.9-14.5,39.1-21.4c17-8.7,42.2-6.3,60.9-4.3c19.7,2.7,42.1,2.1,59.5-7.4c2.1-2.9,2.1-6.2,2.3-9.5
				c-0.3-1.9,3.4-17,5.3-13c-0.6,2.4-0.7,4.8-0.3,7.4c-0.2,0.3-0.3,0.6-0.1,0.9c0,0.3-0.1,0.6-0.1,0.9c-0.3,0.3-0.3,0.6,0,0.9
				c0.3,12.8,6.7,24.6,15.2,34c1.2,1.3,1.1,1.5,0.2,3.1c-2.5,4.5-8.3,6.7-8.1,12.5c1.1,6.4,10.9,12.6,16.3,16.1
				c0,0.3,0.2,0.4,0.5,0.3c6.8,6.1,14.9,10.6,21.4,17c-3.2,47.1,32.3,16,13-9.6c-7.6-7.4-15.4-16.1-25.9-19c-3-1.2-6.9-1.6-9.1-3.9
				c13.6,0.3,31.8,4.3,42.2-6.9l0,0C69.1,421.9,69.2,421.7,69.2,421.4L69.2,421.4z M98.5,458.9c12.6,6.4,23.9,14.7,29.8,27.9
				c1.9,2.9,9.6-3,7-5.5c-5.6-7.4-10.1-15.5-15.3-22.9c-6.3-5.1-13.3-9-20-13.4c-8-3.3-16.8-4.4-24.8-8c-5.3-3.1-5.1-2.8-5.6,3
				C74.1,449.2,90,452.9,98.5,458.9z M160.5,514.2c-1.9-2.7-3.9-5.3-7.5-5.6c-7.4-1.7-11.1,4.4-16.1,8.5c-2.1,3.3,9.9-0.3,11.7,0
				c0,0,0,0,0,0C150.8,516.3,161.1,517,160.5,514.2z M56,438.2c2.6,1.9,4.3-4,0.3-2.7C53.7,435.5,53.9,437.3,56,438.2z M317.8,345.1
				c-0.3-1.6-3.2-1.1-3.1,0.3C314.9,347.1,318,346.8,317.8,345.1z"/>
			<path class="st18" d="M3.6,368.2c0.5-0.4,0.5-1,0.5-1.5c0-1.6,0.3-3.1,1.3-4.5c0.2-0.3,0.2-0.7-0.1-1c-0.7-0.1-0.8,0.5-1.2,0.9
				c-4,3.7-8.1,7.3-13,9.8c-3.2,1.6-6.6,2.5-9.9,3.8c-4.2,1.6-8.6,2.3-12.9,3.3c-2.3,0.5-4.7,0.4-7,0.5c-0.6,0-1.2,0-1.8,0
				c-6.7,0.9-13.3,0.4-19.9-0.6c-5.4-0.8-10.8-1.7-16.2-2.2c-4.5-0.4-9-0.4-13.6-0.4c-4.7,0-9.4,0.4-14,1.1
				c-10,1.6-19.5,4.8-28,10.5c-5.6,3.7-11.1,7.3-16.7,11c-2.2,1.5-4.3,3.1-6.5,4.6c-5.2,3.6-10.9,5.7-17.1,6.8
				c-3.7,0.7-7.4,1.4-11.2,1.9c-3.1,0.4-4.7-0.6-5.9-3.6c-0.7,0.9-0.4,2,0,2.8c1.5,3.1,3,6.2,5,9.1c1.5,2.2,3.6,2.9,6,2.9
				c3.1,0.1,6.2,0.1,9.2,0.7c0.9,0.2,1.8,0,2.7-0.1c1-0.1,2-0.3,2.9-0.4c3.6-0.3,6.9-1.6,10.1-3.1c2.9-1.4,5.9-2.4,8.4-4.4
				c1.6-1.3,3.3-2.6,4.9-4c2.6-2.1,5.6-3.6,8.4-5.3c2.4-1.5,5-2.8,7.3-4.5c2.3-1.7,4.8-2.7,7.6-3.4c3.9-0.9,7.9-1.7,11.9-1.9
				c6.3-0.4,12.7-1,19-0.5c0.8,0.1,1.5,0,2.3,0c6.8-0.4,13.4,0.3,20.1,1.5c3.1,0.6,6.3,0.8,9.5,1c5.1,0.3,10.1,0.9,15.2,0.4
				c2.4-0.2,4.8-0.4,7.3-0.5c2.5-0.1,4.9-1,7.3-1.6c2.2-0.5,4.4-1.2,6.6-1.6c4.1-0.7,8-2.2,12-3.5c0.9-0.3,1.2-0.9,1.7-1.6
				c2.1-2.9,2.1-6.2,2.3-9.5c0.3-4.7,1.7-9,3.8-13.2c0.2-0.4,0.5-0.9,1-0.7C3.4,367.3,3.5,367.8,3.6,368.2z"/>
			<path class="st18" d="M241.4,373.9c-0.3-2.9-1.2-5.6-1.8-8.4c-1.1,1-2,2.3-3.4,3c-2.5,1.3-5.1,1.3-7.7,0.8c-0.5,1-0.8,2.1-1,3.3
				c-0.1,0.9,0.3,1.7,1.1,1.7c2,0.1,4.2,0.3,6-0.8c1-0.6,2.1-1.1,3-1.9c0.3-0.3,0.6-0.5,1-0.3c0.5,0.2,0.5,0.7,0.4,1.2
				c-0.4,1.5-0.3,3-0.6,4.5c-0.5,1.8-1.3,3.3-2.1,5c-1.9,3.6-3.9,7.2-6.1,10.6c-0.6,1-1.3,1.9-2.2,2.6c-3.7,3.3-6.6,7.5-10.3,10.9
				c-3.3,3-6.9,5.4-10.6,7.8c-5.3,3.5-11.1,6.2-16.7,9.1c-8.3,4.3-16.9,8.1-25.6,11.6c-6.2,2.4-12.6,4.3-19.1,5.7
				c-2.3,0.5-2.6,1.3-1.7,3.5c2.2,5.6,4.2,11.3,6.4,16.9c2.4,6.2,4.2,12.6,6.8,18.7c0.8,1.8,1,3.6,1.7,5.4c0.2,0.6,0.1,1.2-0.2,1.7
				c-0.9,1.4-1.9,2.9-3.4,3.5c-1.7,0.8-3.4,1.5-5.3,1.9c-6.6,1.4-12.6,4-17.3,8.8c-2.1,2.2-3.9,4.7-5.5,7.2c-0.3,0.5-0.6,0.8-1.1,1
				c0.6,1.3,1.9,1.9,2.9,2.8c0.4,0.4,1,0.3,1.5,0.2c2.2-0.2,4-1.3,5.4-3c2.4-2.8,4.9-5.4,7.8-7.6c2.6-2,5.5-3.7,8.6-5.1
				c4.3-1.8,7.4-5,8.9-9.5c0.2-0.7,0.1-1.3,0.1-2c-0.4-5.6-1.7-11.1-2.8-16.6c-1.1-5.2-1.3-10.5-2-15.8c-0.1-1.2,0.2-2.4,0.4-3.6
				c0.1-0.8,0.9-0.9,1.5-1.2c4.9-1.7,9.9-3.4,14.7-5.4c2.2-0.9,4.2-2.1,6.2-3.2c9.2-4.9,17.8-10.7,26.7-16c4.4-2.6,8.5-5.5,12.5-8.6
				c1.6-1.2,3.2-2.5,5.2-3.2c1.1-0.4,1.9-1.2,2.7-2.1c2.9-3.1,6.2-5.8,9.3-8.7c3.7-3.4,7.4-6.7,11.1-10.1c2.7-2.4,5.8-4.2,8.8-6.1
				c4.4-2.8,8.7-5.6,13.2-8.2c3.1-1.8,6.3-3.3,9.6-4.6c5.6-2.1,11.4-4.1,16.7-7c0.1-0.1,0.2-0.2,0.2-0.4c-3.2,0.3-6.2,1.2-9.2,2.2
				c-4.1,1.4-8,3.1-12.1,4.4c-3.9,1.3-7.9,2.4-11.9,3.6c-1.3,0.4-2.4,1.3-3.9,1.4c0.2-2.1,1.3-3.9,1.4-5.8c-0.9,0.1-1.5,0.8-2.1,1.3
				c-1.6,1.2-3.2,2.3-5,3.1c-3.2,1.5-6.5,1.9-9.9,1.2C241.4,375.6,241.1,374.9,241.4,373.9z"/>
			<path class="st18" d="M68.8,421.9c-1.6,0.4-2.6,1.7-4.1,2.4c-2.1,0.9-4.3,0.9-6.4,1.3c-3.9,0.8-7.5,0.2-11-1.4
				c-5.3-2.4-10.8-4.6-15.7-7.7c-6.6-4.2-12.7-9.1-17.7-15.2c-3.6-4.5-6.5-9.3-8.4-14.7c-0.5-1.3-1.2-2.6-1.8-3.9
				c-0.1,3.5,1.1,6.7,2.3,9.8c2.9,7.3,7,13.9,12.3,19.7c1.2,1.3,1.1,1.5,0.2,3.1c-1.3,2.2-3,4-5,5.5c-2.2,1.8-2.9,4.3-3.1,6.9
				c1-0.6,2-1.1,2.9-1.7c0.6-0.3,1.2-0.4,1.9,0.2c0.5,0.5,1.1,0.8,1.7,1.2c5.6,4.2,11.5,7.8,17.8,10.8c2.1,1,4.1,2,5.9,3.3
				c4.6,3.3,9,6.9,13.4,10.6c0.5,0.4,0.7,0.9,1,1.5c1.1,2.5,0.9,5,0.5,7.6c-0.6,3.2-2.1,6.1-2.6,9.4c-0.6,3.4-1.5,6.8-1.1,10.3
				c0.1,0.6-0.2,1-0.8,1.1c2.9,4.6,8.5,4.9,11.7,0.5c2.2-3,3.5-6.4,4.1-10c1.1-6.4-0.1-12.5-3.2-18.2c-0.5-1-1.3-1.9-2.1-2.7
				c-4.7-5.2-10.1-9.5-15.5-13.9c-3.2-2.6-6.7-4-10.5-5.1c-2.6-0.8-5.2-1.7-7.7-2.8c-0.5-0.2-1.2-0.3-1.4-1.1
				c0.7-0.4,1.5-0.2,2.2-0.1c5.9,1.1,11.9,1,17.9,0.7c2.2-0.1,4.4,0.4,6.5-0.1c3.9-0.9,7.7-2.1,11.4-3.8c1.5-0.7,2.8-1.6,3.8-2.8
				C68.6,422.5,68.8,422.3,68.8,421.9z"/>
			<path class="st18" d="M69.6,439.9c0.4,2,1.5,3.4,3,4.4c1.9,1.5,4,2.7,6.1,3.9c6.6,3.6,13.2,7.1,19.8,10.7
				c6.1,3.3,11.8,7.1,17.4,11.1c3.7,2.6,6.3,6.1,8.4,10c0.9,1.6,1.7,3.2,2.6,4.8c0.4,0.7,0.9,1.4,1.4,2c1,1.1,1.7,1.1,3,0.5
				c1.6-0.7,2.8-1.8,3.9-3.1c1.1-1.3,1-1.5,0.1-2.9c-3.2-5.2-7.2-9.8-10.3-14.9c-0.8-1.2-1.4-2.5-1.9-3.8c-0.6-1.7-1.6-3-3-4.2
				c-6.3-5.1-13.3-9-20-13.4c-2.3-1.5-5-1.7-7.5-2.4c-5.8-1.7-11.7-3.3-17.3-5.6c-1.2-0.5-2.3-1.2-3.4-1.8c-1-0.5-1.5-0.4-1.7,0.5
				C69.9,437.1,69.7,438.6,69.6,439.9z"/>
			<path class="st18" d="M126.2,427.5c-10.1-1.5-19.8-4.6-29.3-8.3c-4.9-1.9-9.9-3.7-14.6-6.1c-2.8-1.4-5.3-3.4-8.2-4.8
				c0.4,3.1,1.5,6,1.8,9.1c0.3,3.3,0.3,6.5-1,9.6c-0.4,1.1,0,1.6,0.7,2.1c2,1.1,3.8,2.4,6,3.2c2.5,0.9,5,1.8,7.4,2.8
				c5.6,2.3,11.5,3.1,17.3,4.4c2.9,0.7,5.9,1.1,8.9,1.5c0.7,0.1,1.5,0.1,2.3,0.1c1.2,0,2.1-0.5,2.5-1.6c0.7-2.1,1.9-3.9,2.6-6
				C123.3,431.1,124.3,429,126.2,427.5z"/>
			<path class="st18" d="M224,321.3c0,1.1-0.6,1.4-1.5,1.2c-4.4-1.2-9-1.8-12.7-4.9c-1.2-1-2.5-1.9-3.8-2.9c-0.7-0.5-1.4-0.9-2.2-1
				c0.1,1.4,1.1,2.3,2,3.2c4.6,4.5,9.8,8.1,16.1,9.9c0.1,0,0.3,0,0.4,0.1c0.4,0.1,0.9,0.2,0.9,0.8c-0.1,0.5-0.5,0.5-0.9,0.5
				c-3.1,0.3-6.2,0.4-9.1-1c-1.6-0.8-3.3-1.5-4.9-2.3c0.2,3.1,0.8,6.1,1.7,9.1c0.9,3.1,2.8,3.9,5.6,2.4c6.5-3.6,12.6-8,18.6-12.4
				c2-1.5,3.6-3.4,5.5-5.1c0.4-0.3,0.7-0.8,0.7-1.4c-2.4-0.2-4.8,0.6-7.2,0.4c-2-0.2-4.1,0.2-6.1-0.2c-0.4-0.1-0.8-0.1-1,0.3
				c-0.3,0.5,0.1,0.9,0.4,1.2c0.5,0.5,1,0.9,1.4,1.5c0.5,0.7,0.3,1.3-0.5,1.6c-0.6,0.2-1.2,0.2-1.7-0.2
				C225.1,321.7,224.6,321.2,224,321.3z"/>
			<path class="st18" d="M148.6,517.2c3.2-0.4,6.5-0.8,9.7-1.3c0.6-0.1,1.2-0.2,1.8-0.4c0.6-0.2,0.8-0.7,0.4-1.3
				c-1.9-2.7-3.9-5.3-7.5-5.6c-4.3-0.4-8.4,0.2-11.3,3.9c-1.4,1.8-2.8,3.5-4.8,4.6c-0.3,0.2-0.5,0.6-0.3,1c0.1,0.3,0.4,0.4,0.7,0.4
				c0.5,0,1.1-0.1,1.6-0.1C142.1,518,145.4,517.5,148.6,517.2C148.6,517.1,148.6,517.1,148.6,517.2z"/>
			<path class="st18" d="M48.6,461.3c0.5-0.9,0.5-1.9,0.6-2.8c0.1-1.6-0.6-2.9-2-3.8c-2.2-1.5-4.4-3.1-6.7-4.6
				c-2.8-1.9-5.8-3.5-8.9-4.9c-1.4-0.6-2.8-1.1-4.4-0.9c2.9,2.7,6.1,4.9,9.2,7.2c3.5,2.7,7.1,5.3,10.6,8.2
				C47.6,460.2,48.2,460.7,48.6,461.3z"/>
			<path class="st18" d="M56.3,435.5c-0.7,0.2-1.7-0.1-1.9,0.8c-0.2,1.1,0.9,1.4,1.6,1.9c0.8,0.5,1.5,0.7,2.1-0.2
				c0.4-0.6,0.9-1.4,0.5-2.1C58.1,435,57.1,435.6,56.3,435.5z"/>
			<path class="st18" d="M314.7,345.5c0.1,0.6,0.9,1.3,1.7,1.2c0.8-0.1,1.5-0.9,1.4-1.5c-0.2-0.8-0.8-1-1.5-1
				C315.4,344.1,314.6,344.8,314.7,345.5z"/>
			<path class="st18" d="M70.4,399.4c-0.1-0.3-0.1-0.6-0.3-0.8c-0.3-0.4-0.4-1.1-1.1-0.9c-0.7,0.2-0.7,0.9-0.5,1.5
				c0.2,0.6,0.4,1.3,1.1,1.5C69.7,400.2,69.4,399.4,70.4,399.4z"/>
			<path class="st18" d="M136.8,422.5c0.6-0.2,1.2-0.5,1.3-1.2c0-0.1-0.2-0.4-0.4-0.5c-0.8-0.3-1.4,0.1-1.7,0.9
				C136.6,421.7,136.7,422.1,136.8,422.5z"/>
			<path class="st18" d="M70.1,402c-0.4,0.8-0.2,1.5,0.4,2.2C70.7,403.4,70.5,402.7,70.1,402z"/>
			<path class="st18" d="M71,406c-0.4,0.8-0.3,1.5,0.3,2.1C71.6,407.4,71.5,406.7,71,406z"/>
			<path class="st18" d="M3.2,371.9c0.5-0.7,0.8-1.5,0.3-2.4C3.1,370.3,2.9,371,3.2,371.9z"/>
			<path class="st18" d="M71.3,409.5c-0.6,0.6-0.5,1.3,0.1,1.8C71.6,410.8,71.6,410.1,71.3,409.5z"/>
			<path class="st18" d="M-189.4,394.7c0.6-0.5,0.5-0.9,0-1.4C-189.7,393.8-189.7,394.2-189.4,394.7z"/>
			<path class="st18" d="M3.3,376.5c0.5-0.3,0.6-0.6,0.1-0.9C3.1,375.8,3,376.1,3.3,376.5z"/>
			<path class="st18" d="M-189.6,396.5c0.4-0.3,0.6-0.6,0.1-0.9C-189.8,395.9-189.8,396.2-189.6,396.5z"/>
			<path class="st18" d="M3.2,378.2c0.4-0.3,0.5-0.6,0-0.9C2.9,377.7,2.9,377.9,3.2,378.2z"/>
			<path class="st18" d="M124.9,506.2c0.4-0.3,0.4-0.6-0.1-0.8C124.5,505.7,124.6,505.9,124.9,506.2z"/>
			<path class="st18" d="M296.5,363.7c-0.6,0-1.1,0-1.2,0.7C295.8,364.3,296.3,364.2,296.5,363.7z"/>
			<path class="st18" d="M69.5,420.9c-0.3,0.1-0.4,0.3-0.4,0.6C69.5,421.4,69.6,421.2,69.5,420.9z"/>
			<path class="st18" d="M69.2,421.4c-0.3,0-0.4,0.2-0.4,0.5C69.1,421.9,69.2,421.7,69.2,421.4z"/>
			<path class="st18" d="M27.2,444.3c0-0.3-0.2-0.4-0.5-0.3C26.8,444.2,26.9,444.3,27.2,444.3z"/>
			<path class="st17" d="M224,321.3c0.7,0,1.1,0.4,1.6,0.7c0.6,0.3,1.1,0.4,1.7,0.2c0.8-0.3,1-0.8,0.5-1.6c-0.4-0.5-1-1-1.4-1.5
				c-0.3-0.3-0.7-0.7-0.4-1.2c0.2-0.4,0.7-0.4,1-0.3c2,0.4,4.1,0,6.1,0.2c2.4,0.2,4.8-0.6,7.2-0.4c0.6-0.3,1.5-0.2,2.2-0.9
				c-0.8-0.5-1.5-0.8-2.3-0.9c-3.1-0.2-6.1-1-9.1-1.4c-2.3-0.4-4.7-0.8-7.2-0.5c-2.9,0.3-5.9-0.3-8.8,0.2c-0.3,0.1-0.6,0-0.9,0.1
				c-0.4,0.1-1-0.1-1.1,0.5c-0.1,0.5,0.4,0.8,0.8,1c1.1,0.7,2.2,1.4,3.3,1.9C219.6,318.6,221.8,319.9,224,321.3z"/>
			<path class="st17" d="M255.2,334.2c2.9,5.4,11.5,4.3,16.5,6.9c2,0.5,2.9-0.5,1.5-2.2c-2.1-4.5-6-6.4-10.6-7.1
				C260.2,331.9,255.4,330.3,255.2,334.2z"/>
			<path class="st17" d="M223.7,360.2c-0.2-0.6-0.7-0.4-1.1-0.3c-2.8,0.6-5.6-0.1-8.3-0.7c-1.3-0.3-1.5-0.8-0.8-1.9
				c1-1.4,2.1-2.5,3.6-3.4c0.9-0.5,1.8-1.2,2.6-1.8c0.3-0.2,0.5-0.6,0.3-1c-0.2-0.4-0.6-0.3-1-0.3c-1.9,0.3-3.9,0.6-5.8,0.9
				c-2.2,0.4-4.5,0.8-6.7,0.1c-0.6-0.2-1.7-0.7-2,0.3c-0.2,0.9,0.9,1.1,1.6,1.3c1.5,0.5,2.9,1.4,4.5,1.3c0.9,0,1,0.6,0.6,1.2
				c-0.5,0.7-1.2,1.4-1.7,2.1c-0.4,0.5-0.6,1.1-0.1,1.7c0.8,1,1.7,2.2,2.9,2.4c3.9,0.7,7.7,0.5,11.2-1.6
				C223.6,360.5,223.6,360.4,223.7,360.2z"/>
			<path class="st17" d="M241.4,373.9c-0.3,1,0,1.7,1.2,1.9c3.5,0.7,6.8,0.3,9.9-1.2c1.8-0.9,3.4-1.9,5-3.1c0.7-0.5,1.2-1.2,2.1-1.3
				c0.4-0.5,1.2-0.8,1.1-1.7c-1.7-0.2-3.5,0-5.1,0.6c-1.7,0.7-3.5,1.2-5.2,2C247.6,372.6,244.7,374,241.4,373.9z"/>
			<path class="st17" d="M228.6,369.3c2.7,0.5,5.2,0.6,7.7-0.8c1.4-0.7,2.2-2,3.4-3c0.2-0.5,0.6-0.9,0.5-1.7
				c-1.4,0.7-2.4,1.8-3.7,2.3c-3.9,1.6-7.6,2.5-11.1-0.8c-0.1-0.1-0.4-0.1-0.6-0.1c-0.2,0.2-0.4,0.5-0.5,0.7
				C225.2,367.5,226.9,368.3,228.6,369.3z"/>
			<path class="st18" d="M224.1,365.9c0.2-0.2,0.4-0.5,0.5-0.7c-0.2-0.7-0.7-0.8-1.1-0.3C223.1,365.4,223.4,365.9,224.1,365.9z"/>
		</g>
	</g>
</g>
<path class="st6" d="M262.9,241.4c-54.8,2.7-102.3,46.5-105,101.6c-0.5,12.8,0.9,25.1,4.6,36c13.2,40.1,52.1,67,96.4,71.1
	c0.9,0,1.4,0,2.3,0C289,452,315,437.4,333.3,416c16.4-19.1,27.4-43.8,28.8-67.5c0-0.9,0-1.8,0-2.7
	C363.4,290.2,321.8,238.2,262.9,241.4z M301.3,255.1c2.3,0,4.1,2.7,4.1,5c0,0.9,0,1.4-0.5,2.3c-0.5,1.8-1.8,3.2-4.1,3.2
	c-1.8,0-3.2-1.8-4.1-3.6c0-0.9-0.5-1.4-0.5-2.3C297.2,256.9,299,254.7,301.3,255.1z M260.6,246.5c1.8,0,4.1,0.9,4.1,2.7
	c0,0,0,0,0,0.5c0.5,4.1-4.1,6.8-7.3,4.6C253.8,251.5,256.5,246.5,260.6,246.5z M222.7,256.9c0,0,0.5,0,0.9,0c3.7,0.5,6.9,5,3.7,7.7
	c-3.2,2.7-8.2,0-8.2-3.6c0,0,0-0.5,0-0.9C218.6,258.3,220.9,256.9,222.7,256.9z M196.7,273.8c5.5,0,3.2,8.7-1.8,8.7
	C188.9,282.5,191.7,273.8,196.7,273.8z M177.5,296.6c5,0,5.9,8.7,0.5,8.7C172.5,305.7,172,296.6,177.5,296.6z M159.3,339.9
	c0-0.9,0.5-1.8,0.9-2.3c0.9-2.7,4.6-3.2,6.4-1.4c2.7,2.3,0.5,7.3-3.2,7.3C161.1,343.1,159.3,341.7,159.3,339.9z M171.1,382.7
	c-2.3,1.8-5,0-6.4-2.3c-0.5-0.5-0.9-0.9-0.9-1.8c-0.5-2.7,2.7-4.6,5-3.2c1.4,0.5,2.7,1.4,3.2,2.7C173,380,172.5,381.8,171.1,382.7z
	 M193.5,416c-2.7,2.3-7.8,0.9-7.3-2.7c-0.5-2.7,2.3-5.5,5-4.6c1.8,0,3.7,1.4,4.1,3.2C195.3,413.7,194.9,415.1,193.5,416z
	 M228.2,439.3c-0.5,0-0.5,0-0.9,0c-2.7,0.9-5-1.8-4.6-4.6c0.5-2.7,3.2-4.6,5.9-4.1c0.5,0,0.5,0,0.9,0c1.8,0.5,2.7,2.3,2.3,4.1
	C231.4,437.4,230,438.8,228.2,439.3z M276.6,442.4c0,0.5-0.5,0.9-0.5,1.4c0,0,0,0,0,0.5c-0.9,1.4-2.7,2.3-4.1,2.3
	c-0.5,0-0.9,0-1.4-0.5c-6.4-2.3-1.8-10.5,2.7-8.7c1.4,0,2.3,0.9,3.2,1.8C277.1,440.2,277.1,441.1,276.6,442.4z M300.4,435.2
	C300.4,435.2,299.9,435.2,300.4,435.2c-3.2-1.8-3.2-6.4-0.5-7.7c0,0,0,0,0.5-0.5c3.2-1.8,6.9,1.8,6.9,4.6
	C306.8,435.2,303.1,437,300.4,435.2z M327.3,415.1c-1.8-0.5-3.2-1.4-3.7-3.2c0-1.4,0-2.7,0.9-4.1c0.5-0.9,1.8-0.9,2.7-1.4h0.5
	c2.7,0,4.6,2.3,4.6,5v0.5c0,0.9-0.5,1.8-1.4,2.3C330.1,415.1,328.7,415.6,327.3,415.1z M345.6,390c-5,0-4.1-6.4,0.5-6.4
	C351.1,383.6,350.1,390,345.6,390z M345.1,371.8c-5.5,13.7-12.8,25.5-21.9,35.1c-16.9,17.8-39.3,27.8-66.2,26.4
	c-34.7-1.8-70.8-22.3-83.1-55.1c0-0.5-0.5-0.9-0.5-1.8c-26.9-75.2,71.2-143.1,135.6-102.1c24.7,15.5,40.6,43.3,40.6,71.6
	C349.7,354.5,348.3,363.1,345.1,371.8z M361.1,345.8c0,0.5,0,0.9-0.5,1.4c-0.5,1.8-3.2,2.7-5,2.3c-0.5,0-0.9,0-1.4-0.5
	c-1.4-0.9-2.7-2.3-2.7-3.6v-0.5c0-1.4,1.4-2.3,2.7-3.2l0.5-0.5C357.5,341.3,361.1,343.1,361.1,345.8z M347,304.8
	c1.4-0.9,3.2-1.8,4.6-1.4c2.7,0.9,3.7,3.2,2.3,5.5c-0.9,1.8-2.3,2.7-4.1,3.2c-1.8,0.9-4.1,0-5-2.3
	C344.2,308.4,345.1,306.2,347,304.8z M333.3,279.3c0,0.9-0.5,1.4-0.9,1.8c-1.4,2.3-4.6,3.6-6.9,1.8c-2.3-1.8-1.8-5,0.5-6.4
	c0.5-0.5,1.4-0.9,1.8-0.9C330.5,274.7,334.2,276.1,333.3,279.3z"/>
<path class="st13" d="M207.7,251c-39.7,23.2-61.2,68.4-54.8,113.9c4.1,29.6,20.6,58.3,46.6,73.4c73.5,41.9,134.7,11.4,160.3-51.5
	c16.9-41.5,7.8-92.5-24.2-124.4C301.7,227.8,248.3,227.3,207.7,251z M362,349c-0.9,23.7-11.9,48.3-28.8,67.5
	c-18.7,21.4-44.3,36-72.2,34.2c-0.9,0-1.4,0-2.3,0c-44.3-4.6-83.1-31-96.4-71.1c-3.7-10.9-5.5-23.2-4.6-36
	c3.2-55.6,50.2-98.9,105-101.6c58.9-2.7,100.5,48.8,99.1,104.8C362,347.2,362,348.1,362,349z"/>
<path class="st13" d="M309,274.3c-64.4-41-162.6,26.9-136.1,102.1c0.5,0.5,0.5,1.4,0.5,1.8c12.8,33.3,48.9,53.3,83.1,55.2
	c26.9,1.4,49.3-8.7,66.2-26.4c9.1-9.6,16.4-21.4,21.9-35.1c3.2-8.2,4.6-17.3,4.6-26C349.7,318,333.7,290.2,309,274.3z M342.4,331.2
	c4.1,23.2-3.7,45.6-17.8,63.8c-14.6,20.1-42,30.1-64.8,30.5c-35.6,0.9-72.2-20.1-82.2-57.9c-11.9-45.6,21.5-82,63-95.7
	C283,257.8,334.6,286.1,342.4,331.2z"/>
<path class="st13" d="M301.3,265.1c1.8,0,3.7-1.4,4.1-3.2c0-0.5,0-1.4,0-1.8c0-2.3-1.8-5-4.1-5c-2.3,0-4.6,2.3-4.1,4.6
	c0,0.9,0,1.4,0.5,2.3C298.1,263.3,299.5,265.1,301.3,265.1z"/>
<path class="st19" d="M239.6,273.8c-41.6,13.7-74.9,50.1-63,95.7c10,37.8,46.6,58.8,82.2,57.9c22.8-0.5,50.2-10.5,65.3-30.1
	c13.7-18.7,21.9-41,17.8-63.8C334.2,287.9,282.6,259.6,239.6,273.8z"/>
<path class="st20" d="M214.2,415.7c18.3,20.1,59.8-6.8,74.4-19.1c24.2-19.6,46.6-49.2,47-81.1c19.2,19.6-3.2,69.3-17.8,85.7
	c-12.8,14.6-29.7,19.6-48,24.2C256.6,428.5,229.2,430.8,214.2,415.7z"/>
<path class="st21" d="M255.3,277.1c-35.1,0.8-66.2,31.2-73.8,59.7c-1.8,6.4,8.1,6.4,10.4,1.6c6.3-12,15.3-23.2,26.6-31.6
	c11.7-8.8,24.3-11.6,37.8-16.8C262.9,287.9,263.4,277.1,255.3,277.1z"/>
<path class="st13" d="M327.8,275.6c-0.9,0-1.4,0.5-2.3,0.9c-2.3,1.4-2.7,5-0.5,6.4c2.3,1.8,5.5,0.5,6.9-1.8c0.5-0.5,0.5-1.4,0.9-1.8
	C334.2,276.1,330.5,274.7,327.8,275.6z"/>
<path class="st13" d="M327.8,406.9h-0.5c-1.4,0-2.3,0.5-2.7,1.4c-0.9,0.9-1.4,2.7-0.5,4.1c0.5,1.4,1.8,2.7,3.2,3.2c0,0,0,0,0.5,0
	c0.9,0.5,2.7,0,3.7-0.9c0.9-0.5,1.4-1.4,1.4-2.3v-0.5C332.3,409.2,330.5,406.9,327.8,406.9z"/>
<path class="st13" d="M300.4,426.9C299.9,426.9,299.9,426.9,300.4,426.9c-2.7,1.8-3.2,6.4,0,8.2c0,0,0,0,0.5,0
	c2.7,1.8,6.4,0.5,6.4-3.6C306.8,428.8,303.1,424.7,300.4,426.9z"/>
<path class="st13" d="M273.4,437.4c-5-1.4-9.1,6.4-3.2,8.7c0.5,0,0.9,0,1.4,0.5c1.4,0,3.2-0.9,4.1-2.3c0,0,0,0,0-0.5
	c0.5-0.5,0.5-0.9,0.5-1.4c0.5-0.9,0.5-2.3,0-3.2C275.7,437.9,274.8,437.4,273.4,437.4z"/>
<path class="st13" d="M257.4,253.7c3.2,2.3,8.2-0.5,7.3-4.6c0,0,0,0,0-0.5c-0.5-1.8-2.3-2.7-3.7-2.7h-0.5
	C256.5,246.5,253.8,251.5,257.4,253.7z"/>
<path class="st13" d="M229.6,431.5c0,0-0.5,0-0.9,0c-2.7-0.9-5.5,0.9-5.9,3.6c-0.5,2.7,1.8,5,4.6,4.6c0.5,0,0.5,0,0.9,0
	c1.8-0.5,3.2-1.8,3.7-3.6C231.9,433.8,230.9,432,229.6,431.5z"/>
<path class="st13" d="M227.3,265.1c3.2-2.7,0-7.7-3.7-7.7c-0.5,0-0.5,0-0.9,0c-1.8,0-4.1,1.4-3.7,3.6c0,0.5,0,0.5,0,0.9
	C219.1,265.1,224.1,267.9,227.3,265.1z"/>
<path class="st13" d="M194.9,282.5c5,0,7.8-8.7,1.8-8.7C191.7,273.8,188.9,282.5,194.9,282.5z"/>
<path class="st13" d="M191.2,408.7c-2.7-1.4-5.5,1.8-5,4.6c-0.5,4.1,4.6,5,7.3,2.7c1.4-0.9,1.8-2.3,1.8-4.1
	C194.9,410.5,193,408.7,191.2,408.7z"/>
<path class="st13" d="M177.5,305.7c5.5,0,4.6-8.7-0.5-8.7C172,296.6,172.5,305.7,177.5,305.7z"/>
<path class="st13" d="M169.3,375.4c-2.7-1.4-5.5,0.9-5,3.2c0,0.5,0.5,0.9,0.9,1.8c0.9,2.3,4.1,4.1,6.4,2.3c1.4-0.9,1.8-2.7,0.9-4.1
	C171.6,376.8,170.7,375.9,169.3,375.4z"/>
<path class="st13" d="M166.6,335.8c-1.8-1.8-5.5-1.4-6.4,1.4c-0.5,0.9-0.9,1.8-0.9,2.7c0,1.8,1.8,3.2,4.1,3.2
	C167,343.1,169.3,338.1,166.6,335.8z"/>
<circle class="st22" cx="497.7" cy="375.9" r="91.3"/>
<path class="st23" d="M444.7,443.9c0,0-4.7-10.8,29.8-39.4c5.4-0.1,12,17.7,5.6,27.5C472.7,441.3,446,449.5,444.7,443.9z"/>
<path class="st23" d="M539.3,385.8c0,0,10.5-2.9,21.4-1.4c10.9,1.4,25.2,10.6,21.5,19.2c-3.7,8.5-34.9,11.8-34.9,11.8L539.3,385.8z"
	/>
<path class="st16" d="M470.5,407c0,0-10.6-58.8,9.3-79.4c17.8-14.6,31.8-11,54.9,33.7c23.2,44.7,24.3,56.2,8.1,85.3
	c-16.1,29.2-9.9-2.4-21.8,7.6c-6.1,13.5-14.1,1.9-14.1,1.9l-4.7,0.3c-14.1,16.3-7.9,9.3-11,7.6c-8.4-4.6-12-1.5-12-1.5l-7.5-1.5
	C477.9,425.8,470.5,407,470.5,407z"/>
<path class="st24" d="M479.2,355.5c0,0,12.1-26.3,33.2-17.8c8,5.2,21.2,25.3-0.1,40.6c-19.2,12-33.6-5.8-33.3-15.7
	C479.2,357.3,479.2,355.5,479.2,355.5z"/>
<path class="st25" d="M483.6,363.3c2.1-2.7,4.3-5.2,6.7-7.7c2.3-2.6,4.7-4.9,7.3-7.2c1.3-1.1,2.7-2.2,4.3-2.9
	c1.7-0.6,3.6-0.7,5.2-0.5c3.4,0.4,6.7,1.2,9.8,2.5c-1.6-0.4-3.2-0.7-4.9-1c-1.7-0.3-3.3-0.5-5-0.6c-1.6,0-3.3,0.1-4.7,0.7
	c-1.4,0.5-2.6,1.7-4,2.9c-2.6,2.1-4.9,4.5-7.5,6.8C488.4,358.7,486.1,361.1,483.6,363.3z"/>
<path d="M478.2,362.4c1-1.1,0.9-2.9-0.2-3.9c-1.1-1-2.9-0.9-3.9,0.2c-1,1.1-0.9,2.9,0.2,3.9C475.4,363.7,477.2,363.6,478.2,362.4z"
	/>
<path d="M520.9,339.4c-0.9-1.3-2.3-1.8-3.3-1.1c-1,0.7-1,2.2-0.2,3.5c0.9,1.3,2.3,1.8,3.3,1.1C521.7,342.3,521.8,340.7,520.9,339.4z
	"/>
<path class="st6" d="M499.5,264.6c-56.8,2.8-106,48.2-108.8,105.3c-0.5,13.2,0.9,26,4.7,37.3c13.7,41.5,53.9,69.4,99.8,73.7
	c0.9,0,1.4,0,2.4,0c28.9,1.9,55.8-13.2,74.7-35.4c17-19.8,28.4-45.3,29.8-69.9c0-0.9,0-1.9,0-2.8
	C603.6,315.2,560.5,261.3,499.5,264.6z M539.2,278.8c2.4,0,4.3,2.8,4.3,5.2c0,0.9,0,1.4-0.5,2.4c-0.5,1.9-1.9,3.3-4.3,3.3
	c-1.9,0-3.3-1.9-4.3-3.8c0-0.9-0.5-1.4-0.5-2.4C535,280.7,536.9,278.3,539.2,278.8z M497.1,269.8c1.9,0,4.3,0.9,4.3,2.8
	c0,0,0,0,0,0.5c0.5,4.2-4.3,7.1-7.6,4.7C490,275,492.9,269.8,497.1,269.8z M457.9,280.7c0,0,0.5,0,0.9,0c3.8,0.5,7.1,5.2,3.8,8
	c-3.3,2.8-8.5,0-8.5-3.8c0,0,0-0.5,0-0.9C453.6,282.1,456,280.7,457.9,280.7z M430.9,298.2c5.7,0,3.3,9-1.9,9
	C422.9,307.1,425.7,298.2,430.9,298.2z M411,321.8c5.2,0,6.1,9,0.5,9C405.8,331.2,405.4,321.8,411,321.8z M392.1,366.6
	c0-0.9,0.5-1.9,0.9-2.4c0.9-2.8,4.7-3.3,6.6-1.4c2.8,2.4,0.5,7.6-3.3,7.6C394,369.9,392.1,368.5,392.1,366.6z M404.4,411
	c-2.4,1.9-5.2,0-6.6-2.4c-0.5-0.5-0.9-0.9-0.9-1.9c-0.5-2.8,2.8-4.7,5.2-3.3c1.4,0.5,2.8,1.4,3.3,2.8
	C406.3,408.2,405.8,410.1,404.4,411z M427.6,445.5c-2.8,2.4-8,0.9-7.6-2.8c-0.5-2.8,2.4-5.7,5.2-4.7c1.9,0,3.8,1.4,4.3,3.3
	C429.5,443.1,429,444.5,427.6,445.5z M463.6,469.5c-0.5,0-0.5,0-0.9,0c-2.8,0.9-5.2-1.9-4.7-4.7c0.5-2.8,3.3-4.7,6.1-4.2
	c0.5,0,0.5,0,0.9,0c1.9,0.5,2.8,2.4,2.4,4.2C466.9,467.6,465.4,469.1,463.6,469.5z M513.7,472.8c0,0.5-0.5,0.9-0.5,1.4
	c0,0,0,0,0,0.5c-0.9,1.4-2.8,2.4-4.3,2.4c-0.5,0-0.9,0-1.4-0.5c-6.6-2.4-1.9-10.9,2.8-9c1.4,0,2.4,0.9,3.3,1.9
	C514.2,470.5,514.2,471.4,513.7,472.8z M538.3,465.3C538.3,465.3,537.8,465.3,538.3,465.3c-3.3-1.9-3.3-6.6-0.5-8c0,0,0,0,0.5-0.5
	c3.3-1.9,7.1,1.9,7.1,4.7C544.9,465.3,541.1,467.2,538.3,465.3z M566.2,444.5c-1.9-0.5-3.3-1.4-3.8-3.3c0-1.4,0-2.8,0.9-4.2
	c0.5-0.9,1.9-0.9,2.8-1.4h0.5c2.8,0,4.7,2.4,4.7,5.2v0.5c0,0.9-0.5,1.9-1.4,2.4C569,444.5,567.6,445,566.2,444.5z M585.1,418.5
	c-5.2,0-4.3-6.6,0.5-6.6C590.8,411.9,589.9,418.5,585.1,418.5z M584.7,399.7c-5.7,14.2-13.2,26.4-22.7,36.4
	c-17.5,18.4-40.7,28.8-68.6,27.4c-36-1.9-73.3-23.1-86.1-57.1c0-0.5-0.5-0.9-0.5-1.9c-27.9-77.9,73.8-148.2,140.5-105.8
	c25.5,16.1,42.1,44.9,42.1,74.1C589.4,381.7,588,390.7,584.7,399.7z M601.2,372.8c0,0.5,0,0.9-0.5,1.4c-0.5,1.9-3.3,2.8-5.2,2.4
	c-0.5,0-0.9,0-1.4-0.5c-1.4-0.9-2.8-2.4-2.8-3.8v-0.5c0-1.4,1.4-2.4,2.8-3.3l0.5-0.5C597.4,368,601.2,369.9,601.2,372.8z
	 M586.5,330.3c1.4-0.9,3.3-1.9,4.7-1.4c2.8,0.9,3.8,3.3,2.4,5.7c-0.9,1.9-2.4,2.8-4.3,3.3c-1.9,0.9-4.3,0-5.2-2.4
	C583.7,334,584.7,331.7,586.5,330.3z M572.4,303.8c0,0.9-0.5,1.4-0.9,1.9c-1.4,2.4-4.7,3.8-7.1,1.9c-2.4-1.9-1.9-5.2,0.5-6.6
	c0.5-0.5,1.4-0.9,1.9-0.9C569.5,299.1,573.3,300.5,572.4,303.8z"/>
<path class="st13" d="M442.3,274.6c-41.2,24.1-63.4,70.8-56.8,118c4.3,30.7,21.3,60.4,48.2,76c76.2,43.4,139.5,11.8,166-53.3
	c17.5-43,8-95.8-25.1-128.9C539.7,250.5,484.4,250,442.3,274.6z M602.2,376.1c-0.9,24.6-12.3,50-29.8,69.9
	c-19.4,22.2-45.9,37.3-74.7,35.4c-0.9,0-1.4,0-2.4,0c-45.9-4.7-86.1-32.1-99.8-73.6c-3.8-11.3-5.7-24.1-4.7-37.3
	c3.3-57.6,52-102.4,108.8-105.3c61-2.8,104.1,50.5,102.6,108.6C602.2,374.2,602.2,375.1,602.2,376.1z"/>
<path class="st13" d="M547.3,298.6c-66.7-42.5-168.4,27.9-141,105.8c0.5,0.5,0.5,1.4,0.5,1.9c13.2,34.5,50.6,55.2,86.1,57.1
	c27.9,1.4,51.1-9,68.6-27.4c9.5-9.9,17-22.2,22.7-36.4c3.3-8.5,4.7-17.9,4.7-26.9C589.4,344,572.8,315.2,547.3,298.6z M581.8,357.6
	c4.3,24.1-3.8,47.2-18.4,66.1c-15.1,20.8-43.5,31.2-67.2,31.6c-36.9,0.9-74.7-20.8-85.1-60c-12.3-47.2,22.2-85,65.3-99.1
	C520.3,281.6,573.8,310.9,581.8,357.6z"/>
<path class="st13" d="M539.2,289.2c1.9,0,3.8-1.4,4.3-3.3c0-0.5,0-1.4,0-1.9c0-2.4-1.9-5.2-4.3-5.2c-2.4,0-4.7,2.4-4.3,4.7
	c0,0.9,0,1.4,0.5,2.4C535.9,287.3,537.3,289.2,539.2,289.2z"/>
<path class="st26" d="M477.1,298.3c-43,14.2-77.6,51.9-65.3,99.1c10.4,39.2,48.2,60.9,85.1,60c23.7-0.5,52-10.9,67.6-31.2
	c14.2-19.4,22.7-42.5,18.4-66.1C575,312.9,521.6,283.7,477.1,298.3z"/>
<path class="st20" d="M449,445.2c18.9,20.8,62-7.1,77.1-19.8c25.1-20.3,48.2-51,48.7-84c19.9,20.3-3.3,71.8-18.4,88.8
	c-13.2,15.1-30.7,20.3-49.7,25C493,458.4,464.6,460.7,449,445.2z"/>
<path class="st21" d="M491.6,301.5c-36.4,0.8-68.5,32.4-76.4,61.8c-1.9,6.6,8.4,6.6,10.7,1.7c6.5-12.4,15.8-24.1,27.5-32.8
	c12.1-9.1,25.2-12,39.2-17.4C499.5,312.7,500,301.5,491.6,301.5z"/>
<path class="st13" d="M593.6,369c-1.4,0.5-2.4,1.4-2.8,3.3v0.5c0,1.9,1.4,3.3,2.8,3.8c0.5,0,0.9,0.5,1.4,0.5
	c1.9,0.5,4.7-0.5,5.2-2.4c0-0.5,0.5-0.9,0.5-1.4c0-3.3-3.3-4.7-6.6-4.2C594.1,369,594.1,369,593.6,369z"/>
<path class="st13" d="M589.9,338.3c1.9-0.5,3.3-1.4,4.3-3.3c0.9-2.4,0.5-5.2-2.4-5.7c-1.9-0.5-3.3,0.5-4.7,1.4
	c-1.9,0.9-2.8,3.8-1.9,5.7C585.6,338.3,587.5,339.2,589.9,338.3z"/>
<path class="st13" d="M585.6,411.9c-4.7,0-5.7,6.6-0.5,6.6C589.9,418.6,590.8,411.9,585.6,411.9z"/>
<path class="st13" d="M566.7,300c-0.9,0-1.4,0.5-2.4,0.9c-2.4,1.4-2.8,5.2-0.5,6.6c2.4,1.9,5.7,0.5,7.1-1.9c0.5-0.5,0.5-1.4,0.9-1.9
	C573.3,300.5,569.5,299.1,566.7,300z"/>
<path class="st13" d="M566.7,436h-0.5c-1.4,0-2.4,0.5-2.8,1.4c-0.9,0.9-1.4,2.8-0.5,4.2c0.5,1.4,1.9,2.8,3.3,3.3c0,0,0,0,0.5,0
	c0.9,0.5,2.8,0,3.8-0.9c0.9-0.5,1.4-1.4,1.4-2.4v-0.5C571.4,438.4,569.5,436,566.7,436z"/>
<path class="st13" d="M538.3,456.8C537.8,456.8,537.8,456.8,538.3,456.8c-2.8,1.9-3.3,6.6,0,8.5c0,0,0,0,0.5,0
	c2.8,1.9,6.6,0.5,6.6-3.8C544.9,458.7,541.1,454.4,538.3,456.8z"/>
<path class="st13" d="M510.4,467.7c-5.2-1.4-9.5,6.6-3.3,9c0.5,0,0.9,0,1.4,0.5c1.4,0,3.3-0.9,4.3-2.4c0,0,0,0,0-0.5
	c0.5-0.5,0.5-0.9,0.5-1.4c0.5-0.9,0.5-2.4,0-3.3C512.8,468.1,511.8,467.7,510.4,467.7z"/>
<path class="st13" d="M493.8,277.4c3.3,2.4,8.5-0.5,7.6-4.7c0,0,0,0,0-0.5c-0.5-1.9-2.4-2.8-3.8-2.8h-0.5
	C492.9,269.8,490,275,493.8,277.4z"/>
<path class="st13" d="M465,461.5c0,0-0.5,0-0.9,0c-2.8-0.9-5.7,0.9-6.1,3.8c-0.5,2.8,1.9,5.2,4.7,4.7c0.5,0,0.5,0,0.9,0
	c1.9-0.5,3.3-1.9,3.8-3.8C467.3,463.9,466.4,462,465,461.5z"/>
<path class="st13" d="M462.6,289.2c3.3-2.8,0-8-3.8-8c-0.5,0-0.5,0-0.9,0c-1.9,0-4.3,1.4-3.8,3.8c0,0.5,0,0.5,0,0.9
	C454.1,289.2,459.3,292,462.6,289.2z"/>
<path class="st13" d="M429,307.1c5.2,0,8-9,1.9-9C425.7,298.2,422.9,307.1,429,307.1z"/>
<path class="st13" d="M425.2,437.9c-2.8-1.4-5.7,1.9-5.2,4.7c-0.5,4.2,4.7,5.2,7.6,2.8c1.4-0.9,1.9-2.4,1.9-4.2
	C429,439.8,427.1,437.9,425.2,437.9z"/>
<path class="st13" d="M411,331.2c5.7,0,4.7-9-0.5-9C405.4,321.8,405.8,331.2,411,331.2z"/>
<path class="st13" d="M402.5,403.4c-2.8-1.4-5.7,0.9-5.2,3.3c0,0.5,0.5,0.9,0.9,1.9c0.9,2.4,4.3,4.2,6.6,2.4
	c1.4-0.9,1.9-2.8,0.9-4.2C404.9,404.9,404,403.9,402.5,403.4z"/>
<path class="st13" d="M399.7,362.4c-1.9-1.9-5.7-1.4-6.6,1.4c-0.5,0.9-0.9,1.9-0.9,2.8c0,1.9,1.9,3.3,4.3,3.3
	C400.2,369.9,402.5,364.7,399.7,362.4z"/>
<path class="st16" d="M379.9,204.2c-0.3,0-0.7,0-1,0c-0.3,0-0.6-0.1-0.9-0.1c-0.3,0-0.6-0.1-0.8-0.2c-0.3-0.1-0.6-0.2-0.9-0.4
	c-0.3-0.1-0.6-0.3-0.8-0.5c-0.2-0.2-0.3-0.3-0.3-0.4c0,0,0,0,0,0c0,0,0,0,0,0c0,0,0,0,0-0.1c0,0,0-0.1,0-0.2c0,0,0-0.1,0-0.1
	c0,0,0-0.1,0-0.1c0,0,0-0.1,0-0.2c0,0,0-0.1,0.1-0.2c0-0.1,0.1-0.1,0.1-0.2c0,0,0.1-0.1,0.2-0.1c0.1,0,0.2,0,0.5,0
	c0.2,0,0.4,0,0.7,0.1c0.3,0.1,0.6,0.1,0.9,0.2s0.7,0.2,1.1,0.2c0.4,0.1,0.8,0.1,1.2,0.1c1.2,0,2.1-0.4,2.8-1.2
	c0.7-0.8,1.1-1.9,1.2-3.3l-0.7-0.1c-0.3,0-0.6,0-0.8,0c-0.3,0-0.5,0-0.7,0c-0.3,0-0.6,0-1,0c-0.3,0-0.7,0-1,0c-0.3,0-0.6,0-0.9,0
	c-0.3,0-0.5,0-0.6,0c-0.1,0-0.2,0-0.3,0c0,0-0.1-0.1-0.2-0.1c-0.1,0-0.1-0.1-0.2-0.2c0-0.1-0.1-0.2-0.1-0.3c0,0,0-0.1,0-0.1
	c0,0,0-0.1,0-0.2c0-0.1,0-0.2,0-0.3c0-0.1,0-0.2,0.1-0.2c0-0.1,0.1-0.1,0.3-0.2c0,0,0.1-0.1,0.1-0.1c0,0,0.1-0.1,0.1-0.1l0.3,0
	c0.1,0,0.3,0,0.5,0c0.2,0,0.4,0,0.6,0c0.4,0,0.9,0,1.3,0c0.4,0,0.7,0,0.8,0c0.3,0,0.6,0,1.1,0c0.4,0,0.8,0,1.2,0.1
	c0-0.5-0.2-1.1-0.3-1.6c-0.1-0.5-0.4-1-0.6-1.4c-0.3-0.4-0.6-0.7-1.1-1c-0.4-0.3-0.9-0.4-1.5-0.4c-0.1,0-0.3,0-0.5,0
	c-0.2,0-0.4,0-0.6,0.1c-0.2,0-0.4,0.1-0.6,0.2c-0.2,0.1-0.3,0.2-0.5,0.3c-0.1,0.1-0.2,0.2-0.4,0.3c-0.1,0.1-0.3,0.1-0.5,0.1
	c-0.1,0-0.1,0-0.2,0c-0.1,0-0.2,0-0.2,0c-0.1,0-0.3,0-0.3-0.1c-0.1-0.1-0.2-0.2-0.2-0.3c0-0.1-0.1-0.1-0.1-0.2c0-0.1,0-0.1-0.1-0.1
	c0,0,0-0.1,0-0.1s0-0.1,0-0.1c0-0.3,0.1-0.5,0.4-0.8c0.3-0.3,0.6-0.5,1-0.7c0.4-0.2,0.8-0.4,1.3-0.5c0.5-0.1,0.9-0.2,1.3-0.2
	c0.3,0,0.6,0,0.8,0c0.3,0,0.5,0.1,0.8,0.1c0.1,0,0.2,0,0.3,0c0.1,0,0.2,0,0.2,0c0.1,0,0.1,0,0.1,0c0.1,0.1,0.2,0.1,0.4,0.2
	c0.2,0,0.3,0.1,0.4,0.1c0,0,0.1,0.1,0.2,0.2c0.1,0.1,0.2,0.1,0.3,0.1c0,0.1,0,0.1,0,0.1s0.1,0,0.1,0l0.1,0c0,0,0,0.1,0.1,0.1
	c0,0,0.1,0,0.1,0c0,0,0.1,0.1,0.2,0.2c0.1,0.1,0.2,0.2,0.3,0.2c0,0.1,0.1,0.2,0.1,0.3c0,0.1,0.1,0.2,0.1,0.2c0.1,0,0.1,0.1,0.2,0.2
	c0.1,0.1,0.1,0.2,0.2,0.3l0.1,0.2c0.6,1.2,1,2.7,1,4.5c0,0.9-0.1,1.8-0.2,2.6c-0.1,0.8-0.4,1.5-0.7,2.2c-0.1,0.2-0.3,0.4-0.5,0.7
	c-0.1,0.1-0.2,0.2-0.3,0.4c-0.1,0.1-0.2,0.3-0.3,0.4c-0.1,0.1-0.2,0.2-0.2,0.3c0,0.1-0.1,0.2-0.2,0.2
	C382.7,203.8,381.5,204.2,379.9,204.2z M391.9,198c0.2-0.1,0.4-0.3,0.6-0.5c0.2-0.2,0.4-0.3,0.6-0.5l2.4-2.1
	c0.1-0.1,0.2-0.2,0.3-0.2c0.1-0.1,0.2-0.2,0.3-0.2c0.2-0.2,0.4-0.3,0.5-0.3c0.1,0,0.3,0,0.3,0c0.1,0,0.2,0.1,0.3,0.2
	c0.1,0.1,0.2,0.2,0.2,0.3c0,0.1,0,0.1,0,0.2c0,0,0,0.1,0,0.1c0,0,0,0.1,0,0.2c0,0.2,0,0.3-0.1,0.5c-0.1,0.1-0.2,0.2-0.2,0.3
	c-0.1,0.1-0.2,0.2-0.4,0.4c-0.2,0.2-0.4,0.3-0.6,0.5c-0.1,0.1-0.2,0.2-0.4,0.3c-0.2,0.2-0.4,0.3-0.6,0.5s-0.4,0.4-0.7,0.6
	c-0.2,0.2-0.4,0.3-0.5,0.4l-0.7,0.6c0,0-0.1,0.1-0.1,0.1c0,0,0,0,0,0.1c0,0,0,0.1,0.1,0.1l3.2,2.9c0.1,0.1,0.3,0.2,0.4,0.4
	c0.1,0.2,0.2,0.3,0.3,0.4c0,0.1,0,0.1,0,0.1c0,0,0,0.1,0,0.1c0,0.1,0,0.1,0,0.2c0,0,0,0.1,0,0.2c0,0.1,0,0.2,0,0.2c0,0,0,0.1,0,0.2
	c0,0.1-0.1,0.1-0.1,0.2c0,0-0.1,0.1-0.3,0.1c-0.1,0-0.2,0.1-0.3,0.1c-0.1,0-0.1,0-0.2-0.1s-0.1,0-0.2,0c-0.1,0-0.2,0-0.4-0.1
	c-0.1-0.1-0.3-0.2-0.4-0.3c-0.1-0.1-0.2-0.2-0.4-0.3c-0.1-0.1-0.2-0.2-0.3-0.2c-0.1-0.1-0.3-0.3-0.5-0.4c-0.1-0.1-0.3-0.2-0.4-0.4
	l-1.5-1.7c-0.2-0.2-0.3-0.4-0.5-0.6c-0.1-0.2-0.2-0.4-0.3-0.5l0-0.1c0,0,0,0,0-0.1c0,0,0-0.1,0-0.1c0,0,0-0.1,0-0.1c0,0,0-0.1,0-0.1
	c0,0,0,0,0,0c0,0,0,0.1,0,0.2c-0.1,0.4-0.2,0.7-0.2,1c0,0.3-0.1,0.6-0.1,0.8l-0.4,1.8c0,0.1,0,0.2-0.1,0.3c0,0.2-0.1,0.3-0.1,0.5
	c0,0.2-0.1,0.3-0.1,0.4c0,0.1-0.1,0.2-0.1,0.2c-0.1,0.1-0.2,0.1-0.4,0.1c-0.1,0-0.3,0-0.4-0.1c-0.1,0-0.2-0.1-0.2-0.1
	c0,0-0.1-0.1-0.1-0.1c0,0-0.1-0.1-0.1-0.1c0,0-0.1-0.1-0.1-0.1c0-0.1-0.1-0.3-0.1-0.4c0-0.1,0-0.3,0-0.5c0-0.1,0-0.2,0-0.3
	c0-0.1,0-0.2,0-0.4c0-0.2,0-0.4,0.1-0.8c0-0.3,0.1-0.6,0.1-0.8c0-0.2,0.1-0.5,0.2-0.9c0.1-0.4,0.2-0.8,0.3-1.2
	c0.1-0.4,0.2-0.8,0.3-1.2c0.1-0.4,0.2-0.7,0.2-0.9c0-0.2,0.1-0.4,0.2-0.6c0.1-0.3,0.2-0.6,0.2-0.8c0.1-0.3,0.2-0.6,0.2-0.8
	s0.1-0.4,0.1-0.5c0,0,0-0.1,0-0.1c0-0.1,0-0.1,0-0.1c0,0,0-0.1,0-0.1c0,0,0-0.1,0-0.1c0,0,0-0.1,0-0.1c0,0,0.1-0.1,0.1-0.1
	c0,0,0.1-0.1,0.1-0.1c0.1,0,0.3,0,0.4,0c0.1,0,0.2,0.1,0.3,0.1c0.2,0.1,0.3,0.3,0.4,0.5c0,0.1,0.1,0.2,0.2,0.4
	c0.1,0.2,0.1,0.3,0.1,0.4c0,0.2,0,0.4-0.1,0.6c0,0.2-0.1,0.5-0.2,0.7c-0.1,0.2-0.1,0.5-0.2,0.7c-0.1,0.2-0.1,0.5-0.2,0.6L391.9,198z
	 M405.8,196.6c-0.1,0-0.1,0-0.2,0c-0.2,0-0.3,0-0.3,0.1v0c0,0,0,0,0,0c-0.2,0.1-0.4,0.1-0.8,0.1c-0.4,0-0.9,0.1-1.3,0.3
	c-0.4,0.2-0.8,0.4-1.1,0.7c-0.3,0.3-0.6,0.6-0.8,1c-0.2,0.4-0.3,0.7-0.3,1c0,0.5,0.1,0.8,0.4,1c0.3,0.2,0.6,0.3,1.1,0.3
	c0.3,0,0.6,0,0.8-0.1c0.2-0.1,0.4-0.2,0.6-0.3c0.2-0.1,0.3-0.2,0.4-0.3c0.1-0.1,0.3-0.2,0.5-0.2c0,0,0.1,0,0.1,0c0,0,0,0,0,0
	s0.1,0,0.1,0c0,0,0,0,0,0c0,0,0,0,0.1,0c0.1,0,0.1,0.1,0.1,0.2c0,0.1,0.1,0.1,0.1,0.2c0.1,0.1,0.1,0.2,0.2,0.2s0.1,0.2,0.1,0.3
	c0,0.2-0.1,0.4-0.2,0.7c-0.1,0.2-0.3,0.5-0.5,0.7c-0.2,0.2-0.5,0.4-0.9,0.5c-0.4,0.1-0.9,0.2-1.4,0.2c-0.5,0-0.8,0-1.2-0.1
	c-0.3-0.1-0.6-0.2-0.9-0.4c0,0,0-0.1-0.1-0.1c0-0.1-0.1-0.1-0.1-0.1c0,0,0-0.1,0-0.1c0,0,0,0,0-0.1c0,0-0.1-0.1-0.1-0.1c0,0,0,0,0,0
	h0c0,0,0,0,0,0c0,0,0,0,0,0c0,0-0.1,0-0.1,0c0,0,0,0,0,0c0,0,0,0,0,0c-0.5-0.6-0.7-1.3-0.7-2.3c0-0.1,0-0.2,0-0.3c0-0.1,0-0.2,0-0.3
	l0.1-0.4c0.1-0.6,0.3-1.1,0.6-1.6c0.3-0.5,0.7-1,1.1-1.4c0.4-0.4,0.9-0.7,1.4-1s1-0.4,1.6-0.4s1,0.1,1.2,0.4
	c0.3,0.2,0.4,0.5,0.5,0.8c0,0,0,0.1,0.1,0.2c0,0.1,0.1,0.2,0.1,0.2c0,0-0.1,0.1-0.2,0.1c-0.1,0-0.1,0.1-0.2,0.1L405.8,196.6z
	 M416.6,204.4l-0.4-0.1c-0.1-0.1-0.3-0.2-0.4-0.2c-0.2-0.1-0.4-0.3-0.5-0.6c-0.1-0.2-0.3-0.4-0.4-0.7c-0.1-0.3-0.2-0.5-0.2-0.7
	c0-0.3-0.1-0.5-0.1-0.7c0-0.3,0-0.7,0-1.1c0-0.4,0.1-0.9,0.1-1.2c0-0.1,0-0.1-0.1-0.1c0,0-0.1,0-0.1,0c0,0-0.1,0-0.2,0.1
	c-0.2,0.1-0.5,0.4-0.9,0.7c-0.4,0.3-0.7,0.7-1.1,1.1c-0.2,0.2-0.4,0.4-0.6,0.6c-0.2,0.2-0.4,0.4-0.6,0.7c-0.2,0.2-0.3,0.4-0.5,0.6
	c-0.1,0.2-0.2,0.3-0.2,0.4c-0.1,0.2-0.2,0.3-0.3,0.4c-0.1,0.1-0.2,0.1-0.3,0.1c0,0-0.1,0-0.1,0c0,0-0.1,0-0.2,0
	c-0.2,0-0.3,0-0.4-0.1c-0.1,0-0.2-0.2-0.3-0.3c-0.1-0.1-0.1-0.3-0.2-0.6c0-0.2,0-0.6,0-1.1c0-0.6,0-1.2,0.1-2s0.2-1.7,0.3-2.6
	l0.1-0.8c0-0.1,0-0.2,0-0.3c0-0.1,0.1-0.1,0.1-0.2c0,0,0-0.1,0-0.1c0-0.1,0-0.1,0.1-0.1c0,0,0.1-0.1,0.1-0.1c0,0,0.1-0.1,0.2-0.1
	c0,0,0.1-0.1,0.3-0.1c0,0,0.1,0,0.1,0c0.1,0,0.1,0,0.2,0c0,0,0.1,0,0.1,0c0.2,0,0.3,0.1,0.4,0.2c0.1,0.1,0.2,0.2,0.2,0.3
	c0,0.1,0,0.2,0,0.3v0.3c0,0.2,0,0.5-0.1,0.8c0,0.3-0.1,0.6-0.2,1c-0.1,0.3-0.1,0.6-0.2,0.9c0,0.3-0.1,0.6-0.1,0.7
	c0.3-0.5,0.8-1,1.3-1.5l0.4-0.4c0.1-0.1,0.1-0.2,0.2-0.2s0.1-0.1,0.1-0.1c0.1-0.1,0.2-0.2,0.3-0.2c0.1-0.1,0.2-0.1,0.3-0.2l0.5-0.4
	c0,0,0.1-0.1,0.2-0.1c0.1,0,0.2-0.1,0.3-0.1l0.2-0.1c0.1,0,0.2,0,0.3,0s0.2,0,0.3,0c0.3,0,0.5,0,0.7,0.1c0.2,0.1,0.4,0.2,0.5,0.4
	c0.1,0.1,0.2,0.3,0.3,0.5c0.1,0.2,0.1,0.4,0.1,0.6v0.1c0,0.3-0.1,0.6-0.1,0.8c0,0.2,0,0.4-0.1,0.7c0,0.2,0,0.4,0,0.6
	c0,0.2,0,0.4,0,0.7c0,0.2,0,0.5,0,0.8c0,0.3,0.1,0.6,0.3,0.9c0.1,0.1,0.1,0.2,0.2,0.3c0,0,0.1,0.1,0.1,0.1c0,0,0.1,0.1,0.1,0.1
	c0.1,0.1,0.2,0.2,0.2,0.3c0,0.1,0.1,0.2,0.1,0.2c0,0.2-0.1,0.3-0.1,0.3c0,0.1-0.1,0.2-0.2,0.2c-0.1,0.1-0.2,0.1-0.3,0.2L416.6,204.4
	z M422.3,201.5c-0.2,0-0.4,0-0.5,0c-0.1,0-0.2,0-0.3,0s-0.2,0-0.3,0c-0.1,0-0.2,0-0.4,0c-0.3,0-0.4-0.1-0.6-0.2
	c-0.1-0.1-0.2-0.2-0.3-0.4c-0.1-0.1-0.1-0.2-0.1-0.2c0,0,0-0.1,0-0.1c0,0,0,0,0,0c0,0,0,0,0-0.1c0,0,0,0,0-0.1c0,0,0-0.1,0-0.2
	c0,0,0,0,0-0.1c0,0,0-0.1,0-0.1c0,0,0,0,0-0.1c0,0,0,0,0,0c0,0,0,0,0,0c0-0.2,0.2-0.4,0.4-0.5c0.2-0.1,0.4-0.2,0.7-0.2
	c0.3,0,0.5,0,0.7,0.1c0.2,0,0.4,0,0.6,0c0-0.6,0.1-1.2,0.3-1.8c0.2-0.6,0.4-1.1,0.7-1.5c0.3-0.4,0.6-0.8,1.1-1
	c0.4-0.3,0.9-0.4,1.5-0.4c0.1,0,0.2,0,0.3,0c0.1,0,0.2,0,0.2,0.1l0.4,0.1c0.1,0,0.2,0.1,0.2,0.1c0.1,0,0.2,0.1,0.2,0.1
	c0.1,0.1,0.2,0.1,0.2,0.2c0.1,0.1,0.2,0.2,0.2,0.3c0.2,0.3,0.3,0.7,0.3,1.2c0,0.4-0.1,0.8-0.3,1.2c-0.2,0.4-0.4,0.8-0.7,1.2
	c-0.3,0.4-0.7,0.7-1.1,1c-0.4,0.3-0.8,0.5-1.3,0.7c0.3,0.3,0.7,0.5,1.2,0.5c0.4,0,0.8,0,1.1-0.1c0.3-0.1,0.6-0.1,1-0.1
	c0.1,0,0.2,0,0.3,0c0.1,0,0.2,0,0.2,0c0,0,0,0.1,0.1,0.1c0.1,0,0.1,0.1,0.2,0.2c0,0,0,0.1,0,0.1c0,0,0,0.1,0,0.1c0,0,0,0,0,0.1
	c0,0,0,0.1,0,0.1c0,0,0,0.1,0,0.2c0,0.1,0,0.1,0,0.1c0,0-0.1,0.1-0.1,0.1c0,0.1,0,0.1,0,0.2c0,0,0,0.1,0,0.1c-0.1,0-0.3,0.2-0.6,0.4
	c-0.1,0.1-0.1,0.1-0.2,0.1c0,0-0.1,0-0.1,0.1c0,0-0.1,0-0.1,0c0,0-0.1,0-0.1,0c-0.1,0-0.1,0-0.1,0c0,0,0,0,0,0c0,0,0,0,0,0
	c0,0,0,0,0,0c0,0,0,0,0,0c0,0-0.1,0-0.1,0c0,0-0.1,0-0.2,0c-0.1,0-0.2,0-0.2,0c0,0-0.1,0-0.2,0s-0.1,0-0.2,0c-0.1,0-0.2,0-0.4,0
	c-0.6,0-1.2-0.2-1.8-0.5c-0.6-0.4-1-0.9-1.3-1.5H422.3z M425.7,196.8c0,0-0.1,0-0.1,0c-0.2,0-0.4,0.1-0.6,0.4
	c-0.2,0.2-0.4,0.5-0.5,0.7c-0.1,0.2-0.1,0.3-0.2,0.5c0,0.2-0.1,0.4-0.1,0.6c0.2,0,0.4-0.1,0.6-0.2c0.2-0.1,0.4-0.3,0.6-0.4
	c0.2-0.2,0.3-0.4,0.5-0.6c0.1-0.2,0.2-0.4,0.2-0.6C425.9,197.1,425.9,197,425.7,196.8L425.7,196.8z M431.2,213.8
	c-0.1-0.2-0.2-0.5-0.2-0.7c0-0.2,0-0.6,0-1c0-0.4,0-0.9,0.1-1.4c0-0.5,0.1-1.1,0.1-1.8c0-0.3,0-0.6,0.1-1c0-0.4,0.1-0.9,0.2-1.4
	c-0.1,0-0.2,0-0.3-0.1c-0.1-0.1-0.1-0.1-0.2-0.2c-0.1-0.2-0.2-0.4-0.2-0.6c0-0.2,0-0.3,0-0.5c0-0.1,0.1-0.3,0.2-0.4
	c0-0.1,0-0.2,0.1-0.4c0.1-0.1,0.1-0.3,0.2-0.4l0.6-0.8l0.2-1.3c0.1-0.7,0.3-1.5,0.5-2.4c0.2-0.9,0.5-1.9,0.8-2.9
	c0.1-0.3,0.3-0.7,0.4-1.1c0.2-0.4,0.4-0.7,0.6-1.1c0.2-0.3,0.5-0.6,0.7-0.8c0.3-0.2,0.6-0.3,0.8-0.3c0.3,0,0.6,0.1,0.9,0.3
	c0.3,0.2,0.5,0.4,0.6,0.7c0.2,0.3,0.3,0.6,0.4,0.9c0.1,0.3,0.1,0.7,0.1,1c0,0.5-0.1,1-0.2,1.4c-0.1,0.5-0.3,0.9-0.5,1.4
	c-0.2,0.4-0.4,0.8-0.7,1.2c-0.2,0.4-0.5,0.7-0.7,1l-2.6,3.4c0,0,0,0.1,0,0.2c0,0.3-0.1,0.7-0.1,1.1c0,0.4-0.1,0.8-0.1,1.1
	c0,0.4-0.1,0.7-0.1,0.9c0,0.3,0,0.5,0,0.6c-0.1,0.9-0.1,1.6-0.2,2.2c0,0.6,0,1.1,0,1.4c0,0.1,0,0.2,0,0.4c0,0.2-0.1,0.3-0.1,0.5
	c0,0.1-0.1,0.3-0.2,0.4c0,0.1-0.1,0.3-0.1,0.3c-0.1,0.2-0.2,0.3-0.3,0.3c-0.1,0.1-0.2,0.1-0.2,0.1c-0.1,0-0.3,0-0.4-0.1
	C431.5,214.1,431.4,214,431.2,213.8z M434.3,200.6c0.3-0.3,0.5-0.7,0.7-1.1c0.2-0.4,0.4-0.8,0.6-1.2c0.2-0.4,0.3-0.8,0.4-1.1
	c0.1-0.4,0.2-0.7,0.2-1c0-0.3-0.1-0.4-0.3-0.4c-0.1,0-0.2,0.1-0.3,0.3c-0.1,0.2-0.2,0.4-0.3,0.7c-0.1,0.3-0.2,0.6-0.3,0.9
	c-0.1,0.3-0.2,0.6-0.3,0.9c-0.1,0.3-0.2,0.6-0.2,0.8c-0.1,0.3-0.1,0.5-0.1,0.6L434.3,200.6z M455.1,203.1c-0.1,0.6-0.4,0.9-1,0.9
	c0,0-0.1,0-0.1,0c0,0-0.1,0-0.1,0c0,0-0.1,0-0.1-0.1c-0.1,0-0.1,0-0.2,0c-0.1,0-0.1,0-0.2,0c0,0-0.1-0.1-0.1-0.1c0,0,0-0.1-0.1-0.1
	c-0.1-0.1-0.2-0.2-0.3-0.4c0-0.1-0.1-0.1-0.1-0.2c0-0.1-0.1-0.2-0.1-0.2c-0.1-0.2-0.1-0.3-0.2-0.5c0-0.1-0.1-0.3-0.1-0.5
	c0-0.2,0-0.3,0-0.5s0-0.4,0-0.7v-0.2c0-0.1-0.1-0.1-0.1-0.1c-0.1,0-0.1,0-0.1,0c0,0-0.1,0.1-0.3,0.2c-0.2,0.1-0.4,0.3-0.6,0.6
	c-0.3,0.2-0.5,0.5-0.9,0.8c-0.3,0.3-0.6,0.6-1,0.9c-0.1,0.1-0.3,0.3-0.5,0.5c-0.2,0.2-0.4,0.2-0.7,0.2c-0.1,0-0.2,0-0.4-0.1
	c-0.2,0-0.3-0.1-0.4-0.1l-0.1-0.1c-0.1-0.2-0.2-0.4-0.3-0.6c-0.1-0.2-0.1-0.6-0.2-1c0-0.1,0-0.3,0-0.5c0-0.2,0-0.3,0-0.5
	c0-0.1,0-0.2,0-0.3c0-0.1,0-0.2,0-0.3c0-0.1-0.1-0.1-0.1-0.1c-0.1,0-0.2,0-0.2,0c-0.1,0-0.2,0.1-0.2,0.1c-0.1,0-0.2,0.1-0.3,0.3
	c-0.2,0.2-0.4,0.4-0.6,0.6c-0.2,0.2-0.5,0.5-0.8,0.8c-0.3,0.3-0.6,0.7-0.9,1c-0.3,0.3-0.5,0.5-0.6,0.7c0,0.1-0.1,0.1-0.1,0.2
	c0,0.1-0.1,0.2-0.1,0.2c0,0.1-0.1,0.1-0.1,0.2c0,0,0,0.1-0.1,0.1c-0.1,0.1-0.2,0.1-0.3,0.1c-0.1,0-0.2,0-0.3,0
	c-0.3,0-0.5-0.1-0.8-0.4c-0.3-0.3-0.4-0.7-0.4-1.1c0-0.2,0-0.5,0.1-0.8c0-0.4,0.1-0.7,0.2-1.1c0.1-0.4,0.1-0.7,0.2-1.1
	c0.1-0.4,0.1-0.6,0.2-0.9c0-0.2,0.1-0.5,0.1-0.8c0.1-0.3,0.1-0.6,0.2-0.9c0.1-0.3,0.1-0.6,0.1-0.8c0-0.2,0.1-0.4,0.1-0.5
	c0-0.1,0-0.3-0.1-0.5c0-0.1,0.1-0.2,0.1-0.2c0.1-0.1,0.2-0.2,0.2-0.2c0.1-0.1,0.2-0.1,0.3-0.1c0.1,0,0.3,0,0.4,0.1
	c0.3,0.1,0.5,0.3,0.6,0.5c0.1,0.2,0.2,0.5,0.3,0.8l0,0.1c0,0.1,0,0.2,0,0.2v0.1c0,0,0,0,0,0c0,0.4,0,0.7-0.1,1s-0.2,0.7-0.3,1.1
	c0,0.2-0.1,0.3-0.1,0.5c0,0.2,0,0.3,0,0.4s0,0.1,0.1,0.1c0.1,0,0.2,0,0.2-0.1c0.1-0.1,0.1-0.1,0.2-0.2c0.4-0.5,0.8-1,1.3-1.4
	c0.4-0.5,0.9-0.9,1.3-1.3c0.2-0.1,0.3-0.2,0.4-0.3c0.1-0.1,0.2-0.1,0.3-0.1c0.4,0,0.7,0.1,1,0.3c0.3,0.2,0.4,0.4,0.5,0.6
	c0.1,0.2,0.1,0.4,0.2,0.6c0,0.1,0,0.3,0,0.4c0,0.2,0,0.5,0,0.8c0,0.3,0,0.5,0,0.7c0,0.2,0,0.3,0.1,0.3c0.1,0,0.1,0.1,0.2,0.1
	c0,0,0.1,0,0.2-0.1c0.1-0.1,0.2-0.2,0.3-0.3c0.1-0.1,0.3-0.2,0.4-0.3c0.1-0.1,0.3-0.2,0.4-0.3c0.4-0.4,0.8-0.7,1.2-1
	c0.4-0.3,0.7-0.6,0.8-0.7c0.1-0.1,0.3-0.2,0.4-0.2c0.1,0,0.2-0.1,0.4-0.1c0.1,0,0.3,0.1,0.4,0.2c0.2,0.1,0.3,0.3,0.4,0.5
	c0.1,0.2,0.2,0.4,0.3,0.6s0.1,0.4,0.1,0.5c0,0.3,0,0.5,0,0.9c0,0.3,0,0.6,0,0.9c0,0.1,0,0.3,0,0.5c0,0.2,0.1,0.3,0.1,0.4
	c0,0.2,0.1,0.3,0.2,0.5c0.1,0.1,0.2,0.3,0.3,0.5l0.2,0.2l0.1,0.1c0,0,0,0,0,0v0c0,0,0,0.1,0,0.1c0,0,0,0,0,0V203.1z M459.1,204.4
	c-0.2,0-0.3,0-0.5-0.1c-0.1-0.1-0.2-0.2-0.3-0.4c0-0.1-0.1-0.2-0.1-0.2c0-0.1,0-0.2,0-0.3c0-0.1-0.1-0.3-0.1-0.4
	c0-0.2-0.1-0.3-0.1-0.5c0-0.3,0-0.5,0-0.7c0-0.2,0.1-0.6,0.1-1c0-0.1,0-0.2,0.1-0.4c0-0.2,0.1-0.3,0.1-0.4c0,0,0-0.1,0-0.2
	c0-0.1,0-0.2,0-0.3c0-0.1,0-0.2,0-0.3c0-0.1,0-0.3,0.1-0.4c0-0.1,0-0.1,0-0.2c0-0.1,0-0.1,0-0.2c0-0.3,0.1-0.6,0.1-1
	c0-0.4,0-0.7,0-1.1c0-0.1,0-0.3,0-0.4c0-0.1,0-0.3,0-0.5c0-0.3,0.1-0.5,0.2-0.6c0-0.1,0.1-0.1,0.2-0.1c0.1,0,0.2-0.1,0.3-0.1
	c0.1,0,0.2-0.1,0.2-0.1c0.1,0,0.2,0,0.3,0c0.2,0,0.3,0,0.4,0.1c0.1,0,0.2,0.1,0.3,0.1c0.1,0,0.1,0.1,0.1,0.2c0,0.1,0,0.2,0,0.2
	c0.1,0,0.1,0.1,0.1,0.2c0,0.1,0,0.2,0,0.3c0,0.3-0.1,0.7-0.2,1.2c-0.1,0.5-0.2,1-0.3,1.6c0.1-0.3,0.3-0.5,0.5-0.7
	c0.2-0.2,0.4-0.5,0.7-0.6c0.1-0.1,0.3-0.2,0.5-0.2c0.2-0.1,0.3-0.2,0.5-0.2c0.2,0,0.3-0.1,0.5-0.1s0.3-0.1,0.5-0.1
	c0.4,0,0.7,0.1,1,0.2c0.3,0.1,0.6,0.3,0.8,0.6c0.2,0.2,0.4,0.5,0.5,0.8c0.1,0.3,0.2,0.7,0.2,1c0,1-0.2,1.9-0.6,2.6
	c-0.4,0.7-1,1.3-1.6,1.7c-0.6,0.4-1.4,0.8-2.2,1C460.6,204.3,459.8,204.4,459.1,204.4z M460.5,202.2c0.5,0,0.9-0.1,1.3-0.2
	c0.4-0.2,0.8-0.4,1.1-0.7c0.3-0.3,0.5-0.6,0.7-1s0.2-0.8,0.2-1.2c0-0.2-0.1-0.4-0.2-0.6c-0.1-0.2-0.3-0.3-0.6-0.3h0c0,0,0,0,0,0
	c0,0,0,0,0,0c0,0,0,0-0.1,0c0,0-0.1,0-0.1,0c-0.1,0-0.2,0-0.3,0.1c-0.1,0-0.1,0-0.2,0.1c0,0-0.1,0.1-0.2,0.2
	c-0.3,0.2-0.6,0.4-0.8,0.7c-0.3,0.4-0.6,0.7-0.8,1.1c-0.2,0.4-0.4,0.7-0.5,1l0,0.7c0,0,0.1,0.1,0.2,0.1
	C460.3,202.2,460.4,202.2,460.5,202.2z M469.5,194.9c0,0.4,0,0.8-0.1,1.4c0,0.5-0.1,1.1-0.1,1.6s-0.1,1.1-0.1,1.6c0,0.5,0,1,0,1.3
	c0,0.5,0,0.9,0,1.3c0,0.4-0.1,0.8-0.1,1.1c-0.1,0.3-0.2,0.5-0.3,0.5c0,0.1,0,0.1-0.1,0.2c0,0-0.1,0.1-0.2,0.1c-0.1,0-0.2,0-0.3,0
	c-0.1,0-0.2,0-0.2,0c-0.1,0-0.2,0-0.2,0c-0.2,0-0.4-0.1-0.4-0.2c0-0.1-0.1-0.3-0.1-0.5c0-0.2,0-0.6,0.1-1c0.1-0.4,0.2-0.8,0.2-1.2
	c0,0,0-0.1,0-0.1c0-0.1,0-0.1,0-0.2c0-0.1,0-0.2,0-0.3c0-0.1,0.1-0.2,0.1-0.3c0-0.1,0-0.2,0-0.2c0-0.1,0-0.2,0-0.3
	c0-0.6,0.1-1.4,0.1-2.3c0-0.4,0-0.7,0-1c0-0.3,0-0.6,0-0.8c0-0.2,0-0.4,0-0.6c0-0.2,0.1-0.4,0.3-0.5c0-0.1,0-0.1,0.1-0.2
	s0.1-0.1,0.2-0.1c0.1,0,0.2,0,0.3,0s0.2,0,0.3,0c0.1,0,0.2,0,0.3,0c0.1,0,0.3,0,0.4,0.1C469.4,194.5,469.5,194.6,469.5,194.9z"/>
</svg>
