<svg width="163" height="163" fill="none" xmlns="http://www.w3.org/2000/svg"><path d="M.125 81.403c0-4.145 5.937-7.818 6.597-11.774.66-4.05-3.864-9.42-2.639-13.281 1.32-3.956 8.104-5.557 9.895-9.137 1.885-3.673-.754-10.078 1.602-13.375 2.45-3.297 9.33-2.731 12.251-5.651 2.921-2.92 2.356-9.89 5.654-12.245 3.299-2.45 9.707.282 13.382-1.602 3.581-1.883 5.278-8.665 9.141-9.89 3.864-1.224 9.141 3.297 13.288 2.638 3.958-.66 7.633-6.594 11.78-6.594 4.146 0 7.821 5.934 11.78 6.594 4.052.659 9.423-3.862 13.287-2.638 3.958 1.319 5.56 8.1 9.141 9.89 3.675 1.884 10.084-.753 13.382 1.602 3.298 2.449 2.733 9.325 5.654 12.245 2.922 2.92 9.895 2.354 12.251 5.651 2.45 3.297-.283 9.702 1.602 13.375 1.885 3.58 8.67 5.275 9.895 9.137 1.225 3.862-3.298 9.136-2.638 13.28.659 3.957 6.596 7.63 6.596 11.775 0 4.144-5.937 7.818-6.596 11.774-.66 4.05 3.863 9.419 2.638 13.281-1.319 3.956-8.104 5.557-9.895 9.136-1.885 3.674.754 10.079-1.602 13.376-2.45 3.296-9.329 2.731-12.251 5.651-2.921 2.92-2.356 9.89-5.654 12.245-3.298 2.449-9.707-.283-13.382 1.601-3.581 1.884-5.277 8.666-9.141 9.89-3.864 1.225-9.141-3.296-13.288-2.637-3.958.659-7.633 6.594-11.78 6.594-4.146 0-7.821-5.935-11.78-6.594-4.051-.659-9.423 3.862-13.287 2.637-3.958-1.318-5.56-8.1-9.14-9.89-3.676-1.884-10.084.754-13.383-1.601-3.298-2.449-2.733-9.325-5.654-12.245s-9.895-2.355-12.25-5.651c-2.451-3.297.282-9.702-1.603-13.376-1.885-3.579-8.67-5.274-9.895-9.136-1.225-3.862 3.298-9.137 2.639-13.281-.66-3.956-6.597-7.63-6.597-11.774z" fill="#3C2915"/><path d="M81.17 151.387c38.671 0 70.019-31.333 70.019-69.985 0-38.65-31.348-69.984-70.019-69.984-38.67 0-70.019 31.333-70.019 69.984 0 38.652 31.349 69.985 70.02 69.985z" fill="url(#paint0_linear)"/><path d="M81.17 143.285c34.195 0 61.915-27.706 61.915-61.883 0-34.178-27.72-61.884-61.915-61.884-34.194 0-61.914 27.706-61.914 61.883 0 34.178 27.72 61.884 61.914 61.884z" fill="#fff"/><path d="M81.17 138.201c31.384 0 56.826-25.429 56.826-56.798 0-31.368-25.442-56.798-56.826-56.798s-56.825 25.43-56.825 56.798c0 31.369 25.441 56.798 56.825 56.798z" stroke="#EEBF65" stroke-width="3" stroke-linecap="round" stroke-linejoin="round"/><path d="M140.54 97.98l-.565.283c-47.496 25.149-76.144 25.055-123.546-.282L2.293 125.673v36.64l13.853-10.078 13.853 10.078v-25.055a162.466 162.466 0 0097.065 0v25.055l13.853-10.078 13.853 10.078v-36.64l-14.23-27.692z" fill="#3C2915"/><path d="M60.438 89.032H73.16v-33.72H60.438V45.045h37.695v10.267H85.41v33.72h12.722V99.3H60.438V89.032zm66.532 69.419V109l27.706 12.81v36.641l-13.853-10.079-13.853 10.079zm-124.772 0V121.81L29.904 109v49.451l-13.853-10.079-13.853 10.079z" fill="#996523"/><path d="M154.676 121.811l-.566.283c-47.496 25.149-104.416 25.055-151.912-.283l14.136-27.692c47.402 25.338 76.05 25.432 123.546.283l.566-.283 14.23 27.692z" fill="url(#paint1_linear)"/><path d="M53.398 114.963l2.614 12.221 6.549-10.646 2.396.412-2.411 14.013-1.848-.318.939-5.457 1.187-5.86-6.553 10.556-1.415-.243-2.643-12.107-.826 5.892-.939 5.457-1.848-.318 2.412-14.012 2.386.41zm16.42 17.448c-1.412-.243-2.481-.902-3.207-1.978-.726-1.083-.955-2.4-.688-3.953l.056-.327c.178-1.033.532-1.92 1.063-2.661.538-.747 1.199-1.287 1.983-1.621a4.225 4.225 0 012.43-.296c1.353.233 2.329.859 2.926 1.88s.753 2.362.467 4.024l-.128.741-7.054-1.213c-.151 1.031.004 1.914.466 2.647.469.728 1.146 1.168 2.032 1.32.629.108 1.183.072 1.664-.11.48-.182.92-.456 1.32-.823l.942 1.034c-1.103 1.191-2.527 1.636-4.273 1.336zm1.385-9.373a2.403 2.403 0 00-1.946.478c-.577.436-1.004 1.115-1.282 2.039l5.216.896.023-.134c.105-.914-.019-1.655-.37-2.224-.35-.576-.897-.927-1.641-1.055zm9.172 9.692a2.6 2.6 0 001.764-.292c.541-.303.887-.739 1.038-1.307l1.684.289c-.135.591-.438 1.124-.909 1.598a4.11 4.11 0 01-1.742 1.028 4.409 4.409 0 01-2.085.137c-1.418-.244-2.466-.91-3.144-1.997-.671-1.093-.865-2.461-.582-4.103l.05-.299c.175-1.013.517-1.883 1.024-2.608.508-.725 1.146-1.246 1.914-1.564.775-.316 1.637-.392 2.586-.229 1.168.201 2.077.717 2.726 1.549.656.833.914 1.812.773 2.937l-1.684-.29c.065-.682-.097-1.278-.485-1.787-.38-.515-.908-.83-1.581-.946-.905-.155-1.664.051-2.277.619-.605.563-1.014 1.461-1.226 2.693l-.058.337c-.207 1.199-.119 2.166.264 2.899.382.733 1.032 1.178 1.95 1.336zm15.204-5.323l-3.493-.601-1.543 8.97-1.781-.306 1.543-8.97-3.426-.589.249-1.444 8.7 1.496-.249 1.444zm.226 3.814c.176-1.02.532-1.904 1.07-2.65.545-.746 1.211-1.278 2-1.599.794-.319 1.651-.399 2.568-.242 1.418.244 2.479.932 3.183 2.063.71 1.133.924 2.514.644 4.144l-.022.125c-.174 1.014-.526 1.891-1.057 2.632a4.456 4.456 0 01-1.988 1.591c-.796.325-1.662.408-2.599.247-1.411-.243-2.472-.931-3.182-2.064-.704-1.131-.917-2.505-.638-4.122l.021-.125zm1.754.519c-.199 1.155-.092 2.128.32 2.919.419.792 1.077 1.265 1.975 1.419.905.156 1.684-.073 2.338-.688.655-.62 1.093-1.569 1.312-2.846.197-1.142.083-2.113-.341-2.912-.416-.805-1.073-1.284-1.972-1.439-.879-.151-1.648.077-2.307.683-.66.607-1.101 1.562-1.325 2.864z" fill="#fff"/><path d="M136.488 123.6c-3.769.471-6.973-1.602-6.973-1.602s2.733-2.731 6.502-3.108c3.77-.471 6.974 1.601 6.974 1.601s-2.733 2.732-6.503 3.109z" fill="#EEBF65"/><path d="M132.153 115.405c-.094 3.768-2.544 6.688-2.544 6.688s-2.262-3.108-2.168-6.876c.095-3.768 2.545-6.688 2.545-6.688s2.262 3.109 2.167 6.876zm10.743.66c-3.581 1.225-7.162-.094-7.162-.094s2.168-3.202 5.655-4.427c3.581-1.224 7.162.094 7.162.094s-2.074 3.203-5.655 4.427z" fill="#EEBF65"/><path d="M136.959 108.906c.66 3.674-1.13 7.064-1.13 7.064s-2.828-2.543-3.581-6.216c-.66-3.674 1.13-7.065 1.13-7.065s2.922 2.544 3.581 6.217zM20.858 123.6c3.77.471 6.974-1.602 6.974-1.602s-2.733-2.731-6.503-3.108c-3.77-.471-6.974 1.601-6.974 1.601s2.733 2.732 6.503 3.109z" fill="#EEBF65"/><path d="M25.193 115.405c.095 3.768 2.545 6.688 2.545 6.688s2.262-3.108 2.167-6.876c-.094-3.768-2.544-6.688-2.544-6.688s-2.262 3.109-2.168 6.876zm-10.838.66c3.581 1.225 7.162-.094 7.162-.094s-2.167-3.202-5.654-4.427c-3.58-1.224-7.162.094-7.162.094s2.073 3.203 5.654 4.427z" fill="#EEBF65"/><path d="M20.292 108.906c-.66 3.674 1.131 7.064 1.131 7.064s2.827-2.543 3.581-6.216c.66-3.674-1.13-7.065-1.13-7.065s-2.922 2.544-3.582 6.217z" fill="#EEBF65"/><defs><linearGradient id="paint0_linear" x1="11.145" y1="81.408" x2="151.253" y2="81.408" gradientUnits="userSpaceOnUse"><stop stop-color="#FFDC7C"/><stop offset=".495" stop-color="#EEBF65"/><stop offset=".994" stop-color="#996523"/></linearGradient><linearGradient id="paint1_linear" x1="2.228" y1="117.486" x2="154.708" y2="117.486" gradientUnits="userSpaceOnUse"><stop stop-color="#FFDC7C"/><stop offset=".495" stop-color="#EEBF65"/><stop offset=".994" stop-color="#996523"/></linearGradient></defs></svg>