<svg width="66" height="104" fill="none" xmlns="http://www.w3.org/2000/svg"><path opacity=".42" d="M17.303 83.802c8.025 11.106 22.05 19.371 31.95 18.94 9.9-.344 11.925-7.92 14.925-19.715 1.8-7.232 1.2-18.338.075-26.775-2.1-15.67-.6-15.842-7.125-32.888-2.55-6.802-5.55-12.398-9.375-15.755-2.775-2.41-8.85-6.457-15.075-6.888-13.425-.86-27 10.59-30.15 27.98-4.125 21.869-1.8 32.2 14.775 55.1z" fill="url(#paint0_radial)" stroke="#fff" stroke-width=".892" stroke-miterlimit="10"/><path opacity=".33" d="M15.202 18.714c.825-1.12 6.3-6.199 9-7.146 1.95-.688 9.9-3.788 14.7-1.12 3.6 1.981 5.325 2.498 7.2 8.783.225.688.3 4.563-1.2 4.563-2.775-.172-8.925-1.55-16.875 1.291-2.025.689-7.2 3.788-9 5.338-.9.689-4.2 3.1-5.025 2.755-4.2-1.636-.3-12.312 1.2-14.464z" fill="url(#paint1_linear)"/><defs><radialGradient id="paint0_radial" cx="0" cy="0" r="1" gradientUnits="userSpaceOnUse" gradientTransform="matrix(28.58128 -18.54204 27.97176 43.11655 35.58 54.79)"><stop stop-color="#407B9A"/><stop offset=".645" stop-color="#3682A1"/><stop offset=".941" stop-color="#C6DDEE" stop-opacity=".8"/><stop offset="1" stop-color="#fff" stop-opacity=".8"/></radialGradient><linearGradient id="paint1_linear" x1="27.785" y1="12.978" x2="29.735" y2="34.806" gradientUnits="userSpaceOnUse"><stop stop-color="#fff"/><stop offset=".475" stop-color="#D4EFFD" stop-opacity=".5"/><stop offset="1" stop-color="#3699D6" stop-opacity="0"/></linearGradient></defs></svg>