<svg width="308" height="299" fill="none" xmlns="http://www.w3.org/2000/svg"><path opacity=".5" d="M9.966 194.303c11.08 36.253 37.159 68.88 72.98 86.747 35.822 17.781 81.291 19.508 117.495 1.899 22.066-10.789 39.834-27.88 54.353-46.696 26.843-34.527 43.559-75.613 48.24-117.821 1.719-14.674 1.719-30.21-4.872-43.762-6.496-13.293-18.818-23.305-31.905-31.419-42.986-27.017-135.071-55.846-184.17-27.62-61.9 35.475-91.704 115.403-72.121 178.672z" fill="url(#paint0_radial)" stroke="#fff" stroke-width="7.347" stroke-miterlimit="10"/><path opacity=".56" d="M99.846 39.254c3.999-2.261 28.899-11.307 40.099-12.212 8.2-.633 42-3.98 59.5 4.252 13.4 6.422 20.101 8.231 23.701 23.7.4 1.628-1.3 10.493-7.6 9.86-10.9-1.72-34.8-7.69-68.3-4.885-8.4.633-31.001 5.337-39.401 7.96-3.8 1.176-18.7 5.066-21.7 3.98-15.4-5.608 6.4-28.404 13.7-32.655z" fill="url(#paint1_linear)"/><path d="M100.24 137.553c.676 0 1.417-.026 2.223-.078a14.583 14.583 0 002.379-.351c.104-.026.208-.039.312-.039h.351a.262.262 0 00.234-.117.49.49 0 01.273-.195.958.958 0 01.351-.078.692.692 0 00.312-.078.255.255 0 00.117-.117c.026-.052.065-.078.117-.078.078 0 .156.013.234.039h.195a.403.403 0 00.39-.234c.104-.182.221-.325.351-.429a3.24 3.24 0 001.131-1.365 4.2 4.2 0 00.39-1.755c0-.65-.169-1.17-.507-1.56-.338-.416-.793-.741-1.365-.975a7.149 7.149 0 00-1.95-.468 15.17 15.17 0 00-2.223-.156c-.598 0-1.183.026-1.755.078-.572.026-1.157.065-1.755.117l-.039.702.195 3.666a.67.67 0 00-.039.273v.156l.078 3.042zm7.02-16.692a23.232 23.232 0 00-3.12-.39 46.282 46.282 0 00-2.223-.078c-.39 0-.754.039-1.092.117-.338.052-.611.091-.819.117l.156 2.847c-.026.026-.039.052-.039.078l-.039.039c-.026.026-.052.039-.078.039a.49.49 0 00.117.195c.052.026.078.078.078.156 0 .026-.026.039-.078.039-.052 0-.078.039-.078.117v.741c.026.208.039.416.039.624v.468c0 .13-.026.286-.078.468.468-.026.897-.039 1.287-.039h1.287c.13 0 .273.013.429.039h1.56c.156 0 .299.013.429.039.156.026.312.065.468.117.078.026.182.039.312.039h.234a.434.434 0 01.195-.039c.052 0 .117.039.195.117.078.078.156.117.234.117h.195a.642.642 0 01.195-.039c.13 0 .195.026.195.078 0 .052.039.078.117.078h.195a.642.642 0 01.195-.039 6.93 6.93 0 011.326.312c.494.13.897.26 1.209.39.91.442 1.612 1.066 2.106 1.872.494.806.741 1.794.741 2.964 0 .988-.182 1.976-.546 2.964-.364.988-.897 1.794-1.599 2.418a8.49 8.49 0 01-2.223 1.404 12.92 12.92 0 01-2.613.897c-.91.234-1.82.39-2.73.468-.91.104-1.755.156-2.535.156h-2.34a3.338 3.338 0 01-.351.039c-.026-.026-.039-.052-.039-.078-.078-.078-.104-.117-.078-.117-.026 0-.052.013-.078.039-.026.052-.065.078-.117.078-.182 0-.299-.039-.351-.117a.57.57 0 00-.273-.195.376.376 0 01-.273-.312.365.365 0 00-.195-.273 1.557 1.557 0 01-.195-.585 4.785 4.785 0 01-.039-.663c0-.078.026-.221.078-.429.078-.208.169-.377.273-.507-.026-.416-.052-.884-.078-1.404a95.643 95.643 0 01-.078-1.599v-2.067c0-.676-.013-1.404-.039-2.184v-6.045c0-.988.013-1.755.039-2.301l.039-.39-.078-.702v-.702c0-.546.026-1.04.078-1.482.052-.442.156-.728.312-.858.286-.208.533-.312.741-.312.234 0 .533-.026.897-.078.364-.052.988-.091 1.872-.117.91-.026 1.781-.052 2.613-.078h1.131c.156 0 .364.013.624.039.286 0 .572.013.858.039.312.026.598.052.858.078.26 0 .455.013.585.039.494.052.884.117 1.17.195.312.078.598.169.858.273.39.13.65.299.78.507.052.052.078.104.078.156a.454.454 0 01.078.117c.052.052.078.104.078.156 0 .052.013.104.039.156v.234c0 .65-.26 1.118-.78 1.404-.13.078-.273.156-.429.234a.97.97 0 01-.429.117c-.364 0-.845-.065-1.443-.195zm2.862 32.565c2.288 0 4.225-.26 5.811-.78 1.586-.494 2.834-1.183 3.744-2.067a9.798 9.798 0 001.95-2.691c.546-1.04 1.001-2.236 1.365-3.588.286-.988.442-2.015.468-3.081a42.04 42.04 0 01.195-3.159c-.052.13-.169.286-.351.468a2.953 2.953 0 01-.702.429 4.766 4.766 0 01-.975.39c-.338.13-.689.195-1.053.195-.26 0-.507-.013-.741-.039a2.613 2.613 0 01-.78-.234 4.019 4.019 0 01-1.365-.975 5.085 5.085 0 01-.975-1.677 5.078 5.078 0 01-.273-1.443 32.856 32.856 0 01-.039-1.56c0-1.014.065-1.885.195-2.613s.273-1.339.429-1.833c.13-.416.299-.793.507-1.131.208-.364.611-.546 1.209-.546h.156c.338 0 .559.104.663.312.13.182.195.429.195.741v.234c0 .078-.013.208-.039.39-.078.676-.156 1.339-.234 1.989-.078.65-.117 1.248-.117 1.794 0 .78.104 1.456.312 2.028.234.546.676.819 1.326.819.208 0 .429-.026.663-.078.234-.078.494-.182.78-.312.364-.156.715-.494 1.053-1.014.338-.52.611-1.079.819-1.677a7.567 7.567 0 01.702-1.521c.286-.416.624-.624 1.014-.624.13 0 .286.039.468.117a.828.828 0 01.507.39c.078.104.13.247.156.429.026.182.039.377.039.585 0 .182-.013.351-.039.507v.273l-.078 1.131c-.026.338-.065.715-.117 1.131-.026.39-.052.845-.078 1.365-.026.52-.039 1.157-.039 1.911 0 2.886-.273 5.447-.819 7.683-.52 2.236-1.417 4.121-2.691 5.655-1.274 1.534-2.964 2.691-5.07 3.471-2.08.806-4.693 1.209-7.839 1.209h-.429c-.156 0-.299-.026-.429-.078a7.41 7.41 0 00-.897-.312c-.312-.052-.533-.26-.663-.624a2.162 2.162 0 01-.195-.507 1.282 1.282 0 01-.039-.312c0-.52.182-.845.546-.975.338-.13.793-.195 1.365-.195h.429zm26.283-13.104c-.91 0-1.703-.169-2.379-.507a4.509 4.509 0 01-1.638-1.326c-.416-.598-.728-1.3-.936-2.106a12.045 12.045 0 01-.273-2.652c0-1.326.13-2.691.39-4.095.286-1.43.806-2.678 1.56-3.744.104-.13.247-.273.429-.429.182-.182.338-.286.468-.312 0-.234.13-.442.39-.624a3.65 3.65 0 01.975-.546 5.937 5.937 0 012.262-.429c.494 0 .949.078 1.365.234.416.13.767.286 1.053.468.338.208.65.429.936.663a18.411 18.411 0 00-.273-1.599 8.303 8.303 0 00-.312-1.326c-.052-.13-.104-.208-.156-.234-.026-.026-.039-.104-.039-.234 0-.078.026-.143.078-.195-.026-.052-.065-.078-.117-.078a.255.255 0 01-.117-.117c-.364-.676-.858-1.17-1.482-1.482-.598-.338-1.417-.598-2.457-.78-.884-.156-1.534-.273-1.95-.351-.416-.104-.624-.39-.624-.858 0-.052-.039-.13-.117-.234a.899.899 0 01-.078-.312c0-.234.026-.364.078-.39.078-.052.117-.143.117-.273 0-.052.013-.13.039-.234a.907.907 0 01.156-.234c.13-.13.182-.247.156-.351-.026-.104.013-.208.117-.312.208-.156.455-.247.741-.273.312-.026.598-.039.858-.039 1.274 0 2.392.208 3.354.624a6.969 6.969 0 012.457 1.755c.13.13.208.273.234.429.026.156.117.299.273.429a.774.774 0 01.234.273.979.979 0 00.273.312.71.71 0 01.234.312c.052.104.104.221.156.351.442.884.754 1.859.936 2.925.208 1.04.312 2.132.312 3.276 0 .806-.026 1.69-.078 2.652a28.11 28.11 0 01-.234 2.886 18.789 18.789 0 01-.546 2.886 12.64 12.64 0 01-1.014 2.574c-.104.208-.234.312-.39.312-.078.078-.117.143-.117.195v.117c.026 0 .039.013.039.039-.078.13-.221.195-.429.195a.454.454 0 00.078.117c.052.026.078.065.078.117a.265.265 0 01-.078.195l-.156.156a3.342 3.342 0 01-.624.546c-.234.156-.455.299-.663.429a5.46 5.46 0 00-.507.351c-.104.13-.273.247-.507.351a5.563 5.563 0 01-1.17.351 5.622 5.622 0 01-1.365.156zm.546-3.081c.494 0 .923-.13 1.287-.39.39-.26.715-.598.975-1.014a5.91 5.91 0 00.702-1.404c.182-.546.338-1.092.468-1.638.286-1.3.442-2.782.468-4.446-.208-.52-.598-.936-1.17-1.248-.546-.338-1.196-.507-1.95-.507-.702 0-1.274.234-1.716.702-.442.468-.793 1.053-1.053 1.755a11.995 11.995 0 00-.507 2.262 17.217 17.217 0 00-.156 2.184c0 .338.013.663.039.975.026.286.078.559.156.819a.589.589 0 00.195.234.696.696 0 01.195.195.628.628 0 01.078.273.49.49 0 00.117.195.441.441 0 01.156.156.611.611 0 01.117.156c.078.052.156.117.234.195.104.078.208.143.312.195.13.052.26.117.39.195s.247.13.351.156h.312zm4.326 16.185c2.288 0 4.225-.26 5.811-.78 1.586-.494 2.834-1.183 3.744-2.067a9.798 9.798 0 001.95-2.691c.546-1.04 1.001-2.236 1.365-3.588.286-.988.442-2.015.468-3.081a42.04 42.04 0 01.195-3.159c-.052.13-.169.286-.351.468a2.953 2.953 0 01-.702.429 4.766 4.766 0 01-.975.39c-.338.13-.689.195-1.053.195-.26 0-.507-.013-.741-.039a2.613 2.613 0 01-.78-.234 4.019 4.019 0 01-1.365-.975 5.085 5.085 0 01-.975-1.677 5.078 5.078 0 01-.273-1.443 32.856 32.856 0 01-.039-1.56c0-1.014.065-1.885.195-2.613s.273-1.339.429-1.833c.13-.416.299-.793.507-1.131.208-.364.611-.546 1.209-.546h.156c.338 0 .559.104.663.312.13.182.195.429.195.741v.234c0 .078-.013.208-.039.39-.078.676-.156 1.339-.234 1.989-.078.65-.117 1.248-.117 1.794 0 .78.104 1.456.312 2.028.234.546.676.819 1.326.819.208 0 .429-.026.663-.078.234-.078.494-.182.78-.312.364-.156.715-.494 1.053-1.014.338-.52.611-1.079.819-1.677a7.567 7.567 0 01.702-1.521c.286-.416.624-.624 1.014-.624.13 0 .286.039.468.117a.828.828 0 01.507.39c.078.104.13.247.156.429.026.182.039.377.039.585 0 .182-.013.351-.039.507v.273l-.078 1.131c-.026.338-.065.715-.117 1.131-.026.39-.052.845-.078 1.365-.026.52-.039 1.157-.039 1.911 0 2.886-.273 5.447-.819 7.683-.52 2.236-1.417 4.121-2.691 5.655-1.274 1.534-2.964 2.691-5.07 3.471-2.08.806-4.693 1.209-7.839 1.209h-.429c-.156 0-.299-.026-.429-.078a7.41 7.41 0 00-.897-.312c-.312-.052-.533-.26-.663-.624a2.162 2.162 0 01-.195-.507 1.282 1.282 0 01-.039-.312c0-.52.182-.845.546-.975.338-.13.793-.195 1.365-.195h.429zm40.83-16.419a13.6 13.6 0 00.429-.078c.13-.026.26-.039.39-.039.156-.026.312-.039.468-.039.442 0 .754.104.936.312.182.182.273.442.273.78l-.156 2.613-.156.585c.052.052.078.143.078.273.026.156.039.299.039.429a4.466 4.466 0 01-.117.975 8.8 8.8 0 01-.234 1.443c-.078.416-.208.78-.39 1.092-.078.13-.143.26-.195.39-.026.13-.117.221-.273.273a.642.642 0 01-.195-.039h-.156c-.182 0-.312.052-.39.156a.374.374 0 00-.273-.117h-.156c-.026.026-.065.039-.117.039-.104 0-.182-.026-.234-.078-.026-.052-.078-.078-.156-.078a.434.434 0 00-.195.039c-.078-.13-.156-.195-.234-.195-.052.026-.104-.013-.156-.117a2.048 2.048 0 01-.117-.468v-.546c0-.572.065-1.287.195-2.145.13-.832.247-1.677.351-2.535a2.12 2.12 0 01-.585.078 4.138 4.138 0 01-.468.039c-.52 0-.858-.104-1.014-.312-.156-.182-.234-.455-.234-.819 0-.832.117-1.755.351-2.769a15.12 15.12 0 00.468-2.886l-.507.975a51.05 51.05 0 01-1.17 1.755c-.442.65-.936 1.287-1.482 1.911a9.157 9.157 0 01-1.677 1.521c-.598.442-1.183.663-1.755.663-.312 0-.585-.078-.819-.234-.13-.078-.195-.156-.195-.234 0-.078-.065-.169-.195-.273a3.318 3.318 0 01-.312-.39 3.89 3.89 0 01-.234-.468 5.047 5.047 0 01-.234-1.599c0-.468.039-1.04.117-1.716.104-.676.221-1.3.351-1.872l-.819 1.443c-.208.364-.468.78-.78 1.248-.312.442-.663.91-1.053 1.404a25.13 25.13 0 01-.975 1.092l-.234.234c-.052.052-.143.091-.273.117a.915.915 0 01-.195.312 1.041 1.041 0 01-.273.195c-.702.494-1.391.741-2.067.741-.676 0-1.209-.325-1.599-.975-.39-.65-.585-1.391-.585-2.223 0-.676.026-1.352.078-2.028.078-.702.182-1.404.312-2.106.104-.598.234-1.261.39-1.989.182-.728.312-1.443.39-2.145.052-.494.117-.897.195-1.209a1.52 1.52 0 01.507-.741l.156-.156a.265.265 0 01.195-.078.3.3 0 01.117.039h.117c0-.052.039-.078.117-.078.104-.026.195-.039.273-.039.13 0 .234.039.312.117a.48.48 0 00.273.078h.234a.642.642 0 01.195-.039h.195c.104 0 .156.013.156.039.052.13.104.208.156.234.078.026.156.104.234.234.078.13.117.273.117.429 0 .234-.013.442-.039.624-.026.156-.065.351-.117.585a25.004 25.004 0 00-.897 3.471c-.234 1.222-.351 2.249-.351 3.081 0 .286.104.429.312.429.182 0 .429-.143.741-.429.338-.312.715-.728 1.131-1.248a21.68 21.68 0 001.365-1.911c.494-.754.975-1.586 1.443-2.496.026-.052.065-.117.117-.195a.837.837 0 01.195-.156c.208-.052.312-.182.312-.39 0-.026-.026-.065-.078-.117-.052-.052-.078-.091-.078-.117.052-.078.117-.117.195-.117s.117-.065.117-.195c0-.026-.013-.052-.039-.078v-.117c.078 0 .104-.052.078-.156a.48.48 0 01.078-.273c.13-.286.338-.585.624-.897.286-.338.663-.507 1.131-.507.546 0 .936.143 1.17.429a.519.519 0 01.117.312.7.7 0 00.117.351c.052.104.091.247.117.429.026.156.039.299.039.429 0 .52-.052 1.001-.156 1.443-.104.442-.221.923-.351 1.443a47.53 47.53 0 00-.312 1.638c-.104.598-.156 1.313-.156 2.145 0 .286.169.429.507.429.312 0 .962-.663 1.95-1.989.988-1.352 2.067-3.25 3.237-5.694.078-.156.182-.299.312-.429.052-.052.143-.091.273-.117.13-.026.221-.065.273-.117a.907.907 0 00.234-.156.262.262 0 01.234-.117c.234 0 .481.052.741.156.286.104.481.273.585.507.13.312.195.819.195 1.521 0 .494-.026.988-.078 1.482a26.156 26.156 0 01-.156 1.716l-.351 2.613a41.579 41.579 0 01-.312 2.34zm12.329 4.056c-1.326 0-2.509-.312-3.549-.936-1.014-.598-1.729-1.586-2.145-2.964a9.982 9.982 0 01-.39-1.989 4.876 4.876 0 01-.312-.39c-.026-.104-.052-.169-.078-.195-.026 0-.039-.013-.039-.039 0-.052-.039-.078-.117-.078-.052 0-.091-.039-.117-.117v-.468a.736.736 0 00.039-.234c0-.026.013-.039.039-.039a.454.454 0 00.117-.078l.546-.078c.13-.91.416-1.833.858-2.769a13.395 13.395 0 011.755-2.652c.182-.234.455-.507.819-.819.364-.338.78-.65 1.248-.936a9.347 9.347 0 011.521-.78 4.13 4.13 0 011.638-.351c.884 0 1.664.312 2.34.936.676.598 1.014 1.404 1.014 2.418 0 .286-.039.598-.117.936-.052.312-.13.611-.234.897-.13.364-.325.754-.585 1.17a9.153 9.153 0 01-.78 1.17 8.962 8.962 0 01-1.17 1.248c-.39.338-.832.676-1.326 1.014-.598.364-1.209.689-1.833.975-.624.286-1.235.429-1.833.429 0 .364.091.65.273.858.182.208.403.377.663.507.286.104.598.169.936.195.338.026.663.039.975.039 1.014 0 1.742-.104 2.184-.312.468-.234.806-.351 1.014-.351.208 0 .338.026.39.078.156.13.247.273.273.429.026.13.039.286.039.468v.273c0 .156-.026.338-.078.546a2.562 2.562 0 01-.195.585c-.364.494-.897.845-1.599 1.053a6.632 6.632 0 01-2.184.351zm-2.769-7.41c.494-.104 1.027-.325 1.599-.663a11.117 11.117 0 001.638-1.209c.52-.442.949-.897 1.287-1.365.338-.494.507-.936.507-1.326 0-.104-.052-.221-.156-.351-.104-.13-.299-.195-.585-.195-.442 0-.884.143-1.326.429-.442.286-.793.598-1.053.936-.312.39-.585.741-.819 1.053a6.42 6.42 0 00-.507.897c-.13.26-.247.533-.351.819-.078.286-.156.611-.234.975zm13.811 2.457h-1.794a16.178 16.178 0 00-.663-.078c-.416-.052-.728-.156-.936-.312a2.057 2.057 0 01-.429-.624 2.752 2.752 0 00-.195-.273v-.156c.026-.026.039-.065.039-.117-.026-.026-.039-.065-.039-.117 0-.078.026-.169.078-.273-.026-.026-.039-.065-.039-.117v-.117c.026-.026.039-.065.039-.117 0-.026-.013-.052-.039-.078v-.078c.078-.338.286-.624.624-.858.364-.234.728-.351 1.092-.351.416 0 .806.039 1.17.117.364.052.689.078.975.078.026-1.04.169-2.015.429-2.925.26-.936.624-1.742 1.092-2.418a5.147 5.147 0 011.716-1.638c.702-.416 1.508-.624 2.418-.624.208 0 .39.026.546.078.182.026.299.065.351.117l.624.234.39.156c.156.052.273.13.351.234.156.104.286.234.39.39.13.156.26.325.39.507.338.52.507 1.157.507 1.911 0 .624-.156 1.261-.468 1.911a8 8 0 01-1.17 1.872 10.452 10.452 0 01-1.755 1.599c-.65.468-1.339.871-2.067 1.209.468.52 1.105.78 1.911.78.676 0 1.261-.039 1.755-.117a7.759 7.759 0 011.599-.156c.156 0 .312.026.468.078.182.026.312.052.39.078 0 .052.052.117.156.195a.97.97 0 01.273.351.346.346 0 01.039.156.346.346 0 01-.039.156c-.026.026-.039.065-.039.117 0 .052.013.091.039.117-.052.052-.078.156-.078.312 0 .104.013.182.039.234a2.28 2.28 0 00-.195.234.692.692 0 00-.078.312c0 .078.013.13.039.156-.104.052-.416.273-.936.663a1.95 1.95 0 01-.273.195l-.234.117a.434.434 0 01-.195.039.346.346 0 00-.156.039c-.104 0-.169.013-.195.039-.026 0-.052-.013-.078-.039h-.117c0 .026-.013.039-.039.039l-.156-.078h-.624a3.747 3.747 0 01-.273.078 1.64 1.64 0 01-.39.039 3.23 3.23 0 01-.585.039c-.988 0-1.963-.286-2.925-.858-.936-.572-1.664-1.391-2.184-2.457h-.546zm5.577-7.566a.543.543 0 00-.234-.039c-.364 0-.715.195-1.053.585a5.345 5.345 0 00-.78 1.209c-.104.26-.208.546-.312.858a9.596 9.596 0 00-.195 1.053c.312-.026.637-.13.975-.312.338-.208.65-.442.936-.702a3.88 3.88 0 00.741-.897c.208-.338.312-.676.312-1.014 0-.26-.078-.468-.234-.624l-.156-.117zm-99.232 71.065h-.156c-.026.026-.078.039-.156.039-.052 0-.091-.039-.117-.117 0-.052-.026-.104-.078-.156a.265.265 0 00-.195-.078c-.052.026-.091.026-.117 0l-.156-.117-.117-.156a.255.255 0 00-.117-.117.454.454 0 01-.078-.117 5.457 5.457 0 01-.273-.78 5.644 5.644 0 00-.234-.819c0-.052-.013-.091-.039-.117a.3.3 0 00-.039-.117c0-.026-.013-.039-.039-.039-.026-.026-.039-.052-.039-.078v-.078c.026-.026.039-.052.039-.078 0-.026-.013-.039-.039-.039v-.117l-.234-.624a59.68 59.68 0 01-.468-1.209l-.39-1.326c-.182 0-.286-.026-.312-.078-.026-.026-.065-.039-.117-.039a.346.346 0 00-.156.039h-.156c.026-.026.013-.039-.039-.039a.346.346 0 00-.156-.039h-.39c-.052 0-.091-.013-.117-.039-.052 0-.143-.013-.273-.039a1.524 1.524 0 00-.312-.117 18.89 18.89 0 00-1.482-.195 17.46 17.46 0 00-1.677-.156l-1.638-.078a31.42 31.42 0 00-1.482-.039h-.429c-.13 0-.26.013-.39.039a26.885 26.885 0 01-.351 2.34c-.156.78-.351 1.482-.585 2.106a.868.868 0 01-.078.39l-.117.156c-.234.312-.442.585-.624.819-.182.26-.416.39-.702.39-.416 0-.689-.195-.819-.585-.13-.39-.195-.845-.195-1.365 0-.364.013-.741.039-1.131.052-.39.104-.767.156-1.131 0-.026.013-.039.039-.039.026-.026.039-.065.039-.117 0-.026-.013-.039-.039-.039v-.117c0-.104.013-.325.039-.663.052-.364.091-.585.117-.663a.434.434 0 00.039-.195c0-.104-.026-.182-.078-.234a.984.984 0 01.117-.234c.052-.052.078-.104.078-.156.026-.078.052-.117.078-.117a.599.599 0 01-.078-.234c0-.052.013-.104.039-.156l.039-.039c.026 0 .052-.013.078-.039.026 0 .039-.013.039-.039 0-.052-.039-.104-.117-.156a1.162 1.162 0 00-.117-.156.63.63 0 00.156-.351c.052-.156.078-.299.078-.429 0-.052-.013-.078-.039-.078v-.078c0-.052.013-.091.039-.117a.3.3 0 00.039-.117c0-.13.013-.234.039-.312a1.45 1.45 0 00.039-.351c0-.208.013-.377.039-.507 0-.052.013-.117.039-.195.026-.104.052-.182.078-.234a.864.864 0 00-.039-.273v-.195c0-.052.026-.13.078-.234a7.62 7.62 0 01.078-.351 13.6 13.6 0 00.078-.429c0-.052-.013-.091-.039-.117v-.156c0-.052.013-.091.039-.117 0-.104.013-.26.039-.468.026-.234.065-.429.117-.585.026-.026.039-.065.039-.117a.346.346 0 00-.039-.156v-.273c.026-.026.039-.052.039-.078.052-.806.091-1.495.117-2.067.026-.572.065-1.222.117-1.95.078-.754.208-1.378.39-1.872.182-.52.611-.78 1.287-.78.208 0 .351.013.429.039.052.026.078.052.078.078.026.026.065.039.117.039l.039.039c.026 0 .052.026.078.078l.195.195c0 .052.013.091.039.117a.454.454 0 01.078.117c.026.052.039.13.039.234.286-.754.585-1.43.897-2.028.312-.624.624-1.144.936-1.56.26-.338.494-.572.702-.702a1.23 1.23 0 01.663-.195c.364 0 .65.078.858.234.234.156.533.559.897 1.209.702 1.222 1.352 2.613 1.95 4.173a78.539 78.539 0 011.755 4.758c.546 1.638 1.066 3.25 1.56 4.836a86.389 86.389 0 001.521 4.29c.26.624.481 1.183.663 1.677.208.468.377.884.507 1.248l.078.234v.039c.026.026.039.052.039.078v.039c.026.026.039.052.039.078l.078.156c.052.13.078.234.078.312.026.104.065.221.117.351v.156c.026.026.039.052.039.078 0 .026-.013.052-.039.078l-.039.039c-.104.078-.143.143-.117.195.026.078-.065.117-.273.117-.052.052-.078.091-.078.117 0 .208-.026.299-.078.273-.026 0-.039.026-.039.078 0 .052-.026.078-.078.078a.454.454 0 00-.078.117 1.513 1.513 0 00-.195.078c-.026.026-.065.039-.117.039-.026 0-.052-.013-.078-.039h-.039a.599.599 0 01-.234-.078.38.38 0 00-.195-.078c-.052 0-.091-.013-.117-.039h-.234c-.026.026-.065.039-.117.039zm-4.134-9.75c-.286-.962-.585-1.924-.897-2.886-.312-.988-.624-1.937-.936-2.847a70.312 70.312 0 00-.936-2.574 20.238 20.238 0 00-.975-2.223c-.13 0-.273.104-.429.312a5.67 5.67 0 00-.429.741 27.332 27.332 0 00-.936 2.34 52.353 52.353 0 00-.858 2.652c-.234.858-.442 1.651-.624 2.379a23.01 23.01 0 00-.351 1.56c.65.052 1.391.091 2.223.117.832.026 1.703.078 2.613.156.364.026.767.065 1.209.117l1.326.156zm9.476 24.297a4.487 4.487 0 01-.39-1.131c-.052-.39-.078-.91-.078-1.56 0-.676.039-1.417.117-2.223.078-.806.156-1.755.234-2.847.026-.442.065-1.001.117-1.677.078-.676.182-1.417.312-2.223-.156 0-.312-.065-.468-.195a1.32 1.32 0 01-.312-.351c-.182-.364-.273-.689-.273-.975 0-.286.026-.533.078-.741.052-.208.143-.442.273-.702 0-.182.052-.39.156-.624.104-.208.234-.429.39-.663l.975-1.326.351-2.067c.208-1.144.481-2.457.819-3.939a67.926 67.926 0 011.326-4.641 14.96 14.96 0 01.702-1.716c.286-.624.611-1.196.975-1.716s.754-.949 1.17-1.287c.442-.338.897-.507 1.365-.507.546 0 1.027.143 1.443.429.416.286.767.663 1.053 1.131.312.442.546.936.702 1.482a5.68 5.68 0 01.234 1.56c0 .78-.117 1.56-.351 2.34-.208.78-.481 1.534-.819 2.262a20.658 20.658 0 01-1.092 1.989c-.39.598-.754 1.131-1.092 1.599l-4.212 5.538a1.014 1.014 0 00-.039.312c-.078.546-.156 1.131-.234 1.755-.052.65-.117 1.261-.195 1.833a45.053 45.053 0 01-.156 1.482c-.026.442-.039.741-.039.897-.13 1.456-.221 2.665-.273 3.627a94.066 94.066 0 00-.039 2.34c0 .182-.026.39-.078.624-.052.26-.117.507-.195.741a5.054 5.054 0 01-.273.663 2.837 2.837 0 01-.234.546c-.182.286-.351.468-.507.546-.156.104-.273.156-.351.156-.234 0-.429-.052-.585-.156-.13-.104-.299-.299-.507-.585zm5.031-21.45c.416-.546.819-1.131 1.209-1.755.39-.624.728-1.248 1.014-1.872a9.8 9.8 0 00.702-1.794c.182-.598.273-1.118.273-1.56 0-.468-.156-.702-.468-.702-.182 0-.364.156-.546.468a9.093 9.093 0 00-.507 1.17 31.84 31.84 0 00-.468 1.443l-.468 1.482c-.13.468-.247.923-.351 1.365-.104.416-.182.754-.234 1.014l-.156.741zm13.423-6.903c.546-.156 1.17-.338 1.872-.546a33.1 33.1 0 002.184-.819c.52-.208 1.092-.455 1.716-.741l1.404-.702c.39-.208.78-.39 1.17-.546.39-.182.715-.273.975-.273s.416.026.468.078c.052.052.221.117.507.195.026.078.091.195.195.351.104.156.208.273.312.351v.156a.346.346 0 01.039.156c0 .026-.013.052-.039.078v.117c0 .052.013.104.039.156a.87.87 0 01-.117.312.434.434 0 00-.039.195.255.255 0 01-.117.117l-.117.117a.376.376 0 01-.156.195.49.49 0 00-.195.117c-.234.208-.65.455-1.248.741-.572.286-1.209.585-1.911.897a73.02 73.02 0 01-2.106.897 58.39 58.39 0 01-1.755.624c-.988.286-1.482.481-1.482.585.026.104.195.312.507.624s.702.689 1.17 1.131c.494.416 1.027.884 1.599 1.404a52.32 52.32 0 011.677 1.443c.546.468 1.027.91 1.443 1.326.442.39.754.702.936.936.13.182.195.299.195.351 0 .052.026.13.078.234.078.078.143.156.195.234a.774.774 0 00-.078.351v.117c0 .026.013.052.039.078a.611.611 0 00-.117.156.346.346 0 01-.039.156l-.195.273-.273.195-.312.156a1.278 1.278 0 00-.195.156.7.7 0 01-.351.117 1.16 1.16 0 01-.585-.156c-.156-.078-.247-.143-.273-.195-.286 0-.507-.104-.663-.312a2.34 2.34 0 00-.507-.507c-.572-.39-1.3-.962-2.184-1.716a70.642 70.642 0 01-3.12-2.964 3.1 3.1 0 00-.585-.429c-.234-.156-.403-.234-.507-.234a.899.899 0 00-.078.312v.312c0 .442.013.819.039 1.131a39.49 39.49 0 00.156 1.443c.026.208.039.429.039.663 0 .494-.117.91-.351 1.248-.286.364-.754.546-1.404.546h-.234c-.364-.052-.611-.234-.741-.546a6.16 6.16 0 01-.234-.936 11.872 11.872 0 01-.117-1.326 36.536 36.536 0 01-.039-1.56c0-.624.026-1.326.078-2.106.078-.806.156-1.586.234-2.34.078-.78.156-1.495.234-2.145.104-.676.182-1.222.234-1.638l.234-1.56c.026-.104.052-.195.078-.273.026-.104.065-.208.117-.312.13-.208.273-.351.429-.429.182-.104.312-.208.39-.312.13 0 .208.013.234.039a.49.49 0 00.195-.117c.052-.052.13-.078.234-.078.078 0 .195.013.351.039.156 0 .299.065.429.195.156.104.286.273.39.507.104.234.156.572.156 1.014 0 .052-.013.156-.039.312a3.08 3.08 0 01-.117.468 3.881 3.881 0 00-.117.585l-.234 1.131zm19.887 13.26c-.208 0-.403-.013-.585-.039a1.26 1.26 0 01-.468-.078 2.766 2.766 0 00-.351-.117c-.078-.026-.143-.104-.195-.234a2.282 2.282 0 01-.117-.585 6.352 6.352 0 01-.039-.702c0-.572.013-1.053.039-1.443.052-.416.104-.78.156-1.092.052-.312.091-.598.117-.858.052-.26.078-.546.078-.858v-4.212c.026-.468.052-.858.078-1.17l.078-1.053-3.042.273c-.286.026-.624.065-1.014.117a6.332 6.332 0 01-.78.078c-.182 0-.325-.039-.429-.117a.696.696 0 01-.195-.195 1.278 1.278 0 00-.156-.195.698.698 0 01-.195-.39 2.842 2.842 0 01-.039-.468 1.209 1.209 0 00-.078-.234v-.195c0-.182.052-.351.156-.507a.42.42 0 00.078-.234.49.49 0 01.117-.195 4.16 4.16 0 011.053-.273c.39-.078.767-.143 1.131-.195.312-.052.663-.104 1.053-.156.39-.052.767-.104 1.131-.156.39-.052.741-.091 1.053-.117.312-.026.559-.052.741-.078 1.612-.156 2.86-.273 3.744-.351.91-.078 1.573-.13 1.989-.156.442-.052.715-.078.819-.078.104-.026.169-.039.195-.039.13 0 .247.013.351.039h.351c.104 0 .169.065.195.195a8.073 8.073 0 00.39.663c.078.052.117.117.117.195a.864.864 0 01-.039.273 1.014 1.014 0 00-.039.312v.312c.026.104.039.195.039.273 0 .182-.104.338-.312.468a.35.35 0 00-.195.234c-.026.078-.104.143-.234.195-.39.182-1.04.273-1.95.273-.494 0-.988.013-1.482.039-.494.026-.962.065-1.404.117-.026.156-.039.39-.039.702 0 .312-.013.767-.039 1.365l-.078 1.365c-.026.234-.052.546-.078.936-.026.39-.052.819-.078 1.287l-.078 1.326v2.184c.026.39.039.845.039 1.365 0 .26-.013.52-.039.78a2.26 2.26 0 01-.156.663 1.908 1.908 0 00-.117.195.265.265 0 01-.078.195c-.026.026-.143.065-.351.117a1.513 1.513 0 01-.195.078c-.052.052-.104.078-.156.078-.052 0-.13.013-.234.039a.736.736 0 01-.234.039zm22.754-2.535c-.052.13-.13.26-.234.39a2.012 2.012 0 01-.39.429 5.701 5.701 0 01-.585.39.883.883 0 01-.585.195c-.182 0-.364-.039-.546-.117-.26-.078-.442-.26-.546-.546a2.519 2.519 0 01-.156-.936v-.39a13.6 13.6 0 00.078-.429c.052-.312.117-.676.195-1.092.078-.442.156-.845.234-1.209.104-.494.195-.884.273-1.17.078-.286.117-.572.117-.858 0-.104-.026-.156-.078-.156-.104 0-.221.091-.351.273a7.658 7.658 0 01-.546.78c-.39.52-.806 1.014-1.248 1.482a26.383 26.383 0 01-1.677 1.599 19.133 19.133 0 01-1.989 1.521 4.235 4.235 0 01-2.301.663c-.78 0-1.391-.299-1.833-.897a3.711 3.711 0 01-.624-2.106c0-.26.013-.559.039-.897.052-.338.091-.689.117-1.053.052-.364.104-.702.156-1.014.052-.338.078-.611.078-.819.052-.338.13-.78.234-1.326.104-.546.156-1.001.156-1.365l.195-1.326c.052-.26.078-.494.078-.702.026-.234.065-.442.117-.624.026-.104.039-.195.039-.273v-.273c0-.208.052-.325.156-.351.156-.13.364-.234.624-.312a.903.903 0 01.507-.078c.156 0 .26-.026.312-.078.286 0 .559.182.819.546.26.364.416.689.468.975.026.078.039.195.039.351v.468c0 .442-.026.871-.078 1.287-.052.416-.117.858-.195 1.326l-.195.78c-.052.312-.117.624-.195.936-.052.312-.104.598-.156.858a5.202 5.202 0 00-.039.507c0 .156.026.299.078.429.078.104.221.156.429.156.234 0 .585-.169 1.053-.507a17.94 17.94 0 001.482-1.209 28.822 28.822 0 001.56-1.521c.52-.546.936-1.027 1.248-1.443.494-.65.897-1.183 1.209-1.599.338-.416.637-.741.897-.975.26-.26.65-.39 1.17-.39a.85.85 0 01.663.312c.208.208.377.416.507.624.208.338.312.715.312 1.131 0 .39.026.793.078 1.209a.692.692 0 01-.078.312.692.692 0 00-.078.312c-.026.286-.052.624-.078 1.014-.026.39-.052.819-.078 1.287a56.622 56.622 0 01-.39 3.354c-.104.806-.247 1.469-.429 1.989l-.039.156zm10.006-8.151c.286-.208.611-.455.975-.741.39-.286.728-.559 1.014-.819l3.9-3.393c.13-.13.273-.247.429-.351.156-.13.299-.26.429-.39.364-.338.637-.507.819-.507.234 0 .416.026.546.078.156.052.325.169.507.351.156.182.247.325.273.429a.692.692 0 01.039.546v.312c0 .26-.065.507-.195.741-.13.234-.26.39-.39.468l-.663.663c-.312.286-.611.533-.897.741-.13.104-.364.286-.702.546-.312.26-.65.546-1.014.858-.364.312-.728.611-1.092.897l-.78.663-1.092.897a1.278 1.278 0 00-.195.156c-.052.026-.078.078-.078.156s.039.156.117.234l5.187 4.719c.234.182.455.403.663.663.234.26.39.494.468.702.052.13.078.208.078.234.026.052.052.13.078.234a.692.692 0 01.078.312c0 .052-.013.156-.039.312v.351a.899.899 0 01-.078.312.837.837 0 01-.156.273c-.052.078-.195.156-.429.234-.208.078-.377.143-.507.195-.13-.026-.221-.065-.273-.117-.052-.052-.156-.078-.312-.078-.182 0-.39-.065-.624-.195a2.98 2.98 0 01-.624-.429 5.453 5.453 0 01-.585-.507 9.127 9.127 0 00-.429-.351 18.677 18.677 0 00-.741-.624 14.662 14.662 0 01-.624-.585l-2.496-2.691c-.26-.286-.52-.598-.78-.936a20.354 20.354 0 01-.507-.819l-.078-.156a.423.423 0 01-.078-.156.434.434 0 00-.039-.195.346.346 0 01-.039-.156c0-.078-.026-.117-.078-.117-.026 0-.052.026-.078.078 0 .052-.026.182-.078.39a16.194 16.194 0 00-.351 1.677c-.078.494-.143.923-.195 1.287l-.585 3.003c-.026.13-.065.312-.117.546-.052.26-.104.507-.156.741-.052.26-.104.494-.156.702-.052.208-.091.325-.117.351-.156.156-.377.234-.663.234-.208 0-.416-.039-.624-.117-.182-.078-.299-.143-.351-.195a.993.993 0 01-.234-.234 1.55 1.55 0 00-.195-.234.984.984 0 01-.117-.234 2.743 2.743 0 01-.156-.663 7.106 7.106 0 01-.039-.78v-.507c.026-.182.052-.377.078-.585l.117-1.248.195-1.365c.052-.364.143-.858.273-1.482.13-.65.273-1.313.429-1.989.156-.702.299-1.365.429-1.989l.351-1.404.312-1.053c.13-.468.247-.923.351-1.365.13-.468.247-.897.351-1.287.104-.39.169-.65.195-.78 0-.052.013-.117.039-.195.026-.104.052-.182.078-.234a.454.454 0 01.078-.117l.078-.156a.454.454 0 01.078-.117.984.984 0 00.117-.234.262.262 0 01.234-.117c.208 0 .416.026.624.078.234.052.403.117.507.195.26.182.481.442.663.78.078.13.169.338.273.624.104.26.156.481.156.663 0 .286-.039.624-.117 1.014-.078.39-.182.793-.312 1.209-.104.39-.221.78-.351 1.17a18.1 18.1 0 01-.312 1.053l.312-.078zm24.995 8.151c-.052.13-.13.26-.234.39a2.012 2.012 0 01-.39.429 5.701 5.701 0 01-.585.39.883.883 0 01-.585.195c-.182 0-.364-.039-.546-.117-.26-.078-.442-.26-.546-.546a2.519 2.519 0 01-.156-.936v-.39a13.6 13.6 0 00.078-.429c.052-.312.117-.676.195-1.092.078-.442.156-.845.234-1.209.104-.494.195-.884.273-1.17.078-.286.117-.572.117-.858 0-.104-.026-.156-.078-.156-.104 0-.221.091-.351.273a7.658 7.658 0 01-.546.78c-.39.52-.806 1.014-1.248 1.482a26.383 26.383 0 01-1.677 1.599 19.133 19.133 0 01-1.989 1.521 4.235 4.235 0 01-2.301.663c-.78 0-1.391-.299-1.833-.897a3.711 3.711 0 01-.624-2.106c0-.26.013-.559.039-.897.052-.338.091-.689.117-1.053.052-.364.104-.702.156-1.014.052-.338.078-.611.078-.819.052-.338.13-.78.234-1.326.104-.546.156-1.001.156-1.365l.195-1.326c.052-.26.078-.494.078-.702.026-.234.065-.442.117-.624.026-.104.039-.195.039-.273v-.273c0-.208.052-.325.156-.351.156-.13.364-.234.624-.312a.903.903 0 01.507-.078c.156 0 .26-.026.312-.078.286 0 .559.182.819.546.26.364.416.689.468.975.026.078.039.195.039.351v.468c0 .442-.026.871-.078 1.287-.052.416-.117.858-.195 1.326l-.195.78c-.052.312-.117.624-.195.936-.052.312-.104.598-.156.858a5.202 5.202 0 00-.039.507c0 .156.026.299.078.429.078.104.221.156.429.156.234 0 .585-.169 1.053-.507a17.94 17.94 0 001.482-1.209 28.822 28.822 0 001.56-1.521c.52-.546.936-1.027 1.248-1.443.494-.65.897-1.183 1.209-1.599.338-.416.637-.741.897-.975.26-.26.65-.39 1.17-.39a.85.85 0 01.663.312c.208.208.377.416.507.624.208.338.312.715.312 1.131 0 .39.026.793.078 1.209a.692.692 0 01-.078.312.692.692 0 00-.078.312c-.026.286-.052.624-.078 1.014-.026.39-.052.819-.078 1.287a56.622 56.622 0 01-.39 3.354c-.104.806-.247 1.469-.429 1.989l-.039.156z" fill="#fff"/><defs><radialGradient id="paint0_radial" cx="0" cy="0" r="1" gradientUnits="userSpaceOnUse" gradientTransform="matrix(152.41628 18.56692 -16.83216 138.17555 150.519 150.887)"><stop stop-color="#407B9A"/><stop offset=".645" stop-color="#3682A1"/><stop offset=".941" stop-color="#C6DDEE"/><stop offset="1" stop-color="#fff"/></radialGradient><linearGradient id="paint1_linear" x1="153.448" y1="32.241" x2="150.095" y2="83.537" gradientUnits="userSpaceOnUse"><stop stop-color="#fff"/><stop offset=".475" stop-color="#D4EFFD" stop-opacity=".5"/><stop offset="1" stop-color="#3699D6" stop-opacity="0"/></linearGradient></defs></svg>