<svg width="88" height="109" fill="none" xmlns="http://www.w3.org/2000/svg"><path opacity=".42" d="M23.07 88.039c10.7 11.669 29.4 20.352 42.6 19.9 13.2-.362 15.9-8.322 19.9-20.714 2.4-7.599 1.6-19.268.1-28.133-2.8-16.463-.8-16.644-9.5-34.554-3.4-7.146-7.4-13.026-12.5-16.554-3.7-2.533-11.8-6.784-20.1-7.237-17.9-.904-36 11.127-40.2 29.399-5.5 22.976-2.4 33.831 19.7 57.893z" fill="url(#paint0_radial)" stroke="#fff" stroke-width=".892" stroke-miterlimit="10"/><path opacity=".33" d="M20.27 19.652c1.1-1.176 8.4-6.513 12-7.508 2.6-.723 13.2-3.98 19.6-1.176 4.8 2.08 7.1 2.624 9.6 9.227.3.724.4 4.794-1.6 4.794-3.7-.18-11.9-1.628-22.5 1.357-2.7.724-9.6 3.98-12 5.609-1.2.723-5.6 3.256-6.7 2.894-5.6-1.718-.4-12.935 1.6-15.197z" fill="url(#paint1_linear)"/><defs><radialGradient id="paint0_radial" cx="0" cy="0" r="1" gradientUnits="userSpaceOnUse" gradientTransform="matrix(38.1083 -19.4817 26.08816 51.03124 47.44 57.557)"><stop stop-color="#407B9A"/><stop offset=".645" stop-color="#3682A1"/><stop offset=".941" stop-color="#C6DDEE" stop-opacity=".8"/><stop offset="1" stop-color="#fff" stop-opacity=".8"/></radialGradient><linearGradient id="paint1_linear" x1="37.047" y1="13.626" x2="38.666" y2="36.629" gradientUnits="userSpaceOnUse"><stop stop-color="#fff"/><stop offset=".475" stop-color="#D4EFFD" stop-opacity=".5"/><stop offset="1" stop-color="#3699D6" stop-opacity="0"/></linearGradient></defs></svg>