<svg width="244" height="206" fill="none" xmlns="http://www.w3.org/2000/svg"><path opacity=".47" d="M5.617 104.997c-6.812 30.575-6.703 70.738 24.65 84.035 30.812 13.116 52.219 18.996 86.924 11.398 21.082-4.614 32.866-8.142 50.165-20.625 31.569-22.976 39.894-30.665 60.868-61.782 9.19-13.659 15.244-30.394 13.947-42.515-.973-8.865-10.379-22.886-17.19-30.846-27.137-31.66-98.817-45.32-128.008-42.696-63.68 6.06-77.193 40.072-91.356 103.031z" fill="url(#paint0_radial)" stroke="#fff" stroke-width="2.939" stroke-miterlimit="10"/><path opacity=".4" d="M162.923 41.224c3.136.905 18.596 9.046 23.245 13.93 3.351 3.619 17.839 17.911 17.623 29.4 0 8.683.973 12.482-9.406 20.171-1.082.814-8.217 3.438-10.055.272-2.595-5.7-6.487-19.177-20.326-33.74-3.459-3.62-14.811-12.394-19.676-15.288-2.271-1.357-10.379-6.785-10.488-8.684-1.297-9.136 23.353-7.96 29.083-6.06z" fill="url(#paint1_linear)"/><path d="M53.167 73.423c-.072.024-.264.036-.576.036h-.54c-.048.48-.108 1.008-.18 1.584a138.16 138.16 0 01-.144 1.62c-.048.36-.108.852-.18 1.476-.048.624-.108 1.308-.18 2.052-.072.72-.156 1.464-.252 2.232-.072.744-.144 1.44-.216 2.088-.024.264-.06.576-.108.936a269.725 269.725 0 00-.144 2.196v1.404c.024.12.036.24.036.36l.072 1.764c-.024.6-.084 1.092-.18 1.476-.096.408-.336.672-.72.792l-.72.252-.396-.144-.396-.216-.396-.612c-.072-.072-.108-.144-.108-.216v-.144a.32.32 0 00.036-.144c0-.048-.024-.096-.072-.144-.12-.096-.18-.192-.18-.288 0-.072-.012-.204-.036-.396-.024-.024-.036-.084-.036-.18V91.1c.024 0 .036-.012.036-.036 0-.048-.012-.084-.036-.108v-.036a.32.32 0 01.036-.144c0-.024.012-.06.036-.108l.072-2.196c.048-.72.096-1.56.144-2.52l.252-3.384c.12-1.32.276-2.94.468-4.86.048-.432.108-1.044.18-1.836.096-.792.144-1.56.144-2.304l-2.412.144a64.67 64.67 0 01-1.62.036c-.288.024-.636.036-1.044.036h-1.152c-.384 0-.744.012-1.08.036-.336 0-.6.012-.792.036l-.216 2.196c-.024.312-.06.528-.108.648-.024.12-.036.24-.036.36v.54c.024.192.036.396.036.612v.324c0 .096-.012.204-.036.324-.024.072-.06.156-.108.252a4.73 4.73 0 00-.072.36l-.072.864a43.12 43.12 0 00-.144 1.908c-.024.48-.048.936-.072 1.368-.024.504-.048.912-.072 1.224v1.584c0 .24-.012.516-.036.828a.564.564 0 01-.108.144c-.048.048-.072.096-.072.144.024.048.06.072.108.072.048-.024.072 0 .072.072l-.072.072c-.024.024-.048.036-.072.036-.024 0-.036.012-.036.036a1.263 1.263 0 00-.036.36v.576c.024.192.036.384.036.576 0 .24-.024.456-.072.648-.024.168-.048.348-.072.54a9.038 9.038 0 01-.18 1.584 6.081 6.081 0 01-.432 1.44c-.048 0-.084-.012-.108-.036h-.036a.798.798 0 00-.252.036 1.18 1.18 0 01-.18.144c-.024.024-.072.06-.144.108a.244.244 0 01-.18.072c-.048 0-.096-.024-.144-.072-.096-.072-.312-.192-.648-.36-.336-.168-.564-.324-.684-.468-.096-.096-.144-.276-.144-.54V92c.024-.144.036-.252.036-.324 0-.048-.024-.096-.072-.144-.048-.024-.072-.072-.072-.144l.324-1.512c.048-.168.072-.3.072-.396v-.684c0-.12.012-.24.036-.36.048-.408.06-.84.036-1.296 0-.48.024-.996.072-1.548l.108-1.98.072-1.872c.024-.672.06-1.284.108-1.836l.144-2.664c.048-.912.096-1.62.144-2.124l.036-.612c0-.24-.024-.408-.072-.504a1.393 1.393 0 00-.252-.18c-.12-.072-.18-.216-.18-.432 0-.168-.024-.312-.072-.432a1.359 1.359 0 01-.072-.432c0-.264.06-.492.18-.684.144-.216.312-.396.504-.54.264-.216.588-.312.972-.288.384 0 .744-.024 1.08-.072.168-.024.408-.036.72-.036.312-.024.648-.036 1.008-.036.384-.024.78-.036 1.188-.036.432-.024.84-.048 1.224-.072.504-.024 1.212-.06 2.124-.108l2.7-.144a135.137 135.137 0 013.6-.144c.12 0 .204.012.252.036l.144.072c.24.096.396.144.468.144h.072c0-.024.024-.036.072-.036.024 0 .06.024.108.072.072.024.132.084.18.18.072.072.144.12.216.144.048.024.072.06.072.108 0 .024.036.048.108.072 0 .048.012.084.036.108.048.024.072.072.072.144.024.024.036.072.036.144s.012.12.036.144c.024.024.012.06-.036.108-.024.024-.036.06-.036.108-.024.096-.048.18-.072.252v.432c.024.096.048.168.072.216l.036.324c0 .072-.108.132-.324.18-.216.048-.36.084-.432.108zm7.406 18c-.696 0-1.296-.12-1.8-.36a3.552 3.552 0 01-1.188-.936 4.938 4.938 0 01-.72-1.296 4.989 4.989 0 01-.216-1.44c0-.744.144-1.428.432-2.052a9.525 9.525 0 011.044-1.8c.144-.192.312-.408.504-.648.216-.264.432-.504.648-.72.24-.24.468-.456.684-.648.216-.192.408-.324.576-.396.336-.168.576-.324.72-.468.168-.168.396-.252.684-.252.576 0 1.092.144 1.548.432.456.264.84.624 1.152 1.08.312.456.54.972.684 1.548.168.576.252 1.164.252 1.764 0 1.896-.42 3.408-1.26 4.536-.84 1.104-2.088 1.656-3.744 1.656zm.864-7.92c-.096 0-.192.012-.288.036a.345.345 0 00-.252.108 4.386 4.386 0 00-.468.54c-.12.144-.276.384-.468.72a3.86 3.86 0 00-.324.864 5.336 5.336 0 00-.108 1.116c0 .408.108.744.324 1.008.216.24.564.36 1.044.36.288 0 .576-.072.864-.216.288-.168.54-.384.756-.648.216-.264.396-.576.54-.936.144-.36.216-.744.216-1.152 0-.456-.144-.864-.432-1.224-.288-.384-.648-.576-1.08-.576h-.324zm8.22 8.892c-.623 0-1.08-.156-1.367-.468a1.883 1.883 0 01-.504-1.08c-.024-.048-.036-.144-.036-.288s-.024-.24-.072-.288l.144-.144c.072-.072.132-.108.18-.108l-.108-.18c.072 0 .108-.012.108-.036.024-.024.06-.036.108-.036.024 0 .048.012.072.036h.072c.12 0 .18-.048.18-.144 0-.024-.012-.048-.036-.072h-.036c.192-.096.372-.144.54-.144.168 0 .312.024.432.072.144.048.324.072.54.072.816 0 1.38-.54 1.692-1.62.336-1.104.504-2.556.504-4.356 0-.096-.012-.288-.036-.576v-1.044c0-.384-.012-.756-.036-1.116v-.864c0-.456.108-.912.324-1.368.24-.456.588-.708 1.044-.756.288-.024.72-.048 1.296-.072.6-.048 1.224-.084 1.872-.108a27.79 27.79 0 011.98-.072 48.764 48.764 0 011.692-.036c.672 0 1.116.18 1.332.54.216.36.324.768.324 1.224 0 1.056-.096 2.376-.288 3.96-.192 1.56-.288 3.276-.288 5.148 0 .6.06 1.104.18 1.512.12.384.18.828.18 1.332 0 .096-.024.216-.072.36-.096.264-.264.396-.504.396 0 .072-.072.108-.216.108-.12.024-.228.036-.324.036a.639.639 0 01-.288-.072 1.338 1.338 0 00-.324-.036.501.501 0 00-.216.036 1.407 1.407 0 00-.288-.108c-.072 0-.144-.036-.216-.108a.244.244 0 01-.072-.18c0-.048-.024-.096-.072-.144l-.144-.144a.838.838 0 01-.144-.216 3.284 3.284 0 01-.252-.864 11.746 11.746 0 01-.036-.9v-.576c.024-.24.06-.444.108-.612-.024-.096-.036-.3-.036-.612 0-.408.012-.804.036-1.188.024-.408.048-.876.072-1.404.048-.528.096-1.152.144-1.872.072-.744.132-1.68.18-2.808l-3.348.144c-.024.024-.06.036-.108.036a.4.4 0 01-.18.036.83.83 0 01-.288-.072.963.963 0 00-.36-.072c0 .096.024.168.072.216.072.048.108.084.108.108 0 .192.012.372.036.54v.504c.024.168.036.324.036.468 0 .72-.012 1.464-.036 2.232a16.598 16.598 0 01-.216 2.196.456.456 0 01-.108.216c-.048.048-.072.132-.072.252s.024.228.072.324c-.072.024-.132.132-.18.324a.798.798 0 00-.036.252c0 .096-.024.168-.072.216 0 .192-.012.336-.036.432-.336 1.08-.864 1.956-1.584 2.628-.72.672-1.728 1.008-3.024 1.008zm22.362.288c-1.224 0-2.316-.288-3.276-.864-.936-.552-1.596-1.464-1.98-2.736a9.214 9.214 0 01-.36-1.836 4.5 4.5 0 01-.288-.36c-.024-.096-.048-.156-.072-.18-.024 0-.036-.012-.036-.036 0-.048-.036-.072-.108-.072-.048 0-.084-.036-.108-.108v-.432a.68.68 0 00.036-.216c0-.024.012-.036.036-.036a.419.419 0 00.108-.072l.504-.072c.12-.84.384-1.692.792-2.556.432-.864.972-1.68 1.62-2.448.168-.216.42-.468.756-.756.336-.312.72-.6 1.152-.864a8.628 8.628 0 011.404-.72 3.812 3.812 0 011.512-.324c.816 0 1.536.288 2.16.864.624.552.936 1.296.936 2.232 0 .264-.036.552-.108.864-.048.288-.12.564-.216.828-.12.336-.3.696-.54 1.08a8.449 8.449 0 01-.72 1.08 8.272 8.272 0 01-1.08 1.152c-.36.312-.768.624-1.224.936-.552.336-1.116.636-1.692.9-.576.264-1.14.396-1.692.396 0 .336.084.6.252.792.168.192.372.348.612.468.264.096.552.156.864.18.312.024.612.036.9.036.936 0 1.608-.096 2.016-.288.432-.216.744-.324.936-.324.192 0 .312.024.36.072.144.12.228.252.252.396.024.12.036.264.036.432v.252c0 .144-.024.312-.072.504a2.365 2.365 0 01-.18.54c-.336.456-.828.78-1.476.972a6.122 6.122 0 01-2.016.324zm-2.556-6.84c.456-.096.948-.3 1.476-.612a10.262 10.262 0 001.512-1.116 7.22 7.22 0 001.188-1.26c.312-.456.468-.864.468-1.224 0-.096-.048-.204-.144-.324-.096-.12-.276-.18-.54-.18-.408 0-.816.132-1.224.396a3.84 3.84 0 00-.972.864c-.288.36-.54.684-.756.972a5.925 5.925 0 00-.468.828 7.16 7.16 0 00-.324.756c-.072.264-.144.564-.216.9zm14.192 5.976c-.264 0-.564-.012-.9-.036a18.25 18.25 0 01-1.008-.108 3.329 3.329 0 01-.396-.108 4.292 4.292 0 01-.324-.144.884.884 0 00-.324-.072c-.072.024-.144 0-.216-.072a16.75 16.75 0 01-.684-.504c-.192-.144-.312-.36-.36-.648a2.49 2.49 0 00-.072-.288.936.936 0 01-.036-.288c0-.096.024-.18.072-.252a.639.639 0 00.072-.288.39.39 0 01.108-.288c.072-.096.144-.144.216-.144.144-.048.3-.072.468-.072.216 0 .432.024.648.072.216.024.396.06.54.108.336.072.636.168.9.288.264.12.672.18 1.224.18.384 0 .78-.012 1.188-.036a6.14 6.14 0 001.116-.216c.336-.12.612-.288.828-.504.216-.24.324-.564.324-.972 0-.576-.156-.996-.468-1.26-.312-.288-.876-.432-1.692-.432-.288 0-.624.024-1.008.072a8.734 8.734 0 01-1.08.072c-.168 0-.324-.036-.468-.108-.192-.048-.324-.12-.396-.216a.908.908 0 01-.216-.612c0-.144.012-.252.036-.324a.512.512 0 00.072-.288c0-.12.012-.192.036-.216.024-.048.048-.072.072-.072.048 0 .096-.024.144-.072a1.18 1.18 0 01.18-.144c.096-.048.18-.084.252-.108.12-.024.324-.036.612-.036.408-.024.828-.072 1.26-.144a5.635 5.635 0 001.224-.396c.36-.168.66-.384.9-.648s.36-.6.36-1.008c0-.408-.132-.744-.396-1.008-.24-.288-.612-.432-1.116-.432-.504 0-.972.036-1.404.108-.408.072-.816.252-1.224.54l-.18.18c-.12.12-.288.204-.504.252-.36.096-.696.144-1.008.144v-.072c.024 0 .036-.012.036-.036 0-.048-.036-.072-.108-.072-.024 0-.108.024-.252.072-.072 0-.156.036-.252.108l.036-.252c-.048 0-.132-.012-.252-.036a.58.58 0 00-.252-.072.513.513 0 00.072-.288c.024-.144.036-.252.036-.324 0-.648.24-1.152.72-1.512a4.907 4.907 0 011.692-.864 9.227 9.227 0 011.944-.36c.648-.072 1.128-.108 1.44-.108 1.392 0 2.424.288 3.096.864.672.552 1.008 1.452 1.008 2.7 0 .6-.144 1.176-.432 1.728-.264.528-.756.996-1.476 1.404.768.264 1.32.672 1.656 1.224.36.528.54 1.2.54 2.016 0 .72-.168 1.356-.504 1.908-.336.528-.804.984-1.404 1.368-.576.384-1.272.672-2.088.864-.816.192-1.692.288-2.628.288zm21.391.396c-.144 0-.276-.012-.396-.036-.12-.024-.24-.06-.36-.108a1.409 1.409 0 01-.324-.18 1.43 1.43 0 00-.216-.18c-.24 0-.42-.192-.54-.576a2.442 2.442 0 01-.216-.792v-.864c0-.312.012-.612.036-.9.024-.288.036-.588.036-.9v-.936c.024-.312.048-.672.072-1.08-.264.024-.492.048-.684.072h-.324l-4.284.252c-.048.408-.084.804-.108 1.188v.864c0 .48.012.876.036 1.188.048.312.072.624.072.936 0 .696-.084 1.212-.252 1.548-.048.168-.144.252-.288.252l-.18.18c-.048.048-.12.072-.216.072a1.73 1.73 0 01-.54-.072 2.424 2.424 0 00-.396-.036h-.144a.32.32 0 01-.144.036.639.639 0 01-.288-.072 1.18 1.18 0 01-.18-.144.347.347 0 01-.144-.18.387.387 0 00-.072-.216c-.072 0-.132-.06-.18-.18a1.832 1.832 0 01-.036-.36v-.396c.024-.144.048-.312.072-.504.168-1.8.288-3.336.36-4.608.096-1.296.144-2.22.144-2.772 0-.576-.024-1.128-.072-1.656a31.13 31.13 0 01-.036-1.188c0-.264.036-.432.108-.504 0-.024-.012-.048-.036-.072v-.216c.024-.024.036-.048.036-.072 0-.048.012-.156.036-.324.048-.168.12-.336.216-.504.12-.192.276-.36.468-.504.216-.144.48-.216.792-.216.648 0 1.08.132 1.296.396.216.264.324.66.324 1.188 0 .072-.012.156-.036.252v.252l-.324 1.98c0 .168-.012.372-.036.612 0 .216-.024.6-.072 1.152h1.044c.36-.024.696-.036 1.008-.036.312-.024.576-.036.792-.036.216-.024.36-.036.432-.036h.72c.432-.024.888-.048 1.368-.072.048-.456.072-.948.072-1.476.024-.528.06-1.116.108-1.764a2.007 2.007 0 01-.108-.504 4.876 4.876 0 01-.036-.504c0-.168-.012-.324-.036-.468a2.424 2.424 0 01-.036-.396c0-.168.048-.324.144-.468.072-.12.156-.18.252-.18a.803.803 0 00.288-.108 1.24 1.24 0 01.792-.288c.24 0 .408.012.504.036.192.048.312.132.36.252.072.096.204.216.396.36.12 0 .192.132.216.396.048.264.072.504.072.72 0 .528-.036 1.164-.108 1.908-.048.72-.108 1.512-.18 2.376h.108a.32.32 0 01.144-.036h.108a.407.407 0 00.144.144c.096.048.144.168.144.36 0 .168.012.312.036.432a.714.714 0 01.072.324c0 .192-.048.384-.144.576a2.032 2.032 0 01-.324.432.982.982 0 01-.468.252 41.932 41.932 0 00-.108 2.988c0 .6.06 1.104.18 1.512.12.384.18.828.18 1.332a.67.67 0 01-.144.432c-.072.12-.168.18-.288.18-.048.12-.144.192-.288.216-.12.048-.252.072-.396.072zm21.458.144a.592.592 0 01-.18-.036h-.18c-.096 0-.192-.012-.288-.036h-.324c-.048 0-.084-.012-.108-.036-.024-.024-.06-.036-.108-.036a.71.71 0 00-.252-.18c-.072 0-.144-.036-.216-.108a.244.244 0 01-.072-.18.244.244 0 00-.072-.18l-.144-.144c-.048-.048-.072-.12-.072-.216 0-1.128.036-2.028.108-2.7.096-.672.156-1.308.18-1.908l.108-3.024.072-1.728c.048-.624.096-1.272.144-1.944.048-.336.084-.648.108-.936.048-.288.108-.54.18-.756.048-.144.096-.252.144-.324.048-.072.144-.156.288-.252l.144-.144a.345.345 0 01.252-.108.32.32 0 01.144.036h.216a.68.68 0 00.216-.036.985.985 0 01.216-.036c.12 0 .276.024.468.072.12.048.204.132.252.252.048.024.12.132.216.324.096.144.144.348.144.612 0 .576-.024 1.2-.072 1.872a51.3 51.3 0 01-.252 2.484l-.36 3.348c0 .48.012.936.036 1.368.024.432.036.78.036 1.044 0 .096-.012.228-.036.396v.504a5.864 5.864 0 00-.036.648c0 .192-.024.408-.072.648-.024.24-.06.432-.108.576 0 .168-.012.3-.036.396-.072.216-.204.324-.396.324-.024.048-.072.084-.144.108a.32.32 0 01-.144.036zm-10.728.18c-.576 0-1.152-.06-1.728-.18a5.201 5.201 0 01-1.512-.576 3.317 3.317 0 01-1.08-1.08c-.264-.456-.396-1.02-.396-1.692 0-.6.024-1.236.072-1.908.072-.696.156-1.392.252-2.088.096-.696.192-1.368.288-2.016a39.844 39.844 0 00.432-3.06c.072-.456.144-.816.216-1.08.096-.312.252-.576.468-.792.12-.12.276-.18.468-.18a.32.32 0 00.144-.036.35.35 0 01.18-.072.32.32 0 01.144.036h.18a.68.68 0 00.216-.036.592.592 0 01.18-.036c.216 0 .432.072.648.216.216.12.384.312.504.576.048.096.072.276.072.54 0 .336-.084.624-.252.864-.168.216-.276.516-.324.9l-.36 2.412c.168-.024.36-.06.576-.108.192-.048.408-.084.648-.108.24-.024.528-.036.864-.036.744 0 1.44.072 2.088.216.648.12 1.212.372 1.692.756.12.096.24.228.36.396.144.168.216.324.216.468.072.048.144.108.216.18.048.048.096.12.144.216.072.096.12.204.144.324 0 .408.048.756.144 1.044.096.264.144.588.144.972 0 .792-.168 1.5-.504 2.124a4.27 4.27 0 01-1.296 1.548c-.528.432-1.164.756-1.908.972a8.351 8.351 0 01-2.34.324zm-.396-2.628h.684c.216 0 .42-.024.612-.072l.216-.144.144-.072c.048-.048.096-.072.144-.072.12-.024.216-.036.288-.036.072 0 .168-.06.288-.18.144-.048.24-.096.288-.144.072-.048.192-.204.36-.468.168-.312.252-.732.252-1.26 0-.432-.072-.768-.216-1.008a1.343 1.343 0 00-.612-.54 1.863 1.863 0 00-.828-.252 6.387 6.387 0 00-.972-.072c-.672 0-1.236.096-1.692.288-.192.696-.288 1.5-.288 2.412 0 .12.012.276.036.468.024.192.072.372.144.54.096.168.228.312.396.432.192.12.444.18.756.18zm22.873 2.772c-1.224 0-2.316-.288-3.276-.864-.936-.552-1.596-1.464-1.98-2.736a9.214 9.214 0 01-.36-1.836 4.5 4.5 0 01-.288-.36c-.024-.096-.048-.156-.072-.18-.024 0-.036-.012-.036-.036 0-.048-.036-.072-.108-.072-.048 0-.084-.036-.108-.108v-.432a.68.68 0 00.036-.216c0-.024.012-.036.036-.036a.419.419 0 00.108-.072l.504-.072c.12-.84.384-1.692.792-2.556.432-.864.972-1.68 1.62-2.448.168-.216.42-.468.756-.756.336-.312.72-.6 1.152-.864a8.628 8.628 0 011.404-.72 3.812 3.812 0 011.512-.324c.816 0 1.536.288 2.16.864.624.552.936 1.296.936 2.232 0 .264-.036.552-.108.864-.048.288-.12.564-.216.828-.12.336-.3.696-.54 1.08a8.449 8.449 0 01-.72 1.08 8.272 8.272 0 01-1.08 1.152c-.36.312-.768.624-1.224.936-.552.336-1.116.636-1.692.9-.576.264-1.14.396-1.692.396 0 .336.084.6.252.792.168.192.372.348.612.468.264.096.552.156.864.18.312.024.612.036.9.036.936 0 1.608-.096 2.016-.288.432-.216.744-.324.936-.324.192 0 .312.024.36.072.144.12.228.252.252.396.024.12.036.264.036.432v.252c0 .144-.024.312-.072.504a2.365 2.365 0 01-.18.54c-.336.456-.828.78-1.476.972a6.122 6.122 0 01-2.016.324zm-2.556-6.84c.456-.096.948-.3 1.476-.612a10.262 10.262 0 001.512-1.116 7.22 7.22 0 001.188-1.26c.312-.456.468-.864.468-1.224 0-.096-.048-.204-.144-.324-.096-.12-.276-.18-.54-.18-.408 0-.816.132-1.224.396a3.84 3.84 0 00-.972.864c-.288.36-.54.684-.756.972a5.925 5.925 0 00-.468.828 7.16 7.16 0 00-.324.756c-.072.264-.144.564-.216.9zm-107.93 57.5c-.048.12-.12.24-.216.36a1.857 1.857 0 01-.36.396 5.263 5.263 0 01-.54.36.815.815 0 01-.54.18 1.27 1.27 0 01-.504-.108c-.24-.072-.408-.24-.504-.504a2.325 2.325 0 01-.144-.864v-.36c.024-.12.048-.252.072-.396.048-.288.108-.624.18-1.008.072-.408.144-.78.216-1.116a19.9 19.9 0 01.252-1.08c.072-.264.108-.528.108-.792 0-.096-.024-.144-.072-.144-.096 0-.204.084-.324.252a7.07 7.07 0 01-.504.72c-.36.48-.744.936-1.152 1.368-.408.432-.924.924-1.548 1.476-.576.504-1.188.972-1.836 1.404a3.91 3.91 0 01-2.124.612c-.72 0-1.284-.276-1.692-.828a3.426 3.426 0 01-.576-1.944c0-.24.012-.516.036-.828.048-.312.084-.636.108-.972.048-.336.096-.648.144-.936.048-.312.072-.564.072-.756.048-.312.12-.72.216-1.224s.144-.924.144-1.26l.18-1.224c.048-.24.072-.456.072-.648.024-.216.06-.408.108-.576.024-.096.036-.18.036-.252v-.252c0-.192.048-.3.144-.324.144-.12.336-.216.576-.288.168-.072.324-.096.468-.072.144 0 .24-.024.288-.072.264 0 .516.168.756.504.24.336.384.636.432.9.024.072.036.18.036.324v.432c0 .408-.024.804-.072 1.188-.048.384-.108.792-.18 1.224l-.18.72c-.048.288-.108.576-.18.864-.048.288-.096.552-.144.792a4.802 4.802 0 00-.036.468c0 .144.024.276.072.396.072.096.204.144.396.144.216 0 .54-.156.972-.468a16.56 16.56 0 001.368-1.116c.504-.456.984-.924 1.44-1.404.48-.504.864-.948 1.152-1.332.456-.6.828-1.092 1.116-1.476.312-.384.588-.684.828-.9.24-.24.6-.36 1.08-.36.24 0 .444.096.612.288.192.192.348.384.468.576.192.312.288.66.288 1.044 0 .36.024.732.072 1.116a.639.639 0 01-.072.288.639.639 0 00-.072.288c-.024.264-.048.576-.072.936-.024.36-.048.756-.072 1.188a52.266 52.266 0 01-.36 3.096c-.096.744-.228 1.356-.396 1.836l-.036.144zm15.932-3.996c.144.048.264.168.36.36.168.336.252.732.252 1.188 0 .192-.06.384-.18.576a1.784 1.784 0 01-.324.468c-.24.24-.456.468-.648.684-.192.192-.42.384-.684.576-.264.192-.612.408-1.044.648-.408.264-.84.492-1.296.684a6.425 6.425 0 01-.828.324 3.246 3.246 0 01-.684.216 3.146 3.146 0 01-.684.072c-.24.024-.528.036-.864.036-.432 0-.888-.084-1.368-.252-.456-.144-.78-.276-.972-.396-.792-.48-1.356-1.116-1.692-1.908-.336-.816-.504-1.812-.504-2.988 0-.72.084-1.416.252-2.088.168-.696.384-1.332.648-1.908.288-.6.6-1.14.936-1.62.36-.48.72-.888 1.08-1.224.192-.192.444-.408.756-.648.336-.24.672-.456 1.008-.648.36-.192.744-.36 1.152-.504.408-.168.912-.252 1.512-.252s1.164.228 1.692.684c.552.432.828.96.828 1.584 0 .144-.012.276-.036.396-.024.096-.06.192-.108.288a1.81 1.81 0 01-.252.468 1.04 1.04 0 01-.324.324c-.192.144-.504.216-.936.216-.264 0-.468-.012-.612-.036-.144-.048-.348-.072-.612-.072-.384 0-.816.168-1.296.504-.456.312-.888.732-1.296 1.26a8.549 8.549 0 00-1.044 1.764 4.855 4.855 0 00-.396 1.908c0 .6.108 1.092.324 1.476.24.384.672.576 1.296.576a4.13 4.13 0 001.548-.288 15.74 15.74 0 001.224-.576c.24-.12.528-.288.864-.504.36-.24.672-.444.936-.612.24-.144.432-.288.576-.432.144-.144.288-.252.432-.324a2.052 2.052 0 01.612-.144.62.62 0 01.396.144zm7.039-5.904c.504-.144 1.08-.312 1.728-.504.648-.216 1.32-.468 2.016-.756a35.3 35.3 0 001.584-.684l1.296-.648c.36-.192.72-.36 1.08-.504.36-.168.66-.252.9-.252s.384.024.432.072c.048.048.204.108.468.18.024.072.084.18.18.324.096.144.192.252.288.324v.144a.32.32 0 01.036.144c0 .024-.012.048-.036.072v.108a.32.32 0 00.036.144.803.803 0 01-.108.288.4.4 0 00-.036.18.235.235 0 01-.108.108l-.108.108a.347.347 0 01-.144.18.452.452 0 00-.18.108c-.216.192-.6.42-1.152.684a43.17 43.17 0 01-1.764.828c-.648.288-1.296.564-1.944.828-.648.24-1.188.432-1.62.576-.912.264-1.368.444-1.368.54.024.096.18.288.468.576.288.288.648.636 1.08 1.044.456.384.948.816 1.476 1.296.552.456 1.068.9 1.548 1.332.504.432.948.84 1.332 1.224.408.36.696.648.864.864.12.168.18.276.18.324 0 .048.024.12.072.216.072.072.132.144.18.216a.714.714 0 00-.072.324v.108c0 .024.012.048.036.072a.564.564 0 00-.108.144.32.32 0 01-.036.144l-.18.252-.252.18-.288.144a1.18 1.18 0 00-.18.144.646.646 0 01-.324.108 1.07 1.07 0 01-.54-.144c-.144-.072-.228-.132-.252-.18-.264 0-.468-.096-.612-.288a2.16 2.16 0 00-.468-.468c-.528-.36-1.2-.888-2.016-1.584a65.208 65.208 0 01-2.88-2.736c-.12-.12-.3-.252-.54-.396-.216-.144-.372-.216-.468-.216a.83.83 0 00-.072.288v.288c0 .408.012.756.036 1.044a36.453 36.453 0 00.144 1.332c.024.192.036.396.036.612 0 .456-.108.84-.324 1.152-.264.336-.696.504-1.296.504h-.216c-.336-.048-.564-.216-.684-.504a5.686 5.686 0 01-.216-.864 10.958 10.958 0 01-.108-1.224 33.726 33.726 0 01-.036-1.44c0-.576.024-1.224.072-1.944.072-.744.144-1.464.216-2.16.072-.72.144-1.38.216-1.98.096-.624.168-1.128.216-1.512l.216-1.44c.024-.096.048-.18.072-.252.024-.096.06-.192.108-.288.12-.192.252-.324.396-.396.168-.096.288-.192.36-.288.12 0 .192.012.216.036a.452.452 0 00.18-.108c.048-.048.12-.072.216-.072.072 0 .18.012.324.036a.55.55 0 01.396.18c.144.096.264.252.36.468.096.216.144.528.144.936 0 .048-.012.144-.036.288-.024.144-.06.288-.108.432a3.582 3.582 0 00-.108.54l-.216 1.044zm16.061 10.98c-.696 0-1.296-.12-1.8-.36a3.552 3.552 0 01-1.188-.936 4.938 4.938 0 01-.72-1.296 4.989 4.989 0 01-.216-1.44c0-.744.144-1.428.432-2.052a9.525 9.525 0 011.044-1.8c.144-.192.312-.408.504-.648.216-.264.432-.504.648-.72.24-.24.468-.456.684-.648.216-.192.408-.324.576-.396.336-.168.576-.324.72-.468.168-.168.396-.252.684-.252.576 0 1.092.144 1.548.432.456.264.84.624 1.152 1.08.312.456.54.972.684 1.548.168.576.252 1.164.252 1.764 0 1.896-.42 3.408-1.26 4.536-.84 1.104-2.088 1.656-3.744 1.656zm.864-7.92c-.096 0-.192.012-.288.036a.345.345 0 00-.252.108 4.386 4.386 0 00-.468.54c-.12.144-.276.384-.468.72a3.86 3.86 0 00-.324.864 5.336 5.336 0 00-.108 1.116c0 .408.108.744.324 1.008.216.24.564.36 1.044.36.288 0 .576-.072.864-.216.288-.168.54-.384.756-.648.216-.264.396-.576.54-.936.144-.36.216-.744.216-1.152 0-.456-.144-.864-.432-1.224-.288-.384-.648-.576-1.08-.576h-.324zm10.365 8.532h-.144a.32.32 0 00-.144.036.244.244 0 00-.18-.072h-.144l-.396-.072c-.168 0-.288-.024-.36-.072l-.216-.108a.32.32 0 00-.144.036c0-.048-.036-.108-.108-.18a2.105 2.105 0 01-.18-.216c-.12-.24-.18-.504-.18-.792 0-.288.024-.528.072-.72l.216-.576a32.14 32.14 0 00.216-3.888c0-1.44.048-3.084.144-4.932l.072-1.116c.024-.36.168-.648.432-.864a2.35 2.35 0 00.252-.216c.096-.072.18-.132.252-.18.12-.048.276-.096.468-.144.912-.024 1.764-.06 2.556-.108l1.98-.072a42.991 42.991 0 011.44-.036c.6 0 1.128.012 1.584.036.48 0 .792.012.936.036.096 0 .156.024.18.072.048.024.096.06.144.108.12.12.192.252.216.396l.072.144c.024.024.036.072.036.144v.252c0 .12-.024.408-.072.864-.024.456-.072 1.14-.144 2.052-.048.888-.132 2.1-.252 3.636a1.184 1.184 0 00-.036.288.798.798 0 00-.036.252c0 .096-.024.18-.072.252a.936.936 0 01.036.288c-.024.552-.06 1.056-.108 1.512-.024.432-.048.924-.072 1.476 0 .096.012.192.036.288v.36c.024.12.036.264.036.432 0 .384-.048.684-.144.9-.072.24-.24.384-.504.432a.8.8 0 01-.252.108 2.677 2.677 0 01-.648.072c-.504 0-.84-.048-1.008-.144-.168-.096-.252-.276-.252-.54a3.202 3.202 0 01-.18-.324 1.359 1.359 0 01-.072-.432c0-.48.024-.9.072-1.26.072-.384.132-.804.18-1.26.048-.672.084-1.272.108-1.8l.072-1.62c.024-.552.048-1.164.072-1.836.048-.672.108-1.488.18-2.448l-.54-.036h-.18a.235.235 0 01-.108-.108c-.072.096-.144.144-.216.144-.072 0-.12-.024-.144-.072-.024-.048-.096-.072-.216-.072 0 .072-.144.132-.432.18-.048 0-.144.012-.288.036h-.288l-.864.072a6.2 6.2 0 01-.684.036 1.721 1.721 0 00-.612.036c-.048.504-.084.996-.108 1.476-.024.48-.06 1.044-.108 1.692l-.18 2.124a23.3 23.3 0 00-.072 1.98c0 .384.036.756.108 1.116.072.336.108.684.108 1.044 0 .312-.024.6-.072.864-.048.264-.096.42-.144.468a.772.772 0 01-.144.18c-.072.072-.132.108-.18.108-.144.096-.216.18-.216.252l-.432.036zm22.837-2.592c-.024.12-.036.228-.036.324v.252c0 .12-.012.228-.036.324v.252a.32.32 0 01-.036.144v.18c0 .096.012.168.036.216a.444.444 0 01.072.252.85.85 0 01-.108.36c-.072.144-.12.264-.144.36a1.852 1.852 0 01-.144.36c-.072.096-.144.144-.216.144a1.317 1.317 0 00-.252.216c-.072.096-.192.144-.36.144a.639.639 0 01-.288-.072.456.456 0 00-.216-.108.534.534 0 01-.252-.144 1.307 1.307 0 01-.288-.324 3.255 3.255 0 00-.288-.432 2.389 2.389 0 01-.252-.504 3.073 3.073 0 01-.216-1.152v-.432c0-.168.012-.312.036-.432 0-.144.012-.3.036-.468-.192.24-.42.516-.684.828a7.515 7.515 0 01-.9.828c-.336.264-.72.48-1.152.648a3.173 3.173 0 01-1.368.288c-.432 0-.828-.108-1.188-.324a2.946 2.946 0 01-.936-.792 4.208 4.208 0 01-.576-1.188 4.635 4.635 0 01-.216-1.404c0-.744.096-1.452.288-2.124.216-.672.504-1.32.864-1.944l.396-.576c.024-.048.12-.156.288-.324.168-.192.348-.396.54-.612.192-.216.396-.42.612-.612.216-.192.396-.348.54-.468l.576-.432c.36-.216.768-.444 1.224-.684.36-.168.636-.264.828-.288.216-.048.432-.072.648-.072.504 0 .996.096 1.476.288.504.192.936.432 1.296.72.048.456.072.948.072 1.476.024.528.048 1.032.072 1.512l.144 2.52c.072.84.108 1.716.108 2.628v.648zm-3.492-6.66c-.6.12-1.164.384-1.692.792a5.768 5.768 0 00-1.224 1.332c-.24.36-.432.744-.576 1.152-.12.384-.18.816-.18 1.296 0 .264.06.48.18.648.12.144.288.216.504.216.312 0 .624-.084.936-.252.336-.192.636-.408.9-.648.264-.264.492-.528.684-.792.216-.288.36-.528.432-.72l.288-.648c.096-.216.18-.564.252-1.044.024-.12.036-.3.036-.54.024-.24.036-.456.036-.648-.144-.096-.336-.144-.576-.144zm10.326 5.328h-1.656a14.934 14.934 0 00-.612-.072c-.384-.048-.672-.144-.864-.288-.168-.168-.3-.36-.396-.576a2.54 2.54 0 00-.18-.252v-.144c.024-.024.036-.06.036-.108-.024-.024-.036-.06-.036-.108a.58.58 0 01.072-.252c-.024-.024-.036-.06-.036-.108v-.108c.024-.024.036-.06.036-.108 0-.024-.012-.048-.036-.072v-.072c.072-.312.264-.576.576-.792.336-.216.672-.324 1.008-.324.384 0 .744.036 1.08.108.336.048.636.072.9.072.024-.96.156-1.86.396-2.7.24-.864.576-1.608 1.008-2.232a4.75 4.75 0 011.584-1.512c.648-.384 1.392-.576 2.232-.576.192 0 .36.024.504.072.168.024.276.06.324.108l.576.216.36.144c.144.048.252.12.324.216.144.096.264.216.36.36.12.144.24.3.36.468.312.48.468 1.068.468 1.764 0 .576-.144 1.164-.432 1.764a7.384 7.384 0 01-1.08 1.728 9.648 9.648 0 01-1.62 1.476c-.6.432-1.236.804-1.908 1.116.432.48 1.02.72 1.764.72.624 0 1.164-.036 1.62-.108a7.162 7.162 0 011.476-.144c.144 0 .288.024.432.072.168.024.288.048.36.072 0 .048.048.108.144.18.096.072.18.18.252.324a.32.32 0 01.036.144.32.32 0 01-.036.144c-.024.024-.036.06-.036.108s.012.084.036.108c-.048.048-.072.144-.072.288 0 .096.012.168.036.216-.048.048-.108.12-.18.216a.639.639 0 00-.072.288c0 .072.012.12.036.144-.096.048-.384.252-.864.612a1.8 1.8 0 01-.252.18l-.216.108a.4.4 0 01-.18.036.32.32 0 00-.144.036c-.096 0-.156.012-.18.036-.024 0-.048-.012-.072-.036h-.108c0 .024-.012.036-.036.036l-.144-.072h-.576a3.459 3.459 0 01-.252.072 1.515 1.515 0 01-.36.036c-.12.024-.3.036-.54.036-.912 0-1.812-.264-2.7-.792-.864-.528-1.536-1.284-2.016-2.268h-.504zm5.148-6.984a.501.501 0 00-.216-.036c-.336 0-.66.18-.972.54a4.934 4.934 0 00-.72 1.116c-.096.24-.192.504-.288.792a8.858 8.858 0 00-.18.972 2.31 2.31 0 00.9-.288c.312-.192.6-.408.864-.648.288-.264.516-.54.684-.828.192-.312.288-.624.288-.936 0-.24-.072-.432-.216-.576l-.144-.108zm24.002 10.944c-.12 0-.228-.012-.324-.036a3.948 3.948 0 00-.432-.072c-.192 0-.324-.024-.396-.072-.096-.072-.192-.204-.288-.396a.564.564 0 01-.108-.144c0-.048-.024-.096-.072-.144a11.689 11.689 0 01-.288-1.728 47.75 47.75 0 00-.288-2.232 25.196 25.196 0 00-.432-2.52 14.027 14.027 0 00-.792-2.52 43.937 43.937 0 00-.72 1.908c-.264.72-.516 1.452-.756 2.196-.216.72-.432 1.38-.648 1.98a39.48 39.48 0 01-.432 1.296c-.048.12-.096.228-.144.324l-.144.216c-.144.408-.324.672-.54.792-.216.144-.492.216-.828.216-.288 0-.54-.084-.756-.252a2.174 2.174 0 01-.504-.54 4.095 4.095 0 01-.288-.756 17.188 17.188 0 01-.18-.792c-.264-1.416-.48-2.568-.648-3.456a23.705 23.705 0 00-.432-2.196c-.36 1.032-.684 1.932-.972 2.7a44.692 44.692 0 01-.756 2.052c-.24.576-.468 1.104-.684 1.584-.216.456-.444.9-.684 1.332a.645.645 0 01-.216.324.916.916 0 01-.216.216c-.12.024-.252.06-.396.108-.12.048-.24.084-.36.108l-.288.288c-.048-.072-.156-.108-.324-.108-.024.024-.048.036-.072.036l-.036.036c-.024.024-.036.048-.036.072-.336-.048-.672-.204-1.008-.468a1.162 1.162 0 01-.468-.972c0-.264.072-.528.216-.792l.36-.648c.432-.648.828-1.32 1.188-2.016.384-.72.732-1.44 1.044-2.16.312-.72.588-1.404.828-2.052.24-.672.444-1.284.612-1.836.384-1.128.708-1.896.972-2.304.12-.168.264-.288.432-.36a.58.58 0 01.252-.072 2.49 2.49 0 01.288-.072c0-.048.036-.072.108-.072h.216c.168 0 .3.024.396.072l.36.144a.8.8 0 00.252.108c.096.024.168.06.216.108a.452.452 0 01.108.18c.048.072.096.156.144.252.12.216.252.636.396 1.26.144.6.288 1.272.432 2.016.144.72.288 1.452.432 2.196.144.744.288 1.344.432 1.8.144-.432.312-.984.504-1.656.216-.696.432-1.404.648-2.124.216-.72.432-1.392.648-2.016.216-.624.432-1.104.648-1.44.264-.408.504-.684.72-.828.216-.168.492-.252.828-.252.144 0 .288.036.432.108.168.048.276.12.324.216.24 0 .444.156.612.468.36.648.732 1.452 1.116 2.412.384.936.72 1.956 1.008 3.06.312 1.104.564 2.244.756 3.42.192 1.176.288 2.304.288 3.384l-.144.324a.564.564 0 00-.108.144c0 .048-.024.096-.072.144a.564.564 0 01-.144.108.235.235 0 01-.108.108c-.168.192-.396.288-.684.288zm20.558.288a.592.592 0 01-.18-.036h-.18c-.096 0-.192-.012-.288-.036h-.324c-.048 0-.084-.012-.108-.036-.024-.024-.06-.036-.108-.036a.71.71 0 00-.252-.18c-.072 0-.144-.036-.216-.108a.244.244 0 01-.072-.18.244.244 0 00-.072-.18l-.144-.144c-.048-.048-.072-.12-.072-.216 0-1.128.036-2.028.108-2.7.096-.672.156-1.308.18-1.908l.108-3.024.072-1.728c.048-.624.096-1.272.144-1.944.048-.336.084-.648.108-.936.048-.288.108-.54.18-.756.048-.144.096-.252.144-.324.048-.072.144-.156.288-.252l.144-.144a.345.345 0 01.252-.108.32.32 0 01.144.036h.216a.68.68 0 00.216-.036.985.985 0 01.216-.036c.12 0 .276.024.468.072.12.048.204.132.252.252.048.024.12.132.216.324.096.144.144.348.144.612 0 .576-.024 1.2-.072 1.872a51.3 51.3 0 01-.252 2.484l-.36 3.348c0 .48.012.936.036 1.368.024.432.036.78.036 1.044 0 .096-.012.228-.036.396v.504a5.864 5.864 0 00-.036.648c0 .192-.024.408-.072.648-.024.24-.06.432-.108.576 0 .168-.012.3-.036.396-.072.216-.204.324-.396.324-.024.048-.072.084-.144.108a.32.32 0 01-.144.036zm-10.728.18c-.576 0-1.152-.06-1.728-.18a5.201 5.201 0 01-1.512-.576 3.317 3.317 0 01-1.08-1.08c-.264-.456-.396-1.02-.396-1.692 0-.6.024-1.236.072-1.908.072-.696.156-1.392.252-2.088.096-.696.192-1.368.288-2.016a39.844 39.844 0 00.432-3.06c.072-.456.144-.816.216-1.08.096-.312.252-.576.468-.792.12-.12.276-.18.468-.18a.32.32 0 00.144-.036.35.35 0 01.18-.072.32.32 0 01.144.036h.18a.68.68 0 00.216-.036.592.592 0 01.18-.036c.216 0 .432.072.648.216.216.12.384.312.504.576.048.096.072.276.072.54 0 .336-.084.624-.252.864-.168.216-.276.516-.324.9l-.36 2.412c.168-.024.36-.06.576-.108.192-.048.408-.084.648-.108.24-.024.528-.036.864-.036.744 0 1.44.072 2.088.216.648.12 1.212.372 1.692.756.12.096.24.228.36.396.144.168.216.324.216.468.072.048.144.108.216.18.048.048.096.12.144.216.072.096.12.204.144.324 0 .408.048.756.144 1.044.096.264.144.588.144.972 0 .792-.168 1.5-.504 2.124a4.27 4.27 0 01-1.296 1.548c-.528.432-1.164.756-1.908.972a8.351 8.351 0 01-2.34.324zm-.396-2.628h.684c.216 0 .42-.024.612-.072l.216-.144.144-.072c.048-.048.096-.072.144-.072.12-.024.216-.036.288-.036.072 0 .168-.06.288-.18.144-.048.24-.096.288-.144.072-.048.192-.204.36-.468.168-.312.252-.732.252-1.26 0-.432-.072-.768-.216-1.008a1.343 1.343 0 00-.612-.54 1.863 1.863 0 00-.828-.252 6.387 6.387 0 00-.972-.072c-.672 0-1.236.096-1.692.288-.192.696-.288 1.5-.288 2.412 0 .12.012.276.036.468.024.192.072.372.144.54.096.168.228.312.396.432.192.12.444.18.756.18zm22.872 2.772c-1.224 0-2.316-.288-3.276-.864-.936-.552-1.596-1.464-1.98-2.736a9.214 9.214 0 01-.36-1.836 4.5 4.5 0 01-.288-.36c-.024-.096-.048-.156-.072-.18-.024 0-.036-.012-.036-.036 0-.048-.036-.072-.108-.072-.048 0-.084-.036-.108-.108v-.432a.68.68 0 00.036-.216c0-.024.012-.036.036-.036a.419.419 0 00.108-.072l.504-.072c.12-.84.384-1.692.792-2.556.432-.864.972-1.68 1.62-2.448.168-.216.42-.468.756-.756.336-.312.72-.6 1.152-.864a8.628 8.628 0 011.404-.72 3.812 3.812 0 011.512-.324c.816 0 1.536.288 2.16.864.624.552.936 1.296.936 2.232 0 .264-.036.552-.108.864-.048.288-.12.564-.216.828-.12.336-.3.696-.54 1.08a8.449 8.449 0 01-.72 1.08 8.272 8.272 0 01-1.08 1.152c-.36.312-.768.624-1.224.936-.552.336-1.116.636-1.692.9-.576.264-1.14.396-1.692.396 0 .336.084.6.252.792.168.192.372.348.612.468.264.096.552.156.864.18.312.024.612.036.9.036.936 0 1.608-.096 2.016-.288.432-.216.744-.324.936-.324.192 0 .312.024.36.072.144.12.228.252.252.396.024.12.036.264.036.432v.252c0 .144-.024.312-.072.504a2.365 2.365 0 01-.18.54c-.336.456-.828.78-1.476.972a6.122 6.122 0 01-2.016.324zm-2.556-6.84c.456-.096.948-.3 1.476-.612a10.262 10.262 0 001.512-1.116 7.22 7.22 0 001.188-1.26c.312-.456.468-.864.468-1.224 0-.096-.048-.204-.144-.324-.096-.12-.276-.18-.54-.18-.408 0-.816.132-1.224.396a3.84 3.84 0 00-.972.864c-.288.36-.54.684-.756.972a5.925 5.925 0 00-.468.828 7.16 7.16 0 00-.324.756c-.072.264-.144.564-.216.9z" fill="#fff"/><defs><radialGradient id="paint0_radial" cx="0" cy="0" r="1" gradientUnits="userSpaceOnUse" gradientTransform="rotate(19.929 -245.415 377.425) scale(110.801 106.99)"><stop stop-color="#407B9A"/><stop offset=".645" stop-color="#3682A1"/><stop offset=".941" stop-color="#C6DDEE" stop-opacity=".9"/><stop offset="1" stop-color="#fff" stop-opacity=".9"/></radialGradient><linearGradient id="paint1_linear" x1="187.256" y1="63.27" x2="150.499" y2="85.855" gradientUnits="userSpaceOnUse"><stop stop-color="#fff"/><stop offset=".475" stop-color="#D4EFFD" stop-opacity=".5"/><stop offset="1" stop-color="#3699D6" stop-opacity="0"/></linearGradient></defs></svg>