<svg width="339" height="212" fill="none" xmlns="http://www.w3.org/2000/svg"><path opacity=".22" d="M6.357 104.964c-7.116 27.428 14.439 64.279 48.68 84.151 34.241 19.965 85.706 19.592 131.705 14.087 28.156-3.452 55.796-5.411 78.073-16.046 40.842-19.592 55.075-26.496 66.626-57.376 5.157-13.621.928-26.029-1.444-37.13-1.753-8.117-9.798-30.228-18.564-37.878-35.066-29.947-88.594-57.562-152.538-47.02-80.343 13.34-137.79 40.956-152.538 97.212z" fill="url(#paint0_radial)" stroke="#fff" stroke-width="9.763" stroke-miterlimit="10"/><path opacity=".39" d="M164.568 30.889c3.816-1.307 27.537-4.945 37.954-3.825 7.735.84 39.295 3.545 55.074 13.434 12.067 7.65 18.152 10.355 20.731 24.07.206 1.399-1.857 8.862-7.632 7.276-9.901-3.265-31.869-12.221-63.223-15.393-7.735-.746-29.084-.56-36.922.373-3.713.373-17.636 1.213-20.421-.186-13.923-7.37 7.426-23.324 14.439-25.75z" fill="url(#paint1_linear)"/><path d="M49.085 98.678c-.043.884-.086 1.692-.129 2.424a56.388 56.388 0 01-.259 4.04c-.064.625-.129 1.293-.193 2.004-.043.237-.151.398-.323.484a1.32 1.32 0 01-.582.194c-.108.022-.226.043-.356.065a1.045 1.045 0 01-.388.065c-.344 0-.581-.054-.71-.162-.151-.129-.248-.323-.291-.582a9.748 9.748 0 01-.033-.808c0-.495.022-.991.065-1.486a269.7 269.7 0 01.13-1.519 6.98 6.98 0 00.032-1.131c0-.345.021-.69.064-1.035.022-.323.043-.743.065-1.26.043-.539.075-1.12.097-1.745.043-.647.075-1.314.097-2.004.021-.69.043-1.346.064-1.971.043-.647.065-1.228.065-1.746.022-.517.032-.937.032-1.26v-.258c.022-.108.033-.194.033-.259 0-.258.01-.539.032-.84.021-.302.075-.582.161-.84a2.2 2.2 0 01.356-.712c.15-.193.377-.29.679-.29.215.043.398.064.55.064a.762.762 0 01.484.097c.13.086.237.194.323.323.043.043.065.108.065.194a.988.988 0 00.064.194c.086.194.13.474.13.84 0 .41-.011.798-.033 1.164 0 .345-.01.679-.032 1.002 0 .107-.022.226-.065.355-.021.13-.032.248-.032.356v.452c.022.173.032.313.032.42-.043.474-.075.873-.097 1.196a16.75 16.75 0 00-.032 1.131c.28.022.539.043.776.065h.71c.862 0 1.703-.205 2.521-.614.84-.41 1.53-1.034 2.069-1.875.043-.043.097-.107.161-.194.087-.107.151-.193.194-.258a.521.521 0 00.065-.226 1.24 1.24 0 01.097-.259c.043-.108.086-.204.13-.29.042-.087.085-.184.129-.292.107-.344.183-.71.226-1.098.043-.388.064-.797.064-1.228 0-.173-.01-.313-.032-.42v-.388c0-.431.119-.798.355-1.1.26-.3.56-.452.905-.452.56 0 .98.054 1.26.162.28.086.421.302.421.646 0 .065-.01.162-.032.291v.291c0 2.004-.367 3.781-1.1 5.332-.71 1.53-1.734 2.704-3.07 3.523.28.216.529.442.744.679a.8.8 0 01.161.29 4 4 0 00.194.26c.065.085.13.15.194.193a1 1 0 01.259.194.985.985 0 01.226.323l.13.259a14.047 14.047 0 011.615 3.393c.41 1.207.614 2.252.614 3.135 0 .56-.064.948-.194 1.163a.772.772 0 01-.42.259 1.76 1.76 0 01-.484.065c-.41 0-.744-.087-1.002-.259a5.329 5.329 0 00-.356-.194c-.108-.043-.215-.183-.323-.42a3.015 3.015 0 01-.097-.355 1.78 1.78 0 00-.065-.421.726.726 0 00-.129-.258 2.307 2.307 0 01-.097-.291l-.097-.679a4.156 4.156 0 00-.13-.291 11.894 11.894 0 00-.096-.355 16.51 16.51 0 00-.582-1.745 7.733 7.733 0 00-.84-1.551 2.016 2.016 0 01-.226-.356 1.226 1.226 0 00-.259-.388 1.026 1.026 0 00-.388-.29 2.91 2.91 0 01-.42-.291 3.639 3.639 0 00-1.163-.55 5.106 5.106 0 00-1.39-.258h-.517a2.798 2.798 0 00-.388-.033h-.388zm6.413 19.65c1.896 0 3.501-.216 4.815-.647 1.315-.409 2.349-.98 3.103-1.713a8.103 8.103 0 001.616-2.23c.452-.861.83-1.852 1.131-2.973.237-.819.366-1.67.388-2.553a34.67 34.67 0 01.161-2.618c-.043.108-.14.237-.29.388a2.471 2.471 0 01-.582.356 3.953 3.953 0 01-.808.323c-.28.108-.571.161-.873.161-.215 0-.42-.01-.614-.032a2.142 2.142 0 01-.646-.194 3.329 3.329 0 01-1.131-.808 4.219 4.219 0 01-.808-1.389 4.214 4.214 0 01-.227-1.196 27.328 27.328 0 01-.032-1.293c0-.84.054-1.562.162-2.165.108-.604.226-1.11.355-1.52a4.16 4.16 0 01.42-.936c.173-.302.507-.453 1.002-.453h.13c.28 0 .463.086.549.259.108.15.162.355.162.614v.194c0 .064-.011.172-.033.323-.064.56-.129 1.11-.194 1.648a12.558 12.558 0 00-.097 1.487c0 .646.087 1.206.259 1.68.194.453.56.679 1.099.679.172 0 .355-.022.55-.065.193-.064.409-.151.645-.258.302-.13.593-.41.873-.841.28-.43.506-.894.679-1.389.172-.496.366-.916.582-1.26.237-.345.517-.518.84-.518.108 0 .237.033.388.097a.688.688 0 01.42.323.766.766 0 01.129.356c.022.151.032.312.032.485 0 .15-.01.291-.032.42v.226c-.021.323-.043.636-.065.937-.021.28-.053.593-.097.937-.021.324-.043.701-.064 1.132-.022.43-.032.958-.032 1.583 0 2.392-.227 4.514-.68 6.367-.43 1.853-1.173 3.415-2.23 4.686-1.055 1.271-2.455 2.23-4.2 2.876-1.724.668-3.89 1.002-6.496 1.002H55.4a.931.931 0 01-.355-.065 6.33 6.33 0 00-.744-.258c-.258-.043-.441-.216-.55-.517a1.81 1.81 0 01-.16-.42 1.07 1.07 0 01-.033-.259c0-.431.15-.7.452-.808.28-.108.657-.161 1.131-.161h.356zm18.139-10.504c-.56 0-.97-.14-1.228-.42a1.69 1.69 0 01-.453-.969.68.68 0 01-.032-.259c0-.129-.022-.215-.065-.259l.13-.129c.064-.064.118-.097.161-.097l-.097-.161c.065 0 .097-.011.097-.033.022-.021.054-.032.097-.032.022 0 .043.011.065.032h.064c.108 0 .162-.043.162-.129 0-.021-.01-.043-.032-.065h-.033a1.05 1.05 0 01.873-.064c.13.043.29.064.485.064.732 0 1.239-.484 1.519-1.454.301-.991.452-2.294.452-3.91a7.4 7.4 0 00-.032-.517v-.938c0-.344-.011-.678-.033-1.001v-.776c0-.41.097-.819.291-1.228.216-.41.528-.636.938-.679.258-.022.646-.043 1.163-.064a39.267 39.267 0 011.68-.098 24.944 24.944 0 011.778-.064c.603-.022 1.11-.032 1.519-.032.603 0 1.002.161 1.196.484.194.324.29.69.29 1.1 0 .947-.086 2.132-.258 3.554a38.092 38.092 0 00-.258 4.622c0 .538.053.991.161 1.357.108.345.162.743.162 1.196 0 .086-.022.194-.065.323-.086.237-.237.355-.452.355 0 .065-.065.097-.194.097a1.469 1.469 0 01-.291.033.575.575 0 01-.259-.065 1.18 1.18 0 00-.29-.032.45.45 0 00-.195.032 1.296 1.296 0 00-.258-.097c-.065 0-.13-.032-.194-.097a.219.219 0 01-.065-.161c0-.044-.021-.087-.064-.13l-.13-.129a.754.754 0 01-.129-.194 2.942 2.942 0 01-.226-.776c-.022-.28-.032-.549-.032-.808v-.517c.021-.215.053-.398.097-.549-.022-.086-.033-.269-.033-.549 0-.367.011-.722.033-1.067.021-.366.043-.786.064-1.26.043-.474.086-1.034.13-1.68a48.28 48.28 0 00.161-2.522l-3.006.13c-.021.021-.053.032-.096.032a.36.36 0 01-.162.032.745.745 0 01-.258-.064.865.865 0 00-.324-.065c0 .086.022.15.065.194.065.043.097.075.097.097 0 .172.01.334.032.485v.452c.022.15.032.29.032.42 0 .647-.01 1.314-.032 2.004a14.9 14.9 0 01-.194 1.971.411.411 0 01-.097.194c-.043.043-.064.119-.064.226a.64.64 0 00.064.291c-.064.022-.118.119-.161.291a.718.718 0 00-.033.226c0 .087-.021.151-.064.194 0 .173-.011.302-.032.388-.302.97-.776 1.756-1.422 2.359-.647.604-1.552.905-2.715.905zm18.749-3.167a4.48 4.48 0 001.907-.42 6.293 6.293 0 001.583-1.034 5.923 5.923 0 001.131-1.358c.28-.474.42-.915.42-1.325 0-.301-.043-.56-.129-.775-.065-.237-.248-.356-.55-.356-.366 0-.797.162-1.292.485-.474.323-.959.711-1.454 1.163-.474.431-.927.884-1.358 1.358-.41.474-.722.862-.937 1.163l-.065.97a.83.83 0 00.324.097c.172.021.312.032.42.032zm-1.875 3.07c-.948 0-1.443-.829-1.486-2.488a.49.49 0 00-.194-.388c-.13-.108-.194-.172-.194-.194a.7.7 0 01.032-.226c.022-.065.032-.183.032-.356-.043-.043-.064-.086-.064-.129 0-.086.021-.151.064-.194.022-.043.065-.108.13-.194a1.73 1.73 0 01.258-.323c.065-.905.151-1.864.259-2.876.13-1.034.27-2.036.42-3.006 0-.172-.01-.334-.032-.485v-.452c0-.108.01-.205.032-.29a.694.694 0 01.13-.227c0-.022-.011-.043-.033-.065v-.194c.022-.021.032-.043.032-.064 0-.043.011-.14.033-.291.043-.151.107-.302.194-.453.107-.172.247-.312.42-.42.172-.129.398-.194.678-.194.56 0 .938.119 1.131.356.194.237.291.582.291 1.034a.92.92 0 01-.032.226v.227a185.798 185.798 0 00-.453 2.617c-.086.517-.14.927-.161 1.228.258-.28.57-.614.937-1.002a9.99 9.99 0 011.26-1.066 9.284 9.284 0 011.455-.873 3.63 3.63 0 011.519-.355c.517 0 .959.108 1.325.323.366.194.668.463.905.808.237.323.41.7.517 1.131.108.431.161.883.161 1.358v.323c0 .086-.01.183-.032.291a1.252 1.252 0 00-.097.387c0 .151-.021.28-.064.388l-.356.937-.194.453a.518.518 0 01-.226.291c-.043.021-.097.097-.162.226a1.083 1.083 0 01-.161.258.652.652 0 00-.227.194.997.997 0 01-.193.259.695.695 0 00-.194.226.697.697 0 01-.194.226 1.7 1.7 0 00-.291.194 1.577 1.577 0 01-.226.194c-.345.388-.797.744-1.358 1.067-.56.323-1.163.603-1.81.84-.646.237-1.303.42-1.97.549a9.552 9.552 0 01-1.81.194zm31.783-1.583c-.108.84-.571 1.26-1.39 1.26h-.194a.593.593 0 01-.194.032c-.064 0-.129-.043-.194-.129a.787.787 0 01-.29-.064.514.514 0 00-.227-.065.519.519 0 01-.097-.129.499.499 0 00-.097-.13c-.172-.107-.312-.291-.42-.549a1.69 1.69 0 01-.161-.259 3.913 3.913 0 00-.13-.29 3.74 3.74 0 01-.226-.615 27.727 27.727 0 01-.129-.614 7.038 7.038 0 01-.032-.711v-1.26a.21.21 0 00-.162-.162.494.494 0 00-.194-.064c-.043 0-.183.097-.42.291-.216.172-.506.42-.873.743-.344.302-.732.646-1.163 1.034-.431.388-.862.787-1.293 1.196l-.614.614c-.215.215-.549.323-1.002.323-.107 0-.291-.032-.549-.097-.237-.064-.399-.129-.485-.194l-.129-.097a9.256 9.256 0 01-.356-.808c-.107-.301-.183-.764-.226-1.389l-.065-.614v-1.034c0-.151-.021-.281-.064-.388-.043-.108-.086-.162-.129-.162-.151 0-.259.011-.324.032a1.292 1.292 0 00-.29.162 4.028 4.028 0 00-.388.356c-.259.237-.55.517-.873.84-.323.301-.689.657-1.099 1.066a71.75 71.75 0 00-1.26 1.293c-.366.388-.625.7-.776.937a3.781 3.781 0 00-.129.291l-.097.291a1.886 1.886 0 00-.097.226.4.4 0 01-.097.162.66.66 0 01-.355.194 1.44 1.44 0 01-.453.064c-.366 0-.732-.194-1.099-.581-.344-.388-.517-.895-.517-1.519 0-.302.033-.679.097-1.132.065-.474.14-.948.226-1.422.087-.495.173-.98.259-1.454.108-.474.194-.872.259-1.196.064-.301.129-.657.193-1.066.087-.41.162-.808.227-1.196.086-.388.151-.743.194-1.066.064-.323.097-.55.097-.679 0-.172-.033-.41-.097-.711a.755.755 0 01.161-.323 2.24 2.24 0 01.323-.323.603.603 0 01.388-.13 1.558 1.558 0 011.358.776c.193.323.334.668.42 1.034l.032.162a1.065 1.065 0 00-.065.258v.13c0 .021.011.043.033.064 0 .474-.043.916-.13 1.325-.086.41-.204.894-.355 1.455-.043.215-.097.452-.162.711a3.253 3.253 0 00-.064.517c0 .107.054.161.161.161a.402.402 0 00.291-.129l.226-.226a30.494 30.494 0 011.713-1.94 33.662 33.662 0 011.745-1.745c.216-.193.388-.323.517-.387a.8.8 0 01.453-.13c.517 0 .959.151 1.325.453.366.28.592.528.679.743.107.302.183.55.226.743.043.194.065.388.065.582 0 .302-.011.647-.033 1.034v.938c0 .215.033.366.097.452a.47.47 0 00.291.097c.022 0 .097-.043.226-.129.13-.108.27-.226.42-.356.173-.129.345-.269.517-.42a5.27 5.27 0 00.485-.42 205.24 205.24 0 001.616-1.39c.517-.43.894-.743 1.131-.937.194-.172.356-.28.485-.323.129-.065.302-.097.517-.097.194 0 .388.086.582.258.215.173.409.377.582.615.172.236.312.484.42.743.107.258.161.485.161.679 0 .344-.021.732-.064 1.163-.043.431-.065.84-.065 1.228 0 .151.011.377.032.679.043.28.087.452.13.517.021.237.097.463.226.678.129.194.28.41.452.647l.227.258.129.097c-.022 0-.033.011-.033.033v.161c.022 0 .033.022.033.065v.388zm-2.255 12.184c1.896 0 3.501-.216 4.816-.647 1.314-.409 2.348-.98 3.102-1.713a8.093 8.093 0 001.616-2.23c.453-.861.83-1.852 1.131-2.973.237-.819.367-1.67.388-2.553a35.2 35.2 0 01.162-2.618c-.043.108-.14.237-.291.388a2.471 2.471 0 01-.582.356 3.947 3.947 0 01-.808.323c-.28.108-.571.161-.872.161a5.44 5.44 0 01-.614-.032 2.144 2.144 0 01-.647-.194 3.335 3.335 0 01-1.131-.808 4.215 4.215 0 01-.808-1.389 4.204 4.204 0 01-.226-1.196 26.66 26.66 0 01-.032-1.293c0-.84.053-1.562.161-2.165.108-.604.226-1.11.356-1.52.107-.344.247-.656.42-.936.172-.302.506-.453 1.002-.453h.129c.28 0 .463.086.549.259.108.15.162.355.162.614v.194c0 .064-.011.172-.032.323l-.194 1.648a12.475 12.475 0 00-.097 1.487c0 .646.086 1.206.258 1.68.194.453.56.679 1.099.679.172 0 .356-.022.549-.065.194-.064.41-.151.647-.258.301-.13.592-.41.872-.841.281-.43.507-.894.679-1.389.172-.496.366-.916.582-1.26.237-.345.517-.518.84-.518.108 0 .237.033.388.097a.688.688 0 01.42.323.757.757 0 01.129.356c.022.151.033.312.033.485 0 .15-.011.291-.033.42v.226c-.021.323-.043.636-.064.937-.022.28-.054.593-.097.937-.022.324-.043.701-.065 1.132-.021.43-.032.958-.032 1.583 0 2.392-.226 4.514-.679 6.367-.431 1.853-1.174 3.415-2.23 4.686s-2.456 2.23-4.201 2.876c-1.724.668-3.889 1.002-6.496 1.002h-.356a.93.93 0 01-.355-.065 6.352 6.352 0 00-.743-.258c-.259-.043-.442-.216-.55-.517a1.79 1.79 0 01-.161-.42 1.051 1.051 0 01-.033-.259c0-.431.151-.7.453-.808.28-.108.657-.161 1.131-.161h.355zm18.549-2.004a.42.42 0 01-.388-.226 1.797 1.797 0 01-.129-.517 4.094 4.094 0 01-.033-.518c0-.818-.032-1.626-.097-2.423a75.599 75.599 0 00-.161-2.327 50.077 50.077 0 00-.162-2.069 26.553 26.553 0 01-.065-1.745c0-.388.022-.678.065-.872.065-.216.14-.377.226-.485a.937.937 0 01.291-.291c.108-.065.226-.151.356-.259.107-.883.204-1.626.291-2.229.086-.604.161-1.067.226-1.39.581-2.823 1.368-4.912 2.359-6.27 1.013-1.357 2.219-2.036 3.62-2.036.667 0 1.249.162 1.745.485a4.1 4.1 0 011.292 1.293c.044.086.097.204.162.355.065.13.097.226.097.291.065.086.129.205.194.355.086.151.151.345.194.582.043.194.075.399.097.614.021.216.032.431.032.647a4.92 4.92 0 01-.776 2.682 8.493 8.493 0 01-1.906 2.133 13.12 13.12 0 01-2.586 1.616c-.926.431-1.81.765-2.65 1.002-.021 1.4-.032 2.714-.032 3.943 0 1.228-.032 2.337-.097 3.328-.043 1.013-.14 1.875-.291 2.586-.129.711-.323 1.239-.582 1.583a.875.875 0 01-.484.323 1.155 1.155 0 01-.162.065.47.47 0 01-.452-.065 1.365 1.365 0 00-.194-.161zm7.174-20.748c-.237-.237-.538-.356-.905-.356-.366 0-.721.173-1.066.517-.345.345-.679.83-1.002 1.455a14.153 14.153 0 00-.84 2.165 22.44 22.44 0 00-.647 2.747c0 .022-.01.043-.032.065v.032c1.594-.539 2.822-1.26 3.684-2.165.862-.905 1.293-1.95 1.293-3.135 0-.13-.022-.259-.065-.388l-.129-.388a.835.835 0 01-.097-.194c0-.086-.021-.15-.065-.194l-.129-.161zm14.148 9.598a1.473 1.473 0 00-.033.291v.226c0 .108-.01.205-.032.291v.226a.297.297 0 01-.032.13v.161c0 .086.01.151.032.194a.4.4 0 01.065.226.774.774 0 01-.097.324 1.675 1.675 0 00-.13.323 1.6 1.6 0 01-.129.323c-.064.086-.129.129-.194.129a1.204 1.204 0 00-.226.194c-.065.086-.172.129-.323.129a.576.576 0 01-.259-.064.402.402 0 00-.194-.097.483.483 0 01-.226-.13 1.16 1.16 0 01-.258-.29 2.878 2.878 0 00-.259-.388 2.11 2.11 0 01-.226-.453 2.763 2.763 0 01-.194-1.034v-.388c0-.15.011-.28.032-.387 0-.13.011-.27.033-.421-.173.216-.377.464-.614.744a6.84 6.84 0 01-.808.743 4.033 4.033 0 01-1.035.582 2.851 2.851 0 01-1.228.258c-.387 0-.743-.097-1.066-.291a2.637 2.637 0 01-.84-.711 3.777 3.777 0 01-.518-1.066 4.169 4.169 0 01-.193-1.26c0-.668.086-1.304.258-1.907a9.008 9.008 0 01.776-1.745l.355-.517c.022-.044.108-.14.259-.291.151-.173.312-.356.485-.55.172-.194.355-.377.549-.55.194-.171.355-.312.485-.42l.517-.387a22.27 22.27 0 011.099-.614c.323-.151.571-.237.743-.259.194-.043.388-.064.582-.064.452 0 .894.086 1.325.258.452.173.84.388 1.163.647.043.409.065.85.065 1.325.021.474.043.926.064 1.357l.13 2.262c.064.754.097 1.541.097 2.359v.582zm-3.135-5.979a3.632 3.632 0 00-1.519.711 5.172 5.172 0 00-1.099 1.196 4.651 4.651 0 00-.517 1.034 3.889 3.889 0 00-.162 1.164c0 .237.054.431.162.581.108.13.259.194.452.194.281 0 .561-.075.841-.226.301-.172.571-.366.808-.582.237-.237.441-.474.614-.711.194-.258.323-.474.387-.646l.259-.582c.086-.194.162-.506.226-.937.022-.108.033-.269.033-.485a6.05 6.05 0 00.032-.581c-.129-.087-.302-.13-.517-.13zm3.356 14.317a.443.443 0 01-.033-.194v-.129c0-.302.151-.582.453-.84.28-.259.538-.539.775-.841l.324-.452c.107-.151.215-.312.323-.485l.872-1.292c.173-.259.345-.539.517-.841.194-.301.345-.603.453-.905.043-.064.086-.14.129-.226a.656.656 0 00.129-.161c.151-.496.399-.948.744-1.358.194-.215.409-.323.646-.323.129 0 .269.011.42.032.151 0 .28.033.388.097a.963.963 0 01.259.227l.226.226c.108.107.204.237.291.388.086.172.129.334.129.484 0 .065-.022.14-.065.227a2.315 2.315 0 01-.194.452c-.043.129-.118.28-.226.452a2.84 2.84 0 00-.258.518 2.938 2.938 0 01-.259.517c-.065.107-.14.215-.226.323a4.962 4.962 0 01-.259.355 1.375 1.375 0 00-.258.356.909.909 0 01-.226.355c-.13.151-.259.291-.388.42-.13.151-.248.302-.356.453a14.8 14.8 0 01-1.389 1.454 6.009 6.009 0 01-1.649 1.164c-.172.086-.323.14-.452.161a3.218 3.218 0 01-.517.033c-.108 0-.151-.044-.13-.13 0-.064-.032-.172-.096-.323l-.097-.194zm25.293-6.011h-.13a.292.292 0 00-.129.032.219.219 0 00-.161-.064h-.13l-.355-.065c-.151 0-.259-.021-.323-.065a23.47 23.47 0 01-.194-.096.286.286 0 00-.13.032c0-.043-.032-.097-.097-.162a1.86 1.86 0 01-.161-.194 1.561 1.561 0 01-.162-.711c0-.258.022-.474.065-.646l.194-.517c.129-1.056.194-2.219.194-3.49 0-1.293.043-2.769.129-4.428.022-.345.043-.679.065-1.002.021-.323.15-.582.387-.775.087-.065.162-.13.227-.194.086-.065.161-.119.226-.162a3.55 3.55 0 01.42-.13 67.215 67.215 0 002.295-.096l1.777-.065a27.517 27.517 0 012.715 0c.431 0 .711.01.84.032.086 0 .14.022.162.065a.506.506 0 01.129.097.653.653 0 01.194.355l.065.13c.021.021.032.064.032.13v.225c0 .108-.022.367-.065.776-.021.41-.064 1.023-.129 1.842-.043.797-.119 1.885-.226 3.264a1.045 1.045 0 00-.033.259.73.73 0 00-.032.226.39.39 0 01-.065.226.828.828 0 01.033.259 22.74 22.74 0 01-.097 1.357c-.022.388-.043.83-.065 1.325 0 .086.011.172.032.259v.323c.022.108.033.237.033.388 0 .344-.043.614-.129.808-.065.215-.216.344-.453.387a.69.69 0 01-.226.097 2.41 2.41 0 01-.582.065c-.452 0-.754-.043-.905-.129-.151-.086-.226-.248-.226-.485a3.038 3.038 0 01-.162-.291 1.218 1.218 0 01-.064-.388c0-.431.021-.808.064-1.131.065-.345.119-.722.162-1.131.043-.603.075-1.142.097-1.616l.065-1.454c.021-.496.043-1.045.064-1.648.043-.604.097-1.336.162-2.198l-.485-.032h-.162a.214.214 0 01-.097-.097c-.064.086-.129.129-.193.129-.065 0-.108-.022-.13-.065-.021-.043-.086-.064-.194-.064 0 .064-.129.118-.387.161-.043 0-.13.011-.259.033h-.258l-.776.064a5.583 5.583 0 01-.614.033 1.549 1.549 0 00-.55.032 30.31 30.31 0 00-.097 1.325c-.021.43-.053.937-.096 1.519l-.162 1.907a20.924 20.924 0 00-.065 1.777c0 .345.033.679.097 1.002.065.302.097.614.097.937 0 .28-.021.539-.064.776-.044.237-.087.377-.13.42a.676.676 0 01-.129.162c-.065.064-.118.097-.162.097-.129.086-.193.161-.193.226l-.388.032zm12.971 8.823a.42.42 0 01-.388-.226 1.797 1.797 0 01-.129-.517 4.094 4.094 0 01-.033-.518c0-.818-.032-1.626-.097-2.423a72.58 72.58 0 00-.161-2.327 50.077 50.077 0 00-.162-2.069 26.5 26.5 0 01-.064-1.745c0-.388.021-.678.064-.872.065-.216.14-.377.227-.485a.945.945 0 01.29-.291c.108-.065.227-.151.356-.259.108-.883.205-1.626.291-2.229.086-.604.161-1.067.226-1.39.582-2.823 1.368-4.912 2.359-6.27 1.013-1.357 2.219-2.036 3.62-2.036.668 0 1.249.162 1.745.485.517.323.948.754 1.293 1.293.043.086.097.204.161.355.065.13.097.226.097.291.065.086.13.205.194.355.086.151.151.345.194.582.043.194.075.399.097.614.022.216.032.431.032.647 0 .97-.258 1.863-.775 2.682a8.497 8.497 0 01-1.907 2.133 13.12 13.12 0 01-2.586 1.616c-.926.431-1.809.765-2.65 1.002-.021 1.4-.032 2.714-.032 3.943 0 1.228-.032 2.337-.097 3.328-.043 1.013-.14 1.875-.291 2.586-.129.711-.323 1.239-.581 1.583a.882.882 0 01-.485.323 1.107 1.107 0 01-.162.065.47.47 0 01-.452-.065 1.365 1.365 0 00-.194-.161zm7.174-20.748c-.237-.237-.538-.356-.904-.356-.367 0-.722.173-1.067.517-.345.345-.679.83-1.002 1.455a14.257 14.257 0 00-.84 2.165c-.259.84-.474 1.756-.646 2.747 0 .022-.011.043-.033.065v.032c1.595-.539 2.823-1.26 3.684-2.165.862-.905 1.293-1.95 1.293-3.135 0-.13-.021-.259-.064-.388l-.13-.388a.835.835 0 01-.097-.194c0-.086-.021-.15-.064-.194l-.13-.161zm14.148 9.598a1.466 1.466 0 00-.032.291v.226c0 .108-.011.205-.033.291v.226a.297.297 0 01-.032.13v.161a.46.46 0 00.032.194.4.4 0 01.065.226.76.76 0 01-.097.324 1.6 1.6 0 00-.129.323 1.675 1.675 0 01-.13.323c-.064.086-.129.129-.194.129a1.204 1.204 0 00-.226.194c-.064.086-.172.129-.323.129a.572.572 0 01-.258-.064.411.411 0 00-.194-.097.482.482 0 01-.227-.13 1.16 1.16 0 01-.258-.29 2.782 2.782 0 00-.259-.388 2.158 2.158 0 01-.226-.453 2.763 2.763 0 01-.194-1.034v-.388c0-.15.011-.28.033-.387 0-.13.01-.27.032-.421-.173.216-.377.464-.614.744a6.84 6.84 0 01-.808.743 4.044 4.044 0 01-1.034.582 2.857 2.857 0 01-1.228.258c-.388 0-.744-.097-1.067-.291a2.637 2.637 0 01-.84-.711 3.75 3.75 0 01-.517-1.066 4.139 4.139 0 01-.194-1.26c0-.668.086-1.304.258-1.907a9.008 9.008 0 01.776-1.745l.355-.517c.022-.044.108-.14.259-.291.151-.173.312-.356.485-.55.172-.194.355-.377.549-.55.194-.171.356-.312.485-.42l.517-.387c.323-.194.69-.399 1.099-.614.323-.151.571-.237.743-.259.194-.043.388-.064.582-.064.452 0 .894.086 1.325.258.452.173.84.388 1.163.647.043.409.065.85.065 1.325.022.474.043.926.065 1.357l.129 2.262a27.5 27.5 0 01.097 2.359v.582zm-3.135-5.979a3.632 3.632 0 00-1.519.711 5.194 5.194 0 00-1.099 1.196 4.651 4.651 0 00-.517 1.034 3.89 3.89 0 00-.161 1.164c0 .237.053.431.161.581.108.13.259.194.453.194.28 0 .56-.075.84-.226.302-.172.571-.366.808-.582.237-.237.442-.474.614-.711.194-.258.323-.474.388-.646l.258-.582c.086-.194.162-.506.227-.937.021-.108.032-.269.032-.485a6.05 6.05 0 00.032-.581c-.129-.087-.301-.13-.517-.13zm10.724 8.112c-.237 0-.506-.011-.808-.032-.28-.022-.581-.054-.905-.097a3.116 3.116 0 01-.355-.097 3.781 3.781 0 01-.291-.129.8.8 0 00-.291-.065c-.064.022-.129 0-.194-.065-.215-.15-.42-.301-.614-.452-.172-.129-.28-.323-.323-.582a1.987 1.987 0 00-.065-.258.863.863 0 01-.032-.259.4.4 0 01.065-.226.573.573 0 00.064-.259.35.35 0 01.097-.258c.065-.086.13-.129.194-.129.13-.044.27-.065.42-.065.194 0 .388.021.582.065.194.021.356.053.485.096.302.065.571.151.808.259.237.108.603.162 1.099.162.344 0 .7-.011 1.066-.033a5.432 5.432 0 001.002-.194c.302-.107.549-.258.743-.452.194-.216.291-.506.291-.873 0-.517-.14-.894-.42-1.131-.28-.258-.786-.388-1.519-.388-.258 0-.56.022-.905.065a7.853 7.853 0 01-.969.065.933.933 0 01-.42-.097c-.173-.043-.291-.108-.356-.194a.818.818 0 01-.194-.55c0-.129.011-.226.032-.29a.454.454 0 00.065-.259c0-.108.011-.172.032-.194.022-.043.044-.065.065-.065.043 0 .086-.021.129-.064.043-.043.097-.086.162-.129.086-.044.162-.076.226-.097.108-.022.291-.033.55-.033.366-.021.743-.064 1.131-.129a5.084 5.084 0 001.099-.355c.323-.151.592-.345.807-.582.216-.237.324-.539.324-.905s-.119-.668-.356-.905c-.215-.259-.549-.388-1.002-.388a7.64 7.64 0 00-1.26.097 2.737 2.737 0 00-1.099.485l-.162.162a.894.894 0 01-.452.226 3.53 3.53 0 01-.905.129v-.065c.022 0 .032-.01.032-.032 0-.043-.032-.065-.097-.065-.021 0-.096.022-.226.065-.064 0-.14.032-.226.097l.032-.226c-.043 0-.118-.011-.226-.033a.518.518 0 00-.226-.064.46.46 0 00.065-.259c.021-.129.032-.226.032-.29 0-.582.215-1.035.646-1.358a4.404 4.404 0 011.519-.776 8.292 8.292 0 011.745-.323 12.98 12.98 0 011.293-.097c1.25 0 2.176.259 2.779.776.604.495.905 1.303.905 2.424 0 .538-.129 1.056-.388 1.551-.237.474-.678.894-1.325 1.26.69.237 1.185.604 1.487 1.099.323.474.485 1.078.485 1.81 0 .646-.151 1.217-.453 1.713-.301.474-.721.883-1.26 1.228-.517.345-1.142.603-1.874.776-.733.172-1.519.258-2.36.258zm13.935 10.213c-.431 0-.84-.087-1.228-.259a4.844 4.844 0 01-1.099-.679 10.27 10.27 0 01-1.002-.937 18.15 18.15 0 01-.84-1.034l-.582-.905c-.193-.28-.377-.56-.549-.84a2.165 2.165 0 00-.129-.356.456.456 0 01-.065-.258c-.021-.022-.032-.086-.032-.194 0-.065.011-.119.032-.162a.28.28 0 00.032-.129.236.236 0 00-.032-.097v-.097a.58.58 0 01.065-.161c.043-.065.129-.119.258-.162a1.4 1.4 0 01.356-.065l.161.033c.043 0 .076-.011.097-.033h.065c.108-.043.248-.064.42-.064.366 0 .787.237 1.261.711.237.237.43.506.581.808.151.323.313.624.485.905.172.301.377.549.614.743.237.215.56.323.97.323.409 0 .764-.162 1.066-.485.302-.323.56-.732.776-1.228a8.848 8.848 0 00.581-1.616c.173-.581.313-1.131.421-1.648.107-.474.215-1.066.323-1.777.129-.711.248-1.433.355-2.166.13-.754.226-1.465.291-2.133.086-.668.14-1.217.162-1.648-.086-.172-.183-.258-.291-.258-.108 0-.248.053-.42.161-.151.086-.442.302-.873.646a5.162 5.162 0 01-.776.55c-.323.194-.678.388-1.066.582a10.29 10.29 0 01-1.131.452c-.366.108-.7.162-1.002.162-.474 0-.873-.097-1.196-.291a3.098 3.098 0 01-.808-.776 3.553 3.553 0 01-.42-1.066 5.364 5.364 0 01-.129-1.164c0-.99.269-1.971.808-2.94.28-.54.689-1.056 1.228-1.552a2.723 2.723 0 011.907-.743c.775 0 1.486.194 2.133.581.732.517 1.163 1.24 1.292 2.166a.476.476 0 01.033.29.22.22 0 00.064.162l.388-.258c.108-.108.28-.216.517-.324.259-.107.528-.161.808-.161.129 0 .345.086.647.258.323.151.538.334.646.55.043.108.097.258.162.452.064.194.096.377.096.55.022.107.033.194.033.258a.552.552 0 01.032.162v.161c-.043.28-.108.981-.194 2.101-.064 1.099-.215 2.413-.452 3.943a39.161 39.161 0 01-.517 2.941 26.83 26.83 0 01-.517 2.262 18.462 18.462 0 01-.679 1.874 8.75 8.75 0 01-1.002 1.875 5.354 5.354 0 01-1.357 1.422 2.884 2.884 0 01-1.778.582zm-1.357-16.289c.495 0 .98-.14 1.454-.42.496-.28.894-.571 1.196-.872v-.13c.021-.021.032-.053.032-.097 0-.215-.086-.441-.258-.678-.065-.086-.162-.13-.291-.13-.754 0-1.336.227-1.745.68-.41.452-.647.926-.711 1.421 0 .151.107.226.323.226zm19.758 6.432c-.431 0-.647-.399-.647-1.196v-.646c.022-.237.065-.485.13-.744.043-.237.086-.463.129-.678.043-.216.075-.528.097-.938v-.84c0-.28.011-.539.032-.776-.323.022-.678.044-1.066.065-.367 0-.711.011-1.034.032-.324 0-.615.011-.873.033h-.453a7.973 7.973 0 01-.549.064h-.808v.97c.022.323.032.668.032 1.034v.42c0 .194-.021.657-.064 1.39 0 .474-.065.851-.194 1.131a.374.374 0 01-.129.129.483.483 0 00-.097.13.395.395 0 00-.097.161.22.22 0 01-.065.162c-.172.129-.398.194-.679.194-.107 0-.215-.011-.323-.033h-.291c-.366 0-.592-.097-.678-.291-.065-.172-.097-.571-.097-1.195v-.517c.021-.259.043-.442.064-.55a34.5 34.5 0 00.13-1.422c.021-.366.032-.765.032-1.196v-.452a1.466 1.466 0 01-.291.032h-.258a1.04 1.04 0 00-.259.033c-.022-.043-.075-.087-.162-.13-.064-.043-.097-.15-.097-.323a.805.805 0 00-.064-.355 1.618 1.618 0 01-.032-.324c0-.172.043-.333.129-.484.086-.173.183-.313.291-.42a.647.647 0 01.355-.194c.151-.043.291-.076.42-.097.022-.539.043-1.11.065-1.713.043-.625.086-1.271.129-1.94.043-.365.076-.689.097-.969.043-.28.151-.506.323-.678.13-.108.248-.184.356-.227.108-.043.28-.064.517-.064.539 0 .894.14 1.066.42.194.258.291.678.291 1.26 0 .151-.01.302-.032.453a4.97 4.97 0 01-.097.484 3.635 3.635 0 00-.032.517c0 .173-.011.356-.033.55v.582l-.064 1.195a2.4 2.4 0 00.452-.032l4.298-.258v-.841a4.08 4.08 0 00.033-.517l-.097-1.777c.021-.474.097-.862.226-1.164.129-.323.366-.538.711-.646.022 0 .075-.01.162-.032h.194a1.803 1.803 0 01.678 0c.108.021.237.075.388.161.172.108.259.237.259.388 0 .043.01.086.032.13.043.042.065.086.065.129 0 .129.021.226.064.29.043.043.065.13.065.259a.547.547 0 01-.032.161v.162c.021.022.032.108.032.259 0 .107-.011.204-.032.29 0 .087-.011.184-.033.291-.043.302-.097.7-.161 1.196-.065.474-.119.927-.162 1.358a78.903 78.903 0 00-.129 2.488 95.247 95.247 0 00-.065 3.749c0 .56-.054.991-.161 1.293-.087.301-.431.495-1.035.581a2.502 2.502 0 01-.42.033h-.452zm16.021-.42c-.453 0-.83-.119-1.131-.356a2.664 2.664 0 01-.744-.808 4.43 4.43 0 01-.388-1.002 6.512 6.512 0 01-.161-.937c-.043-.065-.086-.097-.129-.097-.087 0-.194.075-.324.226-.129.173-.28.388-.452.647-.172.237-.409.538-.711.905a6.172 6.172 0 01-1.487 1.292c-.581.388-1.12.582-1.616.582-.624 0-1.163-.291-1.616-.873-.452-.581-.678-1.389-.678-2.423 0-.518.032-1.013.097-1.487.064-.496.14-.959.226-1.39.086-.431.14-.883.162-1.357.021-.474.043-.991.064-1.551v-.485c.022-.151.033-.28.033-.388 0-.043-.011-.075-.033-.097a.377.377 0 01-.097-.259.976.976 0 00-.032-.226v-.161a.625.625 0 00.032-.194c.043-.302.173-.55.388-.743.215-.216.452-.324.711-.324.302 0 .582.097.84.291.28.194.507.442.679.743.151.237.248.485.291.744.064.237.097.474.097.71 0 .216-.011.378-.033.486v.355c0 .172-.01.366-.032.582a7.7 7.7 0 01-.032.678l-.065.647a5.584 5.584 0 01-.064.452l-.162.647a9.707 9.707 0 01-.162.775c-.043.237-.086.453-.129.647a2.3 2.3 0 00-.065.387c0 .173.033.291.097.356a.708.708 0 00.291.129c.194 0 .485-.14.873-.42a7.638 7.638 0 001.228-1.163 9.076 9.076 0 001.163-1.616 6.91 6.91 0 00.776-1.875c.172-.69.345-1.152.517-1.39.173-.258.345-.387.517-.387.431 0 .841.183 1.228.55.41.365.614.904.614 1.615 0 .366-.043.743-.129 1.131-.065.388-.118.722-.162 1.002a7.635 7.635 0 00-.096.743 9.966 9.966 0 00-.033.841v.549c.022.194.065.334.129.42.044 0 .13-.021.259-.064.194-.087.431-.13.711-.13.151 0 .345.076.582.227l.161.161a.754.754 0 01.13.194v.517a2.838 2.838 0 01-.162.679c-.086.215-.215.42-.388.614a1.71 1.71 0 01-.646.485c-.259.129-.571.194-.937.194zm8.411-10.148c.452-.13.969-.28 1.551-.453.582-.194 1.185-.42 1.81-.678.431-.173.905-.377 1.422-.614l1.163-.582a9.89 9.89 0 01.97-.453c.323-.15.592-.226.808-.226.215 0 .345.022.388.065.043.043.183.097.42.161.021.065.075.162.161.291.087.13.173.226.259.291v.13a.28.28 0 01.032.129c0 .021-.01.043-.032.064v.097a.3.3 0 00.032.13.712.712 0 01-.097.258.367.367 0 00-.032.162.214.214 0 01-.097.096l-.097.098a.312.312 0 01-.129.161.403.403 0 00-.162.097c-.194.172-.538.377-1.034.614-.474.237-1.002.485-1.583.743-.582.259-1.164.507-1.746.744-.581.215-1.066.388-1.454.517-.819.237-1.228.398-1.228.485.021.086.162.258.42.517.259.258.582.571.97.937.409.345.851.732 1.325 1.163.495.41.958.808 1.389 1.196.453.388.851.754 1.196 1.099.366.323.625.582.776.776.107.15.161.247.161.29a.5.5 0 00.065.194c.065.065.118.13.162.194a.63.63 0 00-.065.291v.097c0 .022.011.043.032.065a.519.519 0 00-.097.129.28.28 0 01-.032.129l-.162.226-.226.162-.258.129a.988.988 0 00-.162.13.588.588 0 01-.291.097.966.966 0 01-.485-.13c-.129-.064-.204-.118-.226-.161a.646.646 0 01-.549-.259 1.943 1.943 0 00-.42-.42c-.474-.323-1.078-.797-1.81-1.422a58.037 58.037 0 01-2.586-2.456 2.569 2.569 0 00-.484-.356c-.194-.129-.334-.194-.421-.194a.745.745 0 00-.064.259v.259a11.81 11.81 0 00.097 1.583c.021.194.043.377.064.549.022.173.033.356.033.55 0 .409-.097.754-.291 1.034-.237.302-.625.453-1.164.453h-.193c-.302-.044-.507-.194-.615-.453a5.086 5.086 0 01-.193-.776 9.467 9.467 0 01-.097-1.098 29.691 29.691 0 01-.033-1.293c0-.517.022-1.099.065-1.745.065-.668.129-1.314.194-1.94.064-.646.129-1.238.194-1.777.086-.56.151-1.013.194-1.357l.194-1.293a3.12 3.12 0 01.064-.226c.022-.086.054-.172.097-.259a.933.933 0 01.356-.355c.15-.086.258-.172.323-.259.108 0 .172.011.194.033a.408.408 0 00.161-.097c.043-.043.108-.065.194-.065.065 0 .162.01.291.032.129 0 .248.054.356.162a.95.95 0 01.323.42c.086.194.129.474.129.84a2.621 2.621 0 01-.129.646 3.16 3.16 0 00-.097.485l-.194.938zm20.372 10.148c-.453 0-.83-.119-1.131-.356a2.664 2.664 0 01-.744-.808 4.38 4.38 0 01-.387-1.002 6.531 6.531 0 01-.162-.937c-.043-.065-.086-.097-.129-.097-.086 0-.194.075-.323.226-.13.173-.281.388-.453.647-.172.237-.409.538-.711.905a6.172 6.172 0 01-1.487 1.292c-.581.388-1.12.582-1.615.582-.625 0-1.164-.291-1.616-.873-.453-.581-.679-1.389-.679-2.423 0-.518.032-1.013.097-1.487a21.2 21.2 0 01.226-1.39c.086-.431.14-.883.162-1.357.021-.474.043-.991.064-1.551v-.485c.022-.151.033-.28.033-.388 0-.043-.011-.075-.033-.097a.377.377 0 01-.097-.259c0-.064-.01-.14-.032-.226v-.161a.597.597 0 00.032-.194c.044-.302.173-.55.388-.743.216-.216.453-.324.711-.324.302 0 .582.097.841.291.28.194.506.442.678.743.151.237.248.485.291.744.065.237.097.474.097.71 0 .216-.011.378-.032.486v.355a5.8 5.8 0 01-.033.582c0 .215-.01.441-.032.678l-.065.647a5.584 5.584 0 01-.064.452l-.162.647c-.043.258-.097.517-.161.775a17.1 17.1 0 01-.13.647 2.26 2.26 0 00-.064.387c0 .173.032.291.097.356a.696.696 0 00.291.129c.193 0 .484-.14.872-.42a7.638 7.638 0 001.228-1.163 9.13 9.13 0 001.164-1.616c.366-.625.624-1.25.775-1.875.173-.69.345-1.152.517-1.39.173-.258.345-.387.517-.387.431 0 .841.183 1.229.55.409.365.614.904.614 1.615 0 .366-.044.743-.13 1.131a94.72 94.72 0 00-.161 1.002 7.63 7.63 0 00-.097.743 9.966 9.966 0 00-.033.841v.549c.022.194.065.334.13.42.043 0 .129-.021.258-.064.194-.087.431-.13.711-.13.151 0 .345.076.582.227l.162.161a.754.754 0 01.129.194v.517a2.838 2.838 0 01-.162.679c-.086.215-.215.42-.388.614-.15.194-.366.355-.646.485-.258.129-.571.194-.937.194zm-190.481 46.739a1.266 1.266 0 01-.193.323c-.087.13-.194.248-.324.356a4.782 4.782 0 01-.484.323.732.732 0 01-.485.162c-.151 0-.302-.033-.453-.097-.215-.065-.366-.216-.452-.453a2.089 2.089 0 01-.129-.775v-.324c.021-.107.043-.226.064-.355.043-.259.097-.56.162-.905a28.483 28.483 0 01.42-1.971c.065-.237.097-.474.097-.711 0-.087-.022-.13-.065-.13-.086 0-.183.076-.291.227-.086.15-.237.366-.452.646-.323.431-.668.84-1.034 1.228s-.83.829-1.39 1.325a15.76 15.76 0 01-1.648 1.26 3.504 3.504 0 01-1.907.55c-.646 0-1.152-.248-1.519-.744a3.079 3.079 0 01-.517-1.745c0-.215.011-.463.032-.743.044-.28.076-.571.097-.873.044-.301.087-.581.13-.84.043-.28.064-.506.064-.679.043-.28.108-.646.194-1.098.086-.453.13-.83.13-1.131l.161-1.099c.043-.216.065-.41.065-.582.021-.194.054-.366.097-.517a.978.978 0 00.032-.226v-.227c0-.172.043-.269.129-.29.13-.108.302-.194.517-.259.151-.065.291-.086.421-.065.129 0 .215-.021.258-.064.237 0 .463.151.679.452.215.302.344.571.388.808.021.065.032.162.032.291v.388c0 .366-.022.722-.065 1.066-.043.345-.097.711-.161 1.099l-.162.647a9.707 9.707 0 01-.162.775c-.043.259-.086.496-.129.711a4.47 4.47 0 00-.032.42c0 .13.021.248.064.356.065.086.184.129.356.129.194 0 .485-.14.873-.42.387-.28.797-.614 1.228-1.002.452-.409.883-.829 1.292-1.26.431-.453.776-.851 1.035-1.196.409-.539.743-.98 1.001-1.325a7.31 7.31 0 01.744-.808c.215-.216.538-.323.969-.323.216 0 .399.086.55.258.172.173.312.345.42.517.172.28.258.593.258.938 0 .323.022.657.065 1.001a.574.574 0 01-.065.259.573.573 0 00-.064.259c-.022.237-.043.517-.065.84-.021.323-.043.678-.065 1.066a46.141 46.141 0 01-.323 2.78c-.086.668-.204 1.217-.355 1.648l-.033.129zm36.276.162c-.108.84-.571 1.26-1.39 1.26h-.194a.598.598 0 01-.194.032c-.064 0-.129-.043-.194-.129a.796.796 0 01-.291-.064.507.507 0 00-.226-.065.519.519 0 01-.097-.129.499.499 0 00-.097-.13c-.172-.107-.312-.291-.42-.549a1.616 1.616 0 01-.161-.259 4.377 4.377 0 00-.13-.29 3.74 3.74 0 01-.226-.615 27.727 27.727 0 01-.129-.614 7.022 7.022 0 01-.033-.711v-1.26a.208.208 0 00-.161-.162.494.494 0 00-.194-.064c-.043 0-.183.097-.42.291-.216.172-.507.42-.873.743-.345.302-.732.646-1.163 1.034-.431.388-.862.787-1.293 1.196l-.614.614c-.215.215-.549.323-1.002.323-.108 0-.291-.032-.549-.097-.237-.064-.399-.129-.485-.194l-.129-.097a8.965 8.965 0 01-.356-.808c-.108-.301-.183-.764-.226-1.389a57.443 57.443 0 01-.065-.614v-1.034c0-.151-.021-.281-.064-.388-.043-.108-.086-.162-.13-.162-.15 0-.258.011-.323.032a1.322 1.322 0 00-.291.162 4.175 4.175 0 00-.387.356c-.259.237-.55.517-.873.84-.323.301-.689.657-1.099 1.066a71.75 71.75 0 00-1.26 1.293c-.366.388-.625.7-.776.937a3.781 3.781 0 00-.129.291l-.097.291a1.886 1.886 0 00-.097.226.41.41 0 01-.097.162.66.66 0 01-.355.194c-.13.043-.281.064-.453.064-.366 0-.732-.194-1.099-.581-.344-.388-.517-.895-.517-1.519 0-.302.032-.679.097-1.132.065-.474.14-.948.226-1.422.087-.495.173-.98.259-1.454.108-.474.194-.872.258-1.196.065-.301.13-.657.194-1.066.087-.409.162-.808.227-1.196.086-.388.15-.743.193-1.066.065-.324.097-.55.097-.679 0-.172-.032-.409-.097-.711.044-.151.097-.259.162-.323a2.19 2.19 0 01.323-.323.598.598 0 01.388-.13 1.562 1.562 0 011.357.776c.194.323.334.668.421 1.034l.032.162a1.065 1.065 0 00-.065.258v.13c0 .021.011.043.033.064 0 .474-.044.916-.13 1.325-.086.41-.204.894-.355 1.455-.043.215-.097.452-.162.711a3.253 3.253 0 00-.064.517c0 .107.053.161.161.161a.402.402 0 00.291-.129l.226-.226c.56-.69 1.131-1.336 1.713-1.939a33.804 33.804 0 011.745-1.746c.216-.193.388-.323.517-.387.13-.087.28-.13.453-.13.517 0 .959.151 1.325.453.366.28.592.528.679.743.107.302.183.55.226.743.043.194.064.388.064.582 0 .302-.01.647-.032 1.034v.938c0 .215.032.366.097.452a.47.47 0 00.291.097c.021 0 .097-.043.226-.129.129-.108.269-.226.42-.356.173-.129.345-.269.517-.42a5.27 5.27 0 00.485-.42c.582-.496 1.12-.959 1.616-1.39.517-.431.894-.743 1.131-.937.194-.172.356-.28.485-.323.129-.065.302-.097.517-.097.194 0 .388.086.582.258.215.173.409.378.581.615.173.237.313.484.421.743.107.258.161.485.161.679 0 .344-.021.732-.064 1.163-.044.431-.065.84-.065 1.228 0 .151.011.377.032.679.043.28.086.452.129.517.022.237.097.463.227.678.129.194.28.41.452.647l.226.258.13.097c-.022 0-.033.011-.033.033v.161c.022 0 .033.022.033.065v.388zm3.013 14.446a3.73 3.73 0 01-.323-.937 10.249 10.249 0 01-.065-1.293c0-.56.033-1.174.097-1.842.065-.668.129-1.455.194-2.359.022-.367.054-.83.097-1.39.065-.56.151-1.174.259-1.842a.605.605 0 01-.388-.162 1.09 1.09 0 01-.259-.291c-.151-.301-.226-.571-.226-.808 0-.237.022-.441.065-.614.043-.172.118-.366.226-.581 0-.151.043-.324.129-.517.086-.173.194-.356.323-.55l.808-1.099.291-1.713c.172-.948.399-2.036.679-3.264.301-1.228.668-2.51 1.099-3.846.15-.452.344-.926.581-1.422.237-.517.507-.991.808-1.422.302-.43.625-.786.97-1.066.366-.28.743-.42 1.131-.42.452 0 .851.118 1.196.355.344.237.635.55.872.938.259.366.453.775.582 1.228.129.452.194.883.194 1.292a6.71 6.71 0 01-.291 1.939 11.397 11.397 0 01-.679 1.875c-.28.582-.581 1.131-.904 1.648-.324.496-.625.937-.905 1.325l-3.491 4.589a.863.863 0 00-.032.259c-.065.452-.129.937-.194 1.454a27.018 27.018 0 01-.162 1.519c-.043.474-.086.883-.129 1.228-.021.366-.032.614-.032.744a87.727 87.727 0 00-.226 3.005 76.354 76.354 0 00-.033 1.939c0 .151-.021.323-.064.517-.043.216-.097.42-.162.614s-.14.377-.226.55a2.35 2.35 0 01-.194.452c-.151.237-.291.388-.42.453-.129.086-.226.129-.291.129a.857.857 0 01-.485-.129c-.108-.087-.248-.248-.42-.485zm4.169-17.775c.345-.452.679-.937 1.002-1.454.323-.517.603-1.035.84-1.552a8.064 8.064 0 00.582-1.486c.151-.496.226-.927.226-1.293 0-.388-.129-.582-.388-.582-.15 0-.301.13-.452.388-.129.237-.269.56-.42.97-.13.366-.259.765-.388 1.195l-.388 1.229c-.108.387-.205.764-.291 1.131-.086.344-.151.624-.194.84l-.129.614zm16.294 2.359a1.544 1.544 0 00-.032.291v.226c0 .108-.011.205-.032.291v.226a.285.285 0 01-.033.13v.161c0 .086.011.151.033.194a.4.4 0 01.064.226.76.76 0 01-.097.324 1.728 1.728 0 00-.129.323 1.6 1.6 0 01-.129.323c-.065.086-.129.129-.194.129a1.173 1.173 0 00-.226.194c-.065.086-.173.129-.323.129a.573.573 0 01-.259-.064.407.407 0 00-.194-.097.483.483 0 01-.226-.13 1.182 1.182 0 01-.259-.29 2.846 2.846 0 00-.258-.388 2.11 2.11 0 01-.226-.453 2.744 2.744 0 01-.194-1.034v-.388c0-.15.01-.28.032-.387 0-.13.011-.27.032-.421-.172.216-.377.464-.614.744a6.763 6.763 0 01-.808.743 4.01 4.01 0 01-1.034.582 2.851 2.851 0 01-1.228.258 2.03 2.03 0 01-1.066-.291 2.63 2.63 0 01-.841-.711 3.776 3.776 0 01-.517-1.066 4.17 4.17 0 01-.194-1.26c0-.668.086-1.304.259-1.907a9.004 9.004 0 01.775-1.745l.356-.517c.022-.044.108-.141.259-.291.15-.173.312-.356.484-.55.173-.194.356-.377.55-.549.194-.173.355-.313.484-.42l.518-.388c.323-.194.689-.399 1.098-.614.324-.151.571-.237.744-.259a2.68 2.68 0 01.581-.064c.453 0 .895.086 1.325.258.453.173.841.388 1.164.647.043.409.065.851.065 1.325.021.474.043.926.064 1.357l.129 2.262a27.5 27.5 0 01.097 2.359v.582zm-3.134-5.979a3.637 3.637 0 00-1.519.711 5.179 5.179 0 00-1.099 1.196 4.609 4.609 0 00-.517 1.034 3.889 3.889 0 00-.162 1.164c0 .237.054.431.162.581.107.13.258.194.452.194.28 0 .56-.075.84-.226.302-.172.571-.366.808-.582.237-.237.442-.474.614-.711.194-.258.324-.474.388-.646l.259-.582c.086-.194.161-.506.226-.937.022-.108.032-.269.032-.485.022-.215.033-.409.033-.581-.13-.087-.302-.13-.517-.13zm11.176 8.274c-.754 0-1.411-.14-1.971-.42a3.735 3.735 0 01-1.357-1.099 5.37 5.37 0 01-.776-1.745 9.976 9.976 0 01-.226-2.198c0-1.099.107-2.23.323-3.393.237-1.185.668-2.22 1.293-3.103.086-.108.204-.226.355-.355.151-.151.28-.237.388-.259 0-.194.108-.366.323-.517.108-.086.237-.172.388-.259a2.38 2.38 0 01.42-.193 4.922 4.922 0 011.874-.356c.41 0 .787.065 1.132.194.344.108.635.237.872.388.28.172.539.355.776.549-.065-.495-.14-.937-.226-1.325a6.896 6.896 0 00-.259-1.099c-.043-.107-.086-.172-.129-.194-.022-.021-.033-.086-.033-.194a.22.22 0 01.065-.161c-.021-.043-.054-.065-.097-.065a.212.212 0 01-.097-.097c-.301-.56-.711-.969-1.228-1.228-.495-.28-1.174-.495-2.036-.646-.732-.129-1.271-.226-1.616-.291-.345-.086-.517-.323-.517-.711 0-.043-.032-.108-.097-.194a.751.751 0 01-.065-.258c0-.194.022-.302.065-.324.065-.043.097-.118.097-.226 0-.043.011-.108.032-.194a.754.754 0 01.13-.194c.107-.107.15-.204.129-.291-.022-.086.011-.172.097-.258.172-.129.377-.205.614-.226.258-.022.495-.033.711-.033 1.056 0 1.982.173 2.779.517.797.345 1.476.83 2.036 1.455a.643.643 0 01.194.355c.022.13.097.248.226.356.087.064.151.14.194.226a.822.822 0 00.227.259.58.58 0 01.193.258c.044.086.087.183.13.291.366.732.625 1.54.775 2.424.173.862.259 1.767.259 2.714 0 .668-.022 1.401-.065 2.198a23.073 23.073 0 01-.194 2.392 15.594 15.594 0 01-.452 2.391 10.532 10.532 0 01-.84 2.133c-.087.173-.194.259-.324.259-.064.064-.096.118-.096.161v.097c.021 0 .032.011.032.033-.065.107-.183.161-.356.161a.368.368 0 00.065.097c.043.022.065.054.065.097a.22.22 0 01-.065.162l-.129.129a2.77 2.77 0 01-.517.452c-.194.13-.377.248-.55.356a4.699 4.699 0 00-.42.291c-.086.107-.226.204-.42.291a4.593 4.593 0 01-.97.29c-.344.087-.721.13-1.131.13zm.453-2.553c.409 0 .765-.108 1.066-.324.323-.215.593-.495.808-.84.237-.345.431-.732.582-1.163.151-.453.28-.905.388-1.358.237-1.077.366-2.305.388-3.684-.173-.431-.496-.776-.97-1.034-.452-.28-.991-.42-1.616-.42-.582 0-1.056.194-1.422.582-.366.387-.657.872-.872 1.454a9.995 9.995 0 00-.421 1.874 14.297 14.297 0 00-.129 1.81c0 .28.011.55.032.808.022.237.065.463.13.679a.492.492 0 00.161.194.578.578 0 01.162.161.524.524 0 01.065.226.397.397 0 00.096.162.367.367 0 01.13.129.505.505 0 01.097.13c.064.043.129.097.194.161.086.065.172.119.258.162.108.043.216.097.323.161.108.065.205.108.291.13h.259zm18.321 2.327c-.453 0-.83-.119-1.131-.356a2.664 2.664 0 01-.744-.808 4.43 4.43 0 01-.388-1.002 6.512 6.512 0 01-.161-.937c-.043-.065-.086-.097-.129-.097-.087 0-.194.075-.324.226-.129.173-.28.388-.452.647-.172.237-.409.538-.711.905a6.172 6.172 0 01-1.487 1.292c-.581.388-1.12.582-1.616.582-.624 0-1.163-.291-1.615-.873-.453-.581-.679-1.389-.679-2.423 0-.518.032-1.013.097-1.487.064-.496.14-.959.226-1.39.086-.431.14-.883.162-1.357.021-.474.043-.991.064-1.551v-.485c.022-.151.033-.28.033-.388 0-.043-.011-.075-.033-.097a.369.369 0 01-.097-.258.927.927 0 00-.032-.227v-.161a.602.602 0 00.032-.194c.043-.302.173-.55.388-.744.216-.215.453-.323.711-.323.302 0 .582.097.84.291.281.194.507.442.679.743.151.237.248.485.291.744.065.237.097.474.097.711 0 .215-.011.377-.032.485v.355a5.8 5.8 0 01-.033.582c0 .215-.01.441-.032.678l-.065.647a5.584 5.584 0 01-.064.452l-.162.647c-.043.258-.097.517-.161.775-.044.237-.087.453-.13.647a2.26 2.26 0 00-.064.387c0 .173.032.291.097.356a.698.698 0 00.29.129c.194 0 .485-.14.873-.42a7.638 7.638 0 001.228-1.163 9.13 9.13 0 001.164-1.616c.366-.625.624-1.25.775-1.875.173-.689.345-1.152.517-1.389.173-.259.345-.388.517-.388.431 0 .841.183 1.228.549.41.366.614.905.614 1.616 0 .366-.043.743-.129 1.131a94.72 94.72 0 00-.161 1.002 7.63 7.63 0 00-.097.743 9.966 9.966 0 00-.033.841v.549c.022.194.065.334.13.42.043 0 .129-.021.258-.064.194-.087.431-.13.711-.13.151 0 .345.076.582.227l.161.161a.73.73 0 01.13.194v.517a2.838 2.838 0 01-.162.679c-.086.215-.215.42-.388.614-.15.194-.366.355-.646.485-.259.129-.571.194-.937.194zm16.491 5.041a1.96 1.96 0 01-.485-.065 1.093 1.093 0 00-.259-.032.27.27 0 01-.226-.032 1.042 1.042 0 01-.162-.129c-.043-.022-.086-.076-.129-.162a1.729 1.729 0 01-.097-.388v-.452c0-.496.054-1.088.162-1.778.129-.689.237-1.4.323-2.133a2.926 2.926 0 01-.42.033h-.647c-.754 0-1.131-.442-1.131-1.325v-.324c.022-.107.043-.226.065-.355.043-.259.097-.56.162-.905.064-.366.129-.7.193-1.002.087-.409.162-.732.227-.969.064-.237.097-.474.097-.711 0-.087-.022-.13-.065-.13-.086 0-.183.076-.291.227-.086.15-.237.366-.452.646a14.2 14.2 0 01-1.035 1.228c-.366.388-.829.829-1.389 1.325-.517.452-1.067.873-1.648 1.26a3.506 3.506 0 01-1.907.55c-.647 0-1.153-.248-1.519-.744a3.071 3.071 0 01-.517-1.745c0-.215.011-.463.032-.743.043-.28.076-.571.097-.873.043-.301.086-.581.129-.84.043-.28.065-.506.065-.679.043-.28.108-.646.194-1.098.086-.453.129-.83.129-1.131l.162-1.099c.043-.216.064-.41.064-.582.022-.194.054-.366.097-.517a.933.933 0 00.033-.226v-.227c0-.172.043-.269.129-.29.129-.108.302-.194.517-.259a.75.75 0 01.42-.065c.129 0 .216-.021.259-.064.237 0 .463.151.678.452.216.302.345.571.388.808a.965.965 0 01.033.291v.388c0 .366-.022.722-.065 1.066-.043.345-.097.711-.162 1.099l-.161.647a9.707 9.707 0 01-.162.775c-.043.259-.086.496-.129.711a4.146 4.146 0 00-.032.42c0 .13.021.248.064.356.065.086.183.129.356.129.194 0 .484-.14.872-.42.388-.28.797-.614 1.228-1.002a23.39 23.39 0 001.293-1.26c.431-.453.776-.851 1.034-1.196.41-.539.744-.98 1.002-1.325.28-.345.528-.614.743-.808.216-.216.539-.323.97-.323.215 0 .399.086.549.258.173.173.313.345.42.517.173.28.259.593.259.938 0 .323.022.657.065 1.001a.574.574 0 01-.065.259.574.574 0 00-.065.259 9.658 9.658 0 00-.032.84 9.5 9.5 0 01-.065 1.066 18.06 18.06 0 01-.193 1.842l-.227 1.358h.647c.107-.022.226-.033.355-.033.366 0 .625.087.776.259.151.151.226.366.226.646l-.194 3.168a16.512 16.512 0 01-.194 1.712c-.086.517-.215.938-.388 1.261a4.226 4.226 0 00-.161.291c-.022.107-.097.183-.226.226l-.324.064a.628.628 0 01-.29.065zm14.186-5.041c-.453 0-.83-.119-1.132-.356a2.673 2.673 0 01-.743-.808 4.43 4.43 0 01-.388-1.002 6.512 6.512 0 01-.161-.937c-.043-.065-.086-.097-.13-.097-.086 0-.193.075-.323.226-.129.173-.28.388-.452.647-.173.237-.409.538-.711.905a6.172 6.172 0 01-1.487 1.292c-.581.388-1.12.582-1.616.582-.624 0-1.163-.291-1.616-.873-.452-.581-.678-1.389-.678-2.423 0-.518.032-1.013.097-1.487.064-.496.14-.959.226-1.39.086-.431.14-.883.162-1.357.021-.474.043-.991.064-1.551v-.485a2.73 2.73 0 00.032-.388c0-.043-.01-.075-.032-.097a.369.369 0 01-.097-.258.978.978 0 00-.032-.227v-.161a.63.63 0 00.032-.194c.043-.302.173-.55.388-.744.215-.215.452-.323.711-.323.302 0 .582.097.84.291.28.194.507.442.679.743.151.237.248.485.291.744.064.237.097.474.097.711 0 .215-.011.377-.033.485v.355c0 .172-.01.366-.032.582a7.7 7.7 0 01-.032.678l-.065.647a5.584 5.584 0 01-.064.452l-.162.647a9.707 9.707 0 01-.162.775c-.043.237-.086.453-.129.647a2.3 2.3 0 00-.065.387c0 .173.033.291.097.356a.708.708 0 00.291.129c.194 0 .485-.14.873-.42a7.638 7.638 0 001.228-1.163 9.076 9.076 0 001.163-1.616c.367-.625.625-1.25.776-1.875.172-.689.345-1.152.517-1.389.172-.259.345-.388.517-.388.431 0 .84.183 1.228.549.41.366.614.905.614 1.616 0 .366-.043.743-.129 1.131-.065.388-.118.722-.162 1.002a7.635 7.635 0 00-.096.743 9.966 9.966 0 00-.033.841v.549c.022.194.065.334.129.42.044 0 .13-.021.259-.064.194-.087.431-.13.711-.13.151 0 .345.076.582.227l.161.161a.754.754 0 01.13.194v.517a2.838 2.838 0 01-.162.679c-.086.215-.215.42-.388.614a1.71 1.71 0 01-.646.485c-.259.129-.571.194-.937.194zm15.941-1.261a1.27 1.27 0 01-.194.323 1.66 1.66 0 01-.323.356 4.678 4.678 0 01-.485.323.73.73 0 01-.485.162c-.15 0-.301-.033-.452-.097-.216-.065-.366-.216-.453-.453a2.089 2.089 0 01-.129-.775v-.324c.022-.107.043-.226.065-.355.043-.259.097-.56.161-.905.065-.366.13-.7.194-1.002.086-.409.162-.732.227-.969.064-.237.096-.474.096-.711 0-.087-.021-.13-.064-.13-.086 0-.183.076-.291.227-.086.15-.237.366-.452.646a14.2 14.2 0 01-1.035 1.228c-.366.388-.829.829-1.389 1.325-.517.452-1.067.873-1.649 1.26a3.5 3.5 0 01-1.906.55c-.647 0-1.153-.248-1.519-.744a3.071 3.071 0 01-.517-1.745c0-.215.01-.463.032-.743.043-.28.075-.571.097-.873.043-.301.086-.581.129-.84.043-.28.065-.506.065-.679.043-.28.108-.646.194-1.098.086-.453.129-.83.129-1.131l.162-1.099c.043-.216.064-.41.064-.582.022-.194.054-.366.097-.517a.933.933 0 00.033-.226v-.227c0-.172.043-.269.129-.29.129-.108.301-.194.517-.259a.75.75 0 01.42-.065c.129 0 .215-.021.259-.064.237 0 .463.151.678.452.216.302.345.571.388.808a.971.971 0 01.032.291v.388a8.6 8.6 0 01-.064 1.066c-.043.345-.097.711-.162 1.099l-.161.647a10.17 10.17 0 01-.162.775c-.043.259-.086.496-.129.711a4.227 4.227 0 00-.033.42c0 .13.022.248.065.356.065.086.183.129.356.129.193 0 .484-.14.872-.42.388-.28.797-.614 1.228-1.002a23.39 23.39 0 001.293-1.26c.431-.453.776-.851 1.034-1.196.409-.539.743-.98 1.002-1.325.28-.345.528-.614.743-.808.216-.216.539-.323.97-.323.215 0 .398.086.549.258.173.173.313.345.42.517.173.28.259.593.259.938 0 .323.021.657.065 1.001a.574.574 0 01-.065.259.574.574 0 00-.065.259c-.021.237-.043.517-.064.84-.022.323-.043.678-.065 1.066a46.978 46.978 0 01-.323 2.78c-.086.668-.205 1.217-.356 1.648l-.032.129z" fill="#fff"/><defs><radialGradient id="paint0_radial" cx="0" cy="0" r="1" gradientUnits="userSpaceOnUse" gradientTransform="matrix(157.61525 41.79682 -26.92828 101.5462 173.07 109.98)"><stop stop-color="#407B9A"/><stop offset=".645" stop-color="#3682A1"/><stop offset=".941" stop-color="#C6DDEE"/><stop offset="1" stop-color="#fff"/></radialGradient><linearGradient id="paint1_linear" x1="217.192" y1="33.992" x2="208.646" y2="74.669" gradientUnits="userSpaceOnUse"><stop stop-color="#fff"/><stop offset=".475" stop-color="#D4EFFD" stop-opacity=".5"/><stop offset="1" stop-color="#3699D6" stop-opacity="0"/></linearGradient></defs></svg>