<svg width="193" height="136" fill="none" xmlns="http://www.w3.org/2000/svg"><path opacity=".42" d="M30.514 41.596c-19.4 17.82-32 46.948-29.1 66.487 2.9 19.448 17.7 22.252 40.8 26.052 14.1 2.352 35.2-.814 51.1-4.523 29.4-6.875 30-3.98 61.1-19.72 12.3-6.242 22.5-13.116 28-21.348 4-5.88 10.3-18.634 9.7-31.027-1.3-26.685-26.1-51.651-59.9-54.817-42.7-4.252-61.9 2.17-101.7 38.896z" fill="url(#paint0_radial)" stroke="#fff" stroke-width="1.469" stroke-miterlimit="10"/><path opacity=".33" d="M81.814 27.757c1.8-1.99 13.8-10.764 19.701-12.393 4.3-1.176 21.7-6.512 32.3-1.99 7.9 3.438 11.8 4.252 15.9 15.197.4 1.176.7 7.87-2.6 7.87-6-.271-19.5-2.623-37 2.261-4.4 1.176-15.9 6.513-19.8 9.137-1.9 1.175-9.3 5.337-11 4.794-9.4-2.714-.9-21.167 2.5-24.876z" fill="url(#paint1_linear)"/><path d="M63.83 85.717c0-.084-.013-.14-.041-.168a.56.56 0 01-.21-.252v-1.47c.028-.224.042-.434.042-.63.028-.196.042-.35.042-.462 0-.476-.014-1.05-.042-1.722v-2.478c0-.728-.028-1.512-.084-2.352-.028-.868-.042-1.932-.042-3.192v-5.796l.042-.42a3.618 3.618 0 01-.042-.588v-.588h-1.05c-.364 0-.77.014-1.218.042-.672.056-1.414.084-2.226.084s-1.428.014-1.848.042l-.966.042.042 1.092c0 .532.014 1.092.042 1.68.056.588.084 1.19.084 1.806 0 .224-.014.434-.042.63v.546l-.42 5.292c-.056.476-.126.98-.21 1.512-.056.532-.126 1.05-.21 1.554-.084.476-.182.938-.294 1.386-.112.42-.21.77-.294 1.05a19.028 19.028 0 01-.924 2.226 5.28 5.28 0 01-1.722 1.974 5.02 5.02 0 01-2.1.882c-.756.14-1.456.21-2.1.21-.476 0-.826-.042-1.05-.126a1.421 1.421 0 01-.504-.252 2.52 2.52 0 01-.546-.546 2.533 2.533 0 01-.294-.504.691.691 0 01-.042-.21c0-.028-.028-.07-.084-.126 0-.14-.014-.266-.042-.378a1.38 1.38 0 01-.042-.336c0-.14.042-.238.126-.294.056 0 .084-.042.084-.126 0-.028-.014-.056-.042-.084v-.084c0-.112.028-.224.084-.336.056-.112.14-.168.252-.168.196 0 .336-.028.42-.084.112-.084.21-.126.294-.126.448 0 .77.056.966.168.196.112.504.168.924.168.644 0 1.162-.098 1.554-.294.42-.196.812-.7 1.176-1.512.476-1.12.77-2.268.882-3.444.112-1.176.224-2.31.336-3.402.14-1.176.224-2.17.252-2.982.028-.812.042-1.61.042-2.394 0-.616-.014-1.246-.042-1.89v-2.31c0-.672.014-1.26.042-1.764.056-.504.154-.798.294-.882.392-.308.784-.476 1.176-.504.42-.028.868-.07 1.344-.126.392-.056.868-.084 1.428-.084.56-.028 1.26-.07 2.1-.126.56-.028 1.148-.056 1.764-.084.644-.028 1.232-.056 1.764-.084.532-.028.98-.042 1.344-.042h1.05c.392 0 .798.084 1.218.252.42.14.63.462.63.966 0 .056-.014.154-.042.294v.252c0 .224.014.49.042.798.028.308.042.532.042.672v.756c.028.252.042.56.042.924.028.364.042.812.042 1.344v4.368c0 .924-.014 2.016-.042 3.276l.168 4.704v.756c0 .308-.014.728-.042 1.26l-.042.966c-.028.588-.07 1.106-.126 1.554-.028.448-.112.812-.252 1.092-.112.308-.294.532-.546.672-.252.168-.588.252-1.008.252-.196 0-.462-.098-.798-.294-.336-.168-.504-.532-.504-1.092v-.336zm20.54 1.428c-.895 0-1.651-.154-2.267-.462a4.703 4.703 0 01-1.47-1.176 4.797 4.797 0 01-.84-1.638 6.997 6.997 0 01-.252-1.848c0-.308.014-.63.042-.966.028-.336.084-.686.168-1.05-.392 0-.77.014-1.134.042-.308.028-.644.056-1.008.084-.336.028-.616.07-.84.126-.028.42-.042.854-.042 1.302v2.478c.028.336.042.658.042.966 0 .28-.028.518-.084.714a1.083 1.083 0 01-.252.546 2.742 2.742 0 00-.252.294.682.682 0 01-.336.294c-.252.112-.616.168-1.092.168-.364 0-.63-.084-.798-.252-.28 0-.462-.126-.546-.378a2.947 2.947 0 01-.126-.924c0-.7.056-1.414.168-2.142.112-.728.21-1.68.294-2.856-.168 0-.294-.042-.378-.126a.658.658 0 01-.126-.168.658.658 0 00-.126-.168.537.537 0 01-.21-.336v-.42a.468.468 0 00-.042-.21v-.21c0-.056.014-.126.042-.21.028-.112.056-.196.084-.252a.658.658 0 00.126-.168 1.63 1.63 0 01.084-.21 2.55 2.55 0 01.756-.21l.084-.42-.042-.336.126-.378c0-.056-.014-.14-.042-.252v-.294c.056-.448.084-.91.084-1.386 0-.476.014-.854.042-1.134.028-.812.084-1.4.168-1.764.084-.364.266-.658.546-.882a1.9 1.9 0 00.336-.336.643.643 0 01.462-.294l.336-.084c.14-.028.28-.042.42-.042.364 0 .672.098.924.294.28.168.42.546.42 1.134 0 .504-.098 1.232-.294 2.184-.196.952-.364 2.156-.504 3.612l3.654-.294a13.48 13.48 0 011.134-2.184c.448-.728.938-1.372 1.47-1.932a7.795 7.795 0 011.806-1.428 5.802 5.802 0 012.142-.672c.028.028.056.042.084.042.056 0 .112.014.168.042a.322.322 0 00.126.042c.056 0 .098.014.126.042a.645.645 0 00.252.084c0 .112.042.21.126.294.252.084.518.21.798.378.28.14.56.322.84.546.14.14.266.28.378.42.112.14.238.294.378.462.112.14.224.238.336.294.112.056.21.154.294.294.056.084.126.21.21.378.084.168.154.294.21.378a7.84 7.84 0 01.798 1.848c.196.672.294 1.358.294 2.058 0 1.26-.238 2.422-.714 3.486a8.653 8.653 0 01-1.89 2.73 8.609 8.609 0 01-2.688 1.764c-.98.448-1.974.672-2.982.672zm2.1-4.074c.477-.112.799-.238.967-.378.196-.168.406-.336.63-.504a9.93 9.93 0 01.546-.462c.14-.084.238-.224.294-.42.168-.14.28-.252.336-.336a.834.834 0 00.084-.378c0-.056.014-.098.042-.126a.373.373 0 00.042-.168l.168-.462c.084-.364.126-.756.126-1.176 0-.952-.238-1.806-.714-2.562-.476-.756-1.162-1.134-2.058-1.134-.56 0-1.078.21-1.554.63-.476.392-.896.896-1.26 1.512a8.455 8.455 0 00-.882 1.974 7.93 7.93 0 00-.294 2.058c0 .672.182 1.204.546 1.596.364.364.868.546 1.512.546.476 0 .966-.07 1.47-.21zm16.21 3.99c-.98 0-1.834-.182-2.562-.546a4.856 4.856 0 01-1.764-1.428c-.448-.644-.784-1.4-1.008-2.268a12.971 12.971 0 01-.294-2.856c0-1.428.14-2.898.42-4.41.308-1.54.868-2.884 1.68-4.032.112-.14.266-.294.462-.462.196-.196.364-.308.504-.336 0-.252.14-.476.42-.672a3.93 3.93 0 01.504-.336c.196-.112.378-.196.546-.252a6.394 6.394 0 012.436-.462c.532 0 1.022.084 1.47.252.448.14.826.308 1.134.504.364.224.7.462 1.008.714a19.827 19.827 0 00-.294-1.722 8.942 8.942 0 00-.336-1.428c-.056-.14-.112-.224-.168-.252-.028-.028-.042-.112-.042-.252 0-.084.028-.154.084-.21-.028-.056-.07-.084-.126-.084a.275.275 0 01-.126-.126c-.392-.728-.924-1.26-1.596-1.596-.644-.364-1.526-.644-2.646-.84-.952-.168-1.652-.294-2.1-.378-.448-.112-.672-.42-.672-.924 0-.056-.042-.14-.126-.252a.968.968 0 01-.084-.336c0-.252.028-.392.084-.42.084-.056.126-.154.126-.294 0-.056.014-.14.042-.252a.977.977 0 01.168-.252c.14-.14.196-.266.168-.378-.028-.112.014-.224.126-.336.224-.168.49-.266.798-.294.336-.028.644-.042.924-.042 1.372 0 2.576.224 3.612.672a7.505 7.505 0 012.646 1.89c.14.14.224.294.252.462.028.168.126.322.294.462a.834.834 0 01.252.294c.056.112.154.224.294.336a.764.764 0 01.252.336c.056.112.112.238.168.378.476.952.812 2.002 1.008 3.15.224 1.12.336 2.296.336 3.528 0 .868-.028 1.82-.084 2.856a30.272 30.272 0 01-.252 3.108 20.234 20.234 0 01-.588 3.108 13.613 13.613 0 01-1.092 2.772c-.112.224-.252.336-.42.336-.084.084-.126.154-.126.21v.126c.028 0 .042.014.042.042-.084.14-.238.21-.462.21a.489.489 0 00.084.126c.056.028.084.07.084.126a.285.285 0 01-.084.21l-.168.168a3.6 3.6 0 01-.672.588c-.252.168-.49.322-.714.462a5.88 5.88 0 00-.546.378c-.112.14-.294.266-.546.378a5.99 5.99 0 01-1.26.378 6.055 6.055 0 01-1.47.168zm.588-3.318c.532 0 .994-.14 1.386-.42.42-.28.77-.644 1.05-1.092.308-.448.56-.952.756-1.512.196-.588.364-1.176.504-1.764.308-1.4.476-2.996.504-4.788-.224-.56-.644-1.008-1.26-1.344-.588-.364-1.288-.546-2.1-.546-.756 0-1.372.252-1.848.756s-.854 1.134-1.134 1.89a12.918 12.918 0 00-.546 2.436 18.542 18.542 0 00-.168 2.352c0 .364.014.714.042 1.05.028.308.084.602.168.882a.634.634 0 00.21.252.75.75 0 01.21.21c.056.112.084.21.084.294.028.084.07.154.126.21a.475.475 0 01.168.168.658.658 0 01.126.168c.084.056.168.126.252.21.112.084.224.154.336.21.14.056.28.126.42.21.14.084.266.14.378.168h.336zm23.81 3.024c-.588 0-1.078-.154-1.47-.462a3.467 3.467 0 01-.966-1.05 5.693 5.693 0 01-.504-1.302 8.57 8.57 0 01-.21-1.218c-.056-.084-.112-.126-.168-.126-.112 0-.252.098-.42.294-.168.224-.364.504-.588.84-.224.308-.532.7-.924 1.176a8.03 8.03 0 01-1.932 1.68c-.756.504-1.456.756-2.1.756-.812 0-1.512-.378-2.1-1.134-.588-.756-.882-1.806-.882-3.15 0-.672.042-1.316.126-1.932.084-.644.182-1.246.294-1.806.112-.56.182-1.148.21-1.764.028-.616.056-1.288.084-2.016v-.63c.028-.196.042-.364.042-.504 0-.056-.014-.098-.042-.126a.468.468 0 01-.126-.336c0-.084-.014-.182-.042-.294v-.21a.793.793 0 00.042-.252c.056-.392.224-.714.504-.966.28-.28.588-.42.924-.42.392 0 .756.126 1.092.378.364.252.658.574.882.966.196.308.322.63.378.966.084.308.126.616.126.924 0 .28-.014.49-.042.63v.462c0 .224-.014.476-.042.756 0 .28-.014.574-.042.882l-.084.84a7.282 7.282 0 01-.084.588l-.21.84c-.056.336-.126.672-.21 1.008-.056.308-.112.588-.168.84a2.95 2.95 0 00-.084.504c0 .224.042.378.126.462.112.084.238.14.378.168.252 0 .63-.182 1.134-.546a9.911 9.911 0 001.596-1.512 11.837 11.837 0 001.512-2.1 8.995 8.995 0 001.008-2.436c.224-.896.448-1.498.672-1.806.224-.336.448-.504.672-.504.56 0 1.092.238 1.596.714.532.476.798 1.176.798 2.1 0 .476-.056.966-.168 1.47-.084.504-.154.938-.21 1.302-.056.308-.098.63-.126.966-.028.336-.042.7-.042 1.092v.714c.028.252.084.434.168.546.056 0 .168-.028.336-.084.252-.112.56-.168.924-.168.196 0 .448.098.756.294l.21.21c.056.056.112.14.168.252v.672c-.028.28-.098.574-.21.882-.112.28-.28.546-.504.798-.196.252-.476.462-.84.63-.336.168-.742.252-1.218.252z" fill="#fff"/><defs><radialGradient id="paint0_radial" cx="0" cy="0" r="1" gradientUnits="userSpaceOnUse" gradientTransform="matrix(41.56472 53.28605 -77.65452 60.57286 94.58 74.739)"><stop stop-color="#407B9A"/><stop offset=".645" stop-color="#3682A1"/><stop offset=".941" stop-color="#C6DDEE" stop-opacity=".8"/><stop offset="1" stop-color="#fff" stop-opacity=".8"/></radialGradient><linearGradient id="paint1_linear" x1="109.393" y1="17.866" x2="112.061" y2="55.759" gradientUnits="userSpaceOnUse"><stop stop-color="#fff"/><stop offset=".475" stop-color="#D4EFFD" stop-opacity=".5"/><stop offset="1" stop-color="#3699D6" stop-opacity="0"/></linearGradient></defs></svg>