<svg width="223" height="164" fill="none" xmlns="http://www.w3.org/2000/svg"><path opacity=".31" d="M170.207 137.26c29.1-12.936 42.4-34.193 47.5-59.43 5.1-25.238-1-42.967-25.4-58.345-14.7-9.317-28.1-8.955-47.5-11.76-35.8-5.427-37.8-5.427-79 .724-16.3 2.443-24.4 7.327-34.1 14.745-7 5.427-17.4 20.172-21.1 28.041-14.5 31.389-4.5 64.496 23.8 97.06 16.3 18.454 75.6 15.288 135.8-11.035z" fill="url(#paint0_radial)" stroke="#fff" stroke-width="6.202" stroke-miterlimit="10"/><path opacity=".45" d="M118.907 18.761c3.3-.995 22.9-3.256 30.5-1.538 5.7 1.357 28.7 5.88 37.1 16.644 6.4 8.323 10.1 11.398 6.9 25.148-.3 1.447-4.6 8.593-8.5 6.784-6.5-3.8-19.9-14.111-42.7-19.087-5.7-1.356-22.1-2.261-28.4-1.809-2.9.272-14.1.09-15.5-1.447-7.9-8.322 14.3-22.705 20.6-24.695z" fill="url(#paint1_linear)"/><path d="M63.122 67.636a.583.583 0 01-.36-.108 4.292 4.292 0 00-.324-.144 1.504 1.504 0 01-.54-.396c-.336-.408-.564-.948-.684-1.62-.12-.672-.18-1.32-.18-1.944 0-.312.012-.684.036-1.116l.072-1.296.072-1.332c.048-.432.084-.816.108-1.152l.36-3.492c.048-.336.072-.732.072-1.188.024-.456.06-.924.108-1.404-.312.552-.6 1.092-.864 1.62-.24.456-.492.924-.756 1.404-.24.456-.456.84-.648 1.152-.408.696-.84 1.428-1.296 2.196-.456.744-.924 1.5-1.404 2.268a2.87 2.87 0 00-.324.576c-.096.24-.192.36-.288.36a2.34 2.34 0 01-.288.504l-.324.324a.982.982 0 00-.252.468 1.703 1.703 0 01-.288.54.627.627 0 01-.18.324 3.2 3.2 0 00-.324.396c-.24.336-.552.768-.936 1.296-.36.528-.636.96-.828 1.296-.336.504-.804.756-1.404.756-.12 0-.252-.012-.396-.036-.12-.024-.24-.06-.36-.108a.527.527 0 01-.252-.18c-.024-.048-.096-.096-.216-.144-.096-.048-.168-.144-.216-.288l-.144-.36c-.144-.432-.216-1.02-.216-1.764 0-.408.012-.972.036-1.692l.072-2.304c.048-.84.072-1.644.072-2.412.024-.768.036-1.38.036-1.836 0-.6-.024-1.164-.072-1.692a39.827 39.827 0 01-.036-1.728v-1.512c.024-.528.036-1.044.036-1.548 0-.288-.024-.588-.072-.9a5.921 5.921 0 01-.072-.9c0-.864.18-1.464.54-1.8.12-.12.288-.204.504-.252.096-.024.24-.036.432-.036.168 0 .384.036.648.108a.798.798 0 00.252.036c.12 0 .204.024.252.072.096.048.156.108.18.18.048.072.132.108.252.108.144 0 .24.096.288.288.048.168.072.348.072.54 0 .312-.012.648-.036 1.008l-.072.972a19.29 19.29 0 00-.036 1.368v4.392c.024.552.036 1.068.036 1.548v1.044c0 .576-.036 1.236-.108 1.98-.048.72-.084 1.392-.108 2.016a289.213 289.213 0 013.384-5.616 268.107 268.107 0 013.312-5.292c.528-.84 1.02-1.632 1.476-2.376a8.24 8.24 0 011.656-1.944c.12-.096.288-.18.504-.252a2.28 2.28 0 01.648-.108c.216 0 .444.036.684.108.264.048.456.156.576.324.072.096.12.288.144.576.024.264.036.528.036.792 0 .576-.024 1.152-.072 1.728-.024.552-.06 1.104-.108 1.656l-.54 7.092c-.072.84-.156 1.716-.252 2.628a30.729 30.729 0 00-.108 2.376c0 .624.036 1.14.108 1.548.072.384.108.768.108 1.152v.396c0 .168-.024.3-.072.396-.048.12-.12.168-.216.144-.096 0-.216.024-.36.072a3.459 3.459 0 01-.252.072.512.512 0 01-.288.072zm17.023-5.832c.144.048.264.168.36.36.168.336.252.732.252 1.188 0 .192-.06.384-.18.576a1.784 1.784 0 01-.324.468c-.24.24-.456.468-.648.684-.192.192-.42.384-.684.576-.264.192-.612.408-1.044.648-.408.264-.84.492-1.296.684a6.425 6.425 0 01-.828.324 3.246 3.246 0 01-.684.216 3.146 3.146 0 01-.684.072c-.24.024-.528.036-.864.036-.432 0-.888-.084-1.368-.252-.456-.144-.78-.276-.972-.396-.792-.48-1.356-1.116-1.692-1.908-.336-.816-.504-1.812-.504-2.988 0-.72.084-1.416.252-2.088.168-.696.384-1.332.648-1.908.288-.6.6-1.14.936-1.62.36-.48.72-.888 1.08-1.224.192-.192.444-.408.756-.648.336-.24.672-.456 1.008-.648.36-.192.744-.36 1.152-.504.408-.168.912-.252 1.512-.252s1.164.228 1.692.684c.552.432.828.96.828 1.584 0 .144-.012.276-.036.396-.024.096-.06.192-.108.288a1.81 1.81 0 01-.252.468 1.04 1.04 0 01-.324.324c-.192.144-.504.216-.936.216-.264 0-.468-.012-.612-.036-.144-.048-.348-.072-.612-.072-.384 0-.816.168-1.296.504-.456.312-.888.732-1.296 1.26a8.549 8.549 0 00-1.044 1.764 4.855 4.855 0 00-.396 1.908c0 .6.108 1.092.324 1.476.24.384.672.576 1.296.576a4.13 4.13 0 001.548-.288 15.74 15.74 0 001.224-.576c.24-.12.528-.288.864-.504.36-.24.672-.444.936-.612.24-.144.432-.288.576-.432.144-.144.288-.252.432-.324a2.052 2.052 0 01.612-.144.62.62 0 01.396.144zm25.003 4.176c-.12.936-.636 1.404-1.548 1.404h-.216a.68.68 0 01-.216.036c-.072 0-.144-.048-.216-.144a.884.884 0 01-.324-.072.58.58 0 00-.252-.072.564.564 0 01-.108-.144.564.564 0 00-.108-.144c-.192-.12-.348-.324-.468-.612a1.891 1.891 0 01-.18-.288 4.292 4.292 0 00-.144-.324 4.122 4.122 0 01-.252-.684 32.92 32.92 0 01-.144-.684 8 8 0 01-.036-.792v-1.404a.231.231 0 00-.18-.18.553.553 0 00-.216-.072c-.048 0-.204.108-.468.324-.24.192-.564.468-.972.828-.384.336-.816.72-1.296 1.152a72.8 72.8 0 00-1.44 1.332l-.684.684c-.24.24-.612.36-1.116.36-.12 0-.324-.036-.612-.108-.264-.072-.444-.144-.54-.216l-.144-.108a10.193 10.193 0 01-.396-.9c-.12-.336-.204-.852-.252-1.548a62.718 62.718 0 01-.072-.684v-1.152c0-.168-.024-.312-.072-.432-.048-.12-.096-.18-.144-.18-.168 0-.288.012-.36.036-.12.048-.228.108-.324.18s-.24.204-.432.396c-.288.264-.612.576-.972.936-.36.336-.768.732-1.224 1.188-.504.504-.972.984-1.404 1.44-.408.432-.696.78-.864 1.044a4.292 4.292 0 00-.144.324l-.108.324c-.048.096-.084.18-.108.252a.452.452 0 01-.108.18.725.725 0 01-.396.216 1.596 1.596 0 01-.504.072c-.408 0-.816-.216-1.224-.648-.384-.432-.576-.996-.576-1.692 0-.336.036-.756.108-1.26.072-.528.156-1.056.252-1.584.096-.552.192-1.092.288-1.62.12-.528.216-.972.288-1.332.072-.336.144-.732.216-1.188.096-.456.18-.9.252-1.332.096-.432.168-.828.216-1.188.072-.36.108-.612.108-.756 0-.192-.036-.456-.108-.792.048-.168.108-.288.18-.36.144-.168.264-.288.36-.36a.67.67 0 01.432-.144 1.735 1.735 0 011.512.864c.216.36.372.744.468 1.152l.036.18c-.048.144-.072.24-.072.288v.144c0 .024.012.048.036.072 0 .528-.048 1.02-.144 1.476-.096.456-.228.996-.396 1.62-.048.24-.108.504-.18.792a3.64 3.64 0 00-.072.576c0 .12.06.18.18.18s.228-.048.324-.144l.252-.252a33.962 33.962 0 011.908-2.16 37.115 37.115 0 011.944-1.944c.24-.216.432-.36.576-.432a.887.887 0 01.504-.144c.576 0 1.068.168 1.476.504.408.312.66.588.756.828.12.336.204.612.252.828.048.216.072.432.072.648 0 .336-.012.72-.036 1.152v1.044c0 .24.036.408.108.504a.527.527 0 00.324.108c.024 0 .108-.048.252-.144.144-.12.3-.252.468-.396.192-.144.384-.3.576-.468a5.84 5.84 0 00.54-.468c.648-.552 1.248-1.068 1.8-1.548.576-.48.996-.828 1.26-1.044.216-.192.396-.312.54-.36.144-.072.336-.108.576-.108.216 0 .432.096.648.288.24.192.456.42.648.684.192.264.348.54.468.828.12.288.18.54.18.756 0 .384-.024.816-.072 1.296-.048.48-.072.936-.072 1.368 0 .168.012.42.036.756.048.312.096.504.144.576.024.264.108.516.252.756.144.216.312.456.504.72l.252.288.144.108c-.024 0-.036.012-.036.036v.18c.024 0 .036.024.036.072v.432zm6.957.9c-.696 0-1.296-.12-1.8-.36a3.552 3.552 0 01-1.188-.936 4.938 4.938 0 01-.72-1.296 4.989 4.989 0 01-.216-1.44c0-.744.144-1.428.432-2.052a9.525 9.525 0 011.044-1.8c.144-.192.312-.408.504-.648.216-.264.432-.504.648-.72.24-.24.468-.456.684-.648.216-.192.408-.324.576-.396.336-.168.576-.324.72-.468.168-.168.396-.252.684-.252.576 0 1.092.144 1.548.432.456.264.84.624 1.152 1.08.312.456.54.972.684 1.548.168.576.252 1.164.252 1.764 0 1.896-.42 3.408-1.26 4.536-.84 1.104-2.088 1.656-3.744 1.656zm.864-7.92c-.096 0-.192.012-.288.036a.345.345 0 00-.252.108 4.386 4.386 0 00-.468.54c-.12.144-.276.384-.468.72a3.86 3.86 0 00-.324.864 5.336 5.336 0 00-.108 1.116c0 .408.108.744.324 1.008.216.24.564.36 1.044.36.288 0 .576-.072.864-.216.288-.168.54-.384.756-.648.216-.264.396-.576.54-.936.144-.36.216-.744.216-1.152 0-.456-.144-.864-.432-1.224-.288-.384-.648-.576-1.08-.576h-.324zm8.853 18.36a.467.467 0 01-.432-.252 2.026 2.026 0 01-.144-.576 4.64 4.64 0 01-.036-.576c0-.912-.036-1.812-.108-2.7a82.516 82.516 0 00-.18-2.592 56.642 56.642 0 00-.18-2.304 29.5 29.5 0 01-.072-1.944c0-.432.024-.756.072-.972.072-.24.156-.42.252-.54a1.04 1.04 0 01.324-.324c.12-.072.252-.168.396-.288.12-.984.228-1.812.324-2.484.096-.672.18-1.188.252-1.548.648-3.144 1.524-5.472 2.628-6.984 1.128-1.512 2.472-2.268 4.032-2.268.744 0 1.392.18 1.944.54.576.36 1.056.84 1.44 1.44.048.096.108.228.18.396.072.144.108.252.108.324.072.096.144.228.216.396.096.168.168.384.216.648.048.216.084.444.108.684.024.24.036.48.036.72 0 1.08-.288 2.076-.864 2.988a9.455 9.455 0 01-2.124 2.376 14.579 14.579 0 01-2.88 1.8 19.75 19.75 0 01-2.952 1.116c-.024 1.56-.036 3.024-.036 4.392 0 1.368-.036 2.604-.108 3.708-.048 1.128-.156 2.088-.324 2.88-.144.792-.36 1.38-.648 1.764a.984.984 0 01-.54.36 1.397 1.397 0 01-.18.072.592.592 0 01-.18.036.527.527 0 01-.324-.108 1.43 1.43 0 00-.216-.18zm7.992-23.112c-.264-.264-.6-.396-1.008-.396-.408 0-.804.192-1.188.576-.384.384-.756.924-1.116 1.62-.336.672-.648 1.476-.936 2.412a24.965 24.965 0 00-.72 3.06c0 .024-.012.048-.036.072v.036c1.776-.6 3.144-1.404 4.104-2.412s1.44-2.172 1.44-3.492c0-.144-.024-.288-.072-.432l-.144-.432a.909.909 0 01-.108-.216c0-.096-.024-.168-.072-.216l-.144-.18zm16.731 12.996c-.504 0-.924-.132-1.26-.396a2.972 2.972 0 01-.828-.9 4.88 4.88 0 01-.432-1.116 7.345 7.345 0 01-.18-1.044c-.048-.072-.096-.108-.144-.108-.096 0-.216.084-.36.252-.144.192-.312.432-.504.72-.192.264-.456.6-.792 1.008a6.883 6.883 0 01-1.656 1.44c-.648.432-1.248.648-1.8.648-.696 0-1.296-.324-1.8-.972-.504-.648-.756-1.548-.756-2.7 0-.576.036-1.128.108-1.656.072-.552.156-1.068.252-1.548s.156-.984.18-1.512c.024-.528.048-1.104.072-1.728v-.54c.024-.168.036-.312.036-.432 0-.048-.012-.084-.036-.108a.4.4 0 01-.108-.288c0-.072-.012-.156-.036-.252v-.18a.68.68 0 00.036-.216 1.33 1.33 0 01.432-.828c.24-.24.504-.36.792-.36.336 0 .648.108.936.324.312.216.564.492.756.828.168.264.276.54.324.828.072.264.108.528.108.792 0 .24-.012.42-.036.54v.396c0 .192-.012.408-.036.648 0 .24-.012.492-.036.756l-.072.72a6.242 6.242 0 01-.072.504l-.18.72c-.048.288-.108.576-.18.864-.048.264-.096.504-.144.72-.048.216-.072.36-.072.432 0 .192.036.324.108.396.096.072.204.12.324.144.216 0 .54-.156.972-.468a8.495 8.495 0 001.368-1.296c.48-.528.912-1.128 1.296-1.8a7.71 7.71 0 00.864-2.088c.192-.768.384-1.284.576-1.548.192-.288.384-.432.576-.432.48 0 .936.204 1.368.612.456.408.684 1.008.684 1.8 0 .408-.048.828-.144 1.26-.072.432-.132.804-.18 1.116-.048.264-.084.54-.108.828-.024.288-.036.6-.036.936v.612c.024.216.072.372.144.468.048 0 .144-.024.288-.072.216-.096.48-.144.792-.144.168 0 .384.084.648.252l.18.18c.048.048.096.12.144.216v.576a3.13 3.13 0 01-.18.756c-.096.24-.24.468-.432.684-.168.216-.408.396-.72.54-.288.144-.636.216-1.044.216zm13.306-10.548c0-.12-.012-.24-.036-.36 0-.144-.024-.276-.072-.396a2.468 2.468 0 00-.468-.036 3.823 3.823 0 00-.54-.036c-.288 0-.612.036-.972.108-.36.048-.696.144-1.008.288-.288.144-.54.348-.756.612-.192.24-.288.564-.288.972 0 .288.084.528.252.72.192.168.408.312.648.432.24.096.492.168.756.216.264.048.468.072.612.072h.828a8.43 8.43 0 00.9-.108l.144-2.484zm-.576 8.46c.024-.312.06-.708.108-1.188.072-.504.132-1.248.18-2.232-.888 0-1.704.324-2.448.972a.637.637 0 01-.288.18.637.637 0 01-.18.288l-.468.468c-.096.12-.216.276-.36.468-.6.792-1.116 1.644-1.548 2.556-.144.312-.348.516-.612.612-.264.12-.576.18-.936.18-.264 0-.564-.036-.9-.108-.336-.072-.564-.24-.684-.504a4.292 4.292 0 01-.144-.324.714.714 0 01-.072-.324c0-.192.084-.384.252-.576.192-.192.372-.408.54-.648.264-.408.54-.804.828-1.188.288-.408.54-.744.756-1.008.048-.048.132-.12.252-.216.144-.12.228-.204.252-.252.168 0 .252-.108.252-.324 0-.024.048-.048.144-.072a.833.833 0 00.18-.108l.18-.288a1.43 1.43 0 00.18-.216 2.35 2.35 0 01.252-.216c-.696-.216-1.26-.588-1.692-1.116a3.01 3.01 0 01-.648-1.908c0-1.608.54-2.808 1.62-3.6 1.08-.792 2.64-1.188 4.68-1.188.72 0 1.308.012 1.764.036.48.024.864.072 1.152.144a.82.82 0 01.324.18l.288.144c.12.072.18.156.18.252.024.072.06.168.108.288.048.144.072.312.072.504v.648c0 .36-.024.852-.072 1.476-.048.624-.108 1.356-.18 2.196-.096.984-.192 2.016-.288 3.096a48.278 48.278 0 00-.18 2.988c0 .744-.06 1.296-.18 1.656-.048.072-.084.108-.108.108-.024 0-.06.024-.108.072a.244.244 0 01-.18.072c-.048 0-.096.024-.144.072a.58.58 0 01-.252.072.4.4 0 01-.18.036c-.12 0-.252-.024-.396-.072a2.851 2.851 0 00-.468-.036c-.192 0-.336-.024-.432-.072-.096-.024-.18-.132-.252-.324-.144-.096-.216-.336-.216-.72v-.36c.024-.168.048-.36.072-.576zM57.326 120.168a.83.83 0 00-.288.072.479.479 0 01-.288.108c-.096.096-.192.18-.288.252-.096.072-.252.132-.468.18-.288.144-.6.264-.936.36a4.2 4.2 0 01-1.152.144c-.768 0-1.428-.144-1.98-.432a3.907 3.907 0 01-1.296-1.116 5.061 5.061 0 01-.756-1.476 6.274 6.274 0 01-.216-1.584c0-.456.024-.876.072-1.26.048-.408.132-.816.252-1.224.048-.192.096-.36.144-.504.048-.144.108-.312.18-.504l.36-.864a2.49 2.49 0 00.072-.288c.048-.12.108-.24.18-.36.096-.24.228-.48.396-.72.504-.84 1.08-1.488 1.728-1.944.648-.456 1.32-.684 2.016-.684.024.024.048.036.072.036a.32.32 0 01.144.036.276.276 0 00.108.036c.048 0 .084.012.108.036a.244.244 0 00.18.072c0 .048.036.12.108.216.432.12.888.384 1.368.792.504.384.96.852 1.368 1.404a7.758 7.758 0 011.008 1.872c.264.672.396 1.356.396 2.052 0 1.08-.216 2.064-.648 2.952a6.581 6.581 0 01-1.692 2.16l-.252.18zm-2.268-8.28c-.048.048-.084.072-.108.072a1.397 1.397 0 01-.18.072.32.32 0 01-.144.036c-.12.024-.228.036-.324.036s-.204.06-.324.18a.645.645 0 00-.324.216c-.072.072-.204.252-.396.54-.336.36-.564.852-.684 1.476-.12.6-.18 1.176-.18 1.728 0 .6.156 1.068.468 1.404.312.312.744.468 1.296.468.912 0 1.692-.264 2.34-.792.672-.552 1.008-1.368 1.008-2.448 0-.816-.228-1.512-.684-2.088-.432-.576-.996-.9-1.692-.972l-.072.072zm19.743 2.916c.144.048.264.168.36.36.168.336.252.732.252 1.188 0 .192-.06.384-.18.576a1.784 1.784 0 01-.324.468c-.24.24-.456.468-.648.684-.192.192-.42.384-.684.576-.264.192-.612.408-1.044.648-.408.264-.84.492-1.296.684a6.425 6.425 0 01-.828.324 3.246 3.246 0 01-.684.216 3.146 3.146 0 01-.684.072c-.24.024-.528.036-.864.036-.432 0-.888-.084-1.368-.252-.456-.144-.78-.276-.972-.396-.792-.48-1.356-1.116-1.692-1.908-.336-.816-.504-1.812-.504-2.988 0-.72.084-1.416.252-2.088.168-.696.384-1.332.648-1.908.288-.6.6-1.14.936-1.62.36-.48.72-.888 1.08-1.224.192-.192.444-.408.756-.648.336-.24.672-.456 1.008-.648.36-.192.744-.36 1.152-.504.408-.168.912-.252 1.512-.252s1.164.228 1.692.684c.552.432.828.96.828 1.584 0 .144-.012.276-.036.396-.024.096-.06.192-.108.288a1.81 1.81 0 01-.252.468 1.04 1.04 0 01-.324.324c-.192.144-.504.216-.936.216-.264 0-.468-.012-.612-.036-.144-.048-.348-.072-.612-.072-.384 0-.816.168-1.296.504-.456.312-.888.732-1.296 1.26a8.549 8.549 0 00-1.044 1.764 4.855 4.855 0 00-.396 1.908c0 .6.108 1.092.324 1.476.24.384.672.576 1.296.576a4.13 4.13 0 001.548-.288 15.74 15.74 0 001.224-.576c.24-.12.528-.288.864-.504.36-.24.672-.444.936-.612.24-.144.432-.288.576-.432.144-.144.288-.252.432-.324a2.052 2.052 0 01.612-.144.62.62 0 01.396.144zm8.047 5.58a10 10 0 01-.828-.036 4.558 4.558 0 01-.683-.108h-.073c-.023 0-.047-.012-.072-.036a4.486 4.486 0 00-.935-.108c-.769 0-1.297-.264-1.585-.792v-.684a3.557 3.557 0 01-.035-.612v-3.024c.023-.552.06-1.104.108-1.656.023-.552.06-1.128.108-1.728.072-.624.132-1.212.18-1.764a45.31 45.31 0 01.144-1.44 37.8 37.8 0 00.143-.9v-.504c0-.096.06-.18.18-.252.025-.024.037-.06.037-.108a.32.32 0 01.035-.144.512.512 0 00.072-.288c0-.24.108-.372.325-.396.216-.048.384-.072.504-.072.047 0 .12-.012.216-.036.12-.024.204-.036.252-.036.215 0 .42.06.611.18.192.12.384.216.576.288.36-.12.709-.204 1.044-.252a6.66 6.66 0 01.937-.072c.696 0 1.368.024 2.016.072.671.048 1.26.168 1.763.36.504.192.912.492 1.224.9.313.408.469.972.469 1.692 0 .456-.109.984-.325 1.584-.216.576-.767 1.2-1.656 1.872.649.264 1.189.612 1.62 1.044.433.408.648 1.032.648 1.872 0 1.08-.323 2.04-.971 2.88-.12.144-.265.288-.433.432a2.06 2.06 0 01-.611.288c-.168.336-.528.624-1.08.864-1.105.48-2.412.72-3.924.72zm-.18-6.228c-.264 0-.468.012-.612.036-.12 0-.287.012-.504.036a5.263 5.263 0 00-.036.648 5.263 5.263 0 00-.035.648v1.296c0 .192.023.384.072.576.36.072.876.108 1.547.108.145 0 .337-.012.577-.036a8.96 8.96 0 00.791-.108c.12-.024.252-.048.397-.072a1.89 1.89 0 00.431-.108l.216-.108c.12-.072.204-.12.252-.144a.553.553 0 01.217-.072.909.909 0 00.216-.108c.096-.072.144-.144.144-.216.024-.072.072-.168.144-.288l.144-.36c.047-.144.072-.288.072-.432 0-.576-.288-.936-.864-1.08-.577-.144-1.633-.216-3.169-.216zm1.62-5.652c-.263 0-.551.012-.864.036-.312.024-.744.084-1.296.18-.096.312-.18.708-.252 1.188-.047.456-.108 1.056-.18 1.8h.684c.505 0 .996-.036 1.477-.108.48-.096.912-.228 1.296-.396.383-.192.683-.42.9-.684.24-.288.36-.624.36-1.008 0-.36-.216-.612-.648-.756-.409-.168-.9-.252-1.477-.252zM97.27 119.88c-.696 0-1.296-.12-1.8-.36a3.552 3.552 0 01-1.188-.936 4.938 4.938 0 01-.72-1.296 4.989 4.989 0 01-.216-1.44c0-.744.144-1.428.432-2.052a9.525 9.525 0 011.044-1.8c.144-.192.312-.408.504-.648.216-.264.432-.504.648-.72.24-.24.468-.456.684-.648.216-.192.408-.324.576-.396.336-.168.576-.324.72-.468.168-.168.396-.252.684-.252.576 0 1.092.144 1.548.432.456.264.84.624 1.152 1.08.312.456.54.972.684 1.548.168.576.252 1.164.252 1.764 0 1.896-.42 3.408-1.26 4.536-.84 1.104-2.088 1.656-3.744 1.656zm.864-7.92c-.096 0-.192.012-.288.036a.345.345 0 00-.252.108 4.386 4.386 0 00-.468.54c-.12.144-.276.384-.468.72a3.86 3.86 0 00-.324.864 5.336 5.336 0 00-.108 1.116c0 .408.108.744.324 1.008.216.24.564.36 1.044.36.288 0 .576-.072.864-.216.288-.168.54-.384.756-.648.216-.264.396-.576.54-.936.144-.36.216-.744.216-1.152 0-.456-.144-.864-.432-1.224-.288-.384-.648-.576-1.08-.576h-.324zm10.329 4.608h-1.656a14.934 14.934 0 00-.612-.072c-.384-.048-.672-.144-.864-.288-.168-.168-.3-.36-.396-.576a2.54 2.54 0 00-.18-.252v-.144c.024-.024.036-.06.036-.108-.024-.024-.036-.06-.036-.108a.58.58 0 01.072-.252c-.024-.024-.036-.06-.036-.108v-.108c.024-.024.036-.06.036-.108 0-.024-.012-.048-.036-.072v-.072c.072-.312.264-.576.576-.792.336-.216.672-.324 1.008-.324.384 0 .744.036 1.08.108.336.048.636.072.9.072.024-.96.156-1.86.396-2.7.24-.864.576-1.608 1.008-2.232a4.75 4.75 0 011.584-1.512c.648-.384 1.392-.576 2.232-.576.192 0 .36.024.504.072.168.024.276.06.324.108l.576.216.36.144c.144.048.252.12.324.216.144.096.264.216.36.36.12.144.24.3.36.468.312.48.468 1.068.468 1.764 0 .576-.144 1.164-.432 1.764a7.384 7.384 0 01-1.08 1.728 9.648 9.648 0 01-1.62 1.476c-.6.432-1.236.804-1.908 1.116.432.48 1.02.72 1.764.72.624 0 1.164-.036 1.62-.108a7.162 7.162 0 011.476-.144c.144 0 .288.024.432.072.168.024.288.048.36.072 0 .048.048.108.144.18.096.072.18.18.252.324a.32.32 0 01.036.144.32.32 0 01-.036.144c-.024.024-.036.06-.036.108s.012.084.036.108c-.048.048-.072.144-.072.288 0 .096.012.168.036.216-.048.048-.108.12-.18.216a.639.639 0 00-.072.288c0 .072.012.12.036.144-.096.048-.384.252-.864.612a1.8 1.8 0 01-.252.18l-.216.108a.4.4 0 01-.18.036.32.32 0 00-.144.036c-.096 0-.156.012-.18.036-.024 0-.048-.012-.072-.036h-.109c0 .024-.012.036-.036.036l-.144-.072h-.576a3.459 3.459 0 01-.252.072 1.515 1.515 0 01-.36.036c-.12.024-.3.036-.54.036-.912 0-1.812-.264-2.7-.792-.864-.528-1.536-1.284-2.016-2.268h-.504zm5.148-6.984a.501.501 0 00-.216-.036c-.336 0-.66.18-.972.54a4.934 4.934 0 00-.72 1.116c-.096.24-.192.504-.288.792a8.858 8.858 0 00-.18.972 2.31 2.31 0 00.9-.288c.312-.192.6-.408.864-.648.288-.264.516-.54.684-.828.192-.312.288-.624.288-.936 0-.24-.072-.432-.216-.576l-.144-.108zm18.566 11.088c-.144 0-.276-.012-.396-.036-.12-.024-.24-.06-.36-.108a1.409 1.409 0 01-.324-.18 1.43 1.43 0 00-.216-.18c-.24 0-.42-.192-.54-.576a2.442 2.442 0 01-.216-.792v-.864c0-.312.012-.612.036-.9.024-.288.036-.588.036-.9v-.936c.024-.312.048-.672.072-1.08-.264.024-.492.048-.684.072h-.324l-4.284.252c-.048.408-.084.804-.108 1.188v.864c0 .48.012.876.036 1.188.048.312.072.624.072.936 0 .696-.084 1.212-.252 1.548-.048.168-.144.252-.288.252l-.18.18c-.048.048-.12.072-.216.072a1.73 1.73 0 01-.54-.072 2.424 2.424 0 00-.396-.036h-.144a.32.32 0 01-.144.036.639.639 0 01-.288-.072 1.18 1.18 0 01-.18-.144.347.347 0 01-.144-.18.387.387 0 00-.072-.216c-.072 0-.132-.06-.18-.18a1.832 1.832 0 01-.036-.36v-.396c.024-.144.048-.312.072-.504.168-1.8.288-3.336.36-4.608.096-1.296.144-2.22.144-2.772 0-.576-.024-1.128-.072-1.656a31.13 31.13 0 01-.036-1.188c0-.264.036-.432.108-.504 0-.024-.012-.048-.036-.072v-.216c.024-.024.036-.048.036-.072 0-.048.012-.156.036-.324.048-.168.12-.336.216-.504.12-.192.276-.36.468-.504.216-.144.48-.216.792-.216.648 0 1.08.132 1.296.396.216.264.324.66.324 1.188 0 .072-.012.156-.036.252V108l-.324 1.98c0 .168-.012.372-.036.612 0 .216-.024.6-.072 1.152h1.044c.36-.024.696-.036 1.008-.036.312-.024.576-.036.792-.036.216-.024.36-.036.432-.036h.72c.432-.024.888-.048 1.368-.072.048-.456.072-.948.072-1.476.024-.528.06-1.116.108-1.764a2.007 2.007 0 01-.108-.504 4.876 4.876 0 01-.036-.504c0-.168-.012-.324-.036-.468a2.424 2.424 0 01-.036-.396c0-.168.048-.324.144-.468.072-.12.156-.18.252-.18a.803.803 0 00.288-.108 1.24 1.24 0 01.792-.288c.24 0 .408.012.504.036.192.048.312.132.36.252.072.096.204.216.396.36.12 0 .192.132.216.396.048.264.072.504.072.72 0 .528-.036 1.164-.108 1.908-.048.72-.108 1.512-.18 2.376h.108a.32.32 0 01.144-.036h.108a.407.407 0 00.144.144c.096.048.144.168.144.36 0 .168.012.312.036.432a.714.714 0 01.072.324c0 .192-.048.384-.144.576a2.032 2.032 0 01-.324.432.982.982 0 01-.468.252 41.932 41.932 0 00-.108 2.988c0 .6.06 1.104.18 1.512.12.384.18.828.18 1.332a.67.67 0 01-.144.432c-.072.12-.168.18-.288.18-.048.12-.144.192-.288.216-.12.048-.252.072-.396.072zm17.642-1.872c-.048.12-.12.24-.216.36a1.857 1.857 0 01-.36.396 5.263 5.263 0 01-.54.36.815.815 0 01-.54.18 1.27 1.27 0 01-.504-.108c-.24-.072-.408-.24-.504-.504a2.325 2.325 0 01-.144-.864v-.36c.024-.12.048-.252.072-.396.048-.288.108-.624.18-1.008.072-.408.144-.78.216-1.116a19.9 19.9 0 01.252-1.08c.072-.264.108-.528.108-.792 0-.096-.024-.144-.072-.144-.096 0-.204.084-.324.252a7.07 7.07 0 01-.504.72c-.36.48-.744.936-1.152 1.368-.408.432-.924.924-1.548 1.476-.576.504-1.188.972-1.836 1.404a3.91 3.91 0 01-2.124.612c-.72 0-1.284-.276-1.692-.828a3.426 3.426 0 01-.576-1.944c0-.24.012-.516.036-.828.048-.312.084-.636.108-.972.048-.336.096-.648.144-.936.048-.312.072-.564.072-.756.048-.312.12-.72.216-1.224s.144-.924.144-1.26l.18-1.224c.048-.24.072-.456.072-.648.024-.216.06-.408.108-.576.024-.096.036-.18.036-.252v-.252c0-.192.048-.3.144-.324.144-.12.336-.216.576-.288.168-.072.324-.096.468-.072.144 0 .24-.024.288-.072.264 0 .516.168.756.504.24.336.384.636.432.9.024.072.036.18.036.324v.432c0 .408-.024.804-.072 1.188-.048.384-.108.792-.18 1.224l-.18.72c-.048.288-.108.576-.18.864-.048.288-.096.552-.144.792a4.802 4.802 0 00-.036.468c0 .144.024.276.072.396.072.096.204.144.396.144.216 0 .54-.156.972-.468a16.56 16.56 0 001.368-1.116c.504-.456.984-.924 1.44-1.404.48-.504.864-.948 1.152-1.332.456-.6.828-1.092 1.116-1.476.312-.384.588-.684.828-.9.24-.24.6-.36 1.08-.36.24 0 .444.096.612.288.192.192.348.384.468.576.192.312.288.66.288 1.044 0 .36.024.732.072 1.116a.639.639 0 01-.072.288.639.639 0 00-.072.288c-.024.264-.048.576-.072.936-.024.36-.048.756-.072 1.188a52.266 52.266 0 01-.36 3.096c-.096.744-.228 1.356-.396 1.836l-.036.144zm11.109-5.472c.264 0 .528-.024.792-.072.264-.072.492-.144.684-.216l.216-2.304c0-.624-.18-1.068-.54-1.332a2.073 2.073 0 00-1.26-.396c-.264 0-.552.024-.864.072a1.913 1.913 0 00-.792.324c-.24.144-.444.36-.612.648-.144.264-.216.624-.216 1.08 0 .432.072.792.216 1.08.144.288.336.516.576.684.24.168.516.288.828.36.312.048.636.072.972.072zm2.448 7.2c-.192 0-.348-.024-.468-.072a2.375 2.375 0 00-.396-.144 1.314 1.314 0 01-.576-.396c-.144-.192-.216-.456-.216-.792s.036-.768.108-1.296c.072-.528.18-1.332.324-2.412-.024.048-.168.096-.432.144a.803.803 0 00-.288.108c-.072.048-.18.108-.324.18a.67.67 0 00-.432.144c-.12.096-.312.24-.576.432-.336.192-.6.408-.792.648a63.01 63.01 0 00-.72.828c-.24.264-.48.552-.72.864-.216.288-.444.6-.684.936-.264.336-.564.552-.9.648-.336.12-.684.18-1.044.18-.096 0-.216-.024-.36-.072-.12-.048-.192-.12-.216-.216 0-.072-.072-.168-.216-.288a.863.863 0 01-.288-.432 1.613 1.613 0 01-.072-.432c0-.192.036-.396.108-.612.072-.216.204-.456.396-.72.504-.6.984-1.104 1.44-1.512.456-.408.96-.816 1.512-1.224a2.902 2.902 0 01-.468-.252 4.384 4.384 0 01-.36-.324.903.903 0 01-.252-.288.724.724 0 00-.216-.36c-.24-.24-.408-.468-.504-.684-.288-.6-.432-1.2-.432-1.8 0-1.488.468-2.64 1.404-3.456.936-.84 2.124-1.26 3.564-1.26.768 0 1.416.06 1.944.18.552.12 1.008.372 1.368.756a.863.863 0 01.432-.288c.168-.072.348-.108.54-.108.144 0 .252.036.324.108.096.072.204.132.324.18.12.048.204.084.252.108.048.024.096.096.144.216.048.12.072.24.072.36v.432c0 .264-.012.492-.036.684a6.61 6.61 0 01-.108.612 45.595 45.595 0 00-.54 4.86 82.809 82.809 0 00-.144 4.788c0 .12-.024.228-.072.324-.024.12-.108.18-.252.18 0 .192-.12.336-.36.432-.216.072-.48.108-.792.108z" fill="#fff"/><defs><radialGradient id="paint0_radial" cx="0" cy="0" r="1" gradientUnits="userSpaceOnUse" gradientTransform="rotate(-105.582 85.405 -4.478) scale(80.8847 114.184)"><stop stop-color="#407B9A"/><stop offset=".645" stop-color="#3682A1"/><stop offset=".941" stop-color="#C6DDEE"/><stop offset="1" stop-color="#fff"/></radialGradient><linearGradient id="paint1_linear" x1="156.04" y1="24.042" x2="137.09" y2="67.311" gradientUnits="userSpaceOnUse"><stop stop-color="#fff"/><stop offset=".475" stop-color="#D4EFFD" stop-opacity=".5"/><stop offset="1" stop-color="#3699D6" stop-opacity="0"/></linearGradient></defs></svg>