<svg width="187" height="167" fill="none" xmlns="http://www.w3.org/2000/svg"><path opacity=".3" d="M15.692 122.256c8.105 17.432 33.394 32.957 57.182 35.59 23.863 2.724 47.276-4.63 66.186-19.52 11.481-8.898 23.488-22.789 29.191-34.501 10.656-21.336 14.258-28.872 6.829-49.391-3.377-9.17-10.281-15.163-16.059-20.52-4.202-4.176-25.139-18.612-32.493-20.7-28.44-8.444-56.43-6.446-81.194 15.707C13.89 56.794-1.042 86.847 15.692 122.256z" fill="url(#paint0_radial)" stroke="#fff" stroke-width="15.857" stroke-miterlimit="10"/><path opacity=".39" d="M126.9 26.759c2.117-.363 12.85.544 16.402 2.9 2.646 1.722 13.757 8.519 15.722 18.216 1.36 7.34 2.645 10.331-2.343 20.753-.529 1.088-4.535 6.072-5.972 4.079-2.418-3.807-7.18-13.957-17.989-20.935-2.645-1.722-11.035-4.894-14.512-5.347-1.512-.181-7.559-1.722-7.937-3.263-2.494-7.34 12.925-15.86 16.629-16.403z" fill="url(#paint1_linear)"/><path d="M38.036 79.87A18.407 18.407 0 0137 77.996a133.42 133.42 0 01-.924-2.044 1.24 1.24 0 00-.112-.224c-.019-.056-.075-.084-.168-.084a1.128 1.128 0 00-.112.336l-.14.56c-.037.205-.084.43-.14.672-.037.224-.065.42-.084.588l-.28 2.072-.28 2.408c-.075.802-.15 1.53-.224 2.184a18.516 18.516 0 00-.084 1.232c0 .261-.037.485-.112.672a1.762 1.762 0 01-.196.42.6.6 0 01-.336.196c-.13.056-.299.102-.504.14a.764.764 0 00-.168.028.53.53 0 01-.168.028c-.205 0-.392-.112-.56-.336a1.11 1.11 0 00-.14-.168 1.1 1.1 0 01-.084-.224 2.02 2.02 0 01-.112-.42v-.336a.982.982 0 01-.028-.28v-.168c0-.075.01-.15.028-.224l.112-.924c.037-.262.065-.56.084-.896.019-.336.047-.663.084-.98.037-.336.065-.69.084-1.064.019-.374.037-.728.056-1.064.019-.355.028-.682.028-.98.019-.299.037-.56.056-.784v-.784c.019-.318.028-.635.028-.952.019-.318.028-.616.028-.896v-.672c0-.299-.01-.523-.028-.672a4.853 4.853 0 00-.056-.392v-.168c0-.075.01-.15.028-.224l.112-.168c.037-.038.065-.056.084-.056.019 0 .037-.019.056-.056a.55.55 0 01.196-.14c.056-.056.112-.084.168-.084.112 0 .196.01.252.028l.392.448c.187-.467.439-.924.756-1.372.336-.467.681-.766 1.036-.896h.028c.019-.019.047-.028.084-.028.019 0 .037.01.056.028h.084c.299 0 .532.074.7.224.187.13.355.214.504.252.13.186.27.448.42.784.15.336.299.7.448 1.092.15.392.308.802.476 1.232.187.43.373.821.56 1.176.112.205.233.457.364.756.15.298.299.616.448.952.168.317.327.625.476.924.168.298.308.55.42.756.075-.15.187-.402.336-.756.168-.355.345-.756.532-1.204.205-.448.401-.906.588-1.372.205-.486.392-.934.56-1.344.243-.598.504-1.139.784-1.624.28-.504.523-.83.728-.98.205-.15.41-.224.616-.224.261 0 .523.065.784.196.261.13.467.326.616.588.15.298.261.662.336 1.092.075.41.159.84.252 1.288.093.485.196 1.101.308 1.848a331.38 331.38 0 01.644 4.508c.093.69.177 1.222.252 1.596.093.522.187.97.28 1.344.112.373.224.71.336 1.008.112.28.224.55.336.812l.42.784c.093.093.187.177.28.252.112.093.215.158.308.196.037.13.112.27.224.42.13.15.252.354.364.616a.26.26 0 01-.028.112v.308a.46.46 0 01.028.14.19.19 0 01-.056.14.528.528 0 010 .336v.224a.871.871 0 01-.056.168.442.442 0 01-.084.112.248.248 0 00-.028.112c0 .056-.01.093-.028.112a.25.25 0 01-.112.028c-.037 0-.065.018-.084.056a.76.76 0 01-.56.224c-.205 0-.457-.056-.756-.168a8.217 8.217 0 01-.784-.336.41.41 0 01-.14-.196.409.409 0 00-.14-.196l-.14-.14a.482.482 0 01-.14-.14 3.49 3.49 0 00-.336-.448 1.18 1.18 0 01-.28-.42 9.09 9.09 0 01-.392-1.316 24.76 24.76 0 00-.42-1.54l-.252-.98c-.13-.542-.243-1.13-.336-1.764a640.568 640.568 0 01-.448-4.032 43.51 43.51 0 00-.252-1.904c-.037-.15-.065-.224-.084-.224-.037 0-.065.028-.084.084 0 .037-.019.074-.056.112-.168.317-.373.71-.616 1.176a53.07 53.07 0 01-.728 1.456c-.243.485-.495.97-.756 1.456-.261.466-.504.858-.728 1.176-.168.261-.364.438-.588.532-.205.074-.41.112-.616.112-.168 0-.355-.066-.56-.196a1.806 1.806 0 01-.532-.532l-.336-.532a10.719 10.719 0 00-.28-.476 6.078 6.078 0 00-.336-.532l-.42-.7zm16.645 7.533c-.541 0-1.008-.094-1.4-.28a2.764 2.764 0 01-.924-.728 3.846 3.846 0 01-.56-1.008 3.88 3.88 0 01-.168-1.12c0-.579.112-1.11.336-1.596a7.41 7.41 0 01.812-1.4 20.5 20.5 0 01.392-.504c.168-.206.336-.392.504-.56.187-.187.364-.355.532-.504.168-.15.318-.252.448-.308.261-.13.448-.252.56-.364.13-.13.308-.196.532-.196.448 0 .85.112 1.204.336.355.205.654.485.896.84a3.7 3.7 0 01.532 1.204c.13.448.196.905.196 1.372 0 1.474-.327 2.65-.98 3.528-.653.858-1.624 1.288-2.912 1.288zm.672-6.16a.92.92 0 00-.224.028.269.269 0 00-.196.084c-.15.15-.27.29-.364.42a4.199 4.199 0 00-.364.56 3.005 3.005 0 00-.252.672 4.15 4.15 0 00-.084.868c0 .317.084.578.252.784.168.186.439.28.812.28.224 0 .448-.056.672-.168.224-.13.42-.299.588-.504.168-.206.308-.448.42-.728a2.39 2.39 0 00.168-.896c0-.355-.112-.672-.336-.952-.224-.299-.504-.448-.84-.448h-.252zm6.886 14.28a.364.364 0 01-.336-.196 1.577 1.577 0 01-.112-.448 3.623 3.623 0 01-.028-.448c0-.71-.028-1.41-.084-2.1a64.065 64.065 0 00-.14-2.016 43.99 43.99 0 00-.14-1.792 22.967 22.967 0 01-.056-1.512c0-.336.018-.588.056-.756.056-.187.121-.327.196-.42a.81.81 0 01.252-.252c.093-.056.196-.13.308-.224.093-.766.177-1.41.252-1.932.074-.523.14-.924.196-1.204.504-2.446 1.185-4.256 2.044-5.432.877-1.176 1.922-1.764 3.136-1.764.578 0 1.082.14 1.512.42.448.28.821.653 1.12 1.12.037.074.084.177.14.308a.645.645 0 01.084.252c.056.074.112.177.168.308.074.13.13.298.168.504.037.168.065.345.084.532.018.186.028.373.028.56a4.27 4.27 0 01-.672 2.324 7.39 7.39 0 01-1.652 1.848 11.339 11.339 0 01-2.24 1.4 15.37 15.37 0 01-2.296.868 223.636 223.636 0 00-.028 3.416c0 1.064-.028 2.025-.084 2.884-.038.877-.122 1.624-.252 2.24-.112.616-.28 1.073-.504 1.372a.765.765 0 01-.42.28 1.099 1.099 0 01-.14.056.462.462 0 01-.14.028.41.41 0 01-.252-.084 1.11 1.11 0 00-.168-.14zm6.216-17.976a1.062 1.062 0 00-.784-.308c-.318 0-.626.15-.924.448-.299.298-.588.718-.868 1.26a12.34 12.34 0 00-.728 1.876c-.224.728-.41 1.521-.56 2.38 0 .018-.01.037-.028.056v.028c1.381-.467 2.445-1.092 3.192-1.876.746-.784 1.12-1.69 1.12-2.716 0-.112-.019-.224-.056-.336l-.112-.336a.71.71 0 01-.084-.168c0-.075-.019-.13-.056-.168l-.112-.14zm9.317 10.836c-.952 0-1.801-.224-2.548-.672-.728-.43-1.241-1.139-1.54-2.128a7.172 7.172 0 01-.28-1.428 3.523 3.523 0 01-.224-.28c-.019-.075-.037-.122-.056-.14-.019 0-.028-.01-.028-.028 0-.038-.028-.056-.084-.056-.037 0-.065-.028-.084-.084v-.336a.528.528 0 00.028-.168c0-.019.01-.028.028-.028a.326.326 0 00.084-.056l.392-.056a6.962 6.962 0 01.616-1.988 9.616 9.616 0 011.26-1.904c.13-.168.327-.364.588-.588a5.61 5.61 0 01.896-.672 6.71 6.71 0 011.092-.56 2.965 2.965 0 011.176-.252c.635 0 1.195.224 1.68.672.485.43.728 1.008.728 1.736 0 .205-.028.43-.084.672a3.619 3.619 0 01-.168.644 4.397 4.397 0 01-.42.84 6.574 6.574 0 01-.56.84 6.434 6.434 0 01-.84.896c-.28.242-.597.485-.952.728-.43.261-.868.494-1.316.7a3.145 3.145 0 01-1.316.308c0 .261.065.466.196.616.13.15.29.27.476.364.205.074.43.121.672.14.243.018.476.028.7.028.728 0 1.25-.075 1.568-.224.336-.168.579-.252.728-.252.15 0 .243.018.28.056a.514.514 0 01.196.308c.019.093.028.205.028.336v.196c0 .112-.019.242-.056.392a1.838 1.838 0 01-.14.42c-.261.354-.644.606-1.148.756a4.761 4.761 0 01-1.568.252zm-1.988-5.32c.355-.075.737-.234 1.148-.476.43-.262.821-.55 1.176-.868.373-.318.681-.644.924-.98.243-.355.364-.672.364-.952 0-.075-.037-.159-.112-.252-.075-.094-.215-.14-.42-.14-.317 0-.635.102-.952.308-.317.205-.57.43-.756.672-.224.28-.42.532-.588.756-.15.224-.27.438-.364.644a5.571 5.571 0 00-.252.588c-.056.205-.112.438-.168.7zm12.911.896c-.018 0-.074-.066-.168-.196-.15.093-.242.14-.28.14a4.536 4.536 0 00-.336.196c-.13.093-.233.168-.308.224a7.498 7.498 0 00-.868.7c-.28.242-.522.448-.728.616-.28.242-.541.476-.784.7a10.39 10.39 0 00-.448.392c-.15.056-.27.084-.364.084a.618.618 0 01-.392-.112 3.015 3.015 0 00-.224-.252 2.77 2.77 0 01-.196-.56c-.037-.243-.074-.383-.112-.42v-.084c.019-.019.028-.047.028-.084 0-.019-.01-.028-.028-.028v-.084a.248.248 0 00.028-.112c0-.038.01-.084.028-.14.094-.094.262-.252.504-.476.243-.243.504-.476.784-.7a14.17 14.17 0 011.008-.756c.355-.243.663-.467.924-.672l.728-.644a8.361 8.361 0 00-.448-.784 5.602 5.602 0 00-.42-.588 11.17 11.17 0 01-1.064-1.344c-.298-.448-.448-.775-.448-.98 0-.187.01-.346.028-.476a.907.907 0 01.252-.42c.15-.15.28-.243.392-.28a.98.98 0 01.308-.056c.13 0 .327.037.588.112.262.056.55.28.868.672.112.15.215.326.308.532.094.186.206.382.336.588.112.205.215.43.308.672.112.224.234.438.364.644a.619.619 0 01.084.196c.019.074.047.14.084.196.038.074.075.14.112.196a.443.443 0 00.224-.168c.094-.094.187-.178.28-.252.019-.019.122-.112.308-.28l.588-.588.588-.588.308-.308a31 31 0 01.532-.588c.224-.243.41-.364.56-.364.15 0 .28.01.392.028.112 0 .224.046.336.14.224.168.374.354.448.56.094.186.14.364.14.532 0 .392-.074.662-.224.812-.13.13-.29.317-.476.56-.093.13-.252.29-.476.476a44.99 44.99 0 01-.7.56 32.4 32.4 0 01-.812.616c-.261.186-.485.354-.672.504l-.14.14a1.634 1.634 0 01-.168.14c.038.074.075.14.112.196l.112.112c.262.392.486.7.672.924.187.205.402.438.644.7.15.15.262.308.336.476.094.15.159.28.196.392a.46.46 0 01.028.14.248.248 0 01.028.112.46.46 0 01-.028.14v.196c0 .13-.018.224-.056.28a.55.55 0 01-.14.196 2.017 2.017 0 01-.308.252c-.093.074-.28.112-.56.112-.298 0-.513-.066-.644-.196l-.42-.42a5.9 5.9 0 01-.448-.56c-.13-.206-.233-.374-.308-.504a3.553 3.553 0 00-.28-.476 4.075 4.075 0 00-.28-.42l-.14-.196zm10.146 3.444c-.541 0-1.008-.094-1.4-.28a2.762 2.762 0 01-.924-.728 3.84 3.84 0 01-.56-1.008 3.88 3.88 0 01-.168-1.12c0-.579.112-1.11.336-1.596.224-.504.495-.97.812-1.4.112-.15.243-.318.392-.504.168-.206.336-.392.504-.56.187-.187.364-.355.532-.504.168-.15.318-.252.448-.308.262-.13.448-.252.56-.364.13-.13.308-.196.532-.196.448 0 .85.112 1.204.336.355.205.654.485.896.84.243.354.42.756.532 1.204.131.448.196.905.196 1.372 0 1.474-.326 2.65-.98 3.528-.653.858-1.624 1.288-2.912 1.288zm.672-6.16c-.074 0-.15.01-.224.028a.269.269 0 00-.196.084c-.15.15-.27.29-.364.42a4.179 4.179 0 00-.364.56 2.995 2.995 0 00-.252.672 4.15 4.15 0 00-.084.868c0 .317.084.578.252.784.168.186.439.28.812.28.224 0 .448-.056.672-.168.224-.13.42-.299.588-.504.168-.206.308-.448.42-.728a2.39 2.39 0 00.168-.896c0-.355-.112-.672-.336-.952-.224-.299-.504-.448-.84-.448h-.252zm9.686 6.608c-.653 0-1.223-.122-1.708-.364a3.232 3.232 0 01-1.176-.952 4.648 4.648 0 01-.672-1.512 8.628 8.628 0 01-.196-1.904c0-.952.093-1.932.28-2.94.205-1.027.579-1.923 1.12-2.688a2.34 2.34 0 01.308-.308c.131-.13.243-.206.336-.224 0-.168.093-.318.28-.448a2.564 2.564 0 01.7-.392 4.26 4.26 0 011.624-.308c.355 0 .681.056.98.168.299.093.551.205.756.336.243.15.467.308.672.476a13.05 13.05 0 00-.196-1.148 5.997 5.997 0 00-.224-.952c-.037-.094-.075-.15-.112-.168-.019-.019-.028-.075-.028-.168a.19.19 0 01.056-.14c-.019-.038-.047-.056-.084-.056a.187.187 0 01-.084-.084c-.261-.486-.616-.84-1.064-1.064-.429-.243-1.017-.43-1.764-.56-.635-.112-1.101-.196-1.4-.252-.299-.075-.448-.28-.448-.616 0-.038-.028-.094-.084-.168a.653.653 0 01-.056-.224c0-.168.019-.262.056-.28.056-.038.084-.103.084-.196 0-.038.009-.094.028-.168a.65.65 0 01.112-.168c.093-.094.131-.178.112-.252-.019-.075.009-.15.084-.224a1.02 1.02 0 01.532-.196c.224-.019.429-.028.616-.028.915 0 1.717.15 2.408.448a4.996 4.996 0 011.764 1.26.568.568 0 01.168.308.517.517 0 00.196.308.549.549 0 01.168.196c.037.074.103.15.196.224.075.056.131.13.168.224.037.074.075.158.112.252.317.634.541 1.334.672 2.1.149.746.224 1.53.224 2.352 0 .578-.019 1.213-.056 1.904a20.372 20.372 0 01-.168 2.072c-.075.69-.205 1.381-.392 2.072a9.075 9.075 0 01-.728 1.848c-.075.15-.168.224-.28.224-.056.056-.084.102-.084.14v.084c.019 0 .028.01.028.028-.056.093-.159.14-.308.14a.327.327 0 00.056.084c.037.018.056.046.056.084a.191.191 0 01-.056.14l-.112.112c-.112.13-.261.261-.448.392-.168.112-.327.214-.476.308a3.907 3.907 0 00-.364.252.959.959 0 01-.364.252 3.982 3.982 0 01-.84.252 4.04 4.04 0 01-.98.112zm.392-2.212c.355 0 .663-.094.924-.28.28-.187.513-.43.7-.728a4.27 4.27 0 00.504-1.008c.131-.392.243-.784.336-1.176.205-.934.317-1.998.336-3.192-.149-.374-.429-.672-.84-.896-.392-.243-.859-.364-1.4-.364-.504 0-.915.168-1.232.504a3.668 3.668 0 00-.756 1.26 8.637 8.637 0 00-.364 1.624 12.299 12.299 0 00-.112 1.568c0 .242.009.476.028.7.019.205.056.401.112.588a.43.43 0 00.14.168.495.495 0 01.14.14c.037.074.056.14.056.196a.36.36 0 00.084.14.316.316 0 01.112.112.453.453 0 01.084.112c.056.037.112.084.168.14.075.056.149.102.224.14.093.037.187.084.28.14a.945.945 0 00.252.112h.224zm16.209-2.184c.112.037.205.13.28.28.131.261.196.57.196.924 0 .15-.047.298-.14.448-.075.15-.159.27-.252.364-.187.186-.355.364-.504.532-.149.15-.327.298-.532.448-.205.15-.476.317-.812.504a6.459 6.459 0 01-1.008.532 4.997 4.997 0 01-.644.252c-.168.074-.345.13-.532.168a2.447 2.447 0 01-.532.056 6.918 6.918 0 01-.672.028c-.336 0-.691-.066-1.064-.196-.355-.112-.607-.215-.756-.308-.616-.374-1.055-.868-1.316-1.484-.261-.635-.392-1.41-.392-2.324 0-.56.065-1.102.196-1.624a8.19 8.19 0 01.504-1.484c.224-.467.467-.887.728-1.26.28-.374.56-.69.84-.952.149-.15.345-.318.588-.504.261-.187.523-.355.784-.504.28-.15.579-.28.896-.392.317-.13.709-.196 1.176-.196.467 0 .905.177 1.316.532.429.336.644.746.644 1.232 0 .112-.009.214-.028.308-.019.074-.047.15-.084.224a1.408 1.408 0 01-.196.364.816.816 0 01-.252.252c-.149.112-.392.168-.728.168-.205 0-.364-.01-.476-.028a1.574 1.574 0 00-.476-.056c-.299 0-.635.13-1.008.392a4.5 4.5 0 00-1.008.98c-.317.41-.588.868-.812 1.372a3.78 3.78 0 00-.308 1.484c0 .466.084.85.252 1.148.187.298.523.448 1.008.448.429 0 .831-.075 1.204-.224.392-.168.709-.318.952-.448.187-.094.411-.224.672-.392.28-.187.523-.346.728-.476.187-.112.336-.224.448-.336.112-.112.224-.196.336-.252a1.585 1.585 0 01.476-.112.48.48 0 01.308.112zm19.447 3.248c-.093.728-.495 1.092-1.204 1.092h-.168a.53.53 0 01-.168.028c-.056 0-.112-.038-.168-.112a.686.686 0 01-.252-.056.451.451 0 00-.196-.056.457.457 0 01-.084-.112.453.453 0 00-.084-.112c-.149-.094-.271-.252-.364-.476a1.45 1.45 0 01-.14-.224 3.314 3.314 0 00-.112-.252 3.209 3.209 0 01-.196-.532 25.696 25.696 0 01-.112-.532 6.123 6.123 0 01-.028-.616V83.65a.18.18 0 00-.14-.14.432.432 0 00-.168-.056c-.037 0-.159.084-.364.252-.187.15-.439.364-.756.644-.299.261-.635.56-1.008.896-.373.336-.747.681-1.12 1.036l-.532.532c-.187.186-.476.28-.868.28a2.3 2.3 0 01-.476-.084c-.205-.056-.345-.112-.42-.168l-.112-.084a7.84 7.84 0 01-.308-.7c-.093-.262-.159-.663-.196-1.204-.019-.168-.037-.346-.056-.532v-.896a.91.91 0 00-.056-.336c-.037-.094-.075-.14-.112-.14a.98.98 0 00-.28.028 1.109 1.109 0 00-.252.14 3.54 3.54 0 00-.336.308c-.224.205-.476.448-.756.728-.28.261-.597.57-.952.924-.392.392-.756.765-1.092 1.12-.317.336-.541.606-.672.812a3.314 3.314 0 00-.112.252l-.084.252c-.037.074-.065.14-.084.196a.36.36 0 01-.084.14.563.563 0 01-.308.168 1.243 1.243 0 01-.392.056c-.317 0-.635-.168-.952-.504-.299-.336-.448-.775-.448-1.316 0-.262.028-.588.084-.98.056-.41.121-.822.196-1.232.075-.43.149-.85.224-1.26.093-.41.168-.756.224-1.036.056-.262.112-.57.168-.924.075-.355.14-.7.196-1.036.075-.336.131-.644.168-.924a3.54 3.54 0 00.084-.588c0-.15-.028-.355-.084-.616a.645.645 0 01.14-.28c.112-.13.205-.224.28-.28a.52.52 0 01.336-.112 1.348 1.348 0 011.176.672c.168.28.289.578.364.896l.028.14a.932.932 0 00-.056.224v.112c0 .018.009.037.028.056 0 .41-.037.793-.112 1.148-.075.354-.177.774-.308 1.26-.037.186-.084.392-.14.616a2.87 2.87 0 00-.056.448c0 .093.047.14.14.14a.35.35 0 00.252-.112l.196-.196c.485-.598.98-1.158 1.484-1.68a28.815 28.815 0 011.512-1.512c.187-.168.336-.28.448-.336a.69.69 0 01.392-.112c.448 0 .831.13 1.148.392.317.242.513.457.588.644.093.261.159.476.196.644.037.168.056.336.056.504 0 .261-.009.56-.028.896v.812c0 .186.028.317.084.392a.41.41 0 00.252.084c.019 0 .084-.038.196-.112l.364-.308c.149-.112.299-.234.448-.364.168-.13.308-.252.42-.364.504-.43.971-.83 1.4-1.204.448-.374.775-.644.98-.812.168-.15.308-.243.42-.28.112-.056.261-.084.448-.084.168 0 .336.074.504.224.187.15.355.326.504.532.149.205.271.42.364.644.093.224.14.42.14.588 0 .298-.019.634-.056 1.008-.037.373-.056.728-.056 1.064 0 .13.009.326.028.588.037.242.075.392.112.448.019.205.084.401.196.588.112.168.243.354.392.56l.196.224.112.084c-.019 0-.028.01-.028.028v.14c.019 0 .028.018.028.056v.336zm7.175 1.036c-.915 0-1.69-.234-2.324-.7a1.848 1.848 0 00-.392-.252.421.421 0 01-.14-.168.36.36 0 00-.084-.168c0-.056-.028-.112-.084-.168l-.112-.224-.224-.28a1.389 1.389 0 01-.168-.336 5.509 5.509 0 01-.448-1.456 12.45 12.45 0 01-.112-1.708c0-.504.028-1.018.084-1.54a35.67 35.67 0 01.252-1.54h-.448a1.112 1.112 0 00-.14-.056.421.421 0 01-.14-.168.34.34 0 00-.196-.196.905.905 0 01-.028-.224c.018-.094.009-.168-.028-.224.037-.038.056-.13.056-.28 0-.15.018-.234.056-.252a.418.418 0 01.168-.14.46.46 0 00.196-.224.177.177 0 01.084-.084.32.32 0 00.112-.112 1.77 1.77 0 01.252-.056c.13-.038.289-.056.476-.056.186-.672.438-1.438.756-2.296.336-.859.737-1.67 1.204-2.436a7.879 7.879 0 011.624-1.932 3.128 3.128 0 012.128-.812c.597 0 1.054.084 1.372.252.336.168.634.438.896.812l.308.392c.018.056.056.186.112.392.056.186.102.308.14.364.074.205.13.401.168.588.056.186.084.382.084.588 0 .504-.103 1.082-.308 1.736a6.042 6.042 0 01-1.008 1.848c-.448.597-1.046 1.13-1.792 1.596-.728.448-1.624.737-2.688.868l-1.148.14c-.019.15-.047.308-.084.476a3.36 3.36 0 00-.084.504 22.05 22.05 0 00-.056.56l.252-.168a1.49 1.49 0 01.168-.14c.074-.056.158-.103.252-.14a.633.633 0 01.196-.056c.037-.019.056-.056.056-.112a.977.977 0 01.252-.084 65.3 65.3 0 01.28-.112 5.91 5.91 0 01.924-.28c.354-.094.718-.14 1.092-.14.541 0 .998.084 1.372.252.392.168.709.401.952.7.242.28.42.616.532 1.008.112.373.168.774.168 1.204 0 .765-.122 1.456-.364 2.072a4.5 4.5 0 01-.98 1.596 4.3 4.3 0 01-1.512 1.008 4.964 4.964 0 01-1.932.364zm.364-2.296c.672 0 1.194-.234 1.568-.7a2.559 2.559 0 00.588-1.652c0-.392-.122-.71-.364-.952-.243-.243-.551-.364-.924-.364-.262 0-.514.037-.756.112a4.49 4.49 0 00-.616.252l-.084.084c-.019.018-.038.028-.056.028h-.028c-.019 0-.028.01-.028.028h-.028c0 .037-.019.065-.056.084-.019 0-.047.018-.084.056-.019.037-.066.065-.14.084a.674.674 0 00-.224.168.61.61 0 01-.112.14c-.038.056-.131.102-.28.14a.408.408 0 00-.084.112.34.34 0 01-.084.056l-.224.364c.018.522.196.98.532 1.372.336.392.83.588 1.484.588zm-.364-8.54a2.832 2.832 0 001.12-.42 3.68 3.68 0 00.952-.812c.28-.336.494-.7.644-1.092.168-.41.252-.822.252-1.232 0-.318-.094-.579-.28-.784a.904.904 0 00-.728-.336c-.318 0-.626.158-.924.476a5.197 5.197 0 00-.84 1.148c-.262.466-.495.98-.7 1.54a12.48 12.48 0 00-.476 1.596h.42c.224-.019.41-.047.56-.084zm13.572 10.724a.642.642 0 00-.224.056.375.375 0 01-.224.084c-.075.074-.15.14-.224.196a.985.985 0 01-.364.14 4.224 4.224 0 01-.728.28c-.262.074-.56.112-.896.112-.598 0-1.111-.112-1.54-.336a3.033 3.033 0 01-1.008-.868 3.905 3.905 0 01-.588-1.148 4.88 4.88 0 01-.168-1.232c0-.355.018-.682.056-.98a5.63 5.63 0 01.196-.952c.037-.15.074-.28.112-.392.037-.112.084-.243.14-.392l.28-.672c.018-.056.037-.13.056-.224a1.92 1.92 0 01.14-.28 2.73 2.73 0 01.308-.56c.392-.654.84-1.158 1.344-1.512.504-.355 1.026-.532 1.568-.532.018.018.037.028.056.028a.26.26 0 01.112.028.213.213 0 00.084.028c.037 0 .065.01.084.028a.19.19 0 00.14.056c0 .037.028.093.084.168.336.093.69.298 1.064.616.392.298.746.662 1.064 1.092.317.43.578.914.784 1.456.205.522.308 1.054.308 1.596 0 .84-.168 1.605-.504 2.296a5.123 5.123 0 01-1.316 1.68l-.196.14zm-1.764-6.44c-.038.037-.066.056-.084.056a1.143 1.143 0 01-.14.056.253.253 0 01-.112.028 1.314 1.314 0 01-.252.028c-.075 0-.159.046-.252.14a.501.501 0 00-.252.168 3.439 3.439 0 00-.308.42c-.262.28-.439.662-.532 1.148-.094.466-.14.914-.14 1.344 0 .466.121.83.364 1.092.242.242.578.364 1.008.364.709 0 1.316-.206 1.82-.616.522-.43.784-1.064.784-1.904 0-.635-.178-1.176-.532-1.624a1.82 1.82 0 00-1.316-.756l-.056.056z" fill="#fff"/><defs><radialGradient id="paint0_radial" cx="0" cy="0" r="1" gradientUnits="userSpaceOnUse" gradientTransform="rotate(-10.035 521.092 -497.36) scale(92.0509 69.4064)"><stop stop-color="#407B9A"/><stop offset=".645" stop-color="#3682A1"/><stop offset=".941" stop-color="#C6DDEE"/><stop offset="1" stop-color="#fff"/></radialGradient><linearGradient id="paint1_linear" x1="145.965" y1="32.713" x2="118.987" y2="56.634" gradientUnits="userSpaceOnUse"><stop stop-color="#fff"/><stop offset=".475" stop-color="#D4EFFD" stop-opacity=".5"/><stop offset="1" stop-color="#3699D6" stop-opacity="0"/></linearGradient></defs></svg>