<svg width="344" height="245" fill="none" xmlns="http://www.w3.org/2000/svg"><path opacity=".33" d="M60.72 28.374C20.017 44.439 3.8 90.839 1.264 127.76c-2.758 36.921 16.326 73.841 51.846 93.998 21.622 12.274 48.096 18.161 74.902 20.755 49.31 4.591 101.046-1.796 148.591-18.26 16.657-5.788 33.314-13.072 44.676-24.847 11.362-11.475 16.326-26.044 19.084-40.313 9.377-47.099-2.206-114.055-54.935-139.6-66.519-31.932-155.32-18.261-224.706 8.88z" fill="url(#paint0_radial)" stroke="#fff" stroke-width="1.102" stroke-miterlimit="10"/><path opacity=".33" d="M237.11 33.263c3.64.499 22.945 6.486 29.343 11.076 4.854 3.492 25.262 16.963 29.454 30.035 3.199 9.979 5.515 14.37-2.317 25.146-.882 1.098-7.391 5.688-10.369 2.395-4.854-6.087-13.789-20.656-33.756-34.526-4.964-3.392-20.077-11.176-26.365-13.37-2.868-.999-13.347-5.589-14.12-7.584-4.633-10.278 21.622-14.07 28.13-13.172z" fill="url(#paint1_linear)"/><path d="M136.391 84.35c-.084.028-.308.042-.672.042h-.63c-.056.56-.126 1.176-.21 1.848-.056.672-.112 1.302-.168 1.89-.056.42-.126.994-.21 1.722a122.7 122.7 0 01-.21 2.394c-.084.84-.182 1.708-.294 2.604-.084.868-.168 1.68-.252 2.436-.028.308-.07.672-.126 1.092a313.487 313.487 0 00-.168 2.562v1.638c.028.14.042.28.042.42l.084 2.058c-.028.7-.098 1.274-.21 1.722-.112.476-.392.784-.84.924l-.84.294-.462-.168-.462-.252-.462-.714c-.084-.084-.126-.168-.126-.252v-.168a.373.373 0 00.042-.168c0-.056-.028-.112-.084-.168-.14-.112-.21-.224-.21-.336 0-.084-.014-.238-.042-.462-.028-.028-.042-.098-.042-.21v-.126c.028 0 .042-.014.042-.042 0-.056-.014-.098-.042-.126v-.042c0-.056.014-.112.042-.168 0-.028.014-.07.042-.126l.084-2.562c.056-.84.112-1.82.168-2.94l.294-3.948c.14-1.54.322-3.43.546-5.67.056-.504.126-1.218.21-2.142.112-.924.168-1.82.168-2.688l-2.814.168c-.924.028-1.554.042-1.89.042-.336.028-.742.042-1.218.042h-1.344c-.448 0-.868.014-1.26.042-.392 0-.7.014-.924.042l-.252 2.562c-.028.364-.07.616-.126.756-.028.14-.042.28-.042.42v.63c.028.224.042.462.042.714v.378c0 .112-.014.238-.042.378-.028.084-.07.182-.126.294a5.519 5.519 0 00-.084.42l-.084 1.008c-.084.896-.14 1.638-.168 2.226-.028.56-.056 1.092-.084 1.596a51.144 51.144 0 01-.084 1.428v1.848c0 .28-.014.602-.042.966a.658.658 0 01-.126.168c-.056.056-.084.112-.084.168.028.056.07.084.126.084.056-.028.084 0 .084.084l-.084.084c-.028.028-.056.042-.084.042-.028 0-.042.014-.042.042a1.474 1.474 0 00-.042.42v.672c.028.224.042.448.042.672 0 .28-.028.532-.084.756-.028.196-.056.406-.084.63-.028.728-.098 1.344-.21 1.848a7.095 7.095 0 01-.504 1.68c-.056 0-.098-.014-.126-.042h-.042a.93.93 0 00-.294.042 1.376 1.376 0 01-.21.168c-.028.028-.084.07-.168.126a.285.285 0 01-.21.084c-.056 0-.112-.028-.168-.084-.112-.084-.364-.224-.756-.42-.392-.196-.658-.378-.798-.546-.112-.112-.168-.322-.168-.63v-.504c.028-.168.042-.294.042-.378 0-.056-.028-.112-.084-.168-.056-.028-.084-.084-.084-.168l.378-1.764c.056-.196.084-.35.084-.462v-.798c0-.14.014-.28.042-.42.056-.476.07-.98.042-1.512 0-.56.028-1.162.084-1.806l.126-2.31c.028-.7.056-1.428.084-2.184.028-.784.07-1.498.126-2.142l.168-3.108c.056-1.064.112-1.89.168-2.478l.042-.714c0-.28-.028-.476-.084-.588a1.625 1.625 0 00-.294-.21c-.14-.084-.21-.252-.21-.504 0-.196-.028-.364-.084-.504a1.586 1.586 0 01-.084-.504c0-.308.07-.574.21-.798.168-.252.364-.462.588-.63.308-.252.686-.364 1.134-.336.448 0 .868-.028 1.26-.084a6.35 6.35 0 01.84-.042c.364-.028.756-.042 1.176-.042.448-.028.91-.042 1.386-.042.504-.028.98-.056 1.428-.084.588-.028 1.414-.07 2.478-.126l3.15-.168a157.66 157.66 0 014.2-.168.72.72 0 01.294.042l.168.084c.28.112.462.168.546.168h.084c0-.028.028-.042.084-.042.028 0 .07.028.126.084.084.028.154.098.21.21.084.084.168.14.252.168.056.028.084.07.084.126 0 .028.042.056.126.084 0 .056.014.098.042.126.056.028.084.084.084.168.028.028.042.084.042.168s.014.14.042.168c.028.028.014.07-.042.126-.028.028-.042.07-.042.126-.028.112-.056.21-.084.294v.504c.028.112.056.196.084.252l.042.378c0 .084-.126.154-.378.21-.252.056-.42.098-.504.126zm4.441 38.724a4.832 4.832 0 01-.42-1.218c-.056-.42-.084-.98-.084-1.68 0-.728.042-1.526.126-2.394.084-.868.168-1.89.252-3.066.028-.476.07-1.078.126-1.806a54.01 54.01 0 01.336-2.394c-.168 0-.336-.07-.504-.21a1.42 1.42 0 01-.336-.378c-.196-.392-.294-.742-.294-1.05 0-.308.028-.574.084-.798a3.77 3.77 0 01.294-.756c0-.196.056-.42.168-.672.112-.224.252-.462.42-.714l1.05-1.428.378-2.226c.224-1.232.518-2.646.882-4.242a73.151 73.151 0 011.428-4.998c.196-.588.448-1.204.756-1.848a11.75 11.75 0 011.05-1.848 6.77 6.77 0 011.26-1.386c.476-.364.966-.546 1.47-.546.588 0 1.106.154 1.554.462.448.308.826.714 1.134 1.218a5.24 5.24 0 01.756 1.596c.168.588.252 1.148.252 1.68 0 .84-.126 1.68-.378 2.52-.224.84-.518 1.652-.882 2.436-.364.756-.756 1.47-1.176 2.142-.42.644-.812 1.218-1.176 1.722l-4.536 5.964a1.093 1.093 0 00-.042.336c-.084.588-.168 1.218-.252 1.89-.056.7-.126 1.358-.21 1.974a48.519 48.519 0 01-.168 1.596 20.13 20.13 0 00-.042.966c-.14 1.568-.238 2.87-.294 3.906a101.302 101.302 0 00-.042 2.52c0 .196-.028.42-.084.672a6.64 6.64 0 01-.21.798c-.084.252-.182.49-.294.714a3.055 3.055 0 01-.252.588c-.196.308-.378.504-.546.588-.168.112-.294.168-.378.168-.252 0-.462-.056-.63-.168-.14-.112-.322-.322-.546-.63zm5.418-23.1c.448-.588.882-1.218 1.302-1.89.42-.672.784-1.344 1.092-2.016.336-.672.588-1.316.756-1.932.196-.644.294-1.204.294-1.68 0-.504-.168-.756-.504-.756-.196 0-.392.168-.588.504-.168.308-.35.728-.546 1.26-.168.476-.336.994-.504 1.554l-.504 1.596c-.14.504-.266.994-.378 1.47-.112.448-.196.812-.252 1.092l-.168.798zm24.242 4.116c-.056.14-.14.28-.252.42a2.166 2.166 0 01-.42.462 6.14 6.14 0 01-.63.42.95.95 0 01-.63.21c-.196 0-.392-.042-.588-.126-.28-.084-.476-.28-.588-.588-.112-.28-.168-.616-.168-1.008v-.42c.028-.14.056-.294.084-.462.056-.336.126-.728.21-1.176.084-.476.168-.91.252-1.302.112-.532.21-.952.294-1.26.084-.308.126-.616.126-.924 0-.112-.028-.168-.084-.168-.112 0-.238.098-.378.294a8.247 8.247 0 01-.588.84c-.42.56-.868 1.092-1.344 1.596a28.412 28.412 0 01-1.806 1.722 20.605 20.605 0 01-2.142 1.638 4.56 4.56 0 01-2.478.714c-.84 0-1.498-.322-1.974-.966a3.997 3.997 0 01-.672-2.268c0-.28.014-.602.042-.966.056-.364.098-.742.126-1.134.056-.392.112-.756.168-1.092.056-.364.084-.658.084-.882.056-.364.14-.84.252-1.428.112-.588.168-1.078.168-1.47l.21-1.428c.056-.28.084-.532.084-.756.028-.252.07-.476.126-.672.028-.112.042-.21.042-.294v-.294c0-.224.056-.35.168-.378.168-.14.392-.252.672-.336a.972.972 0 01.546-.084c.168 0 .28-.028.336-.084.308 0 .602.196.882.588.28.392.448.742.504 1.05.028.084.042.21.042.378v.504c0 .476-.028.938-.084 1.386-.056.448-.126.924-.21 1.428l-.21.84c-.056.336-.126.672-.21 1.008-.056.336-.112.644-.168.924a5.603 5.603 0 00-.042.546c0 .168.028.322.084.462.084.112.238.168.462.168.252 0 .63-.182 1.134-.546a19.32 19.32 0 001.596-1.302 31.04 31.04 0 001.68-1.638 17.937 17.937 0 001.344-1.554c.532-.7.966-1.274 1.302-1.722a9.48 9.48 0 01.966-1.05c.28-.28.7-.42 1.26-.42.28 0 .518.112.714.336.224.224.406.448.546.672.224.364.336.77.336 1.218 0 .42.028.854.084 1.302a.746.746 0 01-.084.336.746.746 0 00-.084.336c-.028.308-.056.672-.084 1.092-.028.42-.056.882-.084 1.386-.14 1.512-.28 2.716-.42 3.612-.112.868-.266 1.582-.462 2.142l-.042.168zm5.777 18.984a4.832 4.832 0 01-.42-1.218c-.056-.42-.084-.98-.084-1.68 0-.728.042-1.526.126-2.394.084-.868.168-1.89.252-3.066.028-.476.07-1.078.126-1.806a54.01 54.01 0 01.336-2.394c-.168 0-.336-.07-.504-.21a1.42 1.42 0 01-.336-.378c-.196-.392-.294-.742-.294-1.05 0-.308.028-.574.084-.798a3.77 3.77 0 01.294-.756c0-.196.056-.42.168-.672.112-.224.252-.462.42-.714l1.05-1.428.378-2.226c.224-1.232.518-2.646.882-4.242a73.151 73.151 0 011.428-4.998c.196-.588.448-1.204.756-1.848a11.75 11.75 0 011.05-1.848 6.77 6.77 0 011.26-1.386c.476-.364.966-.546 1.47-.546.588 0 1.106.154 1.554.462.448.308.826.714 1.134 1.218a5.24 5.24 0 01.756 1.596c.168.588.252 1.148.252 1.68 0 .84-.126 1.68-.378 2.52-.224.84-.518 1.652-.882 2.436-.364.756-.756 1.47-1.176 2.142-.42.644-.812 1.218-1.176 1.722l-4.536 5.964a1.093 1.093 0 00-.042.336c-.084.588-.168 1.218-.252 1.89-.056.7-.126 1.358-.21 1.974a48.519 48.519 0 01-.168 1.596 20.13 20.13 0 00-.042.966c-.14 1.568-.238 2.87-.294 3.906a101.302 101.302 0 00-.042 2.52c0 .196-.028.42-.084.672a6.64 6.64 0 01-.21.798c-.084.252-.182.49-.294.714a3.055 3.055 0 01-.252.588c-.196.308-.378.504-.546.588-.168.112-.294.168-.378.168-.252 0-.462-.056-.63-.168-.14-.112-.322-.322-.546-.63zm5.418-23.1c.448-.588.882-1.218 1.302-1.89.42-.672.784-1.344 1.092-2.016.336-.672.588-1.316.756-1.932.196-.644.294-1.204.294-1.68 0-.504-.168-.756-.504-.756-.196 0-.392.168-.588.504-.168.308-.35.728-.546 1.26-.168.476-.336.994-.504 1.554l-.504 1.596c-.14.504-.266.994-.378 1.47-.112.448-.196.812-.252 1.092l-.168.798zm19.202 5.712a.968.968 0 00-.336.084.559.559 0 01-.336.126c-.112.112-.224.21-.336.294-.112.084-.294.154-.546.21-.336.168-.7.308-1.092.42a4.9 4.9 0 01-1.344.168c-.896 0-1.666-.168-2.31-.504a4.558 4.558 0 01-1.512-1.302 5.905 5.905 0 01-.882-1.722 7.32 7.32 0 01-.252-1.848c0-.532.028-1.022.084-1.47.056-.476.154-.952.294-1.428a8.07 8.07 0 01.168-.588c.056-.168.126-.364.21-.588l.42-1.008c.028-.084.056-.196.084-.336.056-.14.126-.28.21-.42.112-.28.266-.56.462-.84.588-.98 1.26-1.736 2.016-2.268.756-.532 1.54-.798 2.352-.798.028.028.056.042.084.042.056 0 .112.014.168.042a.322.322 0 00.126.042c.056 0 .098.014.126.042a.285.285 0 00.21.084c0 .056.042.14.126.252.504.14 1.036.448 1.596.924.588.448 1.12.994 1.596 1.638a9.051 9.051 0 011.176 2.184c.308.784.462 1.582.462 2.394 0 1.26-.252 2.408-.756 3.444-.504 1.008-1.162 1.848-1.974 2.52l-.294.21zm-2.646-9.66c-.056.056-.098.084-.126.084a1.63 1.63 0 01-.21.084.373.373 0 01-.168.042c-.14.028-.266.042-.378.042-.112 0-.238.07-.378.21a.753.753 0 00-.378.252c-.084.084-.238.294-.462.63-.392.42-.658.994-.798 1.722-.14.7-.21 1.372-.21 2.016 0 .7.182 1.246.546 1.638.364.364.868.546 1.512.546 1.064 0 1.974-.308 2.73-.924.784-.644 1.176-1.596 1.176-2.856 0-.952-.266-1.764-.798-2.436-.504-.672-1.162-1.05-1.974-1.134l-.084.084zm15.12 23.058c-.56 0-1.092-.112-1.596-.336a6.349 6.349 0 01-1.428-.882 13.18 13.18 0 01-1.302-1.218 23.002 23.002 0 01-1.092-1.344l-.756-1.176c-.252-.364-.49-.728-.714-1.092a2.771 2.771 0 00-.168-.462.597.597 0 01-.084-.336c-.028-.028-.042-.112-.042-.252 0-.084.014-.154.042-.21a.373.373 0 00.042-.168.322.322 0 00-.042-.126v-.126c0-.028.028-.098.084-.21.056-.084.168-.154.336-.21.196-.056.35-.084.462-.084l.21.042c.056 0 .098-.014.126-.042h.084c.14-.056.322-.084.546-.084.476 0 1.022.308 1.638.924.308.308.56.658.756 1.05.196.42.406.812.63 1.176.224.392.49.714.798.966.308.28.728.42 1.26.42s.994-.21 1.386-.63c.392-.42.728-.952 1.008-1.596.308-.644.56-1.344.756-2.1.224-.756.406-1.47.546-2.142.14-.616.28-1.386.42-2.31.168-.924.322-1.862.462-2.814.168-.98.294-1.904.378-2.772a28.5 28.5 0 00.21-2.142c-.112-.224-.238-.336-.378-.336s-.322.07-.546.21c-.196.112-.574.392-1.134.84a6.797 6.797 0 01-1.008.714c-.42.252-.882.504-1.386.756-.476.224-.966.42-1.47.588-.476.14-.91.21-1.302.21-.616 0-1.134-.126-1.554-.378-.42-.28-.77-.616-1.05-1.008a4.62 4.62 0 01-.546-1.386 6.951 6.951 0 01-.168-1.512c0-1.288.35-2.562 1.05-3.822.364-.7.896-1.372 1.596-2.016a3.54 3.54 0 012.478-.966c1.008 0 1.932.252 2.772.756.952.672 1.512 1.61 1.68 2.814.056.14.07.266.042.378 0 .084.028.154.084.21l.504-.336c.14-.14.364-.28.672-.42.336-.14.686-.21 1.05-.21.168 0 .448.112.84.336.42.196.7.434.84.714.056.14.126.336.21.588.084.252.126.49.126.714.028.14.042.252.042.336a.691.691 0 01.042.21v.21c-.056.364-.14 1.274-.252 2.73-.084 1.428-.28 3.136-.588 5.124-.196 1.4-.42 2.674-.672 3.822a34.412 34.412 0 01-.672 2.94 23.897 23.897 0 01-.882 2.436c-.336.868-.77 1.68-1.302 2.436a6.964 6.964 0 01-1.764 1.848 3.748 3.748 0 01-2.31.756zm-1.764-21.168c.644 0 1.274-.182 1.89-.546.644-.364 1.162-.742 1.554-1.134v-.168c.028-.028.042-.07.042-.126 0-.28-.112-.574-.336-.882-.084-.112-.21-.168-.378-.168-.98 0-1.736.294-2.268.882-.532.588-.84 1.204-.924 1.848 0 .196.14.294.42.294zm24.291 7.056a6.965 6.965 0 01-.042-.84v-.966c0-.252-.042-.406-.126-.462-.056-.084-.112-.126-.168-.126a.403.403 0 00-.294.126l-.294.294c-.252.252-.616.546-1.092.882-.448.336-.938.644-1.47.924a9.066 9.066 0 01-1.68.756c-.588.196-1.134.294-1.638.294a2.66 2.66 0 01-1.344-.336 3.35 3.35 0 01-.966-.924 4.354 4.354 0 01-.588-1.26 6.585 6.585 0 01-.168-1.512c0-.476.042-.952.126-1.428.084-.308.182-.644.294-1.008.14-.392.322-.812.546-1.26l.126-.252c.084-.112.154-.224.21-.336.084-.112.168-.238.252-.378.42-.7.98-1.4 1.68-2.1.7-.7 1.456-1.33 2.268-1.89.84-.588 1.666-1.05 2.478-1.386.812-.364 1.526-.546 2.142-.546.42 0 .812.042 1.176.126.392.084.77.28 1.134.588.224.196.42.448.588.756.196.28.294.588.294.924 0 .14-.042.294-.126.462a327.54 327.54 0 01-.168 3.024c-.056.812-.098 1.61-.126 2.394v1.722c0 .868.028 1.652.084 2.352.084.7.168 1.204.252 1.512 0 .224-.014.42-.042.588a.881.881 0 01-.126.462 2.207 2.207 0 01-.21.336c-.084.112-.196.21-.336.294a.677.677 0 01-.294.084.93.93 0 01-.294-.042.93.93 0 00-.294-.042c-.196.028-.294.07-.294.126-.616 0-.98-.182-1.092-.546a27.724 27.724 0 01-.378-1.386zm.714-9.324a.403.403 0 01-.294-.126.977.977 0 01-.252-.168.405.405 0 00-.168-.21c-.392 0-.966.266-1.722.798a18.06 18.06 0 00-2.226 1.848c-.756.7-1.414 1.428-1.974 2.184-.56.756-.84 1.386-.84 1.89 0 .336.154.504.462.504.168 0 .42-.056.756-.168.364-.14.784-.364 1.26-.672.364-.224.77-.49 1.218-.798.476-.308.938-.644 1.386-1.008.476-.392.91-.798 1.302-1.218.392-.448.7-.924.924-1.428.056-.364.098-.616.126-.756.028-.168.042-.392.042-.672zM96.848 166.09c-.056.14-.14.28-.252.42a2.166 2.166 0 01-.42.462 6.14 6.14 0 01-.63.42.95.95 0 01-.63.21c-.196 0-.392-.042-.588-.126-.28-.084-.476-.28-.588-.588-.112-.28-.168-.616-.168-1.008v-.42c.028-.14.056-.294.084-.462.056-.336.126-.728.21-1.176.084-.476.168-.91.252-1.302.112-.532.21-.952.294-1.26.084-.308.126-.616.126-.924 0-.112-.028-.168-.084-.168-.112 0-.238.098-.378.294a8.247 8.247 0 01-.588.84c-.42.56-.868 1.092-1.344 1.596a28.412 28.412 0 01-1.806 1.722 20.605 20.605 0 01-2.142 1.638 4.56 4.56 0 01-2.478.714c-.84 0-1.498-.322-1.974-.966a3.997 3.997 0 01-.672-2.268c0-.28.014-.602.042-.966.056-.364.098-.742.126-1.134.056-.392.112-.756.168-1.092.056-.364.084-.658.084-.882.056-.364.14-.84.252-1.428.112-.588.168-1.078.168-1.47l.21-1.428c.056-.28.084-.532.084-.756.028-.252.07-.476.126-.672.028-.112.042-.21.042-.294v-.294c0-.224.056-.35.168-.378.168-.14.392-.252.672-.336a.972.972 0 01.546-.084c.168 0 .28-.028.336-.084.308 0 .602.196.882.588.28.392.448.742.504 1.05.028.084.042.21.042.378v.504c0 .476-.028.938-.084 1.386-.056.448-.126.924-.21 1.428l-.21.84c-.056.336-.126.672-.21 1.008-.056.336-.112.644-.168.924a5.603 5.603 0 00-.042.546c0 .168.028.322.084.462.084.112.238.168.462.168.252 0 .63-.182 1.134-.546a19.32 19.32 0 001.596-1.302 31.04 31.04 0 001.68-1.638 17.937 17.937 0 001.344-1.554c.532-.7.966-1.274 1.302-1.722a9.48 9.48 0 01.966-1.05c.28-.28.7-.42 1.26-.42.28 0 .518.112.714.336.224.224.406.448.546.672.224.364.336.77.336 1.218 0 .42.028.854.084 1.302a.746.746 0 01-.084.336.746.746 0 00-.084.336c-.028.308-.056.672-.084 1.092-.028.42-.056.882-.084 1.386-.14 1.512-.28 2.716-.42 3.612-.112.868-.266 1.582-.462 2.142l-.042.168zm38.113-5.082c-.336.476-.63.882-.882 1.218-.224.336-.434.644-.63.924s-.392.546-.588.798l-.588.882v.336c0 .56-.084 1.106-.252 1.638-.14.56-.49.854-1.05.882-.14 0-.224.014-.252.042 0 .056-.112.084-.336.084-.14 0-.252-.014-.336-.042a1.093 1.093 0 00-.336-.042.677.677 0 01-.546-.252 1.99 1.99 0 01-.294-.546 5.667 5.667 0 01-.126-.672v-.588c0-.56.028-1.12.084-1.68.056-.56.112-1.302.168-2.226.028-.336.042-.742.042-1.218s.014-.84.042-1.092l-3.864 5.964c-.588.896-1.26 1.512-2.016 1.848-.756.336-1.708.504-2.856.504h-1.008c-.224 0-.392-.042-.504-.126-.112-.084-.196-.294-.252-.63a.393.393 0 01-.21-.294 1.149 1.149 0 01-.042-.252c0-.112.014-.224.042-.336.028-.112.042-.308.042-.588 0-.056.014-.154.042-.294.028-.14.098-.224.21-.252 0-.308.126-.532.378-.672s.574-.21.966-.21c.784 0 1.386-.154 1.806-.462.448-.308.77-.714.966-1.218a5.36 5.36 0 00.42-1.722c.056-.644.084-1.316.084-2.016 0-1.232-.182-2.184-.546-2.856-.336-.7-.994-1.05-1.974-1.05h-.588a2.253 2.253 0 01-.546-.126c-.392-.168-.588-.504-.588-1.008 0-.168.028-.294.084-.378.056-.084.084-.238.084-.462 0-.112-.028-.196-.084-.252a.373.373 0 01-.042-.168c0-.056.042-.126.126-.21.112-.084.154-.238.126-.462 0-.224.112-.336.336-.336h.504c.924 0 1.778.112 2.562.336a4.256 4.256 0 012.016 1.134c.56.532.994 1.26 1.302 2.184.336.924.504 2.086.504 3.486a19.779 19.779 0 001.386-1.848c.392-.56.84-1.26 1.344-2.1v-1.722c0-.084.014-.21.042-.378l.168-.504a2.1 2.1 0 01.21-.504c.112-.14.224-.21.336-.21.028 0 .056.014.084.042h.126c.056 0 .126-.042.21-.126h.294c.028-.028.07-.042.126-.042.168.028.364.056.588.084.224.028.378.112.462.252l.336.168c.112.056.21.21.294.462.084.252.126.672.126 1.26a46.05 46.05 0 01-.126 3.444c-.084 1.12-.154 2.24-.21 3.36a73.601 73.601 0 001.764-2.688 149.25 149.25 0 001.722-2.772c.42-.672.854-1.218 1.302-1.638.476-.448.98-.798 1.512-1.05a5.83 5.83 0 011.638-.504c.56-.084 1.148-.126 1.764-.126h.504c.224 0 .336.07.336.21a.691.691 0 01-.042.21.691.691 0 00-.042.21c0 .112-.028.182-.084.21-.028 0-.042.028-.042.084 0 .028.042.07.126.126.084.028.126.084.126.168 0 .028-.028.042-.084.042-.028 0-.042.028-.042.084 0 .028.014.07.042.126a.658.658 0 01.126.168.746.746 0 01.084.336c0 .056-.014.154-.042.294a1.38 1.38 0 00-.042.336c-.028.364-.14.602-.336.714-.168.084-.392.126-.672.126h-.42a2.36 2.36 0 00-.462-.042c-1.176 0-1.96.518-2.352 1.554-.364 1.036-.546 2.436-.546 4.2 0 1.008.182 1.862.546 2.562.392.672 1.19 1.008 2.394 1.008.364 0 .658.042.882.126.252.084.378.252.378.504 0 .28.014.476.042.588.028.112.042.322.042.63 0 .168-.014.308-.042.42-.028.112-.042.21-.042.294 0 .196-.07.336-.21.42-.14.056-.224.182-.252.378 0 .084-.056.154-.168.21a.597.597 0 01-.336.084h-1.008c-1.876 0-3.262-.518-4.158-1.554-.868-1.036-1.302-2.772-1.302-5.208zm23.242 6.72c-.588 0-1.078-.154-1.47-.462a3.467 3.467 0 01-.966-1.05 5.693 5.693 0 01-.504-1.302 8.57 8.57 0 01-.21-1.218c-.056-.084-.112-.126-.168-.126-.112 0-.252.098-.42.294-.168.224-.364.504-.588.84-.224.308-.532.7-.924 1.176a8.03 8.03 0 01-1.932 1.68c-.756.504-1.456.756-2.1.756-.812 0-1.512-.378-2.1-1.134-.588-.756-.882-1.806-.882-3.15 0-.672.042-1.316.126-1.932.084-.644.182-1.246.294-1.806.112-.56.182-1.148.21-1.764.028-.616.056-1.288.084-2.016v-.63c.028-.196.042-.364.042-.504 0-.056-.014-.098-.042-.126a.468.468 0 01-.126-.336c0-.084-.014-.182-.042-.294v-.21a.793.793 0 00.042-.252c.056-.392.224-.714.504-.966.28-.28.588-.42.924-.42.392 0 .756.126 1.092.378.364.252.658.574.882.966.196.308.322.63.378.966.084.308.126.616.126.924 0 .28-.014.49-.042.63v.462c0 .224-.014.476-.042.756 0 .28-.014.574-.042.882l-.084.84a7.282 7.282 0 01-.084.588l-.21.84c-.056.336-.126.672-.21 1.008-.056.308-.112.588-.168.84a2.95 2.95 0 00-.084.504c0 .224.042.378.126.462.112.084.238.14.378.168.252 0 .63-.182 1.134-.546a9.911 9.911 0 001.596-1.512 11.837 11.837 0 001.512-2.1 8.995 8.995 0 001.008-2.436c.224-.896.448-1.498.672-1.806.224-.336.448-.504.672-.504.56 0 1.092.238 1.596.714.532.476.798 1.176.798 2.1 0 .476-.056.966-.168 1.47-.084.504-.154.938-.21 1.302-.056.308-.098.63-.126.966-.028.336-.042.7-.042 1.092v.714c.028.252.084.434.168.546.056 0 .168-.028.336-.084.252-.112.56-.168.924-.168.196 0 .448.098.756.294l.21.21c.056.056.112.14.168.252v.672c-.028.28-.098.574-.21.882-.112.28-.28.546-.504.798-.196.252-.476.462-.84.63-.336.168-.742.252-1.218.252zm13.326.126c-1.372 0-2.534-.35-3.486-1.05-.252-.196-.448-.322-.588-.378a.634.634 0 01-.21-.252.533.533 0 00-.126-.252c0-.084-.042-.168-.126-.252l-.168-.336-.336-.42a2.12 2.12 0 01-.252-.504 8.317 8.317 0 01-.672-2.184 18.752 18.752 0 01-.168-2.562c0-.756.042-1.526.126-2.31.112-.784.238-1.554.378-2.31h-.672a1.63 1.63 0 00-.21-.084.634.634 0 01-.21-.252.507.507 0 00-.294-.294 1.38 1.38 0 01-.042-.336c.028-.14.014-.252-.042-.336.056-.056.084-.196.084-.42 0-.224.028-.35.084-.378a.634.634 0 01.252-.21.682.682 0 00.294-.336.275.275 0 01.126-.126.475.475 0 00.168-.168c.084-.028.21-.056.378-.084.196-.056.434-.084.714-.084.28-1.008.658-2.156 1.134-3.444a23.337 23.337 0 011.806-3.654c.7-1.148 1.512-2.114 2.436-2.898.924-.812 1.988-1.218 3.192-1.218.896 0 1.582.126 2.058.378.504.252.952.658 1.344 1.218l.462.588c.028.084.084.28.168.588.084.28.154.462.21.546.112.308.196.602.252.882.084.28.126.574.126.882 0 .756-.154 1.624-.462 2.604-.308.952-.812 1.876-1.512 2.772-.672.896-1.568 1.694-2.688 2.394-1.092.672-2.436 1.106-4.032 1.302l-1.722.21c-.028.224-.07.462-.126.714a5.311 5.311 0 00-.126.756c-.028.252-.056.532-.084.84l.378-.252c.056-.056.14-.126.252-.21.112-.084.238-.154.378-.21a.963.963 0 01.294-.084c.056-.028.084-.084.084-.168a1.5 1.5 0 01.378-.126l.42-.168c.42-.168.882-.308 1.386-.42a6.41 6.41 0 011.638-.21c.812 0 1.498.126 2.058.378.588.252 1.064.602 1.428 1.05.364.42.63.924.798 1.512.168.56.252 1.162.252 1.806 0 1.148-.182 2.184-.546 3.108a6.744 6.744 0 01-1.47 2.394c-.616.644-1.372 1.148-2.268 1.512-.868.364-1.834.546-2.898.546zm.546-3.444c1.008 0 1.792-.35 2.352-1.05a3.838 3.838 0 00.882-2.478c0-.588-.182-1.064-.546-1.428-.364-.364-.826-.546-1.386-.546-.392 0-.77.056-1.134.168a7.053 7.053 0 00-.924.378l-.126.126c-.028.028-.056.042-.084.042h-.042c-.028 0-.042.014-.042.042h-.042c0 .056-.028.098-.084.126-.028 0-.07.028-.126.084-.028.056-.098.098-.21.126-.084.028-.196.112-.336.252a.9.9 0 01-.168.21c-.056.084-.196.154-.42.21a.658.658 0 00-.126.168.489.489 0 01-.126.084l-.336.546c.028.784.294 1.47.798 2.058.504.588 1.246.882 2.226.882zm-.546-12.81a4.245 4.245 0 001.68-.63 5.487 5.487 0 001.428-1.218c.42-.504.742-1.05.966-1.638a4.848 4.848 0 00.378-1.848c0-.476-.14-.868-.42-1.176a1.354 1.354 0 00-1.092-.504c-.476 0-.938.238-1.386.714-.448.448-.868 1.022-1.26 1.722s-.742 1.47-1.05 2.31c-.308.84-.546 1.638-.714 2.394h.63c.336-.028.616-.07.84-.126zm20.357 16.086a.968.968 0 00-.336.084.559.559 0 01-.336.126c-.112.112-.224.21-.336.294-.112.084-.294.154-.546.21-.336.168-.7.308-1.092.42a4.9 4.9 0 01-1.344.168c-.896 0-1.666-.168-2.31-.504a4.558 4.558 0 01-1.512-1.302 5.905 5.905 0 01-.882-1.722 7.32 7.32 0 01-.252-1.848c0-.532.028-1.022.084-1.47.056-.476.154-.952.294-1.428a8.07 8.07 0 01.168-.588c.056-.168.126-.364.21-.588l.42-1.008c.028-.084.056-.196.084-.336.056-.14.126-.28.21-.42.112-.28.266-.56.462-.84.588-.98 1.26-1.736 2.016-2.268.756-.532 1.54-.798 2.352-.798.028.028.056.042.084.042.056 0 .112.014.168.042a.322.322 0 00.126.042c.056 0 .098.014.126.042a.285.285 0 00.21.084c0 .056.042.14.126.252.504.14 1.036.448 1.596.924.588.448 1.12.994 1.596 1.638a9.051 9.051 0 011.176 2.184c.308.784.462 1.582.462 2.394 0 1.26-.252 2.408-.756 3.444-.504 1.008-1.162 1.848-1.974 2.52l-.294.21zm-2.646-9.66c-.056.056-.098.084-.126.084a1.63 1.63 0 01-.21.084.373.373 0 01-.168.042c-.14.028-.266.042-.378.042-.112 0-.238.07-.378.21a.753.753 0 00-.378.252c-.084.084-.238.294-.462.63-.392.42-.658.994-.798 1.722-.14.7-.21 1.372-.21 2.016 0 .7.182 1.246.546 1.638.364.364.868.546 1.512.546 1.064 0 1.974-.308 2.73-.924.784-.644 1.176-1.596 1.176-2.856 0-.952-.266-1.764-.798-2.436-.504-.672-1.162-1.05-1.974-1.134l-.084.084zm15.092 10.794a4.46 4.46 0 01-.63-.042c-.196 0-.364-.028-.504-.084a2.978 2.978 0 00-.378-.126c-.084-.028-.154-.112-.21-.252-.056-.14-.098-.35-.126-.63a6.84 6.84 0 01-.042-.756c0-.616.014-1.134.042-1.554.056-.448.112-.84.168-1.176.056-.336.098-.644.126-.924a4.72 4.72 0 00.084-.924v-4.536c.028-.504.056-.924.084-1.26.028-.364.056-.742.084-1.134l-3.276.294c-.308.028-.672.07-1.092.126a6.82 6.82 0 01-.84.084c-.196 0-.35-.042-.462-.126a.75.75 0 01-.21-.21 1.376 1.376 0 00-.168-.21.752.752 0 01-.21-.42 3.06 3.06 0 01-.042-.504 1.302 1.302 0 00-.084-.252v-.21c0-.196.056-.378.168-.546a.452.452 0 00.084-.252.527.527 0 01.126-.21 4.48 4.48 0 011.134-.294c.42-.084.826-.154 1.218-.21.336-.056.714-.112 1.134-.168.42-.056.826-.112 1.218-.168.42-.056.798-.098 1.134-.126.336-.028.602-.056.798-.084 1.736-.168 3.08-.294 4.032-.378.98-.084 1.694-.14 2.142-.168.476-.056.77-.084.882-.084.112-.028.182-.042.21-.042.14 0 .266.014.378.042h.378c.112 0 .182.07.21.21a8.694 8.694 0 00.42.714c.084.056.126.126.126.21a.93.93 0 01-.042.294 1.093 1.093 0 00-.042.336v.336c.028.112.042.21.042.294 0 .196-.112.364-.336.504a.376.376 0 00-.21.252c-.028.084-.112.154-.252.21-.42.196-1.12.294-2.1.294-.532 0-1.064.014-1.596.042-.532.028-1.036.07-1.512.126-.028.168-.042.42-.042.756s-.014.826-.042 1.47l-.084 1.47a24.07 24.07 0 00-.084 1.008c-.028.42-.056.882-.084 1.386l-.084 1.428v2.352c.028.42.042.91.042 1.47 0 .28-.014.56-.042.84-.028.28-.084.518-.168.714a2.055 2.055 0 00-.126.21.285.285 0 01-.084.21c-.028.028-.154.07-.378.126a1.63 1.63 0 01-.21.084c-.056.056-.112.084-.168.084-.056 0-.14.014-.252.042a.793.793 0 01-.252.042zm21.481-.546c-.56 0-.84-.518-.84-1.554v-.84c.028-.308.084-.63.168-.966.056-.308.112-.602.168-.882a9.09 9.09 0 00.126-1.218v-1.092c0-.364.014-.7.042-1.008-.42.028-.882.056-1.386.084-.476 0-.924.014-1.344.042-.42 0-.798.014-1.134.042h-.588c-.168.028-.406.056-.714.084h-1.05v1.26c.028.42.042.868.042 1.344v.546c0 .252-.028.854-.084 1.806 0 .616-.084 1.106-.252 1.47a.475.475 0 01-.168.168.658.658 0 00-.126.168.527.527 0 00-.126.21.285.285 0 01-.084.21c-.224.168-.518.252-.882.252-.14 0-.28-.014-.42-.042h-.378c-.476 0-.77-.126-.882-.378-.084-.224-.126-.742-.126-1.554v-.672c.028-.336.056-.574.084-.714.084-.784.14-1.4.168-1.848.028-.476.042-.994.042-1.554v-.588c-.14.028-.266.042-.378.042h-.336a1.38 1.38 0 00-.336.042c-.028-.056-.098-.112-.21-.168-.084-.056-.126-.196-.126-.42 0-.196-.028-.35-.084-.462a2.137 2.137 0 01-.042-.42c0-.224.056-.434.168-.63.112-.224.238-.406.378-.546a.846.846 0 01.462-.252c.196-.056.378-.098.546-.126.028-.7.056-1.442.084-2.226.056-.812.112-1.652.168-2.52.056-.476.098-.896.126-1.26.056-.364.196-.658.42-.882.168-.14.322-.238.462-.294.14-.056.364-.084.672-.084.7 0 1.162.182 1.386.546.252.336.378.882.378 1.638 0 .196-.014.392-.042.588-.028.196-.07.406-.126.63-.028.196-.042.42-.042.672 0 .224-.014.462-.042.714v.756l-.084 1.554c.252 0 .448-.014.588-.042l5.586-.336v-1.092c.028-.224.042-.448.042-.672l-.126-2.31c.028-.616.126-1.12.294-1.512.168-.42.476-.7.924-.84.028 0 .098-.014.21-.042h.252a2.36 2.36 0 01.882 0c.14.028.308.098.504.21.224.14.336.308.336.504 0 .056.014.112.042.168.056.056.084.112.084.168 0 .168.028.294.084.378.056.056.084.168.084.336a.691.691 0 01-.042.21v.21c.028.028.042.14.042.336 0 .14-.014.266-.042.378 0 .112-.014.238-.042.378-.056.392-.126.91-.21 1.554a49.63 49.63 0 00-.21 1.764c-.056.756-.112 1.834-.168 3.234-.056 1.4-.084 3.024-.084 4.872 0 .728-.07 1.288-.21 1.68-.112.392-.56.644-1.344.756-.168.028-.35.042-.546.042h-.588zm10.824.378c-.336 0-.602-.084-.798-.252a2.713 2.713 0 01-.546-.672 2.394 2.394 0 01-.126-.42c0-.14-.028-.294-.084-.462a4.394 4.394 0 00-.252-.714 3.053 3.053 0 01-.126-.882c0-.476.014-.91.042-1.302.056-.42.14-1.008.252-1.764.028-.14.07-.364.126-.672.084-.308.14-.546.168-.714 0-.084.028-.224.084-.42.056-.196.084-.35.084-.462 0-.196.014-.378.042-.546a21 21 0 01.126-.756.93.93 0 00-.042-.294v-.336c.056-.56.098-1.134.126-1.722.056-.616.084-1.232.084-1.848a6.84 6.84 0 00-.042-.756v-.798c0-.448.112-.826.336-1.134.084-.14.182-.224.294-.252.14-.056.308-.112.504-.168.14-.056.28-.098.42-.126.14-.056.294-.084.462-.084.28 0 .49.042.63.126.14.056.294.112.462.168.14.056.224.168.252.336.056.14.084.28.084.42.112 0 .182.098.21.294.028.196.042.378.042.546 0 .476-.112 1.162-.336 2.058a22.317 22.317 0 00-.504 2.73 7.34 7.34 0 01.84-1.302c.364-.42.784-.798 1.26-1.134.224-.14.49-.28.798-.42.308-.168.602-.28.882-.336.336-.084.602-.168.798-.252.196-.084.462-.126.798-.126.672 0 1.274.14 1.806.42.532.252.98.602 1.344 1.05.392.42.686.91.882 1.47a5.3 5.3 0 01.294 1.764c0 1.764-.378 3.262-1.134 4.494a9.398 9.398 0 01-2.814 3.024 11 11 0 01-3.78 1.68c-1.372.364-2.688.546-3.948.546zm2.436-3.864c.868 0 1.652-.14 2.352-.42.728-.308 1.344-.7 1.848-1.176a5.411 5.411 0 001.176-1.764c.28-.672.42-1.386.42-2.142 0-.392-.098-.728-.294-1.008-.196-.308-.574-.462-1.134-.462h-.042c-.028 0-.042.014-.042.042h-.168c-.056 0-.098.014-.126.042-.224 0-.378.042-.462.126-.14.028-.238.07-.294.126a3.644 3.644 0 01-.378.294 3.45 3.45 0 00-1.386 1.302 16.594 16.594 0 00-1.386 1.974 22.79 22.79 0 00-.924 1.722l-.084 1.176c.084.056.224.098.42.126.196.028.364.042.504.042zm15.708-12.852c0 .672-.042 1.47-.126 2.394-.056.924-.126 1.876-.21 2.856-.084.98-.168 1.932-.252 2.856a37.803 37.803 0 00-.084 2.31c0 .812-.014 1.582-.042 2.31-.028.728-.112 1.358-.252 1.89-.14.532-.322.84-.546.924 0 .14-.056.238-.168.294a.986.986 0 01-.336.21c-.224.056-.42.084-.588.084h-.42c-.14 0-.28-.028-.42-.084-.392-.084-.644-.224-.756-.42-.084-.196-.126-.504-.126-.924 0-.392.084-.966.252-1.722.196-.756.336-1.484.42-2.184a.793.793 0 00-.042-.252v-.294c0-.196.014-.35.042-.462.056-.112.098-.266.126-.462.028-.14.042-.28.042-.42v-.462a53.64 53.64 0 00.126-3.948c0-.644-.028-1.232-.084-1.764a29.289 29.289 0 01-.042-1.428c0-.392.028-.77.084-1.134.056-.392.21-.686.462-.882a.4.4 0 01.168-.336c.112-.084.238-.154.378-.21.224-.056.42-.084.588-.084.168 0 .322.028.462.084.168.056.322.084.462.084.252 0 .462.084.63.252.168.168.252.476.252.924zm8.207 11.55h-1.932a17.423 17.423 0 00-.714-.084c-.448-.056-.784-.168-1.008-.336a2.215 2.215 0 01-.462-.672 2.964 2.964 0 00-.21-.294v-.168c.028-.028.042-.07.042-.126-.028-.028-.042-.07-.042-.126 0-.084.028-.182.084-.294-.028-.028-.042-.07-.042-.126v-.126c.028-.028.042-.07.042-.126 0-.028-.014-.056-.042-.084v-.084c.084-.364.308-.672.672-.924.392-.252.784-.378 1.176-.378.448 0 .868.042 1.26.126.392.056.742.084 1.05.084.028-1.12.182-2.17.462-3.15.28-1.008.672-1.876 1.176-2.604.504-.756 1.12-1.344 1.848-1.764.756-.448 1.624-.672 2.604-.672.224 0 .42.028.588.084.196.028.322.07.378.126l.672.252.42.168c.168.056.294.14.378.252a1.5 1.5 0 01.42.42c.14.168.28.35.42.546.364.56.546 1.246.546 2.058 0 .672-.168 1.358-.504 2.058a8.615 8.615 0 01-1.26 2.016 11.256 11.256 0 01-1.89 1.722c-.7.504-1.442.938-2.226 1.302.504.56 1.19.84 2.058.84.728 0 1.358-.042 1.89-.126a8.355 8.355 0 011.722-.168c.168 0 .336.028.504.084.196.028.336.056.42.084 0 .056.056.126.168.21.112.084.21.21.294.378a.373.373 0 01.042.168.373.373 0 01-.042.168c-.028.028-.042.07-.042.126 0 .056.014.098.042.126-.056.056-.084.168-.084.336 0 .112.014.196.042.252-.056.056-.126.14-.21.252a.746.746 0 00-.084.336c0 .084.014.14.042.168-.112.056-.448.294-1.008.714a2.1 2.1 0 01-.294.21l-.252.126a.468.468 0 01-.21.042.373.373 0 00-.168.042c-.112 0-.182.014-.21.042-.028 0-.056-.014-.084-.042h-.126c0 .028-.014.042-.042.042l-.168-.084h-.672a4.035 4.035 0 01-.294.084 1.767 1.767 0 01-.42.042 3.48 3.48 0 01-.63.042c-1.064 0-2.114-.308-3.15-.924-1.008-.616-1.792-1.498-2.352-2.646h-.588zm6.006-8.148a.585.585 0 00-.252-.042c-.392 0-.77.21-1.134.63a5.757 5.757 0 00-.84 1.302c-.112.28-.224.588-.336.924-.084.336-.154.714-.21 1.134.336-.028.686-.14 1.05-.336.364-.224.7-.476 1.008-.756.336-.308.602-.63.798-.966.224-.364.336-.728.336-1.092 0-.28-.084-.504-.252-.672l-.168-.126z" fill="#fff"/><defs><radialGradient id="paint0_radial" cx="0" cy="0" r="1" gradientUnits="userSpaceOnUse" gradientTransform="matrix(48.70694 126.07235 -151.7133 58.6131 171.252 124.969)"><stop stop-color="#407B9A" stop-opacity=".9"/><stop offset=".645" stop-color="#3682A1"/><stop offset=".947" stop-color="#C6DDEE" stop-opacity=".8"/><stop offset="1" stop-color="#fff" stop-opacity=".8"/></radialGradient><linearGradient id="paint1_linear" x1="269.808" y1="54.433" x2="237.723" y2="86.352" gradientUnits="userSpaceOnUse"><stop stop-color="#fff"/><stop offset=".475" stop-color="#D4EFFD" stop-opacity=".5"/><stop offset="1" stop-color="#3699D6" stop-opacity="0"/></linearGradient></defs></svg>