<svg width="182" height="106" fill="none" xmlns="http://www.w3.org/2000/svg"><path d="M123.818 1.6c-5.825-.6-11.752-1.2-17.15.3-7.072 2-12.575 7.6-17.904 13L68.517 35.6c-6.4 6.6-13.231 13.3-22.114 14.5-6.916.9-14.315-1.8-21.51-2.7-8.466-1.1-16.655.3-23.884 4.1 12.587 13.8 21.263 31.8 24.344 50.8.13.8.29 1.6.772 2.3 1.112 1.5 2.889.701 3.976-.399 8.167-7.7 12.659-21.5 23.356-23.9C59.223 79 65.627 81.4 71.68 84.1c10.077 4.5 20.092 9.9 30.356 12.4 7.332 1.9 14.633 2.2 21.89 2.6 5.805.2 11.712.5 16.959-1.5 5.623-2.1 10.124-6.6 14.4-11.1 9.96-10.7 19.689-22.5 23.345-38.6 2.14-9.5 2.054-19.9 1.958-30.1-.122-13.3-14.901-11.5-22.192-12.3l-34.579-3.9z" fill="#255776" stroke="#5B7BBB" stroke-miterlimit="10"/></svg>