<svg width="324" height="518" fill="none" xmlns="http://www.w3.org/2000/svg"><path d="M145.888 467C257.295 467 323 325.388 323 140.239V1c-7.613 0-92.863.733-176.322.733C63.212 1.733 10.121 1 3 1v129.712C3 315.861 34.48 467 145.888 467z" fill="#DCEFF9" stroke="#fff" stroke-width=".25" stroke-miterlimit="10"/><path d="M160.1 314.135c78.9 0 142.8-60.335 142.8-134.691S239 44.753 160.1 44.753 17.3 105.088 17.3 179.444s63.9 134.691 142.8 134.691z" fill="#FFFCE8" fill-opacity=".5"/><path d="M160.101 275.146c55.999 0 101.399-42.877 101.399-95.704 0-52.827-45.4-95.704-101.399-95.704-56 0-101.4 42.877-101.4 95.704 0 52.827 45.4 95.704 101.4 95.704z" fill="#FFF7BD" fill-opacity=".5"/><path d="M158.099 229.375c29.3 0 53-22.343 53-50.023 0-27.68-23.7-50.023-53-50.023-29.299 0-52.999 22.343-52.999 50.023 0 27.68 23.7 50.023 52.999 50.023z" fill="#FEF4A2"/><path d="M323 307.46H2.334v149.552H323V307.46z" fill="url(#paint0_linear)"/><path opacity=".6" d="M2.333 304.2v-56.662c9.45-22.289 35.35-50.121 35.35-50.121 3 4.546 16.667 25.947 19.5 24.395 4.45-2.384 10.117-10.091 10.934-11.421 1.7-2.828 13.833-.167 18.367 2.106 0 0 8.716-10.09 12.833-9.924 2.366.111 9.533 17.298 23.816 50.01 1.084 2.495 8.95-7.651 8.95-7.651 5.184 4.712 9.5 29.551 9.5 29.551 3.65 5.045 3.3 25.337 4.667 29.773L2.333 304.2zM323 307.46V162.198l-37.91 22.433c-3.213 5.194-17.875 29.837-20.921 28.069-4.77-2.763-10.846-11.603-11.716-13.15-1.825-3.26-14.829-.221-19.7 2.431 0 0-9.339-11.603-13.758-11.382-2.544.11-10.226 19.946-25.541 57.519-1.171 2.873-9.59-8.841-9.59-8.841-5.557 5.415-10.193 33.981-10.193 33.981-3.917 5.802-3.548 29.119-5.004 34.202H323z" fill="#ACDCF6"/><path d="M310.006 366.349c-3.657-1.72-4.709-3.329-9.269-9.655-4.543-6.27-21.244 4.55-26.154 6.603-4.91-2.053-21.628-12.817-26.155-6.603-4.559 6.326-5.611 7.935-9.269 9.655-10.438 4.882-19.106-7.99-22.213-1.11-.601 1.332 1.654 20.807.401 34.679-1.002 11.041-46.513 17.034-47.532 10.431-1.687-10.82.835-21.362 0-23.97-2.656-8.489-11.958-3.274-12.426-6.603-1.102-7.823.535-12.595.067-20.696-.401-6.936-25.937-16.368-39.449-3.717-15.532 14.481-27.607 20.03-39.215 22.138-.267.056.435 7.657.168 7.713-.502.055-5.73-2.996-5.896-4.494-.752-6.714-25.77-4.994-32.083-3.163v-.111c-6.213-1.831-31.4-3.496-32.15 3.218-.168 1.554-5.395 4.605-5.896 4.494-.267-.055.434-7.657.167-7.712-.25-.056-.518-.111-.768-.167v79.678h38.58v.055H323v-91.607c-3.691 1.61-8.15 3.163-12.994.944z" fill="url(#paint1_linear)"/><path d="M2.333 333.086v-39.032c13.884-18.296 31.05-50.786 34.5-51.285 3.167-.443 4.267 3.049 8.15.665 3.784-2.328 4.8-9.148 9.3-15.524 3.734-5.267 4.9-2.716 8.267-8.039 6.1-9.592 13.35-35.095 13.934-32.268 2.433 11.477 10.083 34.874 10.983 48.624 1.683 25.836-.25 46.794-.25 46.794 2.817 6.93 7.867-8.594 21.533-14.194 5.1-2.106 11.217.555 15.784-.942 12.2-3.992 12.866-9.592 16.366-6.709 5.4 4.38 8.384 15.746 14.034 37.258 4.983 18.961 7.466 28.442 7.2 34.486l-159.8.166z" fill="#FAFDFF"/><path d="M40.8 333.085c.3-3.16 1.55-7.928 1.55-7.928 2.583-7.928 21.15-50.231 23.916-50.675 2.534-.443 3.167 4.38 6.25 1.996 3.017-2.329 3.917-13.583 7.5-19.959 2.984-5.267 3.9-2.828 6.617-8.04 2.717-5.211 5.633 10.535 6.1 13.307 1.95 11.476 4.533 21.345 5.25 35.095 1.334 25.837 6.233 28.997 8.617 28.83 4.65-.221 6.866-17.021 17.8-22.62 4.083-2.107 9.633 2.107 13.3.776 4.566-1.663 6.1-10.701 8.9-7.873 4.316 4.38 10.066 15.58 14.583 37.091H40.8z" fill="#B5E0F1"/><path d="M.8 332.919c.3-3.16 1.55-7.928 1.55-7.928 2.583-7.928 21.15-50.231 23.916-50.675 2.534-.443 3.167 4.38 6.25 1.996 3.017-2.328 3.917-13.583 7.5-19.959 2.984-5.267 3.9-2.828 6.617-8.04 2.717-5.211 5.633 10.535 6.1 13.307 1.95 11.476 4.534 21.345 5.25 35.095 1.334 25.837 6.233 28.997 8.617 28.831 4.65-.222 6.867-17.021 17.8-22.621 4.083-2.107 9.633 2.107 13.3.776 4.566-1.663 6.1-10.701 8.9-7.873 4.316 4.38 10.066 15.58 14.583 37.091H.8z" fill="#B5E0F1"/><path d="M152.267 321.72c-.8-1.608-7.517-2.55-9.5-3.105-1.9-.554-3.717-2.827-5.6-3.714-.884-.444-1.367-6.543-2.15-5.046-.267.499-.884 6.764-1.817 7.651-1.983 1.83-1.2 8.705-7.617 2.052-1.966-2.052-2.716 7.152-5 3.77-.7-1.054-2.95 1.996-3.866 1.774-3.15-.776-4.034.998-5.967 3.216-1.917 2.162-6.783 2.495-8.767 3.881-1.016.721-2.4.998-3.416.111-1.9-1.885-5.084-10.756-5.5-14.305-.467-3.992-2.9 10.812-4.184 10.978-1.05.111-2.266.056-2.933-3.105-.283-1.275-.467-2.772-.8-3.936-.417-1.442-.983-2.052-1.517-2.828-1.133-1.608-4.166-13.084-5.033-15.967-.617-1.996-2.05-15.414-2.633-9.98-.367 3.437-2.284 24.395-2.85 27.777-1.267 7.485-3.767 9.702-6.117 12.253h92c.05-1.664-4.933-7.873-6.733-11.477zm-93.8 11.366c-1.05-2.772-2.384-2.828-3.4-5.821a21.35 21.35 0 01-1.034-4.879c-.1-1.165-.133-2.329-.217-3.493a39.621 39.621 0 00-.333-3.327c-.15-1.22-.35-2.384-.533-3.548-.15-.887-.483-1.885-.634-1.996-.066-.056-.033.277-.033.499a13.664 13.664 0 01-.25 3.16c-.15.776-.283 1.552-.367 2.439-.2 1.996-.2 4.159-.3 6.266-.1 2.273-.233 4.49-.4 6.708-.116 1.497-.55 3.493-1.05 4.048h8.55v-.056z" fill="#87C8E1"/><path opacity=".6" d="M98.367 231.902c-.4-1.386-.867-2.44-1.3-3.66a20.715 20.715 0 01-1.167-4.324c-.284-1.83-.45-3.826-.384-5.877 0-.166.017-.333.034-.555.15-1.552.117-3.271.166-4.934.034-1.164-.15-1.386-.166-.277-.084 3.493-.883 7.041-.883 10.589 0 3.161.416 6.155.983 8.594.3 1.275.633 2.495 1.016 3.548.417 1.165.884 2.218 1.25 3.549.734 2.661 1.1 6.431 1.334 9.924.283 4.269.45 9.924.25 14.249-.05 1.109.15.887.233-.277.517-8.317.533-17.964-.45-25.837-.25-1.718-.533-3.326-.916-4.712zm26.133 43.189c-1.45 5.655-2.917 7.484-6.2 9.037-1.017.499-2.05 1.386-2.867 3.659-.217.61-.4 1.275-.567 2.051a4.67 4.67 0 00-.116.555 55.805 55.805 0 00-.8 5.211c-.117 1.109.05 1.165.166.056.184-1.719.617-3.715.95-5.212.3-.942.934-.388 1.334-.554.4-.166.816-.333 1.216-.499a6.629 6.629 0 002.617-1.996c1.75-2.218 2.95-6.986 4.233-11.31.234-.777.284-1.83.034-.998zm24.333 16.301c-.616-1.608-1.166-2.717-1.416-5.212-.15-1.497.083-5.322.133-6.819.05-1.442.167-2.883 0-4.214-.283-2.384-.85-3.77-1.517-4.934-.85-1.442-1.75-2.606-2.683-3.327-.233-.166-.333-.055-.133.277.766 1.22 1.916 2.939 2.433 4.768.517 1.83.4 4.602.55 7.097.1 1.497-.017 3.659.133 5.045.117 1.165.3 2.273.534 3.271.466 2.052 1.166 3.771 1.916 4.491.217.167.234.056.05-.443z" fill="#A9D5E4"/><path d="M157.117 358.978s-5.667-.609-6.05 5.6c-.45 7.263 5.4 17.021 5.983 15.081 0 0-.233-1.553-.333-3.382a29.038 29.038 0 01-.05-1.719c-.034-6.154.85-7.873.45-15.58zm59.3 6.764s4.25-1.22 5.3 4.657c1.833 10.423-3.084 25.947-4.85 29.662 0 0 .633-6.154.333-16.411-.317-9.647-.983-13.972-.783-17.908zM169.6 387.198s-.8.887-1.9 2.052c-1.417 1.497-2.117.499-2.3 1.774-.233 1.552-.117 6.487 1.083 11.976 1.284 5.821 2.817 7.595 2.984 7.373 0 0-.55-5.1-.55-11.809.016-1.497.883-7.817.683-11.366zm70.317-21.622s1.9-.998 4.533-4.269c1.617-1.996 3.267-5.378 3.883-5.212 0 0 1.434-.832 3.067 1.663 1.85 2.883 3.9 9.148 3.617 9.037-5-2.55-15.067-.277-15.1-1.219z" fill="#B5E0F1"/><path d="M183.333 216.367s1.24 6.901 2.865 17.335c.318 2.043 2.11 1.325 2.462 3.644.435 2.926-.57 8.889-.118 12.091 2.546 18.218 5.142 40.632 5.46 58.023H323v-80.438c-14.789 13.747-24.336 1.877-33.263 3.754-8.089 1.712-17.2.276-27.652-2.263-.887-.221.218 3.202-.703 2.981-.72-.165-3.467-3.975-4.221-4.196-19.512-5.024-43.513-12.587-73.828-10.931z" fill="#FAFDFF"/><path d="M192.233 307.748c.267-12.363.45-23.341.584-32.933.033-3.16 1.2-1.996 1.233-4.879.05-4.712-1.05-13.195-1.033-17.132.033-7.263.016-13.195 0-17.852-.017-1.719.316-1.83.3-3.216 0-.887-.35-3.16-.367-3.937a337.19 337.19 0 00-.083-5.488c3.266.998 7.55 2.106 12.533 4.102.283.111-.233 5.267.767 8.483 1.333 4.269.55 14.637.916 15.302.267.499 1.167-4.989 1.4-12.031.167-5.322.284-10.368.484-10.257 10.116 4.602 22.5 12.919 34.916 30.328 0 0 18.084-5.6 25.75-25.449 0 0 .884 9.592 1.867 23.453.133 1.885 2.433-8.871 2.567-6.875v58.271h-81.834v.11z" fill="#B5E0F1"/><path d="M242.633 273.873c-.6 0-2.783-1.331-5.583-12.863-2.35-9.703-5.9-16.245-5.9-16.245-1.033-1.774-2.633-3.881-2.633-3.881 5.016 4.491 10.183 10.146 15.366 17.409 0 0 18.084-5.6 25.75-25.448 0 0 .817 6.431.817 9.591 0 0-3.367 14.637-11.983 13.528-4.167-.498-15.834 17.909-15.834 17.909zm-22.883-39.809c-.417 1.22.366 6.487.866 9.925.817 5.655 1.05 7.984 1.167 11.088.167 4.824-.5 6.82-.417 6.931.084.111 1.317-4.269 1.217-9.758-.1-5.212-.167-7.485.233-9.758.367-2.162.067-5.489 1.634-4.99 0 0-1.217-.832-2.184-1.663-1.15-1.054-2.516-1.775-2.516-1.775zM2.333 332.919H48.3c.066-1.552-4.9-7.762-6.717-11.31-.8-1.608-7.517-2.551-9.5-3.105-1.9-.555-3.717-2.828-5.6-3.715-.883-.443-1.367-6.542-2.15-5.045-.267.499-.883 6.764-1.817 7.651-1.983 1.83-1.2 8.705-7.616 2.051-1.967-2.051-2.717 7.153-5 3.771-.7-1.054-2.95 1.996-3.867 1.774-1.75-.388-2.8-.056-3.717.72l.017 7.208z" fill="#87C8E1"/><path d="M323 236.692c-3.29-.946-6.394-.445-9.11 2.895 0 0-29.441 26.836-44.304-6.903 0 0-1.586 10.912-1.586 16.368 0 0 6.495 24.943 23.181 23.05 8.081-.947 30.655 30.454 30.655 30.454.253 0 .641-.111 1.164-.445v-65.419z" fill="#87C8E1"/><path d="M322.983 238.942c-5.948 4.816-12.165 11.181-18.383 19.76 0 0-18.333-5.59-26.106-25.405 0 0-.895 9.575-1.892 23.412-.135 1.882-2.467-8.855-2.602-6.863v58.227h49l-.017-69.131z" fill="#B5E0F1"/><path opacity=".44" d="M40.8 333.086v10.867c10.533 5.101 23.583 14.193 26.2 14.304 2.4.111 3.25-.832 6.183-.166 2.867.665 3.65 2.55 7.067 4.324 2.833 1.497 3.716.777 6.283 2.218 4.633 2.661 10.133 9.814 10.584 8.982 1.85-3.216 7.666-9.703 8.333-13.584 1.266-7.207-.184-13.029-.184-13.029 2.15-1.94 5.967 2.384 16.35 3.937 3.867.554 8.517-.167 11.984.277 9.266 1.109 9.766 2.661 12.433 1.885 4.1-1.22 6.367-4.38 10.65-10.368 3.783-5.267 5.667-7.928 5.467-9.592l-121.35-.055z" fill="url(#paint2_linear)"/><path d="M2.367 474.815c2.605 7.609 8.15 13.94 11.507 14.384 16.517 2 32.267-8.331 48.684-12.996 8.3-2.333 16.6-5.554 24.951-4.721 14.263 1.389 28.342 14.44 42.504 10.053 4.844-1.5 9.587-5.054 14.464-5.61 13.511-1.61 25.853 19.384 39.331 22.327 18.605 4.055 36.391-26.492 54.946-21.271 4.209 1.166 8.384 4.221 12.61 3.721 4.041-.5 7.899-4.221 11.891-5.887 6.881-2.833 13.912.722 20.742 4.221 13.512 6.942 28.576 35.656 38.981 38.655.05 0 0-1.555 0-1.666v-7.109c-.017-1.222.017-7.665.017-12.83 0-.833-.017-27.103 0-31.602.016-7.72-.017-7.164-.017-12.274v-.444c-.017-.722-1.102.833-1.687 1.222-3.323 2.166-6.814 2.221-10.221 2.166-31.866-.222-63.715-.389-95.58-.611l-53.678-.333-58.036-.334c-29.01-.166-58.02-.333-87.03-.555-5.811-.056-12.492-7.22-14.412 3.277" fill="#94D8F0"/><path d="M37.23 437.181c-2.054.172-3.885.903-5.85.344-3.973-1.119-7.411-3.657-10-6.797a.932.932 0 00-.18-.216c-2.634-3.226-4.465-6.969-5.938-10.798-1.295-3.398-2.411-6.969-2.143-10.583.223-3.399 1.83-6.883 4.733-8.733.178-.129.357-.215.535-.344 3.26-1.764 8.038-.99 9.868 2.194 5.894 10.325 7.144 23.317 8.975 34.933z" fill="#B0C9CC"/><path d="M91.392 407.625c-.938 9.465-3.974 18.757-9.064 26.931H31.605a61.414 61.414 0 01-6.921-15.617c-.268-.946-.536-1.892-.76-2.882 0-.043-.044-.086-.044-.172a68.514 68.514 0 01-1.429-8.991c-.893-10.196.67-20.564 4.644-30.029a56.504 56.504 0 011.741-3.7c2.099-4.173 4.689-8.131 6.475-12.476.446-1.118.848-2.28 1.16-3.441.894-3.356 1.072-6.884 0-10.153h40.99c-1.116 3.398-.848 7.055.09 10.497.312 1.075.67 2.108 1.071 3.097 1.741 4.345 4.331 8.303 6.474 12.476 5.403 10.626 7.457 22.715 6.296 34.46z" fill="#FFFBF2"/><path d="M45.356 330.746c-1.384-.688-2.813-1.291-4.33-1.42-1.519-.129-3.17.344-4.153 1.549-.804.989-.982 2.323-.804 3.528.268 1.807 1.295 3.484 2.813 4.603 2.099-2.624 4.376-5.636 6.474-8.26z" fill="#F7F3D6"/><path d="M40.579 337.63c-.848-.774-1.697-1.591-2.099-2.667-.401-1.076-.178-2.409.76-3.011.625-.388 1.473-.388 2.232-.259 1.072.215 2.099.689 2.902 1.42-1.473 1.592-2.5 2.839-3.795 4.517z" fill="#B0C9CC"/><path d="M67.28 330.746c1.384-.688 2.813-1.291 4.331-1.42 1.518-.129 3.17.344 4.153 1.549.804.989.982 2.323.804 3.528-.268 1.807-1.295 3.484-2.813 4.603-2.144-2.624-4.42-5.636-6.475-8.26z" fill="#F7F3D6"/><path d="M72.058 337.63c.848-.774 1.697-1.591 2.099-2.667.401-1.076.178-2.409-.76-3.011-.625-.388-1.473-.388-2.232-.259-1.072.215-2.099.689-2.902 1.42 1.428 1.592 2.5 2.839 3.795 4.517zm4.51 16.219c-4.331 5.507-9.823 15.1-19.602 15.1-9.868 0-14.958-10.368-19.423-16.046.893-3.356.045-2.539-1.027-5.808h40.99c-1.161 3.398-1.876 3.269-.938 6.754z" fill="#B0C9CC"/><path d="M80.899 349.075c-4.063 6.238-11.252 16.046-23.933 16.046-12.68 0-19.2-9.938-23.933-16.305 2.277-6.969 6.296-13.422 11.654-18.628.134-.043.268-.043.402-.086 8.126-1.591 14.78-1.419 23.04.258.089 0 .223.043.357.087 3.84 3.742 9.064 9.593 11.029 14.541a29.336 29.336 0 011.384 4.087z" fill="#FFFBF2"/><path d="M67.95 352.429c-.045.129-.134.259-.179.388-1.071 1.979-3.304 3.441-5.804 4.13-2.5.688-5.224.688-7.814.301-2.233-.301-4.465-.904-6.162-2.151-1.116-.775-1.965-1.893-2.233-3.055a3.411 3.411 0 010-1.893c.358-1.204 1.295-2.194 2.322-3.097 1.027-.904 2.188-1.721 2.992-2.71.848-1.033 1.34-2.324.938-3.485 2.857-1.119 7.858-.947 9.376-.258-.446 1.721.179 3.57 1.608 4.861.982.86 2.322 1.463 3.393 2.237.804.602 1.474 1.291 1.742 2.151.312.861.178 1.764-.18 2.581z" fill="#F7F3D6"/><path d="M51.786 348.258c.134-.602 1.161-.774 1.965-.86a57.216 57.216 0 016.072-.043c.715.043 1.697.129 1.786.688.447 3.012-4.822 5.808-4.822 5.808-.044 0-5.581-2.968-5-5.593z" fill="#240B00"/><path d="M76.835 437.181c2.054.172 3.885.903 5.85.344 3.974-1.119 7.412-3.657 10.001-6.797a.932.932 0 01.179-.216c2.634-3.226 4.465-6.969 5.939-10.798 1.339-3.398 2.411-6.969 2.187-10.583-.223-3.399-1.83-6.883-4.733-8.733-.178-.129-.357-.215-.535-.344-3.26-1.764-8.037-.99-9.868 2.194-5.939 10.325-7.234 23.317-9.02 34.933z" fill="#B0C9CC"/><path d="M92.731 430.771a.943.943 0 01.179-.215c2.634-3.227 4.465-6.969 5.938-10.798 1.34-3.399 2.411-6.97 2.188-10.583-.223-3.399-1.83-6.884-4.733-8.734a76.86 76.86 0 00-3.572 30.33z" fill="#FFFBF2"/><path d="M46.608 339.911c-2.233.775-4.286 1.936-6.028 3.485 1.875.817 3.795 1.678 5.805 1.85 5.18.387 6.474-2.797 6.162-3.528-.402-.86-1.653-3.269-5.94-1.807zm20.048 0c2.232.775 4.286 1.936 6.027 3.485-1.875.817-3.795 1.678-5.804 1.85-5.18.387-6.475-2.797-6.162-3.528.357-.86 1.607-3.269 5.939-1.807z" fill="#F7F3D6"/><path d="M49.063 344.344c-.536.258-1.295.387-2.278.344-.401-.043-.803-.086-1.205-.215-.76-.215-1.474-.559-2.188-.86.58-.56 1.295-.99 2.01-1.377.49-.258.982-.473 1.473-.645.491-.173.893-.259 1.25-.259 1.518-.086 2.01.904 2.188 1.291.179.301-.134 1.205-1.25 1.721zm17.235-2.755c1.294.43 2.5 1.118 3.482 2.022-1.071.473-2.188.989-3.349 1.075-2.991.215-3.75-1.635-3.572-2.065.224-.473.938-1.893 3.439-1.032z" fill="#FFFBF2"/><path d="M67.95 352.431c-.045.129-.134.258-.179.387-1.072 1.979-3.304 3.442-5.804 4.13-2.5.689-5.225.689-7.814.301-2.233-.301-4.465-.903-6.162-2.151-1.116-.774-1.965-1.892-2.233-3.054.804 1.205 2.233 2.065 3.617 2.667 2.367.99 4.599 1.377 7.412-.86 2.5 2.581 6.608 1.204 8.037.516a23.352 23.352 0 003.126-1.936zm14.422 82.125H31.604a61.423 61.423 0 01-6.92-15.616 53.453 53.453 0 01-.76-2.883c0-.043-.044-.086-.044-.172a68.514 68.514 0 01-1.43-8.991c.18-.387.358-.817.537-1.205 3.259-7.313 9.778-12.949 14.69-19.359.714 5.507 4.465 30.459 19.557 30.803 14.6.344 20.048-26.157 20.316-34.029 6.162 2.839 9.644 10.583 11.877 16.821.893 2.495 1.518 5.076 1.964 7.657-.893 9.551-3.929 18.8-9.02 26.974z" fill="#B0C9CC"/><path d="M77.773 418.038c-.67 5.851-2.411 11.358-5.045 16.563H39.954c-2.367-4.947-3.572-10.282-4.063-15.875 3.661 2.711 7.322 5.378 11.475 7.314 4.152 1.936 8.796 3.011 13.35 2.323 6.743-1.032 12.1-5.808 17.057-10.325z" fill="#94ADAF"/><path d="M44.151 339.008c.313 0 .58-.086.804-.258.803-.731 2.456-1.333 4.688-.774.536.129 1.072-.086 1.25-.43.179-.344-.089-.775-.58-.904-2.68-.688-5.403-.172-6.92 1.248-.313.301-.224.731.178.989.178.086.401.129.58.129zm25.094 0a1.28 1.28 0 01-.804-.258c-.804-.731-2.456-1.333-4.689-.774-.535.129-1.071-.086-1.25-.43-.178-.344.09-.775.58-.904 2.68-.688 5.404-.172 6.922 1.248.312.301.223.731-.179.989a1.419 1.419 0 01-.58.129z" fill="#F7F3D6"/><path d="M49.242 437.955h-17.19c-.939-1.85-1.787-3.7-2.59-5.55-1.876-4.388-3.483-8.862-4.734-13.422a55.385 55.385 0 01-.759-2.883c0-.043-.044-.086-.044-.172-2.992-12.949-1.965-26.759 3.215-39.063 5.849.086 12.591 5.421 15.761 10.153-4.599 16.563-1.607 31.448 4.912 47.581.491 1.076.938 2.194 1.429 3.356z" fill="#FFFBF2"/><path d="M44.91 437.353c0 .215-.044.387-.089.602h-12.77c-.938-1.85-1.786-3.7-2.59-5.55 5.716-.344 12.056 1.291 13.038 1.936 1.027.689 2.456 1.764 2.412 3.012z" fill="#F7F3D6"/><path d="M46.697 442.345c-1.072.473-2.68.775-4.51.947-.982.086-2.054.129-3.17.172-.893 0-1.786 0-2.68-.043a35.234 35.234 0 01-3.125-.258 35.801 35.801 0 01-2.41-.345 21.051 21.051 0 01-3.037-.688 8.333 8.333 0 01-1.965-.86c.313-3.141 3.215-5.421 6.385-6.195 5.85-1.377 13.217-.431 14.333.172 1.117.602 2.68 1.505 2.769 2.71.133 1.764-.938 3.657-2.59 4.388z" fill="#FFFBF2"/><path d="M31.336 439.719l-.536 3.098a21.05 21.05 0 01-3.036-.688 7.81 7.81 0 011.652-2.797c.268-.301.536-.559.938-.645.357-.086.848.043.982.387.045.172 0 .43 0 .645zm5.18.473c-.045 1.076-.134 2.108-.179 3.184a34.857 34.857 0 01-3.126-.259 8.215 8.215 0 011.34-3.14c.223-.301.491-.602.848-.774.358-.129.849-.043 1.027.258.134.258.09.516.09.731zm5.671 3.099c-.983.086-2.054.129-3.17.172-.045-1.162.223-2.28.67-3.356.178-.344.357-.688.67-.903.312-.215.803-.215 1.07.086.135.172.18.43.224.645.178 1.076.357 2.237.536 3.356z" fill="#240B00"/><path d="M64.78 437.956h17.19a103.955 103.955 0 007.368-19.015c.268-.947.536-1.893.76-2.883 0-.043.044-.086.044-.172 2.992-12.949 1.965-26.759-3.215-39.063-5.85.086-12.592 5.421-15.762 10.153 4.6 16.563 1.608 31.448-4.911 47.581-.491 1.119-.983 2.237-1.474 3.399z" fill="#FFFBF2"/><path d="M69.29 437.353c0 .215.045.387.09.602h12.77c.937-1.85 1.785-3.7 2.59-5.55-5.716-.344-12.056 1.291-13.039 1.936-1.071.689-2.5 1.764-2.41 3.012z" fill="#F7F3D6"/><path d="M67.325 442.345c1.071.473 2.679.775 4.51.947.982.086 2.053.129 3.17.172.893 0 1.786 0 2.679-.043a35.24 35.24 0 003.125-.258 35.801 35.801 0 002.411-.345 21.081 21.081 0 003.037-.688 8.333 8.333 0 001.964-.86c-.312-3.141-3.215-5.421-6.385-6.195-5.85-1.377-13.216-.431-14.333.172-1.116.602-2.679 1.505-2.768 2.71-.134 1.764.938 3.657 2.59 4.388z" fill="#FFFBF2"/><path d="M82.73 439.719l.536 3.098a21.05 21.05 0 003.036-.688 7.81 7.81 0 00-1.652-2.797c-.268-.301-.536-.559-.938-.645-.357-.086-.848.043-.982.387-.09.172-.045.43 0 .645zm-5.225.473c.045 1.076.134 2.108.179 3.184a34.854 34.854 0 003.126-.259 8.213 8.213 0 00-1.34-3.14c-.223-.301-.491-.602-.848-.774-.358-.129-.849-.043-1.027.258-.09.258-.09.516-.09.731zm-5.67 3.099c.982.086 2.054.129 3.17.172.045-1.162-.223-2.28-.67-3.356-.178-.344-.357-.688-.67-.903-.312-.215-.803-.215-1.071.086-.134.172-.179.43-.223.645-.179 1.076-.357 2.237-.536 3.356z" fill="#240B00"/><path d="M21.335 430.771a.946.946 0 00-.179-.215c-2.634-3.227-4.465-6.969-5.939-10.798-1.34-3.399-2.41-6.97-2.187-10.583.223-3.399 1.83-6.884 4.732-8.734a76.858 76.858 0 013.573 30.33z" fill="#FFFBF2"/><path d="M49.42 343.223c0 .43-.134.817-.357 1.119-.536.258-1.295.387-2.278.344-.401-.043-.803-.086-1.205-.215a2.038 2.038 0 01-.447-1.248c0-.344.09-.688.268-.989.491-.259.982-.474 1.474-.646.49-.172.893-.258 1.25-.258a2.038 2.038 0 011.295 1.893z" fill="#240B00"/><path d="M43.437 343.613c.58-.56 1.294-.99 2.009-1.377.491-.258.982-.473 1.473-.645.491-.173.893-.259 1.25-.259 1.519-.086 2.01.904 2.188 1.291l-6.92.99zm20.36-.39c0 .43.134.817.358 1.119.535.258 1.294.387 2.277.344.402-.043.803-.086 1.205-.215.268-.345.447-.775.447-1.248 0-.344-.09-.688-.268-.989a10.84 10.84 0 00-1.474-.646c-.49-.172-.893-.258-1.25-.258a2.038 2.038 0 00-1.295 1.893z" fill="#240B00"/><path d="M69.78 343.613c-.624-.56-1.294-.99-2.009-1.377a10.957 10.957 0 00-1.473-.645c-.491-.173-.893-.259-1.25-.259-1.518-.086-2.01.904-2.188 1.291l6.92.99z" fill="#240B00"/><path d="M39.687 369.681c-2.01-.172-4.198.388-5.448 1.936-1.473 1.807-1.25 4.431-.536 6.625 2.59 8.131 8.707 13.896 17.325 15.746 5.849 1.248 14.065.904 19.423-1.678 5.358-2.581 9.555-7.614 10.404-13.336.49-3.356-.626-7.443-3.93-8.647-2.724-1.033-5.715.301-8.483 1.247-4.957 1.721-10.315 2.323-15.584 1.764-2.321-.258-4.688-.645-6.831-1.506-2.099-.903-4.019-1.936-6.34-2.151z" fill="#FCFAFA"/><path d="M28.434 395.494c.268 1.248.67 2.495 1.474 3.485.803.989 2.143 1.677 3.438 1.419 1.429-.258 2.366-1.505 3.125-2.667a39.671 39.671 0 005.314-12.562c.625-2.839.937-5.98-.402-8.604-1.116-2.194-4.019-4.044-6.653-3.657-2.411.387-3.483 3.227-4.376 5.119-2.545 5.421-3.26 11.659-1.92 17.467zm56.662 0c-.268 1.248-.67 2.495-1.474 3.485-.803.989-2.143 1.677-3.438 1.419-1.429-.258-2.366-1.505-3.125-2.667a39.671 39.671 0 01-5.314-12.562c-.625-2.839-.938-5.98.402-8.604 1.116-2.194 4.019-4.044 6.653-3.657 2.411.387 3.483 3.227 4.376 5.119 2.545 5.421 3.26 11.659 1.92 17.467z" fill="#FCFAFA"/><path d="M203.704 322.761s-1.657-5.222-4.508-7.25c-2.883-2.027-6.297-1.628-6.861-1.013-.563.614 3.447 2.211 3.149 3.41-.298 1.198-2.552 2.488-2.552 2.488l10.772 2.365zm-47.896 21.104c1.558-.675 5.337-3.778 5.337-3.778l1.79.123s2.585 4.055 3.878 5.099c1.292 1.045 4.673 2.857 4.01 3.441-.662.583-8.021 0-9.38-1.843a2.88 2.88 0 01-.331-.523 2.168 2.168 0 01-.497.43c-1.89 1.414-9.082.031-9.58-.706-.43-.737 3.182-1.567 4.773-2.243z" fill="#27262C"/><path d="M225.713 346.17c1.193-1.598.298-7.312-2.586-11.244-2.883-3.932-10.673-9.615-19.125-12.81-8.087-3.072-15.777-3.164-23.103-.86-9.214 2.888-20.55 15.391-20.185 20.736 1.16 1.167 6.065-5.038 9.148-6.39 2.022-.891 11.037-4.424 18.86.031 9.446 5.406 33.345 15.329 36.991 10.537z" fill="#27262C"/><path d="M160.946 342.146c7.325-11.95 20.849-10.721 22.141-11.397 1.293-.676-4.607-3.041-1.591-4.424 3.017-1.382 10.375 4.762 12.463 7.189 2.088 2.426 11.402 5.59 14.054 6.727 2.652 1.137 5.502.952 7.093.676 1.591-.246 4.243 1.474 6.563 3.84 1.492 1.536 3.016 1.689 3.845 1.628-4.21 4.27-27.511-5.437-36.792-10.721-7.822-4.454-16.838-.922-18.86-.031-2.884 1.26-7.458 6.881-8.916 6.513zm47.001-9.954c1.293-.583 4.243 1.905 5.569 2.611 1.292.738 2.519 1.967.729 2.274-1.79.338-9.38-3.472-6.298-4.885z" fill="#F2F2F0"/><path d="M207.317 338.889s-2.552 6.144-9.314 6.728c-6.795.583-8.22-1.014-8.32-1.751-.066-.738 3.746-.062 5.867-1.997 2.089-1.936 3.646-4.885 5.072-5.622l6.695 2.642z" fill="#27262C"/><path d="M217.128 339.103c-.099.338.033.676.299.706.232.062.497-.184.563-.552.1-.338-.033-.676-.298-.706-.199 0-.464.215-.564.552z" fill="#020203"/><path d="M200.058 344.112c-.298 0-.298-.431 0-.462.331.031.298.462 0 .462zm-1.292.582c-.133.092-.233.154-.365.246-.033.031-.1.031-.133.031-.033.03-.099 0-.132 0s-.067-.031-.1-.062l-.099-.092c-.067-.061-.067-.154-.033-.246 0 0 0-.03.033-.061a.249.249 0 01.132-.123c.133-.092.232-.154.365-.246.033-.031.099-.031.133-.031.033-.03.099 0 .132 0s.067.031.1.062l.099.092c.066.061.066.154.033.246 0 0 0 .031-.033.061-.066.031-.099.092-.132.123zm-2.288.37c-.066 0-.166-.031-.265-.031-.033 0-.066-.031-.099-.062a4.356 4.356 0 01-.1-.092c-.033-.031-.033-.092-.033-.123-.033-.031 0-.092 0-.123 0 0 0-.031.033-.061.033-.031.066-.093.133-.123.033 0 .033-.031.066-.031h.166c.066 0 .166.031.265.031.033 0 .066.03.099.061l.1.092c.033.031.033.093.033.123.033.031 0 .093 0 .123 0 0 0 .031-.033.062a.25.25 0 01-.133.123c-.033 0-.033.031-.066.031h-.166zm4.939-1.229c-.033-.031-.066-.031-.099-.062a8.363 8.363 0 01-.1-.092c-.033-.03-.066-.061-.066-.092-.033-.031 0-.092 0-.123 0-.03 0-.061.033-.092 0-.03.033-.061.066-.061.034-.062.1-.062.133-.092h.1c.066 0 .099 0 .165.061.034.031.067.031.1.062l.099.092c.033.03.067.061.067.092.033.03 0 .092 0 .123 0 .03 0 .061-.034.092l-.066.061c-.033.031-.099.061-.133.092h-.099c-.099-.031-.133-.031-.166-.061zm-3.779.338c-.033.031-.099.031-.165.031h-.1c-.033 0-.033 0-.099-.031-.033 0-.067-.03-.067-.061-.033 0-.033-.062-.033-.093v-.061c0-.031 0-.062.033-.123l.034-.031c.033-.031.066-.061.099-.061.033-.031.099-.031.166-.031h.099c.033 0 .033 0 .1.031.033 0 .066.03.066.061.033 0 .033.062.033.092v.062c0 .031 0 .061-.033.123 0 .031-.033.031-.033.062-.033 0-.067 0-.1.03zm-2.685 1.136c-.066 0-.165-.031-.265-.031-.033 0-.066-.03-.066-.03s-.066-.031-.066-.062c0 0-.034-.061-.034-.092v-.093c.034-.061.067-.123.1-.123 0 0 .033-.03.066-.03.033-.031.1 0 .133 0 .066 0 .165.03.265.03.033 0 .066.031.066.031s.066.031.066.062c0 0 .034.061.034.092v.092c-.034.062-.067.123-.1.123 0 .031-.033.031-.066.031-.033.031-.1 0-.133 0zm24.396-12.196c-.132-.184-.265-.429-.431-.614-.066-.061-.066-.153-.033-.245 0-.062.066-.154.133-.184.165-.092.364-.031.431.122.132.185.265.43.431.614.066.062.066.154.033.246 0 .061-.066.153-.133.184-.132.061-.298.031-.431-.123zm-1.823-2.057c-.133-.061-.298-.123-.398-.184l-.099-.093c-.033-.03-.067-.061-.067-.092-.033-.031 0-.092 0-.123 0-.03 0-.061.034-.092a.335.335 0 01.199-.154h.099c.066 0 .099 0 .166.062.132.061.298.123.397.184l.1.092c.033.031.066.062.066.093.033.03 0 .092 0 .123 0 .03 0 .061-.033.092a.33.33 0 01-.199.153h-.099a.261.261 0 01-.166-.061zm-.133 1.382c-.099-.062-.165-.093-.265-.154l-.099-.092c-.033-.031-.067-.061-.067-.092-.033-.031 0-.092 0-.123s0-.061.034-.092c0 0 .033-.061.066-.061.033-.062.099-.062.132-.093h.1c.066 0 .099 0 .166.062.099.061.165.092.265.153l.099.092c.033.031.066.062.066.093.033.03 0 .092 0 .122 0 .031 0 .062-.033.092 0 0-.033.062-.066.062-.033.061-.1.061-.133.092h-.099a.261.261 0 00-.166-.061zm-1.823-2.427c-.066-.092-.132-.153-.198-.276-.067-.092-.067-.184-.1-.307-.033-.031 0-.092 0-.123s0-.061.033-.092l.1-.092c.033-.031.066-.061.099-.061.066-.031.199 0 .265.03a.46.46 0 01.166.184c.033.062.033.123.066.185 0-.031-.033-.031-.033-.062.033.092.1.154.133.215-.033 0-.033-.031-.067-.061h.034c.033.03.066.061.066.092.033.031.033.061.033.123a.322.322 0 01-.099.215.377.377 0 01-.232.092h-.067a.295.295 0 01-.199-.062zm5.536 3.931c-.1-.061-.166-.092-.265-.153l-.1-.092c-.033-.031-.066-.062-.066-.092-.033-.031 0-.092 0-.123s0-.061.033-.092c0 0 .033-.062.066-.062.033-.03.1-.061.133-.092h.099c.067 0 .1 0 .166.062.1.061.166.092.265.153l.1.092c.033.031.066.062.066.092.033.031 0 .093 0 .123 0 .031 0 .062-.033.092l-.066.062c-.034.061-.1.061-.133.092h-.099c-.067 0-.133 0-.166-.062zm-5.37-2.364l-.199-.092c-.033 0-.066-.031-.066-.061-.034 0-.033-.062-.033-.093v-.092c0-.031-.001-.031.033-.092l.033-.031c.033-.031.066-.061.099-.061h.067a.27.27 0 01.132.03l.199.093s.066.03.066.061c0 0 .033.062.033.092v.093c0 .03.001.03-.033.092l-.033.031c-.033.03-.066.061-.099.061h-.067c-.033-.031-.099-.031-.132-.031zm-1.756-1.628c-.033-.062-.067-.154-.1-.185-.033 0-.033-.061-.033-.092v-.092c0-.03.033-.061.033-.061 0-.031.033-.062.067-.062 0-.03.033-.03.066-.03.033-.031.099 0 .132 0 .034 0 .034 0 .067.03l.099.093c.033.061.066.153.1.184 0 0 .033.061.033.092v.092c0 .031-.033.061-.033.061 0 .031-.034.062-.067.062 0 .03-.033.03-.066.03-.033.031-.099 0-.133 0-.033 0-.033 0-.066-.03l-.099-.092zm.132-1.874c-.033-.03-.033-.061-.066-.092 0 0-.033-.061-.033-.092v-.092c.033-.031.033-.062.066-.093 0-.03.033-.061.066-.061s.033-.031.067-.031c.033-.031.099 0 .132 0s.033 0 .066.031l.1.092c.033.031.033.062.066.092a.3.3 0 00.033.093v.092c0 .031-.033.061-.033.061 0 .031-.033.062-.066.062 0 .031-.033.031-.067.031-.033.03-.099 0-.132 0 0 0-.033 0-.066-.031-.1 0-.133-.031-.133-.062zm-.663.339h-.232c-.033 0-.066-.031-.066-.031h-.033l-.066-.061c-.067-.031-.067-.093-.1-.154v-.092c-.033 0-.033-.031 0-.062 0-.031.033-.061.066-.061.034 0 .067-.031.1-.031h.066c.033 0 .066 0 .133.031l.033.03c.033.031.066.062.066.093 0 0-.033-.031-.033-.062.033 0 .033 0 .033.031-.033 0-.033-.031-.033-.062l.033.031c-.033 0-.033-.031-.066-.031.033 0 .033 0 .033.031 0 0-.033 0-.066-.031h.033-.066.033-.067.133c.033 0 .033 0 .099.031l.067.062s.033.061.033.092v.061c0 .031 0 .062-.033.123 0 .031-.033.031-.033.062 0-.031-.034 0-.067 0zm-1.293-1.322a29.71 29.71 0 00-.298-.184.169.169 0 01-.099-.154v-.092c0-.031 0-.031.033-.092.033-.062.099-.092.132-.092.067 0 .133 0 .199.03l.298.185c.067.03.1.092.1.153v.092c0 .031 0 .031-.033.092-.033.062-.1.092-.133.092-.066 0-.132 0-.199-.03zm-1.16.429c-.033 0-.099-.031-.165-.061-.033 0-.067-.031-.1-.062a8.311 8.311 0 01-.099-.092c-.033-.031-.033-.092-.033-.123-.033-.03 0-.092 0-.122 0-.031 0-.031.033-.062a.252.252 0 01.132-.123c.034 0 .034-.03.067-.03h.165c.034 0 .1.03.166.061.033 0 .066.031.1.061l.099.093c.033.03.033.092.033.122.033.031 0 .092 0 .123s0 .031-.033.062a.245.245 0 01-.133.122c-.033 0-.033.031-.066.031s-.099.031-.166 0zm-.927-1.29s-.033-.031-.067-.031c.034 0 .067 0 .067.031h-.067.067c0 .031-.033.031-.067.031.034-.031.067-.031.067-.031.033-.031 0 0 0 0h-.133c-.033 0-.066 0-.099-.031l-.1-.092c-.033-.03-.066-.061-.066-.092v-.092c0-.061 0-.092.066-.153 0-.031.033-.062.066-.062.034-.061.1-.061.133-.092h.033c.033 0 .067-.031.133 0a.32.32 0 01.166.031c.033 0 .033 0 .066.031.033 0 .066.03.099.03l.033.031.1.092c.033.031.066.061.066.092.033.031 0 .092 0 .123s0 .061-.033.092c0 .031-.033.061-.066.061-.033.062-.1.062-.133.092h-.099c-.133-.03-.199-.03-.232-.061z" fill="#42404B"/><path d="M228.025 430.176l-4.405 1.116 1.87 2.195 5.86-2.272-1.206-.77-2.119-.269zm3.989-4.082l-1.994 1.386 3.199 1.002 3.45-1.194-4.655-1.194z" fill="#314F46"/><path d="M238.705 425.014l-.457 2.311-5.444 1.579v-.462l2.285-.847-5.568.539v-.578l5.111-.578-3.657-.385 1.039-.5 3.782.539 1.662-.077.042-1.772 1.205.231z" fill="#122D25"/><path d="M234.632 424.783l-.623 5.739-8.893 3.697v-.578l4.987-2.118-6.732.347v-.578l6.732-.501-2.868-.346.624-.501 4.031.347 1.288-5.508h1.454z" fill="#122D25"/><path d="M228.44 390.467s1.496-11.401-7.854-9.86c-2.867.616-4.903 3.158-5.734 3.428-.832.269-8.852 3.928-8.852 3.928s7.854-.77 9.89-.077c2.037.693 3.865.347 3.242 1.541-.624 1.194-2.494 2.657-3.034 4.544-.54 1.888-.166 11.208 7.563 20.529 6.649 9.59 6.816 11.207 6.816 11.207h12.467v-1.887l2.659-.27s4.987 1.387 5.527.347c-.374-1.117-4.82-3.235-4.82-3.235l.374-.848s2.784 1.618 2.659 1.387c-.083-.27-3.158-5.739-3.158-5.739s-4.322-17.37-9.89-21.067c-5.569-3.697-7.855-3.928-7.855-3.928z" fill="#fff"/><path d="M215.89 387.928c-2.036-.693-9.89.077-9.89.077s8.062-3.697 8.893-3.928c.831-.27 2.867-2.812 5.735-3.428 9.308-1.541 7.854 9.86 7.854 9.86s2.41.269 7.937 3.928c5.527 3.698 9.891 21.067 9.891 21.067s3.033 5.431 3.116 5.701c.084.269-2.659-1.387-2.659-1.387l-.374.847s4.446 2.157 4.82 3.236c-.54 1.04-5.527-.347-5.527-.347l-.706.077c-3.74-2.657-11.137-8.319-14.129-13.865-4.073-7.587-4.987-14.019-6.691-15.907-1.704-1.887-5.236-2.734-5.236-2.734l-.997-.077c.498-.578.955-1.117 1.246-1.618.582-1.194-1.246-.847-3.283-1.502z" fill="#000"/><path d="M226.03 387.156s-1.454-4.776-5.859-4.622c-1.538-.039-2.078.963-1.496 1.887.291.385 2.119.539 2.41-.616 0-.693 1.995-.924 4.945 3.351z" fill="#fff"/><path d="M219.756 383.957c-.291 0-.499-.193-.499-.462s.208-.462.499-.462c.291 0 .499.193.499.462 0 .231-.208.462-.499.462z" fill="#000"/><path d="M217.761 385.768v-.385s-6.276.154-6.774.346c2.161.193 3.698.232 3.075.694-.623.462-.997 1.232-.997 1.232l1.953-1.463 2.743-.424z" fill="#fff"/><path opacity=".54" d="M226.612 406.798c.083.154.166.347.208.501.124 3.543 2.16 6.663 4.114 9.59 1.953 2.927 3.989 5.623 6.856 7.857.458.346.873.654 1.33 1.001h-8.643s-.167-1.618-6.816-11.208c-2.618-3.158-4.405-6.316-5.568-9.166 2.742.77 5.693 1.117 8.519 1.425z" fill="#CFDCE4"/><path d="M249.884 424.321c-.374-.231-.707-.462-1.081-.693a1.809 1.809 0 001.829-.385c.291.231.457.462.54.693-.166.308-.665.385-1.288.385z" fill="#fff"/><path d="M142.89 422.485l1.163 3.35.582 1.04 2.909.424 6.316.192 1.87.424 1.455-2.272.083-.886-3.698-.539-3.907.077-3.2.077-1.703-3.043-1.87 1.156z" fill="#ED6944"/><path d="M144.178 423.794l.665 2.272 1.829.963.207.154-2.202-.346-.582-1.04-1.163-3.351.914-.578.332 1.926z" fill="#DC4D29"/><path d="M150.744 426.182l3.117.809.997.77-.997-.231-4.696-.115c-1.58-.578-3.283-1.233-3.491-1.541l.498-.347h1.455l3.117.655zm5.277-1.039l1.164.308-.042.193-1.038 1.694-1.704-.924-5.029-1.117-1.33-.423 1.995-.154 5.984.423z" fill="#E84325"/><path d="M147.917 427.107l-.415-.077-.333.193.748.347.499.347-.499-.81zm7.689.155l-.499.115-.083.193.582.538.79.308-.042-.5-.748-.654zm1.205-2.389l-.083.27.249.193.748-.077.54.115-.125-.347-1.329-.154z" fill="#020203"/><path d="M156.893 386.242l2.244.539 2.494 1.657 1.704 2.041.582 2.234.083 1.309-.582-.347-1.538.116-2.369.231-3.116-.578v-1.078l.498-6.124z" fill="#E84325"/><path d="M156.894 386.242l.873.193c.872.77 2.41 2.118 2.41 2.118l.416 1.81-.125 1.348-.166.963s-.624.424-.748.501c-.083.038-1.039.269-1.87.539l-1.164-.193-.041-1.117.415-6.162z" fill="#EB7A2E"/><path d="M157.309 386.319l2.244 2.465.291 1.695-.207 1.348s-.582.655-.749.77c-.166.077-1.496.347-1.496.347h-.955v-.539l.498-6.163.374.077z" fill="#EB7A2E"/><path d="M160.842 389.286l.333 1.31v1.116s-.167.694-.291.848c-.083.115-1.122 1.001-1.122 1.001l.914-.346.748-.771s.291-1.078.291-1.232c0-.077-.873-1.926-.873-1.926z" fill="#CF301C"/><path d="M161.881 390.557l.291 1.001.041.77-.332.577-.665.501-.54.115.956-.154.623-.577s.291-.693.291-.847c0-.116-.166-.886-.166-.886l-.499-.5z" fill="#CF301C"/><path d="M156.52 391.096l.041-.655 1.081.616.831.501s.914.385 1.039.385c.124 0 .914.077 1.039.116.124.038 1.039.346 1.039.346l1.08.501.582.77h-.166a7.6 7.6 0 01-.541-.578l-1.205-.539-1.579-.269-1.164-.308-2.077-.886z" fill="#F28C46"/><path d="M156.437 394.023l1.205-2.734.083-2.658-.499-2.464-.041-.039c-.665-.809-1.538-1.502-2.577-1.887-1.62-.693-3.366-1.079-5.111-1.194-2.036.732-3.74 2.08-4.821 3.851v.039c-.831 1.309-1.454 2.773-1.745 4.313l-.166 2.735-1.122 1.309a11.801 11.801 0 00-1.995 3.082l-.374.808-3.283 2.658a29.049 29.049 0 00-5.319 5.777l-.499.809-5.942 3.928c.166.347 2.992-.231 3.989-.423.208-.039.333-.077.333-.077l-3.117 2.464a21.583 21.583 0 00-3.075 2.966l-.374.501c-.25.308-.541.693-.79 1.04l-.582.808L117 422.64l1.205 2.002 1.704 1.117.873-.5a33 33 0 019.142-3.544l2.576.347 1.538.693 1.538 1.849 2.161 1.117 2.16-.963 1.039-1.04 3.2-1.425.748-.27a37.193 37.193 0 005.776-2.773l4.281-2.542c.54-.308.997-.693 1.454-1.078l3.283-2.889a9.18 9.18 0 001.662-2.079 9.38 9.38 0 00.831-2.35l.25-1.617c.125-.694.125-1.31.083-2.003a44.063 44.063 0 01-.166-1.964c0-.154-.624-1.271-1.081-2.196-.415-.847-1.08-1.617-1.828-2.233l-.707-.617-1.205-.616-1.08-3.043z" fill="#FFFEFA"/><path d="M139.524 423.872l1.33-3.274.166-.577c.582-1.656 1.537-3.12 2.826-4.391l.872-.847.374.077c1.33.308 2.785.346 4.198.115l6.316-1.232a6.03 6.03 0 001.912-.693l.415-.232a13.703 13.703 0 002.618-1.887l1.288-1.194c-.748 1.348-1.579 2.812-2.742 3.89l-1.829 1.695c-.207.192-.54.424-.831.693-1.163.925-2.452 1.695-3.74 2.388l-3.407 1.772c-.832.5-1.704.924-2.66 1.232l-2.452.886-3.2 1.425-1.039 1.04-2.16.963-.956-.501 2.701-1.348z" fill="#8C8B83"/><path d="M117.042 422.639l3.615-3.042.582-.809c.249-.347.54-.693.789-1.04l.374-.501a21.576 21.576 0 013.075-2.965l3.117-2.465s-.125.038-.332.077c-.998.192-3.865.809-3.99.423l6.026-4.044.499-.808a25.728 25.728 0 015.319-5.777l3.283-2.658.374-.809c.54-1.117 1.163-2.118 1.994-3.081l1.122-1.309.167-2.735c.291-1.54.914-2.965 1.745-4.313v-.039c1.081-1.772 2.784-3.081 4.821-3.851 1.745.115 3.49.539 5.111 1.194a6.216 6.216 0 012.576 1.925l.042.039.499 2.465-.083 2.657-1.206 2.735 1.039 2.965.125.039-1.122.192-1.33 1.849-2.161 1.772-2.742.886-2.702.308-1.122.077c-.415.963-.623 2.041-.54 3.081a7.642 7.642 0 01-.415 3.196l-.79 2.119c-.706 1.656-1.621 3.158-2.743 4.583l-.789.963-1.829 1.771-2.701 2.619-.083.116a11.957 11.957 0 00-1.538 3.466l-.955-1.117-1.538-.693-2.576-.347c-3.2.771-6.317 1.965-9.143 3.544l-.872.5-1.704-1.116-1.288-2.042z" fill="#020203"/><path d="M151.159 385.782l2.784-.578c.499-.077.956-.038 1.413.154.54.231.956.693 1.08 1.233l.707 2.234.498 2.233v.231l-1.205 2.696-.955.386-2.577.346-1.122-.346a12.122 12.122 0 01-4.654-2.773l-.914-1.002-.416-1.001a1.376 1.376 0 01.831-1.81l1.496-.617 3.034-1.386z" fill="#FFFEFA"/><path d="M145.84 390.019l3.989 1.656 2.868.616 2.742.192-1.288 2.042-1.247.154-1.288-.385a11.683 11.683 0 01-4.363-2.581l-1.081-1.001-.332-.693zm2.203-2.736l3.117-1.502.831-.154 1.413.578-.208 2.425-1.33-.385-1.953-.308-2.909-.154 1.039-.5z" fill="#8C8B83"/><path d="M150.951 394.101l2.66-.27 1.413-1.502.914-1.772 1.08-.847.541.27.207.962v.232l-1.246 2.811-.541.27c-.332.115-.706.231-1.038.269l-.915.116c-.831.115-1.662 0-2.41-.308l-.665-.231z" fill="#615A58"/><path d="M155.273 391.905l.706-1.271 1.081-.847.498.27.208.962v.231l-.332.809-1.288.231-.873-.385z" fill="#E05F1E"/><path d="M153.154 388.592l-1.33-.385-1.953-.308-2.909-.154.54-.193 3.699.231.955-.539.79-.886.374.501-.166 1.733z" fill="#615A58"/><path d="M152.115 387.244l.54-.616.79.732.041.693s-.124.308-.374.269c-.124-.038-.997-.423-1.62-.77l.623-.308z" fill="#E05F1E"/><path d="M152.115 387.244l.54-.616.79.693-.125.577-.499.038-.748-.346-.207-.192.249-.154z" fill="#020203"/><path d="M139.98 424.449l2.161 2.696 1.288.655 3.574.077 3.99.077 1.122 1.348.706 1.31-1.579.654-3.615.732-1.538.193-4.031-1.695-.997-1.502-.291-.886-2.992-2.734 2.202-.925z" fill="#ED6944"/><path d="M138.36 425.182l1.745 1.309 1.662 1.695.333 1.579.748 1.04-.748-.27-.998-1.502-.291-.886-2.992-2.734.541-.231z" fill="#DC4D29"/><path d="M143.388 429.379l2.368.539 2.66.924 2.909.424-3.615.731-.208.039-4.073-2.08-.041-.577zm1.746-.655l2.202-.077 2.66-.116 1.496-.077.748.886.706 1.309-.416.192-1.537-.308-2.493-.731c-.125-.039-3.242-.77-3.366-1.078z" fill="#E84325"/><path d="M146.588 431.959c-.042-.077-.291-.115-.291-.115l-.166.192.041.27.831.193.582.193-.997-.733zm4.987-1.115l-.332.154v.192l.706.154.665.116.125.077-.25-.424-.914-.269zm-.707-2.813l-.041.194.166.154.54-.039.54.078-.249-.309-.956-.078z" fill="#020203"/><path d="M304.311 346.022H260.07v24.203h44.284l-9.297-11.669a.67.67 0 010-.865l9.254-11.669z" fill="#fff"/><path d="M297.128 358.124l9.93-12.467c.211-.233.211-.565.042-.831-.169-.266-.507-.399-.887-.399H260.07v-1.629c0-.432-.464-.798-1.056-.798-.591 0-1.014.366-1.014.798v46.808c0 .432.465.798 1.014.798.549 0 1.014-.366 1.014-.798v-17.752h46.143c.38 0 .718-.167.887-.433a.68.68 0 00-.042-.831l-9.888-12.466zm-37.058 12.101v-24.202h44.284l-9.296 11.668a.668.668 0 000 .865l9.254 11.669H260.07z" fill="#4683C6"/><path fill-rule="evenodd" clip-rule="evenodd" d="M268.691 347.02c.338.033.676.133.971.265.212.067.381.167.55.3-.127.166-.296.266-.507.399.845.166 1.648 0 2.493-.1.591-.067 1.183.066 1.69.299.254.1.423.299.634.432.211.133.38.333.634.466.253.133.549.266.887.266.042-.233-.085-.499 0-.732.127 0 .211 0 .338.067.338.232.761.465.887.831-.126.066-.295.1-.422.133.253.066.549.1.845.1.084.232-.085.432-.296.598-.253-.166-.507-.366-.76-.532.042.133.084.266.042.432-.465 0-.93-.166-1.226-.432-.084-.133.085-.233.169-.332a2.716 2.716 0 01-.929-.366c0 .066.042.166.042.233.085.066.211.099.296.166.169.199.042.532-.254.598-.126.067-.253 0-.38-.033-.338.332-.845.499-1.31.598.254.2.549.366.845.499.296.166.55.432.93.432.127.034.338-.033.422.067-.042.033-.126.066-.169.1.085.066.212.166.127.299 0 .133-.211.166-.338.099-.253-.066-.422-.232-.591-.398-.296-.266-.677-.466-1.099-.665.211.631.422 1.296.676 1.928-.296.066-.634.133-.93.199.085.399.254.798.338 1.23.254.034.55.067.803.167.085.066.212.199.043.232-.296.1-.634.067-.93.067-.169 0-.338-.133-.338-.266 0-.466-.169-.931-.254-1.396-.211 0-.422 0-.676-.034-.084.366-.253.765-.338 1.131-.042.133.042.232.042.365 0 .1-.126.166-.253.166-.296 0-.634.034-.93 0-.169-.033-.295-.232-.126-.332.253-.1.549-.133.845-.166.084-.432.253-.831.38-1.23a5.97 5.97 0 01-1.31-.466c.296-.698.634-1.363.93-2.094-.381-.1-.761-.233-1.057-.432a2.043 2.043 0 01-.465-.499c-.422.299-.929.499-1.478.698l.126.698c-.253.1-.549.133-.845.167.127.365.254.698.381 1.063.042.067-.043.133-.127.167 0 .299.084.565.127.864a7.34 7.34 0 00-.465.1c.084.332.126.665.169.997.211 0 .422-.033.591-.033.212.033.381.133.423.299-.042.166-.254.233-.423.233a1.95 1.95 0 01-.76-.034c-.212-.066-.254-.265-.296-.432-.042-.365-.042-.698-.042-1.064-.169 0-.296.034-.465.034-.042-.133-.042-.299-.127-.432-.084.166-.084.365-.127.531-.169.034-.295.034-.464.067-.043.399.042.798 0 1.197-.212.232-.634.199-.93.166-.169 0-.423-.033-.423-.233 0-.066.085-.099.169-.133.296-.066.592-.099.845-.099 0-.3.043-.599.085-.931-.127 0-.296 0-.423.033-.042-.233 0-.465-.084-.698-.042 0-.127-.033-.169-.033 0-.366.042-.699.042-1.064 0 .099-.084.166-.211.166-.169-.033-.296-.166-.423-.266-.211.133-.422.299-.633.432-.127.067-.17.2-.296.299 0-.033-.043-.099-.043-.166-.211 0-.422 0-.591-.033v-.033c.211-.1.422-.266.676-.233.254-.133.465-.332.676-.499-.084-.166 0-.332.169-.432.211-.133.465-.266.718-.366-.38-.166-.718-.332-.971-.598-.169.033-.338.067-.508 0-.211-.133-.253-.399-.126-.565.084-.133.253-.166.38-.233.127-.399.507-.698.972-.864-.085-.033-.127-.067-.211-.133.126 0 .253.033.338.033 0-.066-.127-.133-.169-.199.169 0 .295 0 .464.033a1.43 1.43 0 00-.211-.333c.169.067.296.2.465.3.042-.034.084-.1.127-.133.042.066.042.099.084.166.127-.067.212-.166.338-.266-.042.1-.084.199-.126.266.507 0 1.056 0 1.521.199.253.1.422.233.634.399a.566.566 0 01.549.2c.169.232 0 .631-.38.631a1.48 1.48 0 01-.465.632c.169-.033.296-.133.465-.066.422-.133.887-.333 1.225-.599.127-.1.169-.233.338-.299.084-.033.211.033.254.1.253.498.76.897 1.394 1.063-.338-.166-.634-.398-.803-.664-.127-.2-.127-.399-.127-.599-.169-.133-.38-.266-.295-.465.042-.233.38-.299.633-.299 0-.034.043-.067.085-.067-.38.033-.761 0-1.141-.066l.127.399c-.465.033-1.014.066-1.437-.167.085-.166.254-.299.465-.432a1.974 1.974 0 00-.761-.033c.085-.2.127-.399.212-.599.211.1.464.233.676.333-.127-.233-.381-.466-.338-.731zm.38.265c0 .034.042.1.042.133.127.133.211.3.38.366.043-.033.085-.066.127-.066.042 0 .085-.034.127-.067-.169-.166-.465-.266-.676-.366-.169.034 0-.132 0 0zm-.042.832c-.085.066-.212.099-.296.166h-.042c.042.066.211.1.295.066h.085a.881.881 0 00.422 0c-.084-.099-.126-.199-.211-.266-.084 0-.169.034-.253.034zm2.662.332c-.127-.033-.254-.1-.381-.166-.422.233-.633.698-.549 1.097.085.332.38.565.718.731.423.266.972.299 1.479.233.507-.066 1.014-.166 1.31-.499.254-.232.254-.598.169-.897-.422-.133-.887-.067-1.267-.266-.254-.1-.423-.266-.592-.432-.253.133-.549.266-.887.199zm-5.62-.1c0 .034 0 .1.042.133-.084-.033-.211-.066-.296-.099 0 .066.043.166.043.232-.127-.066-.212-.133-.339-.199a.804.804 0 01-.084.332c-.042-.066-.085-.166-.127-.232a1.58 1.58 0 01-.422.232l.084-.133c-.253.133-.507.266-.676.432-.211.167-.211.433-.127.632.127.299.381.565.761.698.591.2 1.31.233 1.901 0a1.837 1.837 0 001.057-.831c.127-.332-.042-.698-.423-.897-.465-.266-.929-.3-1.394-.3zm4.31.266c-.085.1 0 .266.084.333.085-.133.169-.299.254-.432-.127 0-.296 0-.338.099zm5.916.266c0 .1.042.166.084.266 0 .067.042.133.042.2.127.066.254.066.423.066v-.033h.169c-.042-.067-.085-.1-.127-.166-.211-.167-.422-.233-.591-.333zm-8.198.067c.042.133.042.232.042.365.127.067.169-.099.169-.166.043-.133-.126-.166-.211-.199zm-4.521.897c.042.1.169.1.296.1-.043-.166-.127-.299-.127-.465-.127.066-.296.232-.169.365zm11.24-.365a1.686 1.686 0 01-.212.465c.212.033.381-.1.423-.233 0-.133-.127-.199-.211-.232zm.929.266c.211.166.465.232.719.299 0-.033-.043-.1-.043-.133l-.126-.2c-.043-.033-.085-.099-.17-.133a.48.48 0 00-.38.167zm-7.986.565c-.127.033-.211.066-.338.066v.033c-.254-.033-.507.1-.718.167-.085.033-.169.033-.296.066v.033h-.254v.034h-.422v.033h-.507a2.88 2.88 0 00-.93.465c-.042.233.211.599.549.532.169-.066.212-.199.296-.299v.299h.042v.964c.043 0 .085-.033.127-.033v-.033c.085 0 .169-.033.254-.033.084-.034.211-.034.296-.067.126 0 .211 0 .338-.033v-.033h.422v-.034c.169 0 .296 0 .465-.033h.211v-.033c.127 0 .296-.033.38-.133-.042-.1-.126-.233-.169-.333-.042-.132-.084-.232-.126-.365 0-.1 0-.2-.043-.299h-.169v-.133c.212 0 .423 0 .592-.034.127 0 .254-.033.38-.066l-.126-.2c0-.033-.043-.099-.043-.133a1.573 1.573 0 01-.084-.432c-.042.034-.085.034-.127.067zm3.887.199c-.253.366-.338.765-.507 1.164-.126.332-.338.665-.507.997.381.166.803.266 1.226.333.549.099 1.141.033 1.69-.1-.211-.765-.423-1.496-.718-2.228-.381.034-.803-.066-1.184-.166zm-6.253 2.361c0 .232 0 .432-.043.664l.888-.099c-.042-.166-.042-.333-.085-.499.212-.033.381-.033.592-.033 0 .133.042.266.127.399.295-.033.549-.067.845-.067-.043-.232-.085-.432-.127-.665-.718.067-1.437.2-2.197.3zm14.62-4.854c-.042-.1.084-.166.211-.166h4.986c.085 0 .127.033.212.066a.72.72 0 01.253-.066h2.662c.085 0 .211.033.254.099.296.699.591 1.397 1.056 2.028.423-.665.803-1.329 1.099-2.028.042-.066.126-.099.211-.099h2.493c.127 0 .254.066.211.166a128.278 128.278 0 00-.295 6.981c0 .1-.043.2-.169.2h-1.691c-.084 0-.211-.034-.253-.1-.042-.565 0-1.097-.042-1.662-.085.099-.212.232-.296.332v.033c-.338.466-.634.898-.972 1.33-.085.1-.169.233-.338.2-.127-.067-.169-.167-.254-.266-.338-.466-.718-.898-1.056-1.363-.085-.1-.169-.233-.254-.333-.042.532 0 1.064-.084 1.563a.639.639 0 00.127.066h-.085c-.084.033-.127.133-.211.133h-1.69c-.127 0-.254-.066-.212-.166-.084-2.327-.126-4.654-.38-6.948 0 .299-.042.598-.042.897-.042.665-.085 1.364-.169 2.028-.549 0-1.057-.099-1.564-.066 0 .399-.042.798-.042 1.197.507 0 .972-.067 1.479-.067 0 .067.042.1.042.166l-.253 1.297c0 .1-.085.199-.211.166-.339-.033-.677-.1-1.015-.1-.042 0-.084.034-.084.034-.042.465 0 .931-.042 1.396 0 .1-.085.166-.212.166h-2.535c-.127 0-.253 0-.338-.033-.084-.166-.042-.366-.084-.532 0-.698-.085-1.396-.085-2.094-.042-.665-.042-1.33-.085-1.962a22.346 22.346 0 01-.253-2.493zm.38.133c0 .499.085.997.085 1.496.042.366.042.764.084 1.13.043.565 0 1.097.085 1.662 0 .832.084 1.663.084 2.494.381.033.761 0 1.141.033.423 0 .845.033 1.268-.033v-1.33c0-.1-.042-.233.127-.233.422-.033.845.033 1.267.033.042-.265.042-.531.169-.764h-.042c0-.067.042-.166.042-.233-.465 0-.887.067-1.352.033-.169 0-.127-.166-.127-.266.085-.498 0-.964.127-1.462.507-.067 1.056 0 1.564.033.042-.831.126-1.662.169-2.46.042-.067 0-.1-.127-.1-1.521-.033-3.043-.033-4.564-.033zm5.324.066c.085.034.127.067.127.133.042.964.169 1.962.211 2.926.085.631.043 1.23.085 1.862.042.598 0 1.23.084 1.828h1.353c.042-.665.042-1.33.042-1.995-.042-.133.253-.199.338-.066.549.665 1.099 1.396 1.648 2.061h.084c.507-.665.972-1.363 1.479-2.028a.223.223 0 01.254-.1c.127.034.127.167.127.266 0 .632.042 1.264.042 1.895.465.033.929 0 1.394.033.043-1.396.085-2.825.169-4.222l.127-2.559h-2.197a16.021 16.021 0 01-1.183 2.16c-.043.1-.127.167-.254.233-.042-.033-.127-.066-.169-.133-.465-.731-.887-1.463-1.183-2.227h-2.155c-.169-.133-.296-.1-.423-.067zm-19.141.599c-.169.166.169.432.338.266.169-.167-.127-.366-.338-.266zm5.366.066c-.127.1-.042.333.127.299.127-.033.169-.199.085-.266-.043-.066-.17-.099-.212-.033zm-6.718.133c-.085.067-.085.166-.043.266.043.1.254.133.338 0 .127-.133-.084-.332-.295-.266zm8.07.067c-.084.066 0 .266.127.266s.169-.133.127-.233c0-.1-.169-.133-.254-.033zm-6.507.631c-.549.2-1.225.2-1.817.034.338.232.718.465 1.183.432.55-.033 1.014-.366 1.183-.765-.211.067-.338.233-.549.299zm4.69-.299c.169.233.338.466.592.632.549.299 1.268.066 1.648-.299-.211.066-.423.166-.676.166-.592.033-1.183-.166-1.564-.499zm5.451 3.923c-.549.1-.972.565-.887 1.031.084.465.634.797 1.225.797.634 0 1.226-.498 1.141-.997-.042-.565-.803-.997-1.479-.831zm-.549.465c-.254.3-.127.732.211.965a.91.91 0 00.296.033c.169-.067.338-.133.507-.233.169-.133.254-.299.338-.499-.169-.166 0-.432-.127-.598-.464-.1-.971.033-1.225.332zm1.606.034c-.085.399-.423.764-.845.964-.085.033-.127.033-.212.066.169.067.338.067.507.067v-.034a.661.661 0 00.338-.099c.338-.233.423-.632.212-.964z" fill="#020102"/><path fill-rule="evenodd" clip-rule="evenodd" d="M269.071 347.286c-.169 0 0-.166.042-.033l-.042.033zm19.522.698c.085.067.169.1.211.2.254.565.465 1.097.803 1.629.338-.499.592-1.031.845-1.563.043-.133.127-.233.254-.266-.296.698-.676 1.363-1.099 2.028-.422-.665-.718-1.33-1.014-2.028zm-2.873.233c.084.033.126.066.126.133.043.964.169 1.961.212 2.925.084.632.042 1.23.084 1.862.042.598 0 1.23.085 1.828h1.352c.042-.664.042-1.329.042-1.994-.042-.133.254-.2.338-.067.55.665 1.099 1.397 1.648 2.061h.085c.507-.664.972-1.363 1.479-2.027a.22.22 0 01.253-.1c.127.033.127.166.127.266 0 .631.042 1.263.042 1.895.465.033.93 0 1.395.033.042-1.396.084-2.826.169-4.222l.126-2.56h-2.197a15.922 15.922 0 01-1.183 2.161c-.042.1-.127.166-.254.233-.042-.034-.126-.067-.169-.133-.464-.732-.887-1.463-1.183-2.228h-2.155c-.169-.133-.296-.099-.422-.066zm2.197 6.815c.084-.532 0-1.064.084-1.563.085.1.169.2.254.333-.085.366-.042.731-.042 1.097 0 .1-.085.166-.127.233-.085-.034-.127-.067-.169-.1zm2.958-1.23c.084-.1.169-.233.296-.333.042.566 0 1.098.042 1.663-.085-.034-.211-.1-.254-.167-.084-.365.043-.764-.084-1.163z" fill="#0076CE"/><path fill-rule="evenodd" clip-rule="evenodd" d="M280.396 348.149h4.521c.084 0 .127.034.127.1-.043.831-.127 1.629-.169 2.46-.507-.033-1.057-.099-1.564-.033-.084.499-.042.964-.127 1.463 0 .099-.042.266.127.266.465.033.888-.034 1.352-.034 0 .067-.042.167-.042.233l.042-.033c-.169.233-.126.532-.169.765-.422-.034-.845-.1-1.267-.034-.169.034-.127.167-.127.233v1.33c-.423.033-.845.033-1.268.033-.38 0-.76.033-1.141-.033 0-.831-.084-1.662-.084-2.494-.085-.565-.042-1.097-.085-1.662-.042-.365 0-.764-.084-1.13.042-.432-.042-.931-.042-1.43zm-11.663.133h.254v.034c-.043.066-.212.033-.254-.034zm2.916 2.228c.38.133.803.199 1.225.133.296.731.507 1.496.719 2.227-.55.133-1.141.233-1.691.1a5.016 5.016 0 01-1.225-.333c.127-.332.338-.664.507-.997.127-.366.211-.765.465-1.13zm12 .432c0 .399-.042.798-.042 1.197.507 0 .972-.067 1.479-.067 0 .067.042.1.042.166 0-.166-.084-.332-.296-.332-.38 0-.718.067-1.098.067 0-.266.042-.566.042-.832.38 0 .761.034 1.141.067.169.033.296-.067.38-.166-.591 0-1.098-.1-1.648-.1zm-18.254 1.928c.718-.1 1.479-.233 2.197-.332.043.232.085.432.127.665a6.62 6.62 0 00-.845.066c-.085-.133-.085-.266-.127-.399-.211 0-.422 0-.591.033.042.167.042.333.084.499l-.887.1c.042-.2.042-.399.042-.632zm10.986.931c.254-.332.761-.465 1.184-.332.126.199-.043.432.126.598-.084.166-.169.366-.338.499-.127.099-.338.166-.507.232-.084 0-.211 0-.296-.033a.716.716 0 01-.169-.964zm7.141-.133c-.042.465 0 .931-.042 1.396.042-.099.127-.166.127-.266 0-.399.042-.764 0-1.163-.042 0-.085.033-.085.033zm-13.099 2.826c.338-.033.761-.033 1.015.199.169.133 0 .366-.212.333-.253-.034-.507-.133-.718-.067-.296.067-.423.333-.465.565a.58.58 0 00.423.665c.253.1.549-.033.803-.066.169 0 .295.166.211.266-.042.133-.211.199-.338.232-.507.133-1.141.034-1.479-.299-.465-.465-.38-1.23.169-1.629.211-.099.38-.199.591-.199zm12.719.266c.085-.133.211-.299.423-.299.211-.034.422.099.465.232.211.499.422.998.676 1.496.042.1.084.2.042.299-.085.133-.423.167-.549.034-.085-.1-.127-.233-.169-.366h-.972c-.043.133-.085.266-.169.366-.085.133-.423.133-.507-.034-.043-.099 0-.232.042-.332.296-.465.507-.931.718-1.396zm.169.964h.592c-.085-.233-.212-.499-.296-.732-.127.233-.211.499-.296.732zm4.902-.931c0-.133.042-.299.253-.299.169-.033.338.066.338.199.043.366 0 .732 0 1.097.423-.365.761-.798 1.141-1.163.085-.1.254-.166.423-.1.127.067.169.2.169.299v1.43c0 .133 0 .232-.085.332-.126.1-.38.1-.465-.033-.042-.067-.042-.166-.042-.266v-.931c-.38.399-.76.798-1.141 1.164-.126.133-.38.199-.549.066-.042-.1-.042-.199-.042-.299v-1.496zm-25.057.166c0-.266.295-.465.633-.432h1.057c.169.033.211.166.211.299v1.397c.127.033.254.033.296.133.042.199.042.365 0 .565-.042.133-.296.133-.423.099-.169-.066-.084-.232-.127-.365h-1.563c0 .099 0 .199-.042.299-.085.166-.507.133-.507-.067 0-.199-.043-.399.042-.598.085-.033.169-.033.254-.066.042-.067.042-.133.084-.2.127-.366.085-.731.085-1.064zm.633 0s-.042.033-.042.067c-.042.399.042.831-.084 1.23h.845v-1.264c-.254-.033-.507-.066-.719-.033zm1.986-.133a.3.3 0 01.254-.299 5.644 5.644 0 011.056 0c.127 0 .212.1.296.2-.042.066-.084.166-.169.199-.254.066-.507.033-.761.033v.366c.254 0 .465-.033.719.033.211.067.211.333 0 .366-.212.066-.465.033-.676.033v.399c.253 0 .507-.033.76.033.169.034.254.2.127.299-.127.133-.338.1-.507.1-.296 0-.549.033-.845-.033-.169-.033-.169-.199-.169-.299-.085-.432-.085-.931-.085-1.43zm1.86-.266c-.212.067-.212.299 0 .366.169.033.338.033.507.033v1.297c0 .1 0 .232.084.332.127.133.423.1.465-.066.084-.266.042-.499.042-.765v-.798c.169 0 .381 0 .55-.066.211-.067.169-.333-.043-.366-.296-.066-.591-.033-.887-.033-.254.033-.507 0-.718.066zm4.267 0c.127-.133.423-.099.507.067.085.199.043.432.043.631.295-.232.591-.498.887-.731.127-.1.38-.1.465.033.084.1 0 .2-.085.266l-.76.599c.295.266.634.532.887.831.127.1.042.299-.127.332-.126.067-.295-.033-.38-.1-.296-.265-.549-.531-.845-.797-.211.232.042.565-.169.831-.085.099-.296.099-.423.033a.55.55 0 01-.126-.332v-1.33c0-.1 0-.233.126-.333zm2.916-.033a1.241 1.241 0 00-.803.532c-.253.499-.127 1.197.507 1.463.423.166.93.166 1.352-.034.381-.199.592-.565.592-.897 0-.299-.085-.665-.423-.864-.295-.233-.803-.266-1.225-.2zm.127.432c.253-.1.634-.033.76.166.212.266.212.665-.042.898-.253.266-.803.2-.972-.1-.211-.299-.169-.764.254-.964zm1.901-.133c0-.133.085-.299.296-.299.296-.033.634 0 .93 0 .126 0 .253.067.338.166-.043.1-.043.233-.169.266-.296.033-.55 0-.803 0v.366c.211 0 .465-.033.676.033.211.033.211.299.042.366-.211.1-.507.033-.761.033v.399c.254 0 .55-.033.803.033.254.067.212.366-.042.399-.38.033-.761.033-1.099 0-.169 0-.253-.133-.253-.266.042-.465.042-.997.042-1.496zm3.634.033v1.53c0 .199.38.299.549.133.127-.2.043-.399.085-.599.338 0 .718.034 1.014-.133.338-.199.38-.565.254-.864-.127-.266-.507-.432-.846-.432-.295 0-.591-.033-.887.033-.127.033-.169.2-.169.332zm.634.067h.465c.296.033.296.432.042.499-.169.033-.338.033-.507.033v-.532zm4.394-.067c.043-.232.296-.365.592-.365h1.056c.169 0 .296.133.254.266v1.429c.127.034.296.034.296.167.042.166 0 .332 0 .498 0 .2-.423.233-.507.067-.043-.1-.043-.2-.043-.3h-1.563v.266c-.085.167-.465.167-.507 0a1.28 1.28 0 010-.565c.042-.133.338-.066.338-.232.127-.399.042-.832.084-1.231zm.55.067c-.085.432.042.864-.085 1.263h.845v-1.263h-.76zm5.831-.432a1.76 1.76 0 01.93.033c.38.133.676.432.718.765.042.332 0 .698-.254.964-.464.498-1.563.498-2.028-.033-.253-.3-.296-.665-.211-.998.084-.332.38-.631.845-.731zm.084.465c-.211.067-.295.266-.338.432-.042.133.169.233 0 .333a.769.769 0 00.254.366c.296.166.761.099.887-.167.169-.299.169-.665-.126-.897a.697.697 0 00-.677-.067z" fill="#E50023"/><path d="M270.625 368.371a.381.381 0 01-.092.014.608.608 0 01-.518-.133.471.471 0 01-.145-.345c0-.177.088-.336.265-.477a5.245 5.245 0 001.511-1.087c.434-.442.765-.946.995-1.512-.46.194-.919.292-1.379.292-.451 0-.844-.075-1.18-.226a2.628 2.628 0 01-.836-.57 2.553 2.553 0 01-.503-.782 2.492 2.492 0 01-.16-.862c0-.336.062-.668.186-.995.133-.327.323-.618.57-.875a2.9 2.9 0 01.928-.636 3.061 3.061 0 011.273-.252c.221 0 .425.031.61.093.389.106.703.256.942.451.247.194.442.419.583.676.142.256.239.543.292.862.062.309.097.645.106 1.007 0 .575-.08 1.132-.239 1.671a5.363 5.363 0 01-.676 1.485c-.292.46-.65.875-1.074 1.247a6.496 6.496 0 01-1.459.954zm-.636-4.84c.186.186.384.323.597.412.212.079.433.119.663.119.3 0 .596-.058.888-.172.292-.124.553-.275.782-.451.018 0 .027-.018.027-.053a.496.496 0 00.013-.12v-.252a4.3 4.3 0 00-.066-.755 1.823 1.823 0 00-.239-.65 1.19 1.19 0 00-.451-.464c-.194-.115-.437-.173-.729-.173-.239 0-.468.045-.689.133a1.855 1.855 0 00-.571.371 1.638 1.638 0 00-.543 1.22c0 .15.022.296.066.438a1.2 1.2 0 00.252.397zm7.468 4.84a.381.381 0 01-.092.014.603.603 0 01-.517-.133.468.468 0 01-.146-.345c0-.177.088-.336.265-.477a5.245 5.245 0 001.511-1.087c.434-.442.765-.946.995-1.512-.46.194-.919.292-1.379.292-.451 0-.844-.075-1.18-.226a2.628 2.628 0 01-.836-.57 2.553 2.553 0 01-.503-.782 2.492 2.492 0 01-.16-.862c0-.336.062-.668.186-.995.133-.327.323-.618.57-.875a2.9 2.9 0 01.928-.636 3.061 3.061 0 011.273-.252c.221 0 .425.031.61.093.389.106.703.256.942.451.247.194.442.419.583.676.142.256.239.543.292.862.062.309.097.645.106 1.007 0 .575-.08 1.132-.239 1.671a5.363 5.363 0 01-.676 1.485c-.292.46-.65.875-1.074 1.247-.424.371-.91.689-1.459.954zm-.636-4.84c.186.186.385.323.597.412.212.079.433.119.663.119.3 0 .596-.058.888-.172.292-.124.553-.275.782-.451.018 0 .027-.018.027-.053a.496.496 0 00.013-.12v-.252a4.3 4.3 0 00-.066-.755 1.823 1.823 0 00-.239-.65 1.19 1.19 0 00-.451-.464c-.194-.115-.437-.173-.729-.173-.239 0-.468.045-.689.133a1.855 1.855 0 00-.571.371 1.638 1.638 0 00-.543 1.22c0 .15.022.296.066.438a1.2 1.2 0 00.252.397zm5.312 3.302c.141-.23.314-.345.517-.345.132 0 .252.049.358.146a.498.498 0 01.159.385.84.84 0 01-.066.291c-.168.336-.336.677-.504 1.021-.159.345-.323.686-.491 1.021a.55.55 0 01-.238.199.56.56 0 01-.252.067.472.472 0 01-.345-.146c-.097-.097-.146-.234-.146-.411v-.093c0-.027.004-.058.013-.093.168-.336.332-.676.491-1.021.168-.345.336-.685.504-1.021zm5.225.159c.168.044.292.12.371.226a.478.478 0 01-.013.649.78.78 0 01-.398.213h-2.042c-.194-.018-.34-.08-.437-.186a.577.577 0 01-.133-.358.55.55 0 01.146-.358c.106-.124.261-.186.464-.186h.384v-5.476a.672.672 0 01-.397.133.506.506 0 01-.372-.146.547.547 0 01-.132-.358c0-.08.017-.164.053-.252a.707.707 0 01.199-.239l.915-.597a.845.845 0 01.291-.066c.274 0 .451.155.531.464v6.537h.57z" fill="#0076CE"/><path d="M234.508 278.463v4.834h2.207v12.861h-5.904v-17.695c0-.178.09-.311.209-.311h3.28c.119 0 .208.133.208.311z" fill="#F6F6F6"/><path d="M230.841 293.23h5.904v-2.971h-5.904v2.971z" fill="#D65229"/><path d="M232.838 288.795h.686v-2.084c0-.044-.03-.133-.06-.133h-.536c-.03 0-.06.044-.06.133v2.084h-.03z" fill="#C6C6C6"/><path d="M233.017 286.8h.358c.03 0 .06.044.06.089v.532c0 .045-.03.089-.06.089h-.358c-.03 0-.059-.044-.059-.089v-.532c0-.045 0-.089.059-.089z" fill="#546C82"/><path d="M232.838 283.296h.686v-2.085c0-.044-.03-.133-.06-.133h-.536c-.03 0-.06.044-.06.133v2.085h-.03z" fill="#C6C6C6"/><path d="M233.017 281.256h.358c.03 0 .06.044.06.089v.532c0 .044-.03.089-.06.089h-.358c-.03 0-.059-.045-.059-.089v-.532c0-.045 0-.089.059-.089z" fill="#546C82"/><path d="M233.286 278.152h.745v-3.903c0-.31-.149-.532-.358-.532h-.03c-.208 0-.357.222-.357.532v3.903z" fill="#3C3C3B"/><path d="M233.286 278.151h.745v-2.439c0-.311-.149-.532-.358-.532h-.03c-.208 0-.357.221-.357.532v2.439z" fill="#1D1D1B"/><path d="M232.302 278.152h.745v-3.903c0-.31-.149-.532-.358-.532h-.029c-.209 0-.358.222-.358.532v3.903z" fill="#3C3C3B"/><path d="M232.302 278.151h.745v-2.439c0-.311-.149-.532-.358-.532h-.029c-.209 0-.358.221-.358.532v2.439z" fill="#1D1D1B"/><path d="M231.318 278.152h.746v-3.903c0-.31-.149-.532-.358-.532h-.03c-.209 0-.358.222-.358.532v3.903z" fill="#3C3C3B"/><path d="M231.318 278.151h.746v-2.439c0-.311-.149-.532-.358-.532h-.03c-.209 0-.358.221-.358.532v2.439z" fill="#1D1D1B"/><path d="M231.08 275.935v2.217h.238l1.342-.976 1.342.976h.238v-2.217h-3.16zm2.802.177l-1.222.887-1.223-.887h2.445zm-1.103.976l1.342-.976v1.951l-1.342-.975zm-1.58-.976l1.342.976-1.342.975v-1.951z" fill="#3C3C3B"/><path d="M218.556 299.838h20.365v-4.036h-9.064v-5.499l.477-2.971h-3.191v-6.608h-9.332l.745 2.927v16.187z" fill="#EDEDED"/><path d="M221.687 282.941h5.456v-1.863h-5.009l-.447 1.863z" fill="#D65229"/><path d="M226.159 282.586h.239l.238-1.108h-.238l-.239 1.108zm-.476 0h.238l.239-1.108h-.239l-.238 1.108zm-.507 0h.239l.238-1.108h-.238l-.239 1.108zm-.477 0h.238l.239-1.108h-.239l-.238 1.108zm-.507 0h.238l.239-1.108h-.239l-.238 1.108zm-.477 0h.238l.239-1.108h-.239l-.238 1.108zm-.477 0h.238l.239-1.108h-.239l-.238 1.108zm-.507 0h.238l.239-1.108h-.239l-.238 1.108zm-.477 0h.238l.239-1.108h-.239l-.238 1.108z" fill="#546C82"/><path d="M217.811 280.724l.745 2.927h2.952l.746-2.927h-4.443z" fill="#F6F6F6"/><path d="M221.568 282.941l.418-1.863h-.805v1.863h.387zm-3.07 0l-.418-1.863h.805v1.863h-.387zm1.609 0h.984v-1.863h-.984v1.863zm-1.103 0h.984v-1.863h-.984v1.863z" fill="#546C82"/><path d="M218.557 286.978h2.951v-3.327h-2.951v3.327z" fill="#E6E6E6"/><path d="M220.764 286.978h.745v-3.327h-.745v3.327z" fill="#DEDEDE"/><path d="M218.557 286.978h.745v-3.327h-.745v3.327z" fill="#EDEDED"/><path d="M224.46 286.977h.656v-2.084c0-.045-.029-.133-.059-.133h-.537c-.03 0-.06.044-.06.133v2.084z" fill="#C6C6C6"/><path d="M224.61 284.938h.358c.03 0 .059.044.059.088v.533c0 .044-.029.088-.059.088h-.358c-.03 0-.06-.044-.06-.088v-.533c0-.044.03-.088.06-.088z" fill="#546C82"/><path d="M224.46 289.905h.656v-2.084c0-.045-.029-.133-.059-.133h-.537c-.03 0-.06.044-.06.133v2.084z" fill="#C6C6C6"/><path d="M224.61 287.908h.358c.03 0 .059.045.059.089v.532c0 .045-.029.089-.059.089h-.358c-.03 0-.06-.044-.06-.089v-.532c0-.044.03-.089.06-.089zm1.311-2.039h.478v-.755h-.478v.755zm-2.683 0h.477v-.755h-.477v.755zm-1.253 0h.477v-.755h-.477v.755zm7.425 3.326h.506l.179-1.109h-.477l-.208 1.109zm-.716 0h.477l.179-1.109h-.477l-.179 1.109zm-.805 0h.537l.179-1.109h-.746l.03 1.109zm-.238-1.109h-.746v1.109h.746v-1.109z" fill="#546C82"/><path d="M265.367 297.177h-.059l-7.752-1.774v.444l2.653 1.153h.03l4.532 1.996.596-1.819zm-3.667.178l-.537-.532.776-.134-.15.71-.089-.044zm-1.312-.577l.09-.443h.029l.358.354-.417.089h-.06zm.358-.355l.805.178-.507.088-.298-.266zm2.475 1.597l-.537-.665.745-.266-.208.931zm.328-.931l.417.665-.626.266.209-.931zm-.955.088l-.327-.443.954.222-.627.221zm-.536-.443l.387.532-.536.177h-.03l.179-.709zm.507.621l.417.532-.835-.355.418-.177zm1.49.576l.418.666-.954-.444.536-.222zm.12-.088l.894-.4-.387 1.154-.507-.754zm-.06-.133l-.388-.621 1.163.266-.775.355zm-5.933-1.908l2.176.488-.089.399-2.087-.887zm2.832 1.065l.328.355-.626-.266.298-.089z" fill="#FFA333"/><path d="M267.156 299.484h-2.683v-1.553c0-.621.328-1.153.775-1.153h1.163c.417 0 .775.532.775 1.153l-.03 1.553z" fill="#E38716"/><path d="M257.705 295.847h-.06v1.729h.06v-1.729zm-.209 0h-.059v1.729h.059v-1.729z" fill="#3C3C3B"/><path d="M257.824 295.625c0 .222-.119.399-.269.399-.149 0-.268-.177-.268-.399 0-.222.119-.399.268-.399.15 0 .269.177.269.399zm-.179 2.35v-.088c.09-.045.149-.178.12-.311 0-.133-.09-.221-.179-.266-.12-.044-.239.089-.239.311 0 .133.06.221.119.31v.133c0 .045.03.089.06.089.06 0 .119.089.09.222-.03.177-.209.133-.239 0-.03.177.06.266.149.266.119 0 .179-.133.209-.266.059-.311-.09-.4-.09-.4z" fill="#3C3C3B"/><path d="M265.129 297.576h-.15v1.331h.15v-1.331zm.387 0h-.149v1.331h.149v-1.331zm.388 0h-.149v1.331h.149v-1.331zm.358 0h-.149v1.331h.149v-1.331zm.387 0h-.149v1.331h.149v-1.331z" fill="#CC7914"/><path d="M228.753 286.977h.358v-10.732c0-.133-.089-.266-.179-.266-.089 0-.179.133-.179.266v10.732zm-.864 0h.358v-10.732c0-.133-.089-.266-.179-.266-.089 0-.179.133-.179.266v10.732z" fill="#1D1D1B"/><path d="M218.08 279.528h.239v-.489h-.239v.489z" fill="#DEDEDE"/><path d="M217.901 280.369h.864l-.357-.887c0-.045-.03-.044-.06-.044h-.268c-.03 0-.06.044-.06.088l-.119.843z" fill="#E6E6E6"/><path d="M217.334 279.173h1.729c.06 0 .12-.089.12-.178s-.06-.178-.12-.178h-1.729c-.06 0-.119.089-.119.178s.059.178.119.178zm5.457 1.196h.178V266h-.059l-.119 14.369zm-.924 0h.119v-7.007h-.06l-.059 7.007z" fill="#F6F6F6"/><path d="M224.4 273.274h.239v-.444h-.239v.444z" fill="#DEDEDE"/><path d="M224.281 273.717h.805l-.358-.532c0-.044-.029-.044-.059-.044h-.298c-.03 0-.06.044-.06.044l-.03.532z" fill="#E6E6E6"/><path d="M223.655 272.874h1.73c.059 0 .119-.089.119-.178s-.06-.177-.119-.177h-1.73c-.059 0-.119.088-.119.177 0 .134.06.178.119.178z" fill="#F6F6F6"/><path d="M224.192 273.007v.843h1.58l-.686 4.612.179.044.06-.399.954-1.109.775 1.065v.354h.179v-8.736h.656c.03 0 .06-.045.06-.089s-.03-.089-.06-.089h-.656v-1.153h-.119v-.221h.268v-.178h-.984v.178h.269v.221h-.12l-.03.133h-.626v.976h-.506c-.03 0-.06.044-.06.089 0 .044.03.088.06.088h.954l-.149 1.02h-1.789v.843h1.669l-.208 1.331h-1.64l-.03.177zm2.862-4.302v.222h-.358l.03-.222h.328zm-.209 2.173l.06.178h-.388l.09-.178h.238zm-.178-.089l.089-.177.06.177h-.149zm.178-.354l.209-.444v.754h-.089l-.12-.31zm-.447 2.572l.209-.355.149.355h-.358zm.418.089l.059.177h-.656l.12-.177h.477zm-.12-.621l.358-.665v1.153h-.149l-.209-.488zm.358.621v.177h-.03l-.059-.177h.089zm0-2.04l-.059-.178h.059v.178zm0 4.568l-.537-.932.537-.754v1.686zm-.059.177h-1.223l.686-.976.537.976zm-.955-1.951h.895l-.507.709-.388-.709zm0-.267l.12-.221h.745l.09.221h-.955zm.06-.487h.09l-.12.177h-.03l.06-.177zm-1.58-1.952h1.67l-.03.222h-1.64v-.222zm1.699-.266l-.029.178h-1.67v-.178h1.699zm.06.932l.268.62-.298.533h-.119l.149-1.153zm.06-.134h.626l-.358.666-.268-.666zm.149-.532h.477l.089.222h-.656l.09-.222zm-.09-.088l.03-.178h.06l-.09.178zm-.417-1.641h.447l-.03.177h-.417v-.177zm0-.399h.507l-.03.266h-.477v-.266zm.566-.355l-.03.266h-.536v-.266h.566zm.149 1.774l-.179.354h-.089l.119-.798.149.444zm-.089-.666h.417l-.238.488-.179-.488zm.03-.354h.417v.177h-.447l.03-.177zm.059-.399h.388v.266h-.417l.029-.266zm.358-.577h-.298v-.222h.298v.222zm-.686 8.515l.686-.798v1.729l-.686-.931zm-.626-.887h1.163l-.626.754-.537-.754zm-.119.089l.567.798-.805.931.238-1.729zm.328-2.173l.417.709-.656.887.239-1.596zm-1.67-.621h1.581l-.03.221h-1.551v-.221zm0-.266h1.61l-.029.177h-1.61l.029-.177z" fill="#F6F6F6"/><path d="M223.954 280.368h5.396v-2.572h-4.412l-.984 2.572z" fill="#EDEDED"/><path d="M225.921 280.37h.656v-2.085c0-.044-.029-.133-.059-.133h-.537c-.03 0-.06.045-.06.133v2.085z" fill="#C6C6C6"/><path d="M226.07 278.329h.358c.029 0 .059.044.059.089v.532c0 .045-.03.089-.059.089h-.358c-.03 0-.06-.044-.06-.089v-.532c0-.045.03-.089.06-.089z" fill="#546C82"/><path d="M217.841 280.724h11.778v-.355h-11.778v.355zm-.03-1.463v1.064h.06v-.31h1.878v.31h.06v-.31h1.908v.31h.059v-.31h1.909v.31h.059v-.31h1.908v.31h.06v-.31h1.908v.31h.06v-.31h1.878v.31h.06v-1.064h-11.807zm3.906.088v.222h-1.908v-.222h1.908zm1.968 0v.222h-1.909v-.222h1.909zm1.967 0v.222h-1.908v-.222h1.908zm1.938 0v.222h-1.908v-.222h1.908zm1.938.222h-1.878v-.222h1.878v.222zm-1.848.355v-.266h1.878v.266h-1.878zm-1.968 0v-.266h1.908v.266h-1.908zm-1.968 0v-.266h1.908v.266h-1.908zm-1.968 0v-.266h1.909v.266h-1.909zm-1.938 0v-.266h1.909v.266h-1.909zm-1.938-.266h1.879v.266H217.9v-.266zm0-.311h1.879v.222H217.9v-.222zm9.244 4.301h9.809v-.355h-9.809v.355zm1.938-1.374v.222h-1.938v.089h1.938v.266h-1.938v.088h1.938v.311h.059v-.311h1.908v.311h.06v-.311h1.908v.311h.06v-.311h1.908v.311h.06v-.311h1.61v.311h.059v-1.064h-9.541v.088h1.909zm3.935 0v.222h-1.908v-.222h1.908zm1.938 0v.222h-1.908v-.222h1.908zm1.7.222h-1.61v-.222h1.61v.222zm-1.64.399v-.266h1.61v.266h-1.61zm-1.938 0v-.266h1.908v.266h-1.908zm-1.968 0v-.266h1.908v.266h-1.908zm-1.968-.31h1.908v.266h-1.908v-.266zm0-.311h1.908v.222h-1.908v-.222zm-1.759 13.527h13.984v-.4h-13.984v.4z" fill="#3C3C3B"/><path d="M240.889 299.837h.238v-4.035h-.238v4.035zm-11.807-5.409v.221h-1.67v.089h1.67v.266h-1.67v.089h1.67v.31h.059v-.31h1.909v.31h.059v-.31h1.908v.31h.06v-.31h1.908v.31h.06v-.31h1.908v.31h.06v-.31h1.908v.31h.06v-.31h2.116v.31h.06v-1.064h-13.715v.089h1.64zm3.935 0v.221h-1.908v-.221h1.908zm1.938 0v.221h-1.908v-.221h1.908zm1.968 0v.221h-1.908v-.221h1.908zm1.968 0v.221h-1.908v-.221h1.908zm2.177.221h-2.117v-.221h2.117v.221zm-2.117.355v-.266h2.117v.266h-2.117zm-1.968 0v-.266h1.908v.266h-1.908zm-1.968 0v-.266h1.908v.266h-1.908zm-1.938 0v-.266h1.908v.266h-1.908zm-1.968 0v-.266h1.908v.266h-1.908zm-1.968-.266h1.909v.266h-1.909v-.266zm0-.31h1.909v.221h-1.909v-.221z" fill="#3C3C3B"/><path d="M237.579 296.956c0-.089-.03-.178-.119-.178-.537.089-2.326.222-3.668.222-1.52 0-3.786-.222-3.786-.222s.209 1.952 1.133 2.262c.656.222 4.8.133 5.665.133.089 0 .149-.089.179-.222.03-.31.089-.709.507-1.02l.089-.975z" fill="#FFA333"/><path d="M236.923 297.887c-.059.443-.298.975-.596.975s-4.293.045-4.592 0c-.298-.044-.834-.088-1.073-.487.149.399.537.576 1.133.62.507.045 4.294 0 4.532 0 .298 0 .537-.31.596-1.108zm-6.768-1.109c.507.045 2.355.222 3.637.222 1.193 0 2.743-.088 3.459-.177 0 0-1.461.533-3.876.444-2.415-.045-3.22-.489-3.22-.489z" fill="#C6C6C6"/><path d="M235.76 299.484h.596v-.311c0-.089-.029-.133-.089-.133h-.417c-.06 0-.09.044-.09.133v.311zm-3.637 0h.596v-.311c0-.089-.029-.133-.089-.133h-.417c-.06 0-.09.044-.09.133v.311z" fill="#3C3C3B"/><path d="M247.627 296.956c0-.089-.03-.178-.119-.178-.537.089-2.356.222-3.668.222-1.52 0-3.786-.222-3.786-.222s.208 1.952 1.133 2.262c.656.222 4.8.133 5.665.133.089 0 .149-.089.179-.222.029-.31.089-.709.506-1.02l.09-.975z" fill="#FFA333"/><path d="M247.001 297.887c-.06.443-.298.975-.596.975s-4.294.045-4.592 0c-.298-.044-.835-.088-1.073-.487.149.399.536.576 1.133.62.507.045 4.293 0 4.532 0 .268 0 .507-.31.596-1.108zm-6.798-1.109c.507.045 2.356.222 3.638.222 1.192 0 2.743-.088 3.458-.177 0 0-1.461.533-3.876.444-2.415-.045-3.22-.489-3.22-.489z" fill="#C6C6C6"/><path d="M245.808 299.484h.596v-.311c0-.089-.029-.133-.089-.133h-.417c-.06 0-.09.044-.09.133v.311zm-3.637 0h.596v-.311c0-.089-.03-.133-.089-.133h-.418c-.059 0-.089.044-.089.133v.311zm-14.759-7.629v-.088h3.399v.088h-1.67v.222h1.67v.089h-1.67v.266h1.67v.088h-1.67v.311h-.059v-.266h-1.67v-.089h1.67v-.266h-1.67v-.089h1.67v-.221l-1.67-.045zm-.03 1.376h3.429v-.355h-3.429v.355z" fill="#3C3C3B"/><path d="M216.351 286.136h.238v-.445h-.238v.445z" fill="#DEDEDE"/><path d="M216.171 287.066h.627l-.12-.976c0-.044-.03-.044-.03-.044h-.298c-.03 0-.03.044-.03.044l-.149.976zm.299-2.306h-.746v.089l.746.266v-.355zm0-.71h-.746v.089l.746.266v-.355z" fill="#E6E6E6"/><path d="M216.47 285.647c.059 0 .089-.044.089-.133v-2.572c0-.089-.03-.133-.089-.133-.06 0-.09.044-.09.133v2.572c0 .044.06.133.09.133z" fill="#F6F6F6"/><path d="M216.47 285.247c.208 0 .357.178.357.355h-.745c.03-.222.179-.355.388-.355z" fill="#E6E6E6"/><path d="M215.605 285.78h1.729c.06 0 .12-.089.12-.177 0-.089-.06-.178-.12-.178h-1.729c-.06 0-.119.089-.119.178 0 .088.059.177.119.177zm.209-1.729h.179v-.267c0-.044-.03-.089-.06-.089h-.059c-.03 0-.06.045-.06.089v.267zm0 .71h.179v-.267c0-.044-.03-.089-.06-.089h-.059c-.03 0-.06.045-.06.089v.267z" fill="#F6F6F6"/><path d="M216.112 287.333h14.222v-.355h-14.222v.355zm0-1.465v1.064h.059v-.31h2.117v.31h.06v-.31h1.908v.31h.06v-.31h1.908v.31h.06v-.31h1.908v.31h.059v-.31h1.909v.31h.059v-.31h1.908v.31h.06v-.31h2.117v.31h.06v-1.064h-14.252zm4.144.089v.222h-1.908v-.222h1.908zm1.968 0v.222h-1.908v-.222h1.908zm1.938 0v.222h-1.908v-.222h1.908zm1.968 0v.222h-1.908v-.222h1.908zm1.968 0v.222h-1.909v-.222h1.909zm2.176.222h-2.117v-.222h2.117v.222zm-2.117.399v-.266h2.117v.266h-2.117zm-1.968 0v-.266h1.909v.266h-1.909zm-1.938 0v-.266h1.909v.266h-1.909zm-1.967 0v-.266h1.908v.266h-1.908zm-1.968 0v-.266h1.908v.266h-1.908zm-1.968 0v-.266h1.908v.266h-1.908zm-2.177-.311h2.117v.266h-2.117v-.266zm0-.31h2.117v.222h-2.117v-.222zm14.64 3.948l.746-1.109h5.396v.355h-5.396l-.746 1.108h-6.857v-.354h6.857z" fill="#3C3C3B"/><path d="M225.146 288.928v.222h-1.192v.088h1.192v.266h-1.192v.089h1.192v.311h.06v-.311h1.908v.311h.06v-.311h1.908v.311h.06v-.311h1.61v.311h.059v-.311h.03l.716-1.064v.31h.059v-.31h1.372v.31h.059v-.31h1.909v.31h.059v-.31h1.61v.31h.06v-1.109h-5.099l-.745 1.109h-6.887v.089h1.192zm9.869-.798h1.61v.266h-1.61v-.266zm0-.311h1.61v.222h-1.61v-.222zm-1.938.311h1.908v.266h-1.908v-.266zm0-.311h1.908v.222h-1.908v-.222zm-1.461.311h1.372v.266h-1.372v-.266zm0-.311h1.372v.222h-1.372v-.222zm-.805 1.419l.746-1.064v.266h-.03l-.716 1.064v-.266zm0-.31l.746-1.109v.222h-.03l-.716 1.064v-.177zm-1.669.31h1.61v.266h-1.61v-.266zm0-.31h1.61v.222h-1.61v-.222zm-1.968.31h1.908v.266h-1.908v-.266zm0-.31h1.908v.222h-1.908v-.222zm-1.968.31h1.908v.266h-1.908v-.266zm0-.31h1.908v.222h-1.908v-.222zm4.353 9.536v.221h-1.461v.089h1.461v.266h-1.461v.089h1.461v.311h.059v-.311h1.908v.311h.06v-.311h1.908v.311h.06v-.311h1.908v.311h.06v-.311h1.908v.311h.06v-.311h1.908v.311h.059v-.311h1.909v.311h.059v-.311h1.908v.311h.06v-.311h1.908v.311h.06v-.311h1.908v.311h.06v-.311h1.908v.311h.059v-.311h1.909v.311h.059v-.311h2.117v.311h.06v-1.065h-25.343v.089h1.461zm21.646.31h2.117v.266h-2.117v-.266zm0-.31h2.117v.221h-2.117v-.221zm-1.938.31h1.908v.266h-1.908v-.266zm0-.31h1.908v.221h-1.908v-.221zm-1.968.31h1.908v.266h-1.908v-.266zm0-.31h1.908v.221h-1.908v-.221zm-1.968.31h1.908v.266h-1.908v-.266zm0-.31h1.908v.221h-1.908v-.221zm-1.968.31h1.908v.266h-1.908v-.266zm0-.31h1.908v.221h-1.908v-.221zm-1.968.31h1.909v.266h-1.909v-.266zm0-.31h1.909v.221h-1.909v-.221zm-7.901 0v.221h-1.908v-.221h1.908zm1.968 0v.221h-1.908v-.221h1.908zm1.968 0v.221h-1.908v-.221h1.908zm1.968 0v.221h-1.908v-.221h1.908zm1.938.266h-1.908v-.222h1.908v.222zm-1.908.355v-.311h1.908v.266h-1.908v.045zm-1.938 0v-.311h1.908v.266h-1.908v.045zm-1.968 0v-.311h1.908v.266h-1.908v.045zm-1.968 0v-.311h1.908v.266h-1.908v.045zm-1.968 0v-.311h1.908v.266h-1.908v.045zm-1.968-.311h1.908v.266h-1.908v-.266zm0-.31h1.908v.221h-1.908v-.221zm-31.664-3.016h6.381v-.533c0-.354-.179-.576-.388-.576h-5.575c-.239 0-.388.266-.388.576l-.03.533zm7.126 0l.179-.798c.03-.133.119-.222.209-.178l8.199.621-8.587.355z" fill="#3C3C3B"/><path d="M268.587 299.484l-.984-.755h-11.27l-2.952.755h2.445l.477-.355h11.032l.239.355h1.013z" fill="#D65229"/><path d="M246.285 308.53l-30.65.089c.089.178-10.048-.399-13.745-4.346l-4.89-6.608.477-2.572h17.174l1.461-7.717h7.841v2.971h3.429v6.608l1.729 2.573h39.476l1.73 1.463h1.938c.417 0 .745.488.745 1.109 0 .222-.06.443-.179.621-.417.621-1.52 2.084-3.25 2.661l-3.697 2.572-6.619.355-12.97.221z" fill="#F6F6F6"/><path d="M273 302.1c0 .222-.06.444-.179.621-.328.532-1.163 1.641-2.415 2.306h-16.28l-3.935 1.464h-44.783c-2.236-.577-2.386-1.065-3.519-2.218l-2.713-3.681h30.681l-.746-1.109h39.476l1.729 1.464h1.938c.418 0 .746.532.746 1.153z" fill="#1D1D1B"/><path d="M197.12 296.912l.357-1.863h17.174l.984 1.863H197.12z" fill="#D65229"/><path d="M221.985 289.549h.746v-1.109h-.746v1.109zm-1.938 0h.746v-1.109h-.746v1.109zm-2.206 0h.746v-1.109h-.746v1.109zm4.144 2.971h.746v-1.109h-.746v1.109zm-1.938 0h.746v-1.109h-.746v1.109zm-2.206 0h.746v-1.109h-.746v1.109zm4.144 2.928h.746v-1.109h-.746v1.109zm-1.938 0h.746v-1.109h-.746v1.109zm-2.206 0h.746v-1.109h-.746v1.109zm-1.729 0h.477v-1.109h-.477v1.109zm0-2.928h.477v-1.109h-.477v1.109zm5.873 5.855h.746v-1.108h-.746v1.108zm1.969-5.855h.745v-1.109h-.745v1.109zm0 2.928h.745v-1.109h-.745v1.109zm0 2.927h.745v-1.108h-.745v1.108zm1.967-5.855h.746v-1.109h-.746v1.109zm0 2.928h.746v-1.109h-.746v1.109zm0 2.927h.746v-1.108h-.746v1.108zm-5.874 0h.746v-1.108h-.746v1.108zm-2.206 0h.746v-1.108h-.746v1.108z" fill="#546C82"/><path d="M229.857 300.592h40.042l-1.282-1.109h-39.475l.715 1.109z" fill="#D65229"/><defs><linearGradient id="paint0_linear" x1="162.667" y1="307.461" x2="162.667" y2="457.013" gradientUnits="userSpaceOnUse"><stop stop-color="#409CCB"/><stop offset=".844" stop-color="#3E5680"/></linearGradient><linearGradient id="paint1_linear" x1="162.667" y1="349.139" x2="162.667" y2="457.013" gradientUnits="userSpaceOnUse"><stop offset=".318" stop-color="#fff"/><stop offset="1" stop-color="#B5E0F1"/></linearGradient><linearGradient id="paint2_linear" x1="40.8" y1="353.384" x2="162.164" y2="353.384" gradientUnits="userSpaceOnUse"><stop stop-color="#409CCB"/><stop offset=".844" stop-color="#3E5680"/></linearGradient></defs></svg>