<svg width="169" height="127" fill="none" xmlns="http://www.w3.org/2000/svg"><g clip-path="url(#clip0)"><path d="M17.086 74.247c0 .348.044.74 0 1.09-.22 1.787.792 4.141-1.365 5.1-2.598 1.178-5.46.742-8.102-.218-1.013-.392-1.277-1.525-1.542-2.484C3.92 69.45 2.511 60.992 1.674 52.49c-.396-3.967.352-4.752 4.36-5.536a90.965 90.965 0 014.975-.785c1.938-.262 3.523.305 4.932 1.744 2.422 2.441 4.535 5.1 6.605 7.847 1.32 1.744 1.805 1.613 2.73-.392 1.365-3.052 2.378-6.235 4.271-9.025 1.013-1.526 2.29-2.354 4.14-2.485 2.553-.174 5.107-.48 7.661-.392 2.51.087 3.126.697 3.435 3.182.528 4.23.088 8.415-.22 12.556-.397 5.363-1.057 10.682-2.114 15.914-.705 3.575-4.756 5.231-7.97 3.27-.793-.48-1.189-1.221-1.41-2.137-.44-1.875-.307-3.75-.396-5.624-.044-1.046.617-2.79-.836-2.965-1.277-.174-1.321 1.657-1.717 2.703-.617 1.7-1.145 3.445-1.762 5.145-.264.741-.704 1.439-1.189 2.05-1.145 1.438-2.378 1.525-3.654.13a12.048 12.048 0 01-1.85-2.66 117.825 117.825 0 00-2.51-4.577c-.308-.567-.704-1.265-1.453-1.09-.837.174-.704 1.002-.704 1.613v3.27h.088z" fill="#4A8DC6"/><path d="M93.131 14.256c1.498-.523 2.07-1.57 2.202-3.095.088-1.134.396-2.267 1.189-3.183.572.872 1.233 1.7 1.453-.13.264-2.05 1.41-2.616 3.303-2.311.616.087 1.276 0 1.937 0-1.321-.436-2.114-1.788-3.61-1.788 2.157-1.918 4.711-2.833 7.573-3.095.352 2.572 2.158 1.177 3.391 1.177 2.421 0 4.931-.349 6.693 1.918.968 1.265 1.937 2.05 3.258.393.308-.393.793-.436 1.189-.218.176.087.396.61.308.697-1.497 1.352.044 2.006.485 2.965.88-.436.088-1.57 1.188-1.831.177.959 1.41 1.918-.352 2.66-.396.174-.396.784-.132 1.176.22.393.617.35.969.175 2.466-1.22 1.849.349 1.673 1.744-.132.872-1.057 1.83-.22 2.66 1.453 1.525 1.453 2.833 0 4.315-.617.61-.484 1.308.308 2.006 1.189 1.09.837 2.529-.396 3.575-.925.785-2.07.567-3.303 1.003 1.409 1.308.925 2.746.353 4.054-.749 1.788-2.907 2.442-3.875 4.273-.309.61-.837 1.09-.837 1.874-.66.088-1.453-.261-1.761.654-2.334.742-4.668.916-7.09.35-.572-1.483-2.421-1.396-3.258-2.617-.044-.043-.705.262-.705.35.265 1.482-.968.479-1.365.828v.043c.044-.261 0-.61.132-.828 1.365-2.354-1.277-1.875-1.981-2.398-1.101-.829-1.541.261-1.585 1.351-2.246-1.308-3.611-3.27-4.404-5.667-.572-1.875-1.76-2.921-3.786-3.008-2.554-.131-3.567.653-4.008 3.182-.352 1.875-.176 3.75-.176 5.624 0 .741.397 1.613-.396 2.224-.22-2.834.308-5.712-.66-8.545.352 2.833-.265 5.71.66 8.545-2.642 1.744-5.504 1.613-8.41.872-.044-.96-.705-.96-1.41-.785a920.818 920.818 0 01-.748-10.987c-.088-1.22 1.233-2.877-1.1-3.444-.133-.043-.22-.523-.177-.785.528-3.575.088-7.324 1.541-10.812.308-.785.044-1.439-.352-2.223-.396-.742-1.409-1.614-1.013-2.442.44-.915 1.41.262 2.202 0 .264-.087.572-.174.837-.218 2.333-.392 4.711.175 7.221-.349-2.114.567-2.07 2.267-1.585 3.314.969 2.136 1.277 4.36 1.541 6.627.044.436.088.872.22 1.264.22.785 1.145.915 1.277.48.793-2.486 2.07-.61 3.215-.567-.529.828-1.41.61-2.026 1.002 2.29 1.047 4.227.218 4.403-2.049zm21.621 6.976c-2.114-.915-4.272-1.351-6.517-.392-3.039 1.308-3.567 4.316-1.101 6.583 1.145 1.09 2.598 1.133 4.051 1.308.044.654.661 1.351-.088 2.005-.22.218-.308.61-.044.741 1.101.524 2.069-.392 3.17-.261.793.087.969-.61.881-1.22-.22-1.745.881-2.137 2.246-2.137.66 0 1.453 0 1.056-.698-.66-1.09-.396-2.267-.748-3.313-.396-1.308-.705-3.095-2.906-2.616z" fill="#24BAD8"/><path d="M128.887 100.057c.044-2.66-.088-5.93.66-9.156.308-1.395.969-2.005 2.378-1.962 2.642.044 5.24.218 7.882.698 1.409.261 2.07 1.177 2.686 2.31 1.585 2.965 2.598 6.148 3.611 9.287.176.567.264 1.308.88 1.439.749.13 1.057-.654 1.365-1.178 2.246-4.01 4.844-7.76 7.706-11.335 1.101-1.395 2.334-1.962 4.139-1.918 8.235.218 9.468 1.526 8.499 9.548-.881 7.193-1.938 14.343-3.347 21.493-.924 4.709-3.61 6.366-8.41 5.145-1.277-.349-2.026-1.134-2.07-2.485a346.35 346.35 0 01-.176-6.758c0-.479.132-1.133-.484-1.308-.573-.131-.881.393-1.145.829-1.277 2.092-2.466 4.272-3.875 6.321-1.365 1.962-2.774 1.918-4.095-.087-1.497-2.18-2.07-4.796-2.95-7.237-.264-.741-.397-1.831-1.365-1.701-.925.131-.837 1.265-.881 2.006-.044 2.267-.22 4.491-1.013 6.627-.836 2.18-2.289 2.703-5.416 2.441-2.201-.174-2.994-1.308-3.258-3.27-.793-6.408-1.321-12.774-1.321-19.749z" fill="#08A366"/><path d="M68.516 16.567c-.088 5.275-1.453 10.158-4.712 14.43-4.095 5.363-10.127 6.977-16.424 4.448-8.366-3.4-12.946-9.94-12.77-18.224.22-7.63 4.888-13.69 12.198-15.782 7.53-2.137 15.28.348 19.33 6.234 1.85 2.703 2.422 5.711 2.378 8.894zm-16.38 10.29c2.906.043 4.887-1.222 5.24-3.183.396-2.093-.881-4.273-3.039-4.84-2.378-.654-4.491.087-6.208 1.788-1.013.959-1.41 2.267-.749 3.575 1.1 2.049 3.038 2.528 4.756 2.66z" fill="#966CB1"/><path d="M26.288 121.201c-.836.916-1.056 2.006-.924 3.227.22 1.482-.617 2.136-1.938 2.31-1.453.218-2.906.349-4.36.218-2.025-.174-3.346-.828-3.081-3.226.22-1.875-1.41-1.962-2.642-2.18-3.48-.567-6.561-1.874-9.027-4.49.22-.131.616-.262.66-.436.308-.829 1.585-1.526.353-2.573-.353-.305-.485-.915-1.19-.61-1.232.523-.748 1.57-.88 2.442-5.46-6.409-4.007-16.306 3.126-21.102a32.89 32.89 0 013.39-2.005c.838-.436 1.498-.96 1.542-1.918.088-1.352.969-1.875 2.158-2.006 2.598-.262 5.152-1.09 7.75-.218.572.174.968-.305 1.453-.349 1.1-.087 2.642-.174 2.906.96.484 2.136 1.981 2.44 3.61 2.877.265.087.485.305.705.48-.572.392-1.32.61-1.365 1.787.969-.785 2.554 1.264 2.994-1.046 1.41.48 2.598 1.22 3.39 2.485-1.012.523-2.333.74-2.42 2.31.792.262 1.98-.74 2.2.218.617 2.398 1.85 4.622 1.366 7.368-.308 1.57-1.497 3.445.352 5.188.88.829-.88 1.178-1.145 1.003-1.277-1.003-3.699-.261-4.095-2.616-.132-.784-.616-1.438-.837-2.223-.308-1.047-.836-1.613-2.113-1.047 1.145.393 1.937 1.221 1.805 2.268-.22 1.787.925 2.964 1.497 4.403.177.392 1.013.828.925 1.003-.66 1.526-1.233 3.051-1.85 4.577-.308.742-1.144-.566-1.893-.479-.352.043-.704.218-1.057.261-.484.044-1.012-.043-.968-.61 0-1.221-1.145-1.831-1.41-2.834 2.555-.349 4.14-1.874 4.36-4.098.176-2.093-.837-3.357-3.479-4.316 0-.61-.088-1.177-.924-1.134-.66.044-.837.48-.837 1.047.132 5.013-.44 10.202 1.893 15.084zm-11.492-7.586c1.54-1.482 1.012-6.147-.837-6.844-.969-.349-1.937-.262-1.85 1.177-.88.261-1.54.828-2.069 1.526-1.145 1.482-.704 3.662.969 4.708 1.365.829 2.862 1.57 3.787-.567zm-4.492 2.66c1.585-.262 2.378 1.177 3.743.785.617-.175 1.013-.48 1.233-1.09.176-.48-.176-.654-.572-.654-1.41.174-2.907-.393-4.404.959zM27.17 92.907c-.528.305-1.233-1.744-2.334-.175-.308.48-.572 1.046-.176 1.352 1.585 1.264 1.585-1.613 2.51-1.177zm-9.687-3.052c1.32.218 2.245.392 3.61-.262-1.409-.523-2.377-.654-3.61.262z" fill="#24BAD7"/><path d="M149.802 40.066c-5.064-.392-9.996-1.177-14.223-4.316-1.761-1.308-2.202-3.052-1.233-4.49 1.101-1.614 3.215-2.18 5.02-1.265 1.233.61 2.422 1.352 3.655 1.962 1.233.61 2.51.61 3.831.13 2.333-.871 2.818-3.008 1.056-4.795-1.056-1.09-2.421-1.613-3.918-1.744-1.145-.087-1.982-.48-1.85-1.657.132-1.177-.264-2.746 1.673-3.051 1.453-.218 2.819-.654 4.007-1.613 1.277-1.047 2.158-2.355 1.409-3.968-.748-1.7-2.421-2.049-4.095-1.657-1.277.262-2.51.829-3.698 1.352-3.039 1.308-6.297.174-8.059-2.878-1.937-3.357-1.497-5.754 1.762-7.76 6.341-3.924 13.166-5.624 20.519-3.226 5.284 1.744 8.631 6.365 8.323 11.248-.221 3.183-1.806 5.842-4.095 7.935-1.41 1.308-1.542 2.223-.089 3.27 5.681 4.141 4.404 11.597-2.553 15.04-2.29 1.178-4.844 1.57-7.442 1.483z" fill="#FDB934"/><path d="M95.597 45.472c1.762.13 3.523.262 5.24.349 2.422.13 3.435 1.57 3.743 3.793.528 4.316 1.189 8.589 1.717 12.905.617 5.232 1.277 10.507 1.585 15.782.088 1.657-.396 2.354-1.981 2.703-1.982.436-3.919.48-5.901.349-1.32-.087-2.29-.741-2.641-2.18-.75-2.747-1.63-5.406-2.466-8.11-.22-.697-.309-1.656-1.013-1.787-.88-.174-1.321.742-1.673 1.483-1.057 2.005-2.158 3.967-3.127 5.973-.748 1.57-2.025 2.267-3.655 2.31-1.673.087-3.346.218-5.02-.174-2.201-.48-2.862-1.395-2.333-3.575 1.761-7.107 3.875-14.126 6.429-21.014.66-1.744 1.54-3.444 2.113-5.232.881-2.79 2.95-3.531 5.593-3.488h3.522c-.132 0-.132-.043-.132-.087z" fill="#98BC6B"/><path d="M1.938 20.97C1.894 8.937 10.656.261 22.458.61c4.535.13 6.384 2.224 5.856 6.67-.265 2.398-1.057 4.622-1.85 6.889-.924 2.703-3.082 3.967-5.548 4.84-1.497.523-2.554 1.482-2.994 2.964-.485 1.788-.573 3.619 1.012 5.014 1.542 1.351 3.215 1.09 4.888.174 1.101-.61 2.202-1.22 3.523-.96 2.158.437 3.875 1.483 4.447 3.707.573 2.31-.66 3.923-2.466 5.144-3.963 2.66-8.41 3.706-13.122 3.14-8.366-.96-14.266-8.11-14.266-17.222zm53.544 92.035c-.925 2.442-1.761 4.665-2.598 6.889-.44 1.177-1.057 2.223-2.157 2.921-2.686 1.613-5.46.348-6.077-2.703-1.189-5.973-1.321-12.077-1.761-18.137-.22-3.052-.22-6.06-.309-9.112 0-.523-.132-1.133.088-1.482 1.718-2.616 4.448-1.439 6.826-1.613 1.409-.088 2.51.523 2.686 2.223.176 2.006.528 4.011.792 6.017.088.61 0 1.57.705 1.656.88.088.968-.915 1.233-1.57a316.458 316.458 0 002.07-5.928c.528-1.614 1.584-2.355 3.214-2.398 1.233-.044 2.51-.131 3.742-.044 2.466.087 3.127.698 3.083 3.183-.176 7.76-.573 15.477-1.321 23.194-.088 1.002-.22 2.005-.308 3.008-.309 2.572-1.145 3.183-4.36 3.27-2.95.043-3.61-.436-4.007-3.096a243.337 243.337 0 00-.836-5.58c-.088-.175-.265-.262-.705-.698z" fill="#FA8641"/><path d="M144.078 70.367c.176-2.747.308-5.494.617-8.24.176-1.526-.397-2.224-1.894-2.573-7.397-1.744-6.253-1.09-5.856-8.37.088-1.44.352-2.878.528-4.316.132-1.265.837-1.744 2.07-1.744 9.335-.131 18.362 1.57 27.124 4.62 1.982.699 2.774 1.788 2.114 3.968-.749 2.442-1.277 4.927-1.85 7.368-.308 1.395-1.056 1.962-2.465 1.831-1.365-.174-2.819-.087-4.14-.436-2.025-.48-2.598.567-2.95 2.18-.836 4.055-1.937 8.022-3.567 11.859-1.188 2.79-2.906 3.793-5.636 3.4-2.686-.392-3.787-1.569-3.963-4.316-.044-.436-.044-.872-.044-1.308v-3.923c-.044.043-.088.043-.088 0z" fill="#F9AB44"/><path d="M56.143 44.644c1.673-.13 2.554.872 3.258 2.136 1.41 2.573 2.158 5.407 3.303 8.022.22.523.264 1.308 1.013 1.221.66-.044.704-.785.924-1.308.837-2.18 1.365-4.447 2.554-6.452 1.586-2.66 3.127-3.227 6.033-2.05 1.85.742 3.523 1.745 4.976 3.14 1.937 1.83 2.245 3.139.924 5.406a516.21 516.21 0 01-9.115 14.823c-2.113 3.27-4.447 6.452-6.737 9.635-1.717 2.354-3.61 2.834-6.12 1.744-2.818-1.22-3.39-2.31-2.466-5.275.616-2.093 1.277-4.142 2.202-6.148.704-1.526.616-2.615-.44-3.967-2.599-3.226-5.197-6.453-7.178-10.115-2.422-4.403-2.026-6.06 2.157-8.85 1.41-.916 2.863-1.875 4.712-1.962z" fill="#FDB934"/><path d="M111.184 52.492c-.176-6.017 0-6.235 5.505-6.366 6.34-.174 6.296-.174 7.001 6.104a31.27 31.27 0 01.132 4.97c-.044 1.439.572 1.962 1.937 1.962 1.233.044 2.466.087 3.699.262 4.492.654 7.706 3.575 8.455 7.586.88 4.664-1.057 8.806-5.108 11.03-4.668 2.572-9.732 3.444-15.016 2.877-3.082-.305-4.051-1.264-4.535-4.36-.969-6.103-1.321-12.207-1.717-18.354-.132-2.093-.265-4.273-.353-5.711zm11.361 19.313c.044 2.006 1.101 3.488 2.51 3.488 1.673 0 3.346-2.136 3.302-4.185-.044-1.744-1.453-3.27-3.126-3.27-1.673 0-2.73 1.526-2.686 3.967z" fill="#F97765"/><path d="M101.584 97.92v-1.787c1.277-.523.969-1.308.397-2.18 0-.305 0-.567.044-.872.484-.087.748-.305.836-.828.221-2.05 1.366-2.878 3.479-2.704.881.088 1.894.35 2.686-.392 5.328.218 5.769.654 5.328 5.755-.176 1.875-.352 3.75-.748 5.581-.353 1.656-.133 2.528 1.893 2.746 2.29.218 4.624.741 6.649 2.049 5.636 3.706 5.68 13.777-1.849 17.221-5.24 2.398-10.656 3.009-16.249 1.526-3.126-.828-3.698-1.744-3.742-4.97-.044-3.618.22-7.237.572-10.812.572.044 1.101-.087 1.101-.741-.22-3.183.396-6.409-.397-9.592zm14.487 17.265c0-1.788-1.453-3.313-3.038-3.27-1.629.044-3.214 2.049-2.994 4.142.132 1.439.308 3.183 2.378 3.313 1.761.044 3.654-2.136 3.654-4.185z" fill="#966CB1"/><path d="M76.706 95.653c1.806-4.97 3.523-6.06 8.763-5.624 1.893.131 3.743.392 5.504 1.134.704.305 1.541.523 1.717 1.482-.44.916-.66 2.18-2.245 1.439-.309-.131-.749.087-.793.523-.044.305.132.567.44.654 2.598.392 2.642 2.485 2.907 4.36.264 1.569.308 3.139.484 4.708.044.436-.088 1.047.748 1.047.353-.698-.22-1.657.573-2.224.616 1.7.572 3.488.88 5.232-1.144-.131-.572 1.395-1.409 1.482-.748-.392.089-1.569-1.1-1.7-.088.523-.132 1.003-.264 1.482-.485 1.526-1.85 3.314 1.276 3.619.529.043.573.61.573 1.046 0 .916.572 1.046 1.32 1.003v2.398c0 3.487-.836 4.098-4.27 2.964-.397-.13-1.19-.218-1.233-.087-1.321 3.314-1.63-1.439-2.642-.305-.132-.916-.264-1.831-.397-2.79-.792 1.046-.132 2.659-1.673 3.139h.044c.044-.741-.044-1.526.132-2.267.22-1.003-.308-1.221-1.1-1.265-.045-.043-.089-.13-.133-.174-.528-.916 0-2.703-1.189-2.747-1.409-.087-1.32 1.788-1.937 2.747-.484.697-.705 1.569-1.057 2.354-1.85 3.75-5.196 4.578-8.806 2.311 2.994-2.79.66-6.365 1.453-9.504-.66.654-1.19 1.351-1.321 2.136-.176 1.09-.793 1.221-1.674 1.09 1.19-6.06 3.127-11.859 5.416-17.614.617 1.134-.836 2.355.265 3.793.66-2.136 2.333-3.793.748-5.842zm12.285-2.267c.353.044.485-.13.44-.349-.043-.13-.263-.261-.44-.305-.22-.043-.44.044-.352.305.044.175.264.306.353.35z" fill="#24BAD8"/><path d="M93.13 14.256c-.175 2.267-2.069 3.14-4.49 1.962.616-.392 1.496-.174 2.025-1.002-1.145-.044-2.422-1.919-3.215.566-.132.436-1.1.305-1.277-.48-.132-.435-.132-.871-.22-1.264-.264-2.267-.572-4.49-1.541-6.627-.484-1.046-.528-2.79 1.585-3.313-2.51.523-4.888-.087-7.221.349-.264.043-.573.13-.837.218-.748.261-1.717-.916-2.201 0-.397.828.572 1.7 1.012 2.441.44.785.66 1.439.353 2.224-1.454 3.488-1.013 7.193-1.542 10.812-.044.262.044.785.176.785 2.334.523 1.013 2.18 1.101 3.444.22 3.662.485 7.324.749 10.987-1.41-1.221-1.277-2.965-1.585-4.535-1.277-7.237-2.246-14.561-2.29-21.93 0-4.577.264-4.882 4.888-5.623.704-.131 1.453-.175 2.157-.262 1.277 1.264 2.51 1.22 3.479-.13 2.422.087 3.567 1.046 3.567 3.313 0 1.438-.177 2.877-.265 4.316-.22 2.877.617 3.793 3.567 3.837.705-.044 1.365-.088 2.026-.088zm24.66 20.927c0-.785.528-1.264.837-1.874.968-1.788 3.126-2.442 3.875-4.273.572-1.308 1.1-2.747-.353-4.055 1.277-.48 2.378-.218 3.303-1.002 1.233-1.047 1.585-2.529.396-3.575-.793-.698-.925-1.395-.308-2.006 1.497-1.482 1.453-2.79 0-4.316-.793-.828.132-1.744.22-2.66.176-1.395.837-2.92-1.673-1.743-.353.174-.749.218-.969-.175-.264-.392-.308-1.003.132-1.177 1.761-.741.528-1.7.352-2.66-1.1.262-.308 1.396-1.189 1.832-.396-.96-1.937-1.613-.484-2.965.044-.044-.132-.61-.308-.697-.396-.218-.881-.175-1.189.218-1.321 1.7-2.29.915-3.259-.393-1.761-2.267-4.271-1.918-6.693-1.918-1.233 0-3.038 1.351-3.39-1.177 9.687-1.395 18.45 1.438 20.784 10.725 1.453 5.755.176 11.335-2.598 16.567-.221-.175-.397-.305-.617-.48-.044.087-.132.218-.176.305.22.131.44.262.661.35-1.454 3.444-3.787 5.972-7.354 7.15zm.044-32.35c.088.48.396.873.969.916.308.044.616-.13.528-.48-.088-.522-.484-.871-1.013-1.002-.308-.13-.44.174-.484.567zm10.128 12.339c-.088-.175-.221-.349-.309-.523-.044.13-.176.218-.176.349 0 .174.088.392.132.566.132-.13.221-.261.353-.392zM26.289 121.201c-2.334-4.882-1.761-10.071-1.85-15.215 0-.567.133-1.003.837-1.046.837-.044.925.523.925 1.133-.705.175-1.277.436-1.233 1.264.088 2.398-.352 4.796.352 7.15.264 1.047 1.41 1.657 1.41 2.834 0 .523.528.654.968.611.352-.044.705-.218 1.057-.262.704-.087 1.585 1.221 1.893.48l1.85-4.578c.088-.174-.749-.567-.925-1.003-.572-1.439-1.717-2.616-1.497-4.403.132-1.047-.66-1.831-1.806-2.267 1.277-.523 1.806 0 2.114 1.046.22.741.705 1.439.837 2.224.396 2.397 2.818 1.656 4.095 2.615.22.175 2.025-.174 1.145-1.002-1.85-1.788-.617-3.663-.352-5.188.528-2.747-.75-4.971-1.366-7.368-.264-.96-1.409.043-2.201-.219.044-1.569 1.365-1.787 2.422-2.31 2.245 1.918 3.126 4.534 3.566 7.324-.176.175-.572.262-.176.567.044-.174.088-.392.176-.567.529 1.744.573 3.488 0 5.276-.616.087-1.365-.262-1.673.566-.088.218-.044.698.088.785.66.436.88-.61 1.453-.479-1.1 5.667-4.931 8.893-9.863 11.161-.705.348-1.497.566-2.246.871zm8.146-6.844c-.132-.044-.264-.175-.352-.131-.088.043-.132.218-.176.349.132.043.264.174.352.13.088-.043.132-.218.176-.348zm2.07-13.08c0 .044-.044.131-.044.175 0 0 .088.043.132.043 0-.043.044-.13.044-.174.044 0-.044-.044-.132-.044zm49.492 19.358c1.541-.48.88-2.093 1.673-3.139.132 1.002.264 1.918.397 2.79 1.012-1.134 1.32 3.619 2.642.305.044-.131.836-.043 1.233.087 3.434 1.09 4.27.523 4.27-2.964v-1.09h.397c.22 1.22.44 2.441.088 3.706-.044 2.092-1.673 2.005-3.39 2.092.792.436 1.629.349 1.585 1.265-1.145-.262-2.202.479-3.303.436-.396 0-.748-.044-1.145-.044-.264-.436-.572-.48-.88-.044-2.07-.218-3.39-1.177-3.567-3.4zm-15.587-5.363c.88.131 1.497 0 1.673-1.09.132-.785.66-1.482 1.321-2.136-.792 3.183 1.541 6.714-1.453 9.504-2.906-1.526-2.025-3.924-1.541-6.278zm24.483-12.12c-.793.567-.22 1.526-.572 2.224-.793 0-.705-.611-.749-1.047-.176-1.569-.264-3.182-.484-4.708-.309-1.875-.353-3.968-2.907-4.36-.308-.044-.484-.305-.44-.654.044-.436.484-.698.793-.523 1.585.74 1.805-.48 2.245-1.439.485.349.44.872.397 1.352-.705.915 0 1.525.484 2.18.749 2.223 1.1 4.577 1.233 6.975zm1.32 12.164c-.748.043-1.32-.131-1.32-1.003 0-.436-.045-1.003-.573-1.046-3.126-.306-1.761-2.093-1.277-3.619.132-.48.176-.959.264-1.482 1.189.174.352 1.351 1.1 1.7.838-.087.265-1.657 1.41-1.482.176 1.7.705 3.313.484 5.057-.044.61-.088 1.264-.088 1.875zM99.604 3.75c1.453 0 2.29 1.35 3.611 1.787-.661 0-1.321.087-1.938 0-1.893-.305-3.038.261-3.302 2.31-.22 1.875-.881 1.047-1.453.131.528-1.787 1.629-3.139 3.082-4.229zm.572 29.166c0-1.09.44-2.18 1.585-1.351.749.523 3.347.043 1.982 2.398-.133.218-.089.566-.133.828-1.233-.392-2.465-.872-3.434-1.875z" fill="#1BBBD6"/><path d="M101.586 97.92c.792 3.183.176 6.409.308 9.635.044.654-.529.785-1.101.741.22-3.444.088-6.932.793-10.376z" fill="#966CB1"/><path d="M3.303 115.839c.132-.872-.353-1.918.88-2.441.705-.306.837.305 1.19.61 1.232 1.046-.045 1.787-.353 2.572-.088.218-.44.305-.66.436a14.349 14.349 0 01-1.057-1.177zM103.655 34.79c.397-.348 1.63.655 1.365-.828 0-.087.661-.392.705-.348.836 1.177 2.73 1.09 3.258 2.616-1.937-.044-3.743-.436-5.328-1.44z" fill="#1BBBD6"/><path d="M108.984 89.244c-.793.741-1.806.436-2.686.393-2.114-.175-3.259.654-3.479 2.703-.044.523-.352.74-.836.828-.177-3.662.22-4.098 3.742-4.055 1.057-.043 2.158.044 3.259.131z" fill="#966CB1"/><path d="M76.706 95.653c1.541 2.006-.088 3.662-.616 5.799-1.101-1.395.308-2.66-.265-3.793.176-.698.397-1.395.881-2.006zm-45.134-2.354c-.484 2.31-2.025.261-2.994 1.046.088-1.177.793-1.439 1.365-1.787.66 0 1.19.261 1.63.74z" fill="#1BBBD6"/><path d="M94.936 123.687c0-.872-.837-.829-1.585-1.265 1.717-.087 3.346 0 3.39-2.092.484 1.7 0 2.877-1.805 3.357z" fill="#24BAD7"/><path d="M84.28 2.834c-.968 1.351-2.245 1.395-3.478.13 1.145-.13 2.29-.392 3.478-.13z" fill="#24BAD8"/><path d="M85.073 117.06c.793.043 1.321.261 1.101 1.264-.176.741-.088 1.526-.132 2.267-.705-1.046-.88-2.267-.969-3.531z" fill="#1BBBD6"/><path d="M38.485 109.256c-.616-.131-.836.915-1.453.479-.132-.087-.176-.566-.088-.784.308-.829 1.057-.48 1.673-.567a2.993 2.993 0 00-.132.872zm57.728 6.06c0-.654.044-1.265.044-1.919.44 1.047.572 2.137.352 3.227h-.396v-1.308zm-4.579 8.807c1.145.043 2.157-.698 3.302-.436-1.057.61-2.157.828-3.302.436z" fill="#24BAD7"/><path d="M101.937 93.996c.573.829.881 1.657-.396 2.18.132-.74.264-1.438.396-2.18z" fill="#966CB1"/><path d="M93.615 96.133c-.44-.654-1.188-1.264-.484-2.18.484.697.529 1.439.484 2.18z" fill="#24BAD8"/><path d="M77.63 35.27c.705-.174 1.366-.174 1.41.785-.573-.044-1.1-.218-1.41-.785zm38.398.567c.309-.915 1.101-.567 1.762-.654-.441.523-1.189.392-1.762.654z" fill="#1BBBD6"/><path d="M125.275 28.207a4.834 4.834 0 00-.661-.348c.044-.088.132-.218.176-.305.221.174.397.305.617.48 0 .043-.044.13-.132.174z" fill="#24BAD8"/><path d="M89.608 123.992c.309-.436.617-.393.881.043-.308.218-.572.218-.88-.043z" fill="#24BAD7"/><path d="M111.185 28.687c4.843-.567 6.34-3.706 3.566-7.499 2.202-.48 2.51 1.308 2.951 2.616.352 1.046.088 2.224.748 3.314.44.697-.396.74-1.057.697-1.365 0-2.466.392-2.245 2.136.088.61-.088 1.308-.881 1.221-1.101-.13-2.114.828-3.17.262-.265-.131-.177-.524.044-.742.704-.654.088-1.307.044-2.005zm1.981 1.264c-.088.087-.22.131-.308.218.088.044.22.175.308.175s.22-.131.308-.175c-.088-.087-.22-.13-.308-.218zM87.45 35.227c-.968-2.79-.352-5.712-.66-8.545.969 2.79.44 5.667.66 8.545zm-77.145 81.048c1.497-1.395 3.038-.829 4.403-.916.396-.043.705.131.572.654-.176.611-.572.916-1.232 1.09-1.366.393-2.202-1.09-3.743-.828zm16.864-23.368c-.925-.436-.925 2.441-2.51 1.177-.396-.306-.132-.872.176-1.352 1.1-1.613 1.805.436 2.334.175zm-9.687-3.052c1.233-.96 2.202-.785 3.611-.262-1.365.654-2.334.523-3.61.262zm71.51 3.531c-.088-.087-.308-.174-.352-.349-.088-.261.132-.348.352-.305.176.044.397.175.44.305.045.218-.087.393-.44.35z" fill="#1BBBD6"/><path d="M117.834 2.834c.044-.393.22-.698.528-.61.529.13.881.479 1.013 1.002.088.349-.264.523-.528.48-.617 0-.925-.393-1.013-.872zm10.127 12.338c-.132.174-.22.305-.308.392-.044-.174-.132-.392-.132-.566 0-.131.088-.218.176-.35.044.175.132.306.264.524z" fill="#24BAD8"/><path d="M34.435 114.357c-.044.13-.088.305-.177.348-.088.044-.22-.087-.352-.131.044-.13.088-.305.176-.348.088-.044.22.087.353.131zm2.069-13.08c.044 0 .132.044.132.044 0 .043-.044.13-.044.174-.044 0-.132-.044-.132-.044 0-.043.044-.13.044-.174zm2.07 1.831c-.044.175-.088.393-.176.567-.44-.305 0-.392.176-.567z" fill="#24BAD7"/><path d="M113.166 29.951c.132.044.22.131.308.175-.088.043-.22.174-.308.174s-.221-.087-.309-.174c.088-.044.177-.087.309-.175z" fill="#24BAD8"/></g><defs><clipPath id="clip0"><path fill="#fff" d="M0 0h169v127H0z"/></clipPath></defs></svg>