<svg width="375" height="156" fill="none" xmlns="http://www.w3.org/2000/svg"><rect width="375" height="156" rx="14" fill="#E1E1E1"/><path d="M278.904 84.676c-.093-.72-.185-1.352-.278-2.072.648.09.741-.36.741-.901v-5.406c0-.54-.093-.901-.741-.901-.093-.72.185-1.351.278-2.072.093-.09.37-.09.37-.18.093-1.532 1.205-2.793 1.205-4.235 0-1.441 1.574-2.162 1.296-3.604 0 0 .186-.18.278-.18.649-.09.556-.54.649-.9 0-.271 0-.812.092-.812 1.482-.54.834-1.711.927-2.703 2.223-3.964 5.279-7.117 8.799-10 5.465-4.415 11.764-7.478 18.711-9.01 1.39-.27 2.779-.45 4.168-.63.464 1.08 1.482.36 2.131.54.834.18 1.111-.27 1.019-.99h5.28c0 .45-.093 1.08.741.99.555-.09 1.389.36 1.389-.72.371.09.741.18 1.019.18.185.81.834.45 1.297.54.648 0 1.389 0 1.76.54.37.541.741.541 1.204.541h2.13c-.092.721.093 1.172 1.019 1.081.556-.09 1.112 0 1.667 0h.093l.093.09c.092.09.278.09.37.18.093 0 .278 0 .371.09 5.465 2.704 10.004 6.488 12.782 11.894 1.019 1.982 1.76 4.144 2.501 6.216v12.073c-.463.27-.37.72-.463 1.081-.926 4.144-2.501 8.019-4.724 11.712-3.89 6.307-8.985 11.352-15.654 14.866-.185.09-.278.18-.463.27 0 .091-.093.091-.185.091-.371 0-1.019-.181-1.112 0-.926 1.351-3.149.27-3.89 1.892-.093.09-.463.09-.741.09-.371 0-.741-.09-1.019.18-.741.901-1.76.811-2.779.811-.463 0-1.112-.18-1.389.18-.649.901-1.668.811-2.594.811-1.297 0-2.594.09-3.983 0-.834 0-1.112.27-1.019 1.081h-7.132c-1.945-.721-3.983-.721-5.928-1.352-4.539-1.351-8.8-3.333-12.227-6.667-.093-1.08-1.112-2.162-2.131-2.252-.092-.63.278-1.441-.278-1.982-.926-.72-2.038-1.261-1.852-2.703 0-.27-.186-.45-.463-.54-.464-.09-.556-.36-.556-.721.185-1.262-.834-1.712-1.482-2.343-.093-.36-.463-.63-.278-.99.741 0 1.111-.451.556-.902-.464-.36-.463-.81-.556-1.261-.278-.45-.463-.901-1.019-.991zm50.019-.811c.834 0 1.204-.45 1.019-1.261.185 0 .463.09.463 0 .556-.721 1.667-.901 1.667-2.073 0-.36-.092-.9.464-.99.555-.09.555-.451.555-.902 0-.36 0-.9.186-.99 1.482-.451.741-1.622.926-2.433.278-1.081-.185-2.253.926-3.153.278-.27.185-3.604-.092-3.695-.834-.45-.741-1.17-.834-1.891-.093-.631-.278-1.172-.648-1.712-.556-.811-1.297-1.712-1.39-2.433-.185-1.171-1.111-1.622-1.667-2.252-.278-.36-.463-1.081-.834-.991-1.297.27-1.852-.901-2.871-1.262-1.019-.36-2.223-.63-2.964-1.351-.834-.81-1.112-.63-1.575.18-.185 0-.371 0-.556-.09-.185-.54-.648-.72-1.204-.72-1.112.09-2.223 0-3.242 0-1.667.09-3.427-.541-4.909.81-.186.18-.649.27-.834.18-1.389-.36-2.13 1.352-3.52 1.172-.185 0-.185.45 0 .72 0 .09-.092.09-.185.09-1.019-.18-1.853 0-2.594.992-.833.99-2.501 1.08-3.242 2.162-.555.72-1.76.99-1.667 2.162 0 .18-.278.45-.37.63-.649.902-1.946 1.352-1.76 2.794 0 .18-.186.45-.371.45-.648.18-.648.63-.648 1.081 0 .27.092.721-.186.811-1.667.54-.463 1.081-.092 1.712-.093.81-.278 1.712-.371 2.523-.463 6.126 1.39 11.171 6.855 14.595 4.539 2.883 9.54 3.063 14.635 1.622 3.427-.901 6.299-2.703 8.985-4.865 2.038.18 2.038.18 1.945-1.622zM179.606 46.026c2.315 1.352 4.353 3.063 6.02 5.136 0 1.621.834 2.612 2.131 2.793.092.63-.371 1.621.278 1.892.833.36.741.9.741 1.531 0 .27 0 .54.278.63 1.018.181.648.902.741 1.532.092.541-.371 1.262.37 1.622.649.36.556.901.649 1.442.277 1.712-.742 3.603.741 5.225.092.09 0 .36 0 .36-1.205.631-.464 1.622-.649 2.523-.092.54.185.811.741.721 0 .18 0 .36-.092.54-.278.361-.741.631-.741 1.172.185 1.802-1.575 3.153-1.112 5.045 0 .09-.185.36-.278.36-1.111.18-.648.992-.741 1.622-.093.45.278 1.261-.278 1.442-.926.27-.741.9-.833 1.531 0 .27 0 .54-.278.631-.834.09-.741.72-.741 1.261 0 .36 0 .811-.556.901-.463.09-.556.36-.556.721 0 .63-.185.991-.834 1.442-.833.63-1.76 1.531-1.296 2.883-1.205.09-2.131 1.17-2.131 2.522-.185.18-.278.36-.463.54-1.76 0-2.686.902-2.686 2.523-3.705 3.424-7.874 5.947-12.598 7.659-.092-.181-.185-.181-.277.09-.927 0-2.224-.451-2.594.09-.834 1.261-2.038.72-3.057.901-.463.09-1.111-.271-1.482.27-.463.721-1.111.721-1.852.721-1.205 0-2.316.09-3.52 0-.834 0-1.112.27-1.019 1.081h-5.28c-.093-.361.093-.901-.37-.901-1.019 0-2.224-.451-3.15.45h-.741c-.092-.45-.37-.54-.741-.45-.37 0-.834 0-1.019-.27-.556-.991-1.482-.811-2.408-.721-1.575.18-2.779-.811-3.983-1.352-1.019-.45-2.316-.72-3.242-1.711-.463-.541-1.667-.721-2.038-1.172-1.111-1.171-2.408-2.342-3.52-3.513-.648-.63-1.019-1.802-2.315-1.532-1.112-1.261-1.853-2.613-2.594-4.144-2.872-5.856-3.335-12.073-2.408-18.47 1.111-7.027 4.168-13.244 9.17-18.379 1.297.45 1.667-.81 2.223-1.352.463-.45 1.667-.81 1.204-1.982 4.539-3.964 9.726-6.847 15.562-8.739.277.27.741 1.262 1.018.54.556-1.17 1.482-.72 2.316-.81.463-.09.834-.27 1.204-.45 1.204-.541 2.594-.992 3.891-.901.741.09 1.574.18 2.408.27.834.09 1.112-.27 1.019-.991h4.261c.092.36-.185.9.463.99.741.09.556-.54.556-.99h1.019c.555.63 1.389.36 2.13.54.093.18.185.36.278.36 1.667.09 2.871 1.532 4.724 1.172 1.019-.18 1.853 1.171 3.057.991.092 0 .278.18.278.27.185.721.741.721 1.389.721.278 0 .648 0 .741.27.371 1.081 1.297.721 2.13.721.278.09.464.18.742.18zm-42.424 36.579c.278.72-.834 2.162 1.111 1.982-.092 2.162 1.853 4.234 3.983 4.144.093.27.278.36.556.27 4.076 2.343 8.429 2.883 13.061 2.073 3.52-.721 6.669-2.343 9.54-4.325.371 0 .927.09 1.112-.09 1.019-1.261 2.316-2.162 3.335-3.424.37-.45 1.296-.45 1.204-1.26-.093-.631-.186-1.352.833-1.442.093 0 .186-.36.186-.541.278-1.351 1.482-2.433 1.204-3.964 0-.27.37-.36.556-.54.648-.631.37-.902-.464-.992.927-3.964.556-7.838-1.852-11.262-4.168-5.766-10.097-7.658-17.044-6.486-7.41 1.17-12.968 5.225-16.673 11.622-.741.27-1.389.99-1.482 1.441-.278 1.442-.463 2.793-1.019 4.235-.741 2.162-.092 4.504 1.112 6.577l.278.27c0 .09 0 .18.092.27-1.019 1.262-.926 1.352.371 1.442zm-70.675-26.85c-.464-.18-.927-.27-1.39-.45-.463-.811-.926-1.352-2.038-1.442-1.204 0-2.315.54-3.427.72h-.556c-.277-.72-1.482-1.08-1.945-.45-.556.721-1.297.721-2.038.811-.463 0-.833-.09-1.204.27-1.019.811-2.408 1.172-3.52 1.803-.648.36-1.667.72-1.482 1.891l-.092.09c-1.02.09-2.13 1.082-2.223 2.073-.186 0-.463-.09-.463 0-.834 1.171-2.594 1.531-2.687 3.243 0 .27-.092.54-.278.63-.833.181-.74.812-.74 1.442 0 .45-.093.721-.556.811-.278 0-.464.27-.464.54l-.277 2.974c0 .09 0 .18-.093.27-.463.18-.741.54-.741 1.081.093.721-.093 1.442-.556 1.892-.834.901-.648 1.982-.37 2.883.185.631.37 1.352.648 1.983v.54c-1.39.18-.926 1.352-.648 1.712.833 1.081.926 2.342.926 3.604 0 .81.463.9 1.111.81.278.721-.833 2.163 1.112 2.073-.648 2.072 1.482 2.612 2.223 3.874.37.54 1.39.27 2.038.27.093 0 .093 0 .093.09-.186.18-.278.63-.093.63 1.019.181 1.76 1.082 2.686 1.172 2.501.27 5.002.54 7.596.27.74-.09 1.76.18 2.315-.72.278-.27.649-.27 1.02-.27.092.36 0 .72.462.81.37 0 .556-.18.649-.54.092-.631.648-.45 1.019-.45.463 0 1.019.09 1.111-.631.093-.36.37-.451.649-.451 1.389.27 1.482-.54 1.389-1.532 2.13-1.982 3.705-4.234 4.446-7.207H57.151c-.833 0-1.111-.18-.926-.991.556-2.883 1.019-5.766 1.482-8.65.648-.09.463-.63.463-.99.093-1.802.093-1.802 2.038-1.802h29.456c1.945 0 1.945 0 2.13 1.711l.093.09c-1.945 11.983-7.225 21.894-17.877 28.831-5.002 3.243-10.56 5.045-16.488 5.766-.278 0-.556-.09-.649.27h-9.448c-.555-.45-1.296-.27-1.852-.54-.278-.991-1.204-.361-1.76-.631-1.39-.54-2.686-1.351-4.354-.901-.185-.721-.556-1.171-1.39-1.081-.37.09-.833.09-.925-.45-.093-.631-.556-.541-1.02-.541-.277 0-.833 0-.833-.09-.463-1.261-1.575-.811-2.5-.991-.094 0-.094 0-.094-.09.186-.271.371-.721-.092-.811-.834-.18-1.204-.991-1.575-1.442-.74-.9-1.76-1.621-2.5-2.522-.371-.45-.742-1.622-1.946-1.262.093-1.711-.556-2.793-1.853-3.063-.833-1.351-1.296-2.883-1.76-4.415-.092-.27 0-.72-.555-.72-.186-4.415-.186-9.01-.186-13.605.278-.45 1.297-.54 1.02-1.261-.649-2.072 1.481-3.604 1.11-5.586-.092-.63.742-.27.927-.72-.278-.18-.74-.18-.74-.631 0-.18.092-.36.092-.54 1.019-.091.556-.812.648-1.352.093-.27.186-.45.37-.721.742-.63 1.853-.991 1.76-2.252 0-.36 0-.811.556-.811.37 0 .464-.27.464-.631.185-1.081.926-1.802 1.76-2.523.74-.72 1.852-1.351 1.389-2.703.093-.09.185-.18.278-.36 6.113-6.757 13.894-10.721 22.879-12.523 1.39-.27 2.964-.18 4.26-.72h7.411c-.093.72.185 1.08 1.019 1.08 1.667-.09 3.335 0 5.094 0 .186.721.649 1.081 1.575.991.649-.09 1.297 0 1.945 0-.092.721.093 1.172.927 1.081.37 0 .926-.18 1.019.27.185.902.833.721 1.389.721.278 0 .556 0 .741.27.648.992 1.297 1.983 2.686 1.893.278 0 .463.27.556.54.185.631.648.45 1.019.45.093 1.082 1.482 1.713 1.204 2.884 0 0 .093 0 .093.09.926.72 2.038 1.261 1.852 2.703 0 .27.186.36.37.45.556.18.65.54.65.991 0 .54 0 .901.74 1.172.649.27.37.99.278 1.441 0 .54-.556.45-.926.45-.556 0-1.112 0-1.297.721-.093.36-.463.27-.834.27-1.482.09-2.5 1.532-4.075 1.082 0 0-.185.09-.185.18-.371.9-1.112.72-1.853.81-.556 0-1.297-.18-1.39.722-.092.45-.555.27-.926.36-.278 0-.74 0-.834.09-.833 1.352-2.13.81-3.334.901-.556.09-.834-.18-1.019-.72-.278-.721.185-1.712-.37-2.073-.927-.72-1.575-1.622-2.409-2.342-1.019-.811-1.852-1.802-2.779-2.703-.185-.18-.37-.36-.648-.27-.278 0-.185.36-.185.63z" fill="#00549C"/><path d="M330.59 102.155c-2.501 1.531-5.28 2.522-8.059 3.333-2.501.721-5.002 1.171-7.503 1.532-.185 0-.463 0-.556.27h-2.408c-.093-.721.185-1.081 1.019-1.081 1.297.09 2.593 0 3.983 0 .926 0 1.852.09 2.593-.811.278-.361.927-.18 1.39-.18 1.019 0 2.038.09 2.779-.811.278-.27.648-.18 1.019-.18.277 0 .648 0 .741-.09.833-1.622 2.964-.541 3.89-1.892.093-.271.741-.09 1.112-.09zM151.91 107.2c-.093-.721.185-1.081 1.019-1.081 1.204.09 2.315 0 3.519 0 .649 0 1.39 0 1.853-.721.37-.541.926-.18 1.482-.27 1.019-.18 2.13.45 3.057-.901.37-.541 1.76-.18 2.593-.09-2.964 1.441-6.113 1.982-9.355 2.612-.463.091-1.019-.09-1.204.451h-2.964zm-5.557-64.238c2.778-1.082 5.835-1.622 8.799-2.073.278 0 .556.09.649-.27h2.408c.093.72-.185 1.081-1.019.991-.834-.09-1.667-.27-2.408-.27-1.297-.09-2.687.36-3.891.9-.37.181-.741.451-1.204.451-.833.09-1.667-.36-2.316.811-.277.631-.648-.27-1.018-.54zM22.23 72.874c.649-1.352.834-2.793 1.297-4.235.37-.99.649-1.982 1.112-2.973 0 .45.37.45.74.63-.277.451-1.018.09-.926.721.371 1.983-1.76 3.514-1.111 5.586.185.811-.834.811-1.111 1.352v-1.081zM72.62 41.61h-5.095c-.834 0-1.111-.27-1.019-1.08h1.853c1.297.81 2.871.45 4.26 1.08zm71.602 65.59c-.185-.45-.834-.09-1.112-.45.927-.901 2.038-.541 3.15-.451.463 0 .278.631.37.901h-2.408zm174.234-66.58c.093.72-.185 1.172-1.019.991-.741-.18-1.667.541-2.13-.54.278-.362.833 0 1.111-.452h2.038zm6.854 0c.093.27.371.18.556.27 0 1.08-.834.63-1.39.72-.833.09-.741-.54-.741-.99h1.575zm-161.821 0c-.093.45.185.99-.556.99-.649-.09-.371-.63-.463-.99h1.019z" fill="#155A97"/><path d="M215.638 99.002l-.833 5.135c-1.112.991-2.409.811-3.705.811h-11.023c-1.019 0-1.853-.18-2.316-1.081.741-4.505 1.482-9.1 2.223-13.605l3.613-21.622c.092-.541.185-1.082.37-1.622.556-.72.741-1.532.741-2.433 0-.63 0-1.441.371-1.802 1.019-1.08.556-2.342.741-3.513.092-.54 0-1.081.092-1.622.186-1.171 0-1.532-1.296-1.532h-10.375c-2.871 0-2.13-.18-1.852-2.342 0-.36.278-.54.463-.72.556-.632.37-.992-.463-.992.278-2.793.833-5.496 1.296-8.198.649-.811 1.483-.811 2.409-.811h39.645c1.296 0 2.593-.27 3.519.99 0 .18 0 .361-.092.541-.649.27-.834.721-.741 1.352.092.9.185 2.072-.371 2.612-1.019 1.082-.555 2.253-.648 3.334-.093.54 0 1.081 0 1.622-.185 1.802-1.112 2.612-2.964 2.612h-10.097c-1.019 0-1.76.09-1.852 1.262 0 .27-.278.54-.556.81-.741.631-.463 1.622.371 1.983-.834 4.775-1.575 9.55-2.409 14.325-.741 1.441-1.019 2.973-1.482 4.505-.185.54.649.81.463 1.351v.27c-.833.18-.37.901-.555 1.442-.556 1.622-1.297 3.153-1.019 4.865.185.81.092 1.802-.278 2.342-1.204 1.442-.463 3.064-.741 4.595-.093.811-.093 1.712-.834 2.433-.37.36-.556 1.261.093 1.892.185.18 0 .54.092.81zm30.105 4.143c.463-2.703.833-5.496 1.297-8.199 1.018-6.306 2.13-12.703 3.149-19.01 0-.09.093-.18.093-.27.277-.18.648-.27.648-.54.093-1.532.185-2.974 1.019-4.506.556-.99.37-2.522-.093-3.874 0-.27.093-.54.093-.81 1.297-.811 1.667-1.893.741-3.244-.093-.18 0-.45 0-.63.37-.09.463-.27.556-.631 0-.991 0-1.892.926-2.793.556-.45.278-1.712 0-2.433-.185-.63-1.019-.27-1.575-.27h-10.745c-.926 0-1.389-.18-1.296-1.171.092-.991 0-2.073 0-3.064 0-.72 0-1.441.833-1.982.649-.45.278-1.621-.556-1.892.093-.72.186-1.351.278-2.072.834-.36.463-1.261.649-1.802.185-.9.556-1.08 1.389-1.08h42.609c1.204 0 1.39.27.926 1.35-.092.27-.37.36-.555.541-.556.63-.278 1.622.463 1.982-.093.36-.186.63-.186.991-.741 1.262-.741 2.883-1.574 4.145-.278.45 0 1.261-.093 1.892 0 2.522.278 2.162-2.223 2.162h-11.578c-.371 0-.741-.09-.927.27-.185.36 0 .63.463.721 0 .36-.092.63-.092.991-.741 1.441-1.112 2.973-1.482 4.505-.093.54.648.81.463 1.351v.27c-.463.09-.463.451-.556.721-.092.721 0 1.802-.463 2.163-1.019.81-.371 1.08.278 1.441 0 .18 0 .36-.093.54-.833.27-.741.902-.741 1.532 0 .901.278 1.982-.463 2.613-.834.72-.648 1.442-.278 2.072.185.36.278.721.278 1.081-.556.09-.463.54-.556.901-.185.721.093 1.622-.555 2.163-.741.54-.556 1.26-.371 1.802.648 1.531-.093 2.882-.556 4.144-.37.81-.556 1.441-.556 2.252v1.622c0 .991.093 1.982-.926 2.703-.556.45-.092 1.531.556 1.802l-.278.54c-.37.631-.556 1.262-.556 1.982 0 .36-.092.901-.278 1.172-1.389 1.531-.648 3.243-.463 4.955v.45c-.278.09-.555.181-.463.541.278 1.441-.741 1.351-1.667 1.351h-12.598c-2.13.361-2.13.361-2.315-1.441z" fill="#00549C"/><path d="M240.74 47.826c.741.27 1.205 1.442.556 1.892-.741.54-.741 1.261-.834 1.982 0 .991.093 2.072 0 3.063-.092.992.371 1.172 1.297 1.172 3.613-.09 7.225 0 10.745 0 .556 0 1.297-.27 1.575.27.278.81.463 1.982 0 2.433-.926.81-.834 1.802-.926 2.793 0 .36-.186.54-.556.63.185-1.441.37-2.973.648-4.414.278-1.082-.092-1.262-1.111-1.262-3.983.09-7.874 0-11.857 0-.741 0-1.111-.09-.926-.99.463-2.433.926-5.046 1.389-7.569zM222.214 60.08c-.833-.36-1.111-1.35-.37-1.981.278-.27.556-.541.556-.811 0-1.262.833-1.352 1.852-1.262 3.335.09 6.762 0 10.097 0 1.852 0 2.778-.81 2.964-2.613.092-.54 0-1.08 0-1.621.092-1.081-.371-2.253.648-3.334.556-.54.463-1.712.371-2.612-.093-.631.092-1.082.741-1.352-.556 3.694-1.204 7.388-1.76 11.082-.093.81-.463.99-1.297.99h-11.949c-.926 0-1.204.181-1.297 1.082l-.556 2.433zm-30.01-8.2c.834.091 1.019.451.463.992-.185.18-.463.45-.463.72-.278 2.163-.926 2.433 1.853 2.343 3.427-.09 6.947 0 10.374 0 1.297 0 1.482.36 1.297 1.532-.093.54-.093 1.081-.093 1.622-.093 1.17.371 2.432-.741 3.513-.37.36-.37 1.262-.37 1.802 0 .901-.186 1.712-.741 2.433.463-3.063 1.018-6.217 1.482-9.28.185-.901 0-1.261-1.112-1.171-3.983.09-7.873 0-11.856.09-1.019 0-1.204-.36-.927-1.172.464-1.08.371-2.342.834-3.423zm94.295-5.135c-.741-.27-1.019-1.351-.463-1.982.185-.18.463-.27.556-.54.463-1.081.277-1.352-.927-1.352h-42.609c-.833 0-1.204.09-1.389 1.081-.093.54.278 1.442-.648 1.802.185-.99 0-2.342.648-2.883.741-.63 2.13-.18 3.149-.18h42.424c-.278 1.441-.463 2.793-.741 4.054zM183.497 90.892c-.463-1.352.463-2.252 1.297-2.883.648-.45.833-.811.833-1.442 0-.36.093-.72.556-.72.556-.09.556-.45.556-.901 0-.541-.093-1.172.741-1.262.278 0 .278-.36.278-.63 0-.631-.093-1.172.833-1.532.556-.18.186-.901.278-1.442.093-.63-.278-1.441.741-1.621.093 0 .278-.27.278-.36-.463-1.893 1.297-3.244 1.112-5.046-.093-.54.463-.81.741-1.171-.834 6.036-2.964 11.622-6.392 16.667-.648.811-1.111 1.712-1.852 2.343zm8.151-19.55c-.556 0-.834-.27-.741-.721.185-.81-.556-1.892.648-2.523.093 0 .093-.27 0-.36-1.482-1.622-.463-3.514-.741-5.226-.093-.54-.093-1.08-.649-1.441-.741-.36-.277-1.081-.37-1.622-.093-.54.278-1.351-.741-1.531-.278-.09-.278-.36-.278-.631 0-.63.093-1.171-.741-1.532-.648-.27-.185-1.261-.278-1.892 3.613 5.406 4.724 11.262 3.891 17.479zm47.425-27.389c-.926-1.262-2.223-.992-3.52-.992h-39.644c-.927 0-1.76 0-2.409.811-.092-.81.278-1.08 1.112-1.08h43.72c1.297-.09 1.112.54.741 1.26zm31.402 13.063c-.464-.09-.649-.36-.464-.72.186-.451.556-.271.927-.271h11.578c2.594 0 2.223.36 2.223-2.162 0-.631-.278-1.442.093-1.892.741-1.352.741-2.883 1.575-4.145-.464 2.703-.834 5.496-1.297 8.199-.093.81-.649.54-1.112.54h-12.412c-.463 0-1.111-.36-1.111.451zm-54.836 41.985c-.093-.36.092-.63-.278-.99-.649-.541-.463-1.532-.093-1.893.834-.72.741-1.531.834-2.432.278-1.532-.463-3.154.741-4.595.463-.54.463-1.532.278-2.343-.371-1.802.463-3.333 1.019-4.865.185-.45-.278-1.171.555-1.442-.926 6.307-2.037 12.434-3.056 18.56zm48.721-5.135c-.741-.27-1.111-1.442-.555-1.802.926-.81.833-1.712.926-2.703V87.74c0-.811.278-1.532.556-2.253.463-1.171 1.204-2.613.556-4.144-.186-.54-.371-1.262.37-1.802.648-.45.371-1.442.556-2.162.092-.36 0-.811.556-.901l-2.223 13.514c-.278 1.351-.464 2.613-.742 3.874zM283.627 60.8c-.092.992.556 2.163-.926 2.704-.093 0-.093.54-.093.81 0 .451 0 .901-.648.901-.093 0-.278.18-.278.18.278 1.442-1.297 2.163-1.297 3.604 0 1.442-1.111 2.703-1.204 4.235 0 .09-.185.09-.37.18.648-4.595 2.223-8.83 4.816-12.613zM179.051 45.666c-.741 0-1.668.36-2.131-.721-.093-.27-.463-.27-.741-.27-.556 0-1.204.09-1.389-.721 0-.09-.186-.27-.278-.27-1.204.09-2.038-1.171-3.057-.991-1.853.36-3.057-1.081-4.724-1.171-.093 0-.185-.27-.278-.36 4.632.63 8.892 2.071 12.598 4.504zm99.574 29.82c.649-.09.741.36.741.901v5.406c0 .54-.092.9-.741.9-.278-2.432-.37-4.864 0-7.207zm1.39 13.244c.741.631 1.667 1.172 1.482 2.343-.093.36.092.63.555.72.278 0 .556.181.464.541-.186 1.442 1.019 1.983 1.852 2.703.556.45.185 1.262.278 1.982-2.13-2.432-3.612-5.225-4.631-8.288zm-28.252-21.984c.463 1.261.649 2.883.093 3.874-.834 1.532-.927 2.973-1.019 4.505 0 .36-.463.36-.649.54.556-2.973.927-5.946 1.575-8.919zm-6.021 36.4c.186 1.802.186 1.802 2.316 1.802h12.598c.926 0 1.945.09 1.667-1.352-.093-.27.185-.45.463-.54v.54c0 1.261-.556 1.622-1.945 1.622-4.724-.09-9.356 0-14.08 0h-1.482c.093-.811.093-1.442.463-2.072zm-47.981.72c.556.901 1.297 1.081 2.316 1.081 3.705-.09 7.318 0 11.023 0 1.296 0 2.686.271 3.705-.811.092.991-.463 1.082-1.297 1.082h-14.913c-1.204 0-1.39-.361-.834-1.352zm65.118-1.262c-.278-1.711-.926-3.423.463-4.955.278-.27.278-.81.278-1.17 0-.722.093-1.442.556-1.983.092 2.252-.649 4.325-.927 6.487-.092.54 0 1.171-.37 1.621zm4.446-26.126c0-.36-.093-.721-.278-1.081-.371-.721-.556-1.352.278-2.073.741-.63.463-1.712.463-2.613 0-.63-.093-1.261.741-1.531-.371 2.342-.834 4.775-1.204 7.298zm2.037-12.614c.186-.54-.648-.811-.463-1.352.371-1.531.741-3.063 1.482-4.504-.278 1.982-.648 3.964-1.019 5.856zM218.788 80.26c.185-.54-.648-.9-.463-1.35.556-1.533.741-3.064 1.482-4.506-.371 1.982-.648 3.965-1.019 5.856zm49.833-11.71c-.556-.361-1.297-.632-.278-1.442.463-.36.37-1.442.463-2.163.093-.36 0-.72.556-.72-.278 1.441-.463 2.883-.741 4.324zm-90.404 27.928c0-1.712.926-2.523 2.686-2.523a14.13 14.13 0 01-2.686 2.523zm74.38-34.326c0 .18-.092.45 0 .631.927 1.351.556 2.342-.741 3.243.186-1.351.464-2.612.741-3.874z" fill="#155A97"/><path d="M187.757 53.953c-1.296-.18-2.13-1.171-2.13-2.793.834.81 1.575 1.712 2.13 2.793zm91.145 30.723c.556.09.649.54.741.9.093.451.093.902.556 1.262.556.45.185.901-.556.901-.37-.991-.555-1.982-.741-3.063zm-97.537 8.739c0-1.351.927-2.432 2.131-2.522-.556.9-1.297 1.711-2.131 2.522zm103.281 3.604c1.018.09 2.037 1.261 2.13 2.252-.834-.63-1.482-1.442-2.13-2.252zm-105.04-50.993c-.278 0-.464 0-.556-.271.185 0 .37.18.556.271zm-14.265 58.202c0-.182.093-.272.278-.091-.092.091-.185.091-.278.091zm164.6-21.624c2.038-2.973 3.613-6.126 4.168-9.64 1.205-7.207-3.427-13.965-10.93-15.947l-.833-.27c.463-.72.648-.991 1.574-.18.649.63 1.946.99 2.964 1.351 1.019.36 1.575 1.532 2.872 1.261.278-.09.463.631.834.992.648.63 1.574.99 1.667 2.252.093.81.834 1.712 1.389 2.433.371.54.556 1.08.649 1.711.092.631 0 1.442.833 1.892.278.18.371 3.514.093 3.694-1.112.811-.648 2.072-.926 3.153-.186.811.555 1.983-.927 2.433-.185 0-.092.63-.185.991 0 .36 0 .811-.556.901-.648.09-.555.63-.463.991 0 1.081-1.111 1.352-1.667 2.072-.093 0-.371-.09-.556-.09zm-21.953-23.606c-5.28 2.973-9.17 7.028-10.93 12.794-.371-.63-1.575-1.171.092-1.712.278-.09.186-.54.186-.81 0-.451 0-.902.648-1.082.185 0 .371-.36.371-.45-.186-1.352 1.111-1.892 1.759-2.793.186-.18.371-.45.371-.631-.093-1.171 1.112-1.442 1.667-2.162.834-1.081 2.501-1.172 3.242-2.163.741-.9 1.575-1.08 2.594-.99zm13.894-2.342c-4.816-.811-9.355.09-13.709 2.252-.185-.27-.277-.81 0-.72 1.39.18 2.038-1.532 3.52-1.172.278.09.649 0 .834-.18 1.482-1.351 3.242-.72 4.909-.81 1.112-.09 2.223 0 3.242 0 .556-.09.926.09 1.204.63zm5.003-15.495c2.223.18 4.353.63 6.391 1.532h-2.13c-.463 0-.834 0-1.204-.54-.371-.541-1.112-.541-1.76-.541-.556 0-1.205.27-1.297-.45zm.277 44.596c.649-.63 1.204-1.261 1.853-1.802 0 1.712 0 1.712-1.853 1.802z" fill="#155A97"/><path d="M333.183 42.602a7.64 7.64 0 012.686 1.08h-1.667c-.834.09-1.112-.27-1.019-1.08zm-4.261 41.263c.37-.45.741-.901 1.019-1.261.185.81-.093 1.26-1.019 1.26zm2.316 17.929a.512.512 0 01-.464.271c.186-.09.371-.181.464-.271zm4.817-58.021c.093.09.278.09.371.18-.093-.09-.278-.18-.371-.18zM142.37 106.66c-7.873-1.172-14.45-4.415-19.266-10.722 1.296-.27 1.667.901 2.315 1.532 1.204 1.171 2.409 2.252 3.52 3.514.371.45 1.575.63 2.038 1.171.834.991 2.223 1.351 3.242 1.712 1.204.54 2.501 1.531 3.983 1.351.834-.09 1.852-.27 2.408.721.185.27.649.27 1.019.27.371 0 .741 0 .741.451zm22.879-19.912c2.686-2.342 5.002-4.955 6.484-8.199.648-1.351 1.019-2.702 1.482-4.054.834.09 1.019.36.463.991-.185.18-.556.27-.556.54.278 1.532-1.018 2.614-1.204 3.965 0 .18-.092.54-.185.54-.926.18-.926.811-.834 1.442.093.901-.833.901-1.204 1.261-1.019 1.172-2.316 2.163-3.334 3.424-.186.18-.741 0-1.112.09zm-27.511-18.47c-1.853 4.055-2.224 8.199-1.205 12.523-.092-.09-.277-.18-.277-.27-1.112-2.072-1.853-4.414-1.112-6.577.556-1.441.741-2.793 1.019-4.234.093-.45.834-1.081 1.575-1.442zm.462 16.398c1.112 1.531 2.409 2.883 3.983 4.144-2.13 0-4.075-1.982-3.983-4.144zm-10.837-29.732a19.735 19.735 0 013.428-3.334c.463 1.172-.742 1.532-1.205 1.983-.555.54-1.019 1.801-2.223 1.35zm9.82 27.659c.37.631.741 1.352 1.111 1.982-2.037.18-.833-1.26-1.111-1.981z" fill="#155A97"/><path d="M136.626 81.162c.277.45.555.901.555 1.532-1.296-.18-1.389-.27-.555-1.532zm5.558 7.568l.555.272c-.278 0-.555 0-.555-.271z" fill="#155A97"/><path d="M115.785 61.07c-.093.361-.186.722-.186.992-.648.09-.555.54-.555.99 0 .632 0 1.533-.371 1.803-.834.63-.648 1.441-.648 2.162v2.162c-.093 1.172.092 2.343-.927 3.334-.463.45 0 .81.649.81 0 .18 0 .361-.093.541-.648.54-.741 1.172-.741 1.892 0 .721.093 1.712-.37 2.163-.927.99-.556 2.072-.649 3.063v1.261c-.092.72-.092 1.802-.463 2.162-1.112.811-.278.992.278 1.442 0 .18 0 .36-.093.54-.555.27-.741.631-.741 1.172 0 .63.093 1.261-.185 1.802-1.112 1.892-.834 3.964-.834 5.946 0 .36-.185.63-.278.99 0 .181-.092.451-.277.541-.927.451-.649 1.262-.371 1.893.185.54.185.81.093 1.351-.278 1.261-.556 2.523-1.204 3.694-.371.721-.649.991-1.39.991H92.905c-.74 0-.926-.27-1.019-.991-.092-1.262.464-2.433.278-3.694-.092-.81.278-1.532.278-2.252.556-.09.463-.541.463-.901.093-.721.093-1.712.463-2.073 1.112-.81.371-.99-.185-1.441 0-.18 0-.36.093-.54.556-.18.74-.631.74-1.172 0-.63-.092-1.261.186-1.802 1.112-1.892.834-3.964.834-5.946 0-.36.093-.63.278-.991.092-.18.092-.45.278-.54.833-.361.648-1.172.463-1.532-.741-1.352.37-2.523.185-3.874 0-.18.093-.631.278-.631.834-.36.648-.991.648-1.622 0-1.441-.463-3.063.37-4.144 1.02-1.532.464-2.973.742-4.415.092-.45.185-.9.092-1.261-.185-1.261.927-2.162.927-3.334 0-1.711-.37-3.513.926-5.135.371-.45-.185-.72-.648-.72.555-4.145 1.204-8.2 2.037-12.254 1.205-.99 2.687-.81 4.169-.81h9.077c3.335 0 3.335 0 3.427 3.243.093 1.892-.741 3.604-.833 5.496-.834.99-1.482 2.072-1.297 3.423.093.54 0 .991 0 1.532 0 .991.093 1.892-.926 2.613-.649.72-.185 1.802.556 2.072z" fill="#00549C"/><path d="M66.508 55.755c0-.27-.093-.631.37-.721.278-.09.463.09.648.27.834.901 1.76 1.892 2.78 2.703.833.72 1.481 1.622 2.408 2.343.463.36.092 1.351.37 2.072.185.54.463.81 1.02.72 1.11-.09 2.5.451 3.334-.9.092-.18.555-.09.833-.09.37 0 .834.09.927-.36.185-.902.833-.632 1.389-.722.741 0 1.482.09 1.853-.81 0-.09.092-.18.185-.18 1.575.36 2.686-.992 4.076-1.082.277 0 .74.09.833-.27.185-.811.648-.721 1.297-.721.37 0 .926.09.926-.45 0-.541.37-1.262-.278-1.442-.648-.27-.74-.63-.74-1.171 0-.45-.093-.811-.65-.991-.184-.09-.462-.18-.37-.45.186-1.442-.926-1.983-1.852-2.704l-.093-.09c.186-1.261-1.204-1.802-1.204-2.883 3.057 2.613 4.724 6.037 6.114 9.64.185.541.092.721-.464.901-5.372 1.983-10.652 3.965-16.024 5.947-.927.36-.927-.36-1.112-.811-.74-2.613-2.13-4.865-4.353-6.487-.834-.45-1.575-.81-2.223-1.261zm32.974.27c.556 0 1.019.27.649.721-1.39 1.532-.927 3.334-.927 5.136 0 1.26-1.204 2.072-.926 3.333.093.36-.093.811-.093 1.261-.185 1.442.371 2.974-.74 4.415-.741 1.081-.371 2.703-.371 4.145 0 .63.185 1.26-.648 1.621-.186.09-.278.45-.278.631.185 1.261-.927 2.523-.186 3.874.186.36.37 1.171-.463 1.532-.185.09-.185.36-.278.54-.092.36-.185.63-.278.991-.092 1.982.278 4.055-.833 5.947-.37.54-.185 1.17-.185 1.802 0 .63-.186.99-.741 1.17 1.482-9.099 3.056-18.108 4.538-27.208.464-2.883.927-5.766 1.39-8.74.092-.36.278-.81.37-1.17zm-7.41 44.237c.185 1.261-.37 2.432-.278 3.694 0 .72.185.991 1.019.991h13.524c.741 0 1.019-.361 1.389-.991.649-1.172.926-2.433 1.204-3.694.093-.54.186-.811-.092-1.352-.278-.63-.556-1.441.37-1.892.185-.09.278-.36.278-.54.093-.36.185-.63.278-.991.093-1.982-.278-4.054.834-5.947.37-.54.185-1.17.185-1.801s.185-.991.741-1.172c-.741 4.775-1.575 9.46-2.316 14.235-.185 1.262-.463 2.523-.648 3.784-.093.631-.371.721-.926.721h-15.47c-.74 0-1.018-.18-.833-.991.278-1.351.278-2.793.741-4.054zm-.278-27.839l-.093-.09c-.185-1.712-.185-1.712-2.13-1.712H60.115c-1.852 0-1.945 0-2.037 1.802 0 .36.092.901-.464.991 0-.18-.092-.45 0-.63.556-2.523.556-2.523 3.242-2.523H90.22c2.224 0 2.224 0 1.575 2.162zm19.73 13.513c-.556-.36-1.297-.63-.278-1.441.463-.36.371-1.352.463-2.162.093-.45 0-.811 0-1.262.093-1.08-.278-2.072.649-3.063.463-.45.37-1.441.37-2.162 0-.72.093-1.441.741-1.892a269.039 269.039 0 01-1.945 11.982zM48.815 58.909c-.185-1.081.834-1.532 1.482-1.892 1.204-.63 2.501-.991 3.52-1.802.37-.36.834-.27 1.204-.27.741 0 1.482 0 2.038-.811.463-.63 1.667-.27 1.945.45-3.797.45-7.132 1.982-10.189 4.325zm-7.874 11.893l.278-2.974c0-.27.185-.45.463-.54.556-.09.556-.45.556-.811 0-.63-.092-1.171.741-1.442.278-.09.278-.36.278-.63.093-1.712 1.853-2.073 2.686-3.244.093-.09.37 0 .464 0-2.409 2.883-4.169 6.127-5.466 9.64zm43.444-22.975c-.371 0-.927.09-1.02-.45-.092-.27-.277-.54-.555-.54-1.482.09-2.038-.902-2.686-1.893-.186-.27-.463-.18-.741-.27-.556 0-1.204.18-1.39-.721-.092-.45-.648-.36-1.019-.27-.833.09-1.111-.36-.926-1.081 3.242 1.08 6.02 2.702 8.337 5.225zm29.269 25.587c-.648 0-1.019-.36-.648-.81.926-.992.833-2.163.926-3.334v-2.162c0-.721-.185-1.532.648-2.163.371-.27.463-1.17.371-1.802 0-.36-.093-.9.556-.99-.464 3.783-1.112 7.477-1.853 11.261zm2.131-12.344c-.741-.27-1.111-1.441-.555-1.892.926-.72.833-1.711.926-2.612 0-.54.092-.991 0-1.532-.278-1.441.463-2.433 1.297-3.424a167.956 167.956 0 00-1.668 9.46zM59.097 93.415c-.556.901-1.575.63-2.316.72-2.5.271-5.094 0-7.595-.27-.927-.09-1.668-.99-2.687-1.17-.185 0-.092-.451.093-.631 3.613 1.982 7.41 2.252 11.393 1.531.463-.18.834-.18 1.112-.18zm59.096-47.3c-.092-3.243-.092-3.243-3.427-3.243h-9.077c-1.39 0-2.872-.27-4.169.81-.185-.81.186-1.08 1.019-1.08h15.377c.741 0 1.018.18.833.9-.278.901-.185 1.802-.556 2.613zM39.83 79c-.278-.63-.463-1.351-.649-1.982-.185-.9-.37-1.982.37-2.883.464-.54.65-1.261.557-1.892-.093-.54.278-.9.74-1.08-.648 2.522-1.11 5.225-1.018 7.838zm6.761 12.884c-.74-.09-1.76.27-2.038-.27-.833-1.262-2.871-1.893-2.223-3.875 1.205 1.622 2.501 3.063 4.261 4.145zm18.897-1.532c.092.99 0 1.801-1.39 1.531-.277-.09-.648 0-.648.45-.093.721-.648.541-1.111.631-.371 0-.927-.09-1.02.45-.092.361-.277.541-.648.541-.463-.09-.463-.45-.463-.81 1.853-.811 3.613-1.622 5.28-2.793zM41.22 85.666c-.649.09-1.112 0-1.112-.81 0-1.262-.092-2.433-.926-3.604-.278-.36-.741-1.532.648-1.712a22.717 22.717 0 001.39 6.126zm18.432-30.992c1.112-.18 2.223-.72 3.428-.72 1.111 0 1.667.54 2.037 1.44-1.76-.63-3.612-.72-5.465-.72zm33.44 39.012c.555.36 1.296.63.185 1.441-.463.36-.37 1.352-.463 2.072-.093.36.092.811-.463.901.278-1.531.555-2.973.74-4.414z" fill="#155A97"/><path d="M76.048 42.691c-.648 0-1.297-.09-1.945 0-.926.09-1.39-.27-1.482-1.08 1.112.36 2.316.45 3.427 1.08zM46.499 61.16c.093-.99 1.204-1.982 2.223-2.072-.74.63-1.482 1.351-2.223 2.072zM42.33 87.738c-1.945.09-.833-1.351-1.111-2.072.37.72.74 1.351 1.111 2.072zM25.75 63.142c1.482-3.333 3.427-6.306 6.02-9.01.464 1.352-.648 1.983-1.389 2.704-.833.72-1.574 1.441-1.76 2.522-.092.36-.092.54-.463.63-.555.09-.555.451-.555.812-.093 1.351-1.112 1.711-1.853 2.342zm6.763 38.833c-2.408-1.622-4.539-3.514-6.114-5.947 1.205-.45 1.575.811 1.946 1.262.74.9 1.76 1.621 2.5 2.522.371.451.742 1.262 1.575 1.442.463 0 .278.45.093.721zm6.854 3.243c-2.502-.541-4.632-1.802-6.67-3.154.926.09 2.038-.36 2.501.991 0 .09.556.09.834.09.463 0 .926-.09 1.019.541.092.54.556.54.926.45.834-.09 1.204.361 1.39 1.082z" fill="#155A97"/><path d="M45.388 106.75c-2.13-.271-4.168-.631-6.114-1.532 1.575-.36 2.965.36 4.354.901.648.27 1.482-.36 1.76.631zM26.4 96.028c-.834-.9-1.39-1.982-1.853-3.063 1.297.27 1.945 1.351 1.852 3.063zm-1.669-30.812c.186-.45.464-.901.649-1.352-.093.54.37 1.352-.649 1.352zm7.04-10.99c.093-.091.186-.182.279-.363-.186.09-.278.181-.278.363z" fill="#155A97"/></svg>