<svg width="288" height="92" fill="none" xmlns="http://www.w3.org/2000/svg"><g clip-path="url(#clip0)"><path d="M50.397 69.985c-2.485.117-5.086-.163-7.686 0-.875.047-1.542.467-1.887 1.353-.53 1.306-.92 2.682-1.795 3.825-.483.652-.967 1.305-1.726 1.655-.92.42-1.657.094-2.094-.84-.368-.792-.484-1.655-.852-2.448-.322-.746-.851-1.213-1.45-1.12-.667.094-1.173.7-1.242 1.493-.092.816.138 1.586.437 2.332.276.723.53 1.446.668 2.216.39 2.402-1.819 3.381-3.43 3.008-.989-.21-1.84-.723-2.623-1.353-1.68-1.305-2.9-3.031-4.211-4.664-1.565-1.982-3.176-3.918-5.155-5.503-1.61-1.306-3.498-1.96-5.43-2.542-.76-.234-1.566-.373-2.279-.77-.966-.536-1.059-1.282-.3-2.099.714-.746 1.635-1.166 2.532-1.632.415-.21.875-.397 1.197-.77.23-.256.207-.443 0-.676-.414-.443-1.013-.583-1.519-.886-.483-.28-.966-.513-1.38-.886-.76-.7-.967-1.376-.415-2.24.69-1.095.552-2.098 0-3.17-1.243-2.403-.575-3.895 1.266-5.528 2.255-1.982 4.51-3.964 6.49-6.25.183-.21.252-.443.39-.653.162-.233.185-.513-.022-.723-.208-.186-.484-.163-.714 0-.506.373-1.013.747-1.496 1.143-.322.257-.667.443-1.035.63-.599.303-1.105-.07-1.381-.91-.368-1.143-.53-2.309-.621-3.498-.138-1.54-.3-3.078-.254-4.617.046-1.68.23-3.359.576-5.014.345-1.68.805-3.289 1.473-4.851.874-2.076 2.094-3.918 3.59-5.574 1.91-2.099 4.165-3.684 6.627-4.897 2.278-1.12 4.695-1.796 7.226-2.122 2.186-.303 4.372-.14 6.535-.233 1.957-.07 3.89-.35 5.754-1.05 1.495-.56 2.9-1.352 4.395-1.959 1.082-.42 2.163-.816 3.314-.84.069 0 .16-.023.23 0 .322.07.736.094.874.467s-.207.583-.437.77c-.782.653-1.68 1.189-2.393 1.959-1.588 1.725-2.532 3.708-2.094 6.156.39 2.262 2.37 3.638 4.372 3.918.368.047.736.093 1.082.14.46.07.621.326.46.793-.253.723-.552 1.446-.782 2.192-.783 2.565-.323 4.85 1.932 6.577.254.21.53.42.76.63.207.186.46.396.322.745-.138.327-.46.257-.713.28-.806.047-1.565.257-2.117.887A31.72 31.72 0 0051.8 34.77c-.346.466-.668.98-.967 1.47-.598 1.025-.322 1.958.69 2.518.346.187.714.373 1.06.583 1.012.583 1.219 1.446.505 2.402-.782 1.073-1.887 1.819-2.876 2.659-.483.42-.99.816-1.473 1.236-.966.84-1.266 1.865-.76 3.078a15.26 15.26 0 01.898 3.195c.276 1.562.391 3.171.53 4.757.16 1.96.345 3.918.483 5.877.092 1.236.16 2.472.368 3.708.207 1.283.851 2.169 2.071 2.612.092.023.207.023.253.07.207.186.599.233.552.56-.046.303-.414.256-.644.326-.575.187-1.266.163-2.094.163zm.207-44.426c.023-1.655-.667-2.868-1.979-3.684-.644-.397-1.15-.117-1.243.653-.046.443 0 .886.115 1.329.139.49.139.956-.069 1.47-.299.699-.782 1.258-1.081 1.935-.3.676-.599 1.33-.253 2.122.345.77.99 1.166 1.587 1.633.46.373.921.746.898 1.445 0 .7-.552 1.026-.99 1.4-.598.49-1.334.792-1.864 1.375-.69.723-.667 1.26.047 1.96.39.396.828.63 1.334.373.437-.21.46-.7.414-1.12-.069-.91.323-1.516 1.059-2.029.805-.56 1.703-.933 2.416-1.655.645-.654.645-1.166 0-1.796-.184-.187-.39-.35-.575-.513a1.562 1.562 0 01-.53-1.12c-.022-.63.116-1.236.3-1.842.207-.676.46-1.306.414-1.936zM32.332 44.962c.392-.07.852-.163 1.312-.233.92-.163 1.68-.63 2.232-1.4.576-.792.714-1.725.806-2.681.069-.607.207-1.213.46-1.773.414-.909 1.242-1.282 2.117-1.539.69-.21 1.38-.42 2.048-.653 1.588-.56 2.186-1.865 2.531-3.358.07-.35.23-.7.184-1.096-.023-.163-.069-.303-.207-.35-.207-.093-.253.07-.322.21-.184.35-.368.677-.552 1.026-.414.863-.944 1.61-1.91 1.89-1.174.326-2.347.582-3.521.909-1.266.35-2.232 1.05-2.623 2.425-.276.956-.3 1.912-.3 2.869 0 1.142-.46 2.005-1.45 2.565-.345.186-.759.28-1.127.443-.207.093-.552.14-.506.42.046.21.345.28.575.35a.426.426 0 01.253-.024zm-3.06-13.036v-.606c0-.28-.046-.56-.346-.63-.276-.07-.39.21-.529.396l-1.035 1.82c-1.45 2.541-3.176 4.897-4.741 7.345-.76 1.19-1.519 2.403-2.094 3.708-.092.187-.138.327.046.49.161.14.345.14.506 0 .161-.14.322-.256.437-.42 1.105-1.399 2.095-2.868 3.406-4.08.967-.91 2.002-1.773 2.854-2.8 1.22-1.492 1.404-3.334 1.496-5.223zm3.221 16.138c.07.77.368 1.422.806 2.029.644.863 1.45 1.562 2.278 2.238.782.63 1.358 1.377 1.266 2.45-.023.186.023.372.207.489.23.116.391-.047.53-.163.989-.77 1.035-1.866 1.012-2.962-.023-.77-.323-1.47-.69-2.146-.323-.606-.6-1.212-.898-1.842-.115-.233-.276-.466-.575-.42-.346.047-.392.373-.392.653 0 .443-.023.886.23 1.306.138.233.23.513.023.723-.253.257-.506.024-.69-.116a8.569 8.569 0 01-1.818-1.843c-.184-.256-.414-.466-.667-.676-.138-.117-.276-.21-.46-.093-.139.07-.139.256-.162.373zm4.948-2.379c.23-.023.414-.047.575-.07 1.542-.14 2.693-.84 3.199-2.379.391-1.166.967-2.028 2.232-2.308.552-.117.967-.583 1.197-1.143.069-.186.138-.42-.07-.56-.16-.116-.321 0-.436.117-.392.35-.875.536-1.404.583-.599.07-1.22.07-1.772.303-.92.373-1.404 1.166-1.611 2.122-.184.933-.552 1.68-1.542 1.96-.184.046-.368.07-.53.162-.367.21-1.035.21-.989.723.092.607.806.327 1.151.49zm-5.753 7.93c.115-1.004-.53-1.68-1.174-2.333-.23-.233-.506-.63-.805-.466-.368.21-.092.653 0 .956.16.536.299 1.096.115 1.632-.207.653-.46 1.283-.714 1.936-.46 1.236-.69 2.449.185 3.591.207.28.414.7.782.607.391-.094.345-.583.368-.91.023-.816.23-1.562.552-2.309.346-.816.714-1.679.69-2.705zM35.53 28.24c-.023-.466-.46-.676-.92-.466-.829.373-1.496.933-2.072 1.609-.99 1.143-1.403 2.542-1.795 3.941-.069.21-.253.467.046.653.254.163.438-.07.622-.233 1.38-1.096 2.577-2.355 3.429-3.941.253-.513.575-1.026.69-1.563zm5.96-3.218c-.506 0-.92.21-1.358.326-1.726.467-2.807 1.61-3.336 3.312-.07.21-.138.466.115.606.253.164.414-.07.552-.21.805-.816 1.726-1.492 2.67-2.145.552-.373 1.127-.676 1.61-1.143.138-.14.322-.303.23-.536-.092-.257-.322-.187-.483-.21z" fill="#980101"/><path d="M42.113 85.773c-1.174.187-2.624 0-4.073-.186-1.335-.187-2.67-.42-3.866-1.12-.277-.163-.576-.35-.507-.722.092-.42.46-.327.783-.327.184 0 .368.023.552.07 2.071.56 4.188.676 6.282.42 3.061-.373 5.638-1.75 7.733-4.105a20.598 20.598 0 003.474-5.48c.3-.676.668-1.306 1.105-1.912.437-.583.92-.793 1.473-.63.437.117.874.84.897 1.423.023.746-.023 1.492.207 2.192.184.56.484.63.944.28.391-.28.644-.723 1.036-.98.253-.163.483-.233.759-.117.299.14.253.42.253.677.023 1.026-.53 1.842-1.035 2.635-1.404 2.169-3.383 3.661-5.57 4.897-1.91 1.073-3.889 1.936-6.006 2.45-1.335.326-2.761.489-4.441.535zM58.774 41.37c1.173-.07 1.334.07 1.657 1.074.782 2.448 1.311 4.967 2.025 7.439.299 1.05.552 2.099.851 3.148.092.35.07.7.115 1.05.161 1.142-1.173 1.679-1.91 1.236a7.55 7.55 0 00-.966-.49c-.69-.303-1.243-.093-1.795.28-.852.583-1.657 1.26-2.647 1.656-.76.28-1.242-.024-1.312-.84-.069-.7.254-1.306.46-1.912.392-1.05.76-2.123.99-3.219.161-.816-.299-1.469-.76-2.052-.206-.28-.482-.513-.712-.77-.23-.256-.323-.49.022-.746.208-.163.254-.373.093-.583-.23-.28-.093-.49.046-.7.322-.489.552-.979.575-1.585.023-.327.138-.606.46-.77.368-.21.345-.443 0-.676a2.797 2.797 0 01-.322-.233c-.23-.187-.253-.397.023-.583.391-.28.851-.397 1.289-.467.598-.07 1.242-.373 1.818-.256zM69.865.023h5.132c.345 0 .483.07.483.443a685.295 685.295 0 000 9.725c0 .35-.069.513-.437.49a54.324 54.324 0 00-2.761 0c-.483 0-.69-.163-.668-.676.046-1.96-.046-3.918.046-5.854.023-.42-.253-.326-.483-.326-2.071 0-4.165-.024-6.236 0-.53 0-.714-.117-.668-.677a22.99 22.99 0 000-2.518c-.023-.467.07-.63.599-.63 1.657.047 3.314.023 4.993.023z" fill="#9A0303"/><path d="M69.865 92c-1.68 0-3.336-.023-5.016 0-.392 0-.484-.117-.484-.49a50.32 50.32 0 000-2.635c-.023-.466.139-.606.599-.606 1.979.023 3.98 0 5.96.023.506 0 .667-.117.644-.653-.023-1.935 0-3.871-.023-5.807 0-.373.092-.536.483-.513 1.013.023 2.026.023 3.038 0 .322 0 .391.117.391.42v9.888c0 .35-.138.396-.414.396C73.317 92 71.591 92 69.865 92z" fill="#980101"/><path d="M5.477.024h5.017c.345 0 .483.07.483.466a58.666 58.666 0 000 2.845c0 .397-.138.49-.506.49-2.117-.023-4.234 0-6.351-.023-.415 0-.507.093-.507.536.046 1.936 0 3.871.023 5.807 0 .42-.16.56-.552.56a51.863 51.863 0 00-2.692 0c-.3 0-.369-.094-.369-.397V.374C0 0 .185.024.438.024h5.04z" fill="#9A0303"/><path d="M5.385 92c-1.634 0-3.268-.023-4.902 0C.092 92 0 91.907 0 91.51c.023-3.241.023-6.483 0-9.724 0-.327.046-.49.437-.49.898.023 1.795.023 2.693 0 .39 0 .529.116.529.536-.023 1.936 0 3.871-.023 5.807 0 .49.115.653.621.63 1.98-.024 3.981 0 5.96-.024.507 0 .622.164.599.63a23 23 0 000 2.519c.023.49-.138.583-.575.56-1.611.023-3.222.046-4.856.046z" fill="#980101"/><path d="M87.631 72.9c-1.887 0-3.797-.023-5.684.024-.46 0-.529-.14-.529-.56.023-2.915.023-5.854 0-8.769 0-.396.069-.536.506-.536.898.047.898 0 .898.956v6.926c0 .373.046.56.483.537a33.018 33.018 0 013.038 0c.437.023.506-.163.483-.537-.023-2.448 0-4.874-.023-7.322 0-.443.115-.56.552-.56.875.023.875 0 .875.863v7.043c0 .373.069.513.483.49a75.322 75.322 0 013.245 0c.414 0 .529-.094.529-.514-.023-2.448 0-4.874-.023-7.322 0-.49.138-.63.575-.56.161.023.322.023.507 0 .253-.023.345.07.345.327 0 3.054-.023 6.11 0 9.164 0 .397-.207.35-.46.35h-5.8zm56.91-22.364c0 1.142-.023 2.192 0 3.241 0 .373-.092.467-.461.467-.966-.024-.966 0-.966-1.003v-2.589c-.391.07-.644.303-.944.467-.851.466-1.68.98-2.554 1.422-.483.234-.667.537-.598 1.073.023.187.138.56-.092.606-.415.07-.829 0-1.243-.023-.023 0-.046-.093-.046-.14v-.233c0-.583-.184-1.306.069-1.75.23-.419.92-.605 1.427-.885a190.34 190.34 0 013.29-1.843c-.828-.466-1.587-.91-2.347-1.329-.667-.373-1.334-.77-2.025-1.12-.322-.163-.46-.372-.414-.745.023-.304 0-.607 0-.887 0-.84 0-.816.828-.863.553-.046.668.187.576.653-.092.56.138.863.621 1.12 1.151.606 2.278 1.26 3.475 1.935 0-1.096.023-2.122 0-3.125 0-.396.046-.583.529-.56.898.047.898 0 .898.957v2.728c.46-.14.828-.42 1.219-.63.76-.419 1.496-.885 2.279-1.259.506-.233.69-.56.644-1.119-.023-.21-.161-.56.138-.63.391-.07.805-.023 1.197 0 .023 0 .046.094.069.14.023.07 0 .14 0 .233 0 .607.184 1.33-.069 1.82-.231.443-.944.63-1.45.932-1.013.583-2.048 1.166-3.061 1.75-.023 0-.023.023-.069.093.621.35 1.243.723 1.887 1.072.829.467 1.634.933 2.462 1.376.231.14.346.28.346.56a16.658 16.658 0 000 1.516c0 .233-.023.35-.323.373-1.081.047-1.081.047-1.104-1.026 0-.187.023-.35-.184-.467a191.578 191.578 0 00-4.004-2.308zm6.397-38.526c0-1.47.023-2.938 0-4.407 0-.374.093-.467.461-.467 2.163.023 4.326 0 6.512.023 1.151 0 1.956.583 2.462 1.586.484 1.003.438 2.006-.207 2.892-.253.35-.322.56-.023.933.668.863.737 1.865.253 2.822-.483.98-1.288 1.539-2.37 1.562-2.232.047-4.441 0-6.673.023-.322 0-.392-.093-.392-.396-.023-1.516-.023-3.055-.023-4.57zm4.419-3.381h-2.647c-.23 0-.391.023-.368.326a34.1 34.1 0 010 2.169c0 .21.069.28.276.28 1.772 0 3.521 0 5.293-.024.806-.023 1.312-.653 1.289-1.445-.023-.747-.598-1.306-1.358-1.306-.828-.024-1.657 0-2.485 0zm-.069 6.903c.874-.024 1.772.023 2.646-.024.783-.046 1.312-.653 1.266-1.399-.023-.7-.598-1.236-1.381-1.236-1.703 0-3.383 0-5.086-.023-.345 0-.437.116-.414.443.023.606.023 1.19 0 1.796-.023.396.138.443.46.443.852-.024 1.68 0 2.509 0zm42.365 28.848h3.153c1.173 0 2.002.582 2.508 1.608.506 1.05.414 2.076-.299 2.985-.23.304-.253.444 0 .747.69.863.805 1.865.322 2.868-.483 1.026-1.335 1.586-2.462 1.61-2.187.023-4.373 0-6.559.023-.322 0-.437-.07-.437-.42a584.23 584.23 0 000-8.979c0-.396.115-.443.46-.443h3.314zm.598 1.468h-2.6c-.253 0-.368.07-.368.327.023.7.023 1.422 0 2.122 0 .233.046.327.299.327 1.749-.024 3.498 0 5.224-.024.828-.023 1.357-.653 1.334-1.469-.023-.746-.621-1.282-1.449-1.282h-2.44zm.023 4.245h-2.6c-.276 0-.414.046-.391.35a29.14 29.14 0 010 2.005c0 .21.046.303.276.303 1.772-.023 3.521 0 5.293-.023.805-.023 1.311-.63 1.288-1.376-.023-.723-.598-1.26-1.403-1.26h-2.463zM90.9 9.935c-1.313 1.935-2.624 3.848-3.982 5.853-1.358-1.982-2.692-3.964-4.12-6.04v6.763c0 .373-.068.513-.46.513-.966-.023-.966 0-.966-.98v-8.37c0-.374.092-.467.46-.513.714-.07 1.15.186 1.542.816 1.036 1.632 2.14 3.195 3.222 4.78.092.14.184.257.322.444 1.15-1.68 2.255-3.335 3.383-4.991.069-.093.138-.187.184-.28.276-.7.805-.84 1.496-.793.391.024.483.117.483.513-.023 2.542 0 5.108 0 7.65v.722c0 .98 0 .956-.99.98-.368 0-.46-.093-.46-.467.023-1.982 0-3.987 0-5.97v-.606c-.023 0-.069-.023-.115-.023z" fill="#9A0303"/><path d="M114.279 54.22h-5.73c-.368 0-.506-.093-.437-.466v-.163c0-.84 0-.863.828-.816.392.023.53-.07.53-.514a170.51 170.51 0 010-4.85c0-1.843 1.173-3.032 2.991-3.032 2.048 0 4.119.024 6.168-.023.483 0 .552.14.552.583-.023 2.379.023 4.757-.023 7.136 0 .606.184.746.69.676.092-.023.184 0 .276 0 .3-.046.415.07.415.397.023 1.072.023 1.072-1.013 1.072h-5.247zm.046-1.445h3.084c.276 0 .391-.07.368-.374a272.596 272.596 0 010-6.133c0-.303-.092-.42-.391-.42-1.726.024-3.452 0-5.178 0-.805 0-1.358.56-1.358 1.376-.023 1.703 0 3.428 0 5.13 0 .327.092.397.392.397 1.035 0 2.071.024 3.083.024zm98.401 1.445h-4.418c-.299 0-.414-.07-.414-.396.023-3.008.023-6.04 0-9.048 0-.303.069-.397.391-.397 2.968.024 5.914.024 8.883 0 .391 0 .437.163.437.49 0 1.003 0 1.003-.967 1.003-2.255 0-4.533.023-6.788-.023-.461 0-.553.163-.53.56.023.559.023 1.119 0 1.678-.023.42.069.56.53.56 1.933-.023 3.866 0 5.799-.023.437 0 .598.07.575.56-.046.909 0 .909-.943.909h-5.454c-.369 0-.53.07-.507.49.046.56.046 1.119 0 1.679-.023.396.069.536.507.536 2.416-.023 4.809 0 7.226-.023.46 0 .644.116.552.583a.576.576 0 000 .28c.069.466-.069.63-.576.63-1.426-.07-2.876-.047-4.303-.047zm-53.825 0c-1.473 0-2.945-.023-4.418 0-.345 0-.461-.093-.461-.466.023-2.985.023-5.97 0-8.955 0-.373.093-.466.461-.466 2.922.023 5.845.023 8.767 0 .392 0 .484.093.484.49-.023.979 0 .979-.99.979h-6.788c-.392 0-.553.07-.53.513a11.7 11.7 0 010 1.796c-.023.396.092.49.483.49 1.98-.024 3.936 0 5.915-.024.414 0 .529.093.506.513-.023.98 0 .98-.944.98h-5.454c-.368 0-.506.093-.483.49a21.57 21.57 0 010 1.725c-.023.373.092.466.46.466 2.44-.023 4.856 0 7.295-.023.484 0 .622.14.553.583a1.146 1.146 0 000 .397c.069.396-.092.513-.484.49-1.472 0-2.922.023-4.372.023zM96.284 30.713c0-1.492.023-2.985 0-4.477 0-.35.092-.42.437-.42 2.946.023 5.892.023 8.837 0 .368 0 .46.093.46.466 0 1.026 0 1.026-1.012 1.026h-6.789c-.368 0-.506.094-.506.49.023.606.023 1.236 0 1.842-.023.374.092.467.46.467 1.979-.023 3.981 0 5.96-.023.392 0 .507.093.484.49-.023 1.002 0 1.002-.967 1.002h-5.454c-.345 0-.483.093-.46.466.023.584.023 1.19 0 1.796-.023.35.092.443.437.42 2.44-.023 4.856 0 7.295-.023.506 0 .644.163.575.63a1.913 1.913 0 000 .512c.023.28-.069.35-.345.35h-9.044c-.368 0-.299-.21-.299-.42-.069-1.586-.069-3.078-.069-4.594z" fill="#980101"/><path d="M273.594 49.346c0 1.47-.023 2.939 0 4.408 0 .373-.115.467-.46.467-.967-.024-.967 0-.967-1.003 0-.49-.023-.98 0-1.446 0-.28-.092-.35-.345-.35-1.288 0-2.577.023-3.866 0-.253 0-.414.117-.575.28-.714.723-1.45 1.422-2.14 2.192-.369.42-.783.327-1.22.303-.253 0-.253-.863.023-1.143.483-.49.944-.979 1.45-1.469.207-.186.276-.303-.046-.466-1.082-.56-1.588-1.493-1.565-2.729 0-.513-.023-1.05.023-1.562a2.778 2.778 0 012.761-2.472h6.467c.345 0 .46.093.46.466-.023 1.516 0 3.032 0 4.524zm-4.349-3.498h-2.486c-.897 0-1.426.537-1.449 1.446v1.12c.023.98.529 1.539 1.496 1.539 1.679.023 3.336 0 5.016.023.299 0 .368-.093.368-.373a81.73 81.73 0 010-3.358c0-.303-.069-.42-.391-.42-.874.047-1.703.023-2.554.023zm-53.619-33.791c0 1.469-.023 2.938 0 4.407 0 .42-.092.537-.506.537-.921-.024-.898 0-.921-.933-.023-.606.276-1.423-.115-1.772-.322-.304-1.128-.094-1.703-.094-.874 0-1.91-.28-2.623.07-.875.443-1.496 1.4-2.233 2.122-.276.28-.483.7-.989.583-.207-.046-.552.117-.575-.116-.046-.327-.184-.746.138-1.05.483-.49.943-.98 1.45-1.445.253-.234.207-.327-.093-.49-1.012-.537-1.518-1.423-1.518-2.589 0-.653-.069-1.306.069-1.935.322-1.33 1.403-2.193 2.738-2.193 2.117 0 4.234.024 6.352-.023.46 0 .529.14.529.56-.023 1.446 0 2.915 0 4.36zm-4.373-3.428h-2.485c-.874 0-1.404.536-1.427 1.422-.023.397 0 .77 0 1.166.023.956.53 1.493 1.45 1.516 1.68.023 3.383 0 5.063.023.253 0 .345-.07.345-.35a84.014 84.014 0 010-3.404c0-.35-.138-.397-.414-.373h-2.532zm19.17 22.177c0 1.47-.023 2.939 0 4.408 0 .373-.115.467-.46.467-.966 0-.966 0-.966-1.003 0-.49-.023-.98 0-1.446 0-.28-.093-.35-.346-.35-1.288 0-2.577.023-3.866 0-.253 0-.414.117-.575.28-.713.723-1.45 1.422-2.14 2.192-.368.42-.783.327-1.22.303-.253 0-.253-.863.023-1.142.483-.49.944-.98 1.45-1.47.207-.186.276-.303-.046-.466-1.082-.56-1.588-1.493-1.565-2.729 0-.513-.023-1.05.023-1.562a2.779 2.779 0 012.762-2.472h6.466c.345 0 .46.093.46.466-.023 1.493 0 3.009 0 4.524zm-4.349-3.521h-2.485c-.898 0-1.427.536-1.45 1.446v1.12c.023.979.529 1.539 1.496 1.539 1.68.023 3.336 0 5.016.023.299 0 .369-.093.369-.373a81.73 81.73 0 010-3.358c0-.304-.069-.42-.392-.42-.874.046-1.703.023-2.554.023zm-19.492 4.617v-3.124c0-1.75 1.197-2.939 2.9-2.962h4.027c1.473 0 2.738 1.19 2.761 2.705.023 2.262 0 4.5.023 6.763 0 .35-.138.397-.414.397-1.013 0-1.013.023-1.013-1.003 0-.42-.023-.863 0-1.283.023-.373-.069-.513-.46-.513-1.979.023-3.981.023-5.96 0-.391 0-.46.117-.437.466.023.653 0 1.306.023 1.96 0 .256-.069.35-.322.35-1.082.046-1.082.07-1.082-1.027-.046-.91-.046-1.819-.046-2.729zm4.81-.49c.989 0 1.979-.022 2.991 0 .368 0 .506-.07.483-.466-.046-.723 0-1.446 0-2.168 0-.91-.529-1.47-1.426-1.47h-3.981c-.898 0-1.427.537-1.45 1.446-.023.77 0 1.54 0 2.286 0 .303.092.373.368.373.99-.023 2.002 0 3.015 0zm-51.088.468c0 1.095-.023 2.192 0 3.288 0 .396-.115.49-.506.49-.944-.024-.944 0-.944-.98 0-.49-.023-.98 0-1.446.023-.303-.092-.373-.368-.373h-6.121c-.299 0-.368.093-.368.373.023.653 0 1.306 0 1.959 0 .326-.046.466-.414.466-1.013 0-1.013.024-1.013-1.002 0-1.936.046-3.872-.023-5.807-.046-1.796 1.427-3.172 2.992-3.055 1.311.093 2.6.023 3.912.023 1.565 0 2.784 1.236 2.807 2.822.046 1.096.046 2.169.046 3.241zm-4.832-.467c1.012 0 2.025-.023 3.037 0 .322 0 .391-.093.391-.396-.023-.77 0-1.516 0-2.286 0-.886-.552-1.422-1.426-1.422h-3.981c-.898 0-1.45.536-1.473 1.445-.023.747.023 1.493-.023 2.24-.023.396.138.442.46.442 1.013-.046 2.002-.023 3.015-.023zm94.397 19.007v-3.126c.023-1.702 1.219-2.915 2.876-2.915h4.027a2.778 2.778 0 012.785 2.729c.023 2.239 0 4.477.023 6.693 0 .373-.138.42-.46.42-.967 0-.967 0-.99-.98 0-.583.253-1.376-.115-1.702-.322-.28-1.081-.094-1.657-.094-1.519 0-3.014.024-4.533-.023-.437 0-.622.093-.576.56.047.606 0 1.236.023 1.842 0 .28-.069.373-.368.373-1.058.024-1.058.047-1.058-1.003.023-.909.023-1.842.023-2.775zm4.809-.444c1.013 0 2.025-.023 3.038 0 .322 0 .437-.07.437-.42-.023-.746 0-1.492 0-2.238 0-.91-.529-1.47-1.427-1.47h-3.981c-.874 0-1.426.537-1.45 1.4-.023.793 0 1.562-.023 2.355 0 .303.093.373.369.373 1.012-.023 2.025 0 3.037 0zm-62.778-36.8v-3.125c.023-1.702 1.22-2.915 2.9-2.915h4.027c1.519 0 2.762 1.213 2.762 2.729.023 2.238 0 4.477.023 6.693 0 .326-.092.396-.392.396-1.012 0-1.012.023-1.035-.98 0-.582.253-1.375-.115-1.702-.322-.28-1.082-.093-1.657-.093h-4.626c-.345 0-.483.093-.46.466.023.653 0 1.306.023 1.96 0 .302-.092.372-.368.372-1.059.024-1.059.047-1.059-1.026-.023-.91-.023-1.842-.023-2.775zm4.856-.443c1.013 0 2.025-.023 3.038 0 .299 0 .414-.07.391-.396-.023-.747 0-1.493 0-2.24 0-.955-.529-1.492-1.473-1.492H194.8c-.898 0-1.45.537-1.473 1.446-.023.77.023 1.54-.023 2.286 0 .326.115.396.414.396h3.038zM148.591 69.17c0 1.072-.023 2.168 0 3.24 0 .374-.069.514-.484.49-.943-.023-.943 0-.943-.956 0-.49-.023-.98 0-1.446 0-.28-.069-.396-.368-.396-2.048.023-4.073.023-6.122 0-.345 0-.391.117-.391.42.023.676 0 1.329 0 2.005 0 .257-.069.35-.345.35-1.082.047-1.081.07-1.081-1.026 0-1.936.023-3.871 0-5.807-.047-1.772 1.449-3.125 2.968-3.008 1.312.093 2.647.023 3.981.023 1.496 0 2.739 1.236 2.762 2.752.046 1.12.023 2.239.023 3.358zm-4.879-.537c1.036 0 2.071-.024 3.084 0 .322 0 .391-.094.391-.397-.023-.77 0-1.516 0-2.285 0-.886-.552-1.423-1.427-1.423h-3.981c-.897 0-1.45.537-1.473 1.446-.023.746.023 1.493-.023 2.239-.023.396.138.443.461.443 1.012-.023 1.979-.023 2.968-.023zM96.722 12.01V9.935c0-1.563 1.22-2.799 2.761-2.799h3.981c1.68 0 2.9 1.143 2.946 2.869a61.749 61.749 0 010 4.127c-.046 1.726-1.243 2.845-2.969 2.845h-4.027c-1.496 0-2.692-1.212-2.692-2.728V12.01zm1.427.047v2.005c0 .863.483 1.446 1.334 1.446 1.404.024 2.785.024 4.188 0 .76-.023 1.289-.536 1.312-1.306a66.73 66.73 0 000-4.29c-.023-.77-.598-1.283-1.335-1.283a125.296 125.296 0 00-4.188 0c-.76 0-1.311.583-1.311 1.352-.024.677 0 1.376 0 2.076zm38.867.023V9.958c0-1.563 1.219-2.799 2.761-2.799h3.981c1.68 0 2.9 1.143 2.969 2.869a61.749 61.749 0 010 4.127c-.046 1.726-1.243 2.846-2.969 2.846h-4.027c-1.519 0-2.692-1.213-2.692-2.729-.023-.746-.023-1.47-.023-2.192zm1.426-.047v2.076c0 .816.484 1.376 1.266 1.4 1.427.046 2.877.046 4.303 0 .737-.024 1.266-.537 1.289-1.284a66.73 66.73 0 000-4.29c-.023-.77-.575-1.283-1.312-1.306-1.426-.024-2.83-.024-4.257 0-.736 0-1.266.583-1.266 1.329-.023.7-.023 1.376-.023 2.075zm-14.337 37.29v-2.122c0-1.61 1.22-2.822 2.808-2.822h3.912c1.703 0 2.9 1.143 2.969 2.845a61.749 61.749 0 010 4.128c-.046 1.726-1.243 2.845-2.946 2.845h-4.027c-1.519 0-2.693-1.19-2.716-2.728v-2.146zm1.427-.07v2.076c0 .84.483 1.4 1.289 1.422 1.404.047 2.83.024 4.257 0 .737-.023 1.266-.536 1.289-1.259a68.924 68.924 0 000-4.36c-.023-.747-.575-1.26-1.289-1.26-1.427-.023-2.83-.023-4.257 0-.759 0-1.289.583-1.289 1.376-.023.653 0 1.329 0 2.005zM110.851 67.98v-2.123c0-1.609 1.219-2.798 2.807-2.821h3.912c1.68 0 2.9 1.142 2.969 2.845a61.749 61.749 0 010 4.128c-.046 1.725-1.243 2.845-2.946 2.845h-4.027c-1.519 0-2.692-1.19-2.715-2.729V67.98zm1.426-.07v2.075c0 .84.484 1.4 1.289 1.423 1.404.046 2.831.023 4.257 0 .737-.023 1.266-.537 1.289-1.26a68.921 68.921 0 000-4.36c-.023-.747-.575-1.26-1.289-1.26-1.426-.023-2.83-.023-4.257 0-.759 0-1.289.583-1.289 1.376v2.006zm-7.847-19.823v3.125c-.023 1.82-1.197 3.009-2.969 3.009h-3.797c-1.312 0-2.462-1.096-2.623-2.402-.046-.304.023-.42.322-.397.184.023.368.023.552 0 .345-.07.506.07.598.443.162.583.622.886 1.197.886 1.312.024 2.647.047 3.981 0 .829-.023 1.289-.56 1.335-1.399.069-1.236.069-1.236-1.151-1.236-1.495 0-2.968.023-4.464-.023-1.496-.047-2.647-1.26-2.647-2.799 0-.816.023-1.632 0-2.448-.022-.373.093-.467.46-.467.967.024.967 0 .967 1.003v1.889c.023.7.484 1.306 1.174 1.33 1.818.046 3.636.023 5.454.046.322 0 .23-.21.23-.373 0-1.143.023-2.262 0-3.405 0-.35.069-.466.437-.466.99.023.99 0 .99.98-.046.885-.046 1.795-.046 2.704zM81.372 30.69c0-1.47.023-2.938 0-4.408 0-.396.115-.49.483-.49.944.024.944 0 .944.98v6.88c0 .396.069.56.529.56 1.956-.024 3.935-.024 5.914 0 .368 0 .46-.094.46-.467-.023-2.472 0-4.944-.023-7.44 0-.42.092-.536.507-.512.92.023.92 0 .92.932v6.973c0 .397.115.49.483.49.875-.023.875 0 .875.886 0 .513-.023 1.003 0 1.516.023.327-.115.42-.414.396h-.23c-.783 0-.806 0-.783-.792.023-.467-.138-.537-.552-.537-2.877.024-5.73 0-8.607.024-.414 0-.53-.094-.506-.514.023-1.492 0-2.985 0-4.477zm55.437.023c0-1.446.023-2.915 0-4.36 0-.42.069-.56.529-.56 2.14.023 4.257 0 6.397.023 1.542 0 2.762 1.236 2.785 2.798v1.446c0 1.516-1.174 2.752-2.647 2.799a88.172 88.172 0 01-4.97 0c-.599-.024-.714.186-.668.723.046.583 0 1.142.023 1.725 0 .257-.069.35-.345.35-1.081.047-1.081.07-1.081-1.026-.023-1.306-.023-2.612-.023-3.918zm4.418-3.428h-2.6c-.254 0-.415 0-.415.327.023 1.142 0 2.308 0 3.451 0 .233.046.327.3.327 1.748-.024 3.497 0 5.246-.024.852-.023 1.312-.583 1.335-1.469v-1.166c0-.91-.529-1.446-1.427-1.47a83.42 83.42 0 01-2.439.024zm41.285 8.372h-3.314c-.322 0-.437-.046-.437-.42a587.2 587.2 0 000-9.001c0-.397.138-.443.483-.443.944 0 .967 0 .967.956 0 .7.023 1.422 0 2.122 0 .326.092.396.391.396 1.703-.023 3.383 0 5.085 0 1.565 0 2.762 1.236 2.808 2.822.046 1.19-.138 2.262-1.174 3.008-.483.35-.989.537-1.588.537-1.104.023-2.163.023-3.221.023zm.621-4.897h-2.6c-.23 0-.392 0-.392.303.023.956 0 1.889 0 2.845 0 .21.047.303.277.303 1.772-.023 3.567 0 5.339-.023.736-.023 1.219-.63 1.242-1.376v-.606c0-.863-.552-1.423-1.427-1.423-.782-.023-1.61-.023-2.439-.023zM90.784 45.592c.23.7-.23 1.166-.852 1.586-.828.56-1.588 1.212-2.393 1.795-.345.257-.391.373-.023.653.966.7 1.91 1.47 2.876 2.17.276.21.438.419.392.792-.023.21 0 .42 0 .606 0 1.073 0 1.05-1.059 1.026-.253 0-.414-.07-.345-.35.184-.839-.253-1.329-.92-1.748-.76-.513-1.496-1.096-2.21-1.68-.253-.21-.414-.163-.644.024-.875.676-1.726 1.4-2.647 2.005-.483.327-.529.723-.483 1.19.046.396-.046.583-.506.56-.898-.047-.829-.024-.92-.91-.093-.886.207-1.446.943-1.912.828-.537 1.588-1.213 2.393-1.796.3-.21.345-.327 0-.583a145.195 145.195 0 01-2.991-2.285c-.23-.164-.346-.35-.323-.653.023-.327 0-.677 0-1.003 0-.723 0-.676.737-.746.575-.047.76.14.667.7-.092.536.138.839.552 1.142a68.43 68.43 0 012.555 1.959c.23.163.368.256.644.023.92-.746 1.864-1.47 2.808-2.145.414-.303.322-.7.299-1.05-.046-.49.115-.7.598-.606.115.023.253.023.391 0 .323-.047.484.047.438.42 0 .233.023.466.023.816zm28.995-14.785c0 1.469-.023 2.938 0 4.407 0 .373-.115.467-.46.467-.967-.024-.967 0-.967-1.003 0-.91-.023-1.82 0-2.729 0-.326-.092-.396-.414-.396-2.025.023-4.05.023-6.075 0-.322 0-.414.093-.414.42.023 1.072-.023 2.169.023 3.241 0 .397-.115.49-.484.49-.943-.023-.943 0-.943-.956v-8.372c0-.42.115-.537.506-.513.921.023.921 0 .921.933v2.915c0 .303.046.42.368.42a268.01 268.01 0 016.121 0c.345 0 .368-.14.368-.42-.023-1.143 0-2.263-.023-3.405 0-.35.092-.443.415-.443 1.012 0 1.012 0 1.012 1.026.046 1.26.046 2.588.046 3.918zm101.922 18.446v-4.407c0-.35.069-.467.437-.467.99.024.99 0 .99.98v2.915c0 .28.069.373.368.373 2.048-.023 4.073-.023 6.121 0 .323 0 .392-.117.392-.42-.023-1.142 0-2.262-.023-3.405 0-.326.046-.443.414-.443 1.012 0 1.012 0 1.012 1.003v8.279c0 .466-.092.653-.575.583a.748.748 0 00-.322 0c-.414.07-.575-.07-.552-.536.046-1.05 0-2.123.023-3.195 0-.304-.069-.42-.392-.42-2.025.023-4.05.023-6.075 0-.368 0-.414.14-.414.443.023 1.073 0 2.122.023 3.195 0 .396-.092.513-.483.49-.944-.024-.944 0-.944-.957v-4.01zm23.727.047c0 1.492-.023 2.985 0 4.477 0 .374-.092.467-.461.467-.966-.023-.966 0-.966-.98 0-.91-.023-1.819 0-2.728 0-.303-.069-.42-.391-.42-2.025.023-4.051.023-6.076 0-.368 0-.414.14-.414.467.023 1.072-.023 2.122.023 3.194 0 .397-.092.514-.483.49-.944-.023-.944 0-.944-.956 0-2.775.023-5.55-.023-8.325 0-.467.092-.653.553-.56.115.023.23.023.322 0 .414-.07.575.093.552.536-.046 1.096 0 2.192-.023 3.288 0 .35.092.42.437.42a258.12 258.12 0 016.007 0c.391 0 .437-.14.437-.466-.023-1.12 0-2.239-.023-3.358 0-.327.069-.443.414-.443 1.013 0 1.013 0 1.013 1.026.046 1.259.046 2.565.046 3.87zm-52.86-18.563c0-1.493.023-2.985 0-4.478 0-.373.092-.466.46-.466.966.023.966 0 .966 1.002v2.845c0 .28.023.42.368.42 2.049-.023 4.074-.023 6.122 0 .345 0 .368-.14.368-.42-.023-1.119.023-2.238-.023-3.358 0-.396.092-.513.483-.49.944.024.944 0 .944.957v8.372c0 .42-.115.536-.53.513-.92-.023-.92 0-.92-.933s-.023-1.866 0-2.798c0-.327-.092-.397-.391-.397-2.025.023-4.05.023-6.076 0-.299 0-.414.093-.414.397.023 1.096 0 2.192.023 3.288 0 .35-.092.443-.437.443-.99 0-.99.023-.99-.956.047-1.306.047-2.612.047-3.941zm-27.822-18.68V9.935c0-1.563 1.22-2.799 2.762-2.799h4.188c1.358 0 2.531 1.12 2.692 2.472.023.233 0 .35-.253.327a2.186 2.186 0 00-.552 0c-.368.046-.575-.047-.691-.467-.161-.583-.644-.84-1.219-.863a125.308 125.308 0 00-4.188 0c-.783 0-1.312.56-1.312 1.353v4.198c0 .746.506 1.329 1.266 1.352 1.426.047 2.876.024 4.303 0 .552 0 1.035-.303 1.174-.84.115-.42.299-.489.667-.466.943.024 1.012.094.667 1.003a2.777 2.777 0 01-2.623 1.796h-4.142c-1.565 0-2.739-1.213-2.739-2.799v-2.145zm-54.218 0V9.935c0-1.516 1.22-2.776 2.739-2.776h4.257c1.358 0 2.554 1.143 2.669 2.496 0 .07.047.21.024.21-.346.186-.714.046-1.059.093-.161.023-.276.023-.368-.21-.299-.863-.668-1.096-1.542-1.096h-3.797c-.944 0-1.473.536-1.473 1.47v3.964c0 .862.483 1.422 1.335 1.445 1.404.024 2.784.024 4.188 0 .598 0 1.082-.326 1.243-.932.092-.35.253-.397.552-.397 1.059 0 1.151.14.69 1.12-.506 1.049-1.334 1.655-2.508 1.679h-4.188c-1.519 0-2.716-1.213-2.716-2.752-.046-.746-.046-1.47-.046-2.192zm57.187 37.22v-2.123c0-1.539 1.22-2.775 2.715-2.775h4.258c1.357 0 2.531 1.12 2.692 2.472.023.257-.023.35-.276.327a1.83 1.83 0 00-.506 0c-.369.046-.599 0-.737-.467-.161-.56-.644-.84-1.219-.84-1.404 0-2.785-.023-4.189 0-.759 0-1.311.584-1.311 1.353v4.198c0 .723.483 1.306 1.219 1.33 1.473.046 2.946.023 4.419 0 .529 0 .989-.327 1.104-.84.115-.443.322-.467.691-.467.943.024 1.012.094.644 1.026a2.778 2.778 0 01-2.623 1.773h-4.143a2.729 2.729 0 01-2.738-2.752v-2.215zm20.296-32.37c-1.358.42-2.278-.163-3.129-1.142-.76-.886-1.657-1.656-2.44-2.495-.276-.304-.552-.444-.966-.397-.53.047-1.22-.233-1.519.117-.253.303-.092 1.002-.092 1.515 0 .7-.023 1.423 0 2.123 0 .303-.092.373-.368.373-1.059.023-1.059.046-1.059-1.026 0-2.752.023-5.504-.023-8.28 0-.466.092-.652.552-.559.115.023.23.023.323 0 .414-.07.575.093.552.537-.046 1.096 0 2.192-.023 3.288 0 .35.115.396.437.443 1.22.163 2.163-.21 2.946-1.213.759-.956 1.703-1.749 2.531-2.658.276-.304.552-.443.966-.397.438.047.875 0 1.45 0-.736.746-1.357 1.423-2.002 2.076a132.24 132.24 0 01-2.531 2.565c-.253.233-.23.373 0 .606a345.55 345.55 0 014.096 4.151c.115.14.299.234.299.373zM133.955 7.37c-1.496 1.469-2.969 2.938-4.487 4.36-.323.327-.277.49.023.77 1.334 1.33 2.646 2.682 3.981 4.011.115.117.299.21.437.303-.046.047-.069.117-.115.163h-1.68c-.207 0-.299-.116-.414-.233-1.128-1.142-2.302-2.262-3.406-3.428-.345-.35-.667-.513-1.151-.466-.483.046-1.104-.14-1.38.093-.323.28-.093.933-.116 1.446a34.093 34.093 0 000 2.169c0 .303-.046.42-.391.42-1.035.023-1.035.023-1.035-1.027V7.626c0-.42.115-.536.506-.513.92.023.92 0 .92.933 0 .956.023 1.889 0 2.845 0 .326.047.443.438.49 1.219.14 2.14-.234 2.945-1.236.76-.957 1.703-1.75 2.532-2.659.276-.303.552-.42.966-.396.437.023.875 0 1.312 0 0 .14.046.21.115.28zm-26.073 55.876c-.69.653-1.404 1.282-2.071 1.958-.828.817-1.611 1.68-2.462 2.496-.276.256-.253.396 0 .653 1.473 1.469 2.945 2.962 4.51 4.547h-1.91c-.161 0-.253-.14-.345-.256-1.174-1.166-2.347-2.309-3.498-3.498-.276-.28-.529-.397-.92-.373-.392.023-.806.023-1.22 0-.345-.024-.437.093-.437.443.023 1.072 0 2.169.023 3.241 0 .373-.115.467-.46.467-.967-.024-.967 0-.967-1.003v-8.372c0-.397.092-.49.483-.49.944.023.944 0 .944.956 0 .98.023 1.936 0 2.915 0 .327.092.443.414.397h.115c1.197.186 2.071-.21 2.831-1.19.759-.98 1.726-1.772 2.577-2.681.253-.28.529-.42.92-.374.438.024.898 0 1.358 0 .023.024.069.094.115.164zm26.579 4.78c0 1.47-.023 2.939 0 4.408 0 .373-.115.466-.46.466-.967-.023-.967 0-.967-1.002v-6.88c0-.42-.092-.536-.506-.513-1.611.023-3.245 0-4.855.023-.967 0-1.496.537-1.496 1.516 0 2.099-.023 4.198 0 6.32 0 .443-.138.56-.553.536-.874-.023-.874 0-.874-.91v-5.853c0-1.889 1.174-3.078 3.015-3.078h6.236c.368 0 .46.093.46.467v4.5zm39.858-37.266c0 1.47-.023 2.938 0 4.407 0 .397-.092.514-.484.49-.943-.023-.943 0-.943-.956 0-2.309-.023-4.617.023-6.926 0-.443-.138-.513-.529-.513-1.611.023-3.199 0-4.81 0-1.013 0-1.542.513-1.542 1.539 0 2.099-.023 4.198 0 6.32 0 .42-.092.536-.506.513-.921-.023-.921 0-.921-.933v-5.853c0-1.89 1.174-3.055 3.038-3.055h6.121c.415 0 .576.07.553.536-.023 1.492 0 2.962 0 4.43zM55.253 12.103c-.023 1.61-.99 2.566-2.232 3.312a6.21 6.21 0 00-.897.63c-.115.116-.161.256-.092.396s.23.117.345.117c.414-.024.805-.234 1.22-.28.828-.093 1.357.07 1.495.56.161.63-.253 1.492-.943 1.655-1.381.35-3.199-.07-3.912-1.586-.276-.583-.23-1.189-.046-1.795.483-1.633 1.288-3.055 2.6-4.128.184-.14.368-.28.598-.396 1.128-.583 1.75.07 1.887 1.236-.023.093-.023.186-.023.28zM185.388 44.38c1.45 0 2.899.023 4.349 0 .368 0 .506.07.506.489-.023 1.003 0 1.003-.966 1.003-.898 0-1.795.023-2.693 0-.414-.023-.529.093-.529.513.023 2.449 0 4.874.023 7.323 0 .42-.069.583-.529.56-.898-.047-.898 0-.898-.91v-6.973c0-.373-.069-.513-.483-.513-1.058.023-2.14 0-3.198.023-.323 0-.438-.047-.438-.42 0-1.072-.023-1.072 1.059-1.072 1.242-.024 2.531-.024 3.797-.024zm-57.094-18.564c1.45 0 2.9.023 4.349 0 .369 0 .507.07.507.49-.023 1.002 0 1.002-.967 1.002-.874 0-1.772.024-2.646 0-.46-.023-.576.094-.576.56.023 2.425 0 4.85.023 7.253 0 .42-.069.583-.529.56-.897-.047-.897 0-.897-.91v-6.926c0-.42-.069-.583-.53-.56-1.035.047-2.094 0-3.152.023-.322 0-.437-.046-.437-.42 0-1.072-.024-1.072 1.058-1.072h3.797zm132.183 57.975c.806.443 1.542.84 2.279 1.236.299.163.529 1.05.345 1.306-.138.163-.345.047-.506.07-.231.023-.254-.14-.208-.303.093-.397-.161-.56-.46-.7-.483-.233-.943-.49-1.404-.746-.322-.187-.483-.21-.46.257.023.35 0 .7 0 1.072 0 .257.023.443-.345.443-.391 0-.391-.186-.391-.49v-1.072c.023-.327-.046-.467-.391-.257-.461.28-.921.56-1.381.817-.253.14-.414.28-.368.606.069.326-.115.35-.392.35-.253 0-.322-.07-.345-.35-.046-.583.069-1.003.691-1.26.598-.256 1.15-.652 1.795-1.025a55.51 55.51 0 01-2.094-1.237c-.277-.163-.53-1.072-.346-1.329.138-.186.346-.07.507-.093.184-.023.207.117.184.256-.092.444.207.63.529.793.414.233.828.467 1.243.723.299.187.391.117.368-.233-.023-.42.023-.816 0-1.236-.023-.35.161-.326.414-.35.276 0 .345.07.345.35-.023.42 0 .863 0 1.283 0 .256.046.35.299.21a69.575 69.575 0 011.795-.957c.231-.116.231-.326.207-.513-.046-.303.116-.373.392-.373.253 0 .368.024.391.35.046.606-.092 1.003-.69 1.236-.714.397-1.312.793-2.003 1.166zm22.322 0c0-.723.023-1.446 0-2.169 0-.326.046-.466.415-.443 1.081.024 2.163 0 3.244 0 .599 0 1.059.28 1.335.817.276.536.276 1.096-.115 1.562-.161.21-.115.303 0 .513.667 1.003.046 2.309-1.151 2.355-1.127.047-2.278 0-3.405.024-.277 0-.346-.094-.346-.35.023-.793.023-1.563.023-2.309zm2.371-.396h1.265c.484 0 .806-.303.806-.723s-.322-.723-.806-.723h-1.864c-1.104 0-1.081 0-1.035 1.143.023.233.069.326.322.303h1.312zm-.023 2.239h1.219c.53 0 .852-.28.875-.723 0-.444-.322-.723-.852-.723h-1.864c-.989 0-.989 0-.989 1.026 0 .326.046.466.414.443.391-.047.805-.023 1.197-.023zm-39.49.792h-2.877c-.23 0-.483.07-.46-.35.023-.303.023-.512.414-.443.322.07.345-.14.345-.396v-2.449c0-1.026.622-1.609 1.634-1.632 1.036 0 2.071.023 3.084-.024.437-.023.506.14.506.537-.023 1.143 0 2.309-.023 3.475 0 .303 0 .56.414.49.368-.07.299.21.322.42.023.232-.023.372-.322.372-1.012-.023-2.025 0-3.037 0zm.046-.793c.506 0 .989-.023 1.495 0 .277 0 .392-.046.369-.35a63.57 63.57 0 010-2.961c0-.28-.046-.397-.346-.397-.851.024-1.725 0-2.577 0-.506 0-.782.28-.805.793-.023.863 0 1.703 0 2.566 0 .28.092.35.345.35h1.519zm-51.018.793h-2.923c-.276 0-.437-.023-.414-.373.023-.28.046-.466.391-.42.345.07.368-.14.368-.42-.023-.792 0-1.608 0-2.401 0-1.05.622-1.633 1.657-1.656 1.013 0 2.025.023 3.038 0 .391 0 .529.07.529.513-.023 1.166 0 2.355-.023 3.521 0 .303 0 .537.391.444.345-.07.322.163.345.396.024.28-.046.396-.345.396-1.035-.023-2.025 0-3.014 0zm-.023-.793c.506 0 1.035-.023 1.541 0 .277 0 .346-.093.346-.35a65.592 65.592 0 010-3.008c0-.256-.069-.35-.346-.35-.851.024-1.725 0-2.577 0-.529 0-.805.28-.828.817-.023.84 0 1.679 0 2.518 0 .327.138.373.391.35.483.023.989.023 1.473.023zm13.969-1.305c.644-.933 1.265-1.89 1.933-2.822.092-.14.138-.303.322-.35.483-.117.667 0 .667.513v4.244c0 .28.069.537-.391.513-.46 0-.368-.28-.368-.536v-3.358c-.782 1.12-1.45 2.145-2.186 3.218-.714-1.05-1.427-2.076-2.209-3.242v3.499c0 .28-.046.42-.369.42-.322 0-.391-.094-.391-.42.023-1.446 0-2.869.023-4.315 0-.186-.184-.49.184-.536.276-.023.576-.07.783.256.575.887 1.173 1.75 1.772 2.636.023.093.046.233.23.28zM61.926 28.171c.069.817-.369 1.516-.737 2.216-.437.816-.506 1.609-.115 2.425.46.98.898 1.982 1.22 3.009.253.792.437 1.609.414 2.448 0 .163-.023.327-.092.49-.046.163-.161.326-.345.303-.184-.023-.23-.186-.23-.326-.092-2.1-1.404-3.662-2.347-5.387-.576-1.05-.622-1.936.115-2.916.62-.84 1.242-1.679 1.587-2.681.07-.164.161-.374.392-.327.23.047.138.303.16.466 0 .07-.022.14-.022.28zm204.949 58.255c-.736 0-1.472-.023-2.209 0-.299 0-.414-.046-.414-.396a143.76 143.76 0 000-4.454c0-.303.069-.42.391-.42 1.473.023 2.946.023 4.418 0 .346 0 .369.116.392.42.023.35-.138.373-.415.373-1.219-.023-2.416 0-3.635-.023-.323 0-.392.093-.392.396 0 1.05-.023 1.05 1.013 1.05.782 0 1.542.023 2.324 0 .345 0 .391.116.391.42 0 .279-.069.372-.368.372-.966-.023-1.956 0-2.922-.023-.277 0-.415.023-.415.373 0 1.073-.023 1.073 1.036 1.073 1.012 0 2.025.023 3.038 0 .345 0 .368.14.391.42 0 .28-.069.396-.368.373-.806.023-1.542.046-2.256.046zm-65.149 0h-2.209c-.299 0-.414-.046-.414-.396a148.33 148.33 0 000-4.524c0-.257.069-.35.345-.35 1.496 0 3.014.023 4.51 0 .368 0 .299.186.322.42.023.28-.046.396-.368.373-1.22-.023-2.416 0-3.636-.023-.345 0-.46.093-.46.466.023 1.003 0 1.003 1.012 1.003.76 0 1.496.023 2.256 0 .322 0 .46.046.46.42 0 .35-.138.373-.437.373-.967-.024-1.91 0-2.877 0-.276 0-.414.023-.414.373 0 1.072-.023 1.072 1.035 1.072 1.013 0 2.026.024 3.038 0 .345 0 .391.117.391.42 0 .28-.069.397-.368.373-.713-.023-1.45 0-2.186 0zm-11.46-2.029c0 .56-.023 1.12 0 1.68 0 .256-.069.35-.345.35-.23 0-.414 0-.414-.35s.184-.863-.092-1.05c-.253-.186-.714-.07-1.059-.07h-2.209c-.253 0-.368.07-.345.35.023.21 0 .443 0 .676 0 .233.069.467-.322.467-.369 0-.415-.14-.415-.467.023-1.05 0-2.122 0-3.171 0-1.003.622-1.633 1.611-1.633h1.979c.944 0 1.542.606 1.565 1.563.046.536.046 1.096.046 1.655zm-2.6-.21h1.542c.138 0 .322.047.322-.186 0-.49.023-1.003-.046-1.493-.046-.373-.345-.56-.714-.56-.391 0-.759.024-1.15 0-1.956-.07-1.772.187-1.795 1.866 0 .28.069.397.368.374.483-.024.967 0 1.473 0zm-15.395.163v-1.608c.023-.933.644-1.563 1.565-1.563h2.048c.921 0 1.542.606 1.565 1.516.023 1.143 0 2.262.023 3.405 0 .256-.069.35-.345.35-.23 0-.415 0-.415-.35s.185-.863-.092-1.05c-.253-.186-.713-.07-1.058-.07h-2.209c-.277 0-.369.07-.346.35.023.21 0 .443 0 .677 0 .233.069.466-.345.466-.368 0-.414-.14-.414-.466.046-.584.023-1.12.023-1.656zm2.6-.162h1.542c.138 0 .322.046.322-.187 0-.49.023-1.003-.046-1.493-.046-.35-.322-.536-.667-.536-.759 0-1.496-.023-2.255 0-.437.023-.714.303-.714.746-.023.397 0 .77 0 1.166-.023.257.07.327.323.304.46-.024.966 0 1.495 0zm42.343-1.843l-3.245 3.708c-.069.07-.115.14-.184.21-.207.28-.506.187-.759.14-.23-.047-.115-.327-.115-.49V81.67c0-.303 0-.513.414-.513.46 0 .322.303.322.536v3.662c.299-.327.506-.56.69-.793.898-1.026 1.818-2.053 2.716-3.079.207-.233.414-.326.713-.303.23 0 .322.07.322.327 0 1.539-.023 3.101 0 4.64 0 .304-.138.304-.368.327-.276.023-.391-.047-.391-.373.023-1.026 0-2.052 0-3.078v-.607a.126.126 0 00-.115-.07zm-86.596 2.985c1.173-1.329 2.255-2.542 3.336-3.778.092-.093.161-.21.254-.28.207-.21.506-.14.736-.093.207.047.092.28.092.443v4.361c0 .257.046.467-.345.467-.391 0-.391-.164-.391-.467.023-1.026 0-2.052 0-3.078 0-.163.069-.373-.115-.583-.852.98-1.68 1.912-2.509 2.868-.276.327-.575.63-.828.98-.23.326-.553.303-.829.233-.276-.07-.138-.397-.138-.583-.023-1.4 0-2.798-.023-4.198 0-.303.023-.466.391-.466.392 0 .346.21.346.443.023 1.19.023 2.379.023 3.731zm-36.106 0c1.197-1.352 2.279-2.565 3.36-3.778.092-.093.161-.21.253-.28.23-.21.507-.14.737-.07.184.047.092.28.092.444v4.36c0 .257 0 .444-.368.444-.323 0-.392-.117-.392-.42.023-1.213 0-2.402 0-3.638-.276.023-.345.21-.437.326a396.477 396.477 0 00-2.992 3.428c-.16.164-.299.28-.552.304-.368.023-.46-.094-.46-.467a137.76 137.76 0 000-4.36c0-.327.046-.444.414-.467.414 0 .322.233.322.466.023 1.166.023 2.356.023 3.708zm129.422-3.101a334.289 334.289 0 00-3.36 3.848c-.069.093-.138.186-.23.256-.23.21-.507.14-.737.07-.207-.047-.092-.28-.092-.443V81.6c0-.28.046-.42.391-.444.346 0 .369.163.369.42-.023 1.026 0 2.052 0 3.078v.676c1.173-1.329 2.255-2.542 3.336-3.754.093-.093.162-.187.254-.303.207-.234.483-.14.736-.117.253.047.115.303.115.466v4.315c0 .28.023.49-.368.466-.437 0-.368-.256-.368-.513v-3.008c0-.14-.023-.327-.046-.653zm-61.168 2.985c.645-.723 1.266-1.446 1.888-2.169.483-.536.966-1.073 1.403-1.632.253-.304.553-.304.852-.21.253.07.115.373.115.583.023 1.422 0 2.822.023 4.244 0 .303-.069.42-.391.42-.323 0-.392-.117-.392-.42.023-1.213 0-2.449 0-3.801-.897 1.05-1.703 1.982-2.508 2.938-.299.327-.598.653-.851 1.026-.185.257-.392.28-.668.28-.23 0-.322-.046-.322-.303 0-1.54.023-3.078 0-4.64 0-.28.115-.327.368-.327s.414.023.391.35c-.023 1.049 0 2.075 0 3.124 0 .117-.046.304.092.537zm-25.381 0c.644-.723 1.265-1.446 1.887-2.17.483-.535.943-1.095 1.426-1.632.116-.116.185-.256.392-.256.368-.023.598 0 .575.513-.046 1.446-.023 2.892 0 4.36 0 .304-.069.42-.391.42s-.391-.14-.391-.42c.023-1.212 0-2.448 0-3.8-.898 1.05-1.703 1.982-2.509 2.938-.299.326-.598.653-.851 1.026-.184.257-.391.28-.668.28-.23 0-.322-.047-.322-.303 0-1.54.023-3.079 0-4.641 0-.28.115-.326.368-.326.254 0 .415.023.392.35-.023 1.049 0 2.075 0 3.124 0 .117-.069.303.092.537zm20.664-4.058h1.059c.805.023 1.45.606 1.496 1.422.046.793.046 1.61 0 2.403-.046.862-.668 1.422-1.519 1.445h-2.14c-.852-.023-1.45-.56-1.473-1.399a20.922 20.922 0 010-2.402c.046-.863.644-1.422 1.519-1.446.322-.023.69-.023 1.058-.023zm-.046.793h-1.035c-.483 0-.76.28-.783.746a34.093 34.093 0 000 2.169c.023.49.277.77.76.77.713 0 1.427.023 2.14 0 .506 0 .782-.28.782-.793.023-.7.023-1.423 0-2.123-.023-.49-.276-.746-.759-.77-.368-.022-.736 0-1.105 0zm-44.943 4.477h-1.105c-.805-.023-1.404-.56-1.45-1.376a21.74 21.74 0 010-2.448c.046-.84.645-1.4 1.473-1.423.713-.023 1.427 0 2.14 0 .852 0 1.496.606 1.542 1.446.046.77.046 1.563 0 2.355-.046.886-.667 1.47-1.565 1.47-.322-.024-.69-.024-1.035-.024zm.023-4.477h-1.036c-.506 0-.782.28-.805.77a32.607 32.607 0 000 2.121c.023.513.299.793.805.793h2.094c.506 0 .806-.28.806-.77.023-.699.023-1.422 0-2.121-.023-.514-.3-.77-.806-.793-.368-.024-.713 0-1.058 0zm139.547 4.477c-.391 0-.782.024-1.151 0-.782-.023-1.357-.583-1.403-1.376a21.74 21.74 0 010-2.448c.046-.84.644-1.423 1.472-1.423a34.945 34.945 0 012.21 0c.805.024 1.449.607 1.472 1.423.046.793.046 1.609 0 2.402-.046.84-.69 1.4-1.542 1.422h-1.058zm-.023-.793h1.035c.53-.023.806-.28.829-.816.023-.676 0-1.329 0-2.005 0-.583-.276-.84-.852-.863h-2.025c-.506 0-.805.256-.828.77a34.093 34.093 0 000 2.168c.023.467.299.746.782.746h1.059zm-11.276-2.402c0 .537.023 1.073 0 1.61-.023.956-.644 1.562-1.588 1.562h-1.979c-.667-.023-1.174-.396-1.381-1.003-.046-.14-.184-.373 0-.42.207-.046.53-.186.668.14.184.444.529.513.943.513.598-.023 1.174 0 1.772 0 .644-.023 1.082-.722.828-1.329-.092-.21-.253-.116-.368-.116h-2.485c-.944 0-1.542-.607-1.588-1.563-.023-.373.023-.746 0-1.12-.023-.326.138-.35.391-.35.3-.022.392.094.369.374a7.294 7.294 0 000 1.003c.023.583.276.863.851.863.828 0 1.657-.024 2.485 0 .322 0 .392-.117.392-.42-.024-.49 0-.98 0-1.446 0-.28.046-.396.345-.396.322 0 .414.093.391.42-.069.56-.046 1.119-.046 1.678zm-137.177.56c0-.723.023-1.446 0-2.169 0-.326.046-.466.414-.443 1.082.024 2.163 0 3.245.024.851 0 1.45.606 1.496 1.469.023.303.023.606 0 .886-.046.816-.645 1.423-1.473 1.446-.806.023-1.611.046-2.416 0-.484-.023-.622.14-.553.583.023.14 0 .303 0 .443.023.257.023.443-.345.443-.391 0-.391-.186-.391-.466.046-.77.023-1.493.023-2.216zm2.209.397h1.404c.529 0 .805-.257.828-.817v-.513c-.023-.653-.253-.91-.897-.91-.714 0-1.427.048-2.14-.022-.576-.047-.737.14-.668.7.046.489-.161 1.165.092 1.445.276.326.967.07 1.381.117zm-18.985-.397c0-.746.023-1.492 0-2.239 0-.326.092-.396.414-.396 1.105.023 2.21 0 3.314 0 .23 0 .437.07.644.163.737.373 1.059 1.33.806 2.472-.161.723-.783 1.166-1.588 1.166-.806 0-1.611.024-2.416 0-.323 0-.415.093-.392.397.023.21 0 .42 0 .606 0 .233.046.466-.345.466-.368 0-.414-.163-.414-.466-.023-.723-.023-1.446-.023-2.169zm2.347.397h1.312c.46 0 .713-.257.76-.723a3.32 3.32 0 000-.677c-.024-.583-.277-.84-.852-.84-.806 0-1.611.024-2.416-.022-.392-.024-.46.14-.438.466.023.42.023.863 0 1.282-.023.374.07.537.46.49.415-.023.783.024 1.174.024zM53.366 62.336c.046-.606.138-1.166.391-1.632.438-.84 1.381-1.073 2.233-.56.598.35 1.173.723 1.84.91.507.14.553.396.093.676-.599.373-1.243.723-1.864 1.026-.53.256-1.013.56-1.565.746-.599.21-.783.163-.967-.443a2.944 2.944 0 01-.16-.723zm178.369 21.455c-.621-.466-1.174-.886-1.726-1.306-.207-.163-.368-1.05-.23-1.236.138-.186.345-.07.506-.093.207-.023.253.117.23.28-.092.443.185.63.484.84.46.326.874.956 1.38.932.461-.023.898-.606 1.335-.933.299-.21.575-.396.483-.84-.069-.326.184-.28.369-.302.207 0 .368-.024.391.303.023.536-.023.956-.552 1.26-.484.279-.921.675-1.427 1.072.552.443 1.104.84 1.634 1.26.276.21.483.932.322 1.235-.115.233-.322.093-.483.117-.116.023-.3 0-.254-.187.161-.606-.322-.793-.69-1.072-.368-.304-.759-.793-1.151-.793-.391 0-.782.49-1.15.793-.345.28-.829.466-.691 1.072.046.187-.115.21-.253.187-.161-.024-.368.116-.483-.117-.138-.303.046-1.05.322-1.236.529-.373 1.059-.77 1.634-1.236zM80.75 83.768c0-.746.023-1.493 0-2.239 0-.28.069-.373.368-.373 1.496.023 2.992.023 4.465 0 .253 0 .345.07.345.35a152.942 152.942 0 000 4.594c0 .28-.092.35-.345.35-.254 0-.415-.024-.415-.35.023-1.213-.023-2.425.023-3.638.023-.443-.138-.513-.529-.513-.874.023-1.772.023-2.646 0-.415-.023-.576.07-.553.536.046 1.143.023 2.309.023 3.475 0 .233.092.513-.345.513-.391 0-.391-.187-.391-.49v-2.215zm195.099 1.236c-.092.863-.621 1.399-1.472 1.399a35.4 35.4 0 01-2.21 0c-.828-.023-1.426-.583-1.472-1.422a20.923 20.923 0 010-2.403c.046-.84.644-1.399 1.472-1.422a36.89 36.89 0 012.256 0c.598.023 1.173.443 1.334.98.046.14.184.373-.023.442-.184.047-.529.187-.644-.093-.23-.513-.621-.56-1.082-.536-.598.023-1.173 0-1.772 0-.552 0-.828.256-.851.793-.023.7-.023 1.422 0 2.122.023.49.276.77.759.77h2.141c.253 0 .46-.07.644-.28.414-.397.414-.42.92-.35zM122.15 84.98c-.092.887-.622 1.423-1.45 1.423-.736.023-1.473.023-2.209 0-.829-.023-1.427-.583-1.473-1.422a20.923 20.923 0 010-2.403c.046-.84.644-1.422 1.473-1.422a36.382 36.382 0 012.255 0c.598.023 1.174.42 1.335.98.046.14.184.373 0 .442-.184.07-.53.187-.645-.093-.23-.56-.667-.56-1.15-.56h-1.772c-.507 0-.783.28-.806.793-.023.7-.023 1.423 0 2.123.023.513.299.77.806.77h2.094c.276 0 .575-.07.667-.327.207-.467.553-.303.875-.303zm6.42.024c-.092.863-.621 1.399-1.473 1.399-.736.023-1.472.023-2.209 0-.828-.023-1.427-.583-1.473-1.422a20.923 20.923 0 010-2.403c.046-.84.645-1.399 1.473-1.422.76-.023 1.496-.023 2.255 0 .599.023 1.174.443 1.335.98.046.14.184.373-.023.442-.184.047-.529.187-.644-.093-.23-.513-.622-.56-1.082-.536h-1.772c-.552 0-.828.256-.851.793-.023.7-.023 1.422 0 2.122.023.49.276.77.759.77h2.14c.253 0 .461-.07.645-.28.414-.397.391-.42.92-.35zm19.653 0c-.092.886-.644 1.399-1.519 1.422h-2.094c-.897 0-1.496-.583-1.519-1.492a37.857 37.857 0 010-2.286c.047-.886.645-1.469 1.542-1.492h2.14c.645 0 1.22.42 1.404 1.003.046.14.184.373-.023.42-.184.046-.529.186-.644-.094-.23-.536-.621-.56-1.082-.536h-1.772c-.552 0-.828.256-.851.793-.023.7-.023 1.422 0 2.122.023.513.299.77.805.77h2.048c.277 0 .576-.047.668-.28.207-.467.529-.42.897-.35zM52.146 45.615c.3.467.713.653 1.105.886.437.28.437.49.023.77-.53.35-1.059.397-1.634.023-.438-.28-.806-.63-1.174-1.002-.345-.327-.276-.653.092-.933.967-.7 1.933-1.446 3.06-1.89.3-.116.6-.162.898-.046.53.187.553.257.138.606a.552.552 0 00-.207.374c-.023.186-.046.373-.092.56-.184 1.026-.414 1.165-1.357.862-.254-.093-.484-.28-.852-.21zm131.907 35.611a215.55 215.55 0 01-2.324 2.332c-.184.186-.184.28 0 .466a224.01 224.01 0 012.324 2.332c-.552.094-1.012.164-1.404-.326-.483-.56-1.035-1.073-1.541-1.586-.115-.116-.231-.256-.461-.28-.989-.093-.989-.093-.989.91v.956c0 .257 0 .42-.345.396-.3 0-.415-.07-.415-.396a145.29 145.29 0 000-4.478c0-.326.092-.396.415-.396.322 0 .345.14.345.396-.023.513 0 1.003 0 1.516 0 .257.069.327.345.35.575.047 1.013-.07 1.404-.536.345-.443.805-.77 1.15-1.213.369-.513.829-.606 1.496-.443zm-29.364 5.13c-.69.164-1.173.024-1.587-.49-.415-.512-.921-.956-1.404-1.422-.138-.117-.23-.256-.46-.256-.99-.07-.99-.094-.99.91v.885c0 .257.023.443-.345.443-.391 0-.391-.186-.391-.466 0-1.446.023-2.915 0-4.361 0-.327.069-.443.414-.443.414 0 .322.233.322.466 0 .467.023.933 0 1.4-.023.326.115.373.414.396.553.047.967-.117 1.335-.56.345-.42.782-.793 1.151-1.189.575-.583.575-.583 1.495-.443-.736.746-1.426 1.492-2.163 2.169-.368.326-.299.49.023.793.737.7 1.427 1.422 2.186 2.168zM57.807 28.171c-.069.467-.023 1.027-.368 1.47-.184.233-.483.42-.575.046-.368-1.236-1.473-1.982-1.91-3.125-.3-.77-.368-1.609.092-2.355.253-.443.575-.443.736.023.3.91.944 1.54 1.496 2.216.368.49.506 1.05.53 1.725zm2.554-12.826c.07.56-.184 1.073-.345 1.562-.23.723-.07 1.33.253 1.96.207.396.437.816.506 1.282.023.21.023.42-.16.56-.208.163-.346-.07-.461-.164a28.749 28.749 0 01-1.749-1.609c-.437-.443-.506-1.073-.23-1.632.368-.7.713-1.4 1.082-2.1.023-.022.023-.069.046-.092.184-.28.299-.723.736-.607.368.094.345.49.322.84zm218.802 65.811c.76 0 1.519.023 2.255 0 .323 0 .346.14.346.396 0 .257-.023.42-.346.397-.506-.023-.989 0-1.495-.023-.3-.024-.415.07-.392.396.023 1.213 0 2.425.023 3.638 0 .303-.023.466-.414.466-.368 0-.345-.186-.345-.443v-3.568c0-.35-.069-.513-.437-.466-.414.046-.852 0-1.266 0-.253 0-.529.093-.529-.373-.023-.513.276-.397.552-.397.69-.023 1.358-.023 2.048-.023zM57.462 58.721c-.207.047-.437.117-.644.117-.161 0-.438 0-.346-.326.184-.653 1.934-1.563 2.532-1.306.138.046.253.163.368.233.253.163.575.35.414.676-.16.35-.322.746-.805.793-.553.093-1.013-.117-1.519-.187z" fill="#9A0303"/><path d="M164.493 81.156c-.644 0-1.243-.397-1.45-.98-.046-.14-.184-.373 0-.443.207-.07.46-.14.668.094.644.793.897.77 1.587-.024.185-.21.461-.14.645-.07.207.07.046.304 0 .42-.207.606-.783 1.003-1.45 1.003zm-25.383 0c-.644 0-1.242-.373-1.472-.98-.046-.14-.161-.373 0-.443.207-.07.483-.163.69.117.506.723 1.082.723 1.542 0 .184-.303.483-.187.667-.14.253.07.046.326 0 .466-.207.607-.782.98-1.427.98z" fill="#9A0303"/></g><defs><clipPath id="clip0"><path fill="#fff" d="M0 0h288v92H0z"/></clipPath></defs></svg>