<svg width="323" height="81" fill="none" xmlns="http://www.w3.org/2000/svg"><path d="M281.706 35.804c-.574.575-1.199.938-1.78 1.346-1.104.756-2.1 1.63-2.965 2.648-1.177 1.396-1.969 2.946-2.15 4.823-.124 1.33-.342 2.648-.109 3.971.399 2.343.85 4.678 1.998 6.795a46.817 46.817 0 003.044 4.852c1.504 2.117 3.43 3.812 5.29 5.572 1.054.997 2.296 1.775 3.466 2.627a15.656 15.656 0 002.478 1.505c.109.051.218.11.327.16.923.386 1.01.328 1.01-.676V31.701c0-2.146-.952-3.82-2.587-5.121-.676-.539-1.489-.8-2.361-.8-4.12 0-8.233-.037-12.353.007-8.908.08-17.817.007-26.733.036-.683 0-.69-.007-.69-.67V8.51c0-.145 0-.29.015-.436.014-.167.101-.262.276-.27.196 0 .385-.006.581-.006 10.558 0 21.116-.008 31.674.007 1.402 0 2.812.145 4.178.45 1.933.437 3.655 1.347 5.275 2.503 1.628 1.164 2.979 2.612 4.36 4.03 3.371 3.478 6.736 6.955 10.107 10.432 3.154 3.252 6.307 6.496 9.454 9.755 1.177 1.223 2.347 2.445 3.538 3.645.763.771 1.337 1.71 1.97 2.59 1.039 1.447 1.794 3.019 2.332 4.721.509 1.615.719 3.245.719 4.925-.014 8.315-.007 16.622-.007 24.937 0 .88.124.8-.828.8h-52.739c-1.722 0-3.43-.196-5.115-.494-.778-.138-1.519-.473-2.26-.764-1.926-.757-3.597-1.942-5.326-3.055-1.853-1.186-3.401-2.714-4.985-4.205-1.221-1.15-2.144-2.546-3.015-3.972-.088-.146-.168-.298-.262-.437-.843-1.236-1.286-2.647-1.766-4.044-.588-1.71-.741-3.485-.894-5.274-.13-1.477 0-2.903.32-4.314.509-2.255 1.432-4.35 2.565-6.373 1.126-2.007 2.849-3.375 4.68-4.663 1.075-.756 2.223-1.382 3.451-1.826 2.129-.77 4.258-1.52 6.598-1.498 6.147.044 12.302.014 18.449.014.211.015.429-.029.77.117zM155.193 36c-.625.633-1.25 1.266-1.882 1.891-4.745 4.78-9.483 9.559-14.227 14.338-.357.364-.72.72-1.054 1.105-.247.284-.531.35-.894.35-7.673-.008-15.353 0-23.027 0h-.29c-.974.043-1.417.48-1.461 1.44-.007.218 0 .436 0 .655v19.844c0 1.018.073.924-.952.924H84.238c-.974 0-.901.08-.901-.895 0-8.97-.015-17.931.007-26.9.007-2.634.429-5.202 1.722-7.566a9.573 9.573 0 011.628-2.197c2.223-2.225 4.403-4.495 6.598-6.75 1.555-1.593 3.102-3.2 4.657-4.794l9.221-9.471c1.722-1.768 3.459-3.528 5.166-5.31.938-.982 1.89-1.935 3.001-2.736.916-.654 1.89-1.193 2.943-1.534 1.17-.386 2.376-.611 3.633-.611 10.994.014 21.988.007 32.982.007.974 0 .894-.08.894.902V24.47c0 1.091.123.938-.901.938h-37.269c-2.274 0-4.723 1.964-5.239 4.183-.051.211-.08.43-.08.647a599.845 599.845 0 000 5.02c0 .567.015.574.552.582.364.007.727 0 1.09 0h41.185c.022.058.044.109.066.16zm41.643.51V8.664c0-.916-.102-.873.85-.873 4.65 0 9.3-.029 13.951.008 4.069.036 8.138.007 12.2.021.123 0 .24.008.363 0 .291-.021.385.131.378.393-.007.218 0 .437 0 .655 0 14.854.007 29.708-.007 44.563 0 2.153.937 3.833 2.55 5.142.589.48 1.374.67 2.18.67 4.193-.008 8.378-.008 12.571 0 1.061 0 .952-.153.952.982.007 5.114 0 10.227 0 15.341v.364c-.015.553-.015.56-.582.56-1.577.007-3.146 0-4.723 0-9.708 0-19.422-.014-29.13.022-1.272.007-2.5-.131-3.72-.415a3.133 3.133 0 01-.88-.334c-.414-.248-.864-.437-1.293-.662-.807-.415-1.439-1.077-2.035-1.724-1.38-1.492-2.434-3.194-2.964-5.18-.393-1.476-.676-2.96-.669-4.502.022-9.057.008-18.12.008-27.185zM71.864 67.128c-.538-.393-.8-.815-1.076-1.186-1.17-1.593-2.695-2.786-4.316-3.84-1.67-1.091-3.56-1.593-5.58-1.535-.77.022-1.548-.03-2.318.123-2.194.422-4.091 1.317-5.653 2.997-2.732 2.946-5.566 5.798-8.356 8.693-2.573 2.67-5.13 5.347-7.703 8.009-.167.175-.24.407-.45.611a672.095 672.095 0 01-2.267-2.342c-2.1-2.183-4.2-4.358-6.293-6.54-2.565-2.67-5.137-5.34-7.702-8.016-.756-.786-1.511-1.579-2.478-2.102-1.359-.735-2.805-1.171-4.345-1.259-.603-.036-1.206-.007-1.81-.08-.188-.022-.384 0-.58.03-2.224.312-4.23 1.083-5.995 2.53-1.228 1.005-2.333 2.103-3.3 3.354-.13.175-.275.342-.413.502-.03.037-.08.044-.124.066-.21-.051-.145-.226-.145-.357v-26.1c0-.843.269-1.63.625-2.371.82-1.695 1.925-3.193 3.364-4.423.908-.778 1.955-1.338 2.994-1.906.21-.116.443-.21.675-.254 1.766-.299 3.532-.713 5.327-.473 2.288.305 4.454.99 6.532 2.059 4.52 2.32 7.6 5.979 9.947 10.358 1.396 2.59 2.231 5.412 3.169 8.19.871 2.59 1.714 5.195 2.572 7.791.036.11.094.219.152.357.298-.11.298-.378.37-.59.873-2.64 1.745-5.288 2.624-7.928.748-2.248 1.468-4.518 2.463-6.67 1.679-3.63 3.982-6.802 7.07-9.37.654-.545 1.374-.99 2.093-1.44 2.412-1.506 5.021-2.495 7.84-2.873 1.141-.153 2.267-.044 3.394.152.21.037.428.073.646.088 1.112.072 2.093.465 3.06 1.025 1.663.968 3.066 2.19 4.163 3.761.458.655.886 1.331 1.213 2.059.4.894.618 1.818.61 2.815-.014 8.409-.006 16.818-.006 25.227.007.218.007.45.007.858zM188.131 42.19v33.44c0 .96.124.865-.836.865h-25.933c-1.024 0-.952.131-.952-.916V8.706c0-1.055-.029-.902.887-.91h25.933c.988 0 .901-.116.901.888V42.19z" fill="#045596"/><path d="M62.091 26.048c-.429-.021-.85-.08-1.279-.065-2.209.065-4.367.342-6.474 1.098-2.565.924-5.065 1.928-7.288 3.528-2.805 2.022-5.028 4.597-6.852 7.521-1.345 2.16-2.325 4.51-3.234 6.882-.087.225-.116.465-.349.712-.174-.443-.327-.85-.486-1.258-1.01-2.546-2.108-5.048-3.64-7.332-3.176-4.706-7.347-8.118-12.811-9.842-.116-.036-.233-.065-.342-.109-1.954-.887-4.054-1.076-6.147-1.295-.312-.029-.625.015-.937.037-.313.021-.625.05-.945.065-.036 0-.08-.029-.123-.044.327-.545 24.05-24.724 25.46-25.946 8.502 8.634 17.01 17.268 25.512 25.91a1.408 1.408 0 00-.065.138z" fill="#045596"/></svg>