<svg width="332" height="295" fill="none" xmlns="http://www.w3.org/2000/svg"><path d="M153.256 68.975c14.4 8.265 30.6 13.43 42.45 25.914 14.175 14.981 19.65 37.451 26.625 58.114 6.975 20.662 17.925 42.185 36.45 48.298 14.4 4.735 31.875-.43 43.05 10.848 4.65 4.735 15.675 15.066 18.15 21.61 6 16.185 6.9 28.755 9.45 45.199.375 2.41 1.65 4.649.975 6.973-.675 2.411-2.85 3.875-4.875 4.822-14.025 6.629-30.225.86-43.65-7.232-13.5-8.179-26.175-18.769-41.1-22.299.225 9.126-8.475 11.451-15.375 14.55-7.425 3.272-12.975 5.941-20.775 4.133-8.175-1.808-15.375-3.272-22.35-8.265-4.65-3.358-9.675-4.994-14.85-7.146-9.45-3.874-19.725-.775-29.475 1.808-35.175 9.126-74.325 10.159-105-11.623-12.225-8.695-23.4-22.556-23.625-39.172 10.725 10.675 35.85 10.245 49.8 7.145 19.875-4.218 27.75 1.034 45.3-10.417-2.4-4.735-14.1-14.119-20.475-18.94-13.5-10.332-17.25-20.491-32.1-27.723-14.925-7.232-22.35-21.351-25.65-39.689-1.575-8.867-7.575-16.444-7.125-25.57 1.05-23.848-5.775-42.96-14.4-63.967C-.644 23.432-2.594-1.02 15.856 1.133c14.475 1.722 26.1 20.921 41.175 24.451 17.7 4.046 32.625 1.463 49.5 11.278 16.35 9.212 30.45 22.729 46.725 32.113z" fill="#5C97C1" stroke="#497CBF" stroke-width=".86" stroke-miterlimit="10"/></svg>