<svg width="721" height="482" fill="none" xmlns="http://www.w3.org/2000/svg"><path d="M317.5 141.359s14.9-29.85 150.999-10.764c11.4 10.764-16.199 57.438-51.399 62.233-36.8 1.537-109.8-38.444-99.6-51.469zm324.9 88.374s27.8 16.373 46.7 41.611c18.9 25.148 27 71.462 0 79.694-27 8.141-97.9-50.566-97.9-50.566l51.2-70.739z" fill="#4488B7"/><path d="M454 126.885S566.7-3.283 654.1.064c69.5 9.86 89.9 45.41 34.8 175.487-55.1 130.168-160.6 199.911-260 220.264-99.4 20.353-183.3 23.247-230 16.915l-43.2 12.122 38.3 56.355h-31.1s-59.9-27.047-52.7-48.124C44.4 433.536 2.4 412.007 0 402.147c106.6-5.428 121-10.584 121-10.584s11.9-84.758 196.4-136.771C410.9 202.507 454 126.885 454 126.885z" fill="#4488B7"/><path opacity=".13" d="M589.4 49.907s84.4-23.61 108.3 35.73c4.5 26.052-14.4 90.276-93 74.808-66.5-17.458-54.8-80.054-31.9-97.513 12.5-9.769 16.6-13.026 16.6-13.026z" fill="#4488B7"/><path d="M580.4 73.424c10.3-.633 20.6-.723 31-.633 10.3.09 20.6.724 31.1 1.99 1.4.09 2.6.362 3.9.634 1.4.271 2.6.361 3.9.723 1.401.271 2.601.452 3.901.905l1.9.633 1 .362 1 .452 1.899.995c.5.362 1.101.724 1.601 1.086.5.361 1.1.723 1.6 1.085l1.5 1.266c2 1.719 3.699 3.528 5.299 5.428 3.1 3.799 5.801 7.87 8.101 12.03 2.3 4.161 4.5 8.503 6.1 12.936a194.26 194.26 0 00-7.701-12.031c-2.7-3.89-5.7-7.78-9-11.216-3.3-3.438-6.9-6.785-11.1-8.504l-.799-.361-.8-.272L653 80.48c-1.1-.362-2.399-.452-3.7-.724-1.2-.271-2.399-.361-3.699-.633-1.2-.271-2.401-.362-3.801-.452-5-.724-10.199-1.086-15.199-1.628l-7.701-.634-7.7-.633c-10.2-.723-20.5-1.447-30.8-2.352z" fill="#4488B7"/></svg>